<svg width="26" height="9" viewBox="0 0 26 9" fill="none" xmlns="http://www.w3.org/2000/svg">
<path d="M4.44444 2C3.1 2 2 3.1 2 4.44444C2 5.78889 3.1 6.88889 4.44444 6.88889C5.78889 6.88889 6.88889 5.78889 6.88889 4.44444C6.88889 3.1 5.78889 2 4.44444 2Z" stroke="#EDE8FA" stroke-width="2.44444"/>
<path d="M21.5556 2C20.2111 2 19.1111 3.1 19.1111 4.44444C19.1111 5.78889 20.2111 6.88889 21.5556 6.88889C22.9 6.88889 24 5.78889 24 4.44444C24 3.1 22.9 2 21.5556 2Z" stroke="#EDE8FA" stroke-width="2.44444"/>
<path d="M13 2C11.6556 2 10.5556 3.1 10.5556 4.44444C10.5556 5.78889 11.6556 6.88889 13 6.88889C14.3444 6.88889 15.4444 5.78889 15.4444 4.44444C15.4444 3.1 14.3444 2 13 2Z" stroke="#EDE8FA" stroke-width="2.44444"/>
</svg>
