<svg width="27" height="27" viewBox="0 0 27 27" fill="none" xmlns="http://www.w3.org/2000/svg">
<path d="M15.1786 2.37946H12.5V1.48661C12.5 0.995536 12.0982 0.59375 11.6071 0.59375H4.46429C3.97321 0.59375 3.57143 0.995536 3.57143 1.48661V2.37946H0.892857C0.401786 2.37946 0 2.78125 0 3.27232V22.9152C0 23.4062 0.401786 23.808 0.892857 23.808H13.9375C13.4732 23.3259 13.0982 22.7723 12.8125 22.1652C12.7946 22.1205 12.7679 22.0759 12.75 22.0223H1.78571V4.16518H3.57143V5.05804C3.57143 5.54911 3.97321 5.95089 4.46429 5.95089H11.6071C12.0982 5.95089 12.5 5.54911 12.5 5.05804V4.16518H14.2857V14.5312C14.7679 14.067 15.3214 13.692 15.9286 13.4062C15.9732 13.3884 16.0179 13.3616 16.0714 13.3438V3.27232C16.0714 2.78125 15.6696 2.37946 15.1786 2.37946ZM10.7143 4.16518H5.35714V2.37946H10.7143V4.16518Z" fill="#8653FF"/>
<path d="M12.5033 4.16406V5.05692C12.5033 5.54799 12.1016 5.94978 11.6105 5.94978H4.46763C3.97656 5.94978 3.57478 5.54799 3.57478 5.05692V4.16406H1.78906V22.0212H12.7533C12.3783 21.1998 12.173 20.298 12.173 19.3426C12.173 17.5569 12.8873 15.9319 14.0569 14.7444C14.1283 14.6641 14.2087 14.5926 14.2891 14.5301V4.16406H12.5033ZM6.88728 19.0837L5.10156 20.8694C4.92299 21.0391 4.69978 21.1283 4.46763 21.1283C4.23549 21.1283 4.01228 21.0391 3.83371 20.8694L2.94085 19.9766C2.59263 19.6283 2.59263 19.0569 2.94085 18.7087C3.28906 18.3605 3.86049 18.3605 4.20871 18.7087L4.46763 18.9676L5.61942 17.8159C5.96763 17.4676 6.53906 17.4676 6.88728 17.8159C7.23549 18.1641 7.23549 18.7355 6.88728 19.0837ZM6.88728 13.7266L5.10156 15.5123C4.92299 15.6819 4.69978 15.7712 4.46763 15.7712C4.23549 15.7712 4.01228 15.6819 3.83371 15.5123L2.94085 14.6194C2.59263 14.2712 2.59263 13.6998 2.94085 13.3516C3.28906 13.0033 3.86049 13.0033 4.20871 13.3516L4.46763 13.6105L5.61942 12.4587C5.96763 12.1105 6.53906 12.1105 6.88728 12.4587C7.23549 12.8069 7.23549 13.3783 6.88728 13.7266ZM6.88728 8.36942L5.10156 10.1551C4.92299 10.3248 4.69978 10.4141 4.46763 10.4141C4.23549 10.4141 4.01228 10.3248 3.83371 10.1551L2.94085 9.26228C2.59263 8.91406 2.59263 8.34263 2.94085 7.99442C3.28906 7.64621 3.86049 7.64621 4.20871 7.99442L4.46763 8.25335L5.61942 7.10156C5.96763 6.75335 6.53906 6.75335 6.88728 7.10156C7.23549 7.44978 7.23549 8.02121 6.88728 8.36942Z" fill="#8653FF"/>
<path d="M20.25 13.5938C19.2946 13.5938 18.3839 13.808 17.5714 14.2009C16.9018 14.5134 16.2946 14.9509 15.7857 15.4777C14.6786 16.6027 14 18.1473 14 19.8438C14 20.7991 14.2143 21.7098 14.6071 22.5223C14.9196 23.192 15.3571 23.7991 15.8839 24.308C17.0089 25.4152 18.5536 26.0938 20.25 26.0938C23.6964 26.0938 26.5 23.2902 26.5 19.8438C26.5 16.3973 23.6964 13.5938 20.25 13.5938ZM24.625 20.7187C24.5804 20.933 24.5179 21.1473 24.4464 21.3616C24.4107 21.4598 24.3661 21.567 24.3214 21.6652C24.2768 21.7723 24.2321 21.8705 24.1786 21.9687C24.0714 22.1562 23.9554 22.3348 23.8304 22.5045C23.7679 22.5937 23.6964 22.6741 23.625 22.7634C23.4821 22.9241 23.3304 23.0759 23.1696 23.2188C23.0804 23.2902 23 23.3616 22.9107 23.4241C22.7411 23.558 22.5625 23.6652 22.375 23.7723C22.2768 23.8259 22.1786 23.8705 22.0714 23.9152C21.9732 23.9598 21.8661 24.0045 21.7679 24.0402C21.5536 24.1116 21.3393 24.1741 21.125 24.2188C20.8393 24.2812 20.5446 24.308 20.25 24.308C19.9554 24.308 19.6607 24.2812 19.375 24.2188C19.1607 24.1741 18.9464 24.1116 18.7321 24.0402C18.6339 24.0045 18.5268 23.9598 18.4286 23.9152C18.3214 23.8705 18.2232 23.8259 18.125 23.7723C17.9375 23.6652 17.7589 23.5491 17.5893 23.4241C17.5 23.3616 17.4196 23.2902 17.3304 23.2188C17.1696 23.0759 17.0179 22.9241 16.875 22.7634C16.8036 22.6741 16.7321 22.5937 16.6696 22.5045C16.5357 22.3348 16.4286 22.1562 16.3214 21.9687C16.2679 21.8705 16.2232 21.7723 16.1786 21.6652C16.1339 21.567 16.0893 21.4598 16.0536 21.3616C15.9821 21.1473 15.9196 20.933 15.875 20.7187C15.8125 20.433 15.7857 20.1384 15.7857 19.8438C15.7857 19.5491 15.8125 19.2545 15.875 18.9688C15.9196 18.7545 15.9821 18.5402 16.0536 18.3259C16.0893 18.2277 16.1339 18.1205 16.1786 18.0223C16.2232 17.9152 16.2679 17.817 16.3214 17.7188C16.4286 17.5313 16.5357 17.3527 16.6696 17.183C16.7321 17.0938 16.8036 17.0134 16.875 16.9241C17.0179 16.7634 17.1696 16.6116 17.3304 16.4687C17.4196 16.3973 17.5 16.3259 17.5893 16.2634C17.7589 16.1384 17.9375 16.0223 18.125 15.9152C18.2232 15.8616 18.3214 15.817 18.4286 15.7723C18.5268 15.7277 18.6339 15.683 18.7321 15.6473C18.9464 15.5759 19.1607 15.5134 19.375 15.4688C19.6607 15.4063 19.9554 15.3795 20.25 15.3795C20.5446 15.3795 20.8393 15.4063 21.125 15.4688C21.3393 15.5134 21.5536 15.5759 21.7679 15.6473C21.8661 15.683 21.9732 15.7277 22.0714 15.7723C22.1786 15.817 22.2768 15.8616 22.375 15.9152C22.5625 16.0223 22.7411 16.1295 22.9107 16.2634C23 16.3259 23.0804 16.3973 23.1696 16.4687C23.3304 16.6116 23.4821 16.7634 23.625 16.9241C23.6964 17.0134 23.7679 17.0938 23.8304 17.183C23.9554 17.3527 24.0714 17.5313 24.1786 17.7188C24.2321 17.817 24.2768 17.9152 24.3214 18.0223C24.3661 18.1205 24.4107 18.2277 24.4464 18.3259C24.5179 18.5402 24.5804 18.7545 24.625 18.9688C24.6875 19.2545 24.7143 19.5491 24.7143 19.8438C24.7143 20.1384 24.6875 20.433 24.625 20.7187Z" fill="#8653FF"/>
<path d="M23.8214 19.8437C23.8214 19.3795 24.1786 19.0134 24.625 18.9688C24.5804 18.7545 24.5179 18.5402 24.4464 18.3259C24.4107 18.2277 24.3661 18.1205 24.3214 18.0223C24.2768 17.9152 24.2321 17.817 24.1786 17.7188C24.0714 17.5313 23.9554 17.3527 23.8304 17.183C23.7679 17.0938 23.6964 17.0134 23.625 16.9241C23.4821 16.7634 23.3304 16.6116 23.1696 16.4687C23.0804 16.3973 23 16.3259 22.9107 16.2634C22.7411 16.1295 22.5625 16.0223 22.375 15.9152C22.2768 15.8616 22.1786 15.817 22.0714 15.7723C21.9732 15.7277 21.8661 15.683 21.7679 15.6473C21.5536 15.5759 21.3393 15.5134 21.125 15.4688C21.0804 15.9152 20.7143 16.2723 20.25 16.2723C19.7857 16.2723 19.4196 15.9152 19.375 15.4688C19.1607 15.5134 18.9464 15.5759 18.7321 15.6473C18.6339 15.683 18.5268 15.7277 18.4286 15.7723C18.3214 15.817 18.2232 15.8616 18.125 15.9152C17.9375 16.0223 17.7589 16.1384 17.5893 16.2634C17.5 16.3259 17.4196 16.3973 17.3304 16.4687C17.1696 16.6116 17.0179 16.7634 16.875 16.9241C16.8036 17.0134 16.7321 17.0938 16.6696 17.183C16.5357 17.3527 16.4286 17.5313 16.3214 17.7188C16.2679 17.817 16.2232 17.9152 16.1786 18.0223C16.1339 18.1205 16.0893 18.2277 16.0536 18.3259C15.9821 18.5402 15.9196 18.7545 15.875 18.9688C16.3214 19.0134 16.6786 19.3795 16.6786 19.8437C16.6786 20.308 16.3214 20.6741 15.875 20.7187C15.9196 20.933 15.9821 21.1473 16.0536 21.3616C16.0893 21.4598 16.1339 21.567 16.1786 21.6652C16.2232 21.7723 16.2679 21.8705 16.3214 21.9687C16.4286 22.1562 16.5357 22.3348 16.6696 22.5045C16.7321 22.5937 16.8036 22.6741 16.875 22.7634C17.0179 22.9241 17.1696 23.0759 17.3304 23.2188C17.4196 23.2902 17.5 23.3616 17.5893 23.4241C17.7589 23.5491 17.9375 23.6652 18.125 23.7723C18.2232 23.8259 18.3214 23.8705 18.4286 23.9152C18.5268 23.9598 18.6339 24.0045 18.7321 24.0402C18.9464 24.1116 19.1607 24.1741 19.375 24.2187C19.4196 23.7723 19.7857 23.4152 20.25 23.4152C20.7143 23.4152 21.0804 23.7723 21.125 24.2187C21.3393 24.1741 21.5536 24.1116 21.7679 24.0402C21.8661 24.0045 21.9732 23.9598 22.0714 23.9152C22.1786 23.8705 22.2768 23.8259 22.375 23.7723C22.5625 23.6652 22.7411 23.558 22.9107 23.4241C23 23.3616 23.0804 23.2902 23.1696 23.2188C23.3304 23.0759 23.4821 22.9241 23.625 22.7634C23.6964 22.6741 23.7679 22.5937 23.8304 22.5045C23.9554 22.3348 24.0714 22.1562 24.1786 21.9687C24.2321 21.8705 24.2768 21.7723 24.3214 21.6652C24.3661 21.567 24.4107 21.4598 24.4464 21.3616C24.5179 21.1473 24.5804 20.933 24.625 20.7187C24.1786 20.6741 23.8214 20.308 23.8214 19.8437ZM22.6696 18.692L20.8839 20.4777C20.7143 20.6384 20.4911 20.7366 20.25 20.7366H18.4643C17.9732 20.7366 17.5714 20.3348 17.5714 19.8437C17.5714 19.3527 17.9732 18.9509 18.4643 18.9509H19.8839L21.4018 17.4241C21.75 17.0759 22.3214 17.0759 22.6696 17.4241C23.0179 17.7723 23.0179 18.3437 22.6696 18.692Z" fill="#8653FF"/>
</svg>
