<svg width="19" height="24" viewBox="0 0 19 24" fill="none" xmlns="http://www.w3.org/2000/svg">
<path d="M1.1 24.0003C0.3 23.6003 0 22.9003 0 22.0003C0 19.4003 0.600001 17.1003 2.3 15.1003C2.7 14.6003 3.3 14.2003 3.8 13.7003C4 13.5003 4.3 13.5003 4.5 13.6003C6 14.5003 7.7 15.0003 9.5 14.9003C11 14.8003 12.4 14.4003 13.8 13.6003C14.1 13.4003 14.3 13.4003 14.6 13.7003C17 15.5003 18.2 17.9003 18.3 21.0003C18.3 21.3003 18.3 21.7003 18.3 22.0003C18.4 22.9003 18 23.6003 17.2 24.0003C11.8 24.0003 6.4 24.0003 1.1 24.0003Z" fill="#8856FC"/>
<path d="M9.00039 12C5.70039 12 2.90039 9.2 2.90039 6C2.90039 2.7 5.70039 0 9.00039 0C12.3004 0 15.1004 2.8 15.1004 6C15.2004 9.2 12.4004 12 9.00039 12Z" fill="#8856FC"/>
</svg>
