<svg width="27" height="26" viewBox="0 0 27 26" fill="none" xmlns="http://www.w3.org/2000/svg">
<path d="M15.1786 1.78571H12.5V0.892857C12.5 0.401786 12.0982 0 11.6071 0H4.46429C3.97321 0 3.57143 0.401786 3.57143 0.892857V1.78571H0.892857C0.401786 1.78571 0 2.1875 0 2.67857V22.3214C0 22.8125 0.401786 23.2143 0.892857 23.2143H13.9375C13.4732 22.7321 13.0982 22.1786 12.8125 21.5714C12.7946 21.5268 12.7679 21.4821 12.75 21.4286H1.78571V3.57143H3.57143V4.46429C3.57143 4.95536 3.97321 5.35714 4.46429 5.35714H11.6071C12.0982 5.35714 12.5 4.95536 12.5 4.46429V3.57143H14.2857V13.9375C14.7679 13.4732 15.3214 13.0982 15.9286 12.8125C15.9732 12.7946 16.0179 12.7679 16.0714 12.75V2.67857C16.0714 2.1875 15.6696 1.78571 15.1786 1.78571ZM10.7143 3.57143H5.35714V1.78571H10.7143V3.57143Z" fill="#8653ff"/>
<path d="M12.5033 3.57227V4.46512C12.5033 4.95619 12.1016 5.35798 11.6105 5.35798H4.46763C3.97656 5.35798 3.57478 4.95619 3.57478 4.46512V3.57227H1.78906V21.4294H12.7533C12.3783 20.608 12.173 19.7062 12.173 18.7508C12.173 16.9651 12.8873 15.3401 14.0569 14.1526C14.1283 14.0723 14.2087 14.0008 14.2891 13.9383V3.57227H12.5033ZM6.88728 18.4919L5.10156 20.2776C4.92299 20.4473 4.69978 20.5366 4.46763 20.5366C4.23549 20.5366 4.01228 20.4473 3.83371 20.2776L2.94085 19.3848C2.59263 19.0366 2.59263 18.4651 2.94085 18.1169C3.28906 17.7687 3.86049 17.7687 4.20871 18.1169L4.46763 18.3758L5.61942 17.2241C5.96763 16.8758 6.53906 16.8758 6.88728 17.2241C7.23549 17.5723 7.23549 18.1437 6.88728 18.4919ZM6.88728 13.1348L5.10156 14.9205C4.92299 15.0901 4.69978 15.1794 4.46763 15.1794C4.23549 15.1794 4.01228 15.0901 3.83371 14.9205L2.94085 14.0276C2.59263 13.6794 2.59263 13.108 2.94085 12.7598C3.28906 12.4116 3.86049 12.4116 4.20871 12.7598L4.46763 13.0187L5.61942 11.8669C5.96763 11.5187 6.53906 11.5187 6.88728 11.8669C7.23549 12.2151 7.23549 12.7866 6.88728 13.1348ZM6.88728 7.77762L5.10156 9.56334C4.92299 9.73298 4.69978 9.82227 4.46763 9.82227C4.23549 9.82227 4.01228 9.73298 3.83371 9.56334L2.94085 8.67048C2.59263 8.32227 2.59263 7.75084 2.94085 7.40262C3.28906 7.05441 3.86049 7.05441 4.20871 7.40262L4.46763 7.66155L5.61942 6.50977C5.96763 6.16155 6.53906 6.16155 6.88728 6.50977C7.23549 6.85798 7.23549 7.42941 6.88728 7.77762Z" fill="#8653ff"/>
<path d="M20.25 13C19.2946 13 18.3839 13.2143 17.5714 13.6071C16.9018 13.9196 16.2946 14.3571 15.7857 14.8839C14.6786 16.0089 14 17.5536 14 19.25C14 20.2054 14.2143 21.1161 14.6071 21.9286C14.9196 22.5982 15.3571 23.2054 15.8839 23.7143C17.0089 24.8214 18.5536 25.5 20.25 25.5C23.6964 25.5 26.5 22.6964 26.5 19.25C26.5 15.8036 23.6964 13 20.25 13ZM24.625 20.125C24.5804 20.3393 24.5179 20.5536 24.4464 20.7679C24.4107 20.8661 24.3661 20.9732 24.3214 21.0714C24.2768 21.1786 24.2321 21.2768 24.1786 21.375C24.0714 21.5625 23.9554 21.7411 23.8304 21.9107C23.7679 22 23.6964 22.0804 23.625 22.1696C23.4821 22.3304 23.3304 22.4821 23.1696 22.625C23.0804 22.6964 23 22.7679 22.9107 22.8304C22.7411 22.9643 22.5625 23.0714 22.375 23.1786C22.2768 23.2321 22.1786 23.2768 22.0714 23.3214C21.9732 23.3661 21.8661 23.4107 21.7679 23.4464C21.5536 23.5179 21.3393 23.5804 21.125 23.625C20.8393 23.6875 20.5446 23.7143 20.25 23.7143C19.9554 23.7143 19.6607 23.6875 19.375 23.625C19.1607 23.5804 18.9464 23.5179 18.7321 23.4464C18.6339 23.4107 18.5268 23.3661 18.4286 23.3214C18.3214 23.2768 18.2232 23.2321 18.125 23.1786C17.9375 23.0714 17.7589 22.9554 17.5893 22.8304C17.5 22.7679 17.4196 22.6964 17.3304 22.625C17.1696 22.4821 17.0179 22.3304 16.875 22.1696C16.8036 22.0804 16.7321 22 16.6696 21.9107C16.5357 21.7411 16.4286 21.5625 16.3214 21.375C16.2679 21.2768 16.2232 21.1786 16.1786 21.0714C16.1339 20.9732 16.0893 20.8661 16.0536 20.7679C15.9821 20.5536 15.9196 20.3393 15.875 20.125C15.8125 19.8393 15.7857 19.5446 15.7857 19.25C15.7857 18.9554 15.8125 18.6607 15.875 18.375C15.9196 18.1607 15.9821 17.9464 16.0536 17.7321C16.0893 17.6339 16.1339 17.5268 16.1786 17.4286C16.2232 17.3214 16.2679 17.2232 16.3214 17.125C16.4286 16.9375 16.5357 16.7589 16.6696 16.5893C16.7321 16.5 16.8036 16.4196 16.875 16.3304C17.0179 16.1696 17.1696 16.0179 17.3304 15.875C17.4196 15.8036 17.5 15.7321 17.5893 15.6696C17.7589 15.5446 17.9375 15.4286 18.125 15.3214C18.2232 15.2679 18.3214 15.2232 18.4286 15.1786C18.5268 15.1339 18.6339 15.0893 18.7321 15.0536C18.9464 14.9821 19.1607 14.9196 19.375 14.875C19.6607 14.8125 19.9554 14.7857 20.25 14.7857C20.5446 14.7857 20.8393 14.8125 21.125 14.875C21.3393 14.9196 21.5536 14.9821 21.7679 15.0536C21.8661 15.0893 21.9732 15.1339 22.0714 15.1786C22.1786 15.2232 22.2768 15.2679 22.375 15.3214C22.5625 15.4286 22.7411 15.5357 22.9107 15.6696C23 15.7321 23.0804 15.8036 23.1696 15.875C23.3304 16.0179 23.4821 16.1696 23.625 16.3304C23.6964 16.4196 23.7679 16.5 23.8304 16.5893C23.9554 16.7589 24.0714 16.9375 24.1786 17.125C24.2321 17.2232 24.2768 17.3214 24.3214 17.4286C24.3661 17.5268 24.4107 17.6339 24.4464 17.7321C24.5179 17.9464 24.5804 18.1607 24.625 18.375C24.6875 18.6607 24.7143 18.9554 24.7143 19.25C24.7143 19.5446 24.6875 19.8393 24.625 20.125Z" fill="#8653ff"/>
<path d="M23.8214 19.25C23.8214 18.7857 24.1786 18.4196 24.625 18.375C24.5804 18.1607 24.5179 17.9464 24.4464 17.7321C24.4107 17.6339 24.3661 17.5268 24.3214 17.4286C24.2768 17.3214 24.2321 17.2232 24.1786 17.125C24.0714 16.9375 23.9554 16.7589 23.8304 16.5893C23.7679 16.5 23.6964 16.4196 23.625 16.3304C23.4821 16.1696 23.3304 16.0179 23.1696 15.875C23.0804 15.8036 23 15.7321 22.9107 15.6696C22.7411 15.5357 22.5625 15.4286 22.375 15.3214C22.2768 15.2679 22.1786 15.2232 22.0714 15.1786C21.9732 15.1339 21.8661 15.0893 21.7679 15.0536C21.5536 14.9821 21.3393 14.9196 21.125 14.875C21.0804 15.3214 20.7143 15.6786 20.25 15.6786C19.7857 15.6786 19.4196 15.3214 19.375 14.875C19.1607 14.9196 18.9464 14.9821 18.7321 15.0536C18.6339 15.0893 18.5268 15.1339 18.4286 15.1786C18.3214 15.2232 18.2232 15.2679 18.125 15.3214C17.9375 15.4286 17.7589 15.5446 17.5893 15.6696C17.5 15.7321 17.4196 15.8036 17.3304 15.875C17.1696 16.0179 17.0179 16.1696 16.875 16.3304C16.8036 16.4196 16.7321 16.5 16.6696 16.5893C16.5357 16.7589 16.4286 16.9375 16.3214 17.125C16.2679 17.2232 16.2232 17.3214 16.1786 17.4286C16.1339 17.5268 16.0893 17.6339 16.0536 17.7321C15.9821 17.9464 15.9196 18.1607 15.875 18.375C16.3214 18.4196 16.6786 18.7857 16.6786 19.25C16.6786 19.7143 16.3214 20.0804 15.875 20.125C15.9196 20.3393 15.9821 20.5536 16.0536 20.7679C16.0893 20.8661 16.1339 20.9732 16.1786 21.0714C16.2232 21.1786 16.2679 21.2768 16.3214 21.375C16.4286 21.5625 16.5357 21.7411 16.6696 21.9107C16.7321 22 16.8036 22.0804 16.875 22.1696C17.0179 22.3304 17.1696 22.4821 17.3304 22.625C17.4196 22.6964 17.5 22.7679 17.5893 22.8304C17.7589 22.9554 17.9375 23.0714 18.125 23.1786C18.2232 23.2321 18.3214 23.2768 18.4286 23.3214C18.5268 23.3661 18.6339 23.4107 18.7321 23.4464C18.9464 23.5179 19.1607 23.5804 19.375 23.625C19.4196 23.1786 19.7857 22.8214 20.25 22.8214C20.7143 22.8214 21.0804 23.1786 21.125 23.625C21.3393 23.5804 21.5536 23.5179 21.7679 23.4464C21.8661 23.4107 21.9732 23.3661 22.0714 23.3214C22.1786 23.2768 22.2768 23.2321 22.375 23.1786C22.5625 23.0714 22.7411 22.9643 22.9107 22.8304C23 22.7679 23.0804 22.6964 23.1696 22.625C23.3304 22.4821 23.4821 22.3304 23.625 22.1696C23.6964 22.0804 23.7679 22 23.8304 21.9107C23.9554 21.7411 24.0714 21.5625 24.1786 21.375C24.2321 21.2768 24.2768 21.1786 24.3214 21.0714C24.3661 20.9732 24.4107 20.8661 24.4464 20.7679C24.5179 20.5536 24.5804 20.3393 24.625 20.125C24.1786 20.0804 23.8214 19.7143 23.8214 19.25ZM22.6696 18.0982L20.8839 19.8839C20.7143 20.0446 20.4911 20.1429 20.25 20.1429H18.4643C17.9732 20.1429 17.5714 19.7411 17.5714 19.25C17.5714 18.7589 17.9732 18.3571 18.4643 18.3571H19.8839L21.4018 16.8304C21.75 16.4821 22.3214 16.4821 22.6696 16.8304C23.0179 17.1786 23.0179 17.75 22.6696 18.0982Z" fill="#8653ff"/>
</svg>
