<svg width="27" height="14" viewBox="0 0 27 14" fill="none" xmlns="http://www.w3.org/2000/svg">
<path d="M9.28112 13.4576C8.83396 13.2555 8.69556 12.9046 8.69556 12.4261C8.68491 11.0755 9.01496 9.85263 9.89861 8.81049C10.1328 8.534 10.4203 8.32134 10.6758 8.06612C10.8036 7.93851 10.9207 7.94915 11.0697 8.03422C11.8789 8.51276 12.7625 8.74668 13.7101 8.70414C14.5085 8.67224 15.2644 8.45956 15.9565 8.04483C16.1268 7.93849 16.2439 7.95976 16.393 8.07673C17.6492 9.04444 18.2987 10.3099 18.32 11.905C18.32 12.0858 18.3093 12.2559 18.32 12.4261C18.3626 12.9046 18.1816 13.2555 17.7344 13.4576C14.9131 13.4576 12.1024 13.4576 9.28112 13.4576Z" fill="#8653FF"/>
<path d="M0 12.454C0.127758 12.018 0.223577 11.5713 0.383274 11.146C0.60685 10.5611 1.00077 10.0719 1.46921 9.64654C1.59697 9.5402 1.6715 9.54021 1.8099 9.62528C3.23653 10.5185 4.67381 10.5185 6.10043 9.62528C6.23884 9.54021 6.3453 9.51893 6.46241 9.64654C6.52629 9.71034 6.60082 9.76352 6.6647 9.81669C7.06926 10.1676 7.31413 10.5185 7.20766 11.1353C7.07991 11.8903 7.14379 12.6773 7.13314 13.4429C4.75897 13.4429 2.38481 13.4429 0.0106467 13.4429C2.43917e-07 13.1239 0 12.7942 0 12.454Z" fill="#8653FF"/>
<path d="M19.8962 13.4578C19.8536 12.5113 19.8004 11.5649 19.7578 10.6185C19.7578 10.544 19.7898 10.459 19.8323 10.4058C20.0453 10.1612 20.2795 9.9379 20.4924 9.69331C20.6415 9.5338 20.7799 9.53379 20.9609 9.65077C21.6422 10.108 22.4088 10.3207 23.2286 10.2782C23.9312 10.2463 24.57 10.0336 25.1556 9.64012C25.3153 9.53378 25.4111 9.53378 25.5601 9.67203C26.4757 10.5121 26.9442 11.5543 26.9974 12.7878C27.0081 13.1068 26.859 13.3195 26.5822 13.4472C24.3571 13.4578 22.132 13.4578 19.8962 13.4578Z" fill="#8653FF"/>
<path d="M13.4858 7.13352C11.7292 7.12289 10.2812 5.67662 10.2812 3.9539C10.2919 2.23117 11.7611 0.795577 13.5178 0.806211C15.2744 0.816845 16.7224 2.26307 16.7224 3.9858C16.7117 5.70853 15.2425 7.14415 13.4858 7.13352Z" fill="#8653FF"/>
<path d="M3.97083 3.96248C5.2697 3.97311 6.33434 5.04717 6.33434 6.3339C6.33434 7.63126 5.22711 8.72657 3.93889 8.69467C2.64002 8.6734 1.57537 7.58873 1.58602 6.302C1.59666 5.0259 2.6826 3.95185 3.97083 3.96248Z" fill="#8653FF"/>
<path d="M25.4358 6.32318C25.4465 7.6099 24.3818 8.68394 23.083 8.70521C21.7947 8.72647 20.6875 7.63118 20.6875 6.33382C20.6875 5.04709 21.7628 3.97304 23.051 3.9624C24.3499 3.9624 25.4252 5.02581 25.4358 6.32318Z" fill="#8653FF"/>
</svg>
