<svg width="25" height="26" viewBox="0 0 25 26" fill="none" xmlns="http://www.w3.org/2000/svg">
<path d="M24.4113 2.45746C24.3585 1.66662 23.726 1.03394 22.9354 0.981222L14.3173 0.401272C13.8693 0.37491 13.4213 0.533078 13.105 0.849415L0.454623 13.5029C-0.151541 14.1092 -0.151541 15.1373 0.454623 15.7436L9.65249 24.9437C10.2587 25.55 11.2865 25.55 11.8927 24.9437L24.543 12.2902C24.8593 11.9739 25.0438 11.5258 24.9911 11.0513L24.4113 2.45746ZM12.7097 17.9843V19.1178C12.7097 19.2496 12.6042 19.3287 12.4988 19.3287H11.3919C11.2601 19.3287 11.1811 19.2233 11.1811 19.1178V18.0107C10.0478 17.9316 9.1254 17.0617 9.01998 15.9281C9.01998 15.7963 9.1254 15.6909 9.23082 15.6909H10.3641C10.4695 15.6909 10.5486 15.7436 10.5749 15.849C10.654 16.1917 10.9702 16.4553 11.3392 16.4553H12.3143C12.8942 16.4553 13.4213 16.0336 13.5003 15.4536C13.5267 14.8209 12.9996 14.241 12.3407 14.241H11.6028C10.2059 14.241 8.96727 13.2129 8.83549 11.8421C8.70372 10.3659 9.75791 9.12688 11.1284 8.94235V7.80882C11.1284 7.67701 11.2338 7.59792 11.3392 7.59792H12.4725C12.6042 7.59792 12.6833 7.70337 12.6833 7.80882V8.91599C13.8166 8.99508 14.739 9.865 14.8444 10.9985C14.8444 11.1303 14.739 11.2358 14.6336 11.2358H13.5267C13.4212 11.2358 13.3422 11.1567 13.3158 11.0776C13.2368 10.7349 12.9205 10.4713 12.5515 10.4713H11.5764C10.9966 10.4713 10.4695 10.8931 10.3904 11.473C10.3114 12.1321 10.8385 12.712 11.4973 12.712H12.3407C13.8956 12.712 15.1607 14.0565 15.0025 15.6381C14.8708 16.8508 13.8956 17.7998 12.7097 17.9843ZM20.7479 7.0707C20.0627 7.75609 18.9821 7.75609 18.2969 7.0707C17.6117 6.3853 17.6117 5.30449 18.2969 4.61909C18.9821 3.9337 20.0627 3.9337 20.7479 4.61909C21.4331 5.30449 21.4331 6.41166 20.7479 7.0707Z" fill="#8653FF"/>
</svg>
