<svg width="20" height="29" viewBox="0 0 20 29" fill="none" xmlns="http://www.w3.org/2000/svg">
<path d="M2.9116 27.968C2.67854 27.8515 2.56201 27.735 2.56201 27.5019C2.56201 27.3854 2.56201 27.2689 2.56201 27.2689C2.56201 24.3557 2.56201 21.4425 2.56201 18.5293C2.56201 18.4128 2.56201 18.2962 2.56201 18.1797C4.42646 19.6945 6.52396 20.5103 8.85452 20.7433C8.85452 20.8598 8.85452 20.8598 8.85452 20.9763C8.85452 23.1904 8.85452 25.2879 8.85452 27.5019C8.85452 27.735 8.85452 27.968 8.62146 28.2011C8.50493 28.2011 8.3884 28.2011 8.3884 28.2011C7.80577 27.8515 7.22313 27.3854 6.75702 27.0358C6.17438 26.5697 5.59174 26.5697 5.0091 27.0358C4.42646 27.3854 3.84382 27.8515 3.26118 28.2011C3.02813 27.968 2.9116 27.968 2.9116 27.968Z" fill="#8856FC"/>
<path d="M10.6042 27.968C10.3712 27.8515 10.2546 27.735 10.2546 27.5019C10.2546 27.3854 10.2546 27.3854 10.2546 27.2689C10.2546 25.1714 10.2546 23.0739 10.2546 20.9763C10.2546 20.8598 10.2546 20.7433 10.2546 20.6268C12.5852 20.5103 14.6827 19.6945 16.5471 18.1797C16.5471 18.2962 16.5471 18.4128 16.5471 18.4128C16.5471 21.326 16.5471 24.2392 16.5471 27.2689C16.5471 27.5019 16.5471 27.8515 16.3141 27.968C16.1976 27.968 16.081 27.968 16.081 27.968C15.4984 27.6184 14.9158 27.1523 14.4496 26.8027C13.867 26.3366 13.2844 26.3366 12.7017 26.8027C12.1191 27.1523 11.5364 27.6184 10.9538 27.968C10.7207 27.968 10.7207 27.968 10.6042 27.968Z" fill="#8856FC"/>
<path d="M9.67108 0C14.9148 0 19.2264 4.31154 19.3429 9.5553C19.3429 14.7991 15.0314 19.2271 9.67108 19.2271C4.42733 19.2271 -0.000732422 14.9156 -0.000732422 9.5553C-0.000732422 4.31154 4.3108 0 9.67108 0ZM9.67108 1.86445C5.47608 1.86445 1.98024 5.24377 1.98024 9.5553C1.98024 13.7503 5.47608 17.2461 9.67108 17.2461C13.8661 17.2461 17.3619 13.7503 17.3619 9.5553C17.3619 5.3603 13.8661 1.86445 9.67108 1.86445Z" fill="#8856FC"/>
<path d="M15.9642 9.55031C15.9642 12.9296 13.1675 15.8428 9.67166 15.8428C6.29235 15.8428 3.37915 13.0461 3.37915 9.55031C3.37915 6.171 6.17582 3.25781 9.67166 3.25781C13.051 3.25781 15.8476 6.05447 15.9642 9.55031Z" fill="#8856FC"/>
</svg>
