<svg width="33" height="32" viewBox="0 0 33 32" fill="none" xmlns="http://www.w3.org/2000/svg">
<path d="M18.8068 2.77813H15.5728V1.70547C15.5728 1.11551 15.0877 0.632812 14.4947 0.632812H5.87058C5.27766 0.632812 4.79255 1.11551 4.79255 1.70547V2.77813H1.55849C0.965578 2.77813 0.480469 3.26082 0.480469 3.85078V27.4492C0.480469 28.0392 0.965578 28.5219 1.55849 28.5219H17.3084C16.7478 27.9426 16.295 27.2776 15.9501 26.5482C15.9285 26.4946 15.8962 26.4409 15.8746 26.3766H2.63651V4.92344H4.79255V5.9961C4.79255 6.58606 5.27766 7.06875 5.87058 7.06875H14.4947C15.0877 7.06875 15.5728 6.58606 15.5728 5.9961V4.92344H17.7288V17.377C18.3109 16.8192 18.9793 16.3687 19.7124 16.0254C19.7663 16.004 19.8202 15.9718 19.8849 15.9503V3.85078C19.8849 3.26082 19.3997 2.77813 18.8068 2.77813ZM13.4167 4.92344H6.9486V2.77813H13.4167V4.92344Z" fill="white"/>
<path d="M15.5808 4.92188V5.99453C15.5808 6.58449 15.0957 7.06719 14.5028 7.06719H5.8786C5.28568 7.06719 4.80057 6.58449 4.80057 5.99453V4.92188H2.64453V26.375H15.8826C15.4299 25.3882 15.1819 24.3048 15.1819 23.157C15.1819 21.0117 16.0443 19.0595 17.4565 17.6329C17.5428 17.5363 17.6398 17.4505 17.7368 17.3754V4.92188H15.5808ZM8.80003 22.846L6.64399 24.9913C6.42839 25.1951 6.15888 25.3023 5.8786 25.3023C5.59831 25.3023 5.3288 25.1951 5.1132 24.9913L4.03518 23.9186C3.61475 23.5003 3.61475 22.8138 4.03518 22.3955C4.45561 21.9771 5.14554 21.9771 5.56597 22.3955L5.8786 22.7065L7.26924 21.3228C7.68967 20.9045 8.37961 20.9045 8.80003 21.3228C9.22046 21.7411 9.22046 22.4276 8.80003 22.846ZM8.80003 16.41L6.64399 18.5553C6.42839 18.7591 6.15888 18.8664 5.8786 18.8664C5.59831 18.8664 5.3288 18.7591 5.1132 18.5553L4.03518 17.4827C3.61475 17.0643 3.61475 16.3778 4.03518 15.9595C4.45561 15.5412 5.14554 15.5412 5.56597 15.9595L5.8786 16.2706L7.26924 14.8869C7.68967 14.4685 8.37961 14.4685 8.80003 14.8869C9.22046 15.3052 9.22046 15.9917 8.80003 16.41ZM8.80003 9.97409L6.64399 12.1194C6.42839 12.3232 6.15888 12.4305 5.8786 12.4305C5.59831 12.4305 5.3288 12.3232 5.1132 12.1194L4.03518 11.0467C3.61475 10.6284 3.61475 9.94191 4.03518 9.52357C4.45561 9.10524 5.14554 9.10524 5.56597 9.52357L5.8786 9.83464L7.26924 8.45091C7.68967 8.03258 8.37961 8.03258 8.80003 8.45091C9.22046 8.86925 9.22046 9.55575 8.80003 9.97409Z" fill="white"/>
<path d="M24.9251 16.25C23.7716 16.25 22.672 16.5074 21.691 16.9794C20.8825 17.3548 20.1494 17.8804 19.5349 18.5133C18.1982 19.8649 17.3789 21.7205 17.3789 23.7586C17.3789 24.9063 17.6376 26.0005 18.112 26.9766C18.4893 27.7811 19.0175 28.5105 19.6535 29.1219C21.0118 30.452 22.8768 31.2672 24.9251 31.2672C29.0862 31.2672 32.4712 27.8991 32.4712 23.7586C32.4712 19.6181 29.0862 16.25 24.9251 16.25ZM30.2074 24.8098C30.1535 25.0672 30.078 25.3247 29.9918 25.5821C29.9486 25.7001 29.8947 25.8288 29.8408 25.9468C29.7869 26.0755 29.733 26.1935 29.6684 26.3115C29.539 26.5368 29.3988 26.7513 29.2479 26.9551C29.1725 27.0624 29.0862 27.1589 29 27.2662C28.8275 27.4593 28.6442 27.6416 28.4502 27.8132C28.3424 27.8991 28.2454 27.9849 28.1376 28.06C27.9327 28.2208 27.7171 28.3496 27.4907 28.4783C27.3722 28.5426 27.2536 28.5963 27.1242 28.6499C27.0056 28.7035 26.8763 28.7572 26.7577 28.8001C26.499 28.8859 26.2402 28.961 25.9815 29.0146C25.6365 29.0897 25.2808 29.1219 24.9251 29.1219C24.5693 29.1219 24.2136 29.0897 23.8686 29.0146C23.6099 28.961 23.3511 28.8859 23.0924 28.8001C22.9738 28.7572 22.8445 28.7035 22.7259 28.6499C22.5965 28.5963 22.4779 28.5426 22.3594 28.4783C22.133 28.3496 21.9174 28.2101 21.7126 28.06C21.6048 27.9849 21.5077 27.8991 21.3999 27.8132C21.2059 27.6416 21.0226 27.4593 20.8501 27.2662C20.7639 27.1589 20.6777 27.0624 20.6022 26.9551C20.4405 26.7513 20.3111 26.5368 20.1818 26.3115C20.1171 26.1935 20.0632 26.0755 20.0093 25.9468C19.9554 25.8288 19.9015 25.7001 19.8584 25.5821C19.7721 25.3247 19.6967 25.0672 19.6428 24.8098C19.5673 24.4665 19.5349 24.1126 19.5349 23.7586C19.5349 23.4046 19.5673 23.0506 19.6428 22.7074C19.6967 22.45 19.7721 22.1925 19.8584 21.9351C19.9015 21.8171 19.9554 21.6884 20.0093 21.5704C20.0632 21.4417 20.1171 21.3237 20.1818 21.2057C20.3111 20.9804 20.4405 20.7659 20.6022 20.5621C20.6777 20.4548 20.7639 20.3583 20.8501 20.251C21.0226 20.0579 21.2059 19.8756 21.3999 19.704C21.5077 19.6181 21.6048 19.5323 21.7126 19.4572C21.9174 19.3071 22.133 19.1676 22.3594 19.0389C22.4779 18.9745 22.5965 18.9209 22.7259 18.8673C22.8445 18.8137 22.9738 18.76 23.0924 18.7171C23.3511 18.6313 23.6099 18.5562 23.8686 18.5026C24.2136 18.4275 24.5693 18.3953 24.9251 18.3953C25.2808 18.3953 25.6365 18.4275 25.9815 18.5026C26.2402 18.5562 26.499 18.6313 26.7577 18.7171C26.8763 18.76 27.0056 18.8137 27.1242 18.8673C27.2536 18.9209 27.3722 18.9745 27.4907 19.0389C27.7171 19.1676 27.9327 19.2963 28.1376 19.4572C28.2454 19.5323 28.3424 19.6181 28.4502 19.704C28.6442 19.8756 28.8275 20.0579 29 20.251C29.0862 20.3583 29.1725 20.4548 29.2479 20.5621C29.3988 20.7659 29.539 20.9804 29.6684 21.2057C29.733 21.3237 29.7869 21.4417 29.8408 21.5704C29.8947 21.6884 29.9486 21.8171 29.9918 21.9351C30.078 22.1925 30.1535 22.45 30.2074 22.7074C30.2828 23.0506 30.3152 23.4046 30.3152 23.7586C30.3152 24.1126 30.2828 24.4665 30.2074 24.8098Z" fill="white"/>
<path d="M29.2389 23.756C29.2389 23.1982 29.6701 22.7584 30.2091 22.7048C30.1552 22.4474 30.0798 22.1899 29.9935 21.9325C29.9504 21.8145 29.8965 21.6858 29.8426 21.5678C29.7887 21.4391 29.7348 21.3211 29.6701 21.2031C29.5408 20.9778 29.4006 20.7633 29.2497 20.5595C29.1742 20.4522 29.088 20.3557 29.0018 20.2484C28.8293 20.0554 28.646 19.873 28.452 19.7014C28.3442 19.6156 28.2471 19.5297 28.1393 19.4547C27.9345 19.2938 27.7189 19.165 27.4925 19.0363C27.3739 18.972 27.2554 18.9183 27.126 18.8647C27.0074 18.8111 26.8781 18.7574 26.7595 18.7145C26.5007 18.6287 26.242 18.5536 25.9833 18.5C25.9294 19.0363 25.4874 19.4654 24.9268 19.4654C24.3663 19.4654 23.9243 19.0363 23.8704 18.5C23.6117 18.5536 23.3529 18.6287 23.0942 18.7145C22.9756 18.7574 22.8463 18.8111 22.7277 18.8647C22.5983 18.9183 22.4797 18.972 22.3611 19.0363C22.1348 19.165 21.9192 19.3045 21.7143 19.4547C21.6065 19.5297 21.5095 19.6156 21.4017 19.7014C21.2077 19.873 21.0244 20.0554 20.8519 20.2484C20.7657 20.3557 20.6794 20.4522 20.604 20.5595C20.4423 20.7633 20.3129 20.9778 20.1835 21.2031C20.1189 21.3211 20.065 21.4391 20.0111 21.5678C19.9572 21.6858 19.9033 21.8145 19.8601 21.9325C19.7739 22.1899 19.6984 22.4474 19.6445 22.7048C20.1835 22.7584 20.6148 23.1982 20.6148 23.756C20.6148 24.3138 20.1835 24.7536 19.6445 24.8072C19.6984 25.0647 19.7739 25.3221 19.8601 25.5795C19.9033 25.6975 19.9572 25.8262 20.0111 25.9442C20.065 26.073 20.1189 26.1909 20.1835 26.3089C20.3129 26.5342 20.4423 26.7487 20.604 26.9525C20.6794 27.0598 20.7657 27.1563 20.8519 27.2636C21.0244 27.4567 21.2077 27.639 21.4017 27.8107C21.5095 27.8965 21.6065 27.9823 21.7143 28.0574C21.9192 28.2075 22.1348 28.347 22.3611 28.4757C22.4797 28.5401 22.5983 28.5937 22.7277 28.6473C22.8463 28.701 22.9756 28.7546 23.0942 28.7975C23.3529 28.8833 23.6117 28.9584 23.8704 29.012C23.9243 28.4757 24.3663 28.0466 24.9268 28.0466C25.4874 28.0466 25.9294 28.4757 25.9833 29.012C26.242 28.9584 26.5007 28.8833 26.7595 28.7975C26.8781 28.7546 27.0074 28.701 27.126 28.6473C27.2554 28.5937 27.3739 28.5401 27.4925 28.4757C27.7189 28.347 27.9345 28.2183 28.1393 28.0574C28.2471 27.9823 28.3442 27.8965 28.452 27.8107C28.646 27.639 28.8293 27.4567 29.0018 27.2636C29.088 27.1563 29.1742 27.0598 29.2497 26.9525C29.4006 26.7487 29.5408 26.5342 29.6701 26.3089C29.7348 26.1909 29.7887 26.073 29.8426 25.9442C29.8965 25.8262 29.9504 25.6975 29.9935 25.5795C30.0798 25.3221 30.1552 25.0647 30.2091 24.8072C29.6701 24.7536 29.2389 24.3138 29.2389 23.756ZM27.8483 22.3723L25.6922 24.5176C25.4874 24.7107 25.2179 24.8287 24.9268 24.8287H22.7708C22.1779 24.8287 21.6928 24.346 21.6928 23.756C21.6928 23.1661 22.1779 22.6834 22.7708 22.6834H24.4848L26.3175 20.8491C26.7379 20.4308 27.4278 20.4308 27.8483 20.8491C28.2687 21.2675 28.2687 21.954 27.8483 22.3723Z" fill="white"/>
</svg>
