<svg width="26" height="29" viewBox="0 0 26 29" fill="none" xmlns="http://www.w3.org/2000/svg">
<path d="M12.7763 12.9765C9.24448 12.9765 6.40625 10.1169 6.40625 6.56379C6.40625 3.03201 9.26582 0.193787 12.8189 0.193787C16.3614 0.193787 19.1889 3.05335 19.1889 6.60647C19.1889 10.1382 16.3294 12.9765 12.7763 12.9765Z" fill="#8653FF"/>
<path d="M10.5894 14.2795C10.5041 14.5355 10.4294 14.7703 10.3547 15.0157C9.51175 17.5445 8.67949 20.084 7.81522 22.6021C7.59115 23.2636 7.72986 23.7758 8.21001 24.2666C9.54376 25.5897 10.8668 26.9234 12.2219 28.2892C12.0726 28.2999 11.9659 28.3105 11.8592 28.3105C8.37006 28.3105 4.88096 28.3105 1.39187 28.3105C0.516924 28.3105 0.00476266 27.7984 0.00476266 26.9234C0.0154327 25.6964 -0.0485881 24.4693 0.100792 23.253C0.527593 19.7532 2.36284 17.1497 5.44647 15.4532C6.96162 14.6102 8.6048 14.2261 10.344 14.2581C10.4187 14.2581 10.4827 14.2688 10.5894 14.2795Z" fill="#8653FF"/>
<path d="M15.0026 14.2693C16.507 14.1946 17.9048 14.44 19.2386 15.0269C22.7277 16.5527 24.851 19.2202 25.4485 22.9761C25.6619 24.3525 25.5659 25.7929 25.5659 27.2014C25.5659 27.8309 24.9577 28.3111 24.2855 28.3217C22.6743 28.3217 21.0631 28.3217 19.452 28.3217C17.574 28.3217 15.6961 28.3217 13.8182 28.3217C13.6901 28.3217 13.5621 28.3217 13.3594 28.3217C13.4874 28.1724 13.5728 28.0763 13.6581 27.991C14.8959 26.7532 16.1336 25.5049 17.382 24.2671C17.8728 23.787 18.0008 23.2641 17.7768 22.6026C16.8911 19.9885 16.0269 17.3743 15.1519 14.7495C15.0986 14.6001 15.0559 14.4507 15.0026 14.2693Z" fill="#8653FF"/>
<path d="M12.8116 15.7485C13.5478 17.9572 14.2307 20.0485 14.9669 22.1291C15.1696 22.684 15.1056 23.0254 14.6575 23.4202C14.0173 23.9751 13.4411 24.6153 12.8009 25.2555C12.3421 24.7967 11.894 24.3485 11.4458 23.8897C11.1044 23.5376 10.5815 23.2282 10.4855 22.812C10.3895 22.4172 10.7309 21.9157 10.8803 21.4676C11.4671 19.7177 12.054 17.9678 12.6409 16.218C12.6729 16.0899 12.7262 15.9725 12.8116 15.7485Z" fill="#8653FF"/>
</svg>
