<svg width="27" height="21" viewBox="0 0 27 21" fill="none" xmlns="http://www.w3.org/2000/svg">
<path d="M0 18.3692C0 12.9326 0 7.57835 0 2.14171V2.05933C0.164747 0.906107 1.23561 0 2.63596 0C5.35428 0 8.15497 0 10.8733 0C11.1204 0 11.3675 0.0823683 11.5323 0.329488C12.1089 1.07085 12.7679 1.72984 13.3445 2.4712C13.5092 2.63595 13.5916 2.71831 13.8388 2.71831C17.2984 2.71831 20.7581 2.71831 24.2178 2.71831C25.7005 2.71831 26.7713 3.70679 26.7713 5.18951C26.7713 9.47292 26.7713 13.8387 26.7713 18.1221C26.7713 18.9459 26.4419 19.6049 25.7829 20.0991C25.2887 20.511 24.712 20.5933 24.1354 20.5933C18.9459 20.5933 13.7563 20.5933 8.6492 20.5933C6.67224 20.5933 4.69529 20.5933 2.63596 20.5933C1.97697 20.5933 1.31797 20.4286 0.823733 19.9343C0.329493 19.5225 0.164747 18.9459 0 18.3692Z" fill="#8856FC"/>
</svg>
