<svg width="24" height="25" viewBox="0 0 24 25" fill="none" xmlns="http://www.w3.org/2000/svg">
<path d="M19.7663 1.2876C18.8796 0.307691 17.3654 0.231372 16.3842 1.11923C15.4032 2.00596 15.328 3.52016 16.2148 4.5013L16.9286 5.28926H2.42654C1.10317 5.28926 0.03125 6.36121 0.03125 7.68344C0.03125 9.00681 1.1032 10.0787 2.42654 10.0787H20.9581C23.4297 10.0787 25.1134 7.02567 23.1334 5.00965L19.7663 1.2876Z" fill="#8653FF"/>
<path d="M4.238 23.6583C5.12472 24.6382 6.63892 24.7145 7.62007 23.8267C8.6011 22.94 8.67629 21.4258 7.78955 20.4446L7.07567 19.6567H21.5778C22.9011 19.6567 23.9731 18.5847 23.9731 17.2625C23.9731 15.9391 22.9011 14.8672 21.5778 14.8672H3.04621C0.574566 14.8672 -1.10911 17.9202 0.870907 19.9363L4.238 23.6583Z" fill="#8653FF"/>
</svg>
