<svg width="23" height="24" viewBox="0 0 23 24" fill="none" xmlns="http://www.w3.org/2000/svg">
<path d="M19.2 8.60001C18.5 8.40001 17.9 8.20001 17.3 8.10001C16.7 8.00001 16 7.99999 15.3 7.89999C15.6 7.09999 15.5 6.19999 15.4 5.39999C15.3 4.39999 14.4 3.70001 13.3 3.70001C10.8 3.70001 8.3 3.70001 5.8 3.70001C4.7 3.70001 3.8 4.50001 3.7 5.60001C3.6 6.20001 3.6 6.79999 3.7 7.29999C3.8 8.39999 4.7 9.20001 5.9 9.20001C7.5 9.20001 9.2 9.20001 10.8 9.20001C10.9 9.20001 11 9.20001 11.2 9.20001C8.8 10.7 7.4 12.7 6.9 15.5C6.5 18.2 7.2 20.6 9 22.8C8.9 22.8 8.8 22.8 8.7 22.8C7 22.8 5.2 22.8 3.5 22.8C1.8 22.8 0.499998 21.7 0.0999985 20.1C-1.52737e-06 19.8 0 19.6 0 19.3C0 14 0 8.8 0 3.5C0 1.5 1.5 0 3.5 0C7.5 0 11.6 0 15.6 0C17.6 0 19.1 1.5 19.1 3.5C19.1 5.1 19.1 6.79999 19.1 8.39999C19.2 8.39999 19.2 8.50001 19.2 8.60001ZM5.9 11.1C5.5 11.1 5.1 11.1 4.7 11.1C4.2 11.1 3.8 11.5 3.8 12C3.8 12.5 4.2 12.9 4.8 12.9C5.6 12.9 6.4 12.9 7.2 12.9C7.7 12.9 8.1 12.5 8.1 12C8.1 11.5 7.7 11.1 7.1 11.1C6.7 11.1 6.3 11.1 5.9 11.1ZM5.3 14.8C5.1 14.8 4.9 14.8 4.6 14.8C4.1 14.8 3.7 15.2 3.7 15.7C3.7 16.2 4.1 16.6 4.6 16.6C5 16.6 5.5 16.6 5.9 16.6C6.4 16.6 6.8 16.2 6.8 15.7C6.8 15.2 6.4 14.8 5.9 14.8C5.8 14.8 5.6 14.8 5.3 14.8Z" fill="#8856FC"/>
<path d="M8.69922 16.8969C8.69922 12.9969 11.8992 9.79688 15.7992 9.79688C19.6992 9.79688 22.8992 12.9969 22.8992 16.8969C22.8992 20.7969 19.6992 23.9969 15.7992 23.9969C11.8992 23.9969 8.69922 20.7969 8.69922 16.8969ZM18.5992 15.0969C18.4992 14.6969 18.3992 14.3969 17.9992 14.1969C17.5992 13.9969 17.2992 14.0969 16.8992 14.3969C15.6992 15.5969 14.4992 16.7969 13.2992 17.9969C12.8992 18.3969 12.8992 18.9969 13.2992 19.2969C13.6992 19.6969 14.1992 19.6969 14.5992 19.2969C15.7992 18.0969 16.9992 16.8969 18.1992 15.5969C18.3992 15.5969 18.4992 15.2969 18.5992 15.0969ZM15.7992 14.4969C15.7992 13.7969 15.1992 13.2969 14.5992 13.2969C13.8992 13.2969 13.3992 13.8969 13.3992 14.4969C13.3992 15.1969 13.9992 15.6969 14.5992 15.6969C15.2992 15.6969 15.7992 15.0969 15.7992 14.4969ZM16.9992 20.5969C17.6992 20.5969 18.1992 20.0969 18.1992 19.3969C18.1992 18.6969 17.6992 18.1969 16.9992 18.1969C16.2992 18.1969 15.7992 18.6969 15.7992 19.3969C15.7992 20.0969 16.3992 20.5969 16.9992 20.5969Z" fill="#8856FC"/>
<path d="M9.6 7.39999C8.4 7.39999 7.2 7.39999 6 7.39999C5.6 7.39999 5.5 7.29999 5.5 6.89999C5.5 6.59999 5.5 6.19999 5.5 5.89999C5.5 5.59999 5.6 5.5 5.9 5.5C8.3 5.5 10.7 5.5 13.1 5.5C13.4 5.5 13.5 5.59999 13.5 5.89999C13.5 6.19999 13.5 6.49999 13.5 6.89999C13.5 7.29999 13.4 7.39999 13 7.39999C12 7.39999 10.8 7.39999 9.6 7.39999Z" fill="#8856FC"/>
</svg>
