<svg width="30" height="27" viewBox="0 0 30 27" fill="none" xmlns="http://www.w3.org/2000/svg">
<path d="M29.5151 23.877L16.5299 1.14562C15.6567 -0.381874 14.2276 -0.381874 13.3582 1.14562L0.372996 23.877C-0.500146 25.4045 0.212547 26.6529 1.95883 26.6529H27.9292C29.6755 26.6529 30.3882 25.4045 29.5151 23.877ZM14.9963 23.6394C13.8134 23.6394 12.8545 22.6701 12.8545 21.4745C12.8545 20.2789 13.8134 19.3096 14.9963 19.3096C16.1791 19.3096 17.1381 20.2789 17.1381 21.4745C17.1381 22.6701 16.1791 23.6394 14.9963 23.6394ZM17.5523 9.50347L17.25 15.2476C17.1866 16.4206 16.1866 17.3823 15.0224 17.3823H14.9702C13.806 17.3823 12.7948 16.4206 12.7201 15.2514L12.3545 9.50724C12.2798 8.33428 13.1716 7.37252 14.3358 7.37252H15.5522C16.7164 7.37252 17.6157 8.33428 17.556 9.50724L17.5523 9.50347Z" fill="#FF827E"/>
</svg>
