<svg width="20" height="29" viewBox="0 0 20 29" fill="none" xmlns="http://www.w3.org/2000/svg">
<path d="M2.91111 27.968C2.67805 27.8515 2.56152 27.735 2.56152 27.5019C2.56152 27.3854 2.56152 27.2689 2.56152 27.2689C2.56152 24.3557 2.56152 21.4425 2.56152 18.5293C2.56152 18.4128 2.56152 18.2962 2.56152 18.1797C4.42597 19.6945 6.52347 20.5103 8.85403 20.7433C8.85403 20.8598 8.85403 20.8598 8.85403 20.9763C8.85403 23.1904 8.85403 25.2879 8.85403 27.5019C8.85403 27.735 8.85403 27.968 8.62097 28.2011C8.50445 28.2011 8.38792 28.2011 8.38792 28.2011C7.80528 27.8515 7.22264 27.3854 6.75653 27.0358C6.17389 26.5697 5.59125 26.5697 5.00861 27.0358C4.42597 27.3854 3.84333 27.8515 3.26069 28.2011C3.02764 27.968 2.91111 27.968 2.91111 27.968Z" fill="#685AAD"/>
<path d="M10.6035 27.968C10.3704 27.8515 10.2539 27.735 10.2539 27.5019C10.2539 27.3854 10.2539 27.3854 10.2539 27.2689C10.2539 25.1714 10.2539 23.0739 10.2539 20.9763C10.2539 20.8598 10.2539 20.7433 10.2539 20.6268C12.5845 20.5103 14.682 19.6945 16.5464 18.1797C16.5464 18.2962 16.5464 18.4128 16.5464 18.4128C16.5464 21.326 16.5464 24.2392 16.5464 27.2689C16.5464 27.5019 16.5464 27.8515 16.3134 27.968C16.1968 27.968 16.0803 27.968 16.0803 27.968C15.4977 27.6184 14.915 27.1523 14.4489 26.8027C13.8663 26.3366 13.2836 26.3366 12.701 26.8027C12.1184 27.1523 11.5357 27.6184 10.9531 27.968C10.72 27.968 10.72 27.968 10.6035 27.968Z" fill="#685AAD"/>
<path d="M9.67084 0C14.9146 0 19.2261 4.31154 19.3426 9.5553C19.3426 14.7991 15.0311 19.2271 9.67084 19.2271C4.42708 19.2271 -0.000976562 14.9156 -0.000976562 9.5553C-0.000976563 4.31154 4.31056 0 9.67084 0ZM9.67084 1.86445C5.47583 1.86445 1.98 5.24377 1.98 9.5553C1.98 13.7503 5.47583 17.2461 9.67084 17.2461C13.8658 17.2461 17.3617 13.7503 17.3617 9.5553C17.3617 5.3603 13.8658 1.86445 9.67084 1.86445Z" fill="#685AAD"/>
<path d="M15.9639 9.55031C15.9639 12.9296 13.1672 15.8428 9.67141 15.8428C6.2921 15.8428 3.37891 13.0461 3.37891 9.55031C3.37891 6.171 6.17558 3.25781 9.67141 3.25781C13.0507 3.25781 15.8474 6.05447 15.9639 9.55031Z" fill="#685AAD"/>
</svg>
