<svg width="24" height="25" viewBox="0 0 24 25" fill="none" xmlns="http://www.w3.org/2000/svg">
<path d="M17.7 14.5492C17.7 14.6492 17.7 14.7491 17.7 14.8491C17.7 17.6491 17.7 20.4491 17.7 23.1491C17.7 23.8491 17.4 24.1491 16.7 24.1491C11.5 24.1491 6.3 24.1491 1 24.1491C0.3 24.1491 0 23.8491 0 23.1491C0 16.3491 0 9.54914 0 2.64914C0 1.94914 0.3 1.64914 1 1.64914C4.6 1.64914 8.1 1.64914 11.7 1.64914C11.8 1.64914 11.9 1.64914 12 1.64914C12 1.74914 12 1.74914 12 1.84914C14.3 -0.050861 16.9 -0.550858 19.7 0.649142C22.4 1.84914 23.9 4.14914 24 7.14914C24.2 10.9491 21.4 14.0492 17.7 14.5492ZM22.5 7.34914C22.5 4.24914 20 1.74913 16.9 1.74913C13.8 1.74913 11.3 4.24914 11.3 7.34914C11.3 10.4491 13.8 12.9491 16.9 12.9491C20 12.9491 22.5 10.4491 22.5 7.34914ZM8.1 16.9491C8.9 16.9491 9.6 16.9491 10.4 16.9491C10.9 16.9491 11.3 16.6491 11.3 16.1491C11.3 15.6491 10.9 15.3491 10.4 15.3491C8.9 15.3491 7.3 15.3491 5.8 15.3491C5.3 15.3491 4.9 15.6491 4.9 16.1491C4.9 16.6491 5.3 16.9491 5.8 16.9491C6.6 16.9491 7.3 16.9491 8.1 16.9491ZM8.1 19.3491C8.9 19.3491 9.6 19.3491 10.4 19.3491C10.9 19.3491 11.3 19.0492 11.3 18.5492C11.3 18.0492 10.9 17.7491 10.4 17.7491C8.9 17.7491 7.3 17.7491 5.8 17.7491C5.3 17.7491 4.9 18.0492 4.9 18.5492C4.9 19.0492 5.3 19.3491 5.8 19.3491C6.6 19.3491 7.3 19.3491 8.1 19.3491ZM8.1 21.7491C8.9 21.7491 9.6 21.7491 10.4 21.7491C10.9 21.7491 11.3 21.4491 11.3 20.9491C11.3 20.4491 10.9 20.1491 10.4 20.1491C8.8 20.1491 7.3 20.1491 5.7 20.1491C5.2 20.1491 4.8 20.4491 4.8 20.9491C4.8 21.4491 5.2 21.7491 5.7 21.7491C6.6 21.7491 7.3 21.7491 8.1 21.7491ZM4.5 16.1491C4.5 15.7491 4.1 15.3491 3.7 15.3491C3.3 15.3491 2.9 15.7491 2.9 16.1491C2.9 16.5491 3.3 16.9491 3.7 16.9491C4.2 16.9491 4.5 16.6491 4.5 16.1491ZM3.7 19.3491C4.1 19.3491 4.5 18.9492 4.5 18.5492C4.5 18.1492 4.2 17.7491 3.7 17.7491C3.3 17.7491 2.9 18.1492 2.9 18.5492C2.9 19.0492 3.3 19.3491 3.7 19.3491ZM4.5 20.9491C4.5 20.5491 4.2 20.1491 3.7 20.1491C3.3 20.1491 2.9 20.5491 2.9 20.9491C2.9 21.3491 3.3 21.7491 3.7 21.7491C4.1 21.7491 4.5 21.4491 4.5 20.9491Z" fill="#685AAD"/>
<path d="M16.1 4.14688C16.1 3.84688 16.1 3.64688 16.1 3.34688C16.1 2.84688 16.4 2.54688 16.9 2.54688C17.4 2.54688 17.7 2.94688 17.7 3.34688C17.7 3.54688 17.7 3.84688 17.7 4.14688C17.8 4.14688 17.9 4.14688 18 4.14688C18.4 4.14688 18.8 4.14688 19.3 4.14688C19.8 4.14688 20.1 4.54688 20.1 4.94688C20.1 5.34688 19.8 5.74687 19.3 5.74687C18.2 5.74687 17.1 5.74687 16 5.74687C15.9 5.74687 15.8 5.74687 15.8 5.74687C15.5 5.74687 15.3 5.94688 15.3 6.14688C15.3 6.34688 15.5 6.54688 15.8 6.54688C16.5 6.54688 17.2 6.54688 17.9 6.54688C18.1 6.54688 18.3 6.54688 18.4 6.54688C19.4 6.74687 20.1 7.64687 20 8.64687C19.9 9.64687 19.1 10.4469 18 10.4469C17.9 10.4469 17.7 10.4469 17.6 10.4469C17.6 10.7469 17.6 10.9469 17.6 11.2469C17.6 11.7469 17.3 12.0469 16.8 12.0469C16.3 12.0469 16 11.6469 16 11.2469C16 11.0469 16 10.7469 16 10.4469C15.5 10.4469 14.9 10.4469 14.4 10.4469C14 10.4469 13.7 10.2469 13.6 9.84688C13.5 9.54688 13.6 9.14688 13.9 8.94688C14.1 8.84688 14.2 8.84688 14.4 8.84688C15.5 8.84688 16.6 8.84688 17.7 8.84688C17.8 8.84688 17.8 8.84688 17.9 8.84688C18.2 8.84688 18.3 8.64688 18.4 8.44688C18.4 8.24688 18.2 8.04688 18 8.04688C17.5 8.04688 16.9 8.04688 16.4 8.04688C16 8.04688 15.6 8.04688 15.3 8.04688C14.3 7.84688 13.6 6.94688 13.7 5.94688C13.8 4.94688 14.6 4.14688 15.7 4.14688C15.8 4.14688 15.9 4.14688 16.1 4.14688Z" fill="#685AAD"/>
</svg>
