<svg width="22" height="21" viewBox="0 0 22 21" fill="none" xmlns="http://www.w3.org/2000/svg">
<path opacity="0.5" d="M11.1123 20.4C8.3022 20.4 5.59238 20.4 2.78226 20.4C1.77864 20.4 1.07608 19.9 0.875361 19C0.674638 18.3 0.975821 17.7 1.47763 17.2C2.0798 16.7 2.58151 16.1 2.88259 15.5C3.48476 14.4 3.78587 13.2 3.78587 12C3.78587 11 3.78587 10 3.78587 9C3.88624 5.6 6.3953 2.7 9.70724 2.2C9.90796 2.2 9.90791 2.1 9.90791 1.9C9.90791 1.6 9.90791 1.3 9.90791 1C9.90791 0.4 10.4097 0 10.9115 0C11.4133 0 11.9151 0.4 11.9151 1C11.9151 1.3 11.9151 1.6 11.9151 2C11.9151 2.1 11.9152 2.2 12.1159 2.2C15.1268 2.7 17.3347 4.9 17.9368 7.9C18.0372 8.4 18.0373 8.9 18.0373 9.4C18.0373 10.5 18.0373 11.6 18.1376 12.6C18.238 14.4 19.0408 16 20.4459 17.2C20.8473 17.6 21.1485 18 21.2488 18.5C21.3492 19.6 20.5462 20.5 19.4423 20.5C18.539 20.5 17.6358 20.5 16.6322 20.5C14.8257 20.4 13.0192 20.4 11.1123 20.4Z" fill="#685AAD"/>
</svg>
