<svg width="22" height="26" viewBox="0 0 22 26" fill="none" xmlns="http://www.w3.org/2000/svg">
<path d="M10.4545 25.2502C9.99447 25.0902 9.49458 24.9902 9.06458 24.7702C8.06458 24.2502 7.44454 23.4002 7.15454 22.3102C7.14454 22.2802 7.14453 22.2502 7.14453 22.2002C9.63453 22.2002 12.1245 22.2002 14.6345 22.2002C14.5545 22.6602 14.3745 23.0802 14.1145 23.4702C13.4745 24.4402 12.5846 25.0302 11.4246 25.2102C11.3846 25.2202 11.3546 25.2402 11.3146 25.2502C11.0246 25.2502 10.7445 25.2502 10.4545 25.2502Z" fill="#685AAD"/>
<path d="M10.8628 21.1697C8.10283 21.1697 5.33279 21.1697 2.57279 21.1697C1.61279 21.1697 0.902807 20.6397 0.712807 19.7697C0.552807 19.0497 0.792812 18.4497 1.34281 17.9697C1.92281 17.4697 2.40289 16.8897 2.79289 16.2297C3.43289 15.1397 3.73283 13.9497 3.73283 12.6897C3.73283 11.6997 3.72284 10.7097 3.74284 9.71973C3.80284 6.36973 6.33286 3.44973 9.64286 2.88973C9.84286 2.85973 9.88285 2.77973 9.88285 2.59973C9.87285 2.29973 9.87285 2.00973 9.88285 1.70973C9.90285 1.14973 10.3529 0.719727 10.9029 0.719727C11.4429 0.719727 11.8929 1.14973 11.9129 1.69973C11.9229 2.01973 11.9229 2.33973 11.9129 2.65973C11.9129 2.79973 11.9528 2.84973 12.0928 2.87973C15.0828 3.41973 17.3229 5.59973 17.9129 8.56973C18.0129 9.05973 18.0329 9.56973 18.0429 10.0697C18.0729 11.1497 18.0228 12.2297 18.0928 13.2997C18.2028 15.1297 18.9928 16.6597 20.3528 17.8797C20.7528 18.2397 21.0628 18.6397 21.1128 19.1897C21.2028 20.2997 20.4229 21.1497 19.2929 21.1697C18.3729 21.1797 17.4529 21.1697 16.5329 21.1697C14.6329 21.1697 12.7528 21.1697 10.8628 21.1697Z" fill="#685AAD"/>
</svg>
