<svg width="39" height="30" viewBox="0 0 39 30" fill="none" xmlns="http://www.w3.org/2000/svg">
<path d="M0.421875 26.8256C0.421875 19.0966 0.421875 11.4847 0.421875 3.75571V3.63859C0.656088 1.99911 2.17848 0.710938 4.16929 0.710938C8.0338 0.710938 12.0154 0.710938 15.8799 0.710938C16.2312 0.710938 16.5825 0.828037 16.8168 1.17936C17.6365 2.23331 18.5734 3.17017 19.3931 4.22413C19.6273 4.45834 19.7445 4.57543 20.0958 4.57543C25.0143 4.57543 29.9327 4.57543 34.8512 4.57543C36.9591 4.57543 38.4814 5.98071 38.4814 8.08862C38.4814 14.1781 38.4814 20.3848 38.4814 26.4743C38.4814 27.6454 38.0131 28.5822 37.0762 29.2849C36.3736 29.8704 35.5538 29.9875 34.7341 29.9875C27.3564 29.9875 19.9786 29.9875 12.718 29.9875C9.90748 29.9875 7.09695 29.9875 4.16929 29.9875C3.23244 29.9875 2.29558 29.7533 1.59294 29.0506C0.8903 28.4651 0.656088 27.6454 0.421875 26.8256Z" fill="#685AAD"/>
</svg>
