<svg width="27" height="25" viewBox="0 0 27 25" fill="none" xmlns="http://www.w3.org/2000/svg">
<path d="M0 7.17188C8.82 7.17188 17.61 7.17188 26.44 7.17188C26.44 7.31188 26.44 7.44189 26.44 7.56189C26.44 12.3419 26.44 17.1119 26.44 21.8919C26.44 23.4719 25.3 24.6419 23.72 24.7019C23.61 24.7019 23.5 24.7019 23.39 24.7019C16.44 24.7019 9.48 24.6819 2.53 24.7119C0.750001 24.7219 0.0100002 23.5319 0.0100002 22.1819C0.0100002 18.1819 0.0100002 14.1819 0.0100002 10.1819C2.29105e-07 9.19188 0 8.20187 0 7.17188ZM21.17 11.9119C21.17 11.5819 21.17 11.2619 21.17 10.9319C21.16 10.4719 20.92 10.2219 20.47 10.2119C19.82 10.2119 19.16 10.2119 18.51 10.2119C18.08 10.2119 17.82 10.4519 17.81 10.8819C17.79 11.5619 17.8 12.2419 17.81 12.9319C17.82 13.3219 18.05 13.5719 18.44 13.5819C19.15 13.6019 19.86 13.6019 20.57 13.5819C20.98 13.5719 21.17 13.3419 21.18 12.9319C21.17 12.5819 21.17 12.2519 21.17 11.9119ZM12.89 20.9919C13.24 20.9919 13.58 21.0019 13.93 20.9919C14.34 20.9819 14.57 20.7919 14.58 20.3719C14.6 19.6719 14.6 18.9719 14.58 18.2719C14.57 17.8719 14.32 17.6319 13.92 17.6219C13.24 17.6119 12.56 17.6119 11.87 17.6219C11.45 17.6319 11.21 17.8919 11.21 18.3019C11.2 18.9719 11.2 19.6519 11.21 20.3219C11.21 20.7319 11.47 20.9819 11.88 20.9919C12.21 21.0019 12.55 20.9919 12.89 20.9919ZM19.48 20.9919C19.82 20.9919 20.15 20.9919 20.49 20.9919C20.94 20.9819 21.17 20.7719 21.17 20.3219C21.18 19.6519 21.18 18.9719 21.17 18.3019C21.17 17.8919 20.92 17.6319 20.51 17.6219C19.83 17.6119 19.15 17.6119 18.46 17.6219C18.06 17.6319 17.81 17.8719 17.8 18.2719C17.78 18.9619 17.78 19.6519 17.8 20.3419C17.81 20.7519 18.08 20.9819 18.5 20.9819C18.82 21.0019 19.15 20.9919 19.48 20.9919ZM12.9 10.2119C12.57 10.2119 12.25 10.2119 11.92 10.2119C11.47 10.2219 11.22 10.4619 11.22 10.9019C11.21 11.5619 11.21 12.2319 11.22 12.8919C11.22 13.3019 11.44 13.5619 11.84 13.5719C12.56 13.5919 13.28 13.5919 13.99 13.5719C14.37 13.5619 14.56 13.3619 14.57 12.9819C14.59 12.2619 14.59 11.5419 14.57 10.8319C14.56 10.4519 14.29 10.2219 13.91 10.2219C13.57 10.2119 13.23 10.2119 12.9 10.2119ZM4.7 19.3119C4.7 19.6419 4.7 19.9719 4.7 20.2919C4.71 20.7319 4.96 20.9819 5.4 20.9819C6.04 20.9919 6.67 20.9919 7.31 20.9819C7.76 20.9819 8.06 20.7019 8.07 20.2619C8.09 19.6019 8.09 18.9319 8.07 18.2719C8.06 17.8719 7.81 17.6319 7.41 17.6219C6.73 17.6119 6.04 17.6119 5.36 17.6219C4.95 17.6319 4.71 17.8919 4.7 18.3019C4.7 18.6419 4.7 18.9819 4.7 19.3119ZM4.7 11.8919C4.7 12.2219 4.7 12.5519 4.7 12.8719C4.71 13.3019 4.93 13.5719 5.36 13.5819C6.02 13.6019 6.69 13.6019 7.35 13.5819C7.78 13.5719 8.06 13.2919 8.07 12.8719C8.09 12.2019 8.09 11.5219 8.07 10.8519C8.06 10.4519 7.79 10.2219 7.4 10.2119C6.73 10.2019 6.05 10.2019 5.38 10.2119C4.97 10.2119 4.72 10.4719 4.71 10.8719C4.69 11.2119 4.7 11.5519 4.7 11.8919Z" fill="#685AAD"/>
<path d="M21.0903 0.0305257C21.1403 0.0105257 21.1703 0.00052689 21.1903 0.00052689C22.1403 0.0105269 23.0903 -0.0294756 24.0303 0.0605244C25.1703 0.170524 26.1503 1.14052 26.3303 2.18052C26.3503 2.28052 26.3503 2.38051 26.3503 2.48051C26.3503 3.45051 26.3503 4.43051 26.3503 5.42051C17.5603 5.42051 8.79031 5.42051 0.0103124 5.42051C0.0103124 4.33051 0.000312615 3.26052 0.0203126 2.18052C0.0203126 1.97052 0.0803118 1.7705 0.150312 1.5705C0.470312 0.560504 1.23031 0.00052689 2.29031 0.00052689C3.05031 0.00052689 3.82031 0.00052689 4.62031 0.00052689C4.62031 0.120527 4.62031 0.220504 4.62031 0.320504C4.62031 1.0105 4.62031 1.71052 4.62031 2.40052C4.62031 2.93052 4.97031 3.2905 5.45031 3.2905C5.93031 3.2905 6.27031 2.93051 6.27031 2.39051C6.28031 1.61051 6.27031 0.820516 6.27031 0.0205159C10.6603 0.0205159 15.0303 0.0205159 19.4303 0.0205159C19.4403 0.110516 19.4503 0.210524 19.4503 0.310524C19.4503 1.02052 19.4503 1.7305 19.4503 2.4405C19.4603 2.8505 19.6903 3.16051 20.0503 3.26051C20.3803 3.35051 20.7603 3.2405 20.9403 2.9405C21.0403 2.7705 21.0903 2.5505 21.1003 2.3505C21.1203 1.6805 21.1103 1.00051 21.1103 0.330513C21.0903 0.220513 21.0903 0.120526 21.0903 0.0305257Z" fill="#685AAD"/>
</svg>
