<svg width="33" height="32" viewBox="0 0 33 32" fill="none" xmlns="http://www.w3.org/2000/svg">
<g opacity="0.8">
<path d="M0.140625 9.53906C11.0073 9.53906 21.874 9.53906 32.6013 9.53906C32.6013 9.67838 32.6013 9.81768 32.6013 9.95699C32.6013 15.8083 32.6013 21.6596 32.6013 27.6501C32.6013 29.6006 31.2081 30.9937 29.2577 31.133C29.1184 31.133 28.979 31.133 28.8397 31.133C20.3414 31.133 11.704 31.133 3.20568 31.133C0.976623 31.133 0.140625 29.7399 0.140625 28.0681C0.140625 23.192 0.140625 18.1766 0.140625 13.3006C0.140625 12.0467 0.140625 10.7929 0.140625 9.53906ZM26.1928 15.3903C26.1928 14.9724 26.1928 14.5544 26.1928 14.1365C26.1928 13.5792 25.914 13.3006 25.3568 13.3006C24.5209 13.3006 23.6851 13.3006 22.9885 13.3006C22.4312 13.3006 22.1526 13.5792 22.1526 14.1365C22.1526 14.9724 22.1526 15.8083 22.1526 16.6442C22.1526 17.2015 22.4312 17.48 22.9885 17.48C23.8244 17.48 24.6603 17.48 25.6355 17.48C26.1928 17.48 26.3321 17.2015 26.3321 16.6442C26.1928 16.2262 26.1928 15.8083 26.1928 15.3903ZM16.0227 26.5356C16.4406 26.5356 16.8586 26.5356 17.2766 26.5356C17.8338 26.5356 18.1124 26.257 18.1124 25.839C18.1124 25.0031 18.1124 24.1672 18.1124 23.192C18.1124 22.6347 17.8338 22.3561 17.2766 22.3561C16.4407 22.3561 15.6047 22.3561 14.7688 22.3561C14.2115 22.3561 13.9329 22.6347 13.9329 23.192C13.9329 24.0279 13.9329 24.8638 13.9329 25.6997C13.9329 26.257 14.2115 26.5356 14.7688 26.5356C15.1868 26.5356 15.6047 26.5356 16.0227 26.5356ZM24.1031 26.5356C24.521 26.5356 24.9388 26.5356 25.3568 26.5356C25.914 26.5356 26.1928 26.257 26.1928 25.6997C26.1928 24.8638 26.1928 24.0279 26.1928 23.192C26.1928 22.6347 25.914 22.3561 25.3568 22.3561C24.5209 22.3561 23.6851 22.3561 22.8492 22.3561C22.2919 22.3561 22.0133 22.6347 22.0133 23.192C22.0133 24.0279 22.0133 24.8638 22.0133 25.6997C22.0133 26.257 22.2919 26.5356 22.8492 26.5356C23.2671 26.5356 23.6851 26.5356 24.1031 26.5356ZM16.0227 13.3006C15.6047 13.3006 15.1868 13.3006 14.7688 13.3006C14.2115 13.3006 13.9329 13.5792 13.9329 14.1365C13.9329 14.9724 13.9329 15.8083 13.9329 16.6442C13.9329 17.2015 14.2115 17.48 14.7688 17.48C15.6047 17.48 16.5799 17.48 17.4158 17.48C17.8338 17.48 18.1124 17.2014 18.1124 16.7835C18.1124 15.9476 18.1124 14.9724 18.1124 14.1365C18.1124 13.7185 17.8338 13.4399 17.2766 13.4399C16.8586 13.3006 16.4406 13.3006 16.0227 13.3006ZM5.992 24.4458C5.992 24.8638 5.992 25.2818 5.992 25.6997C5.992 26.257 6.2706 26.5356 6.82786 26.5356C7.66376 26.5356 8.36027 26.5356 9.19616 26.5356C9.75343 26.5356 10.1715 26.257 10.1715 25.6997C10.1715 24.8638 10.1715 24.0279 10.1715 23.192C10.1715 22.6347 9.89271 22.3561 9.33545 22.3561C8.49955 22.3561 7.66376 22.3561 6.82786 22.3561C6.2706 22.3561 5.992 22.6347 5.992 23.192C5.85268 23.61 5.992 24.0279 5.992 24.4458ZM5.992 15.3903C5.992 15.8083 5.992 16.2262 5.992 16.6442C5.992 17.2015 6.2706 17.48 6.82786 17.48C7.66376 17.48 8.49955 17.48 9.33545 17.48C9.89271 17.48 10.1715 17.2015 10.1715 16.6442C10.1715 15.8083 10.1715 14.9724 10.1715 14.1365C10.1715 13.5792 9.89271 13.3006 9.33545 13.3006C8.49955 13.3006 7.66376 13.3006 6.82786 13.3006C6.2706 13.3006 5.992 13.5792 5.992 14.1365C5.85268 14.5544 5.992 14.9724 5.992 15.3903Z" fill="white"/>
<path d="M26.052 0.765043C26.1913 0.765043 26.1913 0.765043 26.052 0.765043C27.3059 0.765043 28.5598 0.625727 29.6744 0.765043C31.0675 0.904359 32.3214 2.15824 32.4607 3.41208C32.4607 3.5514 32.4607 3.6907 32.4607 3.83001C32.4607 5.08386 32.4607 6.19839 32.4607 7.45224C21.594 7.45224 10.8666 7.45224 0 7.45224C0 6.05908 0 4.80524 0 3.41208C0 3.13345 0.139282 2.85482 0.139282 2.7155C0.55723 1.46166 1.53248 0.765043 2.78632 0.765043C3.76153 0.765043 4.59739 0.765043 5.71192 0.765043C5.71192 0.904359 5.71192 1.0437 5.71192 1.18302C5.71192 2.01891 5.71192 2.85479 5.71192 3.69069C5.71192 4.38727 6.12997 4.80524 6.68724 4.80524C7.2445 4.80524 7.66238 4.38727 7.66238 3.69069C7.66238 2.71548 7.66238 1.74026 7.66238 0.765043C13.0957 0.765043 18.3897 0.765043 23.823 0.765043C23.823 0.904359 23.823 1.04369 23.823 1.04369C23.823 1.87959 23.823 2.85479 23.823 3.69069C23.823 4.24795 24.1016 4.5266 24.5196 4.66592C24.9375 4.80523 25.3555 4.66589 25.6342 4.24794C25.7735 4.10863 25.7735 3.69068 25.7735 3.55136C25.7735 2.71547 25.7735 1.87959 25.7735 1.04369C26.0521 1.04369 26.052 0.904359 26.052 0.765043Z" fill="white"/>
</g>
</svg>
