<svg width="26" height="25" viewBox="0 0 26 25" fill="none" xmlns="http://www.w3.org/2000/svg">
<path opacity="0.5" d="M0.109375 7.47656C8.57048 7.47656 17.0316 7.47656 25.3843 7.47656C25.3843 7.58504 25.3843 7.6935 25.3843 7.80198C25.3843 12.358 25.3843 16.9139 25.3843 21.5784C25.3843 23.0971 24.2995 24.1818 22.7808 24.2903C22.6723 24.2903 22.5638 24.2903 22.4553 24.2903C15.8383 24.2903 9.11294 24.2903 2.49592 24.2903C0.760309 24.2903 0.109375 23.2055 0.109375 21.9038C0.109375 18.1072 0.109375 14.202 0.109375 10.4054C0.109375 9.4291 0.109375 8.45284 0.109375 7.47656ZM20.3944 12.0325C20.3944 11.7071 20.3944 11.3817 20.3944 11.0562C20.3944 10.6223 20.1774 10.4054 19.7434 10.4054C19.0926 10.4054 18.4418 10.4054 17.8994 10.4054C17.4655 10.4054 17.2486 10.6223 17.2486 11.0562C17.2486 11.7071 17.2486 12.358 17.2486 13.0088C17.2486 13.4427 17.4655 13.6597 17.8994 13.6597C18.5503 13.6597 19.2011 13.6597 19.9605 13.6597C20.3944 13.6597 20.5029 13.4427 20.5029 13.0088C20.3944 12.6834 20.3944 12.3579 20.3944 12.0325ZM12.4756 20.7106C12.8011 20.7106 13.1265 20.7106 13.4519 20.7106C13.8858 20.7106 14.1028 20.4936 14.1028 20.1682C14.1028 19.5173 14.1028 18.8665 14.1028 18.1072C14.1028 17.6733 13.8858 17.4563 13.4519 17.4563C12.8011 17.4563 12.1502 17.4563 11.4993 17.4563C11.0654 17.4563 10.8485 17.6733 10.8485 18.1072C10.8485 18.758 10.8485 19.4089 10.8485 20.0597C10.8485 20.4936 11.0654 20.7106 11.4993 20.7106C11.8247 20.7106 12.1502 20.7106 12.4756 20.7106ZM18.7673 20.7106C19.0927 20.7106 19.418 20.7106 19.7434 20.7106C20.1774 20.7106 20.3944 20.4936 20.3944 20.0597C20.3944 19.4089 20.3944 18.758 20.3944 18.1072C20.3944 17.6733 20.1774 17.4563 19.7434 17.4563C19.0926 17.4563 18.4418 17.4563 17.791 17.4563C17.3571 17.4563 17.1401 17.6733 17.1401 18.1072C17.1401 18.758 17.1401 19.4089 17.1401 20.0597C17.1401 20.4936 17.3571 20.7106 17.791 20.7106C18.1164 20.7106 18.4418 20.7106 18.7673 20.7106ZM12.4756 10.4054C12.1502 10.4054 11.8247 10.4054 11.4993 10.4054C11.0654 10.4054 10.8485 10.6223 10.8485 11.0562C10.8485 11.7071 10.8485 12.358 10.8485 13.0088C10.8485 13.4427 11.0654 13.6597 11.4993 13.6597C12.1502 13.6597 12.9095 13.6597 13.5604 13.6597C13.8858 13.6597 14.1028 13.4427 14.1028 13.1173C14.1028 12.4664 14.1028 11.7071 14.1028 11.0562C14.1028 10.7308 13.8858 10.5139 13.4519 10.5139C13.1265 10.4054 12.8011 10.4054 12.4756 10.4054ZM4.66543 19.0834C4.66543 19.4089 4.66543 19.7343 4.66543 20.0597C4.66543 20.4936 4.88236 20.7106 5.31626 20.7106C5.96711 20.7106 6.50944 20.7106 7.16029 20.7106C7.5942 20.7106 7.9197 20.4936 7.9197 20.0597C7.9197 19.4089 7.9197 18.758 7.9197 18.1072C7.9197 17.6733 7.70265 17.4563 7.26874 17.4563C6.61789 17.4563 5.96711 17.4563 5.31626 17.4563C4.88236 17.4563 4.66543 17.6733 4.66543 18.1072C4.55696 18.4326 4.66543 18.758 4.66543 19.0834ZM4.66543 12.0325C4.66543 12.3579 4.66543 12.6834 4.66543 13.0088C4.66543 13.4427 4.88236 13.6597 5.31626 13.6597C5.96711 13.6597 6.61789 13.6597 7.26874 13.6597C7.70265 13.6597 7.9197 13.4427 7.9197 13.0088C7.9197 12.358 7.9197 11.7071 7.9197 11.0562C7.9197 10.6223 7.70265 10.4054 7.26874 10.4054C6.61789 10.4054 5.96711 10.4054 5.31626 10.4054C4.88236 10.4054 4.66543 10.6223 4.66543 11.0562C4.55696 11.3817 4.66543 11.7071 4.66543 12.0325Z" fill="#534988"/>
<path opacity="0.5" d="M20.2849 0.645868C20.3934 0.645868 20.3934 0.645868 20.2849 0.645868C21.2612 0.645868 22.2376 0.537392 23.1054 0.645868C24.1901 0.754343 25.1664 1.73065 25.2749 2.70693C25.2749 2.81541 25.2749 2.92387 25.2749 3.03235C25.2749 4.00863 25.2749 4.87644 25.2749 5.85272C16.8138 5.85272 8.4611 5.85272 0 5.85272C0 4.76796 0 3.79169 0 2.70693C0 2.48998 0.108449 2.27303 0.108449 2.16455C0.433876 1.18827 1.19323 0.645868 2.16951 0.645868C2.92884 0.645868 3.57967 0.645868 4.44748 0.645868C4.44748 0.754343 4.44748 0.862839 4.44748 0.971315C4.44748 1.62217 4.44748 2.27301 4.44748 2.92386C4.44748 3.46624 4.77298 3.79169 5.20689 3.79169C5.64079 3.79169 5.96616 3.46624 5.96616 2.92386C5.96616 2.16453 5.96616 1.4052 5.96616 0.645868C10.1967 0.645868 14.3188 0.645868 18.5493 0.645868C18.5493 0.754343 18.5493 0.862832 18.5493 0.862832C18.5493 1.51369 18.5493 2.27301 18.5493 2.92386C18.5493 3.35777 18.7663 3.57473 19.0917 3.68321C19.4171 3.79168 19.7426 3.68319 19.9596 3.35776C20.068 3.24928 20.068 2.92386 20.068 2.81538C20.068 2.16453 20.068 1.51369 20.068 0.862832C20.285 0.862832 20.2849 0.754343 20.2849 0.645868Z" fill="#534988"/>
</svg>
