<svg width="1398" height="333" viewBox="0 0 1398 333" fill="none" xmlns="http://www.w3.org/2000/svg">
<rect width="1398" height="333" rx="30.9237" fill="#A296CC"/>
<g opacity="0.6">
<path d="M476.706 185.818V204H473.684V185.818H476.706ZM481.339 185.818V188.365H469.101V185.818H481.339ZM486.359 184.819V204H483.462V184.819H486.359ZM485.847 196.757H484.923C484.915 195.816 485.015 194.951 485.223 194.16C485.431 193.369 485.731 192.678 486.122 192.087C486.513 191.496 486.984 191.042 487.533 190.726C488.091 190.401 488.707 190.239 489.381 190.239C489.939 190.239 490.443 190.334 490.892 190.526C491.35 190.709 491.741 191 492.066 191.4C492.399 191.8 492.653 192.324 492.828 192.973C493.003 193.614 493.09 194.397 493.09 195.321V204H490.18V195.296C490.18 194.655 490.11 194.147 489.968 193.773C489.835 193.398 489.635 193.127 489.369 192.961C489.102 192.794 488.765 192.711 488.357 192.711C487.958 192.711 487.6 192.819 487.283 193.036C486.975 193.244 486.713 193.535 486.497 193.91C486.28 194.276 486.118 194.705 486.01 195.196C485.901 195.679 485.847 196.199 485.847 196.757ZM501.157 204.25C500.283 204.25 499.505 204.121 498.822 203.863C498.139 203.596 497.561 203.205 497.086 202.689C496.612 202.164 496.249 201.523 496 200.766C495.75 200 495.625 199.113 495.625 198.106V196.807C495.625 195.667 495.754 194.684 496.012 193.86C496.279 193.027 496.645 192.345 497.111 191.812C497.577 191.279 498.127 190.884 498.76 190.626C499.401 190.368 500.096 190.239 500.845 190.239C501.694 190.239 502.431 190.376 503.055 190.651C503.68 190.925 504.192 191.337 504.591 191.887C504.999 192.436 505.299 193.115 505.49 193.922C505.69 194.73 505.79 195.658 505.79 196.707V198.168H497.024V195.97H502.918V195.658C502.901 195.042 502.826 194.514 502.693 194.072C502.56 193.623 502.343 193.281 502.044 193.048C501.752 192.807 501.349 192.686 500.832 192.686C500.458 192.686 500.125 192.757 499.833 192.898C499.542 193.04 499.301 193.269 499.109 193.585C498.926 193.902 498.784 194.326 498.685 194.859C498.585 195.383 498.535 196.033 498.535 196.807V198.106C498.535 198.78 498.593 199.35 498.71 199.817C498.834 200.283 499.018 200.666 499.259 200.965C499.5 201.257 499.792 201.473 500.133 201.615C500.483 201.748 500.887 201.815 501.344 201.815C502.019 201.815 502.597 201.69 503.08 201.44C503.571 201.182 503.996 200.849 504.354 200.441L505.64 202.227C505.399 202.551 505.074 202.872 504.666 203.188C504.258 203.496 503.763 203.75 503.18 203.95C502.606 204.15 501.931 204.25 501.157 204.25ZM511.035 193.098V204H508.125V190.488H510.898L511.035 193.098ZM514.294 190.401L514.282 193.273C514.115 193.231 513.936 193.206 513.745 193.198C513.562 193.181 513.378 193.173 513.195 193.173C512.796 193.173 512.45 193.244 512.159 193.385C511.867 193.527 511.622 193.731 511.422 193.997C511.222 194.264 511.064 194.584 510.948 194.959C510.839 195.334 510.773 195.758 510.748 196.233L510.123 196.258C510.123 195.408 510.19 194.622 510.323 193.897C510.456 193.165 510.656 192.528 510.923 191.987C511.197 191.437 511.539 191.009 511.947 190.701C512.354 190.393 512.829 190.239 513.37 190.239C513.52 190.239 513.691 190.255 513.882 190.288C514.074 190.322 514.211 190.359 514.294 190.401ZM521.212 204.25C520.338 204.25 519.56 204.121 518.877 203.863C518.195 203.596 517.616 203.205 517.141 202.689C516.667 202.164 516.305 201.523 516.055 200.766C515.805 200 515.68 199.113 515.68 198.106V196.807C515.68 195.667 515.809 194.684 516.067 193.86C516.334 193.027 516.7 192.345 517.166 191.812C517.633 191.279 518.182 190.884 518.815 190.626C519.456 190.368 520.151 190.239 520.9 190.239C521.749 190.239 522.486 190.376 523.111 190.651C523.735 190.925 524.247 191.337 524.647 191.887C525.054 192.436 525.354 193.115 525.546 193.922C525.745 194.73 525.845 195.658 525.845 196.707V198.168H517.079V195.97H522.973V195.658C522.957 195.042 522.882 194.514 522.748 194.072C522.615 193.623 522.399 193.281 522.099 193.048C521.808 192.807 521.404 192.686 520.888 192.686C520.513 192.686 520.18 192.757 519.889 192.898C519.597 193.04 519.356 193.269 519.164 193.585C518.981 193.902 518.84 194.326 518.74 194.859C518.64 195.383 518.59 196.033 518.59 196.807V198.106C518.59 198.78 518.648 199.35 518.765 199.817C518.89 200.283 519.073 200.666 519.314 200.965C519.556 201.257 519.847 201.473 520.188 201.615C520.538 201.748 520.942 201.815 521.4 201.815C522.074 201.815 522.653 201.69 523.136 201.44C523.627 201.182 524.051 200.849 524.409 200.441L525.696 202.227C525.454 202.551 525.129 202.872 524.721 203.188C524.314 203.496 523.818 203.75 523.235 203.95C522.661 204.15 521.987 204.25 521.212 204.25ZM540.344 201.253V194.522C540.344 194.056 540.277 193.681 540.144 193.398C540.019 193.115 539.832 192.911 539.582 192.786C539.34 192.653 539.037 192.586 538.67 192.586C538.287 192.586 537.963 192.665 537.696 192.823C537.438 192.982 537.242 193.198 537.109 193.473C536.976 193.739 536.909 194.047 536.909 194.397H534C534 193.856 534.108 193.335 534.325 192.836C534.549 192.336 534.87 191.891 535.286 191.5C535.702 191.109 536.206 190.8 536.797 190.576C537.388 190.351 538.046 190.239 538.77 190.239C539.636 190.239 540.406 190.384 541.08 190.676C541.755 190.959 542.283 191.421 542.666 192.062C543.058 192.694 543.253 193.527 543.253 194.559V200.866C543.253 201.49 543.291 202.048 543.366 202.539C543.449 203.022 543.561 203.442 543.703 203.8V204H540.743C540.61 203.675 540.51 203.259 540.444 202.751C540.377 202.243 540.344 201.744 540.344 201.253ZM540.731 195.771L540.743 197.656H539.345C538.928 197.656 538.554 197.715 538.221 197.831C537.888 197.939 537.605 198.097 537.372 198.306C537.147 198.505 536.972 198.751 536.847 199.042C536.73 199.334 536.672 199.654 536.672 200.004C536.672 200.429 536.73 200.774 536.847 201.04C536.972 201.307 537.151 201.507 537.384 201.64C537.625 201.765 537.917 201.827 538.258 201.827C538.724 201.827 539.128 201.727 539.469 201.527C539.819 201.319 540.086 201.07 540.269 200.778C540.46 200.487 540.535 200.22 540.493 199.979L541.155 201.19C541.089 201.507 540.964 201.84 540.781 202.189C540.606 202.539 540.377 202.872 540.094 203.188C539.811 203.505 539.469 203.763 539.07 203.963C538.67 204.154 538.208 204.25 537.684 204.25C536.926 204.25 536.252 204.092 535.661 203.775C535.07 203.459 534.603 203.005 534.262 202.414C533.929 201.815 533.763 201.099 533.763 200.266C533.763 199.592 533.875 198.98 534.1 198.43C534.325 197.881 534.658 197.411 535.099 197.019C535.54 196.62 536.094 196.312 536.76 196.095C537.434 195.879 538.221 195.771 539.12 195.771H540.731ZM549.147 193.098V204H546.238V190.488H549.01L549.147 193.098ZM552.407 190.401L552.394 193.273C552.228 193.231 552.049 193.206 551.857 193.198C551.674 193.181 551.491 193.173 551.308 193.173C550.908 193.173 550.563 193.244 550.271 193.385C549.98 193.527 549.734 193.731 549.535 193.997C549.335 194.264 549.177 194.584 549.06 194.959C548.952 195.334 548.885 195.758 548.86 196.233L548.236 196.258C548.236 195.408 548.302 194.622 548.436 193.897C548.569 193.165 548.769 192.528 549.035 191.987C549.31 191.437 549.651 191.009 550.059 190.701C550.467 190.393 550.942 190.239 551.483 190.239C551.632 190.239 551.803 190.255 551.995 190.288C552.186 190.322 552.323 190.359 552.407 190.401ZM559.325 204.25C558.451 204.25 557.672 204.121 556.99 203.863C556.307 203.596 555.728 203.205 555.254 202.689C554.779 202.164 554.417 201.523 554.168 200.766C553.918 200 553.793 199.113 553.793 198.106V196.807C553.793 195.667 553.922 194.684 554.18 193.86C554.446 193.027 554.813 192.345 555.279 191.812C555.745 191.279 556.295 190.884 556.927 190.626C557.568 190.368 558.263 190.239 559.013 190.239C559.862 190.239 560.599 190.376 561.223 190.651C561.847 190.925 562.359 191.337 562.759 191.887C563.167 192.436 563.467 193.115 563.658 193.922C563.858 194.73 563.958 195.658 563.958 196.707V198.168H555.191V195.97H561.086V195.658C561.069 195.042 560.994 194.514 560.861 194.072C560.728 193.623 560.511 193.281 560.212 193.048C559.92 192.807 559.516 192.686 559 192.686C558.626 192.686 558.293 192.757 558.001 192.898C557.71 193.04 557.468 193.269 557.277 193.585C557.094 193.902 556.952 194.326 556.852 194.859C556.752 195.383 556.703 196.033 556.703 196.807V198.106C556.703 198.78 556.761 199.35 556.877 199.817C557.002 200.283 557.185 200.666 557.427 200.965C557.668 201.257 557.96 201.473 558.301 201.615C558.651 201.748 559.054 201.815 559.512 201.815C560.187 201.815 560.765 201.69 561.248 201.44C561.739 201.182 562.164 200.849 562.522 200.441L563.808 202.227C563.567 202.551 563.242 202.872 562.834 203.188C562.426 203.496 561.931 203.75 561.348 203.95C560.774 204.15 560.099 204.25 559.325 204.25ZM569.165 193.373V204H566.256V190.488H568.99L569.165 193.373ZM568.641 196.757H567.717C567.708 195.783 567.812 194.896 568.029 194.097C568.245 193.298 568.553 192.611 568.953 192.037C569.353 191.462 569.831 191.021 570.389 190.713C570.955 190.397 571.584 190.239 572.275 190.239C572.816 190.239 573.307 190.33 573.748 190.513C574.198 190.688 574.581 190.975 574.897 191.375C575.213 191.775 575.455 192.295 575.621 192.936C575.796 193.577 575.884 194.359 575.884 195.284V204H572.974V195.259C572.974 194.626 572.903 194.126 572.762 193.76C572.629 193.385 572.429 193.119 572.162 192.961C571.896 192.794 571.559 192.711 571.151 192.711C570.776 192.711 570.431 192.819 570.114 193.036C569.806 193.244 569.54 193.535 569.315 193.91C569.099 194.276 568.932 194.705 568.816 195.196C568.699 195.679 568.641 196.199 568.641 196.757ZM579.518 184.819V186.442L579.193 191.275H577.22L577.232 186.642V184.819H579.518ZM587.41 190.488V192.736H580.779V190.488H587.41ZM582.59 187.179H585.487V200.229C585.487 200.645 585.532 200.961 585.624 201.178C585.716 201.394 585.845 201.54 586.011 201.615C586.178 201.69 586.373 201.727 586.598 201.727C586.765 201.727 586.927 201.715 587.085 201.69C587.252 201.656 587.372 201.627 587.447 201.602V203.95C587.231 204.033 586.981 204.104 586.698 204.162C586.415 204.221 586.074 204.25 585.674 204.25C585.083 204.25 584.554 204.129 584.088 203.888C583.622 203.638 583.256 203.234 582.989 202.676C582.723 202.11 582.59 201.361 582.59 200.429V187.179ZM601.833 201.253V194.522C601.833 194.056 601.767 193.681 601.633 193.398C601.508 193.115 601.321 192.911 601.071 192.786C600.83 192.653 600.526 192.586 600.16 192.586C599.777 192.586 599.452 192.665 599.186 192.823C598.928 192.982 598.732 193.198 598.599 193.473C598.466 193.739 598.399 194.047 598.399 194.397H595.489C595.489 193.856 595.598 193.335 595.814 192.836C596.039 192.336 596.359 191.891 596.776 191.5C597.192 191.109 597.696 190.8 598.287 190.576C598.878 190.351 599.535 190.239 600.26 190.239C601.125 190.239 601.896 190.384 602.57 190.676C603.244 190.959 603.773 191.421 604.156 192.062C604.547 192.694 604.743 193.527 604.743 194.559V200.866C604.743 201.49 604.78 202.048 604.855 202.539C604.938 203.022 605.051 203.442 605.192 203.8V204H602.233C602.1 203.675 602 203.259 601.933 202.751C601.866 202.243 601.833 201.744 601.833 201.253ZM602.22 195.771L602.233 197.656H600.834C600.418 197.656 600.043 197.715 599.71 197.831C599.377 197.939 599.094 198.097 598.861 198.306C598.636 198.505 598.461 198.751 598.337 199.042C598.22 199.334 598.162 199.654 598.162 200.004C598.162 200.429 598.22 200.774 598.337 201.04C598.461 201.307 598.64 201.507 598.874 201.64C599.115 201.765 599.406 201.827 599.748 201.827C600.214 201.827 600.618 201.727 600.959 201.527C601.309 201.319 601.575 201.07 601.758 200.778C601.95 200.487 602.025 200.22 601.983 199.979L602.645 201.19C602.578 201.507 602.453 201.84 602.27 202.189C602.095 202.539 601.866 202.872 601.583 203.188C601.3 203.505 600.959 203.763 600.559 203.963C600.16 204.154 599.698 204.25 599.173 204.25C598.416 204.25 597.741 204.092 597.15 203.775C596.559 203.459 596.093 203.005 595.752 202.414C595.419 201.815 595.252 201.099 595.252 200.266C595.252 199.592 595.364 198.98 595.589 198.43C595.814 197.881 596.147 197.411 596.588 197.019C597.029 196.62 597.583 196.312 598.249 196.095C598.923 195.879 599.71 195.771 600.609 195.771H602.22ZM610.599 193.373V204H607.69V190.488H610.425L610.599 193.373ZM610.075 196.757H609.151C609.143 195.783 609.247 194.896 609.463 194.097C609.68 193.298 609.988 192.611 610.387 192.037C610.787 191.462 611.265 191.021 611.823 190.713C612.389 190.397 613.018 190.239 613.709 190.239C614.25 190.239 614.741 190.33 615.182 190.513C615.632 190.688 616.015 190.975 616.331 191.375C616.648 191.775 616.889 192.295 617.056 192.936C617.23 193.577 617.318 194.359 617.318 195.284V204H614.408V195.259C614.408 194.626 614.337 194.126 614.196 193.76C614.063 193.385 613.863 193.119 613.597 192.961C613.33 192.794 612.993 192.711 612.585 192.711C612.21 192.711 611.865 192.819 611.549 193.036C611.241 193.244 610.974 193.535 610.749 193.91C610.533 194.276 610.366 194.705 610.25 195.196C610.133 195.679 610.075 196.199 610.075 196.757ZM623.524 202.514L626.421 190.488H629.481L625.023 206.048C624.923 206.389 624.781 206.756 624.598 207.147C624.423 207.538 624.194 207.909 623.911 208.258C623.637 208.616 623.291 208.904 622.875 209.12C622.467 209.345 621.98 209.457 621.414 209.457C621.181 209.457 620.956 209.436 620.74 209.395C620.523 209.353 620.315 209.303 620.115 209.245V206.897C620.182 206.905 620.257 206.914 620.34 206.922C620.423 206.93 620.498 206.935 620.565 206.935C620.973 206.935 621.31 206.872 621.576 206.747C621.843 206.631 622.063 206.439 622.238 206.173C622.413 205.915 622.567 205.569 622.7 205.136L623.524 202.514ZM622.238 190.488L624.611 200.541L625.123 203.8L623.125 204.312L619.104 190.488H622.238ZM641.994 201.815C642.368 201.815 642.701 201.736 642.993 201.577C643.292 201.419 643.53 201.174 643.704 200.841C643.879 200.499 643.975 200.058 643.992 199.517H646.726C646.71 200.474 646.489 201.311 646.065 202.027C645.64 202.735 645.074 203.284 644.366 203.675C643.667 204.058 642.889 204.25 642.031 204.25C641.14 204.25 640.362 204.108 639.696 203.825C639.038 203.534 638.493 203.113 638.06 202.564C637.627 202.014 637.302 201.348 637.086 200.566C636.878 199.775 636.774 198.872 636.774 197.856V196.632C636.774 195.625 636.878 194.726 637.086 193.935C637.302 193.144 637.627 192.474 638.06 191.924C638.493 191.375 639.038 190.959 639.696 190.676C640.354 190.384 641.128 190.239 642.019 190.239C642.968 190.239 643.788 190.438 644.479 190.838C645.178 191.229 645.723 191.804 646.115 192.561C646.506 193.319 646.71 194.247 646.726 195.346H643.992C643.975 194.763 643.888 194.276 643.729 193.885C643.571 193.485 643.346 193.186 643.055 192.986C642.772 192.786 642.414 192.686 641.981 192.686C641.507 192.686 641.115 192.778 640.807 192.961C640.508 193.136 640.274 193.394 640.108 193.735C639.95 194.076 639.837 194.493 639.771 194.984C639.712 195.467 639.683 196.016 639.683 196.632V197.856C639.683 198.489 639.712 199.051 639.771 199.542C639.829 200.025 639.937 200.437 640.095 200.778C640.262 201.12 640.499 201.378 640.807 201.552C641.115 201.727 641.511 201.815 641.994 201.815ZM655.256 201.253V194.522C655.256 194.056 655.189 193.681 655.056 193.398C654.931 193.115 654.744 192.911 654.494 192.786C654.252 192.653 653.948 192.586 653.582 192.586C653.199 192.586 652.875 192.665 652.608 192.823C652.35 192.982 652.154 193.198 652.021 193.473C651.888 193.739 651.821 194.047 651.821 194.397H648.912C648.912 193.856 649.02 193.335 649.236 192.836C649.461 192.336 649.782 191.891 650.198 191.5C650.614 191.109 651.118 190.8 651.709 190.576C652.3 190.351 652.958 190.239 653.682 190.239C654.548 190.239 655.318 190.384 655.992 190.676C656.667 190.959 657.195 191.421 657.578 192.062C657.97 192.694 658.165 193.527 658.165 194.559V200.866C658.165 201.49 658.203 202.048 658.278 202.539C658.361 203.022 658.473 203.442 658.615 203.8V204H655.655C655.522 203.675 655.422 203.259 655.355 202.751C655.289 202.243 655.256 201.744 655.256 201.253ZM655.643 195.771L655.655 197.656H654.257C653.84 197.656 653.466 197.715 653.133 197.831C652.8 197.939 652.517 198.097 652.283 198.306C652.059 198.505 651.884 198.751 651.759 199.042C651.642 199.334 651.584 199.654 651.584 200.004C651.584 200.429 651.642 200.774 651.759 201.04C651.884 201.307 652.063 201.507 652.296 201.64C652.537 201.765 652.829 201.827 653.17 201.827C653.636 201.827 654.04 201.727 654.381 201.527C654.731 201.319 654.997 201.07 655.181 200.778C655.372 200.487 655.447 200.22 655.405 199.979L656.067 201.19C656.001 201.507 655.876 201.84 655.693 202.189C655.518 202.539 655.289 202.872 655.006 203.188C654.723 203.505 654.381 203.763 653.982 203.963C653.582 204.154 653.12 204.25 652.596 204.25C651.838 204.25 651.164 204.092 650.573 203.775C649.982 203.459 649.515 203.005 649.174 202.414C648.841 201.815 648.675 201.099 648.675 200.266C648.675 199.592 648.787 198.98 649.012 198.43C649.236 197.881 649.569 197.411 650.011 197.019C650.452 196.62 651.006 196.312 651.672 196.095C652.346 195.879 653.133 195.771 654.032 195.771H655.643ZM664.022 193.373V204H661.112V190.488H663.847L664.022 193.373ZM663.497 196.757H662.573C662.565 195.783 662.669 194.896 662.886 194.097C663.102 193.298 663.41 192.611 663.81 192.037C664.209 191.462 664.688 191.021 665.246 190.713C665.812 190.397 666.44 190.239 667.131 190.239C667.672 190.239 668.164 190.33 668.605 190.513C669.054 190.688 669.437 190.975 669.754 191.375C670.07 191.775 670.312 192.295 670.478 192.936C670.653 193.577 670.74 194.359 670.74 195.284V204H667.831V195.259C667.831 194.626 667.76 194.126 667.618 193.76C667.485 193.385 667.285 193.119 667.019 192.961C666.753 192.794 666.415 192.711 666.007 192.711C665.633 192.711 665.287 192.819 664.971 193.036C664.663 193.244 664.397 193.535 664.172 193.91C663.955 194.276 663.789 194.705 663.672 195.196C663.556 195.679 663.497 196.199 663.497 196.757ZM678.458 201.815C678.832 201.815 679.165 201.736 679.457 201.577C679.756 201.419 679.994 201.174 680.169 200.841C680.343 200.499 680.439 200.058 680.456 199.517H683.191C683.174 200.474 682.953 201.311 682.529 202.027C682.104 202.735 681.538 203.284 680.83 203.675C680.131 204.058 679.353 204.25 678.495 204.25C677.604 204.25 676.826 204.108 676.16 203.825C675.502 203.534 674.957 203.113 674.524 202.564C674.091 202.014 673.766 201.348 673.55 200.566C673.342 199.775 673.238 198.872 673.238 197.856V196.632C673.238 195.625 673.342 194.726 673.55 193.935C673.766 193.144 674.091 192.474 674.524 191.924C674.957 191.375 675.502 190.959 676.16 190.676C676.818 190.384 677.592 190.239 678.483 190.239C679.432 190.239 680.252 190.438 680.943 190.838C681.642 191.229 682.187 191.804 682.579 192.561C682.97 193.319 683.174 194.247 683.191 195.346H680.456C680.439 194.763 680.352 194.276 680.194 193.885C680.035 193.485 679.811 193.186 679.519 192.986C679.236 192.786 678.878 192.686 678.445 192.686C677.971 192.686 677.579 192.778 677.271 192.961C676.972 193.136 676.739 193.394 676.572 193.735C676.414 194.076 676.302 194.493 676.235 194.984C676.177 195.467 676.147 196.016 676.147 196.632V197.856C676.147 198.489 676.177 199.051 676.235 199.542C676.293 200.025 676.401 200.437 676.56 200.778C676.726 201.12 676.963 201.378 677.271 201.552C677.579 201.727 677.975 201.815 678.458 201.815ZM690.621 204.25C689.747 204.25 688.968 204.121 688.286 203.863C687.603 203.596 687.024 203.205 686.55 202.689C686.075 202.164 685.713 201.523 685.463 200.766C685.214 200 685.089 199.113 685.089 198.106V196.807C685.089 195.667 685.218 194.684 685.476 193.86C685.742 193.027 686.109 192.345 686.575 191.812C687.041 191.279 687.59 190.884 688.223 190.626C688.864 190.368 689.559 190.239 690.309 190.239C691.158 190.239 691.894 190.376 692.519 190.651C693.143 190.925 693.655 191.337 694.055 191.887C694.463 192.436 694.763 193.115 694.954 193.922C695.154 194.73 695.254 195.658 695.254 196.707V198.168H686.487V195.97H692.382V195.658C692.365 195.042 692.29 194.514 692.157 194.072C692.024 193.623 691.807 193.281 691.507 193.048C691.216 192.807 690.812 192.686 690.296 192.686C689.921 192.686 689.588 192.757 689.297 192.898C689.006 193.04 688.764 193.269 688.573 193.585C688.39 193.902 688.248 194.326 688.148 194.859C688.048 195.383 687.998 196.033 687.998 196.807V198.106C687.998 198.78 688.057 199.35 688.173 199.817C688.298 200.283 688.481 200.666 688.723 200.965C688.964 201.257 689.255 201.473 689.597 201.615C689.946 201.748 690.35 201.815 690.808 201.815C691.482 201.815 692.061 201.69 692.544 201.44C693.035 201.182 693.46 200.849 693.818 200.441L695.104 202.227C694.862 202.551 694.538 202.872 694.13 203.188C693.722 203.496 693.227 203.75 692.644 203.95C692.069 204.15 691.395 204.25 690.621 204.25ZM700.673 184.819V204H697.764V184.819H700.673ZM708.953 204.25C708.079 204.25 707.3 204.121 706.618 203.863C705.935 203.596 705.356 203.205 704.882 202.689C704.407 202.164 704.045 201.523 703.795 200.766C703.546 200 703.421 199.113 703.421 198.106V196.807C703.421 195.667 703.55 194.684 703.808 193.86C704.074 193.027 704.44 192.345 704.907 191.812C705.373 191.279 705.922 190.884 706.555 190.626C707.196 190.368 707.891 190.239 708.641 190.239C709.49 190.239 710.226 190.376 710.851 190.651C711.475 190.925 711.987 191.337 712.387 191.887C712.795 192.436 713.094 193.115 713.286 193.922C713.486 194.73 713.586 195.658 713.586 196.707V198.168H704.819V195.97H710.713V195.658C710.697 195.042 710.622 194.514 710.489 194.072C710.355 193.623 710.139 193.281 709.839 193.048C709.548 192.807 709.144 192.686 708.628 192.686C708.253 192.686 707.92 192.757 707.629 192.898C707.338 193.04 707.096 193.269 706.905 193.585C706.722 193.902 706.58 194.326 706.48 194.859C706.38 195.383 706.33 196.033 706.33 196.807V198.106C706.33 198.78 706.389 199.35 706.505 199.817C706.63 200.283 706.813 200.666 707.055 200.965C707.296 201.257 707.587 201.473 707.929 201.615C708.278 201.748 708.682 201.815 709.14 201.815C709.814 201.815 710.393 201.69 710.876 201.44C711.367 201.182 711.792 200.849 712.15 200.441L713.436 202.227C713.194 202.551 712.87 202.872 712.462 203.188C712.054 203.496 711.558 203.75 710.976 203.95C710.401 204.15 709.727 204.25 708.953 204.25ZM722.714 201.178V184.819H725.624V204L722.989 204.012L722.714 201.178ZM715.459 197.794V196.732C715.459 195.625 715.559 194.668 715.759 193.86C715.958 193.044 716.25 192.366 716.633 191.824C717.024 191.283 717.494 190.884 718.044 190.626C718.593 190.368 719.213 190.239 719.904 190.239C720.579 190.239 721.162 190.393 721.653 190.701C722.144 191 722.56 191.429 722.901 191.987C723.243 192.545 723.513 193.211 723.713 193.985C723.921 194.751 724.063 195.608 724.138 196.557V198.031C724.046 198.947 723.901 199.787 723.701 200.553C723.501 201.311 723.23 201.965 722.889 202.514C722.548 203.063 722.127 203.492 721.628 203.8C721.137 204.1 720.558 204.25 719.892 204.25C719.201 204.25 718.581 204.112 718.031 203.838C717.49 203.563 717.024 203.155 716.633 202.614C716.25 202.073 715.958 201.403 715.759 200.603C715.559 199.796 715.459 198.859 715.459 197.794ZM718.368 196.732V197.794C718.368 198.485 718.41 199.08 718.493 199.579C718.577 200.079 718.71 200.491 718.893 200.816C719.076 201.132 719.318 201.369 719.617 201.527C719.917 201.677 720.279 201.752 720.704 201.752C721.236 201.752 721.669 201.619 722.002 201.353C722.344 201.086 722.606 200.728 722.789 200.279C722.981 199.821 723.114 199.313 723.189 198.755V195.846C723.147 195.404 723.064 194.996 722.939 194.622C722.814 194.239 722.652 193.906 722.452 193.623C722.252 193.34 722.007 193.119 721.715 192.961C721.432 192.794 721.099 192.711 720.716 192.711C720.292 192.711 719.929 192.794 719.63 192.961C719.33 193.119 719.089 193.365 718.905 193.698C718.722 194.022 718.585 194.439 718.493 194.946C718.41 195.446 718.368 196.041 718.368 196.732ZM740.759 200.441C740.759 200.158 740.676 199.908 740.509 199.692C740.351 199.467 740.093 199.246 739.735 199.03C739.377 198.813 738.898 198.58 738.299 198.331C737.674 198.072 737.121 197.814 736.638 197.556C736.155 197.298 735.747 197.015 735.414 196.707C735.081 196.391 734.827 196.029 734.652 195.621C734.478 195.213 734.39 194.738 734.39 194.197C734.39 193.639 734.494 193.123 734.702 192.649C734.91 192.174 735.21 191.758 735.601 191.4C735.993 191.034 736.463 190.751 737.013 190.551C737.562 190.343 738.182 190.239 738.873 190.239C739.847 190.239 740.68 190.418 741.371 190.776C742.07 191.125 742.603 191.616 742.969 192.249C743.344 192.873 743.531 193.594 743.531 194.409H740.622C740.622 194.068 740.559 193.76 740.434 193.485C740.309 193.202 740.118 192.978 739.86 192.811C739.602 192.636 739.273 192.549 738.873 192.549C738.507 192.549 738.199 192.62 737.949 192.761C737.708 192.894 737.525 193.077 737.4 193.311C737.283 193.535 737.225 193.789 737.225 194.072C737.225 194.28 737.262 194.464 737.337 194.622C737.412 194.78 737.537 194.934 737.712 195.084C737.887 195.225 738.12 195.371 738.411 195.521C738.711 195.671 739.09 195.841 739.548 196.033C740.455 196.382 741.208 196.745 741.808 197.119C742.407 197.494 742.857 197.931 743.157 198.43C743.456 198.93 743.606 199.55 743.606 200.291C743.606 200.891 743.494 201.432 743.269 201.915C743.052 202.397 742.736 202.814 742.32 203.163C741.912 203.513 741.417 203.784 740.834 203.975C740.259 204.158 739.618 204.25 738.911 204.25C737.853 204.25 736.958 204.042 736.226 203.625C735.502 203.201 734.952 202.655 734.577 201.989C734.203 201.323 734.016 200.62 734.016 199.879H736.825C736.85 200.412 736.963 200.828 737.162 201.128C737.371 201.428 737.633 201.636 737.949 201.752C738.266 201.86 738.594 201.915 738.936 201.915C739.344 201.915 739.681 201.86 739.947 201.752C740.214 201.636 740.413 201.465 740.547 201.24C740.688 201.015 740.759 200.749 740.759 200.441ZM751.311 204.25C750.437 204.25 749.658 204.121 748.976 203.863C748.293 203.596 747.715 203.205 747.24 202.689C746.766 202.164 746.403 201.523 746.154 200.766C745.904 200 745.779 199.113 745.779 198.106V196.807C745.779 195.667 745.908 194.684 746.166 193.86C746.432 193.027 746.799 192.345 747.265 191.812C747.731 191.279 748.281 190.884 748.913 190.626C749.554 190.368 750.25 190.239 750.999 190.239C751.848 190.239 752.585 190.376 753.209 190.651C753.834 190.925 754.346 191.337 754.745 191.887C755.153 192.436 755.453 193.115 755.644 193.922C755.844 194.73 755.944 195.658 755.944 196.707V198.168H747.178V195.97H753.072V195.658C753.055 195.042 752.98 194.514 752.847 194.072C752.714 193.623 752.497 193.281 752.198 193.048C751.906 192.807 751.503 192.686 750.986 192.686C750.612 192.686 750.279 192.757 749.987 192.898C749.696 193.04 749.455 193.269 749.263 193.585C749.08 193.902 748.938 194.326 748.838 194.859C748.739 195.383 748.689 196.033 748.689 196.807V198.106C748.689 198.78 748.747 199.35 748.863 199.817C748.988 200.283 749.171 200.666 749.413 200.965C749.654 201.257 749.946 201.473 750.287 201.615C750.637 201.748 751.04 201.815 751.498 201.815C752.173 201.815 752.751 201.69 753.234 201.44C753.725 201.182 754.15 200.849 754.508 200.441L755.794 202.227C755.553 202.551 755.228 202.872 754.82 203.188C754.412 203.496 753.917 203.75 753.334 203.95C752.76 204.15 752.085 204.25 751.311 204.25ZM764.536 200.441C764.536 200.158 764.452 199.908 764.286 199.692C764.128 199.467 763.87 199.246 763.512 199.03C763.154 198.813 762.675 198.58 762.075 198.331C761.451 198.072 760.897 197.814 760.415 197.556C759.932 197.298 759.524 197.015 759.191 196.707C758.858 196.391 758.604 196.029 758.429 195.621C758.254 195.213 758.167 194.738 758.167 194.197C758.167 193.639 758.271 193.123 758.479 192.649C758.687 192.174 758.987 191.758 759.378 191.4C759.769 191.034 760.24 190.751 760.789 190.551C761.339 190.343 761.959 190.239 762.65 190.239C763.624 190.239 764.456 190.418 765.147 190.776C765.847 191.125 766.38 191.616 766.746 192.249C767.12 192.873 767.308 193.594 767.308 194.409H764.398C764.398 194.068 764.336 193.76 764.211 193.485C764.086 193.202 763.894 192.978 763.636 192.811C763.378 192.636 763.049 192.549 762.65 192.549C762.284 192.549 761.976 192.62 761.726 192.761C761.484 192.894 761.301 193.077 761.176 193.311C761.06 193.535 761.001 193.789 761.001 194.072C761.001 194.28 761.039 194.464 761.114 194.622C761.189 194.78 761.314 194.934 761.489 195.084C761.663 195.225 761.896 195.371 762.188 195.521C762.488 195.671 762.866 195.841 763.324 196.033C764.232 196.382 764.985 196.745 765.584 197.119C766.184 197.494 766.633 197.931 766.933 198.43C767.233 198.93 767.383 199.55 767.383 200.291C767.383 200.891 767.27 201.432 767.046 201.915C766.829 202.397 766.513 202.814 766.096 203.163C765.689 203.513 765.193 203.784 764.61 203.975C764.036 204.158 763.395 204.25 762.687 204.25C761.63 204.25 760.735 204.042 760.002 203.625C759.278 203.201 758.729 202.655 758.354 201.989C757.979 201.323 757.792 200.62 757.792 199.879H760.602C760.627 200.412 760.739 200.828 760.939 201.128C761.147 201.428 761.409 201.636 761.726 201.752C762.042 201.86 762.371 201.915 762.712 201.915C763.12 201.915 763.457 201.86 763.724 201.752C763.99 201.636 764.19 201.465 764.323 201.24C764.465 201.015 764.536 200.749 764.536 200.441ZM776.174 200.441C776.174 200.158 776.091 199.908 775.924 199.692C775.766 199.467 775.508 199.246 775.15 199.03C774.792 198.813 774.313 198.58 773.714 198.331C773.09 198.072 772.536 197.814 772.053 197.556C771.57 197.298 771.162 197.015 770.829 196.707C770.496 196.391 770.242 196.029 770.068 195.621C769.893 195.213 769.805 194.738 769.805 194.197C769.805 193.639 769.909 193.123 770.118 192.649C770.326 192.174 770.625 191.758 771.017 191.4C771.408 191.034 771.878 190.751 772.428 190.551C772.977 190.343 773.597 190.239 774.288 190.239C775.262 190.239 776.095 190.418 776.786 190.776C777.485 191.125 778.018 191.616 778.384 192.249C778.759 192.873 778.946 193.594 778.946 194.409H776.037C776.037 194.068 775.974 193.76 775.849 193.485C775.725 193.202 775.533 192.978 775.275 192.811C775.017 192.636 774.688 192.549 774.288 192.549C773.922 192.549 773.614 192.62 773.364 192.761C773.123 192.894 772.94 193.077 772.815 193.311C772.698 193.535 772.64 193.789 772.64 194.072C772.64 194.28 772.678 194.464 772.752 194.622C772.827 194.78 772.952 194.934 773.127 195.084C773.302 195.225 773.535 195.371 773.826 195.521C774.126 195.671 774.505 195.841 774.963 196.033C775.87 196.382 776.624 196.745 777.223 197.119C777.822 197.494 778.272 197.931 778.572 198.43C778.871 198.93 779.021 199.55 779.021 200.291C779.021 200.891 778.909 201.432 778.684 201.915C778.468 202.397 778.151 202.814 777.735 203.163C777.327 203.513 776.832 203.784 776.249 203.975C775.675 204.158 775.034 204.25 774.326 204.25C773.269 204.25 772.374 204.042 771.641 203.625C770.917 203.201 770.367 202.655 769.993 201.989C769.618 201.323 769.431 200.62 769.431 199.879H772.24C772.265 200.412 772.378 200.828 772.578 201.128C772.786 201.428 773.048 201.636 773.364 201.752C773.681 201.86 774.01 201.915 774.351 201.915C774.759 201.915 775.096 201.86 775.362 201.752C775.629 201.636 775.829 201.465 775.962 201.24C776.103 201.015 776.174 200.749 776.174 200.441ZM784.641 190.488V204H781.731V190.488H784.641ZM781.581 186.942C781.581 186.476 781.723 186.088 782.006 185.78C782.289 185.472 782.684 185.318 783.192 185.318C783.7 185.318 784.095 185.472 784.379 185.78C784.662 186.088 784.803 186.476 784.803 186.942C784.803 187.4 784.662 187.783 784.379 188.091C784.095 188.399 783.7 188.553 783.192 188.553C782.684 188.553 782.289 188.399 782.006 188.091C781.723 187.783 781.581 187.4 781.581 186.942ZM787.326 197.794V196.707C787.326 195.658 787.455 194.73 787.713 193.922C787.971 193.115 788.337 192.441 788.812 191.899C789.294 191.35 789.861 190.938 790.51 190.663C791.159 190.38 791.875 190.239 792.658 190.239C793.457 190.239 794.181 190.38 794.831 190.663C795.488 190.938 796.055 191.35 796.529 191.899C797.012 192.441 797.382 193.115 797.64 193.922C797.899 194.73 798.028 195.658 798.028 196.707V197.794C798.028 198.843 797.899 199.771 797.64 200.578C797.382 201.386 797.012 202.064 796.529 202.614C796.055 203.155 795.493 203.563 794.843 203.838C794.194 204.112 793.474 204.25 792.683 204.25C791.9 204.25 791.18 204.112 790.522 203.838C789.873 203.563 789.307 203.155 788.824 202.614C788.341 202.064 787.971 201.386 787.713 200.578C787.455 199.771 787.326 198.843 787.326 197.794ZM790.235 196.707V197.794C790.235 198.468 790.294 199.059 790.41 199.567C790.527 200.066 790.693 200.483 790.91 200.816C791.126 201.149 791.384 201.398 791.684 201.565C791.984 201.731 792.317 201.815 792.683 201.815C793.091 201.815 793.445 201.731 793.744 201.565C794.052 201.398 794.306 201.149 794.506 200.816C794.714 200.483 794.868 200.066 794.968 199.567C795.068 199.059 795.118 198.468 795.118 197.794V196.707C795.118 196.041 795.06 195.458 794.943 194.959C794.827 194.451 794.66 194.031 794.444 193.698C794.227 193.356 793.965 193.102 793.657 192.936C793.357 192.769 793.024 192.686 792.658 192.686C792.3 192.686 791.971 192.769 791.671 192.936C791.38 193.102 791.126 193.356 790.91 193.698C790.693 194.031 790.527 194.451 790.41 194.959C790.294 195.458 790.235 196.041 790.235 196.707ZM803.41 193.373V204H800.5V190.488H803.235L803.41 193.373ZM802.885 196.757H801.961C801.953 195.783 802.057 194.896 802.273 194.097C802.49 193.298 802.798 192.611 803.197 192.037C803.597 191.462 804.076 191.021 804.634 190.713C805.2 190.397 805.828 190.239 806.519 190.239C807.06 190.239 807.552 190.33 807.993 190.513C808.442 190.688 808.825 190.975 809.142 191.375C809.458 191.775 809.699 192.295 809.866 192.936C810.041 193.577 810.128 194.359 810.128 195.284V204H807.219V195.259C807.219 194.626 807.148 194.126 807.006 193.76C806.873 193.385 806.673 193.119 806.407 192.961C806.14 192.794 805.803 192.711 805.395 192.711C805.021 192.711 804.675 192.819 804.359 193.036C804.051 193.244 803.784 193.535 803.56 193.91C803.343 194.276 803.177 194.705 803.06 195.196C802.944 195.679 802.885 196.199 802.885 196.757ZM819.307 200.441C819.307 200.158 819.223 199.908 819.057 199.692C818.899 199.467 818.641 199.246 818.283 199.03C817.925 198.813 817.446 198.58 816.847 198.331C816.222 198.072 815.669 197.814 815.186 197.556C814.703 197.298 814.295 197.015 813.962 196.707C813.629 196.391 813.375 196.029 813.2 195.621C813.025 195.213 812.938 194.738 812.938 194.197C812.938 193.639 813.042 193.123 813.25 192.649C813.458 192.174 813.758 191.758 814.149 191.4C814.54 191.034 815.011 190.751 815.56 190.551C816.11 190.343 816.73 190.239 817.421 190.239C818.395 190.239 819.228 190.418 819.919 190.776C820.618 191.125 821.151 191.616 821.517 192.249C821.892 192.873 822.079 193.594 822.079 194.409H819.169C819.169 194.068 819.107 193.76 818.982 193.485C818.857 193.202 818.666 192.978 818.408 192.811C818.149 192.636 817.821 192.549 817.421 192.549C817.055 192.549 816.747 192.62 816.497 192.761C816.255 192.894 816.072 193.077 815.947 193.311C815.831 193.535 815.773 193.789 815.773 194.072C815.773 194.28 815.81 194.464 815.885 194.622C815.96 194.78 816.085 194.934 816.26 195.084C816.434 195.225 816.668 195.371 816.959 195.521C817.259 195.671 817.637 195.841 818.095 196.033C819.003 196.382 819.756 196.745 820.356 197.119C820.955 197.494 821.405 197.931 821.704 198.43C822.004 198.93 822.154 199.55 822.154 200.291C822.154 200.891 822.041 201.432 821.817 201.915C821.6 202.397 821.284 202.814 820.868 203.163C820.46 203.513 819.964 203.784 819.382 203.975C818.807 204.158 818.166 204.25 817.458 204.25C816.401 204.25 815.506 204.042 814.774 203.625C814.049 203.201 813.5 202.655 813.125 201.989C812.751 201.323 812.563 200.62 812.563 199.879H815.373C815.398 200.412 815.51 200.828 815.71 201.128C815.918 201.428 816.181 201.636 816.497 201.752C816.813 201.86 817.142 201.915 817.483 201.915C817.891 201.915 818.229 201.86 818.495 201.752C818.761 201.636 818.961 201.465 819.094 201.24C819.236 201.015 819.307 200.749 819.307 200.441ZM833.493 193.098V204H830.583V190.488H833.355L833.493 193.098ZM836.752 190.401L836.739 193.273C836.573 193.231 836.394 193.206 836.203 193.198C836.019 193.181 835.836 193.173 835.653 193.173C835.253 193.173 834.908 193.244 834.617 193.385C834.325 193.527 834.08 193.731 833.88 193.997C833.68 194.264 833.522 194.584 833.405 194.959C833.297 195.334 833.23 195.758 833.205 196.233L832.581 196.258C832.581 195.408 832.648 194.622 832.781 193.897C832.914 193.165 833.114 192.528 833.38 191.987C833.655 191.437 833.996 191.009 834.404 190.701C834.812 190.393 835.287 190.239 835.828 190.239C835.978 190.239 836.148 190.255 836.34 190.288C836.531 190.322 836.669 190.359 836.752 190.401ZM841.834 190.488V204H838.925V190.488H841.834ZM838.775 186.942C838.775 186.476 838.917 186.088 839.2 185.78C839.483 185.472 839.878 185.318 840.386 185.318C840.894 185.318 841.289 185.472 841.572 185.78C841.855 186.088 841.997 186.476 841.997 186.942C841.997 187.4 841.855 187.783 841.572 188.091C841.289 188.399 840.894 188.553 840.386 188.553C839.878 188.553 839.483 188.399 839.2 188.091C838.917 187.783 838.775 187.4 838.775 186.942ZM852.149 190.488H854.784V204.05C854.784 205.265 854.559 206.26 854.11 207.035C853.669 207.817 853.053 208.396 852.262 208.77C851.471 209.145 850.555 209.332 849.514 209.332C849.131 209.332 848.678 209.27 848.153 209.145C847.629 209.02 847.117 208.837 846.617 208.595C846.118 208.354 845.701 208.054 845.368 207.696L846.43 205.673C846.821 206.073 847.283 206.381 847.816 206.597C848.349 206.822 848.861 206.935 849.352 206.935C849.885 206.935 850.334 206.843 850.701 206.66C851.075 206.485 851.363 206.19 851.562 205.773C851.762 205.365 851.862 204.812 851.862 204.112V193.548L852.149 190.488ZM844.507 197.794V196.732C844.507 195.625 844.611 194.668 844.819 193.86C845.027 193.044 845.327 192.366 845.718 191.824C846.109 191.283 846.588 190.884 847.154 190.626C847.72 190.368 848.353 190.239 849.052 190.239C849.777 190.239 850.389 190.393 850.888 190.701C851.396 191 851.808 191.429 852.124 191.987C852.449 192.545 852.703 193.211 852.886 193.985C853.069 194.751 853.202 195.608 853.286 196.557V198.031C853.202 198.947 853.061 199.787 852.861 200.553C852.661 201.311 852.391 201.965 852.049 202.514C851.716 203.063 851.3 203.492 850.801 203.8C850.309 204.1 849.718 204.25 849.027 204.25C848.336 204.25 847.712 204.112 847.154 203.838C846.596 203.563 846.118 203.155 845.718 202.614C845.327 202.073 845.027 201.403 844.819 200.603C844.611 199.796 844.507 198.859 844.507 197.794ZM847.416 196.732V197.794C847.416 198.485 847.462 199.08 847.554 199.579C847.654 200.079 847.799 200.491 847.991 200.816C848.182 201.132 848.432 201.369 848.74 201.527C849.048 201.677 849.415 201.752 849.839 201.752C850.397 201.752 850.846 201.619 851.188 201.353C851.537 201.086 851.804 200.728 851.987 200.279C852.178 199.821 852.312 199.313 852.387 198.755V195.846C852.345 195.404 852.262 194.996 852.137 194.622C852.02 194.239 851.858 193.906 851.65 193.623C851.45 193.34 851.2 193.119 850.901 192.961C850.609 192.794 850.264 192.711 849.864 192.711C849.448 192.711 849.082 192.794 848.765 192.961C848.457 193.119 848.203 193.365 848.003 193.698C847.804 194.022 847.654 194.439 847.554 194.946C847.462 195.446 847.416 196.041 847.416 196.732ZM860.566 184.819V204H857.669V184.819H860.566ZM860.054 196.757H859.13C859.122 195.816 859.222 194.951 859.43 194.16C859.638 193.369 859.938 192.678 860.329 192.087C860.72 191.496 861.19 191.042 861.74 190.726C862.298 190.401 862.914 190.239 863.588 190.239C864.146 190.239 864.65 190.334 865.099 190.526C865.557 190.709 865.948 191 866.273 191.4C866.606 191.8 866.86 192.324 867.035 192.973C867.21 193.614 867.297 194.397 867.297 195.321V204H864.387V195.296C864.387 194.655 864.317 194.147 864.175 193.773C864.042 193.398 863.842 193.127 863.576 192.961C863.309 192.794 862.972 192.711 862.564 192.711C862.164 192.711 861.806 192.819 861.49 193.036C861.182 193.244 860.92 193.535 860.703 193.91C860.487 194.276 860.325 194.705 860.216 195.196C860.108 195.679 860.054 196.199 860.054 196.757ZM875.651 190.488V192.736H869.02V190.488H875.651ZM870.831 187.179H873.728V200.229C873.728 200.645 873.774 200.961 873.865 201.178C873.957 201.394 874.086 201.54 874.253 201.615C874.419 201.69 874.615 201.727 874.839 201.727C875.006 201.727 875.168 201.715 875.327 201.69C875.493 201.656 875.614 201.627 875.689 201.602V203.95C875.472 204.033 875.222 204.104 874.939 204.162C874.656 204.221 874.315 204.25 873.915 204.25C873.324 204.25 872.796 204.129 872.329 203.888C871.863 203.638 871.497 203.234 871.231 202.676C870.964 202.11 870.831 201.361 870.831 200.429V187.179ZM886.678 193.373V204H883.768V190.488H886.503L886.678 193.373ZM886.153 196.757H885.229C885.221 195.783 885.325 194.896 885.541 194.097C885.758 193.298 886.066 192.611 886.466 192.037C886.865 191.462 887.344 191.021 887.902 190.713C888.468 190.397 889.096 190.239 889.787 190.239C890.328 190.239 890.82 190.33 891.261 190.513C891.71 190.688 892.093 190.975 892.41 191.375C892.726 191.775 892.967 192.295 893.134 192.936C893.309 193.577 893.396 194.359 893.396 195.284V204H890.487V195.259C890.487 194.626 890.416 194.126 890.274 193.76C890.141 193.385 889.941 193.119 889.675 192.961C889.408 192.794 889.071 192.711 888.663 192.711C888.289 192.711 887.943 192.819 887.627 193.036C887.319 193.244 887.052 193.535 886.828 193.91C886.611 194.276 886.445 194.705 886.328 195.196C886.212 195.679 886.153 196.199 886.153 196.757ZM895.894 197.794V196.707C895.894 195.658 896.023 194.73 896.281 193.922C896.539 193.115 896.905 192.441 897.38 191.899C897.863 191.35 898.429 190.938 899.078 190.663C899.728 190.38 900.443 190.239 901.226 190.239C902.025 190.239 902.75 190.38 903.399 190.663C904.057 190.938 904.623 191.35 905.097 191.899C905.58 192.441 905.951 193.115 906.209 193.922C906.467 194.73 906.596 195.658 906.596 196.707V197.794C906.596 198.843 906.467 199.771 906.209 200.578C905.951 201.386 905.58 202.064 905.097 202.614C904.623 203.155 904.061 203.563 903.411 203.838C902.762 204.112 902.042 204.25 901.251 204.25C900.468 204.25 899.748 204.112 899.091 203.838C898.441 203.563 897.875 203.155 897.392 202.614C896.909 202.064 896.539 201.386 896.281 200.578C896.023 199.771 895.894 198.843 895.894 197.794ZM898.803 196.707V197.794C898.803 198.468 898.862 199.059 898.978 199.567C899.095 200.066 899.261 200.483 899.478 200.816C899.694 201.149 899.952 201.398 900.252 201.565C900.552 201.731 900.885 201.815 901.251 201.815C901.659 201.815 902.013 201.731 902.312 201.565C902.62 201.398 902.874 201.149 903.074 200.816C903.282 200.483 903.436 200.066 903.536 199.567C903.636 199.059 903.686 198.468 903.686 197.794V196.707C903.686 196.041 903.628 195.458 903.511 194.959C903.395 194.451 903.228 194.031 903.012 193.698C902.795 193.356 902.533 193.102 902.225 192.936C901.925 192.769 901.592 192.686 901.226 192.686C900.868 192.686 900.539 192.769 900.24 192.936C899.948 193.102 899.694 193.356 899.478 193.698C899.261 194.031 899.095 194.451 898.978 194.959C898.862 195.458 898.803 196.041 898.803 196.707ZM912.103 200.978L914.75 190.488H916.586L916.224 193.698L913.589 204H911.965L912.103 200.978ZM910.991 190.488L913.014 201.015L913.027 204H911.204L908.169 190.488H910.991ZM918.721 200.891L920.657 190.488H923.492L920.457 204H918.634L918.721 200.891ZM916.898 190.488L919.508 200.841L919.695 204H918.072L915.387 193.698L915.037 190.488H916.898ZM924.166 202.476C924.166 201.994 924.32 201.59 924.628 201.265C924.944 200.941 925.377 200.778 925.927 200.778C926.476 200.778 926.905 200.941 927.213 201.265C927.529 201.59 927.688 201.994 927.688 202.476C927.688 202.943 927.529 203.338 927.213 203.663C926.905 203.988 926.476 204.15 925.927 204.15C925.377 204.15 924.944 203.988 924.628 203.663C924.32 203.338 924.166 202.943 924.166 202.476ZM583.663 215.818V234H580.629V215.818H583.663ZM592.742 215.818L586.686 224.597L583.052 229.055L582.477 225.883L584.987 222.162L589.071 215.818H592.742ZM589.408 234L584.8 225.408L586.885 223.248L592.992 234H589.408ZM599.298 234.25C598.424 234.25 597.646 234.121 596.963 233.863C596.28 233.596 595.702 233.205 595.227 232.689C594.753 232.164 594.39 231.523 594.141 230.766C593.891 230 593.766 229.113 593.766 228.106V226.807C593.766 225.667 593.895 224.684 594.153 223.86C594.42 223.027 594.786 222.345 595.252 221.812C595.718 221.279 596.268 220.884 596.9 220.626C597.541 220.368 598.237 220.239 598.986 220.239C599.835 220.239 600.572 220.376 601.196 220.651C601.821 220.925 602.333 221.337 602.732 221.887C603.14 222.436 603.44 223.115 603.631 223.922C603.831 224.73 603.931 225.658 603.931 226.707V228.168H595.165V225.97H601.059V225.658C601.042 225.042 600.967 224.514 600.834 224.072C600.701 223.623 600.484 223.281 600.185 223.048C599.893 222.807 599.49 222.686 598.973 222.686C598.599 222.686 598.266 222.757 597.974 222.898C597.683 223.04 597.442 223.269 597.25 223.585C597.067 223.902 596.925 224.326 596.826 224.859C596.726 225.383 596.676 226.033 596.676 226.807V228.106C596.676 228.78 596.734 229.35 596.85 229.817C596.975 230.283 597.159 230.666 597.4 230.965C597.641 231.257 597.933 231.473 598.274 231.615C598.624 231.748 599.028 231.815 599.485 231.815C600.16 231.815 600.738 231.69 601.221 231.44C601.712 231.182 602.137 230.849 602.495 230.441L603.781 232.227C603.54 232.551 603.215 232.872 602.807 233.188C602.399 233.496 601.904 233.75 601.321 233.95C600.747 234.15 600.072 234.25 599.298 234.25ZM611.436 234.25C610.562 234.25 609.784 234.121 609.101 233.863C608.418 233.596 607.84 233.205 607.365 232.689C606.891 232.164 606.528 231.523 606.279 230.766C606.029 230 605.904 229.113 605.904 228.106V226.807C605.904 225.667 606.033 224.684 606.291 223.86C606.558 223.027 606.924 222.345 607.39 221.812C607.856 221.279 608.406 220.884 609.039 220.626C609.68 220.368 610.375 220.239 611.124 220.239C611.973 220.239 612.71 220.376 613.334 220.651C613.959 220.925 614.471 221.337 614.87 221.887C615.278 222.436 615.578 223.115 615.769 223.922C615.969 224.73 616.069 225.658 616.069 226.707V228.168H607.303V225.97H613.197V225.658C613.18 225.042 613.105 224.514 612.972 224.072C612.839 223.623 612.622 223.281 612.323 223.048C612.031 222.807 611.628 222.686 611.111 222.686C610.737 222.686 610.404 222.757 610.112 222.898C609.821 223.04 609.58 223.269 609.388 223.585C609.205 223.902 609.063 224.326 608.964 224.859C608.864 225.383 608.814 226.033 608.814 226.807V228.106C608.814 228.78 608.872 229.35 608.989 229.817C609.113 230.283 609.297 230.666 609.538 230.965C609.779 231.257 610.071 231.473 610.412 231.615C610.762 231.748 611.166 231.815 611.623 231.815C612.298 231.815 612.876 231.69 613.359 231.44C613.85 231.182 614.275 230.849 614.633 230.441L615.919 232.227C615.678 232.551 615.353 232.872 614.945 233.188C614.537 233.496 614.042 233.75 613.459 233.95C612.885 234.15 612.21 234.25 611.436 234.25ZM621.314 223.086V239.195H618.417V220.488H621.077L621.314 223.086ZM628.582 226.707V227.781C628.582 228.838 628.486 229.771 628.295 230.578C628.103 231.386 627.82 232.064 627.445 232.614C627.079 233.155 626.625 233.563 626.084 233.838C625.543 234.112 624.91 234.25 624.186 234.25C623.503 234.25 622.908 234.1 622.4 233.8C621.901 233.5 621.48 233.08 621.139 232.539C620.798 231.998 620.523 231.357 620.315 230.616C620.115 229.867 619.969 229.051 619.878 228.168V226.52C619.969 225.587 620.111 224.738 620.302 223.972C620.502 223.198 620.773 222.532 621.114 221.974C621.464 221.417 621.888 220.988 622.388 220.688C622.887 220.388 623.483 220.239 624.174 220.239C624.898 220.239 625.535 220.368 626.084 220.626C626.634 220.884 627.092 221.279 627.458 221.812C627.833 222.345 628.111 223.019 628.295 223.835C628.486 224.643 628.582 225.6 628.582 226.707ZM625.672 227.781V226.707C625.672 226.016 625.626 225.421 625.535 224.921C625.452 224.414 625.31 223.997 625.11 223.673C624.919 223.348 624.673 223.107 624.373 222.948C624.082 222.79 623.72 222.711 623.287 222.711C622.904 222.711 622.567 222.79 622.275 222.948C621.984 223.107 621.739 223.327 621.539 223.61C621.339 223.885 621.181 224.214 621.064 224.597C620.948 224.971 620.873 225.379 620.839 225.821V228.88C620.914 229.413 621.039 229.904 621.214 230.354C621.389 230.795 621.643 231.149 621.976 231.415C622.317 231.681 622.763 231.815 623.312 231.815C623.737 231.815 624.099 231.731 624.398 231.565C624.698 231.398 624.94 231.149 625.123 230.816C625.314 230.483 625.452 230.066 625.535 229.567C625.626 229.059 625.672 228.464 625.672 227.781ZM643.605 230.816V220.488H646.514V234H643.779L643.605 230.816ZM644.017 227.993L644.941 227.968C644.941 228.876 644.857 229.713 644.691 230.478C644.524 231.244 644.266 231.91 643.917 232.476C643.575 233.034 643.13 233.471 642.581 233.788C642.039 234.096 641.386 234.25 640.62 234.25C640.07 234.25 639.567 234.154 639.109 233.963C638.651 233.771 638.256 233.476 637.923 233.076C637.59 232.676 637.332 232.156 637.148 231.515C636.965 230.874 636.874 230.108 636.874 229.217V220.488H639.783V229.242C639.783 229.725 639.825 230.129 639.908 230.453C639.991 230.77 640.108 231.028 640.258 231.228C640.408 231.419 640.574 231.557 640.757 231.64C640.949 231.715 641.153 231.752 641.369 231.752C642.027 231.752 642.547 231.59 642.93 231.265C643.321 230.932 643.6 230.483 643.767 229.917C643.933 229.35 644.017 228.709 644.017 227.993ZM652.333 223.086V239.195H649.436V220.488H652.096L652.333 223.086ZM659.601 226.707V227.781C659.601 228.838 659.506 229.771 659.314 230.578C659.123 231.386 658.84 232.064 658.465 232.614C658.099 233.155 657.645 233.563 657.104 233.838C656.563 234.112 655.93 234.25 655.206 234.25C654.523 234.25 653.928 234.1 653.42 233.8C652.92 233.5 652.5 233.08 652.159 232.539C651.817 231.998 651.543 231.357 651.334 230.616C651.135 229.867 650.989 229.051 650.897 228.168V226.52C650.989 225.587 651.13 224.738 651.322 223.972C651.522 223.198 651.792 222.532 652.134 221.974C652.483 221.417 652.908 220.988 653.407 220.688C653.907 220.388 654.502 220.239 655.193 220.239C655.917 220.239 656.554 220.368 657.104 220.626C657.653 220.884 658.111 221.279 658.477 221.812C658.852 222.345 659.131 223.019 659.314 223.835C659.506 224.643 659.601 225.6 659.601 226.707ZM656.692 227.781V226.707C656.692 226.016 656.646 225.421 656.554 224.921C656.471 224.414 656.329 223.997 656.13 223.673C655.938 223.348 655.693 223.107 655.393 222.948C655.102 222.79 654.739 222.711 654.306 222.711C653.924 222.711 653.586 222.79 653.295 222.948C653.004 223.107 652.758 223.327 652.558 223.61C652.358 223.885 652.2 224.214 652.084 224.597C651.967 224.971 651.892 225.379 651.859 225.821V228.88C651.934 229.413 652.059 229.904 652.234 230.354C652.408 230.795 652.662 231.149 652.995 231.415C653.337 231.681 653.782 231.815 654.331 231.815C654.756 231.815 655.118 231.731 655.418 231.565C655.718 231.398 655.959 231.149 656.142 230.816C656.334 230.483 656.471 230.066 656.554 229.567C656.646 229.059 656.692 228.464 656.692 227.781ZM673.413 220.488V222.736H666.782V220.488H673.413ZM668.592 217.179H671.49V230.229C671.49 230.645 671.535 230.961 671.627 231.178C671.719 231.394 671.848 231.54 672.014 231.615C672.181 231.69 672.376 231.727 672.601 231.727C672.767 231.727 672.93 231.715 673.088 231.69C673.254 231.656 673.375 231.627 673.45 231.602V233.95C673.234 234.033 672.984 234.104 672.701 234.162C672.418 234.221 672.076 234.25 671.677 234.25C671.086 234.25 670.557 234.129 670.091 233.888C669.625 233.638 669.258 233.234 668.992 232.676C668.726 232.11 668.592 231.361 668.592 230.429V217.179ZM678.533 214.819V234H675.635V214.819H678.533ZM678.021 226.757H677.097C677.088 225.816 677.188 224.951 677.396 224.16C677.604 223.369 677.904 222.678 678.295 222.087C678.687 221.496 679.157 221.042 679.706 220.726C680.264 220.401 680.88 220.239 681.555 220.239C682.112 220.239 682.616 220.334 683.066 220.526C683.524 220.709 683.915 221 684.24 221.4C684.573 221.8 684.826 222.324 685.001 222.973C685.176 223.614 685.264 224.397 685.264 225.321V234H682.354V225.296C682.354 224.655 682.283 224.147 682.142 223.773C682.008 223.398 681.809 223.127 681.542 222.961C681.276 222.794 680.939 222.711 680.531 222.711C680.131 222.711 679.773 222.819 679.457 223.036C679.149 223.244 678.886 223.535 678.67 223.91C678.454 224.276 678.291 224.705 678.183 225.196C678.075 225.679 678.021 226.199 678.021 226.757ZM693.331 234.25C692.456 234.25 691.678 234.121 690.995 233.863C690.313 233.596 689.734 233.205 689.26 232.689C688.785 232.164 688.423 231.523 688.173 230.766C687.923 230 687.799 229.113 687.799 228.106V226.807C687.799 225.667 687.928 224.684 688.186 223.86C688.452 223.027 688.818 222.345 689.285 221.812C689.751 221.279 690.3 220.884 690.933 220.626C691.574 220.368 692.269 220.239 693.018 220.239C693.868 220.239 694.604 220.376 695.229 220.651C695.853 220.925 696.365 221.337 696.765 221.887C697.173 222.436 697.472 223.115 697.664 223.922C697.864 224.73 697.964 225.658 697.964 226.707V228.168H689.197V225.97H695.091V225.658C695.075 225.042 695 224.514 694.867 224.072C694.733 223.623 694.517 223.281 694.217 223.048C693.926 222.807 693.522 222.686 693.006 222.686C692.631 222.686 692.298 222.757 692.007 222.898C691.715 223.04 691.474 223.269 691.283 223.585C691.099 223.902 690.958 224.326 690.858 224.859C690.758 225.383 690.708 226.033 690.708 226.807V228.106C690.708 228.78 690.766 229.35 690.883 229.817C691.008 230.283 691.191 230.666 691.432 230.965C691.674 231.257 691.965 231.473 692.307 231.615C692.656 231.748 693.06 231.815 693.518 231.815C694.192 231.815 694.771 231.69 695.254 231.44C695.745 231.182 696.169 230.849 696.527 230.441L697.814 232.227C697.572 232.551 697.248 232.872 696.84 233.188C696.432 233.496 695.936 233.75 695.354 233.95C694.779 234.15 694.105 234.25 693.331 234.25ZM713.398 220.488H716.033V234.05C716.033 235.265 715.808 236.26 715.359 237.035C714.918 237.817 714.302 238.396 713.511 238.77C712.72 239.145 711.804 239.332 710.763 239.332C710.38 239.332 709.927 239.27 709.402 239.145C708.878 239.02 708.366 238.837 707.866 238.595C707.367 238.354 706.951 238.054 706.618 237.696L707.679 235.673C708.07 236.073 708.532 236.381 709.065 236.597C709.598 236.822 710.11 236.935 710.601 236.935C711.134 236.935 711.583 236.843 711.95 236.66C712.324 236.485 712.612 236.19 712.811 235.773C713.011 235.365 713.111 234.812 713.111 234.112V223.548L713.398 220.488ZM705.756 227.794V226.732C705.756 225.625 705.86 224.668 706.068 223.86C706.276 223.044 706.576 222.366 706.967 221.824C707.358 221.283 707.837 220.884 708.403 220.626C708.969 220.368 709.602 220.239 710.301 220.239C711.026 220.239 711.638 220.393 712.137 220.701C712.645 221 713.057 221.429 713.373 221.987C713.698 222.545 713.952 223.211 714.135 223.985C714.318 224.751 714.451 225.608 714.535 226.557V228.031C714.451 228.947 714.31 229.787 714.11 230.553C713.91 231.311 713.64 231.965 713.298 232.514C712.965 233.063 712.549 233.492 712.05 233.8C711.558 234.1 710.967 234.25 710.276 234.25C709.585 234.25 708.961 234.112 708.403 233.838C707.845 233.563 707.367 233.155 706.967 232.614C706.576 232.073 706.276 231.403 706.068 230.603C705.86 229.796 705.756 228.859 705.756 227.794ZM708.665 226.732V227.794C708.665 228.485 708.711 229.08 708.803 229.579C708.903 230.079 709.048 230.491 709.24 230.816C709.431 231.132 709.681 231.369 709.989 231.527C710.297 231.677 710.664 231.752 711.088 231.752C711.646 231.752 712.095 231.619 712.437 231.353C712.786 231.086 713.053 230.728 713.236 230.279C713.427 229.821 713.561 229.313 713.636 228.755V225.846C713.594 225.404 713.511 224.996 713.386 224.622C713.269 224.239 713.107 223.906 712.899 223.623C712.699 223.34 712.449 223.119 712.15 222.961C711.858 222.794 711.513 222.711 711.113 222.711C710.697 222.711 710.331 222.794 710.014 222.961C709.706 223.119 709.452 223.365 709.252 223.698C709.053 224.022 708.903 224.439 708.803 224.946C708.711 225.446 708.665 226.041 708.665 226.732ZM721.865 223.098V234H718.955V220.488H721.728L721.865 223.098ZM725.124 220.401L725.112 223.273C724.945 223.231 724.766 223.206 724.575 223.198C724.392 223.181 724.209 223.173 724.025 223.173C723.626 223.173 723.28 223.244 722.989 223.385C722.698 223.527 722.452 223.731 722.252 223.997C722.052 224.264 721.894 224.584 721.778 224.959C721.669 225.334 721.603 225.758 721.578 226.233L720.953 226.258C720.953 225.408 721.02 224.622 721.153 223.897C721.286 223.165 721.486 222.528 721.753 221.987C722.027 221.437 722.369 221.009 722.777 220.701C723.185 220.393 723.659 220.239 724.2 220.239C724.35 220.239 724.521 220.255 724.712 220.288C724.904 220.322 725.041 220.359 725.124 220.401ZM732.042 234.25C731.168 234.25 730.39 234.121 729.707 233.863C729.025 233.596 728.446 233.205 727.971 232.689C727.497 232.164 727.135 231.523 726.885 230.766C726.635 230 726.51 229.113 726.51 228.106V226.807C726.51 225.667 726.639 224.684 726.898 223.86C727.164 223.027 727.53 222.345 727.996 221.812C728.463 221.279 729.012 220.884 729.645 220.626C730.286 220.368 730.981 220.239 731.73 220.239C732.579 220.239 733.316 220.376 733.941 220.651C734.565 220.925 735.077 221.337 735.477 221.887C735.885 222.436 736.184 223.115 736.376 223.922C736.576 224.73 736.675 225.658 736.675 226.707V228.168H727.909V225.97H733.803V225.658C733.787 225.042 733.712 224.514 733.578 224.072C733.445 223.623 733.229 223.281 732.929 223.048C732.638 222.807 732.234 222.686 731.718 222.686C731.343 222.686 731.01 222.757 730.719 222.898C730.427 223.04 730.186 223.269 729.994 223.585C729.811 223.902 729.67 224.326 729.57 224.859C729.47 225.383 729.42 226.033 729.42 226.807V228.106C729.42 228.78 729.478 229.35 729.595 229.817C729.72 230.283 729.903 230.666 730.144 230.965C730.386 231.257 730.677 231.473 731.018 231.615C731.368 231.748 731.772 231.815 732.23 231.815C732.904 231.815 733.483 231.69 733.966 231.44C734.457 231.182 734.881 230.849 735.239 230.441L736.526 232.227C736.284 232.551 735.959 232.872 735.552 233.188C735.144 233.496 734.648 233.75 734.065 233.95C733.491 234.15 732.817 234.25 732.042 234.25ZM745.279 231.253V224.522C745.279 224.056 745.213 223.681 745.08 223.398C744.955 223.115 744.767 222.911 744.518 222.786C744.276 222.653 743.972 222.586 743.606 222.586C743.223 222.586 742.898 222.665 742.632 222.823C742.374 222.982 742.178 223.198 742.045 223.473C741.912 223.739 741.845 224.047 741.845 224.397H738.936C738.936 223.856 739.044 223.335 739.26 222.836C739.485 222.336 739.806 221.891 740.222 221.5C740.638 221.109 741.142 220.8 741.733 220.576C742.324 220.351 742.982 220.239 743.706 220.239C744.572 220.239 745.342 220.384 746.016 220.676C746.691 220.959 747.219 221.421 747.602 222.062C747.993 222.694 748.189 223.527 748.189 224.559V230.866C748.189 231.49 748.227 232.048 748.301 232.539C748.385 233.022 748.497 233.442 748.639 233.8V234H745.679C745.546 233.675 745.446 233.259 745.379 232.751C745.313 232.243 745.279 231.744 745.279 231.253ZM745.667 225.771L745.679 227.656H744.28C743.864 227.656 743.49 227.715 743.157 227.831C742.824 227.939 742.54 228.097 742.307 228.306C742.083 228.505 741.908 228.751 741.783 229.042C741.666 229.334 741.608 229.654 741.608 230.004C741.608 230.429 741.666 230.774 741.783 231.04C741.908 231.307 742.087 231.507 742.32 231.64C742.561 231.765 742.853 231.827 743.194 231.827C743.66 231.827 744.064 231.727 744.405 231.527C744.755 231.319 745.021 231.07 745.205 230.778C745.396 230.487 745.471 230.22 745.429 229.979L746.091 231.19C746.025 231.507 745.9 231.84 745.717 232.189C745.542 232.539 745.313 232.872 745.03 233.188C744.747 233.505 744.405 233.763 744.006 233.963C743.606 234.154 743.144 234.25 742.62 234.25C741.862 234.25 741.188 234.092 740.597 233.775C740.005 233.459 739.539 233.005 739.198 232.414C738.865 231.815 738.698 231.099 738.698 230.266C738.698 229.592 738.811 228.98 739.036 228.43C739.26 227.881 739.593 227.411 740.035 227.019C740.476 226.62 741.029 226.312 741.695 226.095C742.37 225.879 743.157 225.771 744.056 225.771H745.667ZM756.631 220.488V222.736H750V220.488H756.631ZM751.811 217.179H754.708V230.229C754.708 230.645 754.753 230.961 754.845 231.178C754.937 231.394 755.066 231.54 755.232 231.615C755.399 231.69 755.594 231.727 755.819 231.727C755.986 231.727 756.148 231.715 756.306 231.69C756.473 231.656 756.593 231.627 756.668 231.602V233.95C756.452 234.033 756.202 234.104 755.919 234.162C755.636 234.221 755.295 234.25 754.895 234.25C754.304 234.25 753.775 234.129 753.309 233.888C752.843 233.638 752.477 233.234 752.21 232.676C751.944 232.11 751.811 231.361 751.811 230.429V217.179ZM767.782 230.978L770.43 220.488H772.265L771.903 223.698L769.268 234H767.645L767.782 230.978ZM766.671 220.488L768.694 231.015L768.706 234H766.883L763.849 220.488H766.671ZM774.401 230.891L776.336 220.488H779.171L776.137 234H774.313L774.401 230.891ZM772.578 220.488L775.188 230.841L775.375 234H773.751L771.067 223.698L770.717 220.488H772.578ZM780.745 227.794V226.707C780.745 225.658 780.874 224.73 781.132 223.922C781.39 223.115 781.756 222.441 782.231 221.899C782.713 221.35 783.28 220.938 783.929 220.663C784.578 220.38 785.294 220.239 786.077 220.239C786.876 220.239 787.6 220.38 788.25 220.663C788.907 220.938 789.473 221.35 789.948 221.899C790.431 222.441 790.801 223.115 791.059 223.922C791.317 224.73 791.447 225.658 791.447 226.707V227.794C791.447 228.843 791.317 229.771 791.059 230.578C790.801 231.386 790.431 232.064 789.948 232.614C789.473 233.155 788.912 233.563 788.262 233.838C787.613 234.112 786.893 234.25 786.102 234.25C785.319 234.25 784.599 234.112 783.941 233.838C783.292 233.563 782.726 233.155 782.243 232.614C781.76 232.064 781.39 231.386 781.132 230.578C780.874 229.771 780.745 228.843 780.745 227.794ZM783.654 226.707V227.794C783.654 228.468 783.712 229.059 783.829 229.567C783.946 230.066 784.112 230.483 784.329 230.816C784.545 231.149 784.803 231.398 785.103 231.565C785.402 231.731 785.735 231.815 786.102 231.815C786.51 231.815 786.864 231.731 787.163 231.565C787.471 231.398 787.725 231.149 787.925 230.816C788.133 230.483 788.287 230.066 788.387 229.567C788.487 229.059 788.537 228.468 788.537 227.794V226.707C788.537 226.041 788.479 225.458 788.362 224.959C788.246 224.451 788.079 224.031 787.863 223.698C787.646 223.356 787.384 223.102 787.076 222.936C786.776 222.769 786.443 222.686 786.077 222.686C785.719 222.686 785.39 222.769 785.09 222.936C784.799 223.102 784.545 223.356 784.329 223.698C784.112 224.031 783.946 224.451 783.829 224.959C783.712 225.458 783.654 226.041 783.654 226.707ZM796.866 223.098V234H793.957V220.488H796.729L796.866 223.098ZM800.126 220.401L800.113 223.273C799.947 223.231 799.768 223.206 799.576 223.198C799.393 223.181 799.21 223.173 799.027 223.173C798.627 223.173 798.281 223.244 797.99 223.385C797.699 223.527 797.453 223.731 797.253 223.997C797.054 224.264 796.895 224.584 796.779 224.959C796.671 225.334 796.604 225.758 796.579 226.233L795.955 226.258C795.955 225.408 796.021 224.622 796.154 223.897C796.288 223.165 796.487 222.528 796.754 221.987C797.029 221.437 797.37 221.009 797.778 220.701C798.186 220.393 798.66 220.239 799.201 220.239C799.351 220.239 799.522 220.255 799.713 220.288C799.905 220.322 800.042 220.359 800.126 220.401ZM805.046 214.819V234H802.136V214.819H805.046ZM812.039 220.488L807.244 227.019L804.334 230.329L803.597 227.756L805.732 224.722L808.555 220.488H812.039ZM809.129 234L805.795 227.681L807.618 225.546L812.476 234H809.129ZM817.421 215.818L817.121 228.618H814.636L814.337 215.818H817.421ZM814.287 232.539C814.287 232.081 814.428 231.694 814.711 231.378C815.003 231.053 815.398 230.891 815.897 230.891C816.405 230.891 816.801 231.053 817.084 231.378C817.367 231.694 817.508 232.081 817.508 232.539C817.508 232.997 817.367 233.388 817.084 233.713C816.801 234.029 816.405 234.187 815.897 234.187C815.398 234.187 815.003 234.029 814.711 233.713C814.428 233.388 814.287 232.997 814.287 232.539Z" fill="white"/>
<path d="M693.884 132.031V123.165M693.884 114.299H693.906M716.048 123.165C716.048 135.406 706.125 145.33 693.884 145.33C681.642 145.33 671.719 135.406 671.719 123.165C671.719 110.924 681.642 101 693.884 101C706.125 101 716.048 110.924 716.048 123.165Z" stroke="white" stroke-width="5.96746" stroke-linecap="round" stroke-linejoin="round"/>
</g>
</svg>
