<svg width="36" height="33" viewBox="0 0 36 33" fill="none" xmlns="http://www.w3.org/2000/svg">
<path opacity="0.8" d="M35.4 4.74366C35.4 10.8437 35.4 16.8436 35.4 22.9436C35.4 23.0436 35.3 23.0437 35.3 23.1437C35.1 24.2437 34.6 25.2437 33.8 26.0437C32.8 27.0437 31.5 27.4436 30.1 27.4436C25.4 27.4436 20.8 27.4436 16.1 27.4436C15.8 27.4436 15.6 27.5437 15.4 27.6437C13.3 29.2437 11.2 30.9437 9 32.5437C8.8 32.6437 8.60002 32.8437 8.40002 32.8437C7.70002 33.0437 7.09998 32.4437 7.09998 31.6437C7.09998 30.3437 7.09998 29.0437 7.09998 27.7437C7.09998 27.6437 7.09998 27.5437 7.09998 27.3437C6.89998 27.3437 6.79998 27.3437 6.59998 27.3437C5.79998 27.3437 5.10005 27.3437 4.30005 27.2437C1.70005 26.8437 0 24.7437 0 22.2437C0 16.6437 0 11.0437 0 5.34367C0 5.24367 0 5.14364 0 4.94365C0.1 2.44365 2.19995 0.343663 4.69995 0.243663C6.49995 0.143663 8.29998 0.243663 10.1 0.243663C16.8 0.243663 23.4 0.243663 30 0.243663C32.2 0.243663 33.9 1.24366 34.8 3.24366C35.2001 3.74366 35.3 4.34366 35.4 4.74366Z" fill="#7060A0"/>
</svg>
