<svg width="28" height="26" viewBox="0 0 28 26" fill="none" xmlns="http://www.w3.org/2000/svg">
<path d="M27.2713 3.98389C27.2713 8.5968 27.2713 13.2097 27.2713 17.8226C27.2713 17.905 27.2714 17.905 27.189 17.9874C27.0242 18.8111 26.6947 19.5525 26.0357 20.2114C25.212 20.9528 24.3059 21.2823 23.235 21.2823C19.693 21.2823 16.1509 21.2823 12.6089 21.2823C12.4441 21.2823 12.2794 21.3647 12.1146 21.447C10.4672 22.6826 8.90209 23.9182 7.25462 25.1538C7.08988 25.2362 6.92513 25.3186 6.84276 25.401C6.26614 25.5657 5.85427 25.1539 5.85427 24.4949C5.85427 23.5064 5.85427 22.5179 5.85427 21.5294C5.85427 21.447 5.85427 21.3647 5.85427 21.1999C5.68952 21.1999 5.60713 21.1999 5.52475 21.1999C4.94814 21.1999 4.37155 21.1999 3.79493 21.1175C1.90035 20.788 0.582373 19.223 0.5 17.246C0.5 12.9626 0.5 8.6792 0.5 4.47816C0.5 4.39578 0.5 4.31337 0.5 4.231C0.582373 2.33641 2.14746 0.688954 4.04204 0.688954C5.44239 0.606581 6.76036 0.688954 8.16071 0.688954C13.1855 0.688954 18.2927 0.688954 23.3174 0.688954C24.9649 0.688954 26.2829 1.4303 27.0242 2.9954C27.1066 3.24252 27.189 3.65439 27.2713 3.98389Z" fill="white"/>
</svg>
