<svg width="34" height="31" viewBox="0 0 34 31" fill="none" xmlns="http://www.w3.org/2000/svg">
<path d="M33.1016 4.79757C33.1016 10.3976 33.1016 15.9976 33.1016 21.5976C33.1016 21.6976 33.1016 21.6976 33.0016 21.7976C32.8016 22.7976 32.4016 23.6976 31.6016 24.3976C30.6016 25.2976 29.5016 25.6976 28.2016 25.6976C23.9016 25.6976 19.6016 25.6976 15.3016 25.6976C15.1016 25.6976 14.9016 25.7976 14.7016 25.8976C12.7016 27.3976 10.8016 28.8976 8.80157 30.3976C8.60157 30.4976 8.40157 30.5976 8.30157 30.6976C7.60157 30.7976 7.10156 30.3976 7.10156 29.5976C7.10156 28.3976 7.10156 27.1976 7.10156 25.9976C7.10156 25.8976 7.10156 25.7976 7.10156 25.5976C6.90156 25.5976 6.8016 25.5976 6.7016 25.5976C6.0016 25.5976 5.30156 25.5976 4.60156 25.4976C2.30156 25.0976 0.701563 23.1976 0.601562 20.7976C0.601562 15.5976 0.601562 10.3976 0.601562 5.19757C0.601562 5.09757 0.601562 4.99757 0.601562 4.79757C0.701563 2.49757 2.60161 0.497569 4.90161 0.497569C6.60161 0.397569 8.20161 0.497569 9.90161 0.497569C16.0016 0.497569 22.2016 0.497569 28.3016 0.497569C30.3016 0.497569 31.9016 1.39757 32.8016 3.29757C32.9016 3.79757 33.0016 4.29757 33.1016 4.79757Z" fill="white"/>
</svg>
