<svg width="36" height="27" viewBox="0 0 36 27" fill="none" xmlns="http://www.w3.org/2000/svg">
<path opacity="0.8" d="M0 24.2C0 17.1 0 9.99999 0 2.79999C0 2.79999 9.76548e-05 2.69998 0.100098 2.69998C0.300098 1.09998 1.7 0 3.5 0C7.1 0 10.7 0 14.3 0C14.7 0 15.0001 0.0999939 15.2001 0.399994C16.0001 1.39999 16.8001 2.29998 17.6001 3.19998C17.8001 3.39998 18 3.5 18.3 3.5C22.9 3.5 27.4 3.5 32 3.5C33.9 3.5 35.3 4.79998 35.3 6.69998C35.3 12.4 35.3 18 35.3 23.7C35.3 24.8 34.9 25.6 34 26.3C33.3 26.8 32.6 26.9 31.8 26.9C25 26.9 18.2 26.9 11.4 26.9C8.80002 26.9 6.2 26.9 3.5 26.9C2.6 26.9 1.8001 26.7 1.1001 26C0.400098 25.6 0.2 25 0 24.2Z" fill="#7060A0"/>
</svg>
