<svg width="26" height="26" viewBox="0 0 26 26" fill="none" xmlns="http://www.w3.org/2000/svg">
<g opacity="0.5">
<path d="M9.1 0C9.6 0 10 0 10.4 0C10.5 0 10.5 0 10.6 0C11.1 0.1 11.6 0.100012 12 0.200012C18 1.70001 21.1 8.20001 18.4 13.7C16 18.7 9.8 20.7 5 18C4.9 17.9 4.7 17.9 4.6 18C3.2 18.4 1.8 18.8 0.4 19.2C0.3 19.2 0.199998 19.2 0.0999985 19.3C0.499998 17.8 0.899999 16.3 1.3 14.8C1.3 14.6 1.3 14.5 1.2 14.3C0.699999 13.5 0.399999 12.6 0.199999 11.7C0.0999989 11.2 0 10.7 0 10.2C0 9.70001 0 9.30002 0 8.90002C0 8.60002 0.0999985 8.20002 0.0999985 7.90002C0.699998 4.10002 3.7 0.899976 7.5 0.0999756C8.1 0.199976 8.6 0.1 9.1 0ZM10.5 11.9C10.5 11.6 10.5 11.3 10.5 11C10.5 10.9 10.6 10.8 10.7 10.7C11.1 10.3 11.5 9.99998 11.9 9.59998C13 8.49998 13.1 6.7 12 5.5C11 4.3 9.2 4.20001 8 5.20001C7.3 5.80001 6.9 6.6 6.9 7.5C7.4 7.5 7.9 7.5 8.4 7.5C8.4 7.4 8.4 7.39999 8.4 7.29999C8.5 6.59999 9.1 6.1 9.8 6C10.4 6 11 6.30002 11.2 6.90002C11.4 7.50002 11.3 8.09998 10.9 8.59998C10.4 9.09998 9.8 9.59998 9.3 10.1C9.2 10.2 9.1 10.2 9.1 10.3C9.1 10.9 9.1 11.5 9.1 12C9.5 11.9 10 11.9 10.5 11.9ZM10.5 13.4C10 13.4 9.5 13.4 9 13.4C9 13.9 9 14.4 9 14.9C9.5 14.9 10 14.9 10.5 14.9C10.5 14.4 10.5 13.9 10.5 13.4Z" fill="#685AAD"/>
<path d="M25.3984 17.8C25.3984 17.9 25.2984 17.9 25.2984 18C25.1984 19.2 24.7984 20.2 24.2984 21.2C24.2984 21.3 24.2984 21.4 24.2984 21.6C24.5984 22.8 24.9984 24 25.2984 25.2C25.2984 25.2 25.2984 25.3 25.2984 25.4C24.8984 25.3 24.4984 25.2 24.0984 25.1C23.2984 24.9 22.3984 24.6 21.5984 24.4C21.3984 24.4 21.2984 24.4 21.0984 24.5C17.0984 26.7 12.0984 25.2 9.99844 21.3C9.99844 21.2 9.89844 21.2 9.89844 21.1C12.8984 21 15.4984 19.9 17.5984 17.8C19.6984 15.7 20.7984 13.1 20.8984 10C21.3984 10.4 21.9984 10.7 22.3984 11.1C24.0984 12.5 25.0984 14.4 25.2984 16.6C25.2984 16.7 25.3984 16.7 25.3984 16.8C25.3984 17 25.3984 17.4 25.3984 17.8Z" fill="#685AAD"/>
</g>
</svg>
