<svg width="21" height="20" viewBox="0 0 21 20" fill="none" xmlns="http://www.w3.org/2000/svg">
<path opacity="0.5" d="M21 2.7809C21 6.51371 21 10.1853 21 13.9181C21 13.9793 20.9407 13.9793 20.9407 14.0405C20.822 14.7136 20.5254 15.3256 20.0509 15.8151C19.4576 16.427 18.6864 16.6718 17.8559 16.6718C15.0678 16.6718 12.339 16.6718 9.55083 16.6718C9.37286 16.6718 9.25425 16.733 9.1356 16.7942C7.88984 17.7733 6.64406 18.8136 5.33898 19.7927C5.22034 19.8539 5.10171 19.9763 4.98306 19.9763C4.56781 20.0987 4.21185 19.7315 4.21185 19.242C4.21185 18.4464 4.21185 17.6509 4.21185 16.8554C4.21185 16.7942 4.21185 16.733 4.21185 16.6106C4.0932 16.6106 4.03388 16.6106 3.91524 16.6106C3.44066 16.6106 3.02545 16.6106 2.55087 16.5494C1.0085 16.3047 0 15.0196 0 13.4898C0 10.0629 0 6.6361 0 3.14807C0 3.08688 0 3.02567 0 2.90328C0.059322 1.37344 1.30505 0.0883906 2.7881 0.0271971C3.8559 -0.0339964 4.92371 0.0271971 5.99151 0.0271971C9.96608 0.0271971 13.8813 0.0271971 17.7966 0.0271971C19.1017 0.0271971 20.1102 0.639132 20.6441 1.863C20.8814 2.16897 20.9407 2.53613 21 2.7809Z" fill="#685AAD"/>
</svg>
