<svg width="70" height="79" viewBox="0 0 70 79" fill="none" xmlns="http://www.w3.org/2000/svg">
<path d="M5.01169 78.7895C4.2837 78.4965 3.50242 78.2835 2.83657 77.8839C0.679223 76.5966 -0.332889 74.0487 0.261936 71.5806C0.830127 69.2279 2.89873 67.4523 5.34017 67.2304C5.77519 67.1949 6.21019 67.186 6.64521 67.186C26.9492 67.186 47.2443 67.186 67.5482 67.186C67.9034 67.186 68.2673 67.1771 68.6224 67.2393C69.1995 67.3458 69.5191 67.7453 69.528 68.3135C69.5369 68.8905 69.2351 69.2812 68.6669 69.4321C68.4449 69.4942 68.2141 69.4943 67.9833 69.5298C66.1455 69.7784 64.8848 71.2255 64.9115 73.0543C64.9381 74.8477 66.2965 76.3214 68.1164 76.4635C68.7645 76.5168 69.2883 76.6588 69.4925 77.3335C69.6967 78.0171 69.2706 78.4344 68.7734 78.7895C47.5284 78.7895 26.2656 78.7895 5.01169 78.7895Z" fill="white"/>
<path d="M69.5449 62.5679C50.7059 62.5679 31.9733 62.5679 13.1875 62.5679C13.1875 41.7402 13.1875 20.9835 13.1875 0.111328C13.4361 0.111328 13.7024 0.111328 13.9776 0.111328C30.3131 0.111328 46.6486 0.111328 62.9841 0.111328C66.9259 0.111328 69.5449 2.71257 69.5449 6.64551C69.5449 25.0585 69.5449 43.4714 69.5449 61.8754C69.5449 62.1063 69.5449 62.3282 69.5449 62.5679ZM51.4427 22.0222C51.4427 22.3152 51.425 22.5637 51.4427 22.8123C51.5404 24.1351 52.5347 25.0673 53.8043 25.0496C55.0738 25.0229 56.0326 24.0552 56.0326 22.7058C56.0415 17.6098 56.0415 12.5139 56.0326 7.41789C56.0326 6.09507 55.0383 5.10073 53.7776 5.07409C52.5791 5.04746 51.5581 6.00626 51.4338 7.27582C51.4072 7.54216 51.3983 7.8174 51.3895 8.08374C44.6333 8.08374 37.9482 8.08374 31.2631 8.08374C31.2187 7.66648 31.2187 7.30246 31.1477 6.95622C30.9701 6.05067 30.4196 5.44697 29.5319 5.18951C27.9604 4.72786 26.6198 5.86424 26.6198 7.68422C26.611 12.6026 26.6198 17.5121 26.6198 22.4305C26.6198 22.5815 26.6199 22.7413 26.6287 22.8922C26.7264 24.1085 27.632 25.0141 28.8127 25.0585C30.0468 25.1028 31.0233 24.2772 31.192 23.0254C31.2364 22.7058 31.2542 22.3773 31.2897 22.0488C33.9264 22.0488 36.5011 22.0488 39.1467 22.0488C39.1467 22.3684 39.1467 22.6525 39.1467 22.9277C39.1467 26.9938 39.1467 31.0688 39.1467 35.1349C39.1467 35.3391 39.1378 35.5433 39.1467 35.7475C39.2089 37.0881 40.2565 38.1091 41.5171 38.0736C42.7778 38.038 43.7455 37.0526 43.7455 35.712C43.7633 31.4595 43.7544 27.2158 43.7544 22.9633C43.7544 22.6703 43.7544 22.3684 43.7544 22.0399C46.3557 22.0222 48.8592 22.0222 51.4427 22.0222ZM29.23 52.6601C28.8127 52.6601 28.4221 52.6335 28.0492 52.669C26.9661 52.7755 26.1138 53.6367 26.0073 54.7287C25.9007 55.7851 26.5311 56.7795 27.5521 57.108C27.8628 57.2056 28.2001 57.25 28.5286 57.25C37.0781 57.2589 45.6277 57.2589 54.1772 57.2589C54.3014 57.2589 54.4346 57.2589 54.5589 57.25C55.8196 57.1257 56.7163 56.1048 56.6719 54.853C56.6275 53.6456 55.6953 52.7134 54.4524 52.6512C54.1239 52.6335 53.7954 52.6512 53.4758 52.6512C51.7623 45.2648 45.3613 42.3883 40.7093 42.6635C35.7642 42.9654 30.6416 46.3568 29.23 52.6601Z" fill="white"/>
<path d="M8.4735 62.568C5.5704 62.488 2.71169 62.5236 0.101562 64.3613C0.101562 63.9441 0.101562 63.7043 0.101562 63.4646C0.101562 44.5456 0.101562 25.6355 0.101562 6.71655C0.101562 2.69482 2.69397 0.120206 6.74233 0.111328C7.30165 0.111328 7.86092 0.111328 8.4735 0.111328C8.4735 20.9302 8.4735 41.6958 8.4735 62.568Z" fill="white"/>
<path d="M31.2812 12.791C38.0108 12.791 44.6782 12.791 51.3899 12.791C51.3899 14.3003 51.3899 15.774 51.3899 17.3099C44.7048 17.3099 38.0196 17.3099 31.2812 17.3099C31.2812 15.8273 31.2812 14.3535 31.2812 12.791Z" fill="white"/>
<path d="M34.125 52.5987C34.6222 49.8554 37.8804 47.3695 41.041 47.2896C44.53 47.2008 47.8237 49.5091 48.5606 52.5987C43.7487 52.5987 38.9369 52.5987 34.125 52.5987Z" fill="white"/>
</svg>
