<svg width="79" height="90" viewBox="0 0 79 90" fill="none" xmlns="http://www.w3.org/2000/svg">
<path d="M6.06975 89.2697C5.24975 88.9397 4.36974 88.6997 3.61974 88.2497C1.18974 86.7997 0.0497152 83.9297 0.719715 81.1497C1.35972 78.4997 3.68975 76.4997 6.43975 76.2497C6.92975 76.2097 7.41972 76.1997 7.90972 76.1997C30.7797 76.1997 53.6398 76.1997 76.5098 76.1997C76.9098 76.1997 77.3197 76.1897 77.7197 76.2597C78.3697 76.3797 78.7297 76.8297 78.7397 77.4697C78.7497 78.1197 78.4098 78.5597 77.7698 78.7297C77.5198 78.7997 77.2598 78.7997 76.9997 78.8397C74.9297 79.1197 73.5097 80.7497 73.5397 82.8097C73.5697 84.8297 75.0998 86.4897 77.1498 86.6497C77.8798 86.7097 78.4698 86.8697 78.6998 87.6297C78.9298 88.3997 78.4498 88.8697 77.8898 89.2697C53.9598 89.2697 30.0098 89.2697 6.06975 89.2697Z" fill="#473171"/>
<path d="M78.7593 70.9984C57.5393 70.9984 36.4393 70.9984 15.2793 70.9984C15.2793 47.5384 15.2793 24.1584 15.2793 0.648438C15.5593 0.648438 15.8593 0.648438 16.1693 0.648438C34.5693 0.648438 52.9693 0.648438 71.3693 0.648438C75.8093 0.648438 78.7593 3.57842 78.7593 8.00842C78.7593 28.7484 78.7593 49.4884 78.7593 70.2184C78.7593 70.4784 78.7593 70.7284 78.7593 70.9984ZM58.3693 25.3284C58.3693 25.6584 58.3493 25.9384 58.3693 26.2184C58.4793 27.7084 59.5993 28.7584 61.0293 28.7384C62.4593 28.7084 63.5392 27.6184 63.5392 26.0984C63.5492 20.3584 63.5492 14.6184 63.5392 8.87842C63.5392 7.38842 62.4193 6.2684 60.9993 6.2384C59.6493 6.2084 58.4993 7.28838 58.3593 8.71838C58.3293 9.01838 58.3193 9.32842 58.3093 9.62842C50.6993 9.62842 43.1693 9.62842 35.6393 9.62842C35.5893 9.15842 35.5893 8.7484 35.5093 8.3584C35.3093 7.3384 34.6893 6.65841 33.6893 6.36841C31.9193 5.84841 30.4092 7.12841 30.4092 9.17841C30.3992 14.7184 30.4092 20.2484 30.4092 25.7884C30.4092 25.9584 30.4093 26.1384 30.4193 26.3084C30.5293 27.6784 31.5493 28.6984 32.8793 28.7484C34.2693 28.7984 35.3693 27.8684 35.5593 26.4584C35.6093 26.0984 35.6292 25.7284 35.6693 25.3584C38.6392 25.3584 41.5393 25.3584 44.5193 25.3584C44.5193 25.7184 44.5193 26.0384 44.5193 26.3484C44.5193 30.9284 44.5193 35.5184 44.5193 40.0984C44.5193 40.3284 44.5093 40.5584 44.5193 40.7884C44.5893 42.2984 45.7693 43.4484 47.1893 43.4084C48.6093 43.3684 49.6993 42.2584 49.6993 40.7484C49.7193 35.9584 49.7093 31.1784 49.7093 26.3884C49.7093 26.0584 49.7093 25.7184 49.7093 25.3484C52.6393 25.3284 55.4593 25.3284 58.3693 25.3284ZM33.3492 59.8384C32.8792 59.8384 32.4393 59.8084 32.0193 59.8484C30.7993 59.9684 29.8392 60.9384 29.7192 62.1684C29.5992 63.3584 30.3093 64.4784 31.4593 64.8484C31.8093 64.9584 32.1893 65.0084 32.5593 65.0084C42.1893 65.0184 51.8193 65.0184 61.4493 65.0184C61.5893 65.0184 61.7393 65.0184 61.8793 65.0084C63.2993 64.8684 64.3093 63.7184 64.2593 62.3084C64.2093 60.9484 63.1593 59.8984 61.7593 59.8284C61.3893 59.8084 61.0192 59.8284 60.6592 59.8284C58.7292 51.5084 51.5193 48.2684 46.2793 48.5784C40.7093 48.9184 34.9392 52.7384 33.3492 59.8384Z" fill="#473171"/>
<path d="M9.97003 70.9984C6.70003 70.9084 3.48004 70.9484 0.540039 73.0184C0.540039 72.5484 0.540039 72.2784 0.540039 72.0084C0.540039 50.6984 0.540039 29.3984 0.540039 8.08844C0.540039 3.55844 3.46008 0.658437 8.02008 0.648438C8.65008 0.648438 9.28003 0.648438 9.97003 0.648438C9.97003 24.0984 9.97003 47.4884 9.97003 70.9984Z" fill="#473171"/>
<path d="M35.6602 14.9297C43.2402 14.9297 50.7502 14.9297 58.3102 14.9297C58.3102 16.6297 58.3102 18.2897 58.3102 20.0197C50.7802 20.0197 43.2502 20.0197 35.6602 20.0197C35.6602 18.3497 35.6602 16.6897 35.6602 14.9297Z" fill="#473171"/>
<path d="M38.8594 59.768C39.4194 56.678 43.0894 53.8779 46.6494 53.7879C50.5794 53.6879 54.2894 56.288 55.1194 59.768C49.6994 59.768 44.2794 59.768 38.8594 59.768Z" fill="#473171"/>
</svg>
