<svg width="29" height="29" viewBox="0 0 29 29" fill="none" xmlns="http://www.w3.org/2000/svg">
<path d="M14.5 1C21.9586 1 28 7.04144 28 14.5C28 16.8122 27.4033 19.1243 26.2845 21.2127L26.732 27.5525L19.721 27.0304C18.0801 27.7017 16.2901 28 14.5 28C7.04144 28 1 21.9586 1 14.5C1 7.04144 7.04144 1 14.5 1ZM14.5 2.79006C8.01105 2.79006 2.79006 8.01105 2.79006 14.5C2.79006 20.989 8.01105 26.2845 14.5 26.2845C16.2901 26.2845 17.7818 25.9116 19.4227 25.1657L24.8674 25.6133L24.4945 20.7652C25.6133 18.826 26.2845 16.8122 26.2845 14.5C26.2845 8.01105 20.989 2.79006 14.5 2.79006Z" fill="#A296CC" stroke="#A296CC"/>
<path fill-rule="evenodd" clip-rule="evenodd" d="M9.46809 13C10.2979 13 11 13.6383 11 14.4681C11 15.2979 10.2979 16 9.46809 16C8.6383 16 8 15.2979 8 14.4681C8 13.6383 8.6383 13 9.46809 13Z" fill="#A296CC" stroke="#A296CC"/>
<path fill-rule="evenodd" clip-rule="evenodd" d="M14.4681 13C15.2979 13 16 13.6383 16 14.4681C16 15.2979 15.2979 16 14.4681 16C13.6383 16 13 15.2979 13 14.4681C13 13.6383 13.6383 13 14.4681 13Z" fill="#A296CC" stroke="#A296CC"/>
<path fill-rule="evenodd" clip-rule="evenodd" d="M19.4681 13C20.2979 13 21 13.6383 21 14.4681C21 15.2979 20.2979 16 19.4681 16C18.6383 16 18 15.2979 18 14.4681C18 13.6383 18.6383 13 19.4681 13Z" fill="#A296CC" stroke="#A296CC"/>
</svg>
