<svg width="26" height="26" viewBox="0 0 26 26" fill="none" xmlns="http://www.w3.org/2000/svg">
<g opacity="0.5">
<path d="M8.80078 25.3996C8.40078 25.1996 8.30078 24.8996 8.30078 24.3996C8.30078 23.0996 8.60078 21.9996 9.40078 20.9996C9.60078 20.6996 9.90078 20.4996 10.1008 20.2996C10.2008 20.1996 10.3008 20.1996 10.5008 20.2996C11.3008 20.7996 12.1008 20.9996 13.0008 20.8996C13.8008 20.8996 14.5008 20.6996 15.1008 20.2996C15.3008 20.1996 15.4008 20.1996 15.5008 20.2996C16.7008 21.1996 17.3008 22.3996 17.3008 23.8996C17.3008 24.0996 17.3008 24.1996 17.3008 24.3996C17.3008 24.8996 17.2008 25.1996 16.8008 25.3996C14.1008 25.3996 11.4008 25.3996 8.80078 25.3996Z" fill="#685AAD"/>
<path d="M0.1 24.3996C0.2 23.9996 0.3 23.5996 0.5 23.1996C0.7 22.6996 1.1 22.1996 1.5 21.7996C1.6 21.6996 1.7 21.6996 1.8 21.7996C3.1 22.5996 4.5 22.5996 5.8 21.7996C5.9 21.6996 6 21.6996 6.1 21.7996C6.2 21.8996 6.2 21.8996 6.3 21.9996C6.7 22.2996 6.9 22.6996 6.8 23.1996C6.7 23.8996 6.7 24.6996 6.7 25.3996C4.5 25.3996 2.2 25.3996 0 25.3996C0.1 24.9996 0.1 24.6996 0.1 24.3996Z" fill="#685AAD"/>
<path d="M18.7992 25.3996C18.7992 24.4996 18.6992 23.5996 18.6992 22.6996C18.6992 22.5996 18.6992 22.5996 18.7992 22.4996C18.9992 22.2996 19.1992 22.0996 19.3992 21.7996C19.4992 21.6996 19.6992 21.6996 19.7992 21.7996C20.3992 22.1996 21.1992 22.3996 21.8992 22.3996C22.5992 22.3996 23.1992 22.1996 23.6992 21.7996C23.8992 21.6996 23.8992 21.6996 24.0992 21.7996C24.9992 22.5996 25.3992 23.5996 25.3992 24.6996C25.3992 24.9996 25.2992 25.1996 24.9992 25.2996C22.9992 25.3996 20.8992 25.3996 18.7992 25.3996Z" fill="#685AAD"/>
<path d="M12.8 10.5C9.9 10.5 7.5 8.09999 7.5 5.29999C7.5 2.49999 9.9 0 12.8 0C15.7 0 18 2.40001 18 5.20001C18 8.10001 15.7 10.5 12.8 10.5ZM13.5 4.5C13.5 4.4 13.5 4.4 13.5 4.5C13.5 4 13.5 3.50001 13.5 3.10001C13.5 2.60001 13.2 2.29999 12.7 2.29999C12.3 2.29999 12 2.60001 12 3.10001C12 3.80001 12 4.50001 12 5.20001C12 5.70001 12.3 6 12.8 6C13.5 6 14.2 6 14.9 6C15.4 6 15.7 5.70001 15.7 5.20001C15.7 4.80001 15.4 4.5 14.9 4.5C14.5 4.5 14 4.5 13.5 4.5Z" fill="#685AAD"/>
<path d="M12.8008 19.4004C11.1008 19.4004 9.80078 18.0004 9.80078 16.4004C9.80078 14.8004 11.2008 13.4004 12.8008 13.4004C14.4008 13.4004 15.8008 14.8004 15.8008 16.4004C15.8008 18.1004 14.4008 19.4004 12.8008 19.4004Z" fill="#685AAD"/>
<path d="M3.80156 16.4004C5.00156 16.4004 6.00156 17.4004 6.00156 18.6004C6.00156 19.8004 5.00156 20.8004 3.80156 20.8004C2.60156 20.8004 1.60156 19.8004 1.60156 18.6004C1.60156 17.4004 2.60156 16.4004 3.80156 16.4004Z" fill="#685AAD"/>
<path d="M24.0016 18.6004C24.0016 19.8004 23.0016 20.8004 21.8016 20.8004C20.6016 20.8004 19.6016 19.8004 19.6016 18.6004C19.6016 17.4004 20.6016 16.4004 21.8016 16.4004C22.9016 16.4004 24.0016 17.4004 24.0016 18.6004Z" fill="#685AAD"/>
</g>
</svg>
