<svg width="1398" height="333" viewBox="0 0 1398 333" fill="none" xmlns="http://www.w3.org/2000/svg">
<rect width="1398" height="333" rx="30.9237" fill="#A296CC"/>
<g opacity="0.6">
<path d="M581.042 189.818V208H578.069L571.651 195.412V208H568.716V189.818H571.651L578.119 202.493V189.818H581.042ZM583.814 201.794V200.707C583.814 199.658 583.943 198.73 584.201 197.922C584.459 197.115 584.825 196.441 585.3 195.899C585.783 195.35 586.349 194.938 586.998 194.663C587.648 194.38 588.364 194.239 589.146 194.239C589.945 194.239 590.67 194.38 591.319 194.663C591.977 194.938 592.543 195.35 593.017 195.899C593.5 196.441 593.871 197.115 594.129 197.922C594.387 198.73 594.516 199.658 594.516 200.707V201.794C594.516 202.843 594.387 203.771 594.129 204.578C593.871 205.386 593.5 206.064 593.017 206.614C592.543 207.155 591.981 207.563 591.331 207.838C590.682 208.112 589.962 208.25 589.171 208.25C588.388 208.25 587.668 208.112 587.011 207.838C586.361 207.563 585.795 207.155 585.312 206.614C584.829 206.064 584.459 205.386 584.201 204.578C583.943 203.771 583.814 202.843 583.814 201.794ZM586.723 200.707V201.794C586.723 202.468 586.782 203.059 586.898 203.567C587.015 204.066 587.181 204.483 587.398 204.816C587.614 205.149 587.872 205.398 588.172 205.565C588.472 205.731 588.805 205.815 589.171 205.815C589.579 205.815 589.933 205.731 590.233 205.565C590.541 205.398 590.794 205.149 590.994 204.816C591.202 204.483 591.356 204.066 591.456 203.567C591.556 203.059 591.606 202.468 591.606 201.794V200.707C591.606 200.041 591.548 199.458 591.431 198.959C591.315 198.451 591.148 198.031 590.932 197.698C590.715 197.356 590.453 197.102 590.145 196.936C589.845 196.769 589.512 196.686 589.146 196.686C588.788 196.686 588.459 196.769 588.16 196.936C587.868 197.102 587.614 197.356 587.398 197.698C587.181 198.031 587.015 198.451 586.898 198.959C586.782 199.458 586.723 200.041 586.723 200.707ZM609.176 204.441C609.176 204.158 609.093 203.908 608.927 203.692C608.768 203.467 608.51 203.246 608.152 203.03C607.794 202.813 607.316 202.58 606.716 202.331C606.092 202.072 605.538 201.814 605.055 201.556C604.573 201.298 604.165 201.015 603.832 200.707C603.499 200.391 603.245 200.029 603.07 199.621C602.895 199.213 602.808 198.738 602.808 198.197C602.808 197.639 602.912 197.123 603.12 196.649C603.328 196.174 603.628 195.758 604.019 195.4C604.41 195.034 604.881 194.751 605.43 194.551C605.98 194.343 606.6 194.239 607.291 194.239C608.265 194.239 609.097 194.418 609.788 194.776C610.488 195.125 611.02 195.616 611.387 196.249C611.761 196.873 611.949 197.594 611.949 198.409H609.039C609.039 198.068 608.977 197.76 608.852 197.485C608.727 197.202 608.535 196.978 608.277 196.811C608.019 196.636 607.69 196.549 607.291 196.549C606.924 196.549 606.616 196.62 606.367 196.761C606.125 196.894 605.942 197.077 605.817 197.311C605.701 197.535 605.642 197.789 605.642 198.072C605.642 198.28 605.68 198.464 605.755 198.622C605.83 198.78 605.955 198.934 606.129 199.084C606.304 199.225 606.537 199.371 606.829 199.521C607.128 199.671 607.507 199.841 607.965 200.033C608.873 200.382 609.626 200.745 610.225 201.119C610.825 201.494 611.274 201.931 611.574 202.43C611.874 202.93 612.024 203.55 612.024 204.291C612.024 204.891 611.911 205.432 611.686 205.915C611.47 206.397 611.154 206.814 610.737 207.163C610.329 207.513 609.834 207.784 609.251 207.975C608.677 208.158 608.036 208.25 607.328 208.25C606.271 208.25 605.376 208.042 604.643 207.625C603.919 207.201 603.37 206.655 602.995 205.989C602.62 205.323 602.433 204.62 602.433 203.879H605.243C605.268 204.412 605.38 204.828 605.58 205.128C605.788 205.428 606.05 205.636 606.367 205.752C606.683 205.86 607.012 205.915 607.353 205.915C607.761 205.915 608.098 205.86 608.365 205.752C608.631 205.636 608.831 205.465 608.964 205.24C609.106 205.015 609.176 204.749 609.176 204.441ZM619.728 208.25C618.854 208.25 618.076 208.121 617.393 207.863C616.711 207.596 616.132 207.205 615.658 206.689C615.183 206.164 614.821 205.523 614.571 204.766C614.321 204 614.196 203.113 614.196 202.106V200.807C614.196 199.667 614.325 198.684 614.584 197.86C614.85 197.027 615.216 196.345 615.682 195.812C616.149 195.279 616.698 194.884 617.331 194.626C617.972 194.368 618.667 194.239 619.416 194.239C620.265 194.239 621.002 194.376 621.627 194.651C622.251 194.925 622.763 195.337 623.163 195.887C623.571 196.436 623.87 197.115 624.062 197.922C624.262 198.73 624.361 199.658 624.361 200.707V202.168H615.595V199.97H621.489V199.658C621.473 199.042 621.398 198.514 621.264 198.072C621.131 197.623 620.915 197.281 620.615 197.048C620.324 196.807 619.92 196.686 619.404 196.686C619.029 196.686 618.696 196.757 618.405 196.898C618.113 197.04 617.872 197.269 617.681 197.585C617.497 197.902 617.356 198.326 617.256 198.859C617.156 199.383 617.106 200.033 617.106 200.807V202.106C617.106 202.78 617.164 203.35 617.281 203.817C617.406 204.283 617.589 204.666 617.83 204.965C618.072 205.257 618.363 205.473 618.705 205.615C619.054 205.748 619.458 205.815 619.916 205.815C620.59 205.815 621.169 205.69 621.652 205.44C622.143 205.182 622.567 204.849 622.925 204.441L624.212 206.227C623.97 206.551 623.645 206.872 623.238 207.188C622.83 207.496 622.334 207.75 621.752 207.95C621.177 208.15 620.503 208.25 619.728 208.25ZM632.953 204.441C632.953 204.158 632.87 203.908 632.703 203.692C632.545 203.467 632.287 203.246 631.929 203.03C631.571 202.813 631.092 202.58 630.493 202.331C629.869 202.072 629.315 201.814 628.832 201.556C628.349 201.298 627.941 201.015 627.608 200.707C627.275 200.391 627.021 200.029 626.846 199.621C626.672 199.213 626.584 198.738 626.584 198.197C626.584 197.639 626.688 197.123 626.896 196.649C627.105 196.174 627.404 195.758 627.796 195.4C628.187 195.034 628.657 194.751 629.207 194.551C629.756 194.343 630.376 194.239 631.067 194.239C632.041 194.239 632.874 194.418 633.565 194.776C634.264 195.125 634.797 195.616 635.163 196.249C635.538 196.873 635.725 197.594 635.725 198.409H632.816C632.816 198.068 632.753 197.76 632.628 197.485C632.503 197.202 632.312 196.978 632.054 196.811C631.796 196.636 631.467 196.549 631.067 196.549C630.701 196.549 630.393 196.62 630.143 196.761C629.902 196.894 629.719 197.077 629.594 197.311C629.477 197.535 629.419 197.789 629.419 198.072C629.419 198.28 629.456 198.464 629.531 198.622C629.606 198.78 629.731 198.934 629.906 199.084C630.081 199.225 630.314 199.371 630.605 199.521C630.905 199.671 631.284 199.841 631.742 200.033C632.649 200.382 633.403 200.745 634.002 201.119C634.601 201.494 635.051 201.931 635.351 202.43C635.65 202.93 635.8 203.55 635.8 204.291C635.8 204.891 635.688 205.432 635.463 205.915C635.247 206.397 634.93 206.814 634.514 207.163C634.106 207.513 633.611 207.784 633.028 207.975C632.453 208.158 631.812 208.25 631.105 208.25C630.047 208.25 629.153 208.042 628.42 207.625C627.696 207.201 627.146 206.655 626.772 205.989C626.397 205.323 626.21 204.62 626.21 203.879H629.019C629.044 204.412 629.157 204.828 629.357 205.128C629.565 205.428 629.827 205.636 630.143 205.752C630.46 205.86 630.788 205.915 631.13 205.915C631.538 205.915 631.875 205.86 632.141 205.752C632.408 205.636 632.607 205.465 632.741 205.24C632.882 205.015 632.953 204.749 632.953 204.441ZM644.592 204.441C644.592 204.158 644.508 203.908 644.342 203.692C644.184 203.467 643.926 203.246 643.568 203.03C643.21 202.813 642.731 202.58 642.131 202.331C641.507 202.072 640.953 201.814 640.471 201.556C639.988 201.298 639.58 201.015 639.247 200.707C638.914 200.391 638.66 200.029 638.485 199.621C638.31 199.213 638.223 198.738 638.223 198.197C638.223 197.639 638.327 197.123 638.535 196.649C638.743 196.174 639.043 195.758 639.434 195.4C639.825 195.034 640.296 194.751 640.845 194.551C641.395 194.343 642.015 194.239 642.706 194.239C643.68 194.239 644.512 194.418 645.203 194.776C645.903 195.125 646.436 195.616 646.802 196.249C647.176 196.873 647.364 197.594 647.364 198.409H644.454C644.454 198.068 644.392 197.76 644.267 197.485C644.142 197.202 643.95 196.978 643.692 196.811C643.434 196.636 643.105 196.549 642.706 196.549C642.34 196.549 642.032 196.62 641.782 196.761C641.54 196.894 641.357 197.077 641.232 197.311C641.116 197.535 641.057 197.789 641.057 198.072C641.057 198.28 641.095 198.464 641.17 198.622C641.245 198.78 641.37 198.934 641.545 199.084C641.719 199.225 641.952 199.371 642.244 199.521C642.544 199.671 642.922 199.841 643.38 200.033C644.288 200.382 645.041 200.745 645.64 201.119C646.24 201.494 646.689 201.931 646.989 202.43C647.289 202.93 647.439 203.55 647.439 204.291C647.439 204.891 647.326 205.432 647.102 205.915C646.885 206.397 646.569 206.814 646.152 207.163C645.745 207.513 645.249 207.784 644.666 207.975C644.092 208.158 643.451 208.25 642.743 208.25C641.686 208.25 640.791 208.042 640.058 207.625C639.334 207.201 638.785 206.655 638.41 205.989C638.035 205.323 637.848 204.62 637.848 203.879H640.658C640.683 204.412 640.795 204.828 640.995 205.128C641.203 205.428 641.465 205.636 641.782 205.752C642.098 205.86 642.427 205.915 642.768 205.915C643.176 205.915 643.513 205.86 643.78 205.752C644.046 205.636 644.246 205.465 644.379 205.24C644.521 205.015 644.592 204.749 644.592 204.441ZM653.058 194.488V208H650.149V194.488H653.058ZM649.999 190.942C649.999 190.476 650.14 190.088 650.423 189.78C650.706 189.472 651.102 189.318 651.61 189.318C652.117 189.318 652.513 189.472 652.796 189.78C653.079 190.088 653.221 190.476 653.221 190.942C653.221 191.4 653.079 191.783 652.796 192.091C652.513 192.399 652.117 192.553 651.61 192.553C651.102 192.553 650.706 192.399 650.423 192.091C650.14 191.783 649.999 191.4 649.999 190.942ZM655.743 201.794V200.707C655.743 199.658 655.872 198.73 656.13 197.922C656.388 197.115 656.755 196.441 657.229 195.899C657.712 195.35 658.278 194.938 658.927 194.663C659.577 194.38 660.293 194.239 661.075 194.239C661.875 194.239 662.599 194.38 663.248 194.663C663.906 194.938 664.472 195.35 664.946 195.899C665.429 196.441 665.8 197.115 666.058 197.922C666.316 198.73 666.445 199.658 666.445 200.707V201.794C666.445 202.843 666.316 203.771 666.058 204.578C665.8 205.386 665.429 206.064 664.946 206.614C664.472 207.155 663.91 207.563 663.261 207.838C662.611 208.112 661.891 208.25 661.1 208.25C660.318 208.25 659.598 208.112 658.94 207.838C658.291 207.563 657.724 207.155 657.242 206.614C656.759 206.064 656.388 205.386 656.13 204.578C655.872 203.771 655.743 202.843 655.743 201.794ZM658.653 200.707V201.794C658.653 202.468 658.711 203.059 658.828 203.567C658.944 204.066 659.111 204.483 659.327 204.816C659.543 205.149 659.802 205.398 660.101 205.565C660.401 205.731 660.734 205.815 661.1 205.815C661.508 205.815 661.862 205.731 662.162 205.565C662.47 205.398 662.724 205.149 662.923 204.816C663.132 204.483 663.286 204.066 663.386 203.567C663.485 203.059 663.535 202.468 663.535 201.794V200.707C663.535 200.041 663.477 199.458 663.361 198.959C663.244 198.451 663.078 198.031 662.861 197.698C662.645 197.356 662.382 197.102 662.074 196.936C661.775 196.769 661.442 196.686 661.075 196.686C660.717 196.686 660.388 196.769 660.089 196.936C659.797 197.102 659.543 197.356 659.327 197.698C659.111 198.031 658.944 198.451 658.828 198.959C658.711 199.458 658.653 200.041 658.653 200.707ZM671.827 197.373V208H668.918V194.488H671.652L671.827 197.373ZM671.303 200.757H670.379C670.37 199.783 670.474 198.896 670.691 198.097C670.907 197.298 671.215 196.611 671.615 196.037C672.015 195.462 672.493 195.021 673.051 194.713C673.617 194.397 674.246 194.239 674.937 194.239C675.478 194.239 675.969 194.33 676.41 194.513C676.86 194.688 677.243 194.975 677.559 195.375C677.875 195.775 678.117 196.295 678.283 196.936C678.458 197.577 678.546 198.359 678.546 199.284V208H675.636V199.259C675.636 198.626 675.565 198.126 675.424 197.76C675.29 197.385 675.091 197.119 674.824 196.961C674.558 196.794 674.221 196.711 673.813 196.711C673.438 196.711 673.093 196.819 672.776 197.036C672.468 197.244 672.202 197.535 671.977 197.91C671.761 198.276 671.594 198.705 671.478 199.196C671.361 199.679 671.303 200.199 671.303 200.757ZM687.724 204.441C687.724 204.158 687.641 203.908 687.474 203.692C687.316 203.467 687.058 203.246 686.7 203.03C686.342 202.813 685.863 202.58 685.264 202.331C684.64 202.072 684.086 201.814 683.603 201.556C683.12 201.298 682.712 201.015 682.379 200.707C682.046 200.391 681.792 200.029 681.618 199.621C681.443 199.213 681.355 198.738 681.355 198.197C681.355 197.639 681.459 197.123 681.668 196.649C681.876 196.174 682.175 195.758 682.567 195.4C682.958 195.034 683.428 194.751 683.978 194.551C684.527 194.343 685.147 194.239 685.838 194.239C686.812 194.239 687.645 194.418 688.336 194.776C689.035 195.125 689.568 195.616 689.934 196.249C690.309 196.873 690.496 197.594 690.496 198.409H687.587C687.587 198.068 687.524 197.76 687.399 197.485C687.275 197.202 687.083 196.978 686.825 196.811C686.567 196.636 686.238 196.549 685.838 196.549C685.472 196.549 685.164 196.62 684.914 196.761C684.673 196.894 684.49 197.077 684.365 197.311C684.248 197.535 684.19 197.789 684.19 198.072C684.19 198.28 684.228 198.464 684.302 198.622C684.377 198.78 684.502 198.934 684.677 199.084C684.852 199.225 685.085 199.371 685.376 199.521C685.676 199.671 686.055 199.841 686.513 200.033C687.42 200.382 688.174 200.745 688.773 201.119C689.372 201.494 689.822 201.931 690.122 202.43C690.421 202.93 690.571 203.55 690.571 204.291C690.571 204.891 690.459 205.432 690.234 205.915C690.018 206.397 689.701 206.814 689.285 207.163C688.877 207.513 688.382 207.784 687.799 207.975C687.225 208.158 686.584 208.25 685.876 208.25C684.819 208.25 683.924 208.042 683.191 207.625C682.467 207.201 681.917 206.655 681.543 205.989C681.168 205.323 680.981 204.62 680.981 203.879H683.79C683.815 204.412 683.928 204.828 684.128 205.128C684.336 205.428 684.598 205.636 684.914 205.752C685.231 205.86 685.56 205.915 685.901 205.915C686.309 205.915 686.646 205.86 686.912 205.752C687.179 205.636 687.379 205.465 687.512 205.24C687.653 205.015 687.724 204.749 687.724 204.441ZM705.269 205.253V198.522C705.269 198.056 705.203 197.681 705.07 197.398C704.945 197.115 704.757 196.911 704.508 196.786C704.266 196.653 703.962 196.586 703.596 196.586C703.213 196.586 702.888 196.665 702.622 196.823C702.364 196.982 702.168 197.198 702.035 197.473C701.902 197.739 701.835 198.047 701.835 198.397H698.926C698.926 197.856 699.034 197.335 699.25 196.836C699.475 196.336 699.796 195.891 700.212 195.5C700.628 195.109 701.132 194.8 701.723 194.576C702.314 194.351 702.972 194.239 703.696 194.239C704.562 194.239 705.332 194.384 706.006 194.676C706.68 194.959 707.209 195.421 707.592 196.062C707.983 196.694 708.179 197.527 708.179 198.559V204.866C708.179 205.49 708.216 206.048 708.291 206.539C708.375 207.022 708.487 207.442 708.629 207.8V208H705.669C705.536 207.675 705.436 207.259 705.369 206.751C705.303 206.243 705.269 205.744 705.269 205.253ZM705.656 199.771L705.669 201.656H704.27C703.854 201.656 703.479 201.715 703.146 201.831C702.813 201.939 702.53 202.097 702.297 202.306C702.072 202.505 701.898 202.751 701.773 203.042C701.656 203.334 701.598 203.654 701.598 204.004C701.598 204.429 701.656 204.774 701.773 205.04C701.898 205.307 702.077 205.507 702.31 205.64C702.551 205.765 702.843 205.827 703.184 205.827C703.65 205.827 704.054 205.727 704.395 205.527C704.745 205.319 705.011 205.07 705.194 204.778C705.386 204.487 705.461 204.22 705.419 203.979L706.081 205.19C706.014 205.507 705.89 205.84 705.706 206.189C705.532 206.539 705.303 206.872 705.02 207.188C704.737 207.505 704.395 207.763 703.996 207.963C703.596 208.154 703.134 208.25 702.609 208.25C701.852 208.25 701.178 208.092 700.586 207.775C699.995 207.459 699.529 207.005 699.188 206.414C698.855 205.815 698.688 205.099 698.688 204.266C698.688 203.592 698.801 202.98 699.025 202.43C699.25 201.881 699.583 201.411 700.024 201.019C700.466 200.62 701.019 200.312 701.685 200.095C702.36 199.879 703.146 199.771 704.046 199.771H705.656ZM714.735 205.577L717.233 194.488H720.242L716.396 208H714.535L714.735 205.577ZM712.962 194.488L715.547 205.615L715.672 208H713.823L709.952 194.488H712.962ZM728.272 205.253V198.522C728.272 198.056 728.205 197.681 728.072 197.398C727.947 197.115 727.76 196.911 727.51 196.786C727.269 196.653 726.965 196.586 726.598 196.586C726.215 196.586 725.891 196.665 725.624 196.823C725.366 196.982 725.171 197.198 725.037 197.473C724.904 197.739 724.838 198.047 724.838 198.397H721.928C721.928 197.856 722.036 197.335 722.253 196.836C722.477 196.336 722.798 195.891 723.214 195.5C723.63 195.109 724.134 194.8 724.725 194.576C725.316 194.351 725.974 194.239 726.698 194.239C727.564 194.239 728.334 194.384 729.008 194.676C729.683 194.959 730.211 195.421 730.594 196.062C730.986 196.694 731.181 197.527 731.181 198.559V204.866C731.181 205.49 731.219 206.048 731.294 206.539C731.377 207.022 731.489 207.442 731.631 207.8V208H728.671C728.538 207.675 728.438 207.259 728.372 206.751C728.305 206.243 728.272 205.744 728.272 205.253ZM728.659 199.771L728.671 201.656H727.273C726.856 201.656 726.482 201.715 726.149 201.831C725.816 201.939 725.533 202.097 725.3 202.306C725.075 202.505 724.9 202.751 724.775 203.042C724.659 203.334 724.6 203.654 724.6 204.004C724.6 204.429 724.659 204.774 724.775 205.04C724.9 205.307 725.079 205.507 725.312 205.64C725.554 205.765 725.845 205.827 726.186 205.827C726.652 205.827 727.056 205.727 727.398 205.527C727.747 205.319 728.014 205.07 728.197 204.778C728.388 204.487 728.463 204.22 728.422 203.979L729.083 205.19C729.017 205.507 728.892 205.84 728.709 206.189C728.534 206.539 728.305 206.872 728.022 207.188C727.739 207.505 727.398 207.763 726.998 207.963C726.598 208.154 726.136 208.25 725.612 208.25C724.854 208.25 724.18 208.092 723.589 207.775C722.998 207.459 722.532 207.005 722.19 206.414C721.857 205.815 721.691 205.099 721.691 204.266C721.691 203.592 721.803 202.98 722.028 202.43C722.253 201.881 722.586 201.411 723.027 201.019C723.468 200.62 724.022 200.312 724.688 200.095C725.362 199.879 726.149 199.771 727.048 199.771H728.659ZM737.25 194.488V208H734.341V194.488H737.25ZM734.191 190.942C734.191 190.476 734.332 190.088 734.615 189.78C734.899 189.472 735.294 189.318 735.802 189.318C736.31 189.318 736.705 189.472 736.988 189.78C737.271 190.088 737.413 190.476 737.413 190.942C737.413 191.4 737.271 191.783 736.988 192.091C736.705 192.399 736.31 192.553 735.802 192.553C735.294 192.553 734.899 192.399 734.615 192.091C734.332 191.783 734.191 191.4 734.191 190.942ZM743.444 188.819V208H740.535V188.819H743.444ZM752.823 205.253V198.522C752.823 198.056 752.756 197.681 752.623 197.398C752.498 197.115 752.311 196.911 752.061 196.786C751.819 196.653 751.515 196.586 751.149 196.586C750.766 196.586 750.442 196.665 750.175 196.823C749.917 196.982 749.721 197.198 749.588 197.473C749.455 197.739 749.388 198.047 749.388 198.397H746.479C746.479 197.856 746.587 197.335 746.803 196.836C747.028 196.336 747.349 195.891 747.765 195.5C748.181 195.109 748.685 194.8 749.276 194.576C749.867 194.351 750.525 194.239 751.249 194.239C752.115 194.239 752.885 194.384 753.559 194.676C754.234 194.959 754.762 195.421 755.145 196.062C755.537 196.694 755.732 197.527 755.732 198.559V204.866C755.732 205.49 755.77 206.048 755.845 206.539C755.928 207.022 756.04 207.442 756.182 207.8V208H753.222C753.089 207.675 752.989 207.259 752.922 206.751C752.856 206.243 752.823 205.744 752.823 205.253ZM753.21 199.771L753.222 201.656H751.824C751.407 201.656 751.033 201.715 750.7 201.831C750.367 201.939 750.084 202.097 749.85 202.306C749.626 202.505 749.451 202.751 749.326 203.042C749.209 203.334 749.151 203.654 749.151 204.004C749.151 204.429 749.209 204.774 749.326 205.04C749.451 205.307 749.63 205.507 749.863 205.64C750.104 205.765 750.396 205.827 750.737 205.827C751.203 205.827 751.607 205.727 751.948 205.527C752.298 205.319 752.564 205.07 752.748 204.778C752.939 204.487 753.014 204.22 752.972 203.979L753.634 205.19C753.568 205.507 753.443 205.84 753.26 206.189C753.085 206.539 752.856 206.872 752.573 207.188C752.29 207.505 751.948 207.763 751.549 207.963C751.149 208.154 750.687 208.25 750.163 208.25C749.405 208.25 748.731 208.092 748.14 207.775C747.549 207.459 747.082 207.005 746.741 206.414C746.408 205.815 746.242 205.099 746.242 204.266C746.242 203.592 746.354 202.98 746.579 202.43C746.803 201.881 747.136 201.411 747.578 201.019C748.019 200.62 748.573 200.312 749.239 200.095C749.913 199.879 750.7 199.771 751.599 199.771H753.21ZM758.729 188.819H761.626V205.103L761.402 208H758.729V188.819ZM768.907 200.72V201.781C768.907 202.863 768.815 203.808 768.632 204.616C768.449 205.423 768.174 206.098 767.808 206.639C767.441 207.18 766.984 207.584 766.434 207.85C765.885 208.117 765.244 208.25 764.511 208.25C763.828 208.25 763.237 208.1 762.738 207.8C762.247 207.492 761.83 207.063 761.489 206.514C761.156 205.956 760.89 205.294 760.69 204.528C760.498 203.763 760.357 202.918 760.265 201.993V200.507C760.348 199.583 760.486 198.738 760.677 197.972C760.877 197.198 761.144 196.536 761.477 195.987C761.81 195.429 762.226 195 762.725 194.701C763.225 194.393 763.816 194.239 764.499 194.239C765.239 194.239 765.885 194.372 766.434 194.638C766.984 194.905 767.441 195.308 767.808 195.849C768.174 196.382 768.449 197.057 768.632 197.872C768.815 198.68 768.907 199.629 768.907 200.72ZM765.997 201.781V200.72C765.997 200.037 765.96 199.446 765.885 198.946C765.818 198.447 765.697 198.035 765.523 197.71C765.356 197.377 765.123 197.127 764.823 196.961C764.524 196.794 764.145 196.711 763.687 196.711C763.287 196.711 762.942 196.79 762.65 196.948C762.367 197.107 762.126 197.331 761.926 197.623C761.726 197.906 761.568 198.235 761.452 198.609C761.335 198.976 761.256 199.371 761.214 199.796V202.705C761.273 203.263 761.389 203.775 761.564 204.241C761.747 204.707 762.009 205.078 762.351 205.353C762.7 205.627 763.154 205.765 763.712 205.765C764.153 205.765 764.519 205.69 764.811 205.54C765.102 205.39 765.335 205.153 765.51 204.828C765.693 204.503 765.818 204.091 765.885 203.592C765.96 203.084 765.997 202.48 765.997 201.781ZM774.439 188.819V208H771.529V188.819H774.439ZM782.718 208.25C781.844 208.25 781.066 208.121 780.383 207.863C779.7 207.596 779.122 207.205 778.647 206.689C778.173 206.164 777.81 205.523 777.561 204.766C777.311 204 777.186 203.113 777.186 202.106V200.807C777.186 199.667 777.315 198.684 777.573 197.86C777.84 197.027 778.206 196.345 778.672 195.812C779.138 195.279 779.688 194.884 780.32 194.626C780.962 194.368 781.657 194.239 782.406 194.239C783.255 194.239 783.992 194.376 784.616 194.651C785.241 194.925 785.753 195.337 786.152 195.887C786.56 196.436 786.86 197.115 787.051 197.922C787.251 198.73 787.351 199.658 787.351 200.707V202.168H778.585V199.97H784.479V199.658C784.462 199.042 784.387 198.514 784.254 198.072C784.121 197.623 783.904 197.281 783.605 197.048C783.313 196.807 782.91 196.686 782.393 196.686C782.019 196.686 781.686 196.757 781.394 196.898C781.103 197.04 780.862 197.269 780.67 197.585C780.487 197.902 780.345 198.326 780.246 198.859C780.146 199.383 780.096 200.033 780.096 200.807V202.106C780.096 202.78 780.154 203.35 780.271 203.817C780.395 204.283 780.579 204.666 780.82 204.965C781.061 205.257 781.353 205.473 781.694 205.615C782.044 205.748 782.448 205.815 782.905 205.815C783.58 205.815 784.158 205.69 784.641 205.44C785.132 205.182 785.557 204.849 785.915 204.441L787.201 206.227C786.96 206.551 786.635 206.872 786.227 207.188C785.819 207.496 785.324 207.75 784.741 207.95C784.167 208.15 783.492 208.25 782.718 208.25ZM798.865 206.514L801.762 194.488H804.821L800.363 210.048C800.263 210.389 800.122 210.756 799.939 211.147C799.764 211.538 799.535 211.909 799.252 212.258C798.977 212.616 798.632 212.904 798.215 213.12C797.807 213.345 797.32 213.457 796.754 213.457C796.521 213.457 796.296 213.436 796.08 213.395C795.864 213.353 795.655 213.303 795.456 213.245V210.897C795.522 210.905 795.597 210.914 795.68 210.922C795.764 210.93 795.839 210.935 795.905 210.935C796.313 210.935 796.65 210.872 796.917 210.747C797.183 210.631 797.404 210.439 797.578 210.173C797.753 209.915 797.907 209.569 798.041 209.136L798.865 206.514ZM797.578 194.488L799.951 204.541L800.463 207.8L798.465 208.312L794.444 194.488H797.578ZM811.64 208.25C810.766 208.25 809.987 208.121 809.304 207.863C808.622 207.596 808.043 207.205 807.569 206.689C807.094 206.164 806.732 205.523 806.482 204.766C806.232 204 806.108 203.113 806.108 202.106V200.807C806.108 199.667 806.237 198.684 806.495 197.86C806.761 197.027 807.127 196.345 807.594 195.812C808.06 195.279 808.609 194.884 809.242 194.626C809.883 194.368 810.578 194.239 811.327 194.239C812.177 194.239 812.913 194.376 813.538 194.651C814.162 194.925 814.674 195.337 815.074 195.887C815.482 196.436 815.781 197.115 815.973 197.922C816.173 198.73 816.273 199.658 816.273 200.707V202.168H807.506V199.97H813.4V199.658C813.384 199.042 813.309 198.514 813.176 198.072C813.042 197.623 812.826 197.281 812.526 197.048C812.235 196.807 811.831 196.686 811.315 196.686C810.94 196.686 810.607 196.757 810.316 196.898C810.025 197.04 809.783 197.269 809.592 197.585C809.409 197.902 809.267 198.326 809.167 198.859C809.067 199.383 809.017 200.033 809.017 200.807V202.106C809.017 202.78 809.076 203.35 809.192 203.817C809.317 204.283 809.5 204.666 809.742 204.965C809.983 205.257 810.274 205.473 810.616 205.615C810.965 205.748 811.369 205.815 811.827 205.815C812.501 205.815 813.08 205.69 813.563 205.44C814.054 205.182 814.479 204.849 814.837 204.441L816.123 206.227C815.881 206.551 815.557 206.872 815.149 207.188C814.741 207.496 814.245 207.75 813.663 207.95C813.088 208.15 812.414 208.25 811.64 208.25ZM824.065 194.488V196.736H817.434V194.488H824.065ZM819.245 191.179H822.142V204.229C822.142 204.645 822.188 204.961 822.279 205.178C822.371 205.394 822.5 205.54 822.666 205.615C822.833 205.69 823.028 205.727 823.253 205.727C823.42 205.727 823.582 205.715 823.74 205.69C823.907 205.656 824.027 205.627 824.102 205.602V207.95C823.886 208.033 823.636 208.104 823.353 208.162C823.07 208.221 822.729 208.25 822.329 208.25C821.738 208.25 821.209 208.129 820.743 207.888C820.277 207.638 819.911 207.234 819.644 206.676C819.378 206.11 819.245 205.361 819.245 204.429V191.179ZM826.55 206.476C826.55 205.994 826.704 205.59 827.012 205.265C827.328 204.941 827.761 204.778 828.311 204.778C828.86 204.778 829.289 204.941 829.597 205.265C829.913 205.59 830.072 205.994 830.072 206.476C830.072 206.943 829.913 207.338 829.597 207.663C829.289 207.988 828.86 208.15 828.311 208.15C827.761 208.15 827.328 207.988 827.012 207.663C826.704 207.338 826.55 206.943 826.55 206.476ZM506.565 232.068H509.587C509.529 233.384 509.262 234.503 508.788 235.428C508.313 236.343 507.63 237.043 506.74 237.525C505.857 238.008 504.779 238.25 503.505 238.25C502.54 238.25 501.674 238.075 500.908 237.725C500.15 237.376 499.505 236.872 498.972 236.214C498.439 235.548 498.032 234.737 497.749 233.779C497.474 232.822 497.336 231.735 497.336 230.52V227.298C497.336 226.083 497.478 224.996 497.761 224.039C498.052 223.081 498.469 222.27 499.01 221.604C499.551 220.938 500.209 220.434 500.983 220.093C501.765 219.743 502.648 219.568 503.63 219.568C504.887 219.568 505.945 219.81 506.802 220.292C507.66 220.775 508.321 221.483 508.788 222.415C509.254 223.348 509.524 224.484 509.599 225.824H506.577C506.536 224.917 506.411 224.193 506.203 223.652C506.003 223.102 505.695 222.707 505.279 222.465C504.871 222.224 504.321 222.103 503.63 222.103C503.056 222.103 502.56 222.211 502.144 222.428C501.736 222.644 501.399 222.969 501.133 223.402C500.875 223.826 500.679 224.363 500.546 225.013C500.421 225.654 500.358 226.407 500.358 227.273V230.52C500.358 231.352 500.413 232.089 500.521 232.73C500.629 233.371 500.804 233.917 501.045 234.366C501.287 234.807 501.607 235.144 502.007 235.378C502.406 235.602 502.906 235.715 503.505 235.715C504.221 235.715 504.792 235.602 505.216 235.378C505.649 235.153 505.97 234.774 506.178 234.241C506.386 233.708 506.515 232.984 506.565 232.068ZM511.597 231.794V230.707C511.597 229.658 511.726 228.73 511.985 227.922C512.243 227.115 512.609 226.441 513.083 225.899C513.566 225.35 514.132 224.938 514.782 224.663C515.431 224.38 516.147 224.239 516.93 224.239C517.729 224.239 518.453 224.38 519.102 224.663C519.76 224.938 520.326 225.35 520.801 225.899C521.284 226.441 521.654 227.115 521.912 227.922C522.17 228.73 522.299 229.658 522.299 230.707V231.794C522.299 232.843 522.17 233.771 521.912 234.578C521.654 235.386 521.284 236.064 520.801 236.614C520.326 237.155 519.764 237.563 519.115 237.838C518.466 238.112 517.746 238.25 516.955 238.25C516.172 238.25 515.452 238.112 514.794 237.838C514.145 237.563 513.579 237.155 513.096 236.614C512.613 236.064 512.243 235.386 511.985 234.578C511.726 233.771 511.597 232.843 511.597 231.794ZM514.507 230.707V231.794C514.507 232.468 514.565 233.059 514.682 233.567C514.798 234.066 514.965 234.483 515.181 234.816C515.398 235.149 515.656 235.398 515.956 235.565C516.255 235.731 516.588 235.815 516.955 235.815C517.363 235.815 517.716 235.731 518.016 235.565C518.324 235.398 518.578 235.149 518.778 234.816C518.986 234.483 519.14 234.066 519.24 233.567C519.34 233.059 519.39 232.468 519.39 231.794V230.707C519.39 230.041 519.331 229.458 519.215 228.959C519.098 228.451 518.932 228.031 518.715 227.698C518.499 227.356 518.237 227.102 517.929 226.936C517.629 226.769 517.296 226.686 516.93 226.686C516.572 226.686 516.243 226.769 515.943 226.936C515.652 227.102 515.398 227.356 515.181 227.698C514.965 228.031 514.798 228.451 514.682 228.959C514.565 229.458 514.507 230.041 514.507 230.707ZM527.732 227.236V238H524.822V224.488H527.557L527.732 227.236ZM527.257 230.757H526.27C526.254 229.816 526.337 228.951 526.52 228.16C526.712 227.369 526.995 226.678 527.369 226.087C527.752 225.496 528.231 225.042 528.805 224.726C529.388 224.401 530.058 224.239 530.816 224.239C531.324 224.239 531.79 224.33 532.215 224.513C532.648 224.688 533.022 224.967 533.338 225.35C533.663 225.733 533.913 226.224 534.088 226.823C534.263 227.423 534.35 228.147 534.35 228.996V238H531.44V229.271C531.44 228.622 531.365 228.114 531.216 227.748C531.074 227.373 530.866 227.107 530.591 226.948C530.316 226.79 529.983 226.711 529.592 226.711C529.168 226.711 528.805 226.819 528.506 227.036C528.206 227.244 527.965 227.535 527.781 227.91C527.598 228.276 527.465 228.705 527.382 229.196C527.299 229.679 527.257 230.199 527.257 230.757ZM534.163 229.983L532.802 230.295C532.785 229.471 532.868 228.692 533.051 227.96C533.234 227.227 533.509 226.586 533.875 226.037C534.25 225.479 534.716 225.042 535.274 224.726C535.84 224.401 536.494 224.239 537.235 224.239C537.817 224.239 538.338 224.334 538.796 224.526C539.254 224.709 539.645 225 539.969 225.4C540.294 225.8 540.54 226.32 540.706 226.961C540.881 227.594 540.968 228.364 540.968 229.271V238H538.046V229.259C538.046 228.584 537.971 228.064 537.822 227.698C537.68 227.331 537.472 227.077 537.197 226.936C536.922 226.786 536.594 226.711 536.211 226.711C535.878 226.711 535.582 226.799 535.324 226.973C535.074 227.14 534.862 227.373 534.687 227.673C534.512 227.972 534.379 228.322 534.288 228.722C534.204 229.113 534.163 229.533 534.163 229.983ZM546.825 227.086V243.195H543.928V224.488H546.588L546.825 227.086ZM554.093 230.707V231.781C554.093 232.838 553.997 233.771 553.806 234.578C553.614 235.386 553.331 236.064 552.957 236.614C552.59 237.155 552.137 237.563 551.596 237.838C551.054 238.112 550.422 238.25 549.697 238.25C549.015 238.25 548.419 238.1 547.912 237.8C547.412 237.5 546.992 237.08 546.65 236.539C546.309 235.998 546.034 235.357 545.826 234.616C545.626 233.867 545.481 233.051 545.389 232.168V230.52C545.481 229.587 545.622 228.738 545.814 227.972C546.014 227.198 546.284 226.532 546.625 225.974C546.975 225.417 547.4 224.988 547.899 224.688C548.399 224.388 548.994 224.239 549.685 224.239C550.409 224.239 551.046 224.368 551.596 224.626C552.145 224.884 552.603 225.279 552.969 225.812C553.344 226.345 553.623 227.019 553.806 227.835C553.997 228.643 554.093 229.6 554.093 230.707ZM551.183 231.781V230.707C551.183 230.016 551.138 229.421 551.046 228.921C550.963 228.414 550.821 227.997 550.621 227.673C550.43 227.348 550.184 227.107 549.885 226.948C549.593 226.79 549.231 226.711 548.798 226.711C548.415 226.711 548.078 226.79 547.787 226.948C547.495 227.107 547.25 227.327 547.05 227.61C546.85 227.885 546.692 228.214 546.575 228.597C546.459 228.971 546.384 229.379 546.351 229.821V232.88C546.426 233.413 546.55 233.904 546.725 234.354C546.9 234.795 547.154 235.149 547.487 235.415C547.828 235.681 548.274 235.815 548.823 235.815C549.248 235.815 549.61 235.731 549.91 235.565C550.209 235.398 550.451 235.149 550.634 234.816C550.825 234.483 550.963 234.066 551.046 233.567C551.138 233.059 551.183 232.464 551.183 231.781ZM559.638 218.819V238H556.728V218.819H559.638ZM567.917 238.25C567.043 238.25 566.264 238.121 565.582 237.863C564.899 237.596 564.321 237.205 563.846 236.689C563.371 236.164 563.009 235.523 562.76 234.766C562.51 234 562.385 233.113 562.385 232.106V230.807C562.385 229.667 562.514 228.684 562.772 227.86C563.038 227.027 563.405 226.345 563.871 225.812C564.337 225.279 564.887 224.884 565.519 224.626C566.16 224.368 566.856 224.239 567.605 224.239C568.454 224.239 569.191 224.376 569.815 224.651C570.439 224.925 570.951 225.337 571.351 225.887C571.759 226.436 572.059 227.115 572.25 227.922C572.45 228.73 572.55 229.658 572.55 230.707V232.168H563.784V229.97H569.678V229.658C569.661 229.042 569.586 228.514 569.453 228.072C569.32 227.623 569.103 227.281 568.804 227.048C568.512 226.807 568.108 226.686 567.592 226.686C567.218 226.686 566.885 226.757 566.593 226.898C566.302 227.04 566.06 227.269 565.869 227.585C565.686 227.902 565.544 228.326 565.444 228.859C565.345 229.383 565.295 230.033 565.295 230.807V232.106C565.295 232.78 565.353 233.35 565.469 233.817C565.594 234.283 565.777 234.666 566.019 234.965C566.26 235.257 566.552 235.473 566.893 235.615C567.243 235.748 567.646 235.815 568.104 235.815C568.779 235.815 569.357 235.69 569.84 235.44C570.331 235.182 570.756 234.849 571.114 234.441L572.4 236.227C572.159 236.551 571.834 236.872 571.426 237.188C571.018 237.496 570.523 237.75 569.94 237.95C569.366 238.15 568.691 238.25 567.917 238.25ZM580.342 224.488V226.736H573.711V224.488H580.342ZM575.522 221.179H578.419V234.229C578.419 234.645 578.465 234.961 578.556 235.178C578.648 235.394 578.777 235.54 578.944 235.615C579.11 235.69 579.306 235.727 579.531 235.727C579.697 235.727 579.859 235.715 580.018 235.69C580.184 235.656 580.305 235.627 580.38 235.602V237.95C580.163 238.033 579.913 238.104 579.63 238.162C579.347 238.221 579.006 238.25 578.606 238.25C578.015 238.25 577.487 238.129 577.021 237.888C576.554 237.638 576.188 237.234 575.922 236.676C575.655 236.11 575.522 235.361 575.522 234.429V221.179ZM587.772 238.25C586.898 238.25 586.12 238.121 585.437 237.863C584.755 237.596 584.176 237.205 583.701 236.689C583.227 236.164 582.865 235.523 582.615 234.766C582.365 234 582.24 233.113 582.24 232.106V230.807C582.24 229.667 582.369 228.684 582.627 227.86C582.894 227.027 583.26 226.345 583.726 225.812C584.193 225.279 584.742 224.884 585.375 224.626C586.016 224.368 586.711 224.239 587.46 224.239C588.309 224.239 589.046 224.376 589.671 224.651C590.295 224.925 590.807 225.337 591.207 225.887C591.614 226.436 591.914 227.115 592.106 227.922C592.305 228.73 592.405 229.658 592.405 230.707V232.168H583.639V229.97H589.533V229.658C589.517 229.042 589.442 228.514 589.308 228.072C589.175 227.623 588.959 227.281 588.659 227.048C588.368 226.807 587.964 226.686 587.448 226.686C587.073 226.686 586.74 226.757 586.449 226.898C586.157 227.04 585.916 227.269 585.724 227.585C585.541 227.902 585.4 228.326 585.3 228.859C585.2 229.383 585.15 230.033 585.15 230.807V232.106C585.15 232.78 585.208 233.35 585.325 233.817C585.45 234.283 585.633 234.666 585.874 234.965C586.116 235.257 586.407 235.473 586.748 235.615C587.098 235.748 587.502 235.815 587.96 235.815C588.634 235.815 589.213 235.69 589.696 235.44C590.187 235.182 590.611 234.849 590.969 234.441L592.256 236.227C592.014 236.551 591.689 236.872 591.281 237.188C590.874 237.496 590.378 237.75 589.795 237.95C589.221 238.15 588.547 238.25 587.772 238.25ZM606.904 235.253V228.522C606.904 228.056 606.837 227.681 606.704 227.398C606.579 227.115 606.392 226.911 606.142 226.786C605.9 226.653 605.597 226.586 605.23 226.586C604.847 226.586 604.523 226.665 604.256 226.823C603.998 226.982 603.802 227.198 603.669 227.473C603.536 227.739 603.469 228.047 603.469 228.397H600.56C600.56 227.856 600.668 227.335 600.885 226.836C601.109 226.336 601.43 225.891 601.846 225.5C602.262 225.109 602.766 224.8 603.357 224.576C603.948 224.351 604.606 224.239 605.33 224.239C606.196 224.239 606.966 224.384 607.64 224.676C608.315 224.959 608.843 225.421 609.226 226.062C609.618 226.694 609.813 227.527 609.813 228.559V234.866C609.813 235.49 609.851 236.048 609.926 236.539C610.009 237.022 610.121 237.442 610.263 237.8V238H607.303C607.17 237.675 607.07 237.259 607.004 236.751C606.937 236.243 606.904 235.744 606.904 235.253ZM607.291 229.771L607.303 231.656H605.905C605.488 231.656 605.114 231.715 604.781 231.831C604.448 231.939 604.165 232.097 603.932 232.306C603.707 232.505 603.532 232.751 603.407 233.042C603.29 233.334 603.232 233.654 603.232 234.004C603.232 234.429 603.29 234.774 603.407 235.04C603.532 235.307 603.711 235.507 603.944 235.64C604.185 235.765 604.477 235.827 604.818 235.827C605.284 235.827 605.688 235.727 606.029 235.527C606.379 235.319 606.646 235.07 606.829 234.778C607.02 234.487 607.095 234.22 607.053 233.979L607.715 235.19C607.649 235.507 607.524 235.84 607.341 236.189C607.166 236.539 606.937 236.872 606.654 237.188C606.371 237.505 606.029 237.763 605.63 237.963C605.23 238.154 604.768 238.25 604.244 238.25C603.486 238.25 602.812 238.092 602.221 237.775C601.63 237.459 601.163 237.005 600.822 236.414C600.489 235.815 600.323 235.099 600.323 234.266C600.323 233.592 600.435 232.98 600.66 232.43C600.885 231.881 601.218 231.411 601.659 231.019C602.1 230.62 602.654 230.312 603.32 230.095C603.994 229.879 604.781 229.771 605.68 229.771H607.291ZM624.948 234.441C624.948 234.158 624.865 233.908 624.699 233.692C624.54 233.467 624.282 233.246 623.924 233.03C623.566 232.813 623.088 232.58 622.488 232.331C621.864 232.072 621.31 231.814 620.827 231.556C620.345 231.298 619.937 231.015 619.604 230.707C619.271 230.391 619.017 230.029 618.842 229.621C618.667 229.213 618.58 228.738 618.58 228.197C618.58 227.639 618.684 227.123 618.892 226.649C619.1 226.174 619.4 225.758 619.791 225.4C620.182 225.034 620.653 224.751 621.202 224.551C621.752 224.343 622.372 224.239 623.063 224.239C624.037 224.239 624.869 224.418 625.56 224.776C626.26 225.125 626.792 225.616 627.159 226.249C627.533 226.873 627.721 227.594 627.721 228.409H624.811C624.811 228.068 624.749 227.76 624.624 227.485C624.499 227.202 624.307 226.978 624.049 226.811C623.791 226.636 623.462 226.549 623.063 226.549C622.696 226.549 622.388 226.62 622.139 226.761C621.897 226.894 621.714 227.077 621.589 227.311C621.473 227.535 621.414 227.789 621.414 228.072C621.414 228.28 621.452 228.464 621.527 228.622C621.602 228.78 621.727 228.934 621.901 229.084C622.076 229.225 622.309 229.371 622.601 229.521C622.9 229.671 623.279 229.841 623.737 230.033C624.644 230.382 625.398 230.745 625.997 231.119C626.597 231.494 627.046 231.931 627.346 232.43C627.646 232.93 627.796 233.55 627.796 234.291C627.796 234.891 627.683 235.432 627.458 235.915C627.242 236.397 626.926 236.814 626.509 237.163C626.101 237.513 625.606 237.784 625.023 237.975C624.449 238.158 623.808 238.25 623.1 238.25C622.043 238.25 621.148 238.042 620.415 237.625C619.691 237.201 619.142 236.655 618.767 235.989C618.392 235.323 618.205 234.62 618.205 233.879H621.015C621.04 234.412 621.152 234.828 621.352 235.128C621.56 235.428 621.822 235.636 622.139 235.752C622.455 235.86 622.784 235.915 623.125 235.915C623.533 235.915 623.87 235.86 624.137 235.752C624.403 235.636 624.603 235.465 624.736 235.24C624.878 235.015 624.948 234.749 624.948 234.441ZM635.5 238.25C634.626 238.25 633.848 238.121 633.165 237.863C632.483 237.596 631.904 237.205 631.429 236.689C630.955 236.164 630.593 235.523 630.343 234.766C630.093 234 629.968 233.113 629.968 232.106V230.807C629.968 229.667 630.097 228.684 630.356 227.86C630.622 227.027 630.988 226.345 631.454 225.812C631.921 225.279 632.47 224.884 633.103 224.626C633.744 224.368 634.439 224.239 635.188 224.239C636.037 224.239 636.774 224.376 637.399 224.651C638.023 224.925 638.535 225.337 638.935 225.887C639.343 226.436 639.642 227.115 639.834 227.922C640.034 228.73 640.133 229.658 640.133 230.707V232.168H631.367V229.97H637.261V229.658C637.245 229.042 637.17 228.514 637.036 228.072C636.903 227.623 636.687 227.281 636.387 227.048C636.096 226.807 635.692 226.686 635.176 226.686C634.801 226.686 634.468 226.757 634.177 226.898C633.885 227.04 633.644 227.269 633.452 227.585C633.269 227.902 633.128 228.326 633.028 228.859C632.928 229.383 632.878 230.033 632.878 230.807V232.106C632.878 232.78 632.936 233.35 633.053 233.817C633.178 234.283 633.361 234.666 633.602 234.965C633.844 235.257 634.135 235.473 634.476 235.615C634.826 235.748 635.23 235.815 635.688 235.815C636.362 235.815 636.941 235.69 637.424 235.44C637.915 235.182 638.339 234.849 638.697 234.441L639.984 236.227C639.742 236.551 639.417 236.872 639.01 237.188C638.602 237.496 638.106 237.75 637.523 237.95C636.949 238.15 636.275 238.25 635.5 238.25ZM648.725 234.441C648.725 234.158 648.642 233.908 648.475 233.692C648.317 233.467 648.059 233.246 647.701 233.03C647.343 232.813 646.864 232.58 646.265 232.331C645.64 232.072 645.087 231.814 644.604 231.556C644.121 231.298 643.713 231.015 643.38 230.707C643.047 230.391 642.793 230.029 642.618 229.621C642.444 229.213 642.356 228.738 642.356 228.197C642.356 227.639 642.46 227.123 642.668 226.649C642.877 226.174 643.176 225.758 643.568 225.4C643.959 225.034 644.429 224.751 644.979 224.551C645.528 224.343 646.148 224.239 646.839 224.239C647.813 224.239 648.646 224.418 649.337 224.776C650.036 225.125 650.569 225.616 650.935 226.249C651.31 226.873 651.497 227.594 651.497 228.409H648.588C648.588 228.068 648.525 227.76 648.4 227.485C648.275 227.202 648.084 226.978 647.826 226.811C647.568 226.636 647.239 226.549 646.839 226.549C646.473 226.549 646.165 226.62 645.915 226.761C645.674 226.894 645.491 227.077 645.366 227.311C645.249 227.535 645.191 227.789 645.191 228.072C645.191 228.28 645.228 228.464 645.303 228.622C645.378 228.78 645.503 228.934 645.678 229.084C645.853 229.225 646.086 229.371 646.377 229.521C646.677 229.671 647.056 229.841 647.514 230.033C648.421 230.382 649.175 230.745 649.774 231.119C650.373 231.494 650.823 231.931 651.123 232.43C651.422 232.93 651.572 233.55 651.572 234.291C651.572 234.891 651.46 235.432 651.235 235.915C651.019 236.397 650.702 236.814 650.286 237.163C649.878 237.513 649.383 237.784 648.8 237.975C648.225 238.158 647.584 238.25 646.877 238.25C645.819 238.25 644.925 238.042 644.192 237.625C643.468 237.201 642.918 236.655 642.544 235.989C642.169 235.323 641.982 234.62 641.982 233.879H644.791C644.816 234.412 644.929 234.828 645.128 235.128C645.337 235.428 645.599 235.636 645.915 235.752C646.232 235.86 646.56 235.915 646.902 235.915C647.31 235.915 647.647 235.86 647.913 235.752C648.18 235.636 648.379 235.465 648.513 235.24C648.654 235.015 648.725 234.749 648.725 234.441ZM660.364 234.441C660.364 234.158 660.28 233.908 660.114 233.692C659.956 233.467 659.697 233.246 659.34 233.03C658.982 232.813 658.503 232.58 657.903 232.331C657.279 232.072 656.725 231.814 656.243 231.556C655.76 231.298 655.352 231.015 655.019 230.707C654.686 230.391 654.432 230.029 654.257 229.621C654.082 229.213 653.995 228.738 653.995 228.197C653.995 227.639 654.099 227.123 654.307 226.649C654.515 226.174 654.815 225.758 655.206 225.4C655.597 225.034 656.068 224.751 656.617 224.551C657.167 224.343 657.787 224.239 658.478 224.239C659.452 224.239 660.284 224.418 660.975 224.776C661.675 225.125 662.208 225.616 662.574 226.249C662.948 226.873 663.136 227.594 663.136 228.409H660.226C660.226 228.068 660.164 227.76 660.039 227.485C659.914 227.202 659.722 226.978 659.464 226.811C659.206 226.636 658.877 226.549 658.478 226.549C658.112 226.549 657.804 226.62 657.554 226.761C657.312 226.894 657.129 227.077 657.004 227.311C656.888 227.535 656.829 227.789 656.829 228.072C656.829 228.28 656.867 228.464 656.942 228.622C657.017 228.78 657.142 228.934 657.317 229.084C657.491 229.225 657.724 229.371 658.016 229.521C658.316 229.671 658.694 229.841 659.152 230.033C660.06 230.382 660.813 230.745 661.412 231.119C662.012 231.494 662.461 231.931 662.761 232.43C663.061 232.93 663.211 233.55 663.211 234.291C663.211 234.891 663.098 235.432 662.874 235.915C662.657 236.397 662.341 236.814 661.924 237.163C661.517 237.513 661.021 237.784 660.438 237.975C659.864 238.158 659.223 238.25 658.515 238.25C657.458 238.25 656.563 238.042 655.83 237.625C655.106 237.201 654.557 236.655 654.182 235.989C653.807 235.323 653.62 234.62 653.62 233.879H656.43C656.455 234.412 656.567 234.828 656.767 235.128C656.975 235.428 657.237 235.636 657.554 235.752C657.87 235.86 658.199 235.915 658.54 235.915C658.948 235.915 659.285 235.86 659.552 235.752C659.818 235.636 660.018 235.465 660.151 235.24C660.293 235.015 660.364 234.749 660.364 234.441ZM668.83 224.488V238H665.921V224.488H668.83ZM665.771 220.942C665.771 220.476 665.912 220.088 666.195 219.78C666.478 219.472 666.874 219.318 667.382 219.318C667.889 219.318 668.285 219.472 668.568 219.78C668.851 220.088 668.993 220.476 668.993 220.942C668.993 221.4 668.851 221.783 668.568 222.091C668.285 222.399 667.889 222.553 667.382 222.553C666.874 222.553 666.478 222.399 666.195 222.091C665.912 221.783 665.771 221.4 665.771 220.942ZM671.515 231.794V230.707C671.515 229.658 671.644 228.73 671.902 227.922C672.16 227.115 672.527 226.441 673.001 225.899C673.484 225.35 674.05 224.938 674.699 224.663C675.349 224.38 676.065 224.239 676.847 224.239C677.647 224.239 678.371 224.38 679.02 224.663C679.678 224.938 680.244 225.35 680.718 225.899C681.201 226.441 681.572 227.115 681.83 227.922C682.088 228.73 682.217 229.658 682.217 230.707V231.794C682.217 232.843 682.088 233.771 681.83 234.578C681.572 235.386 681.201 236.064 680.718 236.614C680.244 237.155 679.682 237.563 679.033 237.838C678.383 238.112 677.663 238.25 676.872 238.25C676.09 238.25 675.37 238.112 674.712 237.838C674.063 237.563 673.496 237.155 673.014 236.614C672.531 236.064 672.16 235.386 671.902 234.578C671.644 233.771 671.515 232.843 671.515 231.794ZM674.425 230.707V231.794C674.425 232.468 674.483 233.059 674.6 233.567C674.716 234.066 674.883 234.483 675.099 234.816C675.315 235.149 675.574 235.398 675.873 235.565C676.173 235.731 676.506 235.815 676.872 235.815C677.28 235.815 677.634 235.731 677.934 235.565C678.242 235.398 678.496 235.149 678.695 234.816C678.904 234.483 679.058 234.066 679.158 233.567C679.257 233.059 679.307 232.468 679.307 231.794V230.707C679.307 230.041 679.249 229.458 679.133 228.959C679.016 228.451 678.849 228.031 678.633 227.698C678.417 227.356 678.154 227.102 677.846 226.936C677.547 226.769 677.214 226.686 676.847 226.686C676.489 226.686 676.16 226.769 675.861 226.936C675.569 227.102 675.315 227.356 675.099 227.698C674.883 228.031 674.716 228.451 674.6 228.959C674.483 229.458 674.425 230.041 674.425 230.707ZM687.599 227.373V238H684.69V224.488H687.424L687.599 227.373ZM687.075 230.757H686.151C686.142 229.783 686.246 228.896 686.463 228.097C686.679 227.298 686.987 226.611 687.387 226.037C687.787 225.462 688.265 225.021 688.823 224.713C689.389 224.397 690.018 224.239 690.709 224.239C691.25 224.239 691.741 224.33 692.182 224.513C692.632 224.688 693.015 224.975 693.331 225.375C693.647 225.775 693.889 226.295 694.055 226.936C694.23 227.577 694.318 228.359 694.318 229.284V238H691.408V229.259C691.408 228.626 691.337 228.126 691.196 227.76C691.062 227.385 690.863 227.119 690.596 226.961C690.33 226.794 689.993 226.711 689.585 226.711C689.21 226.711 688.865 226.819 688.548 227.036C688.24 227.244 687.974 227.535 687.749 227.91C687.533 228.276 687.366 228.705 687.25 229.196C687.133 229.679 687.075 230.199 687.075 230.757ZM708.591 224.488V226.736H701.96V224.488H708.591ZM703.771 221.179H706.668V234.229C706.668 234.645 706.714 234.961 706.805 235.178C706.897 235.394 707.026 235.54 707.192 235.615C707.359 235.69 707.555 235.727 707.779 235.727C707.946 235.727 708.108 235.715 708.266 235.69C708.433 235.656 708.554 235.627 708.629 235.602V237.95C708.412 238.033 708.162 238.104 707.879 238.162C707.596 238.221 707.255 238.25 706.855 238.25C706.264 238.25 705.736 238.129 705.269 237.888C704.803 237.638 704.437 237.234 704.17 236.676C703.904 236.11 703.771 235.361 703.771 234.429V221.179ZM710.102 231.794V230.707C710.102 229.658 710.231 228.73 710.489 227.922C710.747 227.115 711.114 226.441 711.588 225.899C712.071 225.35 712.637 224.938 713.286 224.663C713.936 224.38 714.652 224.239 715.434 224.239C716.234 224.239 716.958 224.38 717.607 224.663C718.265 224.938 718.831 225.35 719.306 225.899C719.788 226.441 720.159 227.115 720.417 227.922C720.675 228.73 720.804 229.658 720.804 230.707V231.794C720.804 232.843 720.675 233.771 720.417 234.578C720.159 235.386 719.788 236.064 719.306 236.614C718.831 237.155 718.269 237.563 717.62 237.838C716.97 238.112 716.25 238.25 715.459 238.25C714.677 238.25 713.957 238.112 713.299 237.838C712.65 237.563 712.083 237.155 711.601 236.614C711.118 236.064 710.747 235.386 710.489 234.578C710.231 233.771 710.102 232.843 710.102 231.794ZM713.012 230.707V231.794C713.012 232.468 713.07 233.059 713.187 233.567C713.303 234.066 713.47 234.483 713.686 234.816C713.903 235.149 714.161 235.398 714.46 235.565C714.76 235.731 715.093 235.815 715.459 235.815C715.867 235.815 716.221 235.731 716.521 235.565C716.829 235.398 717.083 235.149 717.283 234.816C717.491 234.483 717.645 234.066 717.745 233.567C717.844 233.059 717.894 232.468 717.894 231.794V230.707C717.894 230.041 717.836 229.458 717.72 228.959C717.603 228.451 717.437 228.031 717.22 227.698C717.004 227.356 716.741 227.102 716.433 226.936C716.134 226.769 715.801 226.686 715.434 226.686C715.076 226.686 714.748 226.769 714.448 226.936C714.156 227.102 713.903 227.356 713.686 227.698C713.47 228.031 713.303 228.451 713.187 228.959C713.07 229.458 713.012 230.041 713.012 230.707ZM735.465 234.441C735.465 234.158 735.381 233.908 735.215 233.692C735.057 233.467 734.799 233.246 734.441 233.03C734.083 232.813 733.604 232.58 733.005 232.331C732.38 232.072 731.827 231.814 731.344 231.556C730.861 231.298 730.453 231.015 730.12 230.707C729.787 230.391 729.533 230.029 729.358 229.621C729.183 229.213 729.096 228.738 729.096 228.197C729.096 227.639 729.2 227.123 729.408 226.649C729.616 226.174 729.916 225.758 730.307 225.4C730.698 225.034 731.169 224.751 731.718 224.551C732.268 224.343 732.888 224.239 733.579 224.239C734.553 224.239 735.386 224.418 736.077 224.776C736.776 225.125 737.309 225.616 737.675 226.249C738.05 226.873 738.237 227.594 738.237 228.409H735.327C735.327 228.068 735.265 227.76 735.14 227.485C735.015 227.202 734.824 226.978 734.565 226.811C734.307 226.636 733.979 226.549 733.579 226.549C733.213 226.549 732.905 226.62 732.655 226.761C732.413 226.894 732.23 227.077 732.105 227.311C731.989 227.535 731.931 227.789 731.931 228.072C731.931 228.28 731.968 228.464 732.043 228.622C732.118 228.78 732.243 228.934 732.418 229.084C732.592 229.225 732.826 229.371 733.117 229.521C733.417 229.671 733.795 229.841 734.253 230.033C735.161 230.382 735.914 230.745 736.514 231.119C737.113 231.494 737.563 231.931 737.862 232.43C738.162 232.93 738.312 233.55 738.312 234.291C738.312 234.891 738.199 235.432 737.975 235.915C737.758 236.397 737.442 236.814 737.026 237.163C736.618 237.513 736.122 237.784 735.54 237.975C734.965 238.158 734.324 238.25 733.616 238.25C732.559 238.25 731.664 238.042 730.932 237.625C730.207 237.201 729.658 236.655 729.283 235.989C728.909 235.323 728.721 234.62 728.721 233.879H731.531C731.556 234.412 731.668 234.828 731.868 235.128C732.076 235.428 732.339 235.636 732.655 235.752C732.971 235.86 733.3 235.915 733.641 235.915C734.049 235.915 734.387 235.86 734.653 235.752C734.919 235.636 735.119 235.465 735.252 235.24C735.394 235.015 735.465 234.749 735.465 234.441ZM746.017 238.25C745.143 238.25 744.364 238.121 743.682 237.863C742.999 237.596 742.42 237.205 741.946 236.689C741.471 236.164 741.109 235.523 740.859 234.766C740.61 234 740.485 233.113 740.485 232.106V230.807C740.485 229.667 740.614 228.684 740.872 227.86C741.138 227.027 741.505 226.345 741.971 225.812C742.437 225.279 742.986 224.884 743.619 224.626C744.26 224.368 744.955 224.239 745.705 224.239C746.554 224.239 747.29 224.376 747.915 224.651C748.539 224.925 749.051 225.337 749.451 225.887C749.859 226.436 750.158 227.115 750.35 227.922C750.55 228.73 750.65 229.658 750.65 230.707V232.168H741.883V229.97H747.778V229.658C747.761 229.042 747.686 228.514 747.553 228.072C747.42 227.623 747.203 227.281 746.903 227.048C746.612 226.807 746.208 226.686 745.692 226.686C745.317 226.686 744.984 226.757 744.693 226.898C744.402 227.04 744.16 227.269 743.969 227.585C743.786 227.902 743.644 228.326 743.544 228.859C743.444 229.383 743.394 230.033 743.394 230.807V232.106C743.394 232.78 743.453 233.35 743.569 233.817C743.694 234.283 743.877 234.666 744.119 234.965C744.36 235.257 744.651 235.473 744.993 235.615C745.342 235.748 745.746 235.815 746.204 235.815C746.878 235.815 747.457 235.69 747.94 235.44C748.431 235.182 748.856 234.849 749.214 234.441L750.5 236.227C750.258 236.551 749.934 236.872 749.526 237.188C749.118 237.496 748.623 237.75 748.04 237.95C747.465 238.15 746.791 238.25 746.017 238.25ZM758.155 238.25C757.281 238.25 756.502 238.121 755.82 237.863C755.137 237.596 754.558 237.205 754.084 236.689C753.609 236.164 753.247 235.523 752.997 234.766C752.748 234 752.623 233.113 752.623 232.106V230.807C752.623 229.667 752.752 228.684 753.01 227.86C753.276 227.027 753.643 226.345 754.109 225.812C754.575 225.279 755.124 224.884 755.757 224.626C756.398 224.368 757.093 224.239 757.843 224.239C758.692 224.239 759.429 224.376 760.053 224.651C760.677 224.925 761.189 225.337 761.589 225.887C761.997 226.436 762.297 227.115 762.488 227.922C762.688 228.73 762.788 229.658 762.788 230.707V232.168H754.021V229.97H759.916V229.658C759.899 229.042 759.824 228.514 759.691 228.072C759.558 227.623 759.341 227.281 759.041 227.048C758.75 226.807 758.346 226.686 757.83 226.686C757.455 226.686 757.122 226.757 756.831 226.898C756.54 227.04 756.298 227.269 756.107 227.585C755.924 227.902 755.782 228.326 755.682 228.859C755.582 229.383 755.532 230.033 755.532 230.807V232.106C755.532 232.78 755.591 233.35 755.707 233.817C755.832 234.283 756.015 234.666 756.257 234.965C756.498 235.257 756.789 235.473 757.131 235.615C757.48 235.748 757.884 235.815 758.342 235.815C759.016 235.815 759.595 235.69 760.078 235.44C760.569 235.182 760.994 234.849 761.352 234.441L762.638 236.227C762.396 236.551 762.072 236.872 761.664 237.188C761.256 237.496 760.761 237.75 760.178 237.95C759.603 238.15 758.929 238.25 758.155 238.25ZM774.102 224.488V238H771.192V224.488H774.102ZM771.042 220.942C771.042 220.476 771.184 220.088 771.467 219.78C771.75 219.472 772.145 219.318 772.653 219.318C773.161 219.318 773.556 219.472 773.839 219.78C774.122 220.088 774.264 220.476 774.264 220.942C774.264 221.4 774.122 221.783 773.839 222.091C773.556 222.399 773.161 222.553 772.653 222.553C772.145 222.553 771.75 222.399 771.467 222.091C771.184 221.783 771.042 221.4 771.042 220.942ZM782.668 224.488V226.736H776.037V224.488H782.668ZM777.848 221.179H780.745V234.229C780.745 234.645 780.791 234.961 780.882 235.178C780.974 235.394 781.103 235.54 781.27 235.615C781.436 235.69 781.632 235.727 781.856 235.727C782.023 235.727 782.185 235.715 782.344 235.69C782.51 235.656 782.631 235.627 782.706 235.602V237.95C782.489 238.033 782.239 238.104 781.956 238.162C781.673 238.221 781.332 238.25 780.932 238.25C780.341 238.25 779.813 238.129 779.346 237.888C778.88 237.638 778.514 237.234 778.248 236.676C777.981 236.11 777.848 235.361 777.848 234.429V221.179ZM793.907 218.819V238H790.997V218.819H793.907ZM800.101 224.488V238H797.191V224.488H800.101ZM797.042 220.942C797.042 220.476 797.183 220.088 797.466 219.78C797.749 219.472 798.145 219.318 798.652 219.318C799.16 219.318 799.556 219.472 799.839 219.78C800.122 220.088 800.263 220.476 800.263 220.942C800.263 221.4 800.122 221.783 799.839 222.091C799.556 222.399 799.16 222.553 798.652 222.553C798.145 222.553 797.749 222.399 797.466 222.091C797.183 221.783 797.042 221.4 797.042 220.942ZM809.467 234.441C809.467 234.158 809.384 233.908 809.217 233.692C809.059 233.467 808.801 233.246 808.443 233.03C808.085 232.813 807.606 232.58 807.007 232.331C806.382 232.072 805.829 231.814 805.346 231.556C804.863 231.298 804.455 231.015 804.122 230.707C803.789 230.391 803.535 230.029 803.36 229.621C803.185 229.213 803.098 228.738 803.098 228.197C803.098 227.639 803.202 227.123 803.41 226.649C803.618 226.174 803.918 225.758 804.309 225.4C804.701 225.034 805.171 224.751 805.72 224.551C806.27 224.343 806.89 224.239 807.581 224.239C808.555 224.239 809.388 224.418 810.079 224.776C810.778 225.125 811.311 225.616 811.677 226.249C812.052 226.873 812.239 227.594 812.239 228.409H809.329C809.329 228.068 809.267 227.76 809.142 227.485C809.017 227.202 808.826 226.978 808.568 226.811C808.31 226.636 807.981 226.549 807.581 226.549C807.215 226.549 806.907 226.62 806.657 226.761C806.416 226.894 806.232 227.077 806.108 227.311C805.991 227.535 805.933 227.789 805.933 228.072C805.933 228.28 805.97 228.464 806.045 228.622C806.12 228.78 806.245 228.934 806.42 229.084C806.595 229.225 806.828 229.371 807.119 229.521C807.419 229.671 807.798 229.841 808.255 230.033C809.163 230.382 809.916 230.745 810.516 231.119C811.115 231.494 811.565 231.931 811.864 232.43C812.164 232.93 812.314 233.55 812.314 234.291C812.314 234.891 812.202 235.432 811.977 235.915C811.76 236.397 811.444 236.814 811.028 237.163C810.62 237.513 810.124 237.784 809.542 237.975C808.967 238.158 808.326 238.25 807.619 238.25C806.561 238.25 805.666 238.042 804.934 237.625C804.209 237.201 803.66 236.655 803.285 235.989C802.911 235.323 802.723 234.62 802.723 233.879H805.533C805.558 234.412 805.671 234.828 805.87 235.128C806.078 235.428 806.341 235.636 806.657 235.752C806.973 235.86 807.302 235.915 807.644 235.915C808.052 235.915 808.389 235.86 808.655 235.752C808.921 235.636 809.121 235.465 809.255 235.24C809.396 235.015 809.467 234.749 809.467 234.441ZM820.306 224.488V226.736H813.675V224.488H820.306ZM815.486 221.179H818.383V234.229C818.383 234.645 818.429 234.961 818.52 235.178C818.612 235.394 818.741 235.54 818.908 235.615C819.074 235.69 819.27 235.727 819.494 235.727C819.661 235.727 819.823 235.715 819.981 235.69C820.148 235.656 820.269 235.627 820.344 235.602V237.95C820.127 238.033 819.877 238.104 819.594 238.162C819.311 238.221 818.97 238.25 818.57 238.25C817.979 238.25 817.451 238.129 816.984 237.888C816.518 237.638 816.152 237.234 815.885 236.676C815.619 236.11 815.486 235.361 815.486 234.429V221.179ZM827.736 238.25C826.862 238.25 826.084 238.121 825.401 237.863C824.718 237.596 824.14 237.205 823.665 236.689C823.191 236.164 822.829 235.523 822.579 234.766C822.329 234 822.204 233.113 822.204 232.106V230.807C822.204 229.667 822.333 228.684 822.591 227.86C822.858 227.027 823.224 226.345 823.69 225.812C824.157 225.279 824.706 224.884 825.339 224.626C825.98 224.368 826.675 224.239 827.424 224.239C828.273 224.239 829.01 224.376 829.634 224.651C830.259 224.925 830.771 225.337 831.17 225.887C831.578 226.436 831.878 227.115 832.07 227.922C832.269 228.73 832.369 229.658 832.369 230.707V232.168H823.603V229.97H829.497V229.658C829.48 229.042 829.406 228.514 829.272 228.072C829.139 227.623 828.923 227.281 828.623 227.048C828.332 226.807 827.928 226.686 827.412 226.686C827.037 226.686 826.704 226.757 826.413 226.898C826.121 227.04 825.88 227.269 825.688 227.585C825.505 227.902 825.364 228.326 825.264 228.859C825.164 229.383 825.114 230.033 825.114 230.807V232.106C825.114 232.78 825.172 233.35 825.289 233.817C825.414 234.283 825.597 234.666 825.838 234.965C826.08 235.257 826.371 235.473 826.712 235.615C827.062 235.748 827.466 235.815 827.924 235.815C828.598 235.815 829.177 235.69 829.659 235.44C830.151 235.182 830.575 234.849 830.933 234.441L832.219 236.227C831.978 236.551 831.653 236.872 831.245 237.188C830.837 237.496 830.342 237.75 829.759 237.95C829.185 238.15 828.511 238.25 827.736 238.25ZM841.498 235.178V218.819H844.407V238L841.773 238.012L841.498 235.178ZM834.242 231.794V230.732C834.242 229.625 834.342 228.668 834.542 227.86C834.742 227.044 835.033 226.366 835.416 225.824C835.808 225.283 836.278 224.884 836.827 224.626C837.377 224.368 837.997 224.239 838.688 224.239C839.362 224.239 839.945 224.393 840.436 224.701C840.928 225 841.344 225.429 841.685 225.987C842.026 226.545 842.297 227.211 842.497 227.985C842.705 228.751 842.846 229.608 842.921 230.557V232.031C842.83 232.947 842.684 233.787 842.484 234.553C842.285 235.311 842.014 235.965 841.673 236.514C841.331 237.063 840.911 237.492 840.411 237.8C839.92 238.1 839.342 238.25 838.676 238.25C837.985 238.25 837.364 238.112 836.815 237.838C836.274 237.563 835.808 237.155 835.416 236.614C835.033 236.073 834.742 235.403 834.542 234.603C834.342 233.796 834.242 232.859 834.242 231.794ZM837.152 230.732V231.794C837.152 232.485 837.194 233.08 837.277 233.579C837.36 234.079 837.493 234.491 837.677 234.816C837.86 235.132 838.101 235.369 838.401 235.527C838.701 235.677 839.063 235.752 839.487 235.752C840.02 235.752 840.453 235.619 840.786 235.353C841.127 235.086 841.39 234.728 841.573 234.279C841.764 233.821 841.897 233.313 841.972 232.755V229.846C841.931 229.404 841.847 228.996 841.723 228.622C841.598 228.239 841.435 227.906 841.236 227.623C841.036 227.34 840.79 227.119 840.499 226.961C840.216 226.794 839.883 226.711 839.5 226.711C839.075 226.711 838.713 226.794 838.413 226.961C838.114 227.119 837.872 227.365 837.689 227.698C837.506 228.022 837.369 228.439 837.277 228.946C837.194 229.446 837.152 230.041 837.152 230.732ZM856.146 218.819V238H853.249V218.819H856.146ZM855.634 230.757H854.71C854.701 229.816 854.801 228.951 855.01 228.16C855.218 227.369 855.517 226.678 855.909 226.087C856.3 225.496 856.77 225.042 857.32 224.726C857.878 224.401 858.494 224.239 859.168 224.239C859.726 224.239 860.229 224.334 860.679 224.526C861.137 224.709 861.528 225 861.853 225.4C862.186 225.8 862.44 226.324 862.615 226.973C862.789 227.614 862.877 228.397 862.877 229.321V238H859.967V229.296C859.967 228.655 859.896 228.147 859.755 227.773C859.622 227.398 859.422 227.127 859.155 226.961C858.889 226.794 858.552 226.711 858.144 226.711C857.744 226.711 857.386 226.819 857.07 227.036C856.762 227.244 856.5 227.535 856.283 227.91C856.067 228.276 855.904 228.705 855.796 229.196C855.688 229.679 855.634 230.199 855.634 230.757ZM870.944 238.25C870.07 238.25 869.291 238.121 868.609 237.863C867.926 237.596 867.347 237.205 866.873 236.689C866.398 236.164 866.036 235.523 865.786 234.766C865.537 234 865.412 233.113 865.412 232.106V230.807C865.412 229.667 865.541 228.684 865.799 227.86C866.065 227.027 866.432 226.345 866.898 225.812C867.364 225.279 867.913 224.884 868.546 224.626C869.187 224.368 869.882 224.239 870.632 224.239C871.481 224.239 872.218 224.376 872.842 224.651C873.466 224.925 873.978 225.337 874.378 225.887C874.786 226.436 875.086 227.115 875.277 227.922C875.477 228.73 875.577 229.658 875.577 230.707V232.168H866.81V229.97H872.705V229.658C872.688 229.042 872.613 228.514 872.48 228.072C872.347 227.623 872.13 227.281 871.83 227.048C871.539 226.807 871.135 226.686 870.619 226.686C870.245 226.686 869.912 226.757 869.62 226.898C869.329 227.04 869.087 227.269 868.896 227.585C868.713 227.902 868.571 228.326 868.471 228.859C868.371 229.383 868.321 230.033 868.321 230.807V232.106C868.321 232.78 868.38 233.35 868.496 233.817C868.621 234.283 868.804 234.666 869.046 234.965C869.287 235.257 869.579 235.473 869.92 235.615C870.27 235.748 870.673 235.815 871.131 235.815C871.805 235.815 872.384 235.69 872.867 235.44C873.358 235.182 873.783 234.849 874.141 234.441L875.427 236.227C875.186 236.551 874.861 236.872 874.453 237.188C874.045 237.496 873.55 237.75 872.967 237.95C872.392 238.15 871.718 238.25 870.944 238.25ZM880.822 227.098V238H877.912V224.488H880.684L880.822 227.098ZM884.081 224.401L884.068 227.273C883.902 227.231 883.723 227.206 883.531 227.198C883.348 227.181 883.165 227.173 882.982 227.173C882.582 227.173 882.237 227.244 881.946 227.385C881.654 227.527 881.409 227.731 881.209 227.997C881.009 228.264 880.851 228.584 880.734 228.959C880.626 229.334 880.559 229.758 880.534 230.233L879.91 230.258C879.91 229.408 879.977 228.622 880.11 227.897C880.243 227.165 880.443 226.528 880.709 225.987C880.984 225.437 881.325 225.009 881.733 224.701C882.141 224.393 882.616 224.239 883.157 224.239C883.307 224.239 883.477 224.255 883.669 224.288C883.86 224.322 883.998 224.359 884.081 224.401ZM890.999 238.25C890.125 238.25 889.347 238.121 888.664 237.863C887.981 237.596 887.403 237.205 886.928 236.689C886.454 236.164 886.091 235.523 885.842 234.766C885.592 234 885.467 233.113 885.467 232.106V230.807C885.467 229.667 885.596 228.684 885.854 227.86C886.121 227.027 886.487 226.345 886.953 225.812C887.419 225.279 887.969 224.884 888.601 224.626C889.242 224.368 889.938 224.239 890.687 224.239C891.536 224.239 892.273 224.376 892.897 224.651C893.522 224.925 894.034 225.337 894.433 225.887C894.841 226.436 895.141 227.115 895.332 227.922C895.532 228.73 895.632 229.658 895.632 230.707V232.168H886.866V229.97H892.76V229.658C892.743 229.042 892.668 228.514 892.535 228.072C892.402 227.623 892.185 227.281 891.886 227.048C891.594 226.807 891.191 226.686 890.674 226.686C890.3 226.686 889.967 226.757 889.675 226.898C889.384 227.04 889.143 227.269 888.951 227.585C888.768 227.902 888.626 228.326 888.527 228.859C888.427 229.383 888.377 230.033 888.377 230.807V232.106C888.377 232.78 888.435 233.35 888.551 233.817C888.676 234.283 888.86 234.666 889.101 234.965C889.342 235.257 889.634 235.473 889.975 235.615C890.325 235.748 890.729 235.815 891.186 235.815C891.861 235.815 892.439 235.69 892.922 235.44C893.413 235.182 893.838 234.849 894.196 234.441L895.482 236.227C895.241 236.551 894.916 236.872 894.508 237.188C894.1 237.496 893.605 237.75 893.022 237.95C892.448 238.15 891.773 238.25 890.999 238.25ZM901.351 219.818L901.052 232.618H898.567L898.267 219.818H901.351ZM898.217 236.539C898.217 236.081 898.359 235.694 898.642 235.378C898.933 235.053 899.328 234.891 899.828 234.891C900.336 234.891 900.731 235.053 901.014 235.378C901.297 235.694 901.439 236.081 901.439 236.539C901.439 236.997 901.297 237.388 901.014 237.713C900.731 238.029 900.336 238.187 899.828 238.187C899.328 238.187 898.933 238.029 898.642 237.713C898.359 237.388 898.217 236.997 898.217 236.539Z" fill="white"/>
<path d="M693.884 136.031V127.165M693.884 118.299H693.906M716.048 127.165C716.048 139.406 706.125 149.33 693.884 149.33C681.642 149.33 671.719 139.406 671.719 127.165C671.719 114.924 681.642 105 693.884 105C706.125 105 716.048 114.924 716.048 127.165Z" stroke="white" stroke-width="5.96746" stroke-linecap="round" stroke-linejoin="round"/>
</g>
</svg>
