<svg width="1398" height="333" viewBox="0 0 1398 333" fill="none" xmlns="http://www.w3.org/2000/svg">
<rect width="1398" height="333" rx="30.9237" fill="#A296CC"/>
<g opacity="0.6">
<path d="M520.201 185.818V204H517.229L510.81 191.412V204H507.876V185.818H510.81L517.279 198.493V185.818H520.201ZM522.973 197.794V196.707C522.973 195.658 523.102 194.73 523.36 193.922C523.618 193.115 523.985 192.441 524.459 191.899C524.942 191.35 525.508 190.938 526.158 190.663C526.807 190.38 527.523 190.239 528.305 190.239C529.105 190.239 529.829 190.38 530.478 190.663C531.136 190.938 531.702 191.35 532.177 191.899C532.659 192.441 533.03 193.115 533.288 193.922C533.546 194.73 533.675 195.658 533.675 196.707V197.794C533.675 198.843 533.546 199.771 533.288 200.578C533.03 201.386 532.659 202.064 532.177 202.614C531.702 203.155 531.14 203.563 530.491 203.838C529.841 204.112 529.121 204.25 528.33 204.25C527.548 204.25 526.828 204.112 526.17 203.838C525.521 203.563 524.955 203.155 524.472 202.614C523.989 202.064 523.618 201.386 523.36 200.578C523.102 199.771 522.973 198.843 522.973 197.794ZM525.883 196.707V197.794C525.883 198.468 525.941 199.059 526.058 199.567C526.174 200.066 526.341 200.483 526.557 200.816C526.774 201.149 527.032 201.398 527.331 201.565C527.631 201.731 527.964 201.815 528.33 201.815C528.738 201.815 529.092 201.731 529.392 201.565C529.7 201.398 529.954 201.149 530.154 200.816C530.362 200.483 530.516 200.066 530.616 199.567C530.716 199.059 530.766 198.468 530.766 197.794V196.707C530.766 196.041 530.707 195.458 530.591 194.959C530.474 194.451 530.308 194.031 530.091 193.698C529.875 193.356 529.612 193.102 529.304 192.936C529.005 192.769 528.672 192.686 528.305 192.686C527.947 192.686 527.619 192.769 527.319 192.936C527.028 193.102 526.774 193.356 526.557 193.698C526.341 194.031 526.174 194.451 526.058 194.959C525.941 195.458 525.883 196.041 525.883 196.707ZM548.336 200.441C548.336 200.158 548.252 199.908 548.086 199.692C547.928 199.467 547.67 199.246 547.312 199.03C546.954 198.813 546.475 198.58 545.876 198.331C545.251 198.072 544.698 197.814 544.215 197.556C543.732 197.298 543.324 197.015 542.991 196.707C542.658 196.391 542.404 196.029 542.229 195.621C542.054 195.213 541.967 194.738 541.967 194.197C541.967 193.639 542.071 193.123 542.279 192.649C542.487 192.174 542.787 191.758 543.178 191.4C543.57 191.034 544.04 190.751 544.589 190.551C545.139 190.343 545.759 190.239 546.45 190.239C547.424 190.239 548.257 190.418 548.948 190.776C549.647 191.125 550.18 191.616 550.546 192.249C550.921 192.873 551.108 193.594 551.108 194.409H548.198C548.198 194.068 548.136 193.76 548.011 193.485C547.886 193.202 547.695 192.978 547.437 192.811C547.179 192.636 546.85 192.549 546.45 192.549C546.084 192.549 545.776 192.62 545.526 192.761C545.285 192.894 545.101 193.077 544.977 193.311C544.86 193.535 544.802 193.789 544.802 194.072C544.802 194.28 544.839 194.464 544.914 194.622C544.989 194.78 545.114 194.934 545.289 195.084C545.464 195.225 545.697 195.371 545.988 195.521C546.288 195.671 546.667 195.841 547.124 196.033C548.032 196.382 548.785 196.745 549.385 197.119C549.984 197.494 550.434 197.931 550.733 198.43C551.033 198.93 551.183 199.55 551.183 200.291C551.183 200.891 551.071 201.432 550.846 201.915C550.629 202.397 550.313 202.814 549.897 203.163C549.489 203.513 548.993 203.784 548.411 203.975C547.836 204.158 547.195 204.25 546.488 204.25C545.43 204.25 544.535 204.042 543.803 203.625C543.078 203.201 542.529 202.655 542.154 201.989C541.78 201.323 541.592 200.62 541.592 199.879H544.402C544.427 200.412 544.539 200.828 544.739 201.128C544.947 201.428 545.21 201.636 545.526 201.752C545.842 201.86 546.171 201.915 546.513 201.915C546.92 201.915 547.258 201.86 547.524 201.752C547.79 201.636 547.99 201.465 548.123 201.24C548.265 201.015 548.336 200.749 548.336 200.441ZM558.888 204.25C558.014 204.25 557.235 204.121 556.553 203.863C555.87 203.596 555.291 203.205 554.817 202.689C554.342 202.164 553.98 201.523 553.73 200.766C553.481 200 553.356 199.113 553.356 198.106V196.807C553.356 195.667 553.485 194.684 553.743 193.86C554.009 193.027 554.376 192.345 554.842 191.812C555.308 191.279 555.858 190.884 556.49 190.626C557.131 190.368 557.826 190.239 558.576 190.239C559.425 190.239 560.162 190.376 560.786 190.651C561.41 190.925 561.922 191.337 562.322 191.887C562.73 192.436 563.03 193.115 563.221 193.922C563.421 194.73 563.521 195.658 563.521 196.707V198.168H554.754V195.97H560.649V195.658C560.632 195.042 560.557 194.514 560.424 194.072C560.291 193.623 560.074 193.281 559.774 193.048C559.483 192.807 559.079 192.686 558.563 192.686C558.189 192.686 557.856 192.757 557.564 192.898C557.273 193.04 557.031 193.269 556.84 193.585C556.657 193.902 556.515 194.326 556.415 194.859C556.315 195.383 556.265 196.033 556.265 196.807V198.106C556.265 198.78 556.324 199.35 556.44 199.817C556.565 200.283 556.748 200.666 556.99 200.965C557.231 201.257 557.523 201.473 557.864 201.615C558.214 201.748 558.617 201.815 559.075 201.815C559.75 201.815 560.328 201.69 560.811 201.44C561.302 201.182 561.727 200.849 562.085 200.441L563.371 202.227C563.13 202.551 562.805 202.872 562.397 203.188C561.989 203.496 561.494 203.75 560.911 203.95C560.336 204.15 559.662 204.25 558.888 204.25ZM572.112 200.441C572.112 200.158 572.029 199.908 571.863 199.692C571.704 199.467 571.446 199.246 571.088 199.03C570.73 198.813 570.252 198.58 569.652 198.331C569.028 198.072 568.474 197.814 567.991 197.556C567.509 197.298 567.101 197.015 566.768 196.707C566.435 196.391 566.181 196.029 566.006 195.621C565.831 195.213 565.744 194.738 565.744 194.197C565.744 193.639 565.848 193.123 566.056 192.649C566.264 192.174 566.564 191.758 566.955 191.4C567.346 191.034 567.817 190.751 568.366 190.551C568.915 190.343 569.536 190.239 570.227 190.239C571.201 190.239 572.033 190.418 572.724 190.776C573.424 191.125 573.956 191.616 574.323 192.249C574.697 192.873 574.885 193.594 574.885 194.409H571.975C571.975 194.068 571.913 193.76 571.788 193.485C571.663 193.202 571.471 192.978 571.213 192.811C570.955 192.636 570.626 192.549 570.227 192.549C569.86 192.549 569.552 192.62 569.303 192.761C569.061 192.894 568.878 193.077 568.753 193.311C568.637 193.535 568.578 193.789 568.578 194.072C568.578 194.28 568.616 194.464 568.691 194.622C568.766 194.78 568.891 194.934 569.065 195.084C569.24 195.225 569.473 195.371 569.765 195.521C570.064 195.671 570.443 195.841 570.901 196.033C571.808 196.382 572.562 196.745 573.161 197.119C573.761 197.494 574.21 197.931 574.51 198.43C574.81 198.93 574.96 199.55 574.96 200.291C574.96 200.891 574.847 201.432 574.622 201.915C574.406 202.397 574.09 202.814 573.673 203.163C573.265 203.513 572.77 203.784 572.187 203.975C571.613 204.158 570.972 204.25 570.264 204.25C569.207 204.25 568.312 204.042 567.579 203.625C566.855 203.201 566.306 202.655 565.931 201.989C565.556 201.323 565.369 200.62 565.369 199.879H568.179C568.204 200.412 568.316 200.828 568.516 201.128C568.724 201.428 568.986 201.636 569.303 201.752C569.619 201.86 569.948 201.915 570.289 201.915C570.697 201.915 571.034 201.86 571.301 201.752C571.567 201.636 571.767 201.465 571.9 201.24C572.042 201.015 572.112 200.749 572.112 200.441ZM583.751 200.441C583.751 200.158 583.668 199.908 583.501 199.692C583.343 199.467 583.085 199.246 582.727 199.03C582.369 198.813 581.89 198.58 581.291 198.331C580.666 198.072 580.113 197.814 579.63 197.556C579.147 197.298 578.739 197.015 578.406 196.707C578.073 196.391 577.819 196.029 577.644 195.621C577.47 195.213 577.382 194.738 577.382 194.197C577.382 193.639 577.486 193.123 577.694 192.649C577.902 192.174 578.202 191.758 578.593 191.4C578.985 191.034 579.455 190.751 580.005 190.551C580.554 190.343 581.174 190.239 581.865 190.239C582.839 190.239 583.672 190.418 584.363 190.776C585.062 191.125 585.595 191.616 585.961 192.249C586.336 192.873 586.523 193.594 586.523 194.409H583.614C583.614 194.068 583.551 193.76 583.426 193.485C583.301 193.202 583.11 192.978 582.852 192.811C582.594 192.636 582.265 192.549 581.865 192.549C581.499 192.549 581.191 192.62 580.941 192.761C580.7 192.894 580.517 193.077 580.392 193.311C580.275 193.535 580.217 193.789 580.217 194.072C580.217 194.28 580.254 194.464 580.329 194.622C580.404 194.78 580.529 194.934 580.704 195.084C580.879 195.225 581.112 195.371 581.403 195.521C581.703 195.671 582.082 195.841 582.54 196.033C583.447 196.382 584.2 196.745 584.8 197.119C585.399 197.494 585.849 197.931 586.149 198.43C586.448 198.93 586.598 199.55 586.598 200.291C586.598 200.891 586.486 201.432 586.261 201.915C586.044 202.397 585.728 202.814 585.312 203.163C584.904 203.513 584.409 203.784 583.826 203.975C583.251 204.158 582.61 204.25 581.903 204.25C580.845 204.25 579.95 204.042 579.218 203.625C578.494 203.201 577.944 202.655 577.569 201.989C577.195 201.323 577.008 200.62 577.008 199.879H579.817C579.842 200.412 579.955 200.828 580.154 201.128C580.363 201.428 580.625 201.636 580.941 201.752C581.258 201.86 581.586 201.915 581.928 201.915C582.336 201.915 582.673 201.86 582.939 201.752C583.206 201.636 583.405 201.465 583.539 201.24C583.68 201.015 583.751 200.749 583.751 200.441ZM592.218 190.488V204H589.308V190.488H592.218ZM589.158 186.942C589.158 186.476 589.3 186.088 589.583 185.78C589.866 185.472 590.261 185.318 590.769 185.318C591.277 185.318 591.672 185.472 591.955 185.78C592.238 186.088 592.38 186.476 592.38 186.942C592.38 187.4 592.238 187.783 591.955 188.091C591.672 188.399 591.277 188.553 590.769 188.553C590.261 188.553 589.866 188.399 589.583 188.091C589.3 187.783 589.158 187.4 589.158 186.942ZM594.902 197.794V196.707C594.902 195.658 595.031 194.73 595.29 193.922C595.548 193.115 595.914 192.441 596.388 191.899C596.871 191.35 597.437 190.938 598.087 190.663C598.736 190.38 599.452 190.239 600.235 190.239C601.034 190.239 601.758 190.38 602.408 190.663C603.065 190.938 603.631 191.35 604.106 191.899C604.589 192.441 604.959 193.115 605.217 193.922C605.475 194.73 605.604 195.658 605.604 196.707V197.794C605.604 198.843 605.475 199.771 605.217 200.578C604.959 201.386 604.589 202.064 604.106 202.614C603.631 203.155 603.069 203.563 602.42 203.838C601.771 204.112 601.051 204.25 600.26 204.25C599.477 204.25 598.757 204.112 598.099 203.838C597.45 203.563 596.884 203.155 596.401 202.614C595.918 202.064 595.548 201.386 595.29 200.578C595.031 199.771 594.902 198.843 594.902 197.794ZM597.812 196.707V197.794C597.812 198.468 597.87 199.059 597.987 199.567C598.103 200.066 598.27 200.483 598.486 200.816C598.703 201.149 598.961 201.398 599.261 201.565C599.56 201.731 599.893 201.815 600.26 201.815C600.668 201.815 601.021 201.731 601.321 201.565C601.629 201.398 601.883 201.149 602.083 200.816C602.291 200.483 602.445 200.066 602.545 199.567C602.645 199.059 602.695 198.468 602.695 197.794V196.707C602.695 196.041 602.636 195.458 602.52 194.959C602.403 194.451 602.237 194.031 602.02 193.698C601.804 193.356 601.542 193.102 601.234 192.936C600.934 192.769 600.601 192.686 600.235 192.686C599.877 192.686 599.548 192.769 599.248 192.936C598.957 193.102 598.703 193.356 598.486 193.698C598.27 194.031 598.103 194.451 597.987 194.959C597.87 195.458 597.812 196.041 597.812 196.707ZM610.987 193.373V204H608.077V190.488H610.812L610.987 193.373ZM610.462 196.757H609.538C609.53 195.783 609.634 194.896 609.85 194.097C610.067 193.298 610.375 192.611 610.774 192.037C611.174 191.462 611.653 191.021 612.21 190.713C612.777 190.397 613.405 190.239 614.096 190.239C614.637 190.239 615.128 190.33 615.57 190.513C616.019 190.688 616.402 190.975 616.718 191.375C617.035 191.775 617.276 192.295 617.443 192.936C617.618 193.577 617.705 194.359 617.705 195.284V204H614.795V195.259C614.795 194.626 614.725 194.126 614.583 193.76C614.45 193.385 614.25 193.119 613.984 192.961C613.717 192.794 613.38 192.711 612.972 192.711C612.598 192.711 612.252 192.819 611.936 193.036C611.628 193.244 611.361 193.535 611.136 193.91C610.92 194.276 610.753 194.705 610.637 195.196C610.52 195.679 610.462 196.199 610.462 196.757ZM626.883 200.441C626.883 200.158 626.8 199.908 626.634 199.692C626.476 199.467 626.217 199.246 625.859 199.03C625.501 198.813 625.023 198.58 624.423 198.331C623.799 198.072 623.245 197.814 622.763 197.556C622.28 197.298 621.872 197.015 621.539 196.707C621.206 196.391 620.952 196.029 620.777 195.621C620.602 195.213 620.515 194.738 620.515 194.197C620.515 193.639 620.619 193.123 620.827 192.649C621.035 192.174 621.335 191.758 621.726 191.4C622.117 191.034 622.588 190.751 623.137 190.551C623.687 190.343 624.307 190.239 624.998 190.239C625.972 190.239 626.804 190.418 627.495 190.776C628.195 191.125 628.727 191.616 629.094 192.249C629.468 192.873 629.656 193.594 629.656 194.409H626.746C626.746 194.068 626.684 193.76 626.559 193.485C626.434 193.202 626.242 192.978 625.984 192.811C625.726 192.636 625.397 192.549 624.998 192.549C624.632 192.549 624.323 192.62 624.074 192.761C623.832 192.894 623.649 193.077 623.524 193.311C623.408 193.535 623.349 193.789 623.349 194.072C623.349 194.28 623.387 194.464 623.462 194.622C623.537 194.78 623.662 194.934 623.836 195.084C624.011 195.225 624.244 195.371 624.536 195.521C624.835 195.671 625.214 195.841 625.672 196.033C626.58 196.382 627.333 196.745 627.932 197.119C628.532 197.494 628.981 197.931 629.281 198.43C629.581 198.93 629.731 199.55 629.731 200.291C629.731 200.891 629.618 201.432 629.393 201.915C629.177 202.397 628.861 202.814 628.444 203.163C628.036 203.513 627.541 203.784 626.958 203.975C626.384 204.158 625.743 204.25 625.035 204.25C623.978 204.25 623.083 204.042 622.35 203.625C621.626 203.201 621.077 202.655 620.702 201.989C620.327 201.323 620.14 200.62 620.14 199.879H622.95C622.975 200.412 623.087 200.828 623.287 201.128C623.495 201.428 623.757 201.636 624.074 201.752C624.39 201.86 624.719 201.915 625.06 201.915C625.468 201.915 625.805 201.86 626.072 201.752C626.338 201.636 626.538 201.465 626.671 201.24C626.813 201.015 626.883 200.749 626.883 200.441ZM641.02 184.819V204H638.122V184.819H641.02ZM640.508 196.757H639.583C639.575 195.816 639.675 194.951 639.883 194.16C640.091 193.369 640.391 192.678 640.782 192.087C641.174 191.496 641.644 191.042 642.193 190.726C642.751 190.401 643.367 190.239 644.042 190.239C644.599 190.239 645.103 190.334 645.553 190.526C646.01 190.709 646.402 191 646.726 191.4C647.059 191.8 647.313 192.324 647.488 192.973C647.663 193.614 647.75 194.397 647.75 195.321V204H644.841V195.296C644.841 194.655 644.77 194.147 644.628 193.773C644.495 193.398 644.295 193.127 644.029 192.961C643.763 192.794 643.426 192.711 643.018 192.711C642.618 192.711 642.26 192.819 641.944 193.036C641.636 193.244 641.373 193.535 641.157 193.91C640.94 194.276 640.778 194.705 640.67 195.196C640.562 195.679 640.508 196.199 640.508 196.757ZM656.916 201.253V194.522C656.916 194.056 656.85 193.681 656.717 193.398C656.592 193.115 656.404 192.911 656.155 192.786C655.913 192.653 655.609 192.586 655.243 192.586C654.86 192.586 654.535 192.665 654.269 192.823C654.011 192.982 653.815 193.198 653.682 193.473C653.549 193.739 653.482 194.047 653.482 194.397H650.573C650.573 193.856 650.681 193.335 650.897 192.836C651.122 192.336 651.443 191.891 651.859 191.5C652.275 191.109 652.779 190.8 653.37 190.576C653.961 190.351 654.619 190.239 655.343 190.239C656.209 190.239 656.979 190.384 657.653 190.676C658.328 190.959 658.856 191.421 659.239 192.062C659.63 192.694 659.826 193.527 659.826 194.559V200.866C659.826 201.49 659.864 202.048 659.938 202.539C660.022 203.022 660.134 203.442 660.276 203.8V204H657.316C657.183 203.675 657.083 203.259 657.016 202.751C656.95 202.243 656.916 201.744 656.916 201.253ZM657.304 195.771L657.316 197.656H655.917C655.501 197.656 655.126 197.715 654.793 197.831C654.46 197.939 654.177 198.097 653.944 198.306C653.72 198.505 653.545 198.751 653.42 199.042C653.303 199.334 653.245 199.654 653.245 200.004C653.245 200.429 653.303 200.774 653.42 201.04C653.545 201.307 653.724 201.507 653.957 201.64C654.198 201.765 654.49 201.827 654.831 201.827C655.297 201.827 655.701 201.727 656.042 201.527C656.392 201.319 656.658 201.07 656.841 200.778C657.033 200.487 657.108 200.22 657.066 199.979L657.728 201.19C657.662 201.507 657.537 201.84 657.353 202.189C657.179 202.539 656.95 202.872 656.667 203.188C656.384 203.505 656.042 203.763 655.643 203.963C655.243 204.154 654.781 204.25 654.257 204.25C653.499 204.25 652.825 204.092 652.234 203.775C651.642 203.459 651.176 203.005 650.835 202.414C650.502 201.815 650.335 201.099 650.335 200.266C650.335 199.592 650.448 198.98 650.673 198.43C650.897 197.881 651.23 197.411 651.672 197.019C652.113 196.62 652.666 196.312 653.332 196.095C654.007 195.879 654.793 195.771 655.693 195.771H657.304ZM666.382 201.577L668.88 190.488H671.889L668.043 204H666.182L666.382 201.577ZM664.609 190.488L667.194 201.615L667.319 204H665.47L661.599 190.488H664.609ZM678.845 204.25C677.971 204.25 677.192 204.121 676.51 203.863C675.827 203.596 675.248 203.205 674.774 202.689C674.299 202.164 673.937 201.523 673.687 200.766C673.438 200 673.313 199.113 673.313 198.106V196.807C673.313 195.667 673.442 194.684 673.7 193.86C673.966 193.027 674.333 192.345 674.799 191.812C675.265 191.279 675.814 190.884 676.447 190.626C677.088 190.368 677.783 190.239 678.533 190.239C679.382 190.239 680.119 190.376 680.743 190.651C681.367 190.925 681.879 191.337 682.279 191.887C682.687 192.436 682.987 193.115 683.178 193.922C683.378 194.73 683.478 195.658 683.478 196.707V198.168H674.711V195.97H680.606V195.658C680.589 195.042 680.514 194.514 680.381 194.072C680.248 193.623 680.031 193.281 679.731 193.048C679.44 192.807 679.036 192.686 678.52 192.686C678.146 192.686 677.813 192.757 677.521 192.898C677.23 193.04 676.988 193.269 676.797 193.585C676.614 193.902 676.472 194.326 676.372 194.859C676.272 195.383 676.222 196.033 676.222 196.807V198.106C676.222 198.78 676.281 199.35 676.397 199.817C676.522 200.283 676.705 200.666 676.947 200.965C677.188 201.257 677.48 201.473 677.821 201.615C678.17 201.748 678.574 201.815 679.032 201.815C679.706 201.815 680.285 201.69 680.768 201.44C681.259 201.182 681.684 200.849 682.042 200.441L683.328 202.227C683.086 202.551 682.762 202.872 682.354 203.188C681.946 203.496 681.451 203.75 680.868 203.95C680.293 204.15 679.619 204.25 678.845 204.25ZM691.72 184.819H694.617V201.103L694.392 204H691.72V184.819ZM701.897 196.72V197.781C701.897 198.863 701.806 199.808 701.622 200.616C701.439 201.423 701.165 202.098 700.798 202.639C700.432 203.18 699.974 203.584 699.425 203.85C698.875 204.117 698.234 204.25 697.501 204.25C696.819 204.25 696.228 204.1 695.728 203.8C695.237 203.492 694.821 203.063 694.479 202.514C694.146 201.956 693.88 201.294 693.68 200.528C693.489 199.763 693.347 198.918 693.256 197.993V196.507C693.339 195.583 693.476 194.738 693.668 193.972C693.868 193.198 694.134 192.536 694.467 191.987C694.8 191.429 695.216 191 695.716 190.701C696.215 190.393 696.806 190.239 697.489 190.239C698.23 190.239 698.875 190.372 699.425 190.638C699.974 190.905 700.432 191.308 700.798 191.849C701.165 192.382 701.439 193.057 701.622 193.872C701.806 194.68 701.897 195.629 701.897 196.72ZM698.988 197.781V196.72C698.988 196.037 698.95 195.446 698.875 194.946C698.809 194.447 698.688 194.035 698.513 193.71C698.346 193.377 698.113 193.127 697.814 192.961C697.514 192.794 697.135 192.711 696.677 192.711C696.278 192.711 695.932 192.79 695.641 192.948C695.358 193.107 695.116 193.331 694.917 193.623C694.717 193.906 694.559 194.235 694.442 194.609C694.325 194.976 694.246 195.371 694.205 195.796V198.705C694.263 199.263 694.38 199.775 694.554 200.241C694.738 200.707 695 201.078 695.341 201.353C695.691 201.627 696.144 201.765 696.702 201.765C697.143 201.765 697.51 201.69 697.801 201.54C698.093 201.39 698.326 201.153 698.5 200.828C698.684 200.503 698.809 200.091 698.875 199.592C698.95 199.084 698.988 198.48 698.988 197.781ZM709.515 204.25C708.641 204.25 707.862 204.121 707.179 203.863C706.497 203.596 705.918 203.205 705.444 202.689C704.969 202.164 704.607 201.523 704.357 200.766C704.107 200 703.983 199.113 703.983 198.106V196.807C703.983 195.667 704.112 194.684 704.37 193.86C704.636 193.027 705.002 192.345 705.469 191.812C705.935 191.279 706.484 190.884 707.117 190.626C707.758 190.368 708.453 190.239 709.202 190.239C710.052 190.239 710.788 190.376 711.413 190.651C712.037 190.925 712.549 191.337 712.949 191.887C713.357 192.436 713.656 193.115 713.848 193.922C714.048 194.73 714.148 195.658 714.148 196.707V198.168H705.381V195.97H711.275V195.658C711.259 195.042 711.184 194.514 711.051 194.072C710.917 193.623 710.701 193.281 710.401 193.048C710.11 192.807 709.706 192.686 709.19 192.686C708.815 192.686 708.482 192.757 708.191 192.898C707.9 193.04 707.658 193.269 707.467 193.585C707.284 193.902 707.142 194.326 707.042 194.859C706.942 195.383 706.892 196.033 706.892 196.807V198.106C706.892 198.78 706.951 199.35 707.067 199.817C707.192 200.283 707.375 200.666 707.617 200.965C707.858 201.257 708.149 201.473 708.491 201.615C708.84 201.748 709.244 201.815 709.702 201.815C710.376 201.815 710.955 201.69 711.438 201.44C711.929 201.182 712.354 200.849 712.712 200.441L713.998 202.227C713.756 202.551 713.432 202.872 713.024 203.188C712.616 203.496 712.12 203.75 711.538 203.95C710.963 204.15 710.289 204.25 709.515 204.25ZM721.653 204.25C720.779 204.25 720 204.121 719.318 203.863C718.635 203.596 718.056 203.205 717.582 202.689C717.107 202.164 716.745 201.523 716.495 200.766C716.246 200 716.121 199.113 716.121 198.106V196.807C716.121 195.667 716.25 194.684 716.508 193.86C716.774 193.027 717.14 192.345 717.607 191.812C718.073 191.279 718.622 190.884 719.255 190.626C719.896 190.368 720.591 190.239 721.341 190.239C722.19 190.239 722.926 190.376 723.551 190.651C724.175 190.925 724.687 191.337 725.087 191.887C725.495 192.436 725.794 193.115 725.986 193.922C726.186 194.73 726.286 195.658 726.286 196.707V198.168H717.519V195.97H723.413V195.658C723.397 195.042 723.322 194.514 723.189 194.072C723.055 193.623 722.839 193.281 722.539 193.048C722.248 192.807 721.844 192.686 721.328 192.686C720.953 192.686 720.62 192.757 720.329 192.898C720.038 193.04 719.796 193.269 719.605 193.585C719.422 193.902 719.28 194.326 719.18 194.859C719.08 195.383 719.03 196.033 719.03 196.807V198.106C719.03 198.78 719.089 199.35 719.205 199.817C719.33 200.283 719.513 200.666 719.755 200.965C719.996 201.257 720.287 201.473 720.629 201.615C720.978 201.748 721.382 201.815 721.84 201.815C722.514 201.815 723.093 201.69 723.576 201.44C724.067 201.182 724.492 200.849 724.85 200.441L726.136 202.227C725.894 202.551 725.57 202.872 725.162 203.188C724.754 203.496 724.258 203.75 723.676 203.95C723.101 204.15 722.427 204.25 721.653 204.25ZM731.493 193.373V204H728.583V190.488H731.318L731.493 193.373ZM730.969 196.757H730.044C730.036 195.783 730.14 194.896 730.357 194.097C730.573 193.298 730.881 192.611 731.281 192.037C731.68 191.462 732.159 191.021 732.717 190.713C733.283 190.397 733.911 190.239 734.602 190.239C735.144 190.239 735.635 190.33 736.076 190.513C736.526 190.688 736.909 190.975 737.225 191.375C737.541 191.775 737.783 192.295 737.949 192.936C738.124 193.577 738.211 194.359 738.211 195.284V204H735.302V195.259C735.302 194.626 735.231 194.126 735.089 193.76C734.956 193.385 734.756 193.119 734.49 192.961C734.224 192.794 733.887 192.711 733.479 192.711C733.104 192.711 732.758 192.819 732.442 193.036C732.134 193.244 731.868 193.535 731.643 193.91C731.426 194.276 731.26 194.705 731.143 195.196C731.027 195.679 730.969 196.199 730.969 196.757ZM751.823 201.815C752.198 201.815 752.531 201.736 752.822 201.577C753.122 201.419 753.359 201.174 753.534 200.841C753.709 200.499 753.804 200.058 753.821 199.517H756.556C756.539 200.474 756.319 201.311 755.894 202.027C755.469 202.735 754.903 203.284 754.196 203.675C753.496 204.058 752.718 204.25 751.86 204.25C750.97 204.25 750.191 204.108 749.525 203.825C748.868 203.534 748.322 203.113 747.889 202.564C747.456 202.014 747.132 201.348 746.915 200.566C746.707 199.775 746.603 198.872 746.603 197.856V196.632C746.603 195.625 746.707 194.726 746.915 193.935C747.132 193.144 747.456 192.474 747.889 191.924C748.322 191.375 748.868 190.959 749.525 190.676C750.183 190.384 750.957 190.239 751.848 190.239C752.797 190.239 753.617 190.438 754.308 190.838C755.007 191.229 755.553 191.804 755.944 192.561C756.335 193.319 756.539 194.247 756.556 195.346H753.821C753.804 194.763 753.717 194.276 753.559 193.885C753.401 193.485 753.176 193.186 752.884 192.986C752.601 192.786 752.243 192.686 751.811 192.686C751.336 192.686 750.945 192.778 750.637 192.961C750.337 193.136 750.104 193.394 749.937 193.735C749.779 194.076 749.667 194.493 749.6 194.984C749.542 195.467 749.513 196.016 749.513 196.632V197.856C749.513 198.489 749.542 199.051 749.6 199.542C749.658 200.025 749.767 200.437 749.925 200.778C750.091 201.12 750.329 201.378 750.637 201.552C750.945 201.727 751.34 201.815 751.823 201.815ZM758.392 197.794V196.707C758.392 195.658 758.521 194.73 758.779 193.922C759.037 193.115 759.403 192.441 759.878 191.899C760.36 191.35 760.927 190.938 761.576 190.663C762.225 190.38 762.941 190.239 763.724 190.239C764.523 190.239 765.247 190.38 765.897 190.663C766.554 190.938 767.12 191.35 767.595 191.899C768.078 192.441 768.448 193.115 768.706 193.922C768.964 194.73 769.094 195.658 769.094 196.707V197.794C769.094 198.843 768.964 199.771 768.706 200.578C768.448 201.386 768.078 202.064 767.595 202.614C767.12 203.155 766.559 203.563 765.909 203.838C765.26 204.112 764.54 204.25 763.749 204.25C762.966 204.25 762.246 204.112 761.588 203.838C760.939 203.563 760.373 203.155 759.89 202.614C759.407 202.064 759.037 201.386 758.779 200.578C758.521 199.771 758.392 198.843 758.392 197.794ZM761.301 196.707V197.794C761.301 198.468 761.359 199.059 761.476 199.567C761.593 200.066 761.759 200.483 761.976 200.816C762.192 201.149 762.45 201.398 762.75 201.565C763.049 201.731 763.382 201.815 763.749 201.815C764.157 201.815 764.511 201.731 764.81 201.565C765.118 201.398 765.372 201.149 765.572 200.816C765.78 200.483 765.934 200.066 766.034 199.567C766.134 199.059 766.184 198.468 766.184 197.794V196.707C766.184 196.041 766.126 195.458 766.009 194.959C765.893 194.451 765.726 194.031 765.51 193.698C765.293 193.356 765.031 193.102 764.723 192.936C764.423 192.769 764.09 192.686 763.724 192.686C763.366 192.686 763.037 192.769 762.737 192.936C762.446 193.102 762.192 193.356 761.976 193.698C761.759 194.031 761.593 194.451 761.476 194.959C761.359 195.458 761.301 196.041 761.301 196.707ZM774.476 193.373V204H771.566V190.488H774.301L774.476 193.373ZM773.951 196.757H773.027C773.019 195.783 773.123 194.896 773.339 194.097C773.556 193.298 773.864 192.611 774.263 192.037C774.663 191.462 775.142 191.021 775.7 190.713C776.266 190.397 776.894 190.239 777.585 190.239C778.126 190.239 778.617 190.33 779.059 190.513C779.508 190.688 779.891 190.975 780.208 191.375C780.524 191.775 780.765 192.295 780.932 192.936C781.107 193.577 781.194 194.359 781.194 195.284V204H778.284V195.259C778.284 194.626 778.214 194.126 778.072 193.76C777.939 193.385 777.739 193.119 777.473 192.961C777.206 192.794 776.869 192.711 776.461 192.711C776.087 192.711 775.741 192.819 775.425 193.036C775.117 193.244 774.85 193.535 774.626 193.91C774.409 194.276 774.243 194.705 774.126 195.196C774.01 195.679 773.951 196.199 773.951 196.757ZM787.7 204H784.791V189.639C784.791 188.54 784.982 187.616 785.365 186.867C785.748 186.109 786.302 185.535 787.026 185.144C787.75 184.752 788.612 184.557 789.611 184.557C790.194 184.557 790.747 184.627 791.272 184.769C791.805 184.91 792.354 185.089 792.92 185.306L792.471 187.816C792.138 187.666 791.746 187.529 791.297 187.404C790.855 187.279 790.36 187.217 789.811 187.217C789.061 187.217 788.52 187.42 788.187 187.828C787.863 188.228 787.7 188.832 787.7 189.639V204ZM789.836 190.488V192.736H783.092V190.488H789.836ZM794.269 190.488V204H791.359V190.488H794.269ZM800.338 193.098V204H797.428V190.488H800.2L800.338 193.098ZM803.597 190.401L803.585 193.273C803.418 193.231 803.239 193.206 803.048 193.198C802.864 193.181 802.681 193.173 802.498 193.173C802.099 193.173 801.753 193.244 801.462 193.385C801.17 193.527 800.925 193.731 800.725 193.997C800.525 194.264 800.367 194.584 800.25 194.959C800.142 195.334 800.076 195.758 800.051 196.233L799.426 196.258C799.426 195.408 799.493 194.622 799.626 193.897C799.759 193.165 799.959 192.528 800.225 191.987C800.5 191.437 800.841 191.009 801.249 190.701C801.657 190.393 802.132 190.239 802.673 190.239C802.823 190.239 802.994 190.255 803.185 190.288C803.376 190.322 803.514 190.359 803.597 190.401ZM808.517 193.236V204H805.608V190.488H808.342L808.517 193.236ZM808.043 196.757H807.056C807.04 195.816 807.123 194.951 807.306 194.16C807.497 193.369 807.78 192.678 808.155 192.087C808.538 191.496 809.017 191.042 809.591 190.726C810.174 190.401 810.844 190.239 811.602 190.239C812.11 190.239 812.576 190.33 813 190.513C813.433 190.688 813.808 190.967 814.124 191.35C814.449 191.733 814.699 192.224 814.873 192.823C815.048 193.423 815.136 194.147 815.136 194.996V204H812.226V195.271C812.226 194.622 812.151 194.114 812.001 193.748C811.86 193.373 811.652 193.107 811.377 192.948C811.102 192.79 810.769 192.711 810.378 192.711C809.953 192.711 809.591 192.819 809.291 193.036C808.992 193.244 808.75 193.535 808.567 193.91C808.384 194.276 808.251 194.705 808.168 195.196C808.084 195.679 808.043 196.199 808.043 196.757ZM814.948 195.983L813.587 196.295C813.571 195.471 813.654 194.692 813.837 193.96C814.02 193.227 814.295 192.586 814.661 192.037C815.036 191.479 815.502 191.042 816.06 190.726C816.626 190.401 817.279 190.239 818.02 190.239C818.603 190.239 819.123 190.334 819.581 190.526C820.039 190.709 820.431 191 820.755 191.4C821.08 191.8 821.325 192.32 821.492 192.961C821.667 193.594 821.754 194.364 821.754 195.271V204H818.832V195.259C818.832 194.584 818.757 194.064 818.607 193.698C818.466 193.331 818.258 193.077 817.983 192.936C817.708 192.786 817.379 192.711 816.996 192.711C816.663 192.711 816.368 192.799 816.11 192.973C815.86 193.14 815.648 193.373 815.473 193.673C815.298 193.972 815.165 194.322 815.073 194.722C814.99 195.113 814.948 195.533 814.948 195.983ZM829.871 204.25C828.997 204.25 828.219 204.121 827.536 203.863C826.853 203.596 826.275 203.205 825.8 202.689C825.326 202.164 824.964 201.523 824.714 200.766C824.464 200 824.339 199.113 824.339 198.106V196.807C824.339 195.667 824.468 194.684 824.726 193.86C824.993 193.027 825.359 192.345 825.825 191.812C826.291 191.279 826.841 190.884 827.474 190.626C828.115 190.368 828.81 190.239 829.559 190.239C830.408 190.239 831.145 190.376 831.769 190.651C832.394 190.925 832.906 191.337 833.305 191.887C833.713 192.436 834.013 193.115 834.204 193.922C834.404 194.73 834.504 195.658 834.504 196.707V198.168H825.738V195.97H831.632V195.658C831.615 195.042 831.54 194.514 831.407 194.072C831.274 193.623 831.058 193.281 830.758 193.048C830.466 192.807 830.063 192.686 829.547 192.686C829.172 192.686 828.839 192.757 828.548 192.898C828.256 193.04 828.015 193.269 827.823 193.585C827.64 193.902 827.499 194.326 827.399 194.859C827.299 195.383 827.249 196.033 827.249 196.807V198.106C827.249 198.78 827.307 199.35 827.424 199.817C827.549 200.283 827.732 200.666 827.973 200.965C828.215 201.257 828.506 201.473 828.847 201.615C829.197 201.748 829.601 201.815 830.059 201.815C830.733 201.815 831.311 201.69 831.794 201.44C832.286 201.182 832.71 200.849 833.068 200.441L834.354 202.227C834.113 202.551 833.788 202.872 833.38 203.188C832.972 203.496 832.477 203.75 831.894 203.95C831.32 204.15 830.645 204.25 829.871 204.25ZM843.633 201.178V184.819H846.542V204L843.907 204.012L843.633 201.178ZM836.377 197.794V196.732C836.377 195.625 836.477 194.668 836.677 193.86C836.877 193.044 837.168 192.366 837.551 191.824C837.942 191.283 838.413 190.884 838.962 190.626C839.512 190.368 840.132 190.239 840.823 190.239C841.497 190.239 842.08 190.393 842.571 190.701C843.062 191 843.479 191.429 843.82 191.987C844.161 192.545 844.432 193.211 844.632 193.985C844.84 194.751 844.981 195.608 845.056 196.557V198.031C844.965 198.947 844.819 199.787 844.619 200.553C844.419 201.311 844.149 201.965 843.808 202.514C843.466 203.063 843.046 203.492 842.546 203.8C842.055 204.1 841.476 204.25 840.81 204.25C840.119 204.25 839.499 204.112 838.95 203.838C838.409 203.563 837.942 203.155 837.551 202.614C837.168 202.073 836.877 201.403 836.677 200.603C836.477 199.796 836.377 198.859 836.377 197.794ZM839.287 196.732V197.794C839.287 198.485 839.329 199.08 839.412 199.579C839.495 200.079 839.628 200.491 839.811 200.816C839.995 201.132 840.236 201.369 840.536 201.527C840.835 201.677 841.198 201.752 841.622 201.752C842.155 201.752 842.588 201.619 842.921 201.353C843.262 201.086 843.524 200.728 843.708 200.279C843.899 199.821 844.032 199.313 844.107 198.755V195.846C844.066 195.404 843.982 194.996 843.857 194.622C843.733 194.239 843.57 193.906 843.37 193.623C843.171 193.34 842.925 193.119 842.634 192.961C842.351 192.794 842.018 192.711 841.635 192.711C841.21 192.711 840.848 192.794 840.548 192.961C840.249 193.119 840.007 193.365 839.824 193.698C839.641 194.022 839.503 194.439 839.412 194.946C839.329 195.446 839.287 196.041 839.287 196.732ZM858.705 202.514L861.603 190.488H864.662L860.204 206.048C860.104 206.389 859.962 206.756 859.779 207.147C859.604 207.538 859.376 207.909 859.092 208.258C858.818 208.616 858.472 208.904 858.056 209.12C857.648 209.345 857.161 209.457 856.595 209.457C856.362 209.457 856.137 209.436 855.921 209.395C855.704 209.353 855.496 209.303 855.296 209.245V206.897C855.363 206.905 855.438 206.914 855.521 206.922C855.604 206.93 855.679 206.935 855.746 206.935C856.154 206.935 856.491 206.872 856.757 206.747C857.024 206.631 857.244 206.439 857.419 206.173C857.594 205.915 857.748 205.569 857.881 205.136L858.705 202.514ZM857.419 190.488L859.792 200.541L860.304 203.8L858.306 204.312L854.285 190.488H857.419ZM871.48 204.25C870.606 204.25 869.828 204.121 869.145 203.863C868.462 203.596 867.884 203.205 867.409 202.689C866.935 202.164 866.573 201.523 866.323 200.766C866.073 200 865.948 199.113 865.948 198.106V196.807C865.948 195.667 866.077 194.684 866.335 193.86C866.602 193.027 866.968 192.345 867.434 191.812C867.9 191.279 868.45 190.884 869.083 190.626C869.724 190.368 870.419 190.239 871.168 190.239C872.017 190.239 872.754 190.376 873.378 190.651C874.003 190.925 874.515 191.337 874.914 191.887C875.322 192.436 875.622 193.115 875.814 193.922C876.013 194.73 876.113 195.658 876.113 196.707V198.168H867.347V195.97H873.241V195.658C873.224 195.042 873.149 194.514 873.016 194.072C872.883 193.623 872.667 193.281 872.367 193.048C872.076 192.807 871.672 192.686 871.156 192.686C870.781 192.686 870.448 192.757 870.157 192.898C869.865 193.04 869.624 193.269 869.432 193.585C869.249 193.902 869.108 194.326 869.008 194.859C868.908 195.383 868.858 196.033 868.858 196.807V198.106C868.858 198.78 868.916 199.35 869.033 199.817C869.158 200.283 869.341 200.666 869.582 200.965C869.824 201.257 870.115 201.473 870.456 201.615C870.806 201.748 871.21 201.815 871.668 201.815C872.342 201.815 872.921 201.69 873.403 201.44C873.895 201.182 874.319 200.849 874.677 200.441L875.963 202.227C875.722 202.551 875.397 202.872 874.989 203.188C874.581 203.496 874.086 203.75 873.503 203.95C872.929 204.15 872.255 204.25 871.48 204.25ZM883.906 190.488V192.736H877.275V190.488H883.906ZM879.085 187.179H881.982V200.229C881.982 200.645 882.028 200.961 882.12 201.178C882.211 201.394 882.34 201.54 882.507 201.615C882.673 201.69 882.869 201.727 883.094 201.727C883.26 201.727 883.423 201.715 883.581 201.69C883.747 201.656 883.868 201.627 883.943 201.602V203.95C883.727 204.033 883.477 204.104 883.194 204.162C882.911 204.221 882.569 204.25 882.17 204.25C881.579 204.25 881.05 204.129 880.584 203.888C880.118 203.638 879.751 203.234 879.485 202.676C879.219 202.11 879.085 201.361 879.085 200.429V187.179ZM886.391 202.476C886.391 201.994 886.545 201.59 886.853 201.265C887.169 200.941 887.602 200.778 888.151 200.778C888.701 200.778 889.13 200.941 889.438 201.265C889.754 201.59 889.912 201.994 889.912 202.476C889.912 202.943 889.754 203.338 889.438 203.663C889.13 203.988 888.701 204.15 888.151 204.15C887.602 204.15 887.169 203.988 886.853 203.663C886.545 203.338 886.391 202.943 886.391 202.476ZM518.328 223.423V226.52C518.328 227.802 518.178 228.926 517.878 229.892C517.587 230.857 517.162 231.665 516.604 232.314C516.055 232.955 515.389 233.438 514.606 233.763C513.832 234.087 512.966 234.25 512.009 234.25C511.06 234.25 510.194 234.087 509.412 233.763C508.637 233.438 507.967 232.955 507.401 232.314C506.843 231.665 506.41 230.857 506.102 229.892C505.803 228.926 505.653 227.802 505.653 226.52V223.423C505.653 222.124 505.803 220.988 506.102 220.014C506.402 219.031 506.831 218.211 507.389 217.554C507.955 216.896 508.625 216.401 509.399 216.068C510.182 215.735 511.043 215.568 511.984 215.568C512.941 215.568 513.807 215.735 514.581 216.068C515.364 216.401 516.034 216.896 516.592 217.554C517.15 218.211 517.579 219.031 517.878 220.014C518.178 220.988 518.328 222.124 518.328 223.423ZM515.318 226.52V223.398C515.318 222.474 515.243 221.683 515.093 221.025C514.952 220.359 514.74 219.818 514.457 219.402C514.174 218.977 513.824 218.665 513.408 218.465C513 218.257 512.525 218.153 511.984 218.153C511.46 218.153 510.989 218.257 510.573 218.465C510.165 218.665 509.815 218.977 509.524 219.402C509.241 219.818 509.024 220.359 508.875 221.025C508.733 221.683 508.662 222.474 508.662 223.398V226.52C508.662 227.427 508.737 228.21 508.887 228.868C509.037 229.517 509.253 230.05 509.536 230.466C509.828 230.874 510.182 231.178 510.598 231.378C511.014 231.577 511.485 231.677 512.009 231.677C512.542 231.677 513.016 231.577 513.433 231.378C513.849 231.178 514.194 230.874 514.469 230.466C514.752 230.05 514.964 229.517 515.106 228.868C515.247 228.21 515.318 227.427 515.318 226.52ZM524.035 223.373V234H521.125V220.488H523.86L524.035 223.373ZM523.51 226.757H522.586C522.578 225.783 522.682 224.896 522.898 224.097C523.115 223.298 523.423 222.611 523.822 222.037C524.222 221.462 524.701 221.021 525.258 220.713C525.825 220.397 526.453 220.239 527.144 220.239C527.685 220.239 528.176 220.33 528.618 220.513C529.067 220.688 529.45 220.975 529.767 221.375C530.083 221.775 530.324 222.295 530.491 222.936C530.666 223.577 530.753 224.359 530.753 225.284V234H527.843V225.259C527.843 224.626 527.773 224.126 527.631 223.76C527.498 223.385 527.298 223.119 527.032 222.961C526.765 222.794 526.428 222.711 526.02 222.711C525.646 222.711 525.3 222.819 524.984 223.036C524.676 223.244 524.409 223.535 524.185 223.91C523.968 224.276 523.802 224.705 523.685 225.196C523.568 225.679 523.51 226.199 523.51 226.757ZM538.47 231.815C538.845 231.815 539.178 231.736 539.469 231.577C539.769 231.419 540.006 231.174 540.181 230.841C540.356 230.499 540.452 230.058 540.468 229.517H543.203C543.187 230.474 542.966 231.311 542.541 232.027C542.117 232.735 541.551 233.284 540.843 233.675C540.144 234.058 539.365 234.25 538.508 234.25C537.617 234.25 536.839 234.108 536.173 233.825C535.515 233.534 534.97 233.113 534.537 232.564C534.104 232.014 533.779 231.348 533.563 230.566C533.355 229.775 533.251 228.872 533.251 227.856V226.632C533.251 225.625 533.355 224.726 533.563 223.935C533.779 223.144 534.104 222.474 534.537 221.924C534.97 221.375 535.515 220.959 536.173 220.676C536.83 220.384 537.605 220.239 538.495 220.239C539.444 220.239 540.265 220.438 540.956 220.838C541.655 221.229 542.2 221.804 542.591 222.561C542.983 223.319 543.187 224.247 543.203 225.346H540.468C540.452 224.763 540.364 224.276 540.206 223.885C540.048 223.485 539.823 223.186 539.532 222.986C539.249 222.786 538.891 222.686 538.458 222.686C537.983 222.686 537.592 222.778 537.284 222.961C536.984 223.136 536.751 223.394 536.585 223.735C536.427 224.076 536.314 224.493 536.248 224.984C536.189 225.467 536.16 226.016 536.16 226.632V227.856C536.16 228.489 536.189 229.051 536.248 229.542C536.306 230.025 536.414 230.437 536.572 230.778C536.739 231.12 536.976 231.378 537.284 231.552C537.592 231.727 537.988 231.815 538.47 231.815ZM550.633 234.25C549.759 234.25 548.981 234.121 548.298 233.863C547.616 233.596 547.037 233.205 546.562 232.689C546.088 232.164 545.726 231.523 545.476 230.766C545.226 230 545.101 229.113 545.101 228.106V226.807C545.101 225.667 545.23 224.684 545.489 223.86C545.755 223.027 546.121 222.345 546.587 221.812C547.054 221.279 547.603 220.884 548.236 220.626C548.877 220.368 549.572 220.239 550.321 220.239C551.17 220.239 551.907 220.376 552.532 220.651C553.156 220.925 553.668 221.337 554.068 221.887C554.476 222.436 554.775 223.115 554.967 223.922C555.167 224.73 555.266 225.658 555.266 226.707V228.168H546.5V225.97H552.394V225.658C552.378 225.042 552.303 224.514 552.169 224.072C552.036 223.623 551.82 223.281 551.52 223.048C551.229 222.807 550.825 222.686 550.309 222.686C549.934 222.686 549.601 222.757 549.31 222.898C549.018 223.04 548.777 223.269 548.586 223.585C548.402 223.902 548.261 224.326 548.161 224.859C548.061 225.383 548.011 226.033 548.011 226.807V228.106C548.011 228.78 548.069 229.35 548.186 229.817C548.311 230.283 548.494 230.666 548.735 230.965C548.977 231.257 549.268 231.473 549.609 231.615C549.959 231.748 550.363 231.815 550.821 231.815C551.495 231.815 552.074 231.69 552.557 231.44C553.048 231.182 553.472 230.849 553.83 230.441L555.117 232.227C554.875 232.551 554.55 232.872 554.143 233.188C553.735 233.496 553.239 233.75 552.656 233.95C552.082 234.15 551.408 234.25 550.633 234.25ZM568.291 231.815C568.666 231.815 568.999 231.736 569.29 231.577C569.59 231.419 569.827 231.174 570.002 230.841C570.177 230.499 570.272 230.058 570.289 229.517H573.024C573.007 230.474 572.787 231.311 572.362 232.027C571.938 232.735 571.371 233.284 570.664 233.675C569.964 234.058 569.186 234.25 568.329 234.25C567.438 234.25 566.659 234.108 565.993 233.825C565.336 233.534 564.79 233.113 564.357 232.564C563.925 232.014 563.6 231.348 563.383 230.566C563.175 229.775 563.071 228.872 563.071 227.856V226.632C563.071 225.625 563.175 224.726 563.383 223.935C563.6 223.144 563.925 222.474 564.357 221.924C564.79 221.375 565.336 220.959 565.993 220.676C566.651 220.384 567.425 220.239 568.316 220.239C569.265 220.239 570.085 220.438 570.776 220.838C571.475 221.229 572.021 221.804 572.412 222.561C572.803 223.319 573.007 224.247 573.024 225.346H570.289C570.272 224.763 570.185 224.276 570.027 223.885C569.869 223.485 569.644 223.186 569.353 222.986C569.07 222.786 568.712 222.686 568.279 222.686C567.804 222.686 567.413 222.778 567.105 222.961C566.805 223.136 566.572 223.394 566.405 223.735C566.247 224.076 566.135 224.493 566.068 224.984C566.01 225.467 565.981 226.016 565.981 226.632V227.856C565.981 228.489 566.01 229.051 566.068 229.542C566.127 230.025 566.235 230.437 566.393 230.778C566.559 231.12 566.797 231.378 567.105 231.552C567.413 231.727 567.808 231.815 568.291 231.815ZM574.86 227.794V226.707C574.86 225.658 574.989 224.73 575.247 223.922C575.505 223.115 575.871 222.441 576.346 221.899C576.829 221.35 577.395 220.938 578.044 220.663C578.693 220.38 579.409 220.239 580.192 220.239C580.991 220.239 581.715 220.38 582.365 220.663C583.022 220.938 583.589 221.35 584.063 221.899C584.546 222.441 584.916 223.115 585.174 223.922C585.433 224.73 585.562 225.658 585.562 226.707V227.794C585.562 228.843 585.433 229.771 585.174 230.578C584.916 231.386 584.546 232.064 584.063 232.614C583.589 233.155 583.027 233.563 582.377 233.838C581.728 234.112 581.008 234.25 580.217 234.25C579.434 234.25 578.714 234.112 578.057 233.838C577.407 233.563 576.841 233.155 576.358 232.614C575.875 232.064 575.505 231.386 575.247 230.578C574.989 229.771 574.86 228.843 574.86 227.794ZM577.769 226.707V227.794C577.769 228.468 577.828 229.059 577.944 229.567C578.061 230.066 578.227 230.483 578.444 230.816C578.66 231.149 578.918 231.398 579.218 231.565C579.518 231.731 579.851 231.815 580.217 231.815C580.625 231.815 580.979 231.731 581.278 231.565C581.586 231.398 581.84 231.149 582.04 230.816C582.248 230.483 582.402 230.066 582.502 229.567C582.602 229.059 582.652 228.468 582.652 227.794V226.707C582.652 226.041 582.594 225.458 582.477 224.959C582.361 224.451 582.194 224.031 581.978 223.698C581.761 223.356 581.499 223.102 581.191 222.936C580.891 222.769 580.558 222.686 580.192 222.686C579.834 222.686 579.505 222.769 579.205 222.936C578.914 223.102 578.66 223.356 578.444 223.698C578.227 224.031 578.061 224.451 577.944 224.959C577.828 225.458 577.769 226.041 577.769 226.707ZM590.944 223.373V234H588.034V220.488H590.769L590.944 223.373ZM590.419 226.757H589.495C589.487 225.783 589.591 224.896 589.807 224.097C590.024 223.298 590.332 222.611 590.732 222.037C591.131 221.462 591.61 221.021 592.168 220.713C592.734 220.397 593.362 220.239 594.053 220.239C594.594 220.239 595.086 220.33 595.527 220.513C595.976 220.688 596.359 220.975 596.676 221.375C596.992 221.775 597.233 222.295 597.4 222.936C597.575 223.577 597.662 224.359 597.662 225.284V234H594.753V225.259C594.753 224.626 594.682 224.126 594.54 223.76C594.407 223.385 594.207 223.119 593.941 222.961C593.674 222.794 593.337 222.711 592.929 222.711C592.555 222.711 592.209 222.819 591.893 223.036C591.585 223.244 591.318 223.535 591.094 223.91C590.877 224.276 590.711 224.705 590.594 225.196C590.478 225.679 590.419 226.199 590.419 226.757ZM604.168 234H601.259V219.639C601.259 218.54 601.45 217.616 601.833 216.867C602.216 216.109 602.77 215.535 603.494 215.144C604.218 214.752 605.08 214.557 606.079 214.557C606.662 214.557 607.215 214.627 607.74 214.769C608.273 214.91 608.822 215.089 609.388 215.306L608.939 217.816C608.606 217.666 608.214 217.529 607.765 217.404C607.324 217.279 606.828 217.217 606.279 217.217C605.529 217.217 604.988 217.42 604.655 217.828C604.331 218.228 604.168 218.832 604.168 219.639V234ZM606.304 220.488V222.736H599.56V220.488H606.304ZM610.737 220.488V234H607.827V220.488H610.737ZM616.806 223.098V234H613.896V220.488H616.669L616.806 223.098ZM620.065 220.401L620.053 223.273C619.886 223.231 619.707 223.206 619.516 223.198C619.333 223.181 619.149 223.173 618.966 223.173C618.567 223.173 618.221 223.244 617.93 223.385C617.638 223.527 617.393 223.731 617.193 223.997C616.993 224.264 616.835 224.584 616.718 224.959C616.61 225.334 616.544 225.758 616.519 226.233L615.894 226.258C615.894 225.408 615.961 224.622 616.094 223.897C616.227 223.165 616.427 222.528 616.693 221.987C616.968 221.437 617.31 221.009 617.717 220.701C618.125 220.393 618.6 220.239 619.141 220.239C619.291 220.239 619.462 220.255 619.653 220.288C619.845 220.322 619.982 220.359 620.065 220.401ZM624.985 223.236V234H622.076V220.488H624.811L624.985 223.236ZM624.511 226.757H623.524C623.508 225.816 623.591 224.951 623.774 224.16C623.965 223.369 624.249 222.678 624.623 222.087C625.006 221.496 625.485 221.042 626.059 220.726C626.642 220.401 627.312 220.239 628.07 220.239C628.578 220.239 629.044 220.33 629.468 220.513C629.901 220.688 630.276 220.967 630.592 221.35C630.917 221.733 631.167 222.224 631.342 222.823C631.516 223.423 631.604 224.147 631.604 224.996V234H628.694V225.271C628.694 224.622 628.619 224.114 628.469 223.748C628.328 223.373 628.12 223.107 627.845 222.948C627.57 222.79 627.237 222.711 626.846 222.711C626.421 222.711 626.059 222.819 625.76 223.036C625.46 223.244 625.218 223.535 625.035 223.91C624.852 224.276 624.719 224.705 624.636 225.196C624.552 225.679 624.511 226.199 624.511 226.757ZM631.417 225.983L630.055 226.295C630.039 225.471 630.122 224.692 630.305 223.96C630.488 223.227 630.763 222.586 631.129 222.037C631.504 221.479 631.97 221.042 632.528 220.726C633.094 220.401 633.748 220.239 634.488 220.239C635.071 220.239 635.592 220.334 636.049 220.526C636.507 220.709 636.899 221 637.223 221.4C637.548 221.8 637.794 222.32 637.96 222.961C638.135 223.594 638.222 224.364 638.222 225.271V234H635.3V225.259C635.3 224.584 635.225 224.064 635.075 223.698C634.934 223.331 634.726 223.077 634.451 222.936C634.176 222.786 633.847 222.711 633.464 222.711C633.131 222.711 632.836 222.799 632.578 222.973C632.328 223.14 632.116 223.373 631.941 223.673C631.766 223.972 631.633 224.322 631.541 224.722C631.458 225.113 631.417 225.533 631.417 225.983ZM646.339 234.25C645.465 234.25 644.687 234.121 644.004 233.863C643.321 233.596 642.743 233.205 642.268 232.689C641.794 232.164 641.432 231.523 641.182 230.766C640.932 230 640.807 229.113 640.807 228.106V226.807C640.807 225.667 640.936 224.684 641.194 223.86C641.461 223.027 641.827 222.345 642.293 221.812C642.76 221.279 643.309 220.884 643.942 220.626C644.583 220.368 645.278 220.239 646.027 220.239C646.876 220.239 647.613 220.376 648.237 220.651C648.862 220.925 649.374 221.337 649.773 221.887C650.181 222.436 650.481 223.115 650.673 223.922C650.872 224.73 650.972 225.658 650.972 226.707V228.168H642.206V225.97H648.1V225.658C648.083 225.042 648.009 224.514 647.875 224.072C647.742 223.623 647.526 223.281 647.226 223.048C646.935 222.807 646.531 222.686 646.015 222.686C645.64 222.686 645.307 222.757 645.016 222.898C644.724 223.04 644.483 223.269 644.291 223.585C644.108 223.902 643.967 224.326 643.867 224.859C643.767 225.383 643.717 226.033 643.717 226.807V228.106C643.717 228.78 643.775 229.35 643.892 229.817C644.017 230.283 644.2 230.666 644.441 230.965C644.683 231.257 644.974 231.473 645.315 231.615C645.665 231.748 646.069 231.815 646.527 231.815C647.201 231.815 647.78 231.69 648.262 231.44C648.754 231.182 649.178 230.849 649.536 230.441L650.822 232.227C650.581 232.551 650.256 232.872 649.848 233.188C649.44 233.496 648.945 233.75 648.362 233.95C647.788 234.15 647.114 234.25 646.339 234.25ZM660.101 231.178V214.819H663.01V234L660.376 234.012L660.101 231.178ZM652.845 227.794V226.732C652.845 225.625 652.945 224.668 653.145 223.86C653.345 223.044 653.636 222.366 654.019 221.824C654.411 221.283 654.881 220.884 655.43 220.626C655.98 220.368 656.6 220.239 657.291 220.239C657.965 220.239 658.548 220.393 659.039 220.701C659.531 221 659.947 221.429 660.288 221.987C660.629 222.545 660.9 223.211 661.1 223.985C661.308 224.751 661.449 225.608 661.524 226.557V228.031C661.433 228.947 661.287 229.787 661.087 230.553C660.888 231.311 660.617 231.965 660.276 232.514C659.934 233.063 659.514 233.492 659.014 233.8C658.523 234.1 657.945 234.25 657.279 234.25C656.588 234.25 655.967 234.112 655.418 233.838C654.877 233.563 654.411 233.155 654.019 232.614C653.636 232.073 653.345 231.403 653.145 230.603C652.945 229.796 652.845 228.859 652.845 227.794ZM655.755 226.732V227.794C655.755 228.485 655.797 229.08 655.88 229.579C655.963 230.079 656.096 230.491 656.28 230.816C656.463 231.132 656.704 231.369 657.004 231.527C657.304 231.677 657.666 231.752 658.09 231.752C658.623 231.752 659.056 231.619 659.389 231.353C659.73 231.086 659.993 230.728 660.176 230.279C660.367 229.821 660.5 229.313 660.575 228.755V225.846C660.534 225.404 660.45 224.996 660.326 224.622C660.201 224.239 660.038 223.906 659.839 223.623C659.639 223.34 659.393 223.119 659.102 222.961C658.819 222.794 658.486 222.711 658.103 222.711C657.678 222.711 657.316 222.794 657.016 222.961C656.717 223.119 656.475 223.365 656.292 223.698C656.109 224.022 655.972 224.439 655.88 224.946C655.797 225.446 655.755 226.041 655.755 226.732ZM668.905 231.078L668.892 233.251C668.892 234.117 668.68 234.999 668.255 235.898C667.831 236.806 667.265 237.555 666.557 238.146L664.946 237.197C665.179 236.822 665.391 236.443 665.583 236.06C665.774 235.678 665.928 235.265 666.045 234.824C666.161 234.391 666.22 233.908 666.22 233.376V231.078H668.905ZM683.041 220.488V222.736H676.41V220.488H683.041ZM678.22 217.179H681.118V230.229C681.118 230.645 681.163 230.961 681.255 231.178C681.347 231.394 681.476 231.54 681.642 231.615C681.809 231.69 682.004 231.727 682.229 231.727C682.396 231.727 682.558 231.715 682.716 231.69C682.883 231.656 683.003 231.627 683.078 231.602V233.95C682.862 234.033 682.612 234.104 682.329 234.162C682.046 234.221 681.705 234.25 681.305 234.25C680.714 234.25 680.185 234.129 679.719 233.888C679.253 233.638 678.886 233.234 678.62 232.676C678.354 232.11 678.22 231.361 678.22 230.429V217.179ZM688.161 214.819V234H685.264V214.819H688.161ZM687.649 226.757H686.725C686.716 225.816 686.816 224.951 687.024 224.16C687.232 223.369 687.532 222.678 687.923 222.087C688.315 221.496 688.785 221.042 689.335 220.726C689.892 220.401 690.508 220.239 691.183 220.239C691.74 220.239 692.244 220.334 692.694 220.526C693.152 220.709 693.543 221 693.868 221.4C694.201 221.8 694.454 222.324 694.629 222.973C694.804 223.614 694.892 224.397 694.892 225.321V234H691.982V225.296C691.982 224.655 691.911 224.147 691.77 223.773C691.636 223.398 691.437 223.127 691.17 222.961C690.904 222.794 690.567 222.711 690.159 222.711C689.759 222.711 689.401 222.819 689.085 223.036C688.777 223.244 688.514 223.535 688.298 223.91C688.082 224.276 687.919 224.705 687.811 225.196C687.703 225.679 687.649 226.199 687.649 226.757ZM702.959 234.25C702.084 234.25 701.306 234.121 700.623 233.863C699.941 233.596 699.362 233.205 698.888 232.689C698.413 232.164 698.051 231.523 697.801 230.766C697.551 230 697.427 229.113 697.427 228.106V226.807C697.427 225.667 697.556 224.684 697.814 223.86C698.08 223.027 698.446 222.345 698.913 221.812C699.379 221.279 699.928 220.884 700.561 220.626C701.202 220.368 701.897 220.239 702.646 220.239C703.496 220.239 704.232 220.376 704.857 220.651C705.481 220.925 705.993 221.337 706.393 221.887C706.801 222.436 707.1 223.115 707.292 223.922C707.492 224.73 707.592 225.658 707.592 226.707V228.168H698.825V225.97H704.719V225.658C704.703 225.042 704.628 224.514 704.495 224.072C704.361 223.623 704.145 223.281 703.845 223.048C703.554 222.807 703.15 222.686 702.634 222.686C702.259 222.686 701.926 222.757 701.635 222.898C701.344 223.04 701.102 223.269 700.911 223.585C700.727 223.902 700.586 224.326 700.486 224.859C700.386 225.383 700.336 226.033 700.336 226.807V228.106C700.336 228.78 700.394 229.35 700.511 229.817C700.636 230.283 700.819 230.666 701.06 230.965C701.302 231.257 701.593 231.473 701.935 231.615C702.284 231.748 702.688 231.815 703.146 231.815C703.82 231.815 704.399 231.69 704.882 231.44C705.373 231.182 705.797 230.849 706.155 230.441L707.442 232.227C707.2 232.551 706.876 232.872 706.468 233.188C706.06 233.496 705.564 233.75 704.982 233.95C704.407 234.15 703.733 234.25 702.959 234.25ZM713.036 232.514L715.933 220.488H718.993L714.535 236.048C714.435 236.389 714.293 236.756 714.11 237.147C713.935 237.538 713.706 237.909 713.423 238.258C713.149 238.616 712.803 238.904 712.387 239.12C711.979 239.345 711.492 239.457 710.926 239.457C710.693 239.457 710.468 239.436 710.251 239.395C710.035 239.353 709.827 239.303 709.627 239.245V236.897C709.694 236.905 709.769 236.914 709.852 236.922C709.935 236.93 710.01 236.935 710.077 236.935C710.485 236.935 710.822 236.872 711.088 236.747C711.355 236.631 711.575 236.439 711.75 236.173C711.925 235.915 712.079 235.569 712.212 235.136L713.036 232.514ZM711.75 220.488L714.123 230.541L714.635 233.8L712.637 234.312L708.616 220.488H711.75ZM729.707 230.978L732.355 220.488H734.19L733.828 223.698L731.193 234H729.57L729.707 230.978ZM728.596 220.488L730.619 231.015L730.631 234H728.808L725.774 220.488H728.596ZM736.326 230.891L738.261 220.488H741.096L738.062 234H736.238L736.326 230.891ZM734.503 220.488L737.113 230.841L737.3 234H735.676L732.992 223.698L732.642 220.488H734.503ZM746.179 220.488V234H743.269V220.488H746.179ZM743.119 216.942C743.119 216.476 743.261 216.088 743.544 215.78C743.827 215.472 744.222 215.318 744.73 215.318C745.238 215.318 745.633 215.472 745.916 215.78C746.199 216.088 746.341 216.476 746.341 216.942C746.341 217.4 746.199 217.783 745.916 218.091C745.633 218.399 745.238 218.553 744.73 218.553C744.222 218.553 743.827 218.399 743.544 218.091C743.261 217.783 743.119 217.4 743.119 216.942ZM752.372 214.819V234H749.463V214.819H752.372ZM758.566 214.819V234H755.657V214.819H758.566ZM773.839 231.253V224.522C773.839 224.056 773.772 223.681 773.639 223.398C773.514 223.115 773.327 222.911 773.077 222.786C772.836 222.653 772.532 222.586 772.165 222.586C771.783 222.586 771.458 222.665 771.191 222.823C770.933 222.982 770.738 223.198 770.605 223.473C770.471 223.739 770.405 224.047 770.405 224.397H767.495C767.495 223.856 767.603 223.335 767.82 222.836C768.045 222.336 768.365 221.891 768.781 221.5C769.198 221.109 769.701 220.8 770.292 220.576C770.883 220.351 771.541 220.239 772.265 220.239C773.131 220.239 773.901 220.384 774.576 220.676C775.25 220.959 775.779 221.421 776.162 222.062C776.553 222.694 776.748 223.527 776.748 224.559V230.866C776.748 231.49 776.786 232.048 776.861 232.539C776.944 233.022 777.057 233.442 777.198 233.8V234H774.238C774.105 233.675 774.005 233.259 773.939 232.751C773.872 232.243 773.839 231.744 773.839 231.253ZM774.226 225.771L774.238 227.656H772.84C772.424 227.656 772.049 227.715 771.716 227.831C771.383 227.939 771.1 228.097 770.867 228.306C770.642 228.505 770.467 228.751 770.342 229.042C770.226 229.334 770.167 229.654 770.167 230.004C770.167 230.429 770.226 230.774 770.342 231.04C770.467 231.307 770.646 231.507 770.879 231.64C771.121 231.765 771.412 231.827 771.753 231.827C772.22 231.827 772.623 231.727 772.965 231.527C773.314 231.319 773.581 231.07 773.764 230.778C773.955 230.487 774.03 230.22 773.989 229.979L774.651 231.19C774.584 231.507 774.459 231.84 774.276 232.189C774.101 232.539 773.872 232.872 773.589 233.188C773.306 233.505 772.965 233.763 772.565 233.963C772.165 234.154 771.703 234.25 771.179 234.25C770.421 234.25 769.747 234.092 769.156 233.775C768.565 233.459 768.099 233.005 767.757 232.414C767.424 231.815 767.258 231.099 767.258 230.266C767.258 229.592 767.37 228.98 767.595 228.43C767.82 227.881 768.153 227.411 768.594 227.019C769.035 226.62 769.589 226.312 770.255 226.095C770.929 225.879 771.716 225.771 772.615 225.771H774.226ZM782.643 223.086V239.195H779.746V220.488H782.405L782.643 223.086ZM789.911 226.707V227.781C789.911 228.838 789.815 229.771 789.623 230.578C789.432 231.386 789.149 232.064 788.774 232.614C788.408 233.155 787.954 233.563 787.413 233.838C786.872 234.112 786.239 234.25 785.515 234.25C784.832 234.25 784.237 234.1 783.729 233.8C783.23 233.5 782.809 233.08 782.468 232.539C782.127 231.998 781.852 231.357 781.644 230.616C781.444 229.867 781.298 229.051 781.207 228.168V226.52C781.298 225.587 781.44 224.738 781.631 223.972C781.831 223.198 782.102 222.532 782.443 221.974C782.793 221.417 783.217 220.988 783.717 220.688C784.216 220.388 784.811 220.239 785.502 220.239C786.227 220.239 786.864 220.368 787.413 220.626C787.962 220.884 788.42 221.279 788.787 221.812C789.161 222.345 789.44 223.019 789.623 223.835C789.815 224.643 789.911 225.6 789.911 226.707ZM787.001 227.781V226.707C787.001 226.016 786.955 225.421 786.864 224.921C786.78 224.414 786.639 223.997 786.439 223.673C786.248 223.348 786.002 223.107 785.702 222.948C785.411 222.79 785.049 222.711 784.616 222.711C784.233 222.711 783.896 222.79 783.604 222.948C783.313 223.107 783.067 223.327 782.868 223.61C782.668 223.885 782.51 224.214 782.393 224.597C782.276 224.971 782.202 225.379 782.168 225.821V228.88C782.243 229.413 782.368 229.904 782.543 230.354C782.718 230.795 782.972 231.149 783.305 231.415C783.646 231.681 784.091 231.815 784.641 231.815C785.065 231.815 785.427 231.731 785.727 231.565C786.027 231.398 786.268 231.149 786.451 230.816C786.643 230.483 786.78 230.066 786.864 229.567C786.955 229.059 787.001 228.464 787.001 227.781ZM795.28 223.086V239.195H792.383V220.488H795.043L795.28 223.086ZM802.548 226.707V227.781C802.548 228.838 802.452 229.771 802.261 230.578C802.069 231.386 801.786 232.064 801.412 232.614C801.045 233.155 800.592 233.563 800.051 233.838C799.509 234.112 798.877 234.25 798.152 234.25C797.47 234.25 796.875 234.1 796.367 233.8C795.867 233.5 795.447 233.08 795.105 232.539C794.764 231.998 794.489 231.357 794.281 230.616C794.081 229.867 793.936 229.051 793.844 228.168V226.52C793.936 225.587 794.077 224.738 794.269 223.972C794.469 223.198 794.739 222.532 795.08 221.974C795.43 221.417 795.855 220.988 796.354 220.688C796.854 220.388 797.449 220.239 798.14 220.239C798.864 220.239 799.501 220.368 800.051 220.626C800.6 220.884 801.058 221.279 801.424 221.812C801.799 222.345 802.078 223.019 802.261 223.835C802.452 224.643 802.548 225.6 802.548 226.707ZM799.638 227.781V226.707C799.638 226.016 799.593 225.421 799.501 224.921C799.418 224.414 799.276 223.997 799.077 223.673C798.885 223.348 798.639 223.107 798.34 222.948C798.048 222.79 797.686 222.711 797.253 222.711C796.87 222.711 796.533 222.79 796.242 222.948C795.95 223.107 795.705 223.327 795.505 223.61C795.305 223.885 795.147 224.214 795.03 224.597C794.914 224.971 794.839 225.379 794.806 225.821V228.88C794.881 229.413 795.006 229.904 795.18 230.354C795.355 230.795 795.609 231.149 795.942 231.415C796.283 231.681 796.729 231.815 797.278 231.815C797.703 231.815 798.065 231.731 798.365 231.565C798.664 231.398 798.906 231.149 799.089 230.816C799.28 230.483 799.418 230.066 799.501 229.567C799.593 229.059 799.638 228.464 799.638 227.781ZM810.178 234.25C809.304 234.25 808.526 234.121 807.843 233.863C807.16 233.596 806.582 233.205 806.107 232.689C805.633 232.164 805.27 231.523 805.021 230.766C804.771 230 804.646 229.113 804.646 228.106V226.807C804.646 225.667 804.775 224.684 805.033 223.86C805.3 223.027 805.666 222.345 806.132 221.812C806.598 221.279 807.148 220.884 807.78 220.626C808.421 220.368 809.117 220.239 809.866 220.239C810.715 220.239 811.452 220.376 812.076 220.651C812.701 220.925 813.213 221.337 813.612 221.887C814.02 222.436 814.32 223.115 814.511 223.922C814.711 224.73 814.811 225.658 814.811 226.707V228.168H806.045V225.97H811.939V225.658C811.922 225.042 811.847 224.514 811.714 224.072C811.581 223.623 811.364 223.281 811.065 223.048C810.773 222.807 810.37 222.686 809.853 222.686C809.479 222.686 809.146 222.757 808.854 222.898C808.563 223.04 808.322 223.269 808.13 223.585C807.947 223.902 807.805 224.326 807.706 224.859C807.606 225.383 807.556 226.033 807.556 226.807V228.106C807.556 228.78 807.614 229.35 807.731 229.817C807.855 230.283 808.039 230.666 808.28 230.965C808.521 231.257 808.813 231.473 809.154 231.615C809.504 231.748 809.908 231.815 810.365 231.815C811.04 231.815 811.618 231.69 812.101 231.44C812.592 231.182 813.017 230.849 813.375 230.441L814.661 232.227C814.42 232.551 814.095 232.872 813.687 233.188C813.279 233.496 812.784 233.75 812.201 233.95C811.627 234.15 810.952 234.25 810.178 234.25ZM823.415 231.253V224.522C823.415 224.056 823.348 223.681 823.215 223.398C823.09 223.115 822.903 222.911 822.653 222.786C822.412 222.653 822.108 222.586 821.742 222.586C821.359 222.586 821.034 222.665 820.768 222.823C820.51 222.982 820.314 223.198 820.181 223.473C820.048 223.739 819.981 224.047 819.981 224.397H817.071C817.071 223.856 817.18 223.335 817.396 222.836C817.621 222.336 817.941 221.891 818.358 221.5C818.774 221.109 819.277 220.8 819.869 220.576C820.46 220.351 821.117 220.239 821.842 220.239C822.707 220.239 823.478 220.384 824.152 220.676C824.826 220.959 825.355 221.421 825.738 222.062C826.129 222.694 826.325 223.527 826.325 224.559V230.866C826.325 231.49 826.362 232.048 826.437 232.539C826.52 233.022 826.633 233.442 826.774 233.8V234H823.815C823.681 233.675 823.582 233.259 823.515 232.751C823.448 232.243 823.415 231.744 823.415 231.253ZM823.802 225.771L823.815 227.656H822.416C822 227.656 821.625 227.715 821.292 227.831C820.959 227.939 820.676 228.097 820.443 228.306C820.218 228.505 820.043 228.751 819.919 229.042C819.802 229.334 819.744 229.654 819.744 230.004C819.744 230.429 819.802 230.774 819.919 231.04C820.043 231.307 820.222 231.507 820.455 231.64C820.697 231.765 820.988 231.827 821.33 231.827C821.796 231.827 822.2 231.727 822.541 231.527C822.891 231.319 823.157 231.07 823.34 230.778C823.532 230.487 823.607 230.22 823.565 229.979L824.227 231.19C824.16 231.507 824.035 231.84 823.852 232.189C823.677 232.539 823.448 232.872 823.165 233.188C822.882 233.505 822.541 233.763 822.141 233.963C821.742 234.154 821.28 234.25 820.755 234.25C819.998 234.25 819.323 234.092 818.732 233.775C818.141 233.459 817.675 233.005 817.334 232.414C817.001 231.815 816.834 231.099 816.834 230.266C816.834 229.592 816.946 228.98 817.171 228.43C817.396 227.881 817.729 227.411 818.17 227.019C818.611 226.62 819.165 226.312 819.831 226.095C820.505 225.879 821.292 225.771 822.191 225.771H823.802ZM832.219 223.098V234H829.309V220.488H832.082L832.219 223.098ZM835.478 220.401L835.466 223.273C835.299 223.231 835.12 223.206 834.929 223.198C834.746 223.181 834.562 223.173 834.379 223.173C833.98 223.173 833.634 223.244 833.343 223.385C833.051 223.527 832.806 223.731 832.606 223.997C832.406 224.264 832.248 224.584 832.131 224.959C832.023 225.334 831.957 225.758 831.932 226.233L831.307 226.258C831.307 225.408 831.374 224.622 831.507 223.897C831.64 223.165 831.84 222.528 832.107 221.987C832.381 221.437 832.723 221.009 833.131 220.701C833.538 220.393 834.013 220.239 834.554 220.239C834.704 220.239 834.875 220.255 835.066 220.288C835.258 220.322 835.395 220.359 835.478 220.401ZM846.23 214.819V234H843.333V214.819H846.23ZM845.718 226.757H844.794C844.786 225.816 844.886 224.951 845.094 224.16C845.302 223.369 845.602 222.678 845.993 222.087C846.384 221.496 846.855 221.042 847.404 220.726C847.962 220.401 848.578 220.239 849.252 220.239C849.81 220.239 850.314 220.334 850.763 220.526C851.221 220.709 851.612 221 851.937 221.4C852.27 221.8 852.524 222.324 852.699 222.973C852.874 223.614 852.961 224.397 852.961 225.321V234H850.051V225.296C850.051 224.655 849.981 224.147 849.839 223.773C849.706 223.398 849.506 223.127 849.24 222.961C848.973 222.794 848.636 222.711 848.228 222.711C847.829 222.711 847.471 222.819 847.154 223.036C846.846 223.244 846.584 223.535 846.368 223.91C846.151 224.276 845.989 224.705 845.881 225.196C845.772 225.679 845.718 226.199 845.718 226.757ZM861.028 234.25C860.154 234.25 859.376 234.121 858.693 233.863C858.01 233.596 857.432 233.205 856.957 232.689C856.483 232.164 856.12 231.523 855.871 230.766C855.621 230 855.496 229.113 855.496 228.106V226.807C855.496 225.667 855.625 224.684 855.883 223.86C856.15 223.027 856.516 222.345 856.982 221.812C857.448 221.279 857.998 220.884 858.63 220.626C859.271 220.368 859.967 220.239 860.716 220.239C861.565 220.239 862.302 220.376 862.926 220.651C863.551 220.925 864.063 221.337 864.462 221.887C864.87 222.436 865.17 223.115 865.361 223.922C865.561 224.73 865.661 225.658 865.661 226.707V228.168H856.895V225.97H862.789V225.658C862.772 225.042 862.697 224.514 862.564 224.072C862.431 223.623 862.214 223.281 861.915 223.048C861.623 222.807 861.22 222.686 860.703 222.686C860.329 222.686 859.996 222.757 859.704 222.898C859.413 223.04 859.172 223.269 858.98 223.585C858.797 223.902 858.655 224.326 858.556 224.859C858.456 225.383 858.406 226.033 858.406 226.807V228.106C858.406 228.78 858.464 229.35 858.58 229.817C858.705 230.283 858.889 230.666 859.13 230.965C859.371 231.257 859.663 231.473 860.004 231.615C860.354 231.748 860.758 231.815 861.215 231.815C861.89 231.815 862.468 231.69 862.951 231.44C863.442 231.182 863.867 230.849 864.225 230.441L865.511 232.227C865.27 232.551 864.945 232.872 864.537 233.188C864.129 233.496 863.634 233.75 863.051 233.95C862.477 234.15 861.802 234.25 861.028 234.25ZM870.906 223.098V234H867.996V220.488H870.768L870.906 223.098ZM874.165 220.401L874.153 223.273C873.986 223.231 873.807 223.206 873.616 223.198C873.433 223.181 873.249 223.173 873.066 223.173C872.667 223.173 872.321 223.244 872.03 223.385C871.738 223.527 871.493 223.731 871.293 223.997C871.093 224.264 870.935 224.584 870.818 224.959C870.71 225.334 870.644 225.758 870.619 226.233L869.994 226.258C869.994 225.408 870.061 224.622 870.194 223.897C870.327 223.165 870.527 222.528 870.793 221.987C871.068 221.437 871.41 221.009 871.817 220.701C872.225 220.393 872.7 220.239 873.241 220.239C873.391 220.239 873.562 220.255 873.753 220.288C873.945 220.322 874.082 220.359 874.165 220.401ZM881.083 234.25C880.209 234.25 879.431 234.121 878.748 233.863C878.066 233.596 877.487 233.205 877.012 232.689C876.538 232.164 876.176 231.523 875.926 230.766C875.676 230 875.551 229.113 875.551 228.106V226.807C875.551 225.667 875.68 224.684 875.938 223.86C876.205 223.027 876.571 222.345 877.037 221.812C877.504 221.279 878.053 220.884 878.686 220.626C879.327 220.368 880.022 220.239 880.771 220.239C881.62 220.239 882.357 220.376 882.982 220.651C883.606 220.925 884.118 221.337 884.517 221.887C884.925 222.436 885.225 223.115 885.417 223.922C885.616 224.73 885.716 225.658 885.716 226.707V228.168H876.95V225.97H882.844V225.658C882.827 225.042 882.753 224.514 882.619 224.072C882.486 223.623 882.27 223.281 881.97 223.048C881.679 222.807 881.275 222.686 880.759 222.686C880.384 222.686 880.051 222.757 879.76 222.898C879.468 223.04 879.227 223.269 879.035 223.585C878.852 223.902 878.711 224.326 878.611 224.859C878.511 225.383 878.461 226.033 878.461 226.807V228.106C878.461 228.78 878.519 229.35 878.636 229.817C878.761 230.283 878.944 230.666 879.185 230.965C879.427 231.257 879.718 231.473 880.059 231.615C880.409 231.748 880.813 231.815 881.271 231.815C881.945 231.815 882.524 231.69 883.006 231.44C883.498 231.182 883.922 230.849 884.28 230.441L885.566 232.227C885.325 232.551 885 232.872 884.592 233.188C884.184 233.496 883.689 233.75 883.106 233.95C882.532 234.15 881.858 234.25 881.083 234.25ZM888.276 232.476C888.276 231.994 888.43 231.59 888.738 231.265C889.055 230.941 889.488 230.778 890.037 230.778C890.587 230.778 891.015 230.941 891.323 231.265C891.64 231.59 891.798 231.994 891.798 232.476C891.798 232.943 891.64 233.338 891.323 233.663C891.015 233.988 890.587 234.15 890.037 234.15C889.488 234.15 889.055 233.988 888.738 233.663C888.43 233.338 888.276 232.943 888.276 232.476Z" fill="white"/>
<path d="M693.884 132.031V123.165M693.884 114.299H693.906M716.048 123.165C716.048 135.406 706.125 145.33 693.884 145.33C681.642 145.33 671.719 135.406 671.719 123.165C671.719 110.924 681.642 101 693.884 101C706.125 101 716.048 110.924 716.048 123.165Z" stroke="white" stroke-width="5.96746" stroke-linecap="round" stroke-linejoin="round"/>
</g>
</svg>
