<svg width="27" height="28" viewBox="0 0 27 28" fill="none" xmlns="http://www.w3.org/2000/svg">
<path d="M13.0513 0.910156C13.5913 0.910156 14.1413 0.910156 14.6813 0.910156C14.7613 0.930156 14.8413 0.940155 14.9313 0.960155C15.6313 1.07016 16.3513 1.13016 17.0413 1.31016C23.7413 3.03016 27.8812 9.41016 26.7412 16.2402C25.7312 22.2802 20.4113 26.9102 14.2913 27.0602C11.1113 27.1402 8.25122 26.2202 5.75122 24.2302C3.16122 22.1602 1.5612 19.4902 0.981201 16.2202C0.901201 15.7502 0.85125 15.2802 0.78125 14.8102C0.78125 14.2702 0.78125 13.7202 0.78125 13.1802C0.82125 12.8702 0.851235 12.5602 0.891235 12.2502C1.26124 9.59016 2.33124 7.25016 4.14124 5.26016C6.16124 3.03016 8.66123 1.64016 11.6312 1.12016C12.1112 1.02016 12.5813 0.970156 13.0513 0.910156ZM19.3113 13.9502C19.3413 11.0002 16.9012 8.52016 13.9412 8.49016C10.9112 8.47016 8.46126 10.8602 8.42126 13.8702C8.38126 16.8602 10.8113 19.3502 13.7913 19.3802C16.8213 19.4302 19.2713 17.0102 19.3113 13.9502ZM19.3812 19.1602C19.3712 19.1402 19.3812 19.0902 19.3512 19.0602C19.1412 18.8402 18.9412 18.6202 18.7012 18.4202C18.6412 18.3702 18.4612 18.4102 18.3912 18.4702C18.3212 18.5302 18.2713 18.7202 18.3113 18.7702C18.5113 19.0102 18.7312 19.2502 18.9812 19.4502C19.1412 19.5802 19.3812 19.3902 19.3812 19.1602ZM14.1813 21.0002C14.1813 20.8802 14.1913 20.7602 14.1813 20.6402C14.1713 20.4602 14.0612 20.3302 13.8912 20.3602C13.7812 20.3802 13.6112 20.5002 13.5912 20.6002C13.5512 20.8602 13.5512 21.1302 13.5912 21.3802C13.6112 21.4802 13.7712 21.6102 13.8812 21.6302C14.0512 21.6602 14.1613 21.5302 14.1713 21.3502C14.1813 21.2302 14.1813 21.1102 14.1813 21.0002ZM9.19116 18.4002C9.10116 18.4202 9.05124 18.4102 9.02124 18.4402C8.81124 18.6502 8.58125 18.8402 8.41125 19.0702C8.36125 19.1302 8.42122 19.3502 8.50122 19.4102C8.58122 19.4702 8.78121 19.4702 8.86121 19.4102C9.06121 19.2702 9.23123 19.0802 9.38123 18.8902C9.44123 18.8202 9.45125 18.6602 9.41125 18.5702C9.38126 18.4902 9.25116 18.4402 9.19116 18.4002ZM20.9012 13.6702C20.7912 13.6702 20.6812 13.6702 20.5712 13.6702C20.3912 13.6802 20.2812 13.7802 20.2712 13.9502C20.2612 14.1402 20.3713 14.2602 20.5613 14.2702C20.7913 14.2902 21.0212 14.2902 21.2412 14.2702C21.4212 14.2602 21.5413 14.1402 21.5312 13.9502C21.5212 13.7802 21.4112 13.6702 21.2312 13.6702C21.1212 13.6702 21.0112 13.6702 20.9012 13.6702ZM6.82117 14.2902C6.94117 14.2902 7.07126 14.3302 7.17126 14.2802C7.28126 14.2302 7.41116 14.1202 7.44116 14.0102C7.49116 13.8502 7.36116 13.7102 7.19116 13.6902C6.95116 13.6702 6.70118 13.6602 6.46118 13.7002C6.36118 13.7202 6.24118 13.8802 6.21118 13.9902C6.18118 14.1602 6.3112 14.2702 6.4812 14.2802C6.6012 14.3002 6.71117 14.2902 6.82117 14.2902ZM19.1012 8.45016C19.0212 8.47016 18.9712 8.48016 18.9412 8.50016C18.7412 8.69016 18.5312 8.88016 18.3612 9.10015C18.3112 9.16016 18.3712 9.38015 18.4412 9.44016C18.5212 9.50016 18.7213 9.50016 18.8013 9.44016C18.9813 9.31015 19.1513 9.14016 19.2913 8.96016C19.3513 8.88016 19.3612 8.73016 19.3212 8.64016C19.2912 8.56016 19.1712 8.51016 19.1012 8.45016ZM9.40125 9.21016C9.39124 9.19016 9.40123 9.15016 9.38123 9.13016C9.17123 8.92016 8.97122 8.70016 8.75122 8.52016C8.70122 8.48016 8.51117 8.54016 8.45117 8.61016C8.39117 8.67016 8.36125 8.85016 8.40125 8.90016C8.57125 9.12016 8.7712 9.33016 8.9812 9.49016C9.1512 9.62016 9.41125 9.44016 9.40125 9.21016ZM13.5613 6.92016C13.5613 7.03016 13.5513 7.14016 13.5613 7.25016C13.5713 7.43016 13.6912 7.56016 13.8612 7.53016C13.9712 7.51016 14.1312 7.38016 14.1512 7.28016C14.2012 7.06016 14.1813 6.82016 14.1613 6.60016C14.1513 6.43016 14.0312 6.32016 13.8512 6.33016C13.6712 6.34016 13.5713 6.44016 13.5613 6.62016C13.5513 6.72016 13.5613 6.82016 13.5613 6.92016Z" fill="#685AAD"/>
<path d="M13.5417 9.11035C13.5417 12.3404 13.5417 15.5304 13.5417 18.7704C11.9217 18.6204 10.6417 17.9003 9.79165 16.5303C8.76165 14.8703 8.7316 13.1403 9.7316 11.4604C10.5716 10.0304 11.8817 9.28035 13.5417 9.11035Z" fill="#685AAD"/>
</svg>
