<svg width="82" height="88" viewBox="0 0 82 88" fill="none" xmlns="http://www.w3.org/2000/svg">
<path d="M9.60942 0.0585938C24.4794 0.0585938 39.3494 0.0585938 54.2194 0.0585938C54.4794 0.168594 54.7394 0.278621 54.9894 0.398621C56.4294 1.04862 57.2594 2.44859 57.1594 4.05859C57.0694 5.57859 56.0494 6.92862 54.5694 7.33862C53.9494 7.50862 53.2694 7.54858 52.6194 7.54858C38.9794 7.55858 25.3395 7.55859 11.6995 7.55859C11.2995 7.55859 10.8994 7.54857 10.4994 7.59857C9.28944 7.72857 8.40945 8.70857 8.38945 9.90857C8.37945 11.1486 9.26943 12.1586 10.5194 12.2786C10.8894 12.3186 11.2594 12.3086 11.6294 12.3086C24.0094 12.3086 36.3895 12.3086 48.7695 12.3086C49.4795 12.3086 50.1994 12.3386 50.9094 12.3886C56.3394 12.7886 60.9294 17.4486 61.0494 22.8886C61.1594 28.2886 61.0894 33.6986 61.0994 39.0986C61.0994 39.4386 61.0994 39.7786 61.0994 40.1286C61.4194 40.2086 61.6594 40.2986 61.9094 40.3386C64.3594 40.7286 66.6894 41.4986 68.8494 42.6986C77.1894 47.3586 81.5794 54.4886 81.7294 64.0286C81.8194 69.4186 80.1195 74.3586 76.7095 78.5686C70.6295 86.0786 62.7195 89.0886 53.1995 87.4286C47.2395 86.3886 42.4595 83.2286 38.7795 78.4386C38.2895 77.8086 37.7994 77.5786 36.9994 77.5786C28.8794 77.6086 20.7595 77.6286 12.6395 77.5686C11.2595 77.5586 9.81943 77.3786 8.51943 76.9486C3.76943 75.3986 0.879444 71.1586 0.879444 65.9086C0.869444 54.5286 0.879444 43.1486 0.879444 31.7686C0.879444 24.6186 0.869444 17.4686 0.879444 10.3186C0.889444 5.6286 3.52944 1.89863 7.77944 0.528625C8.38944 0.338625 9.00942 0.208594 9.60942 0.0585938ZM57.7695 82.5286C67.9395 82.6086 76.3494 74.2186 76.3794 63.9486C76.4194 53.7386 68.1794 45.4286 57.9094 45.3286C47.6494 45.2286 39.2595 53.5486 39.1995 63.8786C39.1495 74.0786 47.4795 82.4486 57.7695 82.5286ZM16.9894 43.5686C16.9894 40.5386 16.9894 37.5086 16.9894 34.4786C16.9894 31.0186 17.0094 27.5586 16.9794 24.1086C16.9594 21.9586 15.0094 20.5386 13.0394 21.2086C11.7594 21.6386 10.9994 22.7786 10.9994 24.3586C10.9894 37.1386 10.9994 49.9086 10.9994 62.6886C10.9994 63.0286 11.0394 63.3786 11.1194 63.7086C11.4894 65.2086 12.8895 66.1486 14.4195 65.9386C15.9495 65.7286 16.9794 64.4486 16.9794 62.6986C16.9994 56.3186 16.9894 49.9386 16.9894 43.5686Z" fill="#473171"/>
<path d="M57.7793 72.6867C52.9393 72.6667 49.0293 68.7267 49.0293 63.8967C49.0393 59.0767 53.0093 55.1267 57.8193 55.1367C62.6193 55.1467 66.5793 59.1367 66.5693 63.9467C66.5693 68.7667 62.6093 72.7067 57.7793 72.6867ZM57.8193 67.5167C59.8093 67.5067 61.4093 65.9167 61.4293 63.9367C61.4393 61.9267 59.7892 60.2767 57.7892 60.2867C55.8092 60.2967 54.2093 61.9067 54.1993 63.8867C54.1893 65.9367 55.7793 67.5267 57.8193 67.5167Z" fill="#473171"/>
</svg>
