<svg width="73" height="79" viewBox="0 0 73 79" fill="none" xmlns="http://www.w3.org/2000/svg">
<path d="M8.44972 0.476562C21.6513 0.476562 34.8528 0.476562 48.0544 0.476562C48.2852 0.57422 48.5161 0.671902 48.738 0.778438C50.0165 1.35551 50.7533 2.5984 50.6645 4.02776C50.5846 5.37721 49.6791 6.57577 48.3652 6.93976C47.8147 7.09069 47.211 7.12617 46.634 7.12617C34.5244 7.13504 22.4148 7.13505 10.3052 7.13505C9.95013 7.13505 9.595 7.12615 9.23988 7.17055C8.16564 7.28596 7.38439 8.156 7.36664 9.22136C7.35776 10.3222 8.14788 11.219 9.25762 11.3255C9.58611 11.361 9.91461 11.3521 10.2431 11.3521C21.234 11.3521 32.225 11.3521 43.216 11.3521C43.8463 11.3521 44.4855 11.3787 45.1158 11.4231C49.9365 11.7783 54.0116 15.9154 54.1181 20.745C54.2158 25.5391 54.1536 30.3421 54.1625 35.1362C54.1625 35.4381 54.1625 35.7399 54.1625 36.0507C54.4466 36.1217 54.6596 36.2016 54.8816 36.2371C57.0567 36.5834 59.1253 37.267 61.0429 38.3323C68.4472 42.4695 72.3446 48.7995 72.4778 57.2691C72.5577 62.0543 71.0484 66.44 68.0211 70.1776C62.6232 76.845 55.6007 79.5173 47.1489 78.0435C41.8576 77.1202 37.614 74.3148 34.3469 70.0622C33.9118 69.5029 33.4768 69.2987 32.7665 69.2987C25.5576 69.3254 18.3487 69.3431 11.1398 69.2898C9.91462 69.281 8.63616 69.1212 7.48203 68.7394C3.26498 67.3633 0.699258 63.599 0.699258 58.9381C0.69038 48.8349 0.699258 38.7318 0.699258 28.6287C0.699258 22.2809 0.69038 15.9331 0.699258 9.58539C0.708136 5.42161 3.05192 2.11014 6.82506 0.893856C7.36662 0.725174 7.91704 0.609732 8.44972 0.476562ZM51.2061 73.6933C60.2351 73.7644 67.7014 66.3157 67.7281 57.198C67.7636 48.1336 60.4481 40.756 51.3304 40.6672C42.2216 40.5784 34.773 47.9649 34.7197 57.1359C34.6753 66.1914 42.0707 73.6223 51.2061 73.6933ZM15.0017 39.1047C15.0017 36.4147 15.0017 33.7246 15.0017 31.0346C15.0017 27.9628 15.0194 24.891 14.9928 21.8281C14.975 19.9193 13.2439 18.6587 11.4949 19.2535C10.3585 19.6353 9.68378 20.6473 9.68378 22.0501C9.6749 33.3961 9.68378 44.7333 9.68378 56.0794C9.68378 56.3812 9.71928 56.692 9.79031 56.985C10.1188 58.3167 11.3617 59.1512 12.7201 58.9647C14.0784 58.7783 14.9928 57.6419 14.9928 56.0883C15.0106 50.4241 15.0017 44.76 15.0017 39.1047Z" fill="white"/>
</svg>
