<svg width="28" height="33" viewBox="0 0 28 33" fill="none" xmlns="http://www.w3.org/2000/svg">
<path d="M7.46743 32.1075C7.42162 32.1075 7.37582 32.1075 7.33001 32.1075C3.20793 32.0159 -0.0897387 28.5809 0.00186317 24.4588V7.37503C0.0934651 3.29874 3.43694 0.046875 7.46743 0.046875C7.46743 0.046875 7.46741 0.046875 7.51322 0.046875H18.139C18.5054 0.046875 18.8719 0.184261 19.1467 0.459067L27.2534 8.88645C27.4824 9.16126 27.6198 9.48185 27.6198 9.84826V24.5046C27.6656 28.6267 24.4596 31.9701 20.3375 32.1075H20.2917H7.46743ZM7.46743 2.74911C4.90257 2.74911 2.79572 4.81017 2.74992 7.37503V24.4588C2.70412 27.1152 4.76516 29.2679 7.37582 29.3137H7.46743H20.2001C22.8107 29.1763 24.826 27.0694 24.826 24.4588V10.3521L17.5436 2.74911H7.46743Z" fill="#8276BC"/>
<path d="M26.2016 11.4961H21.8047C18.7818 11.4961 16.3086 9.0228 16.3086 5.99994V1.37403C16.3086 0.595412 16.904 0 17.6826 0C18.4612 0 19.0567 0.595412 19.0567 1.37403V5.99994C19.0567 7.51137 20.2933 8.748 21.8047 8.748H26.2016C26.9802 8.748 27.5756 9.34341 27.5756 10.122C27.5756 10.9006 26.9802 11.4961 26.2016 11.4961Z" fill="#8276BC"/>
<path d="M13.7963 25.6512C13.1551 25.6512 12.6055 25.1016 12.6055 24.4604V15.3002C12.6055 14.659 13.1551 14.1094 13.7963 14.1094C14.4375 14.1094 14.9871 14.659 14.9871 15.3002V24.4604C14.9871 25.1474 14.4375 25.6512 13.7963 25.6512Z" fill="#8276BC"/>
<path d="M13.7922 25.647C13.4716 25.647 13.1509 25.5096 12.9219 25.2806L8.93726 21.2959C8.47925 20.8379 8.47925 20.0593 8.93726 19.6013C9.39527 19.1433 10.1739 19.1433 10.6319 19.6013L13.7464 22.7158L16.8608 19.6013C17.3188 19.1433 18.0974 19.1433 18.5555 19.6013C19.0135 20.0593 19.0135 20.8379 18.5555 21.2959L14.5708 25.2806C14.4334 25.5554 14.1128 25.647 13.7922 25.647Z" fill="#8276BC"/>
</svg>
