<svg width="90" height="79" viewBox="0 0 90 79" fill="none" xmlns="http://www.w3.org/2000/svg">
<path d="M72.7066 50.5101C77.0568 50.5101 81.4159 50.5101 85.7661 50.5101C87.2665 50.5101 87.5151 50.0928 86.7782 48.8055C77.6605 32.9494 68.5428 17.0933 59.4517 1.22836C59.0522 0.535873 58.5817 0.269531 57.7916 0.269531C49.0556 0.296165 40.3197 0.287291 31.5926 0.287291C30.1011 0.287291 29.8526 0.713433 30.5806 1.99186C39.6894 17.8479 48.8159 33.704 57.907 49.569C58.3065 50.2704 58.7859 50.5278 59.576 50.5189C63.944 50.5012 68.3209 50.5101 72.7066 50.5101ZM42.1485 31.4757C42.0331 31.2182 41.9532 30.9696 41.8201 30.7477C37.239 22.8818 32.6491 15.0159 28.0592 7.15886C27.4644 6.13789 26.9051 6.15564 26.3191 7.19436C17.6897 22.4645 9.06028 37.7346 0.413115 52.9959C0.0935078 53.5641 0.0580782 54.0169 0.386564 54.6028C4.84331 62.4421 9.28222 70.2902 13.7301 78.1295C14.316 79.1593 14.8843 79.1593 15.4703 78.1384C24.2506 62.8505 33.022 47.5715 41.8023 32.2836C41.9443 32.0261 42.0331 31.7509 42.1485 31.4757Z" fill="white"/>
<path d="M89.2502 54.062C85.8855 59.9836 82.5118 65.9052 79.1471 71.8268C78.0107 73.8155 76.8476 75.7864 75.7823 77.8106C75.3206 78.6895 74.7258 78.947 73.7758 78.9381C57.1207 78.9115 40.4568 78.9204 23.8017 78.9204C23.1891 78.9204 22.5854 78.9293 21.9728 78.9204C20.7832 78.8937 20.5257 78.4321 21.1205 77.3845C23.8905 72.4927 26.6693 67.6009 29.4392 62.7092C31.0816 59.8061 32.7418 56.9207 34.3575 53.9999C34.7304 53.334 35.1744 53.0499 35.9379 53.0588C53.2677 53.0766 70.5887 53.0677 87.9185 53.0943C88.3624 53.0943 88.8063 53.3873 89.2502 53.5471C89.2502 53.7158 89.2502 53.8933 89.2502 54.062Z" fill="white"/>
<path d="M72.706 50.509C68.3202 50.509 63.9433 50.4912 59.5576 50.5267C58.7675 50.5356 58.2969 50.2693 57.8885 49.5768C48.7886 33.7118 39.671 17.8558 30.5622 1.99968C29.8253 0.721245 30.0828 0.29509 31.5743 0.29509C40.3102 0.29509 49.0461 0.303978 57.7731 0.277344C58.5721 0.277344 59.0428 0.543685 59.4334 1.23617C68.5333 17.1011 77.651 32.9572 86.7598 48.8133C87.4966 50.1006 87.248 50.509 85.7477 50.5179C81.4152 50.509 77.0562 50.509 72.706 50.509Z" fill="white"/>
<path d="M42.1453 31.4736C42.021 31.7488 41.9322 32.024 41.7902 32.2726C33.0187 47.5605 24.2384 62.8484 15.4581 78.1274C14.8722 79.1483 14.295 79.1484 13.718 78.1185C9.27009 70.2793 4.84006 62.4222 0.374428 54.5919C0.0370643 54.0059 0.0813718 53.5531 0.400979 52.9849C9.03926 37.7237 17.6687 22.4535 26.307 7.18339C26.8929 6.14467 27.4522 6.13578 28.047 7.14787C32.637 15.0049 37.2269 22.8708 41.8079 30.7367C41.95 30.9586 42.0299 31.2072 42.1453 31.4736Z" fill="white"/>
</svg>
