<svg width="102" height="90" viewBox="0 0 102 90" fill="none" xmlns="http://www.w3.org/2000/svg">
<path d="M82.5084 57.1017C87.4084 57.1017 92.3184 57.1017 97.2184 57.1017C98.9084 57.1017 99.1884 56.6317 98.3584 55.1817C88.0884 37.3217 77.8184 19.4617 67.5784 1.59172C67.1284 0.811721 66.5984 0.511719 65.7084 0.511719C55.8684 0.541719 46.0284 0.531723 36.1984 0.531723C34.5184 0.531723 34.2385 1.01172 35.0585 2.45172C45.3185 20.3117 55.5984 38.1717 65.8384 56.0417C66.2884 56.8317 66.8284 57.1217 67.7184 57.1117C72.6384 57.0917 77.5684 57.1017 82.5084 57.1017ZM48.0884 35.6617C47.9584 35.3717 47.8684 35.0917 47.7184 34.8417C42.5584 25.9817 37.3884 17.1217 32.2184 8.27173C31.5484 7.12173 30.9184 7.14172 30.2584 8.31172C20.5384 25.5117 10.8184 42.7117 1.07839 59.9017C0.718391 60.5417 0.678484 61.0517 1.04848 61.7117C6.06848 70.5417 11.0684 79.3817 16.0784 88.2117C16.7384 89.3717 17.3785 89.3717 18.0385 88.2217C27.9285 71.0017 37.8084 53.7917 47.6984 36.5717C47.8584 36.2817 47.9584 35.9717 48.0884 35.6617Z" fill="#473171"/>
<path d="M101.148 61.1029C97.3585 67.7729 93.5585 74.4429 89.7685 81.1129C88.4885 83.3529 87.1785 85.5729 85.9785 87.8529C85.4585 88.8429 84.7884 89.1329 83.7184 89.1229C64.9584 89.0929 46.1885 89.1029 27.4285 89.1029C26.7385 89.1029 26.0585 89.1129 25.3685 89.1029C24.0285 89.0729 23.7385 88.5529 24.4085 87.3729C27.5285 81.8629 30.6585 76.3529 33.7785 70.8429C35.6285 67.5729 37.4984 64.3229 39.3184 61.0329C39.7384 60.2829 40.2384 59.9629 41.0984 59.9729C60.6184 59.9929 80.1285 59.9829 99.6485 60.0129C100.148 60.0129 100.648 60.3429 101.148 60.5229C101.148 60.7129 101.148 60.9129 101.148 61.1029Z" fill="#473171"/>
<path d="M82.5082 57.1034C77.5682 57.1034 72.6382 57.0834 67.6982 57.1234C66.8082 57.1334 66.2782 56.8334 65.8182 56.0534C55.5682 38.1834 45.2983 20.3234 35.0383 2.46344C34.2083 1.02344 34.4983 0.543427 36.1783 0.543427C46.0183 0.543427 55.8582 0.553437 65.6882 0.523438C66.5882 0.523438 67.1183 0.823439 67.5583 1.60344C77.8083 19.4734 88.0782 37.3334 98.3382 55.1934C99.1682 56.6434 98.8882 57.1034 97.1982 57.1134C92.3182 57.1034 87.4082 57.1034 82.5082 57.1034Z" fill="#473171"/>
<path d="M48.0887 35.6604C47.9487 35.9704 47.8486 36.2804 47.6886 36.5604C37.8086 53.7804 27.9187 71.0004 18.0287 88.2104C17.3687 89.3604 16.7186 89.3604 16.0686 88.2004C11.0586 79.3704 6.06874 70.5204 1.03874 61.7004C0.658742 61.0404 0.708649 60.5304 1.06865 59.8904C10.7986 42.7004 20.5187 25.5004 30.2487 8.30042C30.9087 7.13042 31.5387 7.12041 32.2087 8.26041C37.3787 17.1104 42.5487 25.9704 47.7087 34.8304C47.8687 35.0804 47.9587 35.3604 48.0887 35.6604Z" fill="#473171"/>
</svg>
