<svg width="19" height="25" viewBox="0 0 19 25" fill="none" xmlns="http://www.w3.org/2000/svg">
<path d="M13.15 17.77C12.25 18.6 10.99 19.34 9.24 19.34C6.71 19.34 5.22 17.77 5.12 14.96H18.25V10.47C18.25 6.96 17.57 4.6 16.04 2.86C14.38 0.980001 11.98 0 9.08 0C6.37 0 4.13 0.910001 2.49 2.61C0.759998 4.42 0 6.63001 0 10.07V13.76C0 17.49 0.829999 19.87 2.71 21.61C4.41 23.16 6.66 24.03 9.16 24.03C11.87 24.03 14.01 23.16 16.01 21.28L13.15 17.77ZM5.12 10.36C5.12 7.9 5.62 4.64 9.14 4.64C12.65 4.64 13.16 7.89 13.16 10.36H5.12Z" fill="#685AAD"/>
</svg>
