<svg width="25" height="25" viewBox="0 0 25 25" fill="none" xmlns="http://www.w3.org/2000/svg">
<path d="M8.66257 24.6112C8.31257 24.6612 7.96257 24.6712 7.61257 24.7012C3.76257 24.6912 0.55257 21.8912 0.0625701 18.1012C-0.44743 14.1412 2.21257 10.4812 6.13257 9.78118C7.82257 9.47118 9.49257 9.52118 11.0526 10.3412C13.3526 11.5512 14.6926 13.4812 15.1226 16.0212C15.8226 20.1012 12.7326 24.0512 8.66257 24.6112Z" fill="#8653FF"/>
<path d="M17.6825 0.00119862C19.2225 0.0511986 21.0225 0.2412 22.7125 0.9712C23.1425 1.1612 23.5725 1.4012 23.9425 1.6912C24.8525 2.4112 24.8425 3.3212 23.9425 4.0612C23.3425 4.5512 22.6425 4.85122 21.9125 5.08122C19.9925 5.67122 18.0325 5.8212 16.0325 5.7212C14.6825 5.6512 13.3425 5.47122 12.0625 5.02122C11.5125 4.83122 10.9925 4.53122 10.4725 4.27122C10.3125 4.19122 10.1825 4.0612 10.0525 3.9412C9.33255 3.2512 9.32255 2.49122 10.0525 1.80122C10.6225 1.26122 11.3325 0.951221 12.0625 0.711221C13.6325 0.211221 15.3925 -0.0188014 17.6825 0.00119862Z" fill="#8653FF"/>
<path d="M9.44238 5.80127C9.84238 6.01127 10.2024 6.23128 10.5924 6.40128C11.8224 6.96128 13.1224 7.23127 14.4424 7.39127C16.2424 7.61127 18.0424 7.61127 19.8324 7.36127C21.5124 7.13127 23.1324 6.74125 24.6024 5.78125C24.6124 5.86125 24.6224 5.92127 24.6224 5.99127C24.6324 6.54127 24.6524 7.09126 24.6224 7.63126C24.6124 7.84126 24.5124 8.07126 24.3824 8.23126C24.0624 8.65126 23.5924 8.88126 23.1324 9.10126C21.8924 9.66126 20.5824 9.97127 19.2524 10.1813C18.1424 10.3613 17.0324 10.4413 15.9124 10.3913C15.4224 10.3613 14.9324 10.2913 14.4424 10.2213C14.1924 10.1913 13.9924 10.0813 13.7924 9.90128C12.6524 8.89128 11.3724 8.12125 9.84238 7.84125C9.44238 7.77125 9.44238 7.76125 9.44238 7.34125C9.44238 6.83125 9.44238 6.32127 9.44238 5.80127Z" fill="#8653FF"/>
<path d="M13.6328 24.3696C13.9128 24.0896 14.1828 23.8595 14.4028 23.5895C14.8128 23.1095 15.2128 22.6195 15.5728 22.0995C15.7328 21.8695 15.8828 21.7996 16.1428 21.8096C17.9128 21.8996 19.6528 21.7496 21.3728 21.2996C22.3728 21.0296 23.3328 20.6595 24.2428 20.1595C24.3228 20.1195 24.4028 20.0795 24.5228 20.0195C24.5328 20.1295 24.5428 20.2095 24.5428 20.2795C24.5528 20.8295 24.5628 21.3796 24.5628 21.9196C24.5628 22.2296 24.4328 22.5096 24.1828 22.6696C23.7228 22.9896 23.2528 23.3096 22.7428 23.5396C21.2828 24.1796 19.7328 24.4596 18.1528 24.6296C16.9528 24.7596 15.7528 24.7795 14.5528 24.5795C14.2528 24.5195 13.9628 24.4396 13.6328 24.3696Z" fill="#8653FF"/>
<path d="M15.7021 12.2631C18.8321 12.4731 21.8221 12.0131 24.6121 10.4531C24.6121 11.1331 24.6421 11.7731 24.5921 12.4031C24.5721 12.6431 24.3821 12.8931 24.2121 13.0731C23.6521 13.6631 22.9221 13.9931 22.1721 14.2731C20.5121 14.8931 18.7821 15.1331 17.0221 15.1231C16.9021 15.1231 16.8121 15.1131 16.7721 14.9631C16.5421 14.0431 16.1621 13.1831 15.7321 12.3531C15.7321 12.3431 15.7221 12.3231 15.7021 12.2631Z" fill="#8653FF"/>
<path d="M24.5328 15.2305C24.5328 15.9205 24.5628 16.5605 24.5128 17.1905C24.4928 17.4105 24.3328 17.6504 24.1728 17.8304C23.6828 18.3604 23.0428 18.6805 22.3828 18.9405C20.5628 19.6805 18.6528 19.9605 16.6928 19.9105C16.6728 19.9105 16.6428 19.9004 16.5928 19.8904C16.8928 18.9704 17.0628 18.0405 16.9828 17.0405C19.6728 17.1705 22.1628 16.5505 24.5328 15.2305Z" fill="#8653FF"/>
</svg>
