<svg width="67" height="89" viewBox="0 0 67 89" fill="none" xmlns="http://www.w3.org/2000/svg">
<path d="M48.3351 65.8894C45.0451 68.9294 40.4152 71.6194 34.0452 71.6194C24.7852 71.6194 19.3551 65.8894 18.9551 55.5894H67.0052V39.1494C67.0052 26.2994 64.5152 17.6894 58.9352 11.3194C52.8652 4.44937 44.0952 0.859375 33.4952 0.859375C23.5852 0.859375 15.3751 4.19937 9.39514 10.4194C3.07514 17.0394 0.285156 25.1094 0.285156 37.7094V51.1994C0.285156 64.8394 3.32519 73.5594 10.1952 79.9294C16.4152 85.6094 24.6352 88.7894 33.7952 88.7894C43.7052 88.7894 51.5252 85.5994 58.8452 78.7294L48.3351 65.8894ZM18.9551 38.7494C18.9551 29.7394 20.7951 17.8394 33.6451 17.8394C46.4951 17.8394 48.3351 29.7394 48.3351 38.7494H18.9551Z" fill="#473171"/>
</svg>
