<svg width="43" height="18" viewBox="0 0 43 18" fill="none" xmlns="http://www.w3.org/2000/svg">
<path d="M26.6672 12.0454V13.127H22.3133V12.0454H26.6672ZM22.5406 3.0963V13.127H21.273V3.0963H22.5406ZM26.0817 7.40893V8.49053H22.3133V7.40893H26.0817ZM26.5984 3.0963V4.18479H22.3133V3.0963H26.5984ZM31.8892 11.6802V2.54516H33.1017V13.127H31.9926L31.8892 11.6802ZM27.7213 9.75814V9.06233C27.7213 8.4469 27.781 7.91873 27.9004 7.47782C28.0198 7.03232 28.1898 6.66719 28.4102 6.38244C28.6307 6.09309 28.8947 5.87953 29.2025 5.74174C29.5102 5.60396 29.85 5.53507 30.2221 5.53507C30.6079 5.53507 30.9385 5.61315 31.2141 5.7693C31.4943 5.92546 31.7285 6.1528 31.9168 6.45133C32.1051 6.74527 32.2521 7.10351 32.3577 7.52604C32.4679 7.94399 32.5414 8.41704 32.5782 8.94522V9.87526C32.5368 10.3988 32.4611 10.8696 32.3508 11.2875C32.2452 11.7055 32.0982 12.0614 31.9099 12.3554C31.7216 12.6493 31.4874 12.8743 31.2072 13.0305C30.9271 13.1867 30.5941 13.2647 30.2083 13.2647C29.8409 13.2647 29.5056 13.1935 29.2025 13.0512C28.8993 12.9042 28.6353 12.686 28.4102 12.3967C28.1898 12.1028 28.0198 11.7376 27.9004 11.3013C27.781 10.8604 27.7213 10.346 27.7213 9.75814ZM28.9407 9.06233V9.75814C28.9407 10.1715 28.9705 10.532 29.0302 10.8397C29.0899 11.1429 29.1841 11.3955 29.3127 11.5976C29.4413 11.795 29.6043 11.942 29.8018 12.0385C30.0039 12.1349 30.245 12.1831 30.5252 12.1831C30.8651 12.1831 31.1429 12.1005 31.3588 11.9351C31.5746 11.7698 31.7469 11.5516 31.8755 11.2807C32.0087 11.0051 32.1143 10.7088 32.1924 10.3919V8.43542C32.1464 8.20118 32.0798 7.97614 31.9926 7.76028C31.9053 7.53982 31.7951 7.34463 31.6619 7.17469C31.5333 7.00017 31.3749 6.86238 31.1866 6.76134C31.0028 6.6603 30.787 6.60978 30.539 6.60978C30.2588 6.60978 30.0154 6.6603 29.8087 6.76134C29.6066 6.86238 29.4413 7.01395 29.3127 7.21603C29.1887 7.41811 29.0945 7.67301 29.0302 7.98073C28.9705 8.28845 28.9407 8.64898 28.9407 9.06233ZM36.2914 5.67285V13.127H35.0789V5.67285H36.2914ZM35.01 3.69565C35.01 3.48898 35.0675 3.31445 35.1823 3.17208C35.2971 3.0297 35.4693 2.95851 35.699 2.95851C35.9286 2.95851 36.1008 3.0297 36.2157 3.17208C36.3351 3.31445 36.3948 3.48898 36.3948 3.69565C36.3948 3.89314 36.3351 4.06308 36.2157 4.20545C36.1008 4.34324 35.9286 4.41213 35.699 4.41213C35.4693 4.41213 35.2971 4.34324 35.1823 4.20545C35.0675 4.06308 35.01 3.89314 35.01 3.69565ZM40.9416 5.67285V6.65112H37.4626V5.67285H40.9416ZM38.5993 3.861H39.8187V11.2807C39.8187 11.5333 39.8486 11.7239 39.9083 11.8525C39.9726 11.9811 40.0529 12.066 40.1494 12.1074C40.2458 12.1487 40.3492 12.1694 40.4594 12.1694C40.5421 12.1694 40.6339 12.1602 40.735 12.1418C40.836 12.1188 40.9049 12.1005 40.9416 12.0867L40.9348 13.127C40.8521 13.1591 40.7419 13.189 40.6041 13.2165C40.4663 13.2487 40.2918 13.2647 40.0805 13.2647C39.8187 13.2647 39.5753 13.2027 39.3502 13.0787C39.1252 12.9547 38.9438 12.748 38.806 12.4587C38.6682 12.1648 38.5993 11.7698 38.5993 11.2738V3.861Z" fill="#8653FF"/>
<path d="M20.1914 14.5048H41.479V15.1937H20.1914V14.5048Z" fill="#8653FF"/>
<path d="M7.21435 14.0944H12.9834M10.0989 3.43837C10.3539 3.18145 10.6997 3.03711 11.0604 3.03711C11.2389 3.03711 11.4158 3.07255 11.5807 3.14139C11.7457 3.21024 11.8956 3.31116 12.0219 3.43837C12.1481 3.56559 12.2483 3.71661 12.3166 3.88283C12.385 4.04905 12.4202 4.22719 12.4202 4.4071C12.4202 4.58701 12.385 4.76516 12.3166 4.93138C12.2483 5.09759 12.1481 5.24862 12.0219 5.37584L4.00933 13.4486L1.44531 14.0944L2.08632 11.5111L10.0989 3.43837Z" stroke="#8653FF" stroke-width="1.20188" stroke-linecap="round" stroke-linejoin="round"/>
</svg>
