<svg width="63" height="25" viewBox="0 0 63 25" fill="none" xmlns="http://www.w3.org/2000/svg">
<path d="M39.3872 18.3538V20H32.7606V18.3538H39.3872ZM33.1066 4.73378V20H31.1774V4.73378H33.1066ZM38.496 11.2974V12.9436H32.7606V11.2974H38.496ZM39.2823 4.73378V6.39042H32.7606V4.73378H39.2823ZM47.3349 17.7981V3.89498H49.1802V20H47.4921L47.3349 17.7981ZM40.9914 14.8728V13.8138C40.9914 12.8772 41.0823 12.0733 41.264 11.4023C41.4458 10.7242 41.7044 10.1685 42.0399 9.73514C42.3754 9.29477 42.7774 8.96974 43.2457 8.76004C43.714 8.55033 44.2313 8.44548 44.7975 8.44548C45.3846 8.44548 45.8879 8.56431 46.3073 8.80198C46.7337 9.03964 47.0902 9.38564 47.3768 9.83999C47.6634 10.2874 47.8871 10.8326 48.0478 11.4757C48.2156 12.1118 48.3274 12.8317 48.3834 13.6356V15.0511C48.3204 15.8479 48.2051 16.5644 48.0373 17.2005C47.8766 17.8366 47.6529 18.3783 47.3663 18.8257C47.0797 19.273 46.7232 19.6155 46.2968 19.8532C45.8704 20.0909 45.3637 20.2097 44.7765 20.2097C44.2173 20.2097 43.707 20.1014 43.2457 19.8847C42.7843 19.661 42.3824 19.329 42.0399 18.8886C41.7044 18.4412 41.4458 17.8855 41.264 17.2215C41.0823 16.5504 40.9914 15.7675 40.9914 14.8728ZM42.8473 13.8138V14.8728C42.8473 15.5019 42.8927 16.0506 42.9836 16.519C43.0744 16.9803 43.2177 17.3648 43.4134 17.6723C43.6092 17.9729 43.8573 18.1966 44.1579 18.3434C44.4654 18.4902 44.8324 18.5635 45.2588 18.5635C45.7761 18.5635 46.199 18.4377 46.5275 18.1861C46.856 17.9344 47.1182 17.6024 47.3139 17.19C47.5166 16.7706 47.6774 16.3198 47.7962 15.8374V12.8597C47.7263 12.5032 47.6249 12.1607 47.4921 11.8322C47.3593 11.4966 47.1916 11.1996 46.9888 10.9409C46.7931 10.6753 46.552 10.4656 46.2654 10.3118C45.9858 10.158 45.6572 10.0812 45.2798 10.0812C44.8534 10.0812 44.4829 10.158 44.1684 10.3118C43.8608 10.4656 43.6092 10.6963 43.4134 11.0038C43.2247 11.3114 43.0814 11.6993 42.9836 12.1677C42.8927 12.636 42.8473 13.1847 42.8473 13.8138ZM54.0348 8.65518V20H52.1894V8.65518H54.0348ZM52.0846 5.64598C52.0846 5.33143 52.172 5.06581 52.3467 4.84911C52.5215 4.63242 52.7836 4.52408 53.1331 4.52408C53.4826 4.52408 53.7447 4.63242 53.9195 4.84911C54.1012 5.06581 54.1921 5.33143 54.1921 5.64598C54.1921 5.94655 54.1012 6.20518 53.9195 6.42187C53.7447 6.63157 53.4826 6.73642 53.1331 6.73642C52.7836 6.73642 52.5215 6.63157 52.3467 6.42187C52.172 6.20518 52.0846 5.94655 52.0846 5.64598ZM61.1122 8.65518V10.1441H55.8172V8.65518H61.1122ZM57.5473 5.89762H59.4031V17.19C59.4031 17.5745 59.4486 17.8645 59.5394 18.0603C59.6373 18.256 59.7596 18.3853 59.9064 18.4482C60.0532 18.5111 60.2105 18.5426 60.3782 18.5426C60.5041 18.5426 60.6439 18.5286 60.7976 18.5006C60.9514 18.4657 61.0563 18.4377 61.1122 18.4168L61.1017 20C60.9759 20.0489 60.8081 20.0944 60.5984 20.1363C60.3887 20.1852 60.1231 20.2097 59.8016 20.2097C59.4031 20.2097 59.0327 20.1153 58.6902 19.9266C58.3476 19.7379 58.0715 19.4233 57.8618 18.983C57.6521 18.5356 57.5473 17.9344 57.5473 17.1795V5.89762Z" fill="#8653FF"/>
<path d="M29.5312 22.097H40.205V23.1455H29.5312V22.097ZM39.9953 22.097H50.6481V23.1455H39.9953V22.097ZM50.6481 22.097H55.5761V23.1455H50.6481V22.097ZM55.5761 22.097H61.93V23.1455H55.5761V22.097Z" fill="#8653FF"/>
<path d="M9.78022 21.2584H18.5604M14.1703 5.04039C14.5584 4.64936 15.0848 4.42969 15.6337 4.42969C15.9055 4.42969 16.1746 4.48362 16.4257 4.5884C16.6768 4.69319 16.9049 4.84677 17.0971 5.04039C17.2892 5.23401 17.4417 5.46386 17.5457 5.71684C17.6497 5.96981 17.7032 6.24094 17.7032 6.51476C17.7032 6.78858 17.6497 7.05971 17.5457 7.31268C17.4417 7.56565 17.2892 7.79551 17.0971 7.98913L4.90232 20.2755L1 21.2584L1.97558 17.3268L14.1703 5.04039Z" stroke="#8653FF" stroke-width="1.82921" stroke-linecap="round" stroke-linejoin="round"/>
</svg>
