<svg width="63" height="26" viewBox="0 0 63 26" fill="none" xmlns="http://www.w3.org/2000/svg">
<path d="M39.784 18.4817V20.1211H33.1846V18.4817H39.784ZM33.5292 4.91757V20.1211H31.6079V4.91757H33.5292ZM38.8964 11.4543V13.0936H33.1846V11.4543H38.8964ZM39.6795 4.91757V6.5674H33.1846V4.91757H39.6795ZM47.699 17.9283V4.08221H49.5368V20.1211H47.8556L47.699 17.9283ZM41.3816 15.015V13.9603C41.3816 13.0275 41.4721 12.227 41.6531 11.5587C41.8341 10.8834 42.0916 10.33 42.4258 9.8984C42.7599 9.45983 43.1602 9.13613 43.6266 8.92729C44.093 8.71845 44.6082 8.61403 45.172 8.61403C45.7568 8.61403 46.258 8.73237 46.6757 8.96906C47.1003 9.20574 47.4553 9.55033 47.7408 10.0028C48.0262 10.4483 48.2489 10.9913 48.409 11.6318C48.5761 12.2652 48.6875 12.9823 48.7432 13.7828V15.1925C48.6805 15.9861 48.5657 16.6996 48.3986 17.3331C48.2385 17.9666 48.0157 18.5061 47.7303 18.9516C47.4449 19.3971 47.0899 19.7382 46.6652 19.9749C46.2406 20.2116 45.7359 20.3299 45.1511 20.3299C44.5942 20.3299 44.0861 20.222 43.6266 20.0062C43.1672 19.7835 42.7669 19.4528 42.4258 19.0142C42.0916 18.5687 41.8341 18.0153 41.6531 17.354C41.4721 16.6857 41.3816 15.906 41.3816 15.015ZM43.2298 13.9603V15.015C43.2298 15.6415 43.2751 16.1879 43.3656 16.6544C43.4561 17.1138 43.5988 17.4967 43.7937 17.803C43.9886 18.1023 44.2357 18.3251 44.5351 18.4713C44.8414 18.6174 45.2068 18.6905 45.6315 18.6905C46.1466 18.6905 46.5678 18.5652 46.895 18.3146C47.2221 18.064 47.4832 17.7334 47.6781 17.3226C47.88 16.905 48.0401 16.456 48.1584 15.9756V13.0101C48.0888 12.6551 47.9879 12.314 47.8556 11.9868C47.7234 11.6526 47.5563 11.3568 47.3544 11.0992C47.1595 10.8347 46.9193 10.6259 46.6339 10.4727C46.3555 10.3196 46.0283 10.243 45.6524 10.243C45.2277 10.243 44.8588 10.3196 44.5455 10.4727C44.2392 10.6259 43.9886 10.8556 43.7937 11.1619C43.6057 11.4682 43.463 11.8545 43.3656 12.3209C43.2751 12.7873 43.2298 13.3338 43.2298 13.9603ZM54.3714 8.82287V20.1211H52.5336V8.82287H54.3714ZM52.4292 5.82602C52.4292 5.51276 52.5162 5.24823 52.6903 5.03243C52.8643 4.81663 53.1253 4.70873 53.4734 4.70873C53.8215 4.70873 54.0825 4.81663 54.2566 5.03243C54.4375 5.24823 54.528 5.51276 54.528 5.82602C54.528 6.12536 54.4375 6.38293 54.2566 6.59873C54.0825 6.80757 53.8215 6.91199 53.4734 6.91199C53.1253 6.91199 52.8643 6.80757 52.6903 6.59873C52.5162 6.38293 52.4292 6.12536 52.4292 5.82602ZM61.4198 8.82287V10.3056H56.1466V8.82287H61.4198ZM57.8695 6.07663H59.7177V17.3226C59.7177 17.7055 59.763 17.9944 59.8535 18.1893C59.9509 18.3842 60.0727 18.513 60.2189 18.5757C60.3651 18.6383 60.5217 18.6697 60.6888 18.6697C60.8141 18.6697 60.9533 18.6557 61.1065 18.6279C61.2596 18.5931 61.3641 18.5652 61.4198 18.5444L61.4093 20.1211C61.284 20.1698 61.1169 20.2151 60.9081 20.2568C60.6993 20.3056 60.4347 20.3299 60.1145 20.3299C59.7177 20.3299 59.3488 20.236 59.0077 20.048C58.6665 19.86 58.3916 19.5468 58.1827 19.1082C57.9739 18.6627 57.8695 18.064 57.8695 17.3122V6.07663Z" fill="white"/>
<path d="M10.2993 21.287H19.0435M14.6714 5.13554C15.0579 4.74612 15.5822 4.52734 16.1288 4.52734C16.3994 4.52734 16.6674 4.58105 16.9175 4.68541C17.1675 4.78976 17.3948 4.94272 17.5861 5.13554C17.7775 5.32836 17.9293 5.55727 18.0329 5.80921C18.1365 6.06114 18.1898 6.33116 18.1898 6.60385C18.1898 6.87654 18.1365 7.14656 18.0329 7.3985C17.9293 7.65043 17.7775 7.87934 17.5861 8.07216L5.44147 20.3081L1.55518 21.287L2.52675 17.3715L14.6714 5.13554Z" stroke="white" stroke-width="1.8217" stroke-linecap="round" stroke-linejoin="round"/>
</svg>
