<svg width="19" height="25" viewBox="0 0 19 25" fill="none" xmlns="http://www.w3.org/2000/svg">
<path d="M13.2 17.8C12.3 18.6 11 19.4 9.3 19.4C6.8 19.4 5.3 17.8 5.2 15H18.3V10.5C18.3 7 17.6 4.59999 16.1 2.89999C14.4 0.999994 12 0 9.1 0C6.4 0 4.2 0.899991 2.5 2.59999C0.8 4.39999 0 6.59999 0 10.1V13.8C0 17.5 0.799997 19.9 2.7 21.7C4.4 23.3 6.6 24.1 9.1 24.1C11.8 24.1 13.9 23.2 15.9 21.3L13.2 17.8ZM5.1 10.3C5.1 7.79999 5.6 4.59999 9.1 4.59999C12.6 4.59999 13.1 7.79999 13.1 10.3H5.1Z" fill="#8653ff"/>
</svg>
