<svg width="60" height="79" viewBox="0 0 60 79" fill="none" xmlns="http://www.w3.org/2000/svg">
<path d="M43.1822 58.3078C40.2613 61.0067 36.1508 63.3949 30.4955 63.3949C22.2745 63.3949 17.4537 58.3078 17.0986 49.1634H59.7574V34.568C59.7574 23.1598 57.5468 15.5159 52.5929 9.86059C47.2039 3.76142 39.4179 0.574219 30.0073 0.574219C21.2092 0.574219 13.9203 3.53946 8.61127 9.06157C3.00038 14.9388 0.523438 22.1033 0.523438 33.2896V45.266C0.523438 57.3756 3.22238 65.1172 9.32155 70.7725C14.8437 75.8152 22.1413 78.6384 30.2736 78.6384C39.0717 78.6384 46.0142 75.8063 52.5129 69.7071L43.1822 58.3078ZM17.0986 34.2129C17.0986 26.2138 18.7322 15.649 30.1404 15.649C41.5486 15.649 43.1822 26.2138 43.1822 34.2129H17.0986Z" fill="white"/>
</svg>
