<svg width="66" height="66" viewBox="0 0 66 66" fill="none" xmlns="http://www.w3.org/2000/svg">
<path d="M30.2001 62.8011C18.1001 69.7011 2.90007 62.6011 0.400067 48.9011C-1.59993 38.2011 5.60007 27.9011 16.4001 25.9011C17.9001 25.6011 19.4001 25.6011 20.9001 25.4011C29.8001 25.2011 37 31.5011 39.6 39.5011C42.4 48.4011 38.5001 58.1011 30.2001 62.8011Z" fill="white"/>
<path d="M46.3004 0.200793C50.9004 0.200793 55.4004 0.700775 59.8004 2.40078C61.1004 2.90078 62.2004 3.70077 63.4004 4.40077C63.8004 4.60077 64.1004 5.00077 64.4004 5.30077C65.8004 6.90077 65.8004 8.60079 64.4004 10.2008C63.2004 11.6008 61.5004 12.4008 59.8004 13.0008C56.9004 14.1008 53.8004 14.7008 50.7004 15.1008C46.5004 15.5008 42.2004 15.5008 38.0004 14.8008C34.9004 14.3008 31.8004 13.6008 28.9004 12.1008C28.0004 11.6008 27.1004 11.0008 26.4004 10.2008C24.9004 8.70079 24.9004 6.80079 26.4004 5.20079C27.8004 3.80079 29.5004 2.90077 31.3004 2.30077C34.6004 1.10077 38.0004 0.500769 41.5004 0.300769C43.2004 0.100769 44.7004 0.200793 46.3004 0.200793Z" fill="white"/>
<path d="M65.5002 15.5016C65.5002 16.8016 65.4002 18.0015 65.5002 19.3015C65.8002 21.3015 64.7002 22.4015 63.2002 23.3015C60.6002 24.9015 57.8002 25.7016 54.9002 26.4016C50.8002 27.3016 46.6002 27.8016 42.4002 27.7016C41.1002 27.6016 39.7002 27.4015 38.4002 27.3015C37.7002 27.2015 37.2002 26.9016 36.7002 26.5016C33.7002 23.8016 30.2002 21.8016 26.2002 21.0016C25.2002 20.8016 25.2002 20.8015 25.2002 19.8015C25.2002 18.4015 25.2002 17.0016 25.2002 15.6016C26.2002 16.1016 27.1002 16.7016 28.1002 17.1016C31.4002 18.6016 35.0002 19.4015 38.6002 19.8015C43.4002 20.4015 48.1002 20.4016 52.9002 19.7016C57.3002 19.1016 61.5002 18.1016 65.3002 15.6016C65.3002 15.4016 65.3002 15.5016 65.5002 15.5016Z" fill="white"/>
<path d="M36.5 64.7016C38.1 62.8016 39.7 61.1016 41.1 59.1016C41.8 58.1016 42.4 57.8015 43.6 57.8015C50.1 58.0015 56.4 57.2016 62.3 54.5016C63.3 54.1016 64.2 53.6016 65.2 53.1016C65.2 53.3016 65.2 53.4016 65.2 53.6016C65.2 55.1016 65.3 56.7016 65.2 58.2016C65.2 59.0016 64.8 59.7016 64.2 60.2016C63 61.0016 61.8 61.9016 60.4 62.5016C56.5 64.2016 52.4 65.0016 48.1 65.4016C44.9 65.7016 41.8 65.8015 38.6 65.3015C37.9 65.0015 37.1 64.8016 36.5 64.7016Z" fill="white"/>
<path d="M42 32.6008C50.2 33.2008 58.1 31.9008 65.5 27.8008C65.5 29.2008 65.4 30.5008 65.5 31.8008C65.6 33.3008 64.9 34.4008 63.8 35.3008C61.8 36.9008 59.4 37.9008 57 38.6008C53.2 39.7008 49.3 40.2008 45.4 40.2008C44.9 40.2008 44.8 40.1008 44.6 39.6008C43.7 37.2008 42.8 34.9008 42 32.6008Z" fill="white"/>
<path d="M65.1996 40.4004C65.1996 40.7004 65.1996 41.0004 65.1996 41.2004C65.1996 42.3004 65.0996 43.4004 65.1996 44.5004C65.2996 46.0004 64.6996 47.0004 63.5996 47.9004C61.3996 49.6004 58.7996 50.6004 56.1996 51.4004C52.4996 52.5004 48.6996 52.9004 44.7996 52.8004C44.5996 52.8004 44.3996 52.8004 44.0996 52.8004C44.8996 50.3004 45.3996 47.8004 45.1996 45.2004C48.6996 45.4004 52.1996 45.1004 55.5996 44.3004C58.8996 43.4004 62.0996 42.2004 65.1996 40.4004Z" fill="white"/>
</svg>
