<svg width="35" height="34" viewBox="0 0 35 34" fill="none" xmlns="http://www.w3.org/2000/svg">
<path d="M16.4969 33.8C7.59689 33.8 0.296875 26.6 0.296875 17.6C0.296875 13 2.29688 8.6 5.79688 5.5C8.89688 2 13.2969 0 17.8969 0C26.7969 0 34.0969 7.2 34.0969 16.2C34.0969 20.8 32.0969 25.2 28.5969 28.3C25.4969 31.8 21.0969 33.8 16.4969 33.8Z" fill="white"/>
<path d="M16.4953 32.8983C24.9453 32.8983 31.7953 26.0483 31.7953 17.5983C31.7953 9.14839 24.9453 2.29834 16.4953 2.29834C8.04534 2.29834 1.19531 9.14839 1.19531 17.5983C1.19531 26.0483 8.04534 32.8983 16.4953 32.8983Z" fill="black"/>
<path d="M17.8945 31.1982C26.1788 31.1982 32.8945 24.4825 32.8945 16.1982C32.8945 7.91397 26.1788 1.19824 17.8945 1.19824C9.61026 1.19824 2.89453 7.91397 2.89453 16.1982C2.89453 24.4825 9.61026 31.1982 17.8945 31.1982Z" fill="white"/>
<path d="M17.8937 1.59844C25.9937 1.59844 32.4937 8.09844 32.4937 16.1984C32.4937 24.2984 25.9937 30.7984 17.8937 30.7984C9.79374 30.7984 3.2937 24.1984 3.2937 16.1984C3.2937 8.19844 9.79374 1.59844 17.8937 1.59844ZM17.8937 0.898438C9.39374 0.898438 2.59375 7.69844 2.59375 16.1984C2.59375 24.6984 9.39374 31.4984 17.8937 31.4984C26.3937 31.4984 33.1937 24.5984 33.1937 16.1984C33.1937 7.79844 26.2937 0.898438 17.8937 0.898438Z" fill="black"/>
<path d="M17.8984 29.1992C25.0781 29.1992 30.8984 23.3789 30.8984 16.1992C30.8984 9.01952 25.0781 3.19922 17.8984 3.19922C10.7187 3.19922 4.89844 9.01952 4.89844 16.1992C4.89844 23.3789 10.7187 29.1992 17.8984 29.1992Z" fill="url(#paint0_linear_3848_34849)"/>
<path d="M23.7969 20.4001C23.5969 20.4001 23.3969 20.5001 23.2969 20.6001C21.9969 22.2001 20.0969 23.2001 17.8969 23.2001C14.7969 23.2001 12.1969 21.2001 11.2969 18.4001C11.1969 18.0001 11.4969 17.6001 11.8969 17.6001H18.9969H24.8969H27.1969C27.4969 17.6001 27.7969 17.4001 27.7969 17.0001C27.7969 16.7001 27.7969 16.4001 27.7969 16.2001C27.7969 10.9001 23.4969 6.50007 18.1969 6.40007C12.6969 6.30007 8.09691 10.8001 8.19691 16.4001C8.29691 21.7001 12.5969 26.0001 17.9969 26.0001C21.4969 26.0001 24.5969 24.1001 26.2969 21.3001C26.4969 20.9001 26.2969 20.4001 25.7969 20.4001H23.7969ZM17.8969 9.20007C20.9969 9.20007 23.5969 11.2001 24.4969 14.0001C24.5969 14.4001 24.2969 14.8001 23.8969 14.8001H11.7969C11.3969 14.8001 11.0969 14.4001 11.1969 14.0001C12.1969 11.2001 14.7969 9.20007 17.8969 9.20007Z" fill="black"/>
<defs>
<linearGradient id="paint0_linear_3848_34849" x1="8.72724" y1="25.3704" x2="27.0696" y2="7.02802" gradientUnits="userSpaceOnUse">
<stop stop-color="#EDAF01"/>
<stop offset="0.2039" stop-color="#FDCB63"/>
<stop offset="0.3198" stop-color="#FEE4AD"/>
<stop offset="0.423" stop-color="#FFF7E8"/>
<stop offset="0.4721" stop-color="white"/>
<stop offset="0.5116" stop-color="#FFFDF8"/>
<stop offset="0.5706" stop-color="#FFF6E3"/>
<stop offset="0.6419" stop-color="#FEEBC2"/>
<stop offset="0.7219" stop-color="#FEDB94"/>
<stop offset="0.7961" stop-color="#FDCB63"/>
<stop offset="0.8611" stop-color="#FDCA61"/>
<stop offset="0.899" stop-color="#FDC758"/>
<stop offset="0.93" stop-color="#FDC34A"/>
<stop offset="0.9572" stop-color="#FDBC36"/>
<stop offset="0.9818" stop-color="#FDB31D"/>
<stop offset="1" stop-color="#FDAB04"/>
</linearGradient>
</defs>
</svg>
