<svg width="257" height="42" viewBox="0 0 257 42" fill="none" xmlns="http://www.w3.org/2000/svg">
<path d="M37.2305 10.6659V6.56592H24.2305V10.6659H28.5305V35.8659H32.8305V10.6659H37.2305Z" fill="#534988"/>
<path d="M53.5772 35.8659V6.56592H49.2772V31.7659H44.3772V6.56592H40.0771V35.8659H53.5772Z" fill="#534988"/>
<path d="M69.4316 10.6659V6.56592H56.4316V10.6659H60.7316V35.8659H65.0316V10.6659H69.4316Z" fill="#534988"/>
<path d="M85.8789 35.8659V6.56592H72.3789V35.8659H85.8789ZM81.5789 31.7659H76.6789V10.6659H81.5789V31.7659Z" fill="#534988"/>
<path d="M104.432 35.8659L101.532 28.2659H103.732V6.56592H90.2324V35.8659H94.5324V28.2659H97.0324L99.7324 35.8659H104.432ZM99.4324 24.1659H94.5324V10.5659H99.4324C99.4324 10.6659 99.4324 24.1659 99.4324 24.1659Z" fill="#534988"/>
<path d="M117.089 30.8659V35.8659H121.789V30.8659H124.989V26.5659H121.789V18.6659H117.089V26.5659H111.789L121.689 6.56592H116.489L109.689 20.0659C106.689 25.9659 106.389 26.6659 106.389 28.0659C106.389 30.8659 109.189 30.8659 111.589 30.8659C111.489 30.8659 117.089 30.8659 117.089 30.8659Z" fill="#534988"/>
<path d="M145.311 35.8659V6.56592H141.011L136.711 17.2659L132.411 6.56592H128.111V35.8659H132.411V17.7659L136.711 28.2659L141.011 17.7659V35.9659C141.011 35.8659 145.311 35.8659 145.311 35.8659Z" fill="#534988"/>
<path d="M160.398 35.8658V31.7658H153.998V22.1658H160.298V18.0658H153.998V10.5658H160.398V6.46582H149.698V35.7658L160.398 35.8658Z" fill="#534988"/>
<path d="M176.5 2V40.4" stroke="#534988" stroke-width="2" stroke-miterlimit="10"/>
<path d="M196.782 24.2493C195.843 24.2493 195.007 24.1122 194.276 23.8379C193.545 23.5637 192.93 23.1647 192.431 22.6411C191.932 22.1092 191.554 21.4651 191.297 20.7088C191.039 19.9441 190.91 19.0756 190.91 18.1032V16.8316C190.91 15.7429 191.026 14.7912 191.259 13.9767C191.5 13.1539 191.849 12.4683 192.306 11.9197C192.763 11.3712 193.337 10.9598 194.027 10.6855C194.717 10.4029 195.51 10.2616 196.408 10.2616C197.247 10.2616 197.991 10.3946 198.639 10.6606C199.288 10.9265 199.832 11.3296 200.273 11.8698C200.713 12.4018 201.046 13.075 201.27 13.8895C201.503 14.6956 201.619 15.639 201.619 16.7194V18.5022H192.419V15.9465H197.904V15.5725C197.904 15.0239 197.85 14.5876 197.742 14.2635C197.634 13.9393 197.468 13.7066 197.243 13.5653C197.019 13.4157 196.732 13.3409 196.383 13.3409C196.034 13.3409 195.747 13.4074 195.523 13.5404C195.307 13.6651 195.14 13.8645 195.024 14.1388C194.908 14.4131 194.825 14.7746 194.775 15.2234C194.733 15.6722 194.712 16.2083 194.712 16.8316V18.1032C194.712 18.7099 194.762 19.2128 194.862 19.6117C194.962 20.0023 195.111 20.314 195.311 20.5467C195.51 20.7711 195.751 20.9332 196.034 21.0329C196.325 21.1243 196.661 21.17 197.044 21.17C197.601 21.17 198.12 21.0745 198.602 20.8833C199.092 20.6838 199.508 20.393 199.849 20.0106L201.382 22.3419C201.141 22.6411 200.805 22.9403 200.372 23.2395C199.948 23.5387 199.433 23.7839 198.826 23.9751C198.228 24.1579 197.547 24.2493 196.782 24.2493ZM211.218 5.8484V24H207.266V5.8484H211.218ZM215.669 5.8484V9.06483H202.916V5.8484H215.669ZM223.149 20.7462V10.511H226.951V24H223.398L223.149 20.7462ZM223.548 17.9786L224.533 17.9536C224.533 18.8595 224.441 19.699 224.259 20.4719C224.084 21.2365 223.822 21.9014 223.473 22.4666C223.124 23.0317 222.692 23.4722 222.177 23.7881C221.661 24.0956 221.063 24.2493 220.381 24.2493C219.825 24.2493 219.313 24.1579 218.848 23.9751C218.391 23.7839 217.992 23.4889 217.651 23.0899C217.319 22.6827 217.061 22.1632 216.878 21.5316C216.695 20.8916 216.604 20.127 216.604 19.2377V10.511H220.394V19.2626C220.394 19.5951 220.419 19.8818 220.469 20.1228C220.527 20.3556 220.606 20.5509 220.706 20.7088C220.814 20.8667 220.942 20.983 221.092 21.0578C221.242 21.1243 221.412 21.1576 221.603 21.1576C222.102 21.1576 222.493 21.0204 222.775 20.7462C223.058 20.4636 223.257 20.0854 223.374 19.6117C223.49 19.1297 223.548 18.5853 223.548 17.9786ZM235.429 10.511V13.2911H228.41V10.511H235.429ZM229.856 7.16988H233.646V19.7364C233.646 20.1021 233.675 20.3846 233.733 20.5841C233.8 20.7836 233.912 20.9249 234.07 21.008C234.228 21.0828 234.44 21.1202 234.706 21.1202C234.897 21.1202 235.059 21.1119 235.192 21.0952C235.333 21.0786 235.45 21.0578 235.541 21.0329L235.516 23.9003C235.225 24.0083 234.914 24.0914 234.581 24.1496C234.257 24.2161 233.891 24.2493 233.484 24.2493C232.728 24.2493 232.079 24.1122 231.539 23.8379C231.007 23.5637 230.592 23.1273 230.293 22.5289C230.002 21.9305 229.856 21.1493 229.856 20.1852V7.16988ZM236.426 17.7916V16.7319C236.426 15.6681 236.555 14.733 236.813 13.9269C237.079 13.1207 237.453 12.4475 237.935 11.9072C238.417 11.367 238.994 10.9598 239.668 10.6855C240.349 10.4029 241.105 10.2616 241.937 10.2616C242.784 10.2616 243.545 10.4029 244.218 10.6855C244.899 10.9598 245.481 11.367 245.963 11.9072C246.445 12.4475 246.815 13.1207 247.073 13.9269C247.339 14.733 247.472 15.6681 247.472 16.7319V17.7916C247.472 18.8471 247.339 19.7779 247.073 20.5841C246.815 21.3903 246.445 22.0677 245.963 22.6162C245.481 23.1564 244.899 23.5637 244.218 23.8379C243.545 24.1122 242.793 24.2493 241.961 24.2493C241.122 24.2493 240.362 24.1122 239.68 23.8379C239.007 23.5637 238.425 23.1564 237.935 22.6162C237.453 22.0677 237.079 21.3903 236.813 20.5841C236.555 19.7779 236.426 18.8471 236.426 17.7916ZM240.229 16.7319V17.7916C240.229 18.39 240.266 18.9053 240.341 19.3374C240.424 19.7696 240.54 20.1228 240.69 20.3971C240.839 20.6714 241.018 20.8708 241.226 20.9955C241.442 21.1202 241.687 21.1825 241.961 21.1825C242.277 21.1825 242.543 21.1202 242.759 20.9955C242.984 20.8708 243.162 20.6714 243.295 20.3971C243.428 20.1228 243.524 19.7696 243.582 19.3374C243.649 18.9053 243.682 18.39 243.682 17.7916V16.7319C243.682 16.1418 243.64 15.6348 243.557 15.2109C243.482 14.7788 243.37 14.4255 243.221 14.1513C243.079 13.877 242.896 13.6734 242.672 13.5404C242.456 13.4074 242.211 13.3409 241.937 13.3409C241.671 13.3409 241.43 13.4074 241.213 13.5404C241.006 13.6734 240.827 13.877 240.677 14.1513C240.536 14.4255 240.424 14.7788 240.341 15.2109C240.266 15.6348 240.229 16.1418 240.229 16.7319ZM253.294 13.69V24H249.504V10.511H253.057L253.294 13.69ZM256.448 10.4112L256.41 14.1014C256.252 14.0765 256.053 14.0557 255.812 14.0391C255.571 14.0141 255.367 14.0017 255.201 14.0017C254.819 14.0017 254.495 14.0598 254.229 14.1762C253.963 14.2926 253.743 14.4671 253.568 14.6998C253.393 14.9242 253.265 15.2068 253.182 15.5475C253.098 15.8883 253.057 16.2789 253.057 16.7194L252.384 16.3454C252.384 15.4478 252.45 14.6292 252.583 13.8895C252.724 13.1498 252.928 12.5098 253.194 11.9696C253.468 11.4294 253.797 11.0096 254.179 10.7104C254.561 10.4112 254.989 10.2616 255.463 10.2616C255.629 10.2616 255.804 10.2741 255.987 10.299C256.178 10.324 256.331 10.3614 256.448 10.4112Z" fill="#FF6C72"/>
<path d="M194.033 31.6882L192.213 39H190.1L192.923 29.9242H194.239L194.033 31.6882ZM195.467 39L193.64 31.6882L193.403 29.9242H194.744L197.58 39H195.467ZM195.535 35.6153V37.2173H191.515V35.6153H195.535ZM201.488 37.4853V29.4255H203.389V39L201.681 39.0062L201.488 37.4853ZM198.054 35.9082V35.3784C198.054 34.8257 198.099 34.3457 198.191 33.9385C198.286 33.5312 198.425 33.1946 198.608 32.9287C198.795 32.6586 199.026 32.4591 199.3 32.3303C199.579 32.1973 199.897 32.1308 200.254 32.1308C200.57 32.1308 200.842 32.2139 201.07 32.3802C201.303 32.5422 201.501 32.7708 201.663 33.0658C201.825 33.3609 201.956 33.7079 202.055 34.1068C202.159 34.5057 202.234 34.9379 202.28 35.4033V35.9456C202.226 36.382 202.149 36.7934 202.049 37.1799C201.949 37.5622 201.818 37.9008 201.656 38.1959C201.494 38.4868 201.297 38.7153 201.064 38.8816C200.832 39.0436 200.559 39.1247 200.248 39.1247C199.89 39.1247 199.574 39.0561 199.3 38.919C199.026 38.7818 198.795 38.5782 198.608 38.3081C198.425 38.038 198.286 37.7035 198.191 37.3045C198.099 36.9014 198.054 36.436 198.054 35.9082ZM199.948 35.3784V35.9082C199.948 36.2116 199.961 36.4692 199.986 36.6812C200.011 36.8931 200.054 37.0656 200.117 37.1986C200.179 37.3315 200.262 37.4292 200.366 37.4915C200.474 37.5497 200.609 37.5788 200.771 37.5788C200.983 37.5788 201.156 37.5206 201.289 37.4043C201.426 37.2837 201.526 37.1175 201.588 36.9056C201.65 36.6937 201.679 36.4443 201.675 36.1576V35.1852C201.679 34.9441 201.661 34.7301 201.619 34.5431C201.582 34.352 201.526 34.192 201.451 34.0632C201.376 33.9343 201.282 33.8367 201.17 33.7702C201.058 33.7037 200.927 33.6705 200.778 33.6705C200.624 33.6705 200.493 33.7016 200.385 33.764C200.277 33.8263 200.192 33.926 200.129 34.0632C200.067 34.1961 200.021 34.3707 199.992 34.5868C199.963 34.8029 199.948 35.0667 199.948 35.3784ZM206.512 33.6705V39H204.617V32.2555H206.394L206.512 33.6705ZM206.269 35.3971L205.795 35.4096C205.787 34.9358 205.829 34.4995 205.92 34.1006C206.011 33.7016 206.149 33.3546 206.331 33.0596C206.518 32.7645 206.751 32.536 207.03 32.3739C207.312 32.2119 207.638 32.1308 208.008 32.1308C208.249 32.1308 208.472 32.1765 208.675 32.268C208.879 32.3552 209.053 32.4944 209.199 32.6856C209.348 32.8726 209.463 33.1178 209.542 33.4211C209.625 33.7203 209.666 34.0798 209.666 34.4995V39H207.771V34.7426C207.771 34.4476 207.746 34.2252 207.697 34.0756C207.651 33.9219 207.582 33.8159 207.491 33.7577C207.399 33.6996 207.283 33.6705 207.142 33.6705C207.005 33.6705 206.88 33.7141 206.768 33.8014C206.656 33.8886 206.562 34.0112 206.487 34.1691C206.412 34.3229 206.356 34.5057 206.319 34.7177C206.282 34.9254 206.265 35.1519 206.269 35.3971ZM209.467 35.3098L208.881 35.3597C208.868 34.8984 208.904 34.4725 208.987 34.0819C209.074 33.6871 209.207 33.3442 209.386 33.0534C209.569 32.7625 209.795 32.536 210.065 32.3739C210.34 32.2119 210.662 32.1308 211.031 32.1308C211.297 32.1308 211.538 32.1765 211.754 32.268C211.975 32.3594 212.164 32.5069 212.322 32.7105C212.48 32.91 212.602 33.1759 212.689 33.5084C212.777 33.8408 212.82 34.2481 212.82 34.7301V39H210.919V34.7301C210.919 34.4392 210.894 34.219 210.844 34.0694C210.799 33.9156 210.73 33.8118 210.639 33.7577C210.547 33.6996 210.435 33.6705 210.302 33.6705C210.157 33.6705 210.032 33.712 209.928 33.7951C209.828 33.8782 209.743 33.9946 209.673 34.1442C209.602 34.2938 209.55 34.4683 209.517 34.6678C209.483 34.8631 209.467 35.0771 209.467 35.3098ZM216.037 32.2555V39H214.136V32.2555H216.037ZM214.048 30.5101C214.048 30.2276 214.142 29.9948 214.329 29.812C214.52 29.625 214.771 29.5315 215.083 29.5315C215.395 29.5315 215.644 29.625 215.831 29.812C216.018 29.9948 216.112 30.2276 216.112 30.5101C216.112 30.7969 216.018 31.0317 215.831 31.2145C215.644 31.3974 215.395 31.4888 215.083 31.4888C214.771 31.4888 214.52 31.3974 214.329 31.2145C214.142 31.0317 214.048 30.7969 214.048 30.5101ZM219.185 33.6954V39H217.283V32.2555H219.066L219.185 33.6954ZM218.935 35.3971L218.474 35.4096C218.466 34.8984 218.511 34.4413 218.611 34.0382C218.715 33.6351 218.865 33.2923 219.06 33.0097C219.255 32.723 219.49 32.5048 219.764 32.3552C220.039 32.2056 220.344 32.1308 220.681 32.1308C220.938 32.1308 221.175 32.1765 221.391 32.268C221.612 32.3594 221.801 32.5069 221.959 32.7105C222.116 32.91 222.239 33.1759 222.326 33.5084C222.414 33.8408 222.457 34.2502 222.457 34.7364V39H220.556V34.7239C220.556 34.4455 220.529 34.2315 220.475 34.0819C220.421 33.9281 220.34 33.8221 220.232 33.764C220.128 33.7016 219.993 33.6705 219.827 33.6705C219.673 33.6705 219.538 33.7141 219.422 33.8014C219.309 33.8886 219.216 34.0112 219.141 34.1691C219.066 34.3229 219.012 34.5057 218.979 34.7177C218.95 34.9254 218.935 35.1519 218.935 35.3971Z" fill="#534988"/>
<path d="M22.1 19.7C22.1 15.4 21.3 12.6 19.4 10.5C17.4 8.2 14.5 7 11 7C7.7 7 5 8.1 3 10.2C0.9 12.4 0 15.1 0 19.2V23.7C0 28.2 1 31.1 3.3 33.2C5.4 35.1 8.1 36.1 11.1 36.1C14.4 36.1 17 35 19.4 32.8L15.9 28.6C14.8 29.6 13.3 30.5 11.2 30.5C8.1 30.5 6.3 28.6 6.2 25.2H22.1V19.7ZM6.1 19.6C6.1 16.6 6.7 12.7 11 12.7C15.3 12.7 15.9 16.7 15.9 19.6H6.1Z" fill="url(#paint0_linear_3652_72660)"/>
<defs>
<linearGradient id="paint0_linear_3652_72660" x1="11.02" y1="7.0401" x2="11.02" y2="36.2101" gradientUnits="userSpaceOnUse">
<stop offset="0.00283151" stop-color="#FF6C72"/>
<stop offset="1" stop-color="#994EFF"/>
</linearGradient>
</defs>
</svg>
