<svg width="268" height="39" viewBox="0 0 268 39" fill="none" xmlns="http://www.w3.org/2000/svg">
<path d="M37.2305 8.6703V4.57031H24.2305V8.6703H28.5305V33.8703H32.8305V8.6703H37.2305Z" fill="#534988"/>
<path d="M53.5781 33.8703V4.57031H49.2781V29.7703H44.3781V4.57031H40.0781V33.8703H53.5781Z" fill="#534988"/>
<path d="M69.4297 8.6703V4.57031H56.4297V8.6703H60.7297V33.8703H65.0297V8.6703H69.4297Z" fill="#534988"/>
<path d="M85.8789 33.8703V4.57031H72.3789V33.8703H85.8789ZM81.5789 29.7703H76.6789V8.6703H81.5789V29.7703Z" fill="#534988"/>
<path d="M104.434 33.8703L101.534 26.2703H103.734V4.57031H90.2344V33.8703H94.5344V26.2703H97.0344L99.7344 33.8703H104.434ZM99.4344 22.1703H94.5344V8.57031H99.4344C99.4344 8.67031 99.4344 22.1703 99.4344 22.1703Z" fill="#534988"/>
<path d="M117.091 28.8703V33.8703H121.791V28.8703H124.991V24.5703H121.791V16.6703H117.091V24.5703H111.791L121.691 4.57031H116.491L109.691 18.0703C106.691 23.9703 106.391 24.6703 106.391 26.0703C106.391 28.8703 109.191 28.8703 111.591 28.8703C111.491 28.8703 117.091 28.8703 117.091 28.8703Z" fill="#534988"/>
<path d="M145.309 33.8703V4.57031H141.009L136.709 15.2703L132.409 4.57031H128.109V33.8703H132.409V15.7703L136.709 26.2703L141.009 15.7703V33.9703C141.009 33.8703 145.309 33.8703 145.309 33.8703Z" fill="#534988"/>
<path d="M160.395 33.8688V29.7688H153.995V20.1687H160.295V16.0688H153.995V8.56876H160.395V4.46875H149.695V33.7688L160.395 33.8688Z" fill="#534988"/>
<path d="M176.5 0V38.4" stroke="#534988" stroke-width="2" stroke-miterlimit="10"/>
<path d="M199.478 12.8174L195.2 30H190.234L196.87 8.67188H199.961L199.478 12.8174ZM202.847 30L198.555 12.8174L197.998 8.67188H201.147L207.812 30H202.847ZM203.008 22.0459V25.8105H193.56V22.0459H203.008ZM216.997 26.4404V7.5H221.465V30L217.451 30.0146L216.997 26.4404ZM208.926 22.7344V21.4893C208.926 20.1904 209.033 19.0625 209.248 18.1055C209.473 17.1484 209.8 16.3574 210.229 15.7324C210.669 15.0977 211.211 14.6289 211.855 14.3262C212.51 14.0137 213.257 13.8574 214.097 13.8574C214.839 13.8574 215.479 14.0527 216.016 14.4434C216.562 14.8242 217.026 15.3613 217.407 16.0547C217.788 16.748 218.096 17.5635 218.33 18.501C218.574 19.4385 218.75 20.4541 218.857 21.5479V22.8223C218.73 23.8477 218.55 24.8145 218.315 25.7227C218.081 26.6211 217.773 27.417 217.393 28.1104C217.012 28.7939 216.548 29.3311 216.001 29.7217C215.454 30.1025 214.814 30.293 214.082 30.293C213.242 30.293 212.5 30.1318 211.855 29.8096C211.211 29.4873 210.669 29.0088 210.229 28.374C209.8 27.7393 209.473 26.9531 209.248 26.0156C209.033 25.0684 208.926 23.9746 208.926 22.7344ZM213.379 21.4893V22.7344C213.379 23.4473 213.408 24.0527 213.467 24.5508C213.525 25.0488 213.628 25.4541 213.774 25.7666C213.921 26.0791 214.116 26.3086 214.36 26.4551C214.614 26.5918 214.932 26.6602 215.312 26.6602C215.811 26.6602 216.216 26.5234 216.528 26.25C216.851 25.9668 217.085 25.5762 217.231 25.0781C217.378 24.5801 217.446 23.9941 217.437 23.3203V21.0352C217.446 20.4688 217.402 19.9658 217.305 19.5264C217.217 19.0771 217.085 18.7012 216.909 18.3984C216.733 18.0957 216.514 17.8662 216.25 17.71C215.986 17.5537 215.679 17.4756 215.327 17.4756C214.966 17.4756 214.658 17.5488 214.404 17.6953C214.15 17.8418 213.95 18.0762 213.804 18.3984C213.657 18.7109 213.55 19.1211 213.481 19.6289C213.413 20.1367 213.379 20.7568 213.379 21.4893ZM228.804 17.4756V30H224.351V14.1504H228.525L228.804 17.4756ZM228.232 21.5332L227.119 21.5625C227.1 20.4492 227.197 19.4238 227.412 18.4863C227.627 17.5488 227.949 16.7334 228.379 16.04C228.818 15.3467 229.365 14.8096 230.02 14.4287C230.684 14.0479 231.45 13.8574 232.319 13.8574C232.886 13.8574 233.408 13.9648 233.887 14.1797C234.365 14.3848 234.775 14.7119 235.117 15.1611C235.469 15.6006 235.737 16.1768 235.923 16.8896C236.118 17.5928 236.216 18.4375 236.216 19.4238V30H231.763V19.9951C231.763 19.3018 231.704 18.7793 231.587 18.4277C231.479 18.0664 231.318 17.8174 231.104 17.6807C230.889 17.5439 230.615 17.4756 230.283 17.4756C229.961 17.4756 229.668 17.5781 229.404 17.7832C229.141 17.9883 228.921 18.2764 228.745 18.6475C228.569 19.0088 228.438 19.4385 228.35 19.9365C228.262 20.4248 228.223 20.957 228.232 21.5332ZM235.747 21.3281L234.37 21.4453C234.341 20.3613 234.424 19.3604 234.619 18.4424C234.824 17.5146 235.137 16.709 235.557 16.0254C235.986 15.3418 236.519 14.8096 237.153 14.4287C237.798 14.0479 238.555 13.8574 239.424 13.8574C240.049 13.8574 240.615 13.9648 241.123 14.1797C241.641 14.3945 242.085 14.7412 242.456 15.2197C242.827 15.6885 243.115 16.3135 243.32 17.0947C243.525 17.876 243.628 18.833 243.628 19.9658V30H239.16V19.9658C239.16 19.2822 239.102 18.7646 238.984 18.4131C238.877 18.0518 238.716 17.8076 238.501 17.6807C238.286 17.5439 238.022 17.4756 237.71 17.4756C237.368 17.4756 237.075 17.5732 236.831 17.7686C236.597 17.9639 236.396 18.2373 236.23 18.5889C236.064 18.9404 235.942 19.3506 235.864 19.8193C235.786 20.2783 235.747 20.7812 235.747 21.3281ZM251.187 14.1504V30H246.719V14.1504H251.187ZM246.514 10.0488C246.514 9.38477 246.733 8.83789 247.173 8.4082C247.622 7.96875 248.213 7.74902 248.945 7.74902C249.678 7.74902 250.264 7.96875 250.703 8.4082C251.143 8.83789 251.362 9.38477 251.362 10.0488C251.362 10.7227 251.143 11.2744 250.703 11.7041C250.264 12.1338 249.678 12.3486 248.945 12.3486C248.213 12.3486 247.622 12.1338 247.173 11.7041C246.733 11.2744 246.514 10.7227 246.514 10.0488ZM258.584 17.5342V30H254.116V14.1504H258.306L258.584 17.5342ZM257.998 21.5332L256.914 21.5625C256.895 20.3613 257.002 19.2871 257.236 18.3398C257.48 17.3926 257.832 16.5869 258.291 15.9229C258.75 15.249 259.302 14.7363 259.946 14.3848C260.591 14.0332 261.309 13.8574 262.1 13.8574C262.705 13.8574 263.262 13.9648 263.77 14.1797C264.287 14.3945 264.731 14.7412 265.103 15.2197C265.474 15.6885 265.762 16.3135 265.967 17.0947C266.172 17.876 266.274 18.8379 266.274 19.9805V30H261.807V19.9512C261.807 19.2969 261.743 18.7939 261.616 18.4424C261.489 18.0811 261.299 17.832 261.045 17.6953C260.801 17.5488 260.483 17.4756 260.093 17.4756C259.731 17.4756 259.414 17.5781 259.141 17.7832C258.877 17.9883 258.657 18.2764 258.481 18.6475C258.306 19.0088 258.179 19.4385 258.101 19.9365C258.032 20.4248 257.998 20.957 257.998 21.5332Z" fill="#534988"/>
<path d="M22.1 16.7C22.1 12.4 21.3 9.6 19.4 7.5C17.4 5.2 14.5 4 11 4C7.7 4 5 5.1 3 7.2C0.9 9.4 0 12.1 0 16.2V20.7C0 25.2 1 28.1 3.3 30.2C5.4 32.1 8.1 33.1 11.1 33.1C14.4 33.1 17 32 19.4 29.8L15.9 25.6C14.8 26.6 13.3 27.5 11.2 27.5C8.1 27.5 6.3 25.6 6.2 22.2H22.1V16.7ZM6.1 16.6C6.1 13.6 6.7 9.7 11 9.7C15.3 9.7 15.9 13.7 15.9 16.6H6.1Z" fill="url(#paint0_linear_7237_90188)"/>
<defs>
<linearGradient id="paint0_linear_7237_90188" x1="11.02" y1="4.0401" x2="11.02" y2="33.2101" gradientUnits="userSpaceOnUse">
<stop offset="0.00283151" stop-color="#FF6C72"/>
<stop offset="1" stop-color="#994EFF"/>
</linearGradient>
</defs>
</svg>
