<svg width="269" height="39" viewBox="0 0 269 39" fill="none" xmlns="http://www.w3.org/2000/svg">
<path d="M37.2305 8.6664V4.56641H24.2305V8.6664H28.5305V33.8664H32.8305V8.6664H37.2305Z" fill="#473171"/>
<path d="M53.5772 33.8664V4.56641H49.2772V29.7664H44.3772V4.56641H40.0771V33.8664H53.5772Z" fill="#473171"/>
<path d="M69.4316 8.6664V4.56641H56.4316V8.6664H60.7316V33.8664H65.0316V8.6664H69.4316Z" fill="#473171"/>
<path d="M85.8789 33.8664V4.56641H72.3789V33.8664H85.8789ZM81.5789 29.7664H76.6789V8.6664H81.5789V29.7664Z" fill="#473171"/>
<path d="M104.432 33.8664L101.532 26.2664H103.732V4.56641H90.2324V33.8664H94.5324V26.2664H97.0324L99.7324 33.8664H104.432ZM99.4324 22.1664H94.5324V8.56641H99.4324C99.4324 8.66641 99.4324 22.1664 99.4324 22.1664Z" fill="#473171"/>
<path d="M117.089 28.8664V33.8664H121.789V28.8664H124.989V24.5664H121.789V16.6664H117.089V24.5664H111.789L121.689 4.56641H116.489L109.689 18.0664C106.689 23.9664 106.389 24.6664 106.389 26.0664C106.389 28.8664 109.189 28.8664 111.589 28.8664C111.489 28.8664 117.089 28.8664 117.089 28.8664Z" fill="#473171"/>
<path d="M145.311 33.8664V4.56641H141.011L136.711 15.2664L132.411 4.56641H128.111V33.8664H132.411V15.7664L136.711 26.2664L141.011 15.7664V33.9664C141.011 33.8664 145.311 33.8664 145.311 33.8664Z" fill="#473171"/>
<path d="M160.398 33.8648V29.7648H153.998V20.1648H160.298V16.0648H153.998V8.56485H160.398V4.46484H149.698V33.7648L160.398 33.8648Z" fill="#473171"/>
<path d="M176.5 0V38.4" stroke="white" stroke-width="2" stroke-miterlimit="10"/>
<path d="M197.969 30.293C196.865 30.293 195.884 30.1318 195.024 29.8096C194.165 29.4873 193.442 29.0186 192.856 28.4033C192.271 27.7783 191.826 27.0215 191.523 26.1328C191.221 25.2344 191.069 24.2139 191.069 23.0713V21.5771C191.069 20.2979 191.206 19.1797 191.479 18.2227C191.763 17.2559 192.173 16.4502 192.71 15.8057C193.247 15.1611 193.921 14.6777 194.731 14.3555C195.542 14.0234 196.475 13.8574 197.529 13.8574C198.516 13.8574 199.39 14.0137 200.151 14.3262C200.913 14.6387 201.553 15.1123 202.07 15.7471C202.588 16.3721 202.979 17.1631 203.242 18.1201C203.516 19.0674 203.652 20.1758 203.652 21.4453V23.54H192.842V20.5371H199.287V20.0977C199.287 19.4531 199.224 18.9404 199.097 18.5596C198.97 18.1787 198.774 17.9053 198.511 17.7393C198.247 17.5635 197.91 17.4756 197.5 17.4756C197.09 17.4756 196.753 17.5537 196.489 17.71C196.235 17.8564 196.04 18.0908 195.903 18.4131C195.767 18.7354 195.669 19.1602 195.61 19.6875C195.562 20.2148 195.537 20.8447 195.537 21.5771V23.0713C195.537 23.7842 195.596 24.375 195.713 24.8438C195.83 25.3027 196.006 25.6689 196.24 25.9424C196.475 26.2061 196.758 26.3965 197.09 26.5137C197.432 26.6211 197.827 26.6748 198.276 26.6748C198.931 26.6748 199.541 26.5625 200.107 26.3379C200.684 26.1035 201.172 25.7617 201.572 25.3125L203.374 28.0518C203.091 28.4033 202.695 28.7549 202.188 29.1064C201.689 29.458 201.084 29.7461 200.371 29.9707C199.668 30.1855 198.867 30.293 197.969 30.293ZM214.932 8.67188V30H210.288V8.67188H214.932ZM220.161 8.67188V12.4512H205.176V8.67188H220.161ZM228.95 26.1768V14.1504H233.418V30H229.243L228.95 26.1768ZM229.419 22.9248L230.576 22.8955C230.576 23.96 230.469 24.9463 230.254 25.8545C230.049 26.7529 229.741 27.5342 229.331 28.1982C228.921 28.8623 228.413 29.3799 227.808 29.751C227.202 30.1123 226.499 30.293 225.698 30.293C225.044 30.293 224.443 30.1855 223.896 29.9707C223.359 29.7461 222.891 29.3994 222.49 28.9307C222.1 28.4521 221.797 27.8418 221.582 27.0996C221.367 26.3477 221.26 25.4492 221.26 24.4043V14.1504H225.713V24.4336C225.713 24.8242 225.742 25.1611 225.801 25.4443C225.869 25.7178 225.962 25.9473 226.079 26.1328C226.206 26.3184 226.357 26.4551 226.533 26.543C226.709 26.6211 226.909 26.6602 227.134 26.6602C227.72 26.6602 228.179 26.499 228.511 26.1768C228.843 25.8447 229.077 25.4004 229.214 24.8438C229.351 24.2773 229.419 23.6377 229.419 22.9248ZM243.379 14.1504V17.417H235.132V14.1504H243.379ZM236.831 10.2246H241.284V24.9902C241.284 25.4199 241.318 25.752 241.387 25.9863C241.465 26.2207 241.597 26.3867 241.782 26.4844C241.968 26.5723 242.217 26.6162 242.529 26.6162C242.754 26.6162 242.944 26.6064 243.101 26.5869C243.267 26.5674 243.403 26.543 243.511 26.5137L243.481 29.8828C243.14 30.0098 242.773 30.1074 242.383 30.1758C242.002 30.2539 241.572 30.293 241.094 30.293C240.205 30.293 239.443 30.1318 238.809 29.8096C238.184 29.4873 237.695 28.9746 237.344 28.2715C237.002 27.5684 236.831 26.6504 236.831 25.5176V10.2246ZM244.551 22.7051V21.46C244.551 20.21 244.702 19.1113 245.005 18.1641C245.317 17.2168 245.757 16.4258 246.323 15.791C246.89 15.1562 247.568 14.6777 248.359 14.3555C249.16 14.0234 250.049 13.8574 251.025 13.8574C252.021 13.8574 252.915 14.0234 253.706 14.3555C254.507 14.6777 255.19 15.1562 255.757 15.791C256.323 16.4258 256.758 17.2168 257.061 18.1641C257.373 19.1113 257.529 20.21 257.529 21.46V22.7051C257.529 23.9453 257.373 25.0391 257.061 25.9863C256.758 26.9336 256.323 27.7295 255.757 28.374C255.19 29.0088 254.507 29.4873 253.706 29.8096C252.915 30.1318 252.031 30.293 251.055 30.293C250.068 30.293 249.175 30.1318 248.374 29.8096C247.583 29.4873 246.899 29.0088 246.323 28.374C245.757 27.7295 245.317 26.9336 245.005 25.9863C244.702 25.0391 244.551 23.9453 244.551 22.7051ZM249.019 21.46V22.7051C249.019 23.4082 249.062 24.0137 249.15 24.5215C249.248 25.0293 249.385 25.4443 249.561 25.7666C249.736 26.0889 249.946 26.3232 250.19 26.4697C250.444 26.6162 250.732 26.6895 251.055 26.6895C251.426 26.6895 251.738 26.6162 251.992 26.4697C252.256 26.3232 252.466 26.0889 252.622 25.7666C252.778 25.4443 252.891 25.0293 252.959 24.5215C253.037 24.0137 253.076 23.4082 253.076 22.7051V21.46C253.076 20.7666 253.027 20.1709 252.93 19.6729C252.842 19.165 252.71 18.75 252.534 18.4277C252.368 18.1055 252.153 17.8662 251.89 17.71C251.636 17.5537 251.348 17.4756 251.025 17.4756C250.713 17.4756 250.43 17.5537 250.176 17.71C249.932 17.8662 249.722 18.1055 249.546 18.4277C249.38 18.75 249.248 19.165 249.15 19.6729C249.062 20.1709 249.019 20.7666 249.019 21.46ZM264.37 17.8857V30H259.917V14.1504H264.092L264.37 17.8857ZM268.076 14.0332L268.032 18.3691C267.847 18.3398 267.612 18.3154 267.329 18.2959C267.046 18.2666 266.807 18.252 266.611 18.252C266.162 18.252 265.781 18.3203 265.469 18.457C265.156 18.5938 264.897 18.7988 264.692 19.0723C264.487 19.3359 264.336 19.668 264.238 20.0684C264.141 20.4688 264.092 20.9277 264.092 21.4453L263.301 21.0059C263.301 19.9512 263.379 18.9893 263.535 18.1201C263.701 17.251 263.94 16.499 264.253 15.8643C264.575 15.2295 264.961 14.7363 265.41 14.3848C265.859 14.0332 266.362 13.8574 266.919 13.8574C267.114 13.8574 267.319 13.8721 267.534 13.9014C267.759 13.9307 267.939 13.9746 268.076 14.0332Z" fill="#FF6C72"/>
<path d="M22.1 16.7C22.1 12.4 21.3 9.6 19.4 7.5C17.4 5.2 14.5 4 11 4C7.7 4 5 5.1 3 7.2C0.9 9.4 0 12.1 0 16.2V20.7C0 25.2 1 28.1 3.3 30.2C5.4 32.1 8.1 33.1 11.1 33.1C14.4 33.1 17 32 19.4 29.8L15.9 25.6C14.8 26.6 13.3 27.5 11.2 27.5C8.1 27.5 6.3 25.6 6.2 22.2H22.1V16.7ZM6.1 16.6C6.1 13.6 6.7 9.7 11 9.7C15.3 9.7 15.9 13.7 15.9 16.6H6.1Z" fill="url(#paint0_linear_2192_42079)"/>
<defs>
<linearGradient id="paint0_linear_2192_42079" x1="11.02" y1="4.0401" x2="11.02" y2="33.2101" gradientUnits="userSpaceOnUse">
<stop offset="0.00283151" stop-color="#FF6C72"/>
<stop offset="1" stop-color="#994EFF"/>
</linearGradient>
</defs>
</svg>
