<svg width="96" height="90" viewBox="0 0 96 90" fill="none" xmlns="http://www.w3.org/2000/svg">
<path d="M0.570312 51.6967C0.570312 51.2567 0.570312 50.8667 0.570312 50.4867C0.570312 35.7867 0.570312 21.0967 0.570312 6.39673C0.570312 2.64673 2.59037 0.636719 6.38037 0.636719C34.3104 0.636719 62.2404 0.636719 90.1704 0.636719C94.0104 0.636719 96.0004 2.62668 96.0004 6.47668C96.0004 21.1367 96.0004 35.7967 96.0004 50.4567C96.0004 50.8467 96.0004 51.2267 96.0004 51.6967C64.2104 51.6967 32.4603 51.6967 0.570312 51.6967ZM32.9503 27.8667C32.9503 31.8767 32.9403 35.8867 32.9503 39.8967C32.9603 43.1367 35.5904 44.6767 38.4204 43.0867C45.5304 39.0967 52.6304 35.0967 59.7404 31.1067C61.0204 30.3867 61.8403 29.3867 61.8403 27.9067C61.8403 26.4167 61.0103 25.4267 59.7303 24.7167C52.6203 20.7367 45.5204 16.7267 38.4104 12.7467C35.5804 11.1567 32.9603 12.7067 32.9503 15.9567C32.9503 19.9167 32.9503 23.8867 32.9503 27.8667Z" fill="#473171"/>
<path d="M41.4205 79.0478C41.4205 75.6178 41.4205 72.2978 41.4205 68.8178C41.0005 68.8178 40.5905 68.8178 40.1805 68.8178C28.8905 68.8178 17.6005 68.8178 6.31055 68.8178C2.61055 68.8178 0.570547 66.7878 0.560547 63.0978C0.560547 60.5078 0.560547 57.9178 0.560547 55.2578C32.3605 55.2578 64.1105 55.2578 95.9905 55.2578C95.9905 56.9778 95.9905 58.7078 95.9905 60.4378C95.9905 61.4278 96.0005 62.4278 95.9905 63.4178C95.9705 66.6678 93.8304 68.8078 90.5704 68.8178C79.2104 68.8278 67.8505 68.8178 56.4905 68.8178C56.0705 68.8178 55.6505 68.8178 55.1605 68.8178C55.1605 72.2378 55.1605 75.5878 55.1605 79.0478C55.5705 79.0478 55.9504 79.0478 56.3304 79.0478C60.9104 79.0478 65.4904 79.0378 70.0704 79.0478C73.4004 79.0578 75.5205 81.1778 75.5405 84.5078C75.5405 85.4278 75.5505 86.3578 75.5405 87.2778C75.5205 88.5678 74.8704 89.2178 73.5704 89.2778C73.5004 89.2778 73.4305 89.2778 73.3605 89.2778C56.6405 89.2678 39.9204 89.2678 23.2004 89.2578C21.6304 89.2578 21.0305 88.6378 21.0205 87.0678C21.0105 86.1078 21.0105 85.1478 21.0205 84.1878C21.0705 81.2678 23.2505 79.0778 26.1705 79.0578C30.8205 79.0278 35.4705 79.0478 40.1205 79.0478C40.5205 79.0478 40.9105 79.0478 41.4205 79.0478ZM72.0405 85.8078C72.4005 83.5378 72.0705 82.4078 69.3105 82.4178C55.2305 82.4878 41.1405 82.4478 27.0605 82.4478C26.7105 82.4478 26.3505 82.4178 26.0005 82.4678C25.1205 82.5878 24.5705 83.0978 24.4705 83.9778C24.4005 84.5578 24.4604 85.1578 24.4604 85.8078C40.3704 85.8078 56.2105 85.8078 72.0405 85.8078ZM44.9604 68.8678C44.9604 72.2978 44.9604 75.6478 44.9604 78.9578C47.2505 78.9578 49.4605 78.9578 51.6505 78.9578C51.6505 75.5478 51.6505 72.2278 51.6505 68.8678C49.4005 68.8678 47.2204 68.8678 44.9604 68.8678ZM48.2104 63.7078C50.3804 63.7078 52.5405 63.7178 54.7104 63.7078C56.0405 63.6978 56.8205 63.0378 56.8105 61.9778C56.7905 60.9478 56.0305 60.3078 54.7705 60.2978C50.4405 60.2878 46.1105 60.2878 41.7805 60.2978C40.5405 60.2978 39.7705 60.9878 39.7905 62.0178C39.8105 63.0578 40.5604 63.6878 41.8304 63.6978C43.9504 63.7178 46.0804 63.7078 48.2104 63.7078Z" fill="#473171"/>
<path d="M36.4404 15.5156C43.8004 19.6556 51.0404 23.7356 58.4504 27.9056C51.0404 32.0756 43.7904 36.1556 36.4404 40.2956C36.4404 32.0056 36.4404 23.8456 36.4404 15.5156Z" fill="#473171"/>
</svg>
