<svg width="86" height="79" viewBox="0 0 86 79" fill="none" xmlns="http://www.w3.org/2000/svg">
<path d="M0.875 45.4326C0.875 45.0419 0.875 44.6957 0.875 44.3583C0.875 31.3077 0.875 18.2659 0.875 5.21529C0.875 1.88605 2.66841 0.101562 6.03316 0.101562C30.8294 0.101562 55.6256 0.101562 80.4219 0.101562C83.831 0.101562 85.5977 1.86825 85.5977 5.28628C85.5977 18.3014 85.5977 31.3166 85.5977 44.3317C85.5977 44.6779 85.5977 45.0153 85.5977 45.4326C57.3746 45.4326 29.1869 45.4326 0.875 45.4326ZM29.6219 24.2763C29.6219 27.8364 29.613 31.3965 29.6219 34.9566C29.6308 37.833 31.9658 39.2002 34.4783 37.7886C40.7905 34.2463 47.0938 30.6951 53.4061 27.1528C54.5425 26.5135 55.2704 25.6257 55.2704 24.3118C55.2704 22.989 54.5336 22.1101 53.3972 21.4797C47.085 17.9463 40.7816 14.3862 34.4694 10.8528C31.9569 9.44119 29.6308 10.8173 29.6219 13.7026C29.6219 17.2183 29.6219 20.7429 29.6219 24.2763Z" fill="white"/>
<path d="M37.1426 69.7145C37.1426 66.6693 37.1426 63.7218 37.1426 60.6323C36.7698 60.6323 36.4058 60.6323 36.0418 60.6323C26.0185 60.6323 15.9953 60.6323 5.97203 60.6323C2.68717 60.6323 0.876065 58.83 0.867188 55.5541C0.867188 53.2547 0.867188 50.9553 0.867188 48.5938C29.0992 48.5938 57.2867 48.5938 85.5898 48.5938C85.5898 50.1208 85.5898 51.6566 85.5898 53.1925C85.5898 54.0715 85.5986 54.9592 85.5898 55.8382C85.572 58.7235 83.6721 60.6234 80.7779 60.6323C70.6925 60.6412 60.6071 60.6323 50.5217 60.6323C50.1488 60.6323 49.776 60.6323 49.341 60.6323C49.341 63.6686 49.341 66.6427 49.341 69.7145C49.705 69.7145 50.0423 69.7145 50.3796 69.7145C54.4458 69.7145 58.5119 69.7056 62.578 69.7145C65.5343 69.7233 67.4166 71.6055 67.4343 74.5619C67.4343 75.3786 67.4432 76.2043 67.4343 77.0211C67.4166 78.1663 66.8394 78.7434 65.6853 78.7967C65.6231 78.7967 65.561 78.7967 65.4989 78.7967C50.6549 78.7878 35.8109 78.7878 20.9669 78.7789C19.573 78.7789 19.0404 78.2285 19.0315 76.8346C19.0226 75.9823 19.0226 75.13 19.0315 74.2778C19.0759 71.6854 21.0113 69.7411 23.6037 69.7233C27.732 69.6967 31.8602 69.7145 35.9885 69.7145C36.3436 69.7145 36.6899 69.7145 37.1426 69.7145ZM64.327 75.716C64.6466 73.7007 64.3537 72.6975 61.9034 72.7063C49.4031 72.7685 36.8941 72.733 24.3939 72.733C24.0831 72.733 23.7635 72.7063 23.4527 72.7507C22.6715 72.8573 22.1832 73.31 22.0944 74.0913C22.0322 74.6062 22.0855 75.1389 22.0855 75.716C36.2104 75.716 50.2732 75.716 64.327 75.716ZM40.2854 60.6767C40.2854 63.7218 40.2854 66.696 40.2854 69.6346C42.3184 69.6346 44.2805 69.6346 46.2248 69.6346C46.2248 66.6072 46.2248 63.6597 46.2248 60.6767C44.2272 60.6767 42.2918 60.6767 40.2854 60.6767ZM43.1707 56.0957C45.0972 56.0957 47.0149 56.1045 48.9414 56.0957C50.1222 56.0868 50.8147 55.5008 50.8059 54.5597C50.7881 53.6453 50.1133 53.0771 48.9947 53.0682C45.1506 53.0594 41.3064 53.0594 37.4622 53.0682C36.3614 53.0682 35.6778 53.6808 35.6955 54.5953C35.7133 55.5186 36.379 56.0779 37.5066 56.0868C39.3887 56.1045 41.2797 56.0957 43.1707 56.0957Z" fill="white"/>
<path d="M32.7227 13.3105C39.2569 16.986 45.6845 20.6082 52.2631 24.3103C45.6845 28.0125 39.248 31.6347 32.7227 35.3102C32.7227 27.9503 32.7227 20.7059 32.7227 13.3105Z" fill="white"/>
</svg>
