<svg width="89" height="79" viewBox="0 0 89 79" fill="none" xmlns="http://www.w3.org/2000/svg">
<path d="M88.3555 18.4348C88.3555 25.9544 88.3555 33.483 88.3555 41.0026C88.2046 41.7573 88.0803 42.5119 87.9116 43.2576C85.7897 52.615 77.9061 58.9184 68.2913 58.9273C59.5908 58.9361 50.8904 58.9362 42.19 58.9095C41.3554 58.9095 40.7606 59.1315 40.1657 59.7352C34.2175 65.7278 28.2338 71.6761 22.2767 77.6598C21.3356 78.6009 20.3412 79.249 18.9918 78.6897C17.6512 78.1392 17.3494 77.0117 17.3583 75.6623C17.3849 70.3532 17.3671 65.0353 17.3671 59.7263C17.3671 59.4156 17.3671 59.1048 17.3671 58.803C17.012 58.732 16.7279 58.6609 16.4438 58.6166C7.05088 56.912 0.188211 48.7975 0.143821 39.2625C0.10831 32.8615 0.10831 26.4516 0.143821 20.0506C0.205967 9.25495 8.88864 0.430226 19.6754 0.376959C36.0464 0.297057 52.4086 0.305935 68.7796 0.376959C77.6931 0.41247 85.3902 6.48502 87.6719 15.0878C87.9648 16.1887 88.1335 17.3162 88.3555 18.4348ZM62.707 43.0978C62.707 43.737 62.6715 44.4029 62.7159 45.051C62.778 46.0276 63.4883 46.6579 64.4116 46.6313C65.326 46.5958 65.9297 45.992 65.9919 45.0332C66.0185 44.6071 66.0274 44.1721 66.0008 43.7459C65.9564 43.2044 66.1073 42.9735 66.7198 42.8581C70.3421 42.1656 72.455 40.0971 72.6858 36.4305C72.9433 32.5153 72.97 28.5646 72.7391 24.6494C72.5083 20.8407 70.5374 18.7011 67.1194 17.9998C65.841 17.7423 64.4915 17.7068 63.1864 17.7689C58.8007 17.9642 56.0752 20.7608 55.9775 25.1554C55.9065 28.4225 55.9597 31.6985 55.9419 34.9656C55.9242 39.5644 58.197 42.3343 62.5383 42.9647C62.5472 42.9647 62.5738 43.0002 62.707 43.0978ZM46.0874 37.5668C46.4425 38.8453 46.842 40.0438 47.0906 41.2779C47.3747 42.6895 48.2714 43.0268 49.4965 42.8315C50.1357 42.7338 50.7839 42.503 51.3521 42.1923C52.4263 41.6152 52.6216 41.0026 52.2664 39.8396C50.2245 33.1545 48.1649 26.4782 46.1407 19.7842C45.7945 18.639 45.1108 17.8844 43.9744 17.7246C42.9712 17.5825 41.9237 17.5825 40.9205 17.7246C39.7841 17.8844 39.1004 18.639 38.7542 19.7842C36.7655 26.3983 34.7413 32.9947 32.726 39.5999C32.2643 41.118 32.5663 41.8372 34.04 42.4409C34.6348 42.6806 35.3095 42.8315 35.9487 42.867C36.9785 42.9203 37.458 42.5119 37.7421 41.5175C38.0617 40.39 38.3458 39.2448 38.701 38.1262C38.772 37.8953 39.136 37.6023 39.3668 37.5935C41.5774 37.5491 43.788 37.5668 46.0874 37.5668ZM22.7471 22.3855C25.6858 22.3855 28.5268 22.3944 31.3677 22.3855C32.3887 22.3855 32.9657 21.8173 33.1788 20.6809C33.4185 19.4291 32.948 18.1241 32.149 17.8045C31.9892 17.7423 31.8116 17.7157 31.6429 17.7157C27.5413 17.7157 23.4308 17.689 19.3291 17.7423C17.8998 17.7601 17.3316 18.4437 17.3316 19.8553C17.3316 26.7712 17.3316 33.6872 17.3316 40.612C17.3316 42.0147 17.7134 42.5385 19.1161 42.7516C19.8352 42.8581 20.6076 42.8137 21.3178 42.6628C22.3388 42.4409 22.7028 41.8549 22.7028 40.7895C22.7028 38.2948 22.7028 35.7912 22.7028 33.2965C22.7028 32.9947 22.7028 32.6928 22.7028 32.3555C24.363 32.3555 25.8811 32.3555 27.3992 32.3555C28.8108 32.3466 29.4767 31.6985 29.4945 30.3313C29.5123 28.9108 28.8374 28.2272 27.4081 28.2183C25.8633 28.2094 24.3274 28.2183 22.7383 28.2183C22.7471 26.2385 22.7471 24.3564 22.7471 22.3855Z" fill="white"/>
<path d="M66.2382 37.9582C65.9008 36.6088 66.3714 34.9308 64.2495 34.9486C63.0954 34.9575 62.8291 35.4901 62.6338 38.0204C62.3053 37.7008 61.959 37.4966 61.8436 37.2125C61.595 36.5821 61.3287 35.9074 61.3199 35.2504C61.2666 32.01 61.2666 28.7606 61.3021 25.5202C61.3287 23.2652 62.7492 22.1021 64.9776 22.4129C66.2027 22.5816 67.0639 23.3806 67.3125 24.6146C67.4013 25.0585 67.4545 25.529 67.4545 25.9818C67.4633 28.9116 67.4812 31.8413 67.4457 34.771C67.4368 35.4457 67.3036 36.1471 67.0817 36.7863C66.9307 37.2214 66.5312 37.5676 66.2382 37.9582Z" fill="white"/>
<path d="M42.4362 24.207C43.3062 27.3942 44.1141 30.3417 44.9308 33.3691C43.2618 33.3691 41.646 33.3691 39.9414 33.3691C40.7582 30.3861 41.5661 27.412 42.4362 24.207Z" fill="white"/>
</svg>
