<svg width="100" height="90" viewBox="0 0 100 90" fill="none" xmlns="http://www.w3.org/2000/svg">
<path d="M99.9798 20.9702C99.9798 29.4402 99.9798 37.9202 99.9798 46.3902C99.8098 47.2402 99.6698 48.0902 99.4798 48.9302C97.0898 59.4702 88.2099 66.5702 77.3799 66.5802C67.5798 66.5902 57.7798 66.5902 47.9798 66.5602C47.0398 66.5602 46.3698 66.8102 45.6998 67.4902C38.9998 74.2402 32.2599 80.9402 25.5499 87.6802C24.4899 88.7402 23.3698 89.4702 21.8498 88.8402C20.3398 88.2202 19.9999 86.9502 20.0099 85.4302C20.0399 79.4502 20.0199 73.4602 20.0199 67.4802C20.0199 67.1302 20.0199 66.7802 20.0199 66.4402C19.6199 66.3602 19.2998 66.2802 18.9798 66.2302C8.39983 64.3102 0.669844 55.1702 0.619844 44.4302C0.579844 37.2202 0.579844 30.0002 0.619844 22.7902C0.689844 10.6302 10.4698 0.690211 22.6198 0.630211C41.0598 0.540211 59.4899 0.550211 77.9299 0.630211C87.9699 0.670211 96.6398 7.51022 99.2098 17.2002C99.5398 18.4402 99.7298 19.7102 99.9798 20.9702ZM71.0898 48.7502C71.0898 49.4702 71.0498 50.2202 71.0998 50.9502C71.1698 52.0502 71.9699 52.7602 73.0099 52.7302C74.0399 52.6902 74.7199 52.0102 74.7899 50.9302C74.8199 50.4502 74.8299 49.9602 74.7999 49.4802C74.7499 48.8702 74.9198 48.6102 75.6098 48.4802C79.6898 47.7002 82.0698 45.3702 82.3298 41.2402C82.6198 36.8302 82.6499 32.3802 82.3899 27.9702C82.1299 23.6802 79.9099 21.2702 76.0599 20.4802C74.6199 20.1902 73.0999 20.1502 71.6299 20.2202C66.6898 20.4402 63.6199 23.5902 63.5099 28.5402C63.4299 32.2202 63.4898 35.9102 63.4698 39.5902C63.4498 44.7702 66.0099 47.8902 70.8999 48.6002C70.9099 48.6002 70.9398 48.6402 71.0898 48.7502ZM52.3698 42.5202C52.7698 43.9602 53.2198 45.3102 53.4998 46.7002C53.8198 48.2902 54.8298 48.6702 56.2098 48.4502C56.9298 48.3402 57.6599 48.0802 58.2999 47.7302C59.5099 47.0802 59.7298 46.3902 59.3298 45.0802C57.0298 37.5502 54.7099 30.0302 52.4299 22.4902C52.0399 21.2002 51.2698 20.3502 49.9898 20.1702C48.8598 20.0102 47.6799 20.0102 46.5499 20.1702C45.2699 20.3502 44.4998 21.2002 44.1098 22.4902C41.8698 29.9402 39.5898 37.3702 37.3198 44.8102C36.7998 46.5202 37.1399 47.3302 38.7999 48.0102C39.4699 48.2802 40.2298 48.4502 40.9498 48.4902C42.1098 48.5502 42.6498 48.0902 42.9698 46.9702C43.3298 45.7002 43.6499 44.4102 44.0499 43.1502C44.1299 42.8902 44.5399 42.5602 44.7999 42.5502C47.2899 42.5002 49.7798 42.5202 52.3698 42.5202ZM26.0798 25.4202C29.3898 25.4202 32.5899 25.4302 35.7899 25.4202C36.9399 25.4202 37.5898 24.7802 37.8298 23.5002C38.0998 22.0902 37.5699 20.6202 36.6699 20.2602C36.4899 20.1902 36.2898 20.1602 36.0998 20.1602C31.4798 20.1602 26.8498 20.1302 22.2298 20.1902C20.6198 20.2102 19.9798 20.9802 19.9798 22.5702C19.9798 30.3602 19.9798 38.1502 19.9798 45.9502C19.9798 47.5302 20.4098 48.1202 21.9898 48.3602C22.7998 48.4802 23.6698 48.4302 24.4698 48.2602C25.6198 48.0102 26.0299 47.3502 26.0299 46.1502C26.0299 43.3402 26.0299 40.5202 26.0299 37.7102C26.0299 37.3702 26.0299 37.0302 26.0299 36.6502C27.8999 36.6502 29.6098 36.6502 31.3198 36.6502C32.9098 36.6402 33.6599 35.9102 33.6799 34.3702C33.6999 32.7702 32.9398 32.0002 31.3298 31.9902C29.5898 31.9802 27.8598 31.9902 26.0698 31.9902C26.0798 29.7602 26.0798 27.6402 26.0798 25.4202Z" fill="#473171"/>
<path d="M75.0702 42.9604C74.6902 41.4404 75.2202 39.5504 72.8302 39.5704C71.5302 39.5804 71.2303 40.1804 71.0103 43.0304C70.6403 42.6704 70.2503 42.4404 70.1203 42.1204C69.8403 41.4104 69.5403 40.6504 69.5303 39.9104C69.4703 36.2604 69.4703 32.6004 69.5103 28.9504C69.5403 26.4104 71.1403 25.1004 73.6503 25.4504C75.0303 25.6404 76.0003 26.5404 76.2803 27.9304C76.3803 28.4304 76.4402 28.9604 76.4402 29.4704C76.4502 32.7704 76.4703 36.0704 76.4303 39.3704C76.4203 40.1304 76.2703 40.9204 76.0203 41.6404C75.8503 42.1304 75.4002 42.5204 75.0702 42.9604Z" fill="#473171"/>
<path d="M48.2603 27.4688C49.2403 31.0587 50.1502 34.3788 51.0702 37.7888C49.1902 37.7888 47.3702 37.7888 45.4502 37.7888C46.3702 34.4288 47.2803 31.0787 48.2603 27.4688Z" fill="#473171"/>
</svg>
