<svg width="23" height="30" viewBox="0 0 23 30" fill="none" xmlns="http://www.w3.org/2000/svg">
<path d="M15.96 21.6681C14.87 22.6781 13.33 23.5681 11.22 23.5681C8.14 23.5681 6.34 21.6681 6.21 18.2481H22.16V12.7881C22.16 8.51812 21.33 5.65813 19.48 3.54813C17.46 1.26813 14.55 0.078125 11.03 0.078125C7.74 0.078125 5.01 1.18812 3.03 3.24812C0.929999 5.44812 0 8.12812 0 12.3081V16.7881C0 21.3181 1.01 24.2081 3.29 26.3281C5.36 28.2081 8.08 29.2681 11.13 29.2681C14.42 29.2681 17.02 28.2081 19.45 25.9281L15.96 21.6681ZM6.2 12.6581C6.2 9.66813 6.81 5.71812 11.08 5.71812C15.35 5.71812 15.96 9.66813 15.96 12.6581H6.2Z" fill="url(#paint0_linear_1659_98121)"/>
<defs>
<linearGradient id="paint0_linear_1659_98121" x1="11.0811" y1="0.079125" x2="11.0811" y2="29.2766" gradientUnits="userSpaceOnUse">
<stop offset="0.00283151" stop-color="#FF6C72"/>
<stop offset="1" stop-color="#894FFF"/>
</linearGradient>
</defs>
</svg>
