<svg width="33" height="31" viewBox="0 0 33 31" fill="none" xmlns="http://www.w3.org/2000/svg">
<path d="M15.027 1.39784C15.583 0.280764 17.1767 0.280767 17.7326 1.39784L21.5077 8.98305C21.7288 9.42727 22.1538 9.73464 22.645 9.8054L31.0653 11.0187C32.3086 11.1979 32.8032 12.7278 31.8999 13.6008L25.8232 19.4747C25.4634 19.8224 25.2991 20.3257 25.3844 20.8187L26.8212 29.1255C27.0344 30.3582 25.7429 31.3013 24.6336 30.7229L17.0784 26.7841C16.6406 26.5559 16.119 26.5559 15.6813 26.7841L8.12599 30.7229C7.01669 31.3013 5.72527 30.3582 5.93848 29.1255L7.37521 20.8187C7.46048 20.3257 7.29619 19.8224 6.93644 19.4747L0.859683 13.6008C-0.0435301 12.7278 0.451022 11.1979 1.69437 11.0187L10.1147 9.8054C10.6058 9.73464 11.0309 9.42726 11.2519 8.98305L15.027 1.39784Z" fill="#FAB041"/>
</svg>
