<svg width="31" height="31" viewBox="0 0 31 31" fill="none" xmlns="http://www.w3.org/2000/svg">
<path d="M29 29L22.475 22.475M26 14C26 20.6274 20.6274 26 14 26C7.37258 26 2 20.6274 2 14C2 7.37258 7.37258 2 14 2C20.6274 2 26 7.37258 26 14Z" stroke="#8653ff" stroke-width="3" stroke-linecap="round" stroke-linejoin="round"/>
<path d="M15.9344 17.3402C15.3934 17.805 14.612 18.2697 13.5902 18.2697C12.0874 18.2697 11.1858 17.3403 11.1257 15.7137H19V13.0996C19 11.0664 18.5792 9.6722 17.6776 8.68464C16.6557 7.58091 15.2131 7 13.4699 7C11.847 7 10.5246 7.52282 9.50273 8.51037C8.48087 9.55601 8 10.834 8 12.8672V15.0166C8 17.166 8.48087 18.5602 9.62295 19.6058C10.6448 20.5353 11.9672 21 13.4699 21C15.0929 21 16.3552 20.4772 17.5574 19.3734L15.9344 17.3402ZM11.0656 12.9834C11.0656 11.5311 11.3661 9.67219 13.4699 9.67219C15.5738 9.67219 15.8743 11.5311 15.8743 12.9834H11.0656Z" fill="#8653ff"/>
</svg>
