<svg width="28" height="21" viewBox="0 0 28 21" fill="none" xmlns="http://www.w3.org/2000/svg">
<path d="M0.335938 18.67C0.335938 13.2334 0.335938 7.87913 0.335938 2.44249V2.36011C0.500684 1.20689 1.57155 0.300781 2.97189 0.300781C5.69021 0.300781 8.49091 0.300781 11.2092 0.300781C11.4563 0.300781 11.7035 0.38315 11.8682 0.63027C12.4448 1.37163 13.1038 2.03062 13.6804 2.77198C13.8452 2.93673 13.9276 3.01909 14.1747 3.01909C17.6344 3.01909 21.094 3.01909 24.5537 3.01909C26.0364 3.01909 27.1073 4.00757 27.1073 5.49029C27.1073 9.77371 27.1073 14.1395 27.1073 18.4229C27.1073 19.2466 26.7778 19.9056 26.1188 20.3999C25.6246 20.8117 25.048 20.8941 24.4714 20.8941C19.2818 20.8941 14.0923 20.8941 8.98514 20.8941C7.00818 20.8941 5.03123 20.8941 2.97189 20.8941C2.31291 20.8941 1.65391 20.7294 1.15967 20.2351C0.665431 19.8232 0.500684 19.2466 0.335938 18.67Z" fill="#564589"/>
</svg>
