<svg width="36" height="28" viewBox="0 0 36 28" fill="none" xmlns="http://www.w3.org/2000/svg">
<path d="M0 24.4031C0 17.3031 0 10.2031 0 3.00311C0 3.00311 9.76548e-05 2.90311 0.100098 2.90311C0.300098 1.30311 1.7 0.203125 3.5 0.203125C7.1 0.203125 10.7 0.203125 14.3 0.203125C14.7 0.203125 15.0001 0.303119 15.2001 0.603119C16.0001 1.60312 16.8001 2.50311 17.6001 3.40311C17.8001 3.60311 18 3.70312 18.3 3.70312C22.9 3.70312 27.4 3.70312 32 3.70312C33.9 3.70312 35.3 5.00311 35.3 6.90311C35.3 12.6031 35.3 18.2031 35.3 23.9031C35.3 25.0031 34.9 25.8031 34 26.5031C33.3 27.0031 32.6 27.1031 31.8 27.1031C25 27.1031 18.2 27.1031 11.4 27.1031C8.80002 27.1031 6.2 27.1031 3.5 27.1031C2.6 27.1031 1.8001 26.9031 1.1001 26.2031C0.400098 25.8031 0.2 25.2031 0 24.4031Z" fill="#564589"/>
</svg>
