<svg width="63" height="79" viewBox="0 0 63 79" fill="none" xmlns="http://www.w3.org/2000/svg">
<path d="M57.1782 64.1902C57.1782 68.1941 57.1782 72.0827 57.1782 76.0689C58.5632 76.0689 59.9126 76.0689 61.2621 76.0689C62.3186 76.0689 62.8779 76.5217 62.8779 77.3562C62.8868 78.1907 62.3275 78.6702 61.2799 78.6702C43.8169 78.6702 26.3539 78.6879 8.89085 78.6613C3.96357 78.6524 0.341358 74.8881 0.323602 69.8365C0.305846 60.781 0.314715 51.7166 0.314715 42.661C0.314715 39.1098 0.314715 35.5586 0.314715 31.9986C0.314715 31.7056 0.314715 31.4126 0.314715 31.0664C3.92806 31.0664 7.46152 31.0664 11.0749 31.0664C11.0749 41.2406 11.0749 51.3703 11.0749 61.5445C11.9538 61.5445 12.7616 61.5445 13.6494 61.5445C13.6494 41.2494 13.6494 20.9543 13.6494 0.552734C14.049 0.552734 14.3686 0.552734 14.6793 0.552734C29.2659 0.552734 43.8613 0.552734 58.4478 0.552734C61.342 0.552734 62.869 2.06198 62.869 4.95621C62.869 23.236 62.869 41.5158 62.869 59.8044C62.869 62.6898 61.342 64.199 58.4478 64.2079C58.066 64.1901 57.6576 64.1902 57.1782 64.1902ZM54.506 64.1902C54.1242 64.1902 53.8046 64.1902 53.4939 64.1902C39.7152 64.1902 25.9455 64.1902 12.1668 64.1902C11.0038 64.1902 9.83192 64.1724 8.6689 64.199C5.606 64.2789 3.07579 66.7559 2.94262 69.7655C2.79169 73.3522 5.41957 76.06 9.09506 76.06C23.9568 76.0689 38.8097 76.06 53.6714 76.06C53.9378 76.06 54.1952 76.0334 54.4882 76.0245C54.4882 74.4886 54.4882 73.0149 54.4882 71.4346C54.0709 71.4346 53.6981 71.4346 53.3341 71.4346C39.9638 71.4346 26.5936 71.4346 13.2322 71.4346C12.9037 71.4346 12.5753 71.4435 12.2556 71.3991C11.5277 71.2925 11.0571 70.7599 11.1015 70.0674C11.1547 69.3483 11.5631 68.931 12.2823 68.8511C12.6019 68.8156 12.9303 68.8245 13.2588 68.8245C26.6291 68.8245 39.9993 68.8245 53.3607 68.8245C53.7336 68.8245 54.1064 68.8245 54.4971 68.8245C54.5059 67.2531 54.506 65.7882 54.506 64.1902ZM41.8637 38.1599C41.8637 35.7184 41.8637 33.277 41.8637 30.8444C41.8637 30.1431 41.9081 29.424 41.7927 28.7315C41.3754 26.1657 39.1293 24.4434 36.5547 24.6476C34.0511 24.8429 32.1246 26.9647 32.1157 29.6104C32.0979 35.2479 32.0979 40.8854 32.1157 46.5229C32.1246 49.4438 34.2286 51.6367 36.9808 51.6456C39.7508 51.6456 41.8459 49.4616 41.8548 46.5407C41.8726 43.7441 41.8637 40.9476 41.8637 38.1599ZM36.9542 22.8365C39.6353 22.8542 41.8371 20.6969 41.8637 18.0246C41.8903 15.308 39.6975 13.0884 36.9986 13.0884C34.353 13.0884 32.1335 15.2902 32.1157 17.9447C32.1068 20.6081 34.2996 22.8187 36.9542 22.8365Z" fill="white"/>
<path d="M11.0488 19.4184C7.47099 19.4184 3.95532 19.4184 0.386371 19.4184C0.359737 19.1876 0.324219 18.9746 0.324219 18.7704C0.386365 15.9827 0.208804 13.1595 0.572801 10.4073C1.20314 5.59542 5.38465 1.5737 10.2054 0.730289C10.4629 0.685899 10.7381 0.677025 11.0488 0.650391C11.0488 6.92713 11.0488 13.1239 11.0488 19.4184Z" fill="white"/>
<path d="M0.378906 28.3329C0.378906 26.2554 0.378906 24.2046 0.378906 22.1094C3.93898 22.1094 7.45469 22.1094 11.0325 22.1094C11.0325 24.1691 11.0325 26.211 11.0325 28.3329C7.52571 28.3329 3.99225 28.3329 0.378906 28.3329Z" fill="white"/>
<path d="M39.2621 38.1942C39.2621 41.0174 39.271 43.8318 39.2533 46.655C39.2444 47.7292 38.6851 48.5371 37.7795 48.8745C36.9095 49.1941 35.8885 49.0076 35.3469 48.2619C35.0184 47.8091 34.7432 47.1876 34.7432 46.6372C34.6988 40.973 34.7077 35.3 34.7255 29.6358C34.7255 28.2065 35.7376 27.2122 37.0426 27.2388C38.3211 27.2654 39.2444 28.2597 39.2533 29.6536C39.271 32.5034 39.2621 35.3533 39.2621 38.1942Z" fill="white"/>
<path d="M37.026 20.2349C35.7831 20.2526 34.7355 19.2228 34.7266 17.9798C34.7177 16.7458 35.7742 15.6982 37.0082 15.7071C38.2156 15.716 39.2277 16.7192 39.2544 17.9266C39.281 19.1695 38.2689 20.2171 37.026 20.2349Z" fill="white"/>
</svg>
