<svg width="71" height="89" viewBox="0 0 71 89" fill="none" xmlns="http://www.w3.org/2000/svg">
<path d="M64.1297 72.512C64.1297 77.022 64.1297 81.402 64.1297 85.892C65.6897 85.892 67.2096 85.892 68.7296 85.892C69.9196 85.892 70.5496 86.402 70.5496 87.342C70.5596 88.282 69.9297 88.822 68.7497 88.822C49.0797 88.822 29.4096 88.842 9.73965 88.812C4.18965 88.802 0.109653 84.562 0.0896533 78.872C0.0696533 68.672 0.0796436 58.462 0.0796436 48.262C0.0796436 44.262 0.0796436 40.262 0.0796436 36.252C0.0796436 35.922 0.0796436 35.592 0.0796436 35.202C4.14964 35.202 8.12967 35.202 12.1997 35.202C12.1997 46.662 12.1997 58.072 12.1997 69.532C13.1897 69.532 14.0996 69.532 15.0996 69.532C15.0996 46.672 15.0996 23.812 15.0996 0.832031C15.5496 0.832031 15.9097 0.832031 16.2597 0.832031C32.6897 0.832031 49.1297 0.832031 65.5597 0.832031C68.8197 0.832031 70.5396 2.53202 70.5396 5.79202C70.5396 26.382 70.5396 46.972 70.5396 67.572C70.5396 70.822 68.8197 72.522 65.5597 72.532C65.1297 72.512 64.6697 72.512 64.1297 72.512ZM61.1197 72.512C60.6897 72.512 60.3296 72.512 59.9796 72.512C44.4596 72.512 28.9496 72.512 13.4296 72.512C12.1196 72.512 10.7996 72.492 9.48965 72.522C6.03965 72.612 3.18967 75.402 3.03967 78.792C2.86967 82.832 5.82966 85.882 9.96966 85.882C26.7097 85.892 43.4397 85.882 60.1796 85.882C60.4796 85.882 60.7696 85.852 61.0996 85.842C61.0996 84.112 61.0996 82.452 61.0996 80.672C60.6296 80.672 60.2096 80.672 59.7996 80.672C44.7396 80.672 29.6797 80.672 14.6297 80.672C14.2597 80.672 13.8897 80.682 13.5297 80.632C12.7097 80.512 12.1796 79.912 12.2296 79.132C12.2896 78.322 12.7497 77.852 13.5597 77.762C13.9197 77.722 14.2896 77.732 14.6596 77.732C29.7196 77.732 44.7797 77.732 59.8297 77.732C60.2497 77.732 60.6696 77.732 61.1096 77.732C61.1196 75.962 61.1197 74.312 61.1197 72.512ZM46.8797 43.192C46.8797 40.442 46.8797 37.692 46.8797 34.952C46.8797 34.162 46.9296 33.352 46.7996 32.572C46.3296 29.682 43.7997 27.742 40.8997 27.972C38.0797 28.192 35.9097 30.582 35.8997 33.562C35.8797 39.912 35.8797 46.262 35.8997 52.612C35.9097 55.902 38.2797 58.372 41.3797 58.382C44.4997 58.382 46.8597 55.922 46.8697 52.632C46.8897 49.482 46.8797 46.332 46.8797 43.192ZM41.3496 25.932C44.3696 25.952 46.8497 23.522 46.8797 20.512C46.9097 17.452 44.4397 14.952 41.3997 14.952C38.4197 14.952 35.9197 17.432 35.8997 20.422C35.8897 23.422 38.3596 25.912 41.3496 25.932Z" fill="#473171"/>
<path d="M12.1698 22.0814C8.13983 22.0814 4.17985 22.0814 0.159851 22.0814C0.129851 21.8214 0.0898438 21.5814 0.0898438 21.3514C0.159844 18.2114 -0.0401575 15.0314 0.369843 11.9314C1.07984 6.5114 5.78982 1.9814 11.2198 1.0314C11.5098 0.981403 11.8198 0.971406 12.1698 0.941406C12.1698 8.01141 12.1698 14.9914 12.1698 22.0814Z" fill="#473171"/>
<path d="M0.149414 32.1233C0.149414 29.7833 0.149414 27.4733 0.149414 25.1133C4.15941 25.1133 8.11944 25.1133 12.1494 25.1133C12.1494 27.4333 12.1494 29.7333 12.1494 32.1233C8.19944 32.1233 4.21941 32.1233 0.149414 32.1233Z" fill="#473171"/>
<path d="M43.9496 43.2312C43.9496 46.4112 43.9596 49.5812 43.9396 52.7612C43.9296 53.9712 43.2996 54.8812 42.2796 55.2612C41.2996 55.6212 40.1496 55.4112 39.5396 54.5712C39.1696 54.0612 38.8596 53.3612 38.8596 52.7412C38.8096 46.3612 38.8196 39.9712 38.8396 33.5912C38.8396 31.9812 39.9796 30.8612 41.4496 30.8912C42.8896 30.9212 43.9296 32.0412 43.9396 33.6112C43.9596 36.8212 43.9496 40.0312 43.9496 43.2312Z" fill="#473171"/>
<path d="M41.4299 23.0024C40.0299 23.0224 38.8499 21.8624 38.8399 20.4624C38.8299 19.0724 40.0199 17.8924 41.4099 17.9024C42.7699 17.9124 43.9099 19.0424 43.9399 20.4024C43.9699 21.8024 42.8299 22.9824 41.4299 23.0024Z" fill="#473171"/>
</svg>
