<svg width="25" height="25" viewBox="0 0 25 25" fill="none" xmlns="http://www.w3.org/2000/svg">
<path d="M23.9011 11.2661C23.8011 10.9361 23.5511 10.6161 23.3011 10.3561C20.3911 7.4261 17.4611 4.5061 14.5411 1.5761C14.2111 1.2461 13.8711 0.916098 13.5411 0.576098C12.9211 -0.0739015 11.7111 -0.143902 11.0311 0.216098C10.7911 0.346098 10.5611 0.526092 10.3611 0.726092C7.15107 3.92609 3.95107 7.1361 0.741071 10.3461C0.671071 10.4161 0.611071 10.4761 0.551071 10.5461C-0.518929 11.7661 0.0410701 13.6961 1.61107 14.1261C1.91107 14.2061 2.23107 14.2161 2.58107 14.2561C2.58107 14.3361 2.58107 14.4261 2.58107 14.5161C2.58107 16.7861 2.58107 19.0561 2.58107 21.3261C2.58107 22.9161 3.69107 24.0261 5.29107 24.0261C6.47107 24.0261 7.65107 24.0261 8.84107 24.0261C9.47107 24.0261 9.72107 23.7761 9.72107 23.1461C9.72107 21.3561 9.72107 19.5561 9.72107 17.7661C9.72107 16.9561 10.2011 16.4761 11.0011 16.4761C11.6711 16.4761 12.3511 16.4761 13.0211 16.4761C13.8711 16.4761 14.3411 16.9461 14.3411 17.8061C14.3411 19.6161 14.3411 21.4261 14.3411 23.2361C14.3411 23.7561 14.6311 24.0361 15.1411 24.0361C16.3711 24.0361 17.6011 24.0361 18.8311 24.0361C19.0511 24.0361 19.2711 24.0161 19.4811 23.9661C20.6811 23.6761 21.4711 22.6661 21.4811 21.4261C21.4911 19.1261 21.4811 16.8261 21.4811 14.5161C21.4811 14.4261 21.4811 14.3361 21.4811 14.2261C21.6311 14.2261 21.7611 14.2261 21.8811 14.2261C23.3611 14.1761 24.3911 12.8561 23.9011 11.2661Z" fill="#685AAD"/>
</svg>
