<svg width="25" height="24" viewBox="0 0 25 24" fill="none" xmlns="http://www.w3.org/2000/svg">
<path d="M23.9603 11.2638C23.8603 10.9638 23.6603 10.6638 23.3603 10.3638C20.4603 7.46381 17.5603 4.46381 14.5603 1.56381C14.2603 1.26381 13.8603 0.863812 13.5603 0.563812C12.9603 -0.0361884 11.7603 -0.136182 11.0603 0.163818C10.8603 0.263818 10.5603 0.463818 10.3603 0.663818C7.16027 3.86382 3.96027 7.06381 0.760271 10.2638C0.660271 10.3638 0.660272 10.3638 0.560272 10.4638C-0.539728 11.6638 0.0602707 13.5638 1.66027 14.0638C1.96027 14.1638 2.26027 14.1638 2.66027 14.1638C2.66027 14.2638 2.66027 14.3638 2.66027 14.4638C2.66027 16.7638 2.66027 18.9638 2.66027 21.2638C2.66027 22.8638 3.76027 23.9638 5.36027 23.9638C6.56027 23.9638 7.76027 23.9638 8.86027 23.9638C9.46027 23.9638 9.76027 23.7638 9.76027 23.0638C9.76027 21.2638 9.76027 19.4638 9.76027 17.6638C9.76027 16.8638 10.2603 16.3638 11.0603 16.3638C11.7603 16.3638 12.3603 16.3638 13.0603 16.3638C13.8603 16.3638 14.3603 16.8638 14.3603 17.6638C14.3603 19.4638 14.3603 21.2638 14.3603 23.0638C14.3603 23.5638 14.6603 23.8638 15.1603 23.8638C16.3603 23.8638 17.6603 23.8638 18.8603 23.8638C19.0603 23.8638 19.2603 23.8638 19.5603 23.7638C20.7603 23.4638 21.5603 22.4638 21.5603 21.2638C21.5603 18.9638 21.5603 16.6638 21.5603 14.3638C21.5603 14.2638 21.5603 14.1638 21.5603 14.0638C21.7603 14.0638 21.8603 14.0638 21.9603 14.0638C23.3603 14.1638 24.4603 12.8638 23.9603 11.2638Z" fill="#8653FF"/>
</svg>
