<svg width="26" height="29" viewBox="0 0 26 29" fill="none" xmlns="http://www.w3.org/2000/svg">
<path d="M12.7763 12.978C9.24448 12.978 6.40625 10.1184 6.40625 6.56532C6.40625 3.03354 9.26582 0.195312 12.8189 0.195312C16.3614 0.195312 19.1889 3.05488 19.1889 6.608C19.1889 10.1398 16.3294 12.978 12.7763 12.978Z" fill="#685AAD"/>
<path d="M10.5894 14.281C10.5041 14.5371 10.4294 14.7718 10.3547 15.0172C9.51175 17.546 8.67949 20.0855 7.81522 22.6036C7.59115 23.2652 7.72986 23.7773 8.21001 24.2681C9.54376 25.5912 10.8668 26.925 12.2219 28.2907C12.0726 28.3014 11.9659 28.3121 11.8592 28.3121C8.37006 28.3121 4.88096 28.3121 1.39187 28.3121C0.516924 28.3121 0.00476266 27.7999 0.00476266 26.925C0.0154327 25.6979 -0.0485881 24.4709 0.100792 23.2545C0.527593 19.7547 2.36284 17.1512 5.44647 15.4547C6.96162 14.6118 8.6048 14.2276 10.344 14.2597C10.4187 14.2597 10.4827 14.2703 10.5894 14.281Z" fill="#685AAD"/>
<path d="M15.0026 14.2708C16.507 14.1962 17.9048 14.4416 19.2386 15.0284C22.7277 16.5542 24.851 19.2217 25.4485 22.9776C25.6619 24.354 25.5659 25.7945 25.5659 27.2029C25.5659 27.8324 24.9577 28.3126 24.2855 28.3233C22.6743 28.3233 21.0631 28.3233 19.452 28.3233C17.574 28.3233 15.6961 28.3233 13.8182 28.3233C13.6901 28.3233 13.5621 28.3233 13.3594 28.3233C13.4874 28.1739 13.5728 28.0779 13.6581 27.9925C14.8959 26.7548 16.1336 25.5064 17.382 24.2687C17.8728 23.7885 18.0008 23.2657 17.7768 22.6041C16.8911 19.99 16.0269 17.3758 15.1519 14.751C15.0986 14.6016 15.0559 14.4522 15.0026 14.2708Z" fill="#685AAD"/>
<path d="M12.8116 15.75C13.5478 17.9587 14.2307 20.05 14.9669 22.1307C15.1696 22.6855 15.1056 23.027 14.6575 23.4217C14.0173 23.9766 13.4411 24.6168 12.8009 25.257C12.3421 24.7982 11.894 24.35 11.4458 23.8912C11.1044 23.5391 10.5815 23.2297 10.4855 22.8136C10.3895 22.4188 10.7309 21.9173 10.8803 21.4691C11.4671 19.7192 12.054 17.9694 12.6409 16.2195C12.6729 16.0914 12.7262 15.9741 12.8116 15.75Z" fill="#685AAD"/>
</svg>
