<svg width="27" height="14" viewBox="0 0 27 14" fill="none" xmlns="http://www.w3.org/2000/svg">
<path d="M9.28112 13.4561C8.83396 13.2541 8.69556 12.9032 8.69556 12.4246C8.68491 11.0741 9.01496 9.85117 9.89861 8.80903C10.1328 8.53254 10.4203 8.31988 10.6758 8.06466C10.8036 7.93705 10.9207 7.94768 11.0697 8.03276C11.8789 8.51129 12.7625 8.74521 13.7101 8.70268C14.5085 8.67078 15.2644 8.4581 15.9565 8.04337C16.1268 7.93703 16.2439 7.95829 16.393 8.07527C17.6492 9.04297 18.2987 10.3084 18.32 11.9036C18.32 12.0843 18.3093 12.2545 18.32 12.4246C18.3626 12.9032 18.1816 13.2541 17.7344 13.4561C14.9131 13.4561 12.1024 13.4561 9.28112 13.4561Z" fill="#685AAD"/>
<path d="M0 12.4525C0.127758 12.0165 0.223577 11.5698 0.383274 11.1445C0.60685 10.5596 1.00077 10.0704 1.46921 9.64507C1.59697 9.53873 1.6715 9.53874 1.8099 9.62382C3.23653 10.5171 4.67381 10.5171 6.10043 9.62382C6.23884 9.53874 6.3453 9.51746 6.46241 9.64507C6.52629 9.70888 6.60082 9.76205 6.6647 9.81522C7.06926 10.1661 7.31413 10.5171 7.20766 11.1338C7.07991 11.8889 7.14379 12.6758 7.13314 13.4415C4.75897 13.4415 2.38481 13.4415 0.0106467 13.4415C2.43917e-07 13.1224 0 12.7928 0 12.4525Z" fill="#685AAD"/>
<path d="M19.8962 13.4563C19.8536 12.5099 19.8004 11.5634 19.7578 10.617C19.7578 10.5426 19.7898 10.4575 19.8323 10.4043C20.0453 10.1597 20.2795 9.93643 20.4924 9.69185C20.6415 9.53234 20.7799 9.53233 20.9609 9.6493C21.6422 10.1066 22.4088 10.3192 23.2286 10.2767C23.9312 10.2448 24.57 10.0321 25.1556 9.63866C25.3153 9.53232 25.4111 9.53232 25.5601 9.67056C26.4757 10.5107 26.9442 11.5528 26.9974 12.7863C27.0081 13.1054 26.859 13.3181 26.5822 13.4457C24.3571 13.4563 22.132 13.4563 19.8962 13.4563Z" fill="#685AAD"/>
<path d="M13.4897 7.13206C11.7331 7.12142 10.2852 5.67516 10.2852 3.95243C10.2958 2.22971 11.765 0.794112 13.5217 0.804746C15.2784 0.81538 16.7263 2.26161 16.7263 3.98434C16.7156 5.70706 15.2464 7.14269 13.4897 7.13206Z" fill="#685AAD"/>
<path d="M3.97083 3.96102C5.2697 3.97165 6.33434 5.04571 6.33434 6.33243C6.33434 7.6298 5.22711 8.72511 3.93889 8.69321C2.64002 8.67194 1.57537 7.58726 1.58602 6.30053C1.59666 5.02444 2.6826 3.95038 3.97083 3.96102Z" fill="#685AAD"/>
<path d="M25.4358 6.32171C25.4465 7.60844 24.3818 8.68247 23.083 8.70374C21.7947 8.72501 20.6875 7.62972 20.6875 6.33236C20.6875 5.04563 21.7628 3.97157 23.051 3.96094C24.3499 3.96094 25.4252 5.02435 25.4358 6.32171Z" fill="#685AAD"/>
</svg>
