<svg width="25" height="25" viewBox="0 0 25 25" fill="none" xmlns="http://www.w3.org/2000/svg">
<path d="M20.5379 1.78571H17.8594V0.892857C17.8594 0.401786 17.4576 0 16.9665 0H9.82366C9.33259 0 8.9308 0.401786 8.9308 0.892857V1.78571H6.25223C5.76116 1.78571 5.35938 2.1875 5.35938 2.67857V19.6429H7.14509V3.57143H8.9308V4.46429C8.9308 4.95536 9.33259 5.35714 9.82366 5.35714H16.9665C17.4576 5.35714 17.8594 4.95536 17.8594 4.46429V3.57143H19.6451V19.6429H21.4308V2.67857C21.4308 2.1875 21.029 1.78571 20.5379 1.78571ZM16.0737 3.57143H10.7165V1.78571H16.0737V3.57143Z" fill="#685AAD"/>
<path d="M22.3214 19.6406H4.46429C4.32143 19.6406 4.1875 19.6763 4.0625 19.7388L0.491071 21.5246C0.1875 21.6763 0 21.9799 0 22.3192C0 22.6585 0.1875 22.9621 0.491071 23.1138L4.0625 24.8996C4.1875 24.9621 4.32143 24.9978 4.46429 24.9978H22.3214C23.7946 24.9978 25 23.7924 25 22.3192C25 20.846 23.7946 19.6406 22.3214 19.6406ZM4.25 22.9978L2.89286 22.3192L4.25 21.6406C4.38393 21.8549 4.46429 22.0781 4.46429 22.3192C4.46429 22.5603 4.38393 22.7835 4.25 22.9978ZM20.1696 23.2121H6.09821C6.1875 22.9263 6.25 22.6317 6.25 22.3192C6.25 22.0067 6.1875 21.7121 6.09821 21.4263H20.1696C20.4018 21.6942 20.5357 21.9978 20.5357 22.3192C20.5357 22.6406 20.4018 22.9442 20.1696 23.2121ZM22.3214 23.2121H22.1696C22.2589 22.9263 22.3214 22.6317 22.3214 22.3192C22.3214 22.0067 22.2589 21.7121 22.1696 21.4263H22.3214C22.8125 21.4263 23.2143 21.8281 23.2143 22.3192C23.2143 22.8103 22.8125 23.2121 22.3214 23.2121Z" fill="#685AAD"/>
<path d="M17.8549 3.57031V4.46317C17.8549 4.95424 17.4531 5.35603 16.9621 5.35603H9.8192C9.32812 5.35603 8.92634 4.95424 8.92634 4.46317V3.57031H7.14062V19.6417H19.6406V3.57031H17.8549ZM12.2388 16.7042L10.4531 18.49C10.2746 18.6596 10.0513 18.7489 9.8192 18.7489C9.58705 18.7489 9.36384 18.6596 9.18527 18.49L8.29241 17.5971C7.9442 17.2489 7.9442 16.6775 8.29241 16.3292C8.64062 15.981 9.21205 15.981 9.56027 16.3292L9.8192 16.5971L10.971 15.4364C11.3192 15.0882 11.8906 15.0882 12.2388 15.4364C12.5871 15.7846 12.5871 16.356 12.2388 16.7042ZM12.2388 12.24L10.4531 14.0257C10.2746 14.1953 10.0513 14.2846 9.8192 14.2846C9.58705 14.2846 9.36384 14.1953 9.18527 14.0257L8.29241 13.1328C7.9442 12.7846 7.9442 12.2132 8.29241 11.865C8.64062 11.5167 9.21205 11.5167 9.56027 11.865L9.8192 12.1328L10.971 10.9721C11.3192 10.6239 11.8906 10.6239 12.2388 10.9721C12.5871 11.3203 12.5871 11.8917 12.2388 12.24ZM12.2388 7.77567L10.4531 9.56138C10.2746 9.73103 10.0513 9.82031 9.8192 9.82031C9.58705 9.82031 9.36384 9.73103 9.18527 9.56138L8.29241 8.66853C7.9442 8.32031 7.9442 7.74888 8.29241 7.40067C8.64062 7.05246 9.21205 7.05246 9.56027 7.40067L9.8192 7.66853L10.971 6.50781C11.3192 6.1596 11.8906 6.1596 12.2388 6.50781C12.5871 6.85603 12.5871 7.42746 12.2388 7.77567Z" fill="#685AAD"/>
</svg>
