<svg width="24" height="24" viewBox="0 0 24 24" fill="none" xmlns="http://www.w3.org/2000/svg">
<path d="M12.0004 23.7468C18.4069 23.7468 23.6003 18.5534 23.6003 12.1469C23.6003 5.74035 18.4069 0.546875 12.0004 0.546875C5.59386 0.546875 0.400391 5.74035 0.400391 12.1469C0.400391 18.5534 5.59386 23.7468 12.0004 23.7468Z" fill="#9052FC"/>
<path d="M13.1235 5.84375L12.8892 13.2266H11.1826L10.9336 5.84375H13.1235ZM10.9043 15.5044C10.9043 15.1919 11.0068 14.9282 11.2119 14.7134C11.417 14.4937 11.688 14.3838 12.0249 14.3838C12.3716 14.3838 12.645 14.4937 12.8452 14.7134C13.0503 14.9282 13.1528 15.1919 13.1528 15.5044C13.1528 15.8218 13.0503 16.0903 12.8452 16.3101C12.645 16.5249 12.3716 16.6323 12.0249 16.6323C11.688 16.6323 11.417 16.5249 11.2119 16.3101C11.0068 16.0903 10.9043 15.8218 10.9043 15.5044Z" fill="#FAFBFC"/>
</svg>
