<svg width="19" height="21" viewBox="0 0 19 21" fill="none" xmlns="http://www.w3.org/2000/svg">
<path opacity="0.6" fill-rule="evenodd" clip-rule="evenodd" d="M12.5531 1.54101C12.9542 0.846208 13.8427 0.608135 14.5375 1.00929L18.0958 3.06371C18.7906 3.46488 19.0287 4.35332 18.6275 5.04814C18.2264 5.74293 17.3379 5.98101 16.6432 5.57985L14.3429 4.25177L13.2275 6.1836L15.5278 7.51166C16.2226 7.91283 16.4606 8.80127 16.0595 9.49609C15.6584 10.1909 14.7699 10.429 14.0751 10.0278L11.7748 8.69973L10.6923 10.5747C11.41 11.278 11.9545 12.1768 12.2334 13.2177C13.064 16.3175 11.2245 19.5038 8.1246 20.3344C5.02474 21.165 1.83847 19.3254 1.00788 16.2256C0.177277 13.1257 2.01687 9.93944 5.11672 9.10884C6.15762 8.82993 7.20828 8.8521 8.17622 9.12198L9.98134 5.99539L9.98503 5.98896L9.98875 5.98255L12.5531 1.54101ZM3.81427 15.4736C3.39897 13.9237 4.31876 12.3305 5.86869 11.9152C7.41862 11.4999 9.01175 12.4197 9.42705 13.9697C9.84236 15.5196 8.92256 17.1127 7.37263 17.528C5.8227 17.9433 4.22958 17.0236 3.81427 15.4736Z" fill="#7669B5"/>
</svg>
