<svg width="201" height="207" viewBox="0 0 201 207" fill="none" xmlns="http://www.w3.org/2000/svg">
<path d="M100.307 206.897C95.6566 206.897 91.0865 205.647 87.0965 203.267L64.8866 190.087L64.7966 190.027C61.8766 188.067 60.0066 184.437 59.8366 180.467L55.2866 178.177L55.1966 178.127C51.3966 175.957 49.0366 171.757 49.0366 167.157V121.467L45.3266 119.327C39.9766 116.237 36.1066 111.307 34.3566 105.497H23.8866C20.8966 105.497 18.2966 103.577 17.4166 100.727L10.9766 79.9772C10.3366 77.9272 10.7166 75.6772 11.9966 73.9472C12.0366 73.8872 12.0766 73.8372 12.1266 73.7772C10.0366 73.1272 8.34656 71.4972 7.66656 69.3072L0.656546 46.7372C0.0165462 44.6872 0.396566 42.4372 1.67657 40.7072C2.94657 38.9772 4.98659 37.9472 7.13659 37.9472H36.0066C38.1066 33.8672 41.3466 30.4372 45.3366 28.1372L88.3066 3.32718C91.9466 1.22718 96.0966 0.117188 100.307 0.117188C104.517 0.117188 108.667 1.22718 112.307 3.32718L155.277 28.1372C159.267 30.4372 162.507 33.8672 164.607 37.9472H193.477C195.627 37.9472 197.667 38.9772 198.937 40.7072C200.207 42.4372 200.587 44.6872 199.957 46.7372L192.947 69.3072C192.267 71.4872 190.587 73.1272 188.487 73.7772C188.527 73.8372 188.577 73.8872 188.617 73.9472C189.887 75.6772 190.267 77.9272 189.637 79.9772L183.197 100.727C182.307 103.577 179.707 105.497 176.727 105.497H166.257C164.517 111.307 160.637 116.237 155.287 119.327L151.577 121.467V167.157C151.577 171.757 149.217 175.967 145.417 178.127L145.327 178.177L140.777 180.467C140.617 184.437 138.747 188.067 135.817 190.027L135.727 190.087L113.517 203.267C109.517 205.637 104.957 206.897 100.307 206.897Z" fill="white"/>
<path d="M183.157 75.2109H17.4569C15.6069 75.2109 14.2869 77.0009 14.8369 78.7709L21.2769 99.5209C21.6369 100.671 22.6969 101.451 23.8969 101.451H176.707C177.907 101.451 178.967 100.671 179.327 99.5209L185.767 78.7709C186.317 77.0009 184.997 75.2109 183.147 75.2109H183.157Z" fill="#75133B"/>
<path d="M189.089 68.1144L196.099 45.5444C196.649 43.7744 195.329 41.9844 193.479 41.9844H7.12877C5.27877 41.9844 3.95878 43.7744 4.50878 45.5444L11.5188 68.1144C11.8788 69.2644 12.9388 70.0444 14.1388 70.0444H186.469C187.669 70.0444 188.729 69.2644 189.089 68.1144Z" fill="#75133B"/>
<path d="M139.898 50.75H60.7181C56.4981 50.75 53.0781 54.52 53.0781 59.16V167.15C53.0781 170.29 54.6681 173.17 57.1981 174.62L85.8481 189.08C94.7581 193.58 105.838 193.58 114.748 189.08L143.398 174.62C145.928 173.17 147.518 170.29 147.518 167.15V59.16C147.518 54.51 144.098 50.75 139.878 50.75H139.898Z" fill="#75133B"/>
<path d="M130.857 74.2266H69.7572C66.4972 74.2266 63.8672 77.6465 63.8672 81.8665V179.897C63.8672 182.747 65.0972 185.367 67.0472 186.677L89.1572 199.807C96.0272 203.887 104.587 203.887 111.457 199.807L133.567 186.677C135.527 185.367 136.747 182.747 136.747 179.897V81.8665C136.747 77.6465 134.107 74.2266 130.857 74.2266Z" fill="#C9357C"/>
<path d="M163.235 98.5381V48.9181C163.235 41.7881 159.435 35.1981 153.255 31.6281L110.285 6.81813C104.105 3.24813 96.495 3.24813 90.325 6.81813L47.355 31.6281C41.175 35.1981 37.375 41.7881 37.375 48.9181V98.5381C37.375 105.668 41.175 112.258 47.355 115.828L90.325 140.638C96.505 144.208 104.115 144.208 110.285 140.638L153.255 115.828C159.435 112.258 163.235 105.668 163.235 98.5381Z" fill="url(#paint0_linear_4977_91213)"/>
<path d="M153.026 52.9478V94.5178C153.026 100.488 149.836 106.018 144.666 108.998L108.666 129.778C103.496 132.768 97.1159 132.768 91.9459 129.778L55.9459 108.998C50.7759 106.008 47.5859 100.488 47.5859 94.5178V52.9478C47.5859 46.9778 50.7759 41.4478 55.9459 38.4678L91.9459 17.6878C97.1159 14.6978 103.496 14.6978 108.666 17.6878L144.666 38.4678C149.836 41.4578 153.026 46.9778 153.026 52.9478Z" fill="url(#paint1_linear_4977_91213)"/>
<path d="M147.538 55.1078V92.3478C147.538 97.6978 144.678 102.648 140.048 105.318L107.798 123.938C103.168 126.618 97.4481 126.618 92.8181 123.938L60.5681 105.318C55.9381 102.638 53.0781 97.6978 53.0781 92.3478V55.1078C53.0781 49.7578 55.9381 44.8078 60.5681 42.1378L92.8181 23.5178C97.4481 20.8378 103.168 20.8378 107.798 23.5178L140.048 42.1378C144.678 44.8178 147.538 49.7578 147.538 55.1078Z" fill="#251F3A"/>
<path d="M122.27 89.3272C121.59 89.3272 120.94 89.6272 120.51 90.1572C115.73 96.0272 108.46 99.7672 100.3 99.7672C88.79 99.7672 79.0201 92.2972 75.5801 81.9372C75.0901 80.4572 76.18 78.9272 77.74 78.9272H104.01H125.82H134.33C135.51 78.9272 136.5 78.0272 136.6 76.8472C136.69 75.8172 136.73 74.7772 136.73 73.7272C136.73 53.8272 120.78 37.6472 100.96 37.2872C80.3801 36.9172 63.47 53.8172 63.85 74.3972C64.21 94.2172 80.39 110.167 100.29 110.167C113.42 110.167 124.92 103.227 131.34 92.8172C132.28 91.2972 131.19 89.3272 129.4 89.3272H122.25H122.27ZM100.31 47.6872C111.82 47.6872 121.59 55.1572 125.03 65.5172C125.52 66.9972 124.43 68.5272 122.87 68.5272H77.7501C76.1901 68.5272 75.1001 66.9972 75.5901 65.5172C79.0301 55.1572 88.8001 47.6872 100.31 47.6872Z" fill="white"/>
<path d="M102.793 181.912C101.582 181.892 100.371 181.662 99.1592 181.219C97.9479 180.777 96.8422 180.032 95.8424 178.984C94.8425 177.927 94.0397 176.499 93.434 174.701C92.8283 172.894 92.5255 170.625 92.5255 167.894C92.5255 165.279 92.7707 162.962 93.261 160.943C93.7513 158.915 94.4627 157.208 95.3953 155.824C96.3279 154.43 97.4527 153.372 98.7699 152.651C100.097 151.93 101.592 151.569 103.255 151.569C104.908 151.569 106.379 151.901 107.668 152.565C108.966 153.218 110.023 154.132 110.84 155.305C111.658 156.477 112.186 157.828 112.427 159.357H108.908C108.581 158.03 107.947 156.929 107.004 156.054C106.062 155.18 104.812 154.742 103.255 154.742C100.967 154.742 99.164 155.737 97.8469 157.727C96.5394 159.717 95.8808 162.51 95.8712 166.106H96.1019C96.6403 165.289 97.2797 164.592 98.02 164.015C98.7699 163.428 99.5967 162.977 100.5 162.659C101.404 162.342 102.361 162.183 103.37 162.183C105.062 162.183 106.61 162.606 108.014 163.453C109.417 164.289 110.542 165.447 111.388 166.928C112.234 168.399 112.657 170.086 112.657 171.99C112.657 173.817 112.249 175.489 111.432 177.008C110.614 178.518 109.466 179.72 107.985 180.614C106.514 181.498 104.783 181.931 102.793 181.912ZM102.793 178.739C104.005 178.739 105.091 178.436 106.053 177.83C107.024 177.225 107.788 176.412 108.346 175.393C108.913 174.374 109.196 173.24 109.196 171.99C109.196 170.769 108.922 169.658 108.374 168.659C107.836 167.649 107.091 166.846 106.139 166.25C105.197 165.654 104.12 165.356 102.909 165.356C101.995 165.356 101.145 165.539 100.356 165.904C99.5678 166.26 98.8756 166.75 98.2795 167.375C97.6931 168 97.2316 168.716 96.8951 169.524C96.5586 170.322 96.3904 171.163 96.3904 172.048C96.3904 173.22 96.6644 174.316 97.2124 175.336C97.77 176.355 98.5295 177.177 99.4909 177.802C100.462 178.426 101.563 178.739 102.793 178.739Z" fill="white"/>
<defs>
<linearGradient id="paint0_linear_4977_91213" x1="100.305" y1="143.318" x2="100.305" y2="4.14812" gradientUnits="userSpaceOnUse">
<stop stop-color="#310032"/>
<stop offset="1" stop-color="#FF5A9B"/>
</linearGradient>
<linearGradient id="paint1_linear_4977_91213" x1="100.306" y1="15.4378" x2="100.306" y2="132.028" gradientUnits="userSpaceOnUse">
<stop stop-color="#310032"/>
<stop offset="1" stop-color="#FF5A9B"/>
</linearGradient>
</defs>
</svg>
