<svg width="93" height="95" viewBox="0 0 93 95" fill="none" xmlns="http://www.w3.org/2000/svg">
<path d="M46.4702 94.79C44.3402 94.79 42.2503 94.22 40.4103 93.13L30.2302 87.09L30.1902 87.06C28.8502 86.16 27.9903 84.5 27.9203 82.68L25.8402 81.63L25.8003 81.61C24.0603 80.62 22.9802 78.69 22.9802 76.58V55.62L21.2803 54.64C18.8303 53.22 17.0502 50.96 16.2502 48.3H11.4502C10.0802 48.3 8.8902 47.42 8.4802 46.11L5.53025 36.6C5.24025 35.66 5.41022 34.63 6.00022 33.84C6.02022 33.81 6.04028 33.79 6.06028 33.76C5.10028 33.46 4.33024 32.71 4.02024 31.71L0.810281 21.36C0.520281 20.42 0.690252 19.39 1.28025 18.6C1.86025 17.81 2.80025 17.34 3.78025 17.34H17.0002C17.9602 15.47 19.4503 13.9 21.2803 12.84L40.9802 1.47C42.6502 0.509999 44.5502 0 46.4802 0C48.4102 0 50.3102 0.509999 51.9802 1.47L71.6803 12.84C73.5103 13.9 74.9902 15.47 75.9602 17.34H89.1902C90.1702 17.34 91.1102 17.81 91.6902 18.6C92.2702 19.39 92.4503 20.43 92.1603 21.36L88.9502 31.71C88.6402 32.71 87.8703 33.46 86.9103 33.76C86.9303 33.79 86.9502 33.81 86.9702 33.84C87.5502 34.63 87.7302 35.67 87.4402 36.6L84.4902 46.11C84.0802 47.42 82.8902 48.3 81.5202 48.3H76.7202C75.9202 50.97 74.1502 53.22 71.6902 54.64L69.9902 55.62V76.56C69.9902 78.67 68.9103 80.6 67.1703 81.59L67.1302 81.61L65.0503 82.66C64.9703 84.48 64.1203 86.14 62.7803 87.04L62.7402 87.07L52.5603 93.11C50.7003 94.21 48.6002 94.79 46.4702 94.79Z" fill="white"/>
<path d="M84.4503 34.4297H8.50034C7.65034 34.4297 7.05039 35.2497 7.30039 36.0597L10.2503 45.5697C10.4103 46.0997 10.9003 46.4597 11.4503 46.4597H81.5003C82.0503 46.4597 82.5403 46.0997 82.7003 45.5697L85.6504 36.0597C85.9004 35.2497 85.3003 34.4297 84.4503 34.4297Z" fill="#D64880"/>
<path d="M87.1701 31.1714L90.3801 20.8214C90.6301 20.0114 90.0302 19.1914 89.1802 19.1914H3.76011C2.91011 19.1914 2.31015 20.0114 2.56015 20.8214L5.77012 31.1714C5.93012 31.7014 6.42007 32.0614 6.97007 32.0614H85.9601C86.5201 32.0514 87.0101 31.6914 87.1701 31.1714Z" fill="#D64880"/>
<path d="M64.6204 23.2109H28.3203C26.3903 23.2109 24.8203 24.9409 24.8203 27.0709V76.5709C24.8203 78.0109 25.5503 79.3309 26.7103 79.9909L39.8403 86.6209C43.9203 88.6809 49.0103 88.6809 53.0903 86.6209L66.2203 79.9909C67.3803 79.3309 68.1104 78.0109 68.1104 76.5709V27.0709C68.1203 24.9409 66.5504 23.2109 64.6204 23.2109Z" fill="#D64880"/>
<path d="M60.4805 33.9727H32.4705C30.9805 33.9727 29.7705 35.5427 29.7705 37.4727V82.4127C29.7705 83.7227 30.3305 84.9227 31.2305 85.5227L41.3605 91.5427C44.5105 93.4127 48.4304 93.4127 51.5804 91.5427L61.7205 85.5227C62.6205 84.9227 63.1805 83.7227 63.1805 82.4127V37.4727C63.1805 35.5427 61.9705 33.9727 60.4805 33.9727Z" fill="#FF7B7B"/>
<path d="M75.3203 45.1219V22.3719C75.3203 19.1019 73.5804 16.0819 70.7404 14.4519L51.0404 3.08187C48.2104 1.45187 44.7204 1.45187 41.8904 3.08187L22.1903 14.4519C19.3603 16.0819 17.6104 19.1119 17.6104 22.3719V45.1219C17.6104 48.3919 19.3503 51.4119 22.1903 53.0419L41.8904 64.4119C44.7204 66.0419 48.2104 66.0419 51.0404 64.4119L70.7404 53.0419C73.5804 51.4119 75.3203 48.3819 75.3203 45.1219Z" fill="url(#paint0_linear_678_11718)"/>
<path d="M70.6405 24.2209V43.2709C70.6405 46.0109 69.1805 48.5409 66.8105 49.9109L50.3105 59.4409C47.9405 60.8109 45.0205 60.8109 42.6405 59.4409L26.1405 49.9109C23.7705 48.5409 22.3105 46.0109 22.3105 43.2709V24.2209C22.3105 21.4809 23.7705 18.9509 26.1405 17.5809L42.6405 8.05094C45.0105 6.68094 47.9305 6.68094 50.3105 8.05094L66.8105 17.5809C69.1805 18.9509 70.6405 21.4809 70.6405 24.2209Z" fill="url(#paint1_linear_678_11718)"/>
<path d="M68.1201 25.2111V42.2811C68.1201 44.7311 66.8101 47.0011 64.6901 48.2311L49.9102 56.7611C47.7902 57.9911 45.1702 57.9911 43.0402 56.7611L28.2601 48.2311C26.1401 47.0011 24.8301 44.7411 24.8301 42.2811V25.2111C24.8301 22.7611 26.1401 20.4911 28.2601 19.2611L43.0402 10.7311C45.1602 9.50109 47.7802 9.50109 49.9102 10.7311L64.6901 19.2611C66.8101 20.4911 68.1201 22.7611 68.1201 25.2111Z" fill="#261F3C"/>
<path d="M56.5406 40.8935C56.2306 40.8935 55.9305 41.0335 55.7305 41.2735C53.5405 43.9635 50.2105 45.6835 46.4705 45.6835C41.1905 45.6835 36.7106 42.2635 35.1406 37.5135C34.9106 36.8335 35.4206 36.1335 36.1306 36.1335H48.1706H58.1706H62.0705C62.6105 36.1335 63.0705 35.7235 63.1105 35.1835C63.1505 34.7135 63.1706 34.2335 63.1706 33.7535C63.1706 24.6335 55.8606 17.2135 46.7706 17.0535C37.3406 16.8835 29.5906 24.6335 29.7606 34.0635C29.9206 43.1435 37.3405 50.4635 46.4605 50.4635C52.4805 50.4635 57.7505 47.2835 60.6905 42.5035C61.1205 41.8035 60.6206 40.9035 59.8006 40.9035L56.5406 40.8935ZM46.4705 21.8035C51.7505 21.8035 56.2306 25.2235 57.8006 29.9735C58.0306 30.6535 57.5206 31.3535 56.8106 31.3535H36.1306C35.4106 31.3535 34.9106 30.6535 35.1406 29.9735C36.7206 25.2335 41.2005 21.8035 46.4705 21.8035Z" fill="white"/>
<path d="M46.5299 82.2714C45.4699 82.2714 44.5899 82.1014 43.8699 81.7814C43.1499 81.4514 42.5999 80.9714 42.2299 80.3514C41.8599 79.7314 41.6699 78.9814 41.6699 78.1214H44.7299C44.7299 78.4214 44.7799 78.7014 44.8899 78.9714C44.9999 79.2314 45.1699 79.4414 45.3899 79.6014C45.6199 79.7614 45.8999 79.8314 46.2399 79.8314C46.5899 79.8314 46.8698 79.7514 47.0898 79.5814C47.3098 79.4114 47.4698 79.1914 47.5798 78.9114C47.6798 78.6314 47.7299 78.3114 47.7299 77.9714C47.7299 77.6114 47.6798 77.2914 47.5798 77.0214C47.4798 76.7414 47.3199 76.5314 47.0999 76.3614C46.8799 76.2014 46.6099 76.1214 46.2699 76.1214C45.9599 76.1214 45.7099 76.1814 45.5199 76.2914C45.3299 76.4014 45.1999 76.5314 45.1099 76.6714C45.0199 76.8114 44.9499 76.9314 44.8999 77.0214L42.1599 76.6214L42.6299 69.6914H50.2599V72.5514H45.1998L45.0698 74.5114C45.1098 74.4914 45.2199 74.4214 45.3999 74.3014C45.5899 74.1914 45.8399 74.0814 46.1599 73.9714C46.4799 73.8614 46.8599 73.8114 47.2999 73.8114C48.0799 73.8114 48.7499 73.9714 49.3099 74.2914C49.8699 74.6114 50.2999 75.0814 50.6099 75.7014C50.9199 76.3214 51.0698 77.1014 51.0698 78.0214C51.0698 78.8214 50.8799 79.5514 50.5099 80.2014C50.1399 80.8514 49.6098 81.3614 48.9398 81.7314C48.2698 82.0814 47.4599 82.2714 46.5299 82.2714Z" fill="white"/>
<defs>
<linearGradient id="paint0_linear_678_11718" x1="46.4736" y1="65.6411" x2="46.4736" y2="1.84828" gradientUnits="userSpaceOnUse">
<stop stop-color="#8756FC"/>
<stop offset="0.9944" stop-color="#FF7B7B"/>
</linearGradient>
<linearGradient id="paint1_linear_678_11718" x1="46.4739" y1="7.02314" x2="46.4739" y2="60.4643" gradientUnits="userSpaceOnUse">
<stop stop-color="#8756FC"/>
<stop offset="0.9944" stop-color="#FF7B7B"/>
</linearGradient>
</defs>
</svg>
