<svg width="114" height="117" viewBox="0 0 114 117" fill="none" xmlns="http://www.w3.org/2000/svg">
<path d="M56.5343 116.954C53.9042 116.954 51.3195 116.247 49.0627 114.901L36.5008 107.447L36.4499 107.413C34.7984 106.304 33.7407 104.251 33.6446 102.005L31.0711 100.71L31.0202 100.682C28.8709 99.4546 27.5361 97.0791 27.5361 94.4774V68.6352L25.4377 67.4248C22.4118 65.6771 20.2229 62.8888 19.2331 59.6026H13.3113C11.6202 59.6026 10.1496 58.5167 9.65192 56.9047L6.00947 45.1686C5.64749 44.0091 5.8624 42.7365 6.58636 41.7581C6.60898 41.7241 6.63161 41.6958 6.65989 41.6619C5.47779 41.2943 4.52196 40.3723 4.13735 39.1337L0.172506 26.3681C-0.189476 25.2087 0.0254275 23.9361 0.749392 22.9576C1.4677 21.9791 2.62153 21.3966 3.83757 21.3966H20.1664C21.3541 19.0889 23.1867 17.1489 25.4434 15.848L49.7471 1.81556C51.8059 0.627808 54.1531 0 56.5343 0C58.9154 0 61.2626 0.627808 63.3214 1.81556L87.6252 15.848C89.8819 17.1489 91.7144 19.0889 92.9022 21.3966H109.231C110.447 21.3966 111.601 21.9791 112.319 22.9576C113.037 23.9361 113.252 25.2087 112.896 26.3681L108.931 39.1337C108.547 40.3667 107.596 41.2943 106.409 41.6619C106.431 41.6958 106.46 41.7241 106.482 41.7581C107.2 42.7365 107.415 44.0091 107.059 45.1686L103.417 56.9047C102.913 58.5167 101.443 59.6026 99.7572 59.6026H93.8354C92.8513 62.8888 90.6568 65.6771 87.6308 67.4248L85.5324 68.6352V94.4774C85.5324 97.0791 84.1976 99.4603 82.0484 100.682L81.9975 100.71L79.424 102.005C79.3335 104.251 78.2758 106.304 76.6186 107.413L76.5677 107.447L64.0058 114.901C61.7434 116.242 59.1643 116.954 56.5343 116.954Z" fill="white"/>
<path d="M103.394 42.4766H9.67444C8.62809 42.4766 7.8815 43.489 8.19258 44.4901L11.835 56.2262C12.0386 56.8767 12.6382 57.3178 13.3169 57.3178H99.7458C100.425 57.3178 101.024 56.8767 101.228 56.2262L104.87 44.4901C105.181 43.489 104.435 42.4766 103.388 42.4766H103.394Z" fill="#341066"/>
<path d="M106.748 38.4587L110.713 25.6932C111.024 24.6921 110.277 23.6797 109.231 23.6797H3.83167C2.78532 23.6797 2.03873 24.6921 2.34981 25.6932L6.31465 38.4587C6.51827 39.1092 7.1178 39.5503 7.79651 39.5503H105.266C105.945 39.5503 106.544 39.1092 106.748 38.4587Z" fill="#341066"/>
<path d="M78.9257 28.6328H34.1417C31.7549 28.6328 29.8206 30.7651 29.8206 33.3895V94.4683C29.8206 96.2443 30.7199 97.8732 32.1508 98.6933L48.3552 106.872C53.3947 109.417 59.6615 109.417 64.7009 106.872L80.9053 98.6933C82.3363 97.8732 83.2356 96.2443 83.2356 94.4683V33.3895C83.2356 30.7595 81.3012 28.6328 78.9144 28.6328H78.9257Z" fill="#341066"/>
<path d="M73.813 41.9141H39.255C37.4111 41.9141 35.9236 43.8484 35.9236 46.2352V101.681C35.9236 103.293 36.6193 104.775 37.7222 105.515L50.2276 112.942C54.1132 115.249 58.9547 115.249 62.8404 112.942L75.3457 105.515C76.4543 104.775 77.1443 103.293 77.1443 101.681V46.2352C77.1443 43.8484 75.6512 41.9141 73.813 41.9141Z" fill="#7C39E5"/>
<path d="M92.1275 55.6644V27.5995C92.1275 23.5668 89.9782 19.8395 86.4828 17.8203L62.1791 3.78782C58.6837 1.76864 54.3795 1.76864 50.8898 3.78782L26.5861 17.8203C23.0907 19.8395 20.9414 23.5668 20.9414 27.5995V55.6644C20.9414 59.6971 23.0907 63.4244 26.5861 65.4436L50.8898 79.4761C54.3852 81.4952 58.6894 81.4952 62.1791 79.4761L86.4828 65.4436C89.9782 63.4244 92.1275 59.6971 92.1275 55.6644Z" fill="url(#paint0_linear_2181_31175)"/>
<path d="M86.3531 29.8832V53.3951C86.3531 56.7717 84.5489 59.8994 81.6247 61.5849L61.2632 73.338C58.3391 75.0292 54.7306 75.0292 51.8064 73.338L31.4449 61.5849C28.5208 59.8938 26.7166 56.7717 26.7166 53.3951V29.8832C26.7166 26.5066 28.5208 23.3788 31.4449 21.6933L51.8064 9.94023C54.7306 8.24909 58.3391 8.24909 61.2632 9.94023L81.6247 21.6933C84.5489 23.3845 86.3531 26.5066 86.3531 29.8832Z" fill="url(#paint1_linear_2181_31175)"/>
<path d="M83.2469 31.0978V52.1607C83.2469 55.1866 81.6293 57.9863 79.0106 59.4965L60.7701 70.0279C58.1513 71.5437 54.9161 71.5437 52.2974 70.0279L34.0569 59.4965C31.4382 57.9807 29.8206 55.1866 29.8206 52.1607V31.0978C29.8206 28.0719 31.4382 25.2722 34.0569 23.762L52.2974 13.2306C54.9161 11.7148 58.1513 11.7148 60.7701 13.2306L79.0106 23.762C81.6293 25.2778 83.2469 28.0719 83.2469 31.0978Z" fill="#251F3A"/>
<path d="M68.9544 50.4527C68.5698 50.4527 68.2022 50.6224 67.959 50.9221C65.2554 54.2422 61.1435 56.3575 56.5283 56.3575C50.0182 56.3575 44.4923 52.1325 42.5467 46.2729C42.2695 45.4358 42.8861 44.5705 43.7684 44.5705H58.6266H70.9623H75.7755C76.4429 44.5705 77.0029 44.0614 77.0594 43.394C77.1103 42.8115 77.133 42.2232 77.133 41.6294C77.133 30.374 68.1117 21.2226 56.9016 21.019C45.2616 20.8097 35.6973 30.3683 35.9122 42.0083C36.1159 53.2184 45.2672 62.2397 56.5226 62.2397C63.9489 62.2397 70.4533 58.3145 74.0844 52.4266C74.6161 51.5669 73.9996 50.4527 72.9871 50.4527H68.9431H68.9544ZM56.5339 26.9012C63.0439 26.9012 68.5698 31.1262 70.5155 36.9858C70.7926 37.8229 70.1761 38.6883 69.2938 38.6883H43.774C42.8917 38.6883 42.2752 37.8229 42.5524 36.9858C44.498 31.1262 50.0239 26.9012 56.5339 26.9012Z" fill="white"/>
<defs>
<linearGradient id="paint0_linear_2181_31175" x1="56.5345" y1="80.9919" x2="56.5345" y2="2.27768" gradientUnits="userSpaceOnUse">
<stop stop-color="#200055"/>
<stop offset="1" stop-color="#8D54FF"/>
</linearGradient>
<linearGradient id="paint1_linear_2181_31175" x1="56.5348" y1="8.66763" x2="56.5348" y2="74.6106" gradientUnits="userSpaceOnUse">
<stop stop-color="#200055"/>
<stop offset="1" stop-color="#8D54FF"/>
</linearGradient>
</defs>
</svg>
