<svg width="201" height="207" viewBox="0 0 201 207" fill="none" xmlns="http://www.w3.org/2000/svg">
<path d="M100.49 206.979C95.8402 206.979 91.2702 205.729 87.2802 203.349L65.0702 190.169L64.9802 190.109C62.0602 188.149 60.1902 184.519 60.0202 180.549L55.4702 178.259L55.3802 178.209C51.5802 176.039 49.2202 171.839 49.2202 167.239V121.549L45.5102 119.409C43.6802 118.349 42.0102 117.069 40.5202 115.569H34.2202C31.4402 115.569 28.9602 113.909 28.0502 111.439L20.8802 91.8488C20.2702 90.1788 20.4402 88.3888 21.3302 86.8688C19.6702 86.1988 18.3402 84.8988 17.7302 83.2288L11.1302 65.1988C10.5202 63.5288 10.6902 61.7388 11.5802 60.2188C9.92017 59.5488 8.5902 58.2488 7.9802 56.5788L0.810183 36.9888C0.140183 35.1688 0.400184 33.1988 1.53018 31.5888C2.74018 29.8588 4.7802 28.8288 6.9802 28.8288H44.5602C44.8902 28.6188 45.2002 28.4188 45.5202 28.2388L88.4902 3.42877C92.1302 1.32877 96.2802 0.21875 100.49 0.21875C104.7 0.21875 108.85 1.32877 112.49 3.42877L155.46 28.2388C155.78 28.4188 156.09 28.6188 156.42 28.8288H194C196.21 28.8288 198.24 29.8588 199.45 31.5888C200.57 33.1988 200.83 35.1688 200.17 36.9888L193 56.5688C192.39 58.2388 191.06 59.5388 189.4 60.2088C190.29 61.7288 190.46 63.5188 189.85 65.1888L183.25 83.2288C182.64 84.8988 181.31 86.1988 179.65 86.8688C180.54 88.3888 180.71 90.1788 180.1 91.8488L172.93 111.429C172.02 113.899 169.55 115.569 166.76 115.569H160.46C158.97 117.069 157.29 118.359 155.47 119.409L151.76 121.549V167.239C151.76 171.839 149.4 176.049 145.6 178.209L145.51 178.259L140.96 180.549C140.8 184.519 138.93 188.149 136 190.109L135.91 190.169L113.7 203.349C109.7 205.719 105.14 206.979 100.49 206.979Z" fill="white"/>
<path d="M183.681 61.0547H17.2914C15.6114 61.0547 14.4114 62.4347 14.9114 63.7947L21.5114 81.8347C21.8314 82.7147 22.8014 83.3247 23.8914 83.3247H177.071C178.161 83.3247 179.131 82.7247 179.451 81.8347L186.051 63.7947C186.551 62.4347 185.351 61.0547 183.671 61.0547H183.681Z" fill="#6D151D"/>
<path d="M189.221 55.1716L196.391 35.5916C196.891 34.2316 195.691 32.8516 194.011 32.8516H6.97109C5.29109 32.8516 4.09108 34.2316 4.59108 35.5916L11.7611 55.1716C12.0811 56.0516 13.0511 56.6616 14.1411 56.6616H186.841C187.931 56.6616 188.901 56.0616 189.221 55.1716Z" fill="#6D151D"/>
<path d="M24.6692 90.4509L31.8392 110.031C32.1592 110.911 33.1292 111.521 34.2192 111.521H166.749C167.839 111.521 168.809 110.921 169.129 110.031L176.299 90.4509C176.799 89.0909 175.599 87.7109 173.919 87.7109H27.0492C25.3692 87.7109 24.1692 89.0909 24.6692 90.4509Z" fill="#6D151D"/>
<path d="M140.078 50.8203H60.8978C56.6778 50.8203 53.2578 54.5903 53.2578 59.2303V167.22C53.2578 170.36 54.8478 173.24 57.3778 174.69L86.0278 189.15C94.9378 193.65 106.018 193.65 114.928 189.15L143.578 174.69C146.108 173.24 147.698 170.36 147.698 167.22V59.2303C147.698 54.5803 144.278 50.8203 140.058 50.8203H140.078Z" fill="#6D151D"/>
<path d="M131.037 74.3125H69.9369C66.6769 74.3125 64.0469 77.7325 64.0469 81.9525V179.982C64.0469 182.832 65.2769 185.453 67.2269 186.763L89.3369 199.893C96.2069 203.973 104.767 203.973 111.637 199.893L133.747 186.763C135.707 185.453 136.927 182.832 136.927 179.982V81.9525C136.927 77.7325 134.287 74.3125 131.037 74.3125Z" fill="#D83232"/>
<path d="M163.422 98.6162V48.9962C163.422 41.8662 159.623 35.2762 153.443 31.7062L110.472 6.89625C104.292 3.32625 96.6825 3.32625 90.5125 6.89625L47.5425 31.7062C41.3625 35.2762 37.5625 41.8662 37.5625 48.9962V98.6162C37.5625 105.746 41.3625 112.336 47.5425 115.906L90.5125 140.716C96.6925 144.286 104.302 144.286 110.472 140.716L153.443 115.906C159.623 112.336 163.422 105.746 163.422 98.6162Z" fill="url(#paint0_linear_4977_91225)"/>
<path d="M153.213 53.0181V94.5881C153.213 100.558 150.023 106.088 144.853 109.068L108.853 129.848C103.683 132.838 97.3035 132.838 92.1335 129.848L56.1335 109.068C50.9635 106.078 47.7734 100.558 47.7734 94.5881V53.0181C47.7734 47.0481 50.9635 41.5181 56.1335 38.5381L92.1335 17.7581C97.3035 14.7681 103.683 14.7681 108.853 17.7581L144.853 38.5381C150.023 41.5281 153.213 47.0481 153.213 53.0181Z" fill="url(#paint1_linear_4977_91225)"/>
<path d="M147.71 55.186V92.426C147.71 97.776 144.85 102.726 140.22 105.396L107.97 124.016C103.34 126.696 97.62 126.696 92.99 124.016L60.74 105.396C56.11 102.716 53.25 97.776 53.25 92.426V55.186C53.25 49.836 56.11 44.8859 60.74 42.2159L92.99 23.5959C97.62 20.9159 103.34 20.9159 107.97 23.5959L140.22 42.2159C144.85 44.8959 147.71 49.836 147.71 55.186Z" fill="#251F3A"/>
<path d="M122.45 89.4053C121.77 89.4053 121.12 89.7053 120.69 90.2353C115.91 96.1053 108.64 99.8453 100.48 99.8453C88.9697 99.8453 79.1997 92.3754 75.7597 82.0154C75.2697 80.5354 76.3597 79.0054 77.9197 79.0054H104.19H126H134.51C135.69 79.0054 136.68 78.1053 136.78 76.9253C136.87 75.8953 136.91 74.8553 136.91 73.8053C136.91 53.9053 120.96 37.7253 101.14 37.3653C80.5597 36.9953 63.6497 53.8953 64.0297 74.4753C64.3897 94.2953 80.5697 110.245 100.47 110.245C113.6 110.245 125.1 103.305 131.52 92.8954C132.46 91.3754 131.37 89.4053 129.58 89.4053H122.43H122.45ZM100.49 47.7554C112 47.7554 121.77 55.2254 125.21 65.5854C125.7 67.0654 124.61 68.5953 123.05 68.5953H77.9297C76.3697 68.5953 75.2797 67.0654 75.7697 65.5854C79.2097 55.2254 88.9797 47.7554 100.49 47.7554Z" fill="white"/>
<path d="M94.0896 181.578L107.299 155.447V155.216H92.0707V152.044H110.991V155.389L97.8391 181.578H94.0896Z" fill="white"/>
<defs>
<linearGradient id="paint0_linear_4977_91225" x1="100.482" y1="143.386" x2="100.482" y2="4.22625" gradientUnits="userSpaceOnUse">
<stop stop-color="#36002B"/>
<stop offset="1" stop-color="#FF0037"/>
</linearGradient>
<linearGradient id="paint1_linear_4977_91225" x1="100.493" y1="15.5081" x2="100.493" y2="132.098" gradientUnits="userSpaceOnUse">
<stop stop-color="#36002B"/>
<stop offset="1" stop-color="#FF0037"/>
</linearGradient>
</defs>
</svg>
