<svg width="135" height="207" viewBox="0 0 135 207" fill="none" xmlns="http://www.w3.org/2000/svg">
<path d="M121.909 28.4999L121.909 28.4999L78.9389 3.68997C75.3751 1.63389 71.3112 0.546875 67.1888 0.546875C63.0663 0.546875 59.0025 1.63389 55.4386 3.68997L12.4688 28.4999L12.4686 28.4999C5.22346 32.6806 0.71875 40.4855 0.71875 48.8469V98.4669C0.71875 106.838 5.22336 114.633 12.4686 118.814L12.4688 118.814L26.9589 127.184L27.2088 127.328V127.617V179.827C27.2088 183.877 29.0464 187.588 31.9574 189.542L32.035 189.593L54.2336 202.767L121.909 28.4999ZM121.909 28.4999C129.154 32.6807 133.659 40.4756 133.659 48.8469V98.4669C133.659 106.828 129.154 114.633 121.909 118.814L121.909 118.814L107.419 127.184L107.169 127.328V127.617V179.827C107.169 183.876 105.322 187.588 102.42 189.542C102.42 189.542 102.42 189.542 102.42 189.542L102.343 189.593L80.1436 202.767L80.1427 202.767M121.909 28.4999L80.1427 202.767M80.1427 202.767C76.2307 205.101 71.7493 206.327 67.1888 206.327C62.6293 206.327 58.1574 205.091 54.2339 202.767L80.1427 202.767Z" fill="white" stroke="black"/>
<path d="M36.64 74.6562H97.74C100.601 74.6562 103.13 77.7239 103.13 81.7962V179.826C103.13 182.546 101.966 184.985 100.183 186.183L78.0847 199.306L78.34 199.736L78.0847 199.306C71.3721 203.293 63.0079 203.293 56.2953 199.306L56.04 199.736L56.2953 199.306L34.1975 186.184C32.4225 184.984 31.25 182.544 31.25 179.826V81.7962C31.25 77.7233 33.7696 74.6562 36.64 74.6562Z" fill="#357693" stroke="black"/>
<path d="M76.9255 7.18077L76.9256 7.18082L119.896 31.9908C125.921 35.4714 129.626 41.8963 129.626 48.8478V98.4678C129.626 105.419 125.921 111.844 119.896 115.325L76.9256 140.135L76.9252 140.135C70.9102 143.615 63.4911 143.616 57.4657 140.135L57.2156 140.568L57.4656 140.135L14.4957 115.325C8.47042 111.844 4.76562 105.419 4.76562 98.4678V48.8478C4.76562 41.8963 8.47042 35.4714 14.4957 31.9908L57.4656 7.18082L57.466 7.18059C63.4809 3.70029 70.9001 3.70009 76.9255 7.18077Z" fill="url(#paint0_linear_4977_91181)" stroke="black"/>
<path d="M111.299 108.487L111.299 108.486C116.314 105.596 119.409 100.231 119.409 94.4397V52.8697C119.409 47.0787 116.314 41.7236 111.299 38.8227V108.487ZM111.299 108.487L75.2988 129.267L75.2984 129.267C70.2833 132.167 64.0943 132.167 59.0791 129.267L59.0788 129.267L23.0791 108.487C18.0633 105.586 14.9688 100.231 14.9688 94.4397V52.8697C14.9688 47.0781 18.0637 41.7134 23.0785 38.8229L23.0788 38.8227L59.0788 18.0427L59.0791 18.0425C64.0943 15.1421 70.2833 15.1421 75.2984 18.0425L75.2988 18.0427L111.298 38.8225L111.299 108.487Z" fill="url(#paint1_linear_4977_91181)" stroke="black"/>
<path d="M106.681 104.814L106.681 104.814C111.156 102.234 113.921 97.4489 113.921 92.2775V55.0375C113.921 49.8669 111.157 45.0916 106.681 42.5005V104.814ZM106.681 104.814L74.4309 123.434L74.4304 123.435C69.9554 126.025 64.4265 126.025 59.9514 123.435L59.9509 123.434L27.7014 104.815C23.2252 102.224 20.4609 97.4483 20.4609 92.2775V55.0375C20.4609 49.8662 23.2256 45.0813 27.7007 42.5006L27.7009 42.5005L59.9509 23.8805L59.9514 23.8802C64.4265 21.2899 69.9554 21.2899 74.4304 23.8802L74.4309 23.8805L106.68 42.5002L106.681 104.814Z" fill="#251F3A" stroke="black"/>
<path d="M87.7733 90.4019L87.7728 90.4026C82.9018 96.3843 75.4917 100.197 67.175 100.197C55.4433 100.197 45.4864 92.5828 41.9805 82.0245L41.9804 82.0241C41.3848 80.2251 42.7094 78.3569 44.615 78.3569H70.8851H92.6951H101.205C102.128 78.3569 102.899 77.6535 102.977 76.7347L102.977 76.7334C103.066 75.7196 103.105 74.6943 103.105 73.6569C103.105 54.03 87.3739 38.0719 67.8261 37.7168L87.7733 90.4019ZM87.7733 90.4019C88.1056 89.9924 88.6112 89.7569 89.1451 89.7569H96.2751C97.6709 89.7569 98.5251 91.2949 97.7898 92.4839L97.7894 92.4844C91.4566 102.753 80.1143 109.597 67.165 109.597C47.5381 109.597 31.58 93.8657 31.2249 74.3178L31.2249 74.3177M87.7733 90.4019L31.2249 74.3177M31.2249 74.3177C30.8502 54.0213 47.529 37.352 67.826 37.7168L31.2249 74.3177ZM92.3797 65.2897L92.3796 65.2893C88.8737 54.731 78.9169 47.1169 67.1851 47.1169C55.4533 47.1169 45.4964 54.731 41.9905 65.2893L41.9904 65.2897C41.3947 67.0887 42.7194 68.9569 44.6251 68.9569H89.7451C91.6507 68.9569 92.9753 67.0887 92.3797 65.2897Z" fill="white" stroke="black"/>
<path d="M69.8492 181.841C67.9456 181.841 66.2487 181.514 64.7586 180.861C63.278 180.207 62.1003 179.298 61.2254 178.135C60.3601 176.962 59.889 175.602 59.8121 174.054H63.4462C63.5231 175.006 63.85 175.828 64.4269 176.52C65.0037 177.202 65.7584 177.731 66.691 178.106C67.6236 178.481 68.6571 178.669 69.7915 178.669C71.0606 178.669 72.1855 178.448 73.1661 178.005C74.1467 177.563 74.9159 176.948 75.4735 176.159C76.0311 175.371 76.3099 174.458 76.3099 173.419C76.3099 172.333 76.0407 171.376 75.5023 170.55C74.9639 169.713 74.1756 169.059 73.1373 168.588C72.0989 168.117 70.8299 167.882 69.3301 167.882H66.965V164.709H69.3301C70.503 164.709 71.5317 164.497 72.4162 164.074C73.3103 163.651 74.0073 163.055 74.5073 162.286C75.0168 161.517 75.2716 160.613 75.2716 159.575C75.2716 158.575 75.0505 157.705 74.6082 156.965C74.166 156.224 73.5411 155.648 72.7335 155.234C71.9355 154.821 70.9933 154.614 69.9069 154.614C68.8878 154.614 67.9264 154.802 67.0227 155.177C66.1286 155.542 65.3979 156.075 64.8307 156.777C64.2634 157.47 63.9558 158.306 63.9077 159.287H60.4466C60.5043 157.739 60.9706 156.383 61.8455 155.22C62.7204 154.047 63.8644 153.134 65.2777 152.48C66.7006 151.826 68.2629 151.499 69.9646 151.499C71.7913 151.499 73.3584 151.869 74.6659 152.61C75.9734 153.34 76.9781 154.306 77.6799 155.508C78.3818 156.71 78.7327 158.008 78.7327 159.402C78.7327 161.065 78.2952 162.483 77.4203 163.656C76.5551 164.829 75.3773 165.642 73.8872 166.093V166.324C75.7523 166.632 77.2088 167.425 78.2568 168.704C79.3047 169.973 79.8287 171.545 79.8287 173.419C79.8287 175.025 79.3912 176.467 78.5164 177.746C77.6511 179.015 76.4685 180.015 74.9687 180.745C73.4689 181.476 71.7624 181.841 69.8492 181.841Z" fill="white"/>
<defs>
<linearGradient id="paint0_linear_4977_91181" x1="67.1856" y1="143.248" x2="67.1856" y2="4.07781" gradientUnits="userSpaceOnUse">
<stop stop-color="#260877"/>
<stop offset="1" stop-color="#00B5BA"/>
</linearGradient>
<linearGradient id="paint1_linear_4977_91181" x1="67.1888" y1="15.3697" x2="67.1888" y2="131.96" gradientUnits="userSpaceOnUse">
<stop stop-color="#260877"/>
<stop offset="1" stop-color="#00B5BA"/>
</linearGradient>
</defs>
</svg>
