<svg width="76" height="117" viewBox="0 0 76 117" fill="none" xmlns="http://www.w3.org/2000/svg">
<path d="M68.9689 15.848L44.6652 1.81557C42.6065 0.627812 40.2592 0 37.8781 0C35.4969 0 33.1497 0.627812 31.0909 1.81557L6.78717 15.848C2.60175 18.2631 0 22.7709 0 27.6011V55.6661C0 60.5019 2.60175 65.0041 6.78717 67.4192L14.9827 72.1532V101.683C14.9827 104.053 16.0573 106.247 17.7937 107.413L17.8446 107.447L30.4065 114.901C32.6689 116.242 35.248 116.954 37.8781 116.954C40.5081 116.954 43.0929 116.247 45.3496 114.901L57.9115 107.447L57.9624 107.413C59.6932 106.247 60.7734 104.053 60.7734 101.683V72.1532L68.9689 67.4192C73.1544 65.0041 75.7561 60.4963 75.7561 55.6661V27.6011C75.7561 22.7653 73.1544 18.2631 68.9689 15.848Z" fill="white"/>
<path d="M55.1572 41.9141H20.5992C18.7554 41.9141 17.2678 43.8484 17.2678 46.2352V101.681C17.2678 103.293 17.9635 104.775 19.0664 105.515L31.5718 112.942C35.4574 115.249 40.299 115.249 44.1846 112.942L56.69 105.515C57.7985 104.775 58.4886 103.293 58.4886 101.681V46.2352C58.4886 43.8484 56.9954 41.9141 55.1572 41.9141Z" fill="#357693"/>
<path d="M73.4771 55.6644V27.5995C73.4771 23.5668 71.3278 19.8395 67.8324 17.8203L43.5287 3.78782C40.0333 1.76864 35.7291 1.76864 32.2394 3.78782L7.93567 17.8203C4.44027 19.8395 2.29102 23.5668 2.29102 27.5995V55.6644C2.29102 59.6971 4.44027 63.4244 7.93567 65.4436L32.2394 79.4761C35.7348 81.4952 40.039 81.4952 43.5287 79.4761L67.8324 65.4436C71.3278 63.4244 73.4771 59.6971 73.4771 55.6644Z" fill="url(#paint0_linear_2181_31187)"/>
<path d="M67.6966 29.8754V53.3873C67.6966 56.7639 65.8924 59.8916 62.9682 61.5771L42.6067 73.3302C39.6826 75.0213 36.0741 75.0213 33.15 73.3302L12.7885 61.5771C9.86434 59.886 8.06006 56.7639 8.06006 53.3873V29.8754C8.06006 26.4988 9.86434 23.371 12.7885 21.6855L33.15 9.93241C36.0741 8.24128 39.6826 8.24128 42.6067 9.93241L62.9682 21.6855C65.8924 23.3767 67.6966 26.4988 67.6966 29.8754Z" fill="url(#paint1_linear_2181_31187)"/>
<path d="M64.5913 31.0978V52.1607C64.5913 55.1866 62.9737 57.9863 60.355 59.4965L42.1145 70.0279C39.4958 71.5437 36.2606 71.5437 33.6419 70.0279L15.4014 59.4965C12.7826 57.9807 11.165 55.1866 11.165 52.1607V31.0978C11.165 28.0719 12.7826 25.2722 15.4014 23.762L33.6419 13.2306C36.2606 11.7148 39.4958 11.7148 42.1145 13.2306L60.355 23.762C62.9737 25.2778 64.5913 28.0719 64.5913 31.0978Z" fill="#251F3A"/>
<path d="M50.2987 50.4527C49.9141 50.4527 49.5464 50.6224 49.3032 50.9221C46.5997 54.2422 42.4878 56.3575 37.8725 56.3575C31.3625 56.3575 25.8366 52.1325 23.891 46.2729C23.6138 45.4358 24.2303 44.5705 25.1126 44.5705H39.9709H52.3066H57.1198C57.7872 44.5705 58.3471 44.0614 58.4037 43.394C58.4546 42.8115 58.4772 42.2232 58.4772 41.6294C58.4772 30.374 49.456 21.2226 38.2458 21.019C26.6058 20.8097 17.0416 30.3683 17.2565 42.0083C17.4601 53.2185 26.6115 62.2397 37.8668 62.2397C45.2931 62.2397 51.7975 58.3145 55.4286 52.4266C55.9603 51.5669 55.3438 50.4527 54.3314 50.4527H50.2874H50.2987ZM37.8782 26.9012C44.3882 26.9012 49.9141 31.1262 51.8597 36.9858C52.1369 37.8229 51.5204 38.6883 50.638 38.6883H25.1183C24.236 38.6883 23.6194 37.8229 23.8966 36.9858C25.8422 31.1262 31.3681 26.9012 37.8782 26.9012Z" fill="white"/>
<defs>
<linearGradient id="paint0_linear_2181_31187" x1="37.8784" y1="80.9919" x2="37.8784" y2="2.27768" gradientUnits="userSpaceOnUse">
<stop stop-color="#260877"/>
<stop offset="1" stop-color="#00B5BA"/>
</linearGradient>
<linearGradient id="paint1_linear_2181_31187" x1="37.8783" y1="8.66548" x2="37.8783" y2="74.6085" gradientUnits="userSpaceOnUse">
<stop stop-color="#260877"/>
<stop offset="1" stop-color="#00B5BA"/>
</linearGradient>
</defs>
</svg>
