<svg width="201" height="207" viewBox="0 0 201 207" fill="none" xmlns="http://www.w3.org/2000/svg">
<path d="M100.209 206.979C95.5589 206.979 90.9889 205.729 86.9989 203.349L64.7889 190.169L64.6989 190.109C61.7789 188.149 59.9089 184.519 59.7389 180.549L55.1889 178.259L55.0989 178.209C51.2989 176.039 48.9389 171.839 48.9389 167.239V121.549L45.2289 119.409C43.3989 118.349 41.7289 117.069 40.2389 115.569H33.9389C31.1589 115.569 28.6789 113.909 27.7689 111.439L20.5989 91.8488C19.9889 90.1788 20.1589 88.3888 21.0489 86.8688C19.3889 86.1988 18.0589 84.8988 17.4489 83.2288L10.8489 65.1988C10.2389 63.5288 10.4089 61.7388 11.2989 60.2188C9.6389 59.5488 8.30892 58.2488 7.69893 56.5788L0.528942 36.9888C-0.141058 35.1688 0.118913 33.1988 1.24891 31.5888C2.45891 29.8588 4.49893 28.8288 6.69893 28.8288H44.2789C44.6089 28.6188 44.9189 28.4188 45.2389 28.2388L88.2089 3.42877C91.8489 1.32877 95.9989 0.21875 100.209 0.21875C104.419 0.21875 108.569 1.32877 112.209 3.42877L155.179 28.2388C155.499 28.4188 155.809 28.6188 156.139 28.8288H193.719C195.929 28.8288 197.959 29.8588 199.169 31.5888C200.289 33.1988 200.549 35.1688 199.889 36.9888L192.719 56.5688C192.109 58.2388 190.779 59.5388 189.119 60.2088C190.009 61.7288 190.179 63.5188 189.569 65.1888L182.969 83.2288C182.359 84.8988 181.029 86.1988 179.369 86.8688C180.259 88.3888 180.429 90.1788 179.819 91.8488L172.649 111.429C171.739 113.899 169.269 115.569 166.479 115.569H160.179C158.689 117.069 157.009 118.359 155.189 119.409L151.479 121.549V167.239C151.479 171.839 149.119 176.049 145.319 178.209L145.229 178.259L140.679 180.549C140.519 184.519 138.649 188.149 135.719 190.109L135.629 190.169L113.419 203.349C109.419 205.719 104.859 206.979 100.209 206.979Z" fill="white"/>
<path d="M183.4 61.0547H17.0101C15.3301 61.0547 14.1301 62.4347 14.6301 63.7947L21.2301 81.8347C21.5501 82.7147 22.5201 83.3247 23.6101 83.3247H176.79C177.88 83.3247 178.85 82.7247 179.17 81.8347L185.77 63.7947C186.27 62.4347 185.07 61.0547 183.39 61.0547H183.4Z" fill="#8E4D00"/>
<path d="M188.94 55.1716L196.11 35.5916C196.61 34.2316 195.41 32.8516 193.73 32.8516H6.68984C5.00984 32.8516 3.80983 34.2316 4.30983 35.5916L11.4798 55.1716C11.7998 56.0516 12.7698 56.6616 13.8598 56.6616H186.56C187.65 56.6616 188.62 56.0616 188.94 55.1716Z" fill="#8E4D00"/>
<path d="M24.388 90.4509L31.5579 110.031C31.8779 110.911 32.8479 111.521 33.9379 111.521H166.468C167.558 111.521 168.528 110.921 168.848 110.031L176.018 90.4509C176.518 89.0909 175.318 87.7109 173.638 87.7109H26.768C25.088 87.7109 23.888 89.0909 24.388 90.4509Z" fill="#8E4D00"/>
<path d="M139.797 50.8203H60.6166C56.3966 50.8203 52.9766 54.5903 52.9766 59.2303V167.22C52.9766 170.36 54.5666 173.24 57.0966 174.69L85.7466 189.15C94.6566 193.65 105.737 193.65 114.647 189.15L143.297 174.69C145.827 173.24 147.417 170.36 147.417 167.22V59.2303C147.417 54.5803 143.997 50.8203 139.777 50.8203H139.797Z" fill="#8E4D00"/>
<path d="M130.756 74.3125H69.6556C66.3956 74.3125 63.7656 77.7325 63.7656 81.9525V179.982C63.7656 182.832 64.9956 185.453 66.9456 186.763L89.0556 199.893C95.9256 203.973 104.486 203.973 111.356 199.893L133.466 186.763C135.426 185.453 136.646 182.832 136.646 179.982V81.9525C136.646 77.7325 134.006 74.3125 130.756 74.3125Z" fill="#D69034"/>
<path d="M163.149 98.6162V48.9962C163.149 41.8662 159.349 35.2762 153.169 31.7062L110.199 6.89625C104.019 3.32625 96.4091 3.32625 90.2391 6.89625L47.2691 31.7062C41.0891 35.2762 37.2891 41.8662 37.2891 48.9962V98.6162C37.2891 105.746 41.0891 112.336 47.2691 115.906L90.2391 140.716C96.4191 144.286 104.029 144.286 110.199 140.716L153.169 115.906C159.349 112.336 163.149 105.746 163.149 98.6162Z" fill="url(#paint0_linear_4977_91251)"/>
<path d="M152.932 53.0181V94.5881C152.932 100.558 149.742 106.088 144.572 109.068L108.572 129.848C103.402 132.838 97.0222 132.838 91.8522 129.848L55.8522 109.068C50.6822 106.078 47.4922 100.558 47.4922 94.5881V53.0181C47.4922 47.0481 50.6822 41.5181 55.8522 38.5381L91.8522 17.7581C97.0222 14.7681 103.402 14.7681 108.572 17.7581L144.572 38.5381C149.742 41.5281 152.932 47.0481 152.932 53.0181Z" fill="url(#paint1_linear_4977_91251)"/>
<path d="M147.437 55.186V92.426C147.437 97.776 144.577 102.726 139.947 105.396L107.697 124.016C103.067 126.696 97.3466 126.696 92.7166 124.016L60.4666 105.396C55.8366 102.716 52.9766 97.776 52.9766 92.426V55.186C52.9766 49.836 55.8366 44.8859 60.4666 42.2159L92.7166 23.5959C97.3466 20.9159 103.067 20.9159 107.697 23.5959L139.947 42.2159C144.577 44.8959 147.437 49.836 147.437 55.186Z" fill="#251F3A"/>
<path d="M122.168 89.4053C121.488 89.4053 120.838 89.7053 120.408 90.2353C115.628 96.1053 108.358 99.8453 100.198 99.8453C88.6885 99.8453 78.9184 92.3754 75.4784 82.0154C74.9885 80.5354 76.0785 79.0054 77.6385 79.0054H103.908H125.718H134.228C135.408 79.0054 136.398 78.1053 136.498 76.9253C136.588 75.8953 136.628 74.8553 136.628 73.8053C136.628 53.9053 120.678 37.7253 100.858 37.3653C80.2785 36.9953 63.3685 53.8953 63.7485 74.4753C64.1085 94.2953 80.2885 110.245 100.188 110.245C113.318 110.245 124.818 103.305 131.238 92.8954C132.178 91.3754 131.088 89.4053 129.298 89.4053H122.148H122.168ZM100.208 47.7554C111.718 47.7554 121.488 55.2254 124.928 65.5854C125.418 67.0654 124.328 68.5953 122.768 68.5953H77.6485C76.0885 68.5953 74.9985 67.0654 75.4885 65.5854C78.9285 55.2254 88.6985 47.7554 100.208 47.7554Z" fill="white"/>
<path d="M102.288 151.64C103.499 151.649 104.711 151.88 105.922 152.332C107.134 152.784 108.239 153.534 109.239 154.582C110.239 155.62 111.042 157.038 111.647 158.836C112.253 160.634 112.556 162.888 112.556 165.599C112.556 168.224 112.306 170.556 111.806 172.594C111.316 174.622 110.604 176.334 109.672 177.728C108.749 179.122 107.624 180.179 106.297 180.9C104.98 181.621 103.49 181.982 101.827 181.982C100.173 181.982 98.6971 181.655 97.3992 181.001C96.1109 180.338 95.0534 179.42 94.2266 178.247C93.4094 177.064 92.8854 175.694 92.6547 174.137H96.1734C96.4907 175.492 97.1204 176.612 98.0626 177.497C99.0144 178.372 100.269 178.809 101.827 178.809C104.105 178.809 105.903 177.814 107.22 175.824C108.547 173.834 109.21 171.022 109.21 167.388H108.979C108.441 168.195 107.802 168.892 107.061 169.479C106.321 170.065 105.499 170.517 104.595 170.834C103.692 171.152 102.73 171.31 101.711 171.31C100.019 171.31 98.4664 170.892 97.0531 170.056C95.6495 169.21 94.5246 168.051 93.6786 166.58C92.8421 165.1 92.4239 163.407 92.4239 161.504C92.4239 159.696 92.8277 158.043 93.6353 156.543C94.4525 155.034 95.5966 153.832 97.0675 152.938C98.5481 152.044 100.288 151.611 102.288 151.64ZM102.288 154.812C101.077 154.812 99.9854 155.115 99.0144 155.721C98.053 156.317 97.2887 157.125 96.7214 158.144C96.1638 159.153 95.885 160.273 95.885 161.504C95.885 162.734 96.1542 163.855 96.6926 164.864C97.2406 165.864 97.9857 166.662 98.9279 167.258C99.8797 167.844 100.961 168.138 102.173 168.138C103.086 168.138 103.937 167.96 104.725 167.604C105.514 167.239 106.201 166.744 106.787 166.119C107.383 165.484 107.85 164.768 108.186 163.97C108.523 163.162 108.691 162.321 108.691 161.446C108.691 160.292 108.412 159.211 107.855 158.201C107.307 157.192 106.547 156.375 105.576 155.75C104.615 155.125 103.519 154.812 102.288 154.812Z" fill="white"/>
<defs>
<linearGradient id="paint0_linear_4977_91251" x1="100.209" y1="143.386" x2="100.209" y2="4.22625" gradientUnits="userSpaceOnUse">
<stop stop-color="#480F1A"/>
<stop offset="1" stop-color="#FFC549"/>
</linearGradient>
<linearGradient id="paint1_linear_4977_91251" x1="100.212" y1="15.5081" x2="100.212" y2="132.098" gradientUnits="userSpaceOnUse">
<stop stop-color="#480F1A"/>
<stop offset="1" stop-color="#FFC549"/>
</linearGradient>
</defs>
</svg>
