<svg width="114" height="117" viewBox="0 0 114 117" fill="none" xmlns="http://www.w3.org/2000/svg">
<path d="M56.5851 116.943C53.9551 116.943 51.3703 116.236 49.1136 114.89L36.5517 107.435L36.5008 107.401C34.8492 106.293 33.7915 104.24 33.6954 101.994L31.1219 100.699L31.071 100.671C28.9217 99.4433 27.5869 97.0678 27.5869 94.4661V68.6239L25.4886 67.4135C24.4535 66.814 23.509 66.0901 22.6662 65.2417H19.103C17.5306 65.2417 16.1279 64.3028 15.6132 62.9057L11.5579 51.8257C11.2129 50.8811 11.309 49.8687 11.8124 49.009C10.8735 48.6301 10.1213 47.8948 9.77628 46.9502L6.04334 36.7525C5.69832 35.808 5.79446 34.7955 6.29785 33.9358C5.35895 33.5569 4.60672 32.8216 4.26171 31.8771L0.20637 20.797C-0.172581 19.7676 -0.0255246 18.6534 0.6136 17.7428C1.29797 16.7643 2.4518 16.1818 3.69611 16.1818H24.9513C25.1379 16.063 25.3132 15.9499 25.4942 15.848L49.7979 1.81558C51.8567 0.627825 54.2039 0 56.5851 0C58.9663 0 61.3135 0.627825 63.3723 1.81558L87.676 15.848C87.857 15.9499 88.0323 16.063 88.219 16.1818H109.474C110.724 16.1818 111.872 16.7643 112.557 17.7428C113.19 18.6534 113.337 19.7676 112.964 20.797L108.909 31.8714C108.563 32.816 107.811 33.5513 106.872 33.9302C107.376 34.7899 107.472 35.8023 107.127 36.7469L103.394 46.9502C103.049 47.8948 102.297 48.6301 101.358 49.009C101.861 49.8687 101.957 50.8811 101.612 51.8257L97.557 62.9001C97.0423 64.2971 95.6453 65.2417 94.0672 65.2417H90.504C89.6612 66.0901 88.711 66.8197 87.6816 67.4135L85.5833 68.6239V94.4661C85.5833 97.0678 84.2485 99.449 82.0992 100.671L82.0483 100.699L79.4748 101.994C79.3843 104.24 78.3267 106.293 76.6695 107.401L76.6185 107.435L64.0567 114.89C61.7943 116.23 59.2151 116.943 56.5851 116.943Z" fill="white"/>
<path d="M103.638 34.3984H9.52808C8.57788 34.3984 7.89916 35.179 8.18196 35.9482L11.9149 46.1516C12.0959 46.6493 12.6445 46.9943 13.261 46.9943H99.8992C100.516 46.9943 101.064 46.6549 101.245 46.1516L104.978 35.9482C105.261 35.179 104.582 34.3984 103.632 34.3984H103.638Z" fill="#6D151D"/>
<path d="M106.771 31.0773L110.826 20.0029C111.109 19.2337 110.43 18.4531 109.48 18.4531H3.69068C2.74048 18.4531 2.06176 19.2337 2.34456 20.0029L6.3999 31.0773C6.58089 31.575 7.12952 31.92 7.74602 31.92H105.425C106.041 31.92 106.59 31.5806 106.771 31.0773Z" fill="#6D151D"/>
<path d="M13.7015 51.0341L17.7568 62.1085C17.9378 62.6062 18.4864 62.9512 19.1029 62.9512H94.0615C94.678 62.9512 95.2267 62.6119 95.4077 62.1085L99.463 51.0341C99.7458 50.2649 99.0671 49.4844 98.1169 49.4844H15.0476C14.0974 49.4844 13.4187 50.2649 13.7015 51.0341Z" fill="#6D151D"/>
<path d="M78.9765 28.6172H34.1925C31.8057 28.6172 29.8713 30.7495 29.8713 33.3738V94.4527C29.8713 96.2287 30.7706 97.8576 32.2016 98.6777L48.406 106.856C53.4454 109.401 59.7122 109.401 64.7517 106.856L80.9561 98.6777C82.3871 97.8576 83.2863 96.2287 83.2863 94.4527V33.3738C83.2863 30.7438 81.352 28.6172 78.9652 28.6172H78.9765Z" fill="#6D151D"/>
<path d="M73.8637 41.9062H39.3057C37.4619 41.9062 35.9744 43.8406 35.9744 46.2274V101.673C35.9744 103.285 36.6701 104.767 37.773 105.508L50.2783 112.934C54.164 115.242 59.0055 115.242 62.8912 112.934L75.3965 105.508C76.5051 104.767 77.1951 103.285 77.1951 101.673V46.2274C77.1951 43.8406 75.7019 41.9062 73.8637 41.9062Z" fill="#D83232"/>
<path d="M92.1783 55.6566V27.5916C92.1783 23.5589 90.029 19.8317 86.5336 17.8125L62.2299 3.78001C58.7345 1.76083 54.4303 1.76083 50.9406 3.78001L26.6369 17.8125C23.1415 19.8317 20.9922 23.5589 20.9922 27.5916V55.6566C20.9922 59.6893 23.1415 63.4166 26.6369 65.4357L50.9406 79.4682C54.436 81.4874 58.7401 81.4874 62.2299 79.4682L86.5336 65.4357C90.029 63.4166 92.1783 59.6893 92.1783 55.6566Z" fill="url(#paint0_linear_2181_31162)"/>
<path d="M86.4039 29.8598V53.3716C86.4039 56.7482 84.5997 59.876 81.6755 61.5615L61.314 73.3146C58.3899 75.0057 54.7814 75.0057 51.8572 73.3146L31.4957 61.5615C28.5716 59.8703 26.7673 56.7482 26.7673 53.3716V29.8598C26.7673 26.4831 28.5716 23.3554 31.4957 21.6699L51.8572 9.91679C54.7814 8.22565 58.3899 8.22565 61.314 9.91679L81.6755 21.6699C84.5997 23.361 86.4039 26.4831 86.4039 29.8598Z" fill="url(#paint1_linear_2181_31162)"/>
<path d="M83.2925 31.09V52.1529C83.2925 55.1788 81.6749 57.9785 79.0562 59.4887L60.8157 70.0201C58.197 71.5359 54.9618 71.5359 52.343 70.0201L34.1025 59.4887C31.4838 57.9729 29.8662 55.1788 29.8662 52.1529V31.09C29.8662 28.0641 31.4838 25.2644 34.1025 23.7542L52.343 13.2228C54.9618 11.707 58.197 11.707 60.8157 13.2228L79.0562 23.7542C81.6749 25.27 83.2925 28.0641 83.2925 31.09Z" fill="#251F3A"/>
<path d="M69.0052 50.4449C68.6206 50.4449 68.253 50.6145 68.0098 50.9143C65.3062 54.2344 61.1943 56.3497 56.579 56.3497C50.069 56.3497 44.5431 52.1247 42.5975 46.2651C42.3203 45.428 42.9368 44.5627 43.8192 44.5627H58.6774H71.0131H75.8263C76.4937 44.5627 77.0537 44.0536 77.1102 43.3862C77.1611 42.8036 77.1837 42.2154 77.1837 41.6216C77.1837 30.3662 68.1625 21.2148 56.9524 21.0112C45.3124 20.8019 35.7481 30.3605 35.963 42.0005C36.1666 53.2106 45.318 62.2319 56.5734 62.2319C63.9997 62.2319 70.5041 58.3067 74.1352 52.4188C74.6669 51.5591 74.0504 50.4449 73.0379 50.4449H68.9939H69.0052ZM56.5847 26.8877C63.0947 26.8877 68.6206 31.1128 70.5663 36.9724C70.8434 37.8094 70.2269 38.6748 69.3446 38.6748H43.8248C42.9425 38.6748 42.326 37.8094 42.6031 36.9724C44.5488 31.1128 50.0747 26.8877 56.5847 26.8877Z" fill="white"/>
<defs>
<linearGradient id="paint0_linear_2181_31162" x1="56.5796" y1="80.9783" x2="56.5796" y2="2.26987" gradientUnits="userSpaceOnUse">
<stop stop-color="#36002B"/>
<stop offset="1" stop-color="#FF0037"/>
</linearGradient>
<linearGradient id="paint1_linear_2181_31162" x1="56.5856" y1="8.6442" x2="56.5856" y2="74.5872" gradientUnits="userSpaceOnUse">
<stop stop-color="#36002B"/>
<stop offset="1" stop-color="#FF0037"/>
</linearGradient>
</defs>
</svg>
