<svg width="201" height="207" viewBox="0 0 201 207" fill="none" xmlns="http://www.w3.org/2000/svg">
<path d="M100.353 206.897C95.7034 206.897 91.1334 205.647 87.1434 203.267L64.9334 190.087L64.8435 190.027C61.9235 188.067 60.0534 184.437 59.8834 180.467L55.3334 178.177L55.2434 178.127C51.4434 175.957 49.0834 171.757 49.0834 167.157V121.467L45.3734 119.327C40.0234 116.237 36.1534 111.307 34.4034 105.497H23.9334C20.9434 105.497 18.3434 103.577 17.4634 100.727L11.0234 79.9772C10.3834 77.9272 10.7634 75.6772 12.0434 73.9472C12.0834 73.8872 12.1234 73.8372 12.1734 73.7772C10.0834 73.1272 8.39345 71.4972 7.71345 69.3072L0.703436 46.7372C0.0634359 44.6872 0.443394 42.4372 1.72339 40.7072C2.99339 38.9772 5.03342 37.9472 7.18342 37.9472H36.0534C38.1534 33.8672 41.3934 30.4372 45.3834 28.1372L88.3534 3.32718C91.9934 1.22718 96.1434 0.117188 100.353 0.117188C104.563 0.117188 108.713 1.22718 112.353 3.32718L155.323 28.1372C159.313 30.4372 162.553 33.8672 164.653 37.9472H193.523C195.673 37.9472 197.713 38.9772 198.983 40.7072C200.253 42.4372 200.633 44.6872 200.003 46.7372L192.993 69.3072C192.313 71.4872 190.633 73.1272 188.533 73.7772C188.573 73.8372 188.623 73.8872 188.663 73.9472C189.933 75.6772 190.313 77.9272 189.683 79.9772L183.243 100.727C182.353 103.577 179.753 105.497 176.773 105.497H166.303C164.563 111.307 160.683 116.237 155.333 119.327L151.623 121.467V167.157C151.623 171.757 149.263 175.967 145.463 178.127L145.373 178.177L140.823 180.467C140.663 184.437 138.793 188.067 135.863 190.027L135.773 190.087L113.563 203.267C109.563 205.637 105.003 206.897 100.353 206.897Z" fill="white"/>
<path d="M183.204 75.2109H17.5038C15.6538 75.2109 14.3338 77.0009 14.8838 78.7709L21.3238 99.5209C21.6838 100.671 22.7438 101.451 23.9438 101.451H176.754C177.954 101.451 179.014 100.671 179.374 99.5209L185.814 78.7709C186.364 77.0009 185.044 75.2109 183.194 75.2109H183.204Z" fill="#341066"/>
<path d="M189.136 68.1144L196.146 45.5444C196.696 43.7744 195.376 41.9844 193.526 41.9844H7.17565C5.32565 41.9844 4.00565 43.7744 4.55565 45.5444L11.5657 68.1144C11.9257 69.2644 12.9857 70.0444 14.1857 70.0444H186.516C187.716 70.0444 188.776 69.2644 189.136 68.1144Z" fill="#341066"/>
<path d="M139.945 50.75H60.765C56.545 50.75 53.125 54.52 53.125 59.16V167.15C53.125 170.29 54.715 173.17 57.245 174.62L85.895 189.08C94.805 193.58 105.885 193.58 114.795 189.08L143.445 174.62C145.975 173.17 147.565 170.29 147.565 167.15V59.16C147.565 54.51 144.145 50.75 139.925 50.75H139.945Z" fill="#341066"/>
<path d="M130.904 74.2266H69.8041C66.5441 74.2266 63.9141 77.6465 63.9141 81.8665V179.897C63.9141 182.747 65.1441 185.367 67.0941 186.677L89.2041 199.807C96.0741 203.887 104.634 203.887 111.504 199.807L133.614 186.677C135.574 185.367 136.794 182.747 136.794 179.897V81.8665C136.794 77.6465 134.154 74.2266 130.904 74.2266Z" fill="#7C39E5"/>
<path d="M163.282 98.5381V48.9181C163.282 41.7881 159.482 35.1981 153.302 31.6281L110.332 6.81813C104.152 3.24813 96.5419 3.24813 90.3719 6.81813L47.4019 31.6281C41.2219 35.1981 37.4219 41.7881 37.4219 48.9181V98.5381C37.4219 105.668 41.2219 112.258 47.4019 115.828L90.3719 140.638C96.5519 144.208 104.162 144.208 110.332 140.638L153.302 115.828C159.482 112.258 163.282 105.668 163.282 98.5381Z" fill="url(#paint0_linear_4977_91201)"/>
<path d="M153.073 52.9478V94.5178C153.073 100.488 149.883 106.018 144.713 108.998L108.713 129.778C103.543 132.768 97.1628 132.768 91.9928 129.778L55.9928 108.998C50.8228 106.008 47.6328 100.488 47.6328 94.5178V52.9478C47.6328 46.9778 50.8228 41.4478 55.9928 38.4678L91.9928 17.6878C97.1628 14.6978 103.543 14.6978 108.713 17.6878L144.713 38.4678C149.883 41.4578 153.073 46.9778 153.073 52.9478Z" fill="url(#paint1_linear_4977_91201)"/>
<path d="M147.585 55.1078V92.3478C147.585 97.6978 144.725 102.648 140.095 105.318L107.845 123.938C103.215 126.618 97.495 126.618 92.865 123.938L60.615 105.318C55.985 102.638 53.125 97.6978 53.125 92.3478V55.1078C53.125 49.7578 55.985 44.8078 60.615 42.1378L92.865 23.5178C97.495 20.8378 103.215 20.8378 107.845 23.5178L140.095 42.1378C144.725 44.8178 147.585 49.7578 147.585 55.1078Z" fill="#251F3A"/>
<path d="M122.317 89.3272C121.637 89.3272 120.987 89.6272 120.557 90.1572C115.777 96.0272 108.507 99.7672 100.347 99.7672C88.8369 99.7672 79.0669 92.2972 75.6269 81.9372C75.1369 80.4572 76.2269 78.9272 77.7869 78.9272H104.057H125.867H134.377C135.557 78.9272 136.547 78.0272 136.647 76.8472C136.737 75.8172 136.777 74.7772 136.777 73.7272C136.777 53.8272 120.827 37.6472 101.007 37.2872C80.4269 36.9172 63.5169 53.8172 63.8969 74.3972C64.2569 94.2172 80.4369 110.167 100.337 110.167C113.467 110.167 124.967 103.227 131.387 92.8172C132.327 91.2972 131.237 89.3272 129.447 89.3272H122.297H122.317ZM100.357 47.6872C111.867 47.6872 121.637 55.1572 125.077 65.5172C125.567 66.9972 124.477 68.5272 122.917 68.5272H77.7969C76.2369 68.5272 75.1469 66.9972 75.6369 65.5172C79.0769 55.1572 88.8469 47.6872 100.357 47.6872Z" fill="white"/>
<path d="M102.263 181.912C100.571 181.912 99.0475 181.575 97.6919 180.902C96.3363 180.229 95.2499 179.306 94.4327 178.133C93.6155 176.96 93.1684 175.624 93.0915 174.124H96.5526C96.6872 175.461 97.2929 176.566 98.3697 177.441C99.4561 178.306 100.754 178.739 102.263 178.739C103.475 178.739 104.552 178.455 105.494 177.888C106.446 177.321 107.191 176.542 107.729 175.552C108.277 174.552 108.551 173.422 108.551 172.163C108.551 170.875 108.267 169.726 107.7 168.716C107.143 167.697 106.373 166.894 105.393 166.308C104.412 165.721 103.292 165.423 102.033 165.414C101.129 165.404 100.201 165.544 99.2494 165.832C98.2976 166.111 97.514 166.471 96.8987 166.914L93.553 166.51L95.3412 151.973H110.685V155.146H98.3408L97.3025 163.856H97.4756C98.0813 163.376 98.8408 162.977 99.7541 162.659C100.667 162.342 101.619 162.183 102.61 162.183C104.417 162.183 106.027 162.616 107.441 163.481C108.863 164.337 109.979 165.51 110.786 167C111.604 168.49 112.012 170.192 112.012 172.105C112.012 173.99 111.589 175.672 110.743 177.153C109.907 178.624 108.753 179.787 107.282 180.643C105.811 181.489 104.138 181.912 102.263 181.912Z" fill="white"/>
<defs>
<linearGradient id="paint0_linear_4977_91201" x1="100.352" y1="143.318" x2="100.352" y2="4.14812" gradientUnits="userSpaceOnUse">
<stop stop-color="#200055"/>
<stop offset="1" stop-color="#8D54FF"/>
</linearGradient>
<linearGradient id="paint1_linear_4977_91201" x1="100.353" y1="15.4378" x2="100.353" y2="132.028" gradientUnits="userSpaceOnUse">
<stop stop-color="#200055"/>
<stop offset="1" stop-color="#8D54FF"/>
</linearGradient>
</defs>
</svg>
