<svg width="135" height="207" viewBox="0 0 135 207" fill="none" xmlns="http://www.w3.org/2000/svg">
<path d="M122.323 28.0669L79.3528 3.25687C75.7128 1.15687 71.5628 0.046875 67.3528 0.046875C63.1428 0.046875 58.9928 1.15687 55.3528 3.25687L12.3828 28.0669C4.98281 32.3369 0.382812 40.3069 0.382812 48.8469V98.4669C0.382812 107.017 4.98281 114.977 12.3828 119.247L26.8728 127.617V179.827C26.8728 184.017 28.7728 187.897 31.8428 189.957L31.9328 190.017L54.1428 203.197C58.1428 205.567 62.7028 206.827 67.3528 206.827C72.0028 206.827 76.5728 205.577 80.5628 203.197L102.773 190.017L102.863 189.957C105.923 187.897 107.833 184.017 107.833 179.827V127.617L122.323 119.247C129.723 114.977 134.323 107.007 134.323 98.4669V48.8469C134.323 40.2969 129.723 32.3369 122.323 28.0669Z" fill="white"/>
<path d="M97.9041 74.1562H36.8041C33.5441 74.1562 30.9141 77.5762 30.9141 81.7962V179.826C30.9141 182.676 32.1441 185.296 34.0941 186.606L56.2041 199.736C63.0741 203.816 71.6341 203.816 78.5041 199.736L100.614 186.606C102.574 185.296 103.794 182.676 103.794 179.826V81.7962C103.794 77.5762 101.154 74.1562 97.9041 74.1562Z" fill="#388770"/>
<path d="M130.282 98.4678V48.8478C130.282 41.7178 126.482 35.1278 120.302 31.5578L77.3319 6.74781C71.1519 3.17781 63.5419 3.17781 57.3719 6.74781L14.4019 31.5578C8.22192 35.1278 4.42188 41.7178 4.42188 48.8478V98.4678C4.42188 105.598 8.22192 112.188 14.4019 115.758L57.3719 140.568C63.5519 144.138 71.1619 144.138 77.3319 140.568L120.302 115.758C126.482 112.188 130.282 105.598 130.282 98.4678Z" fill="url(#paint0_linear_4977_91173)"/>
<path d="M120.073 52.8697V94.4397C120.073 100.41 116.883 105.94 111.713 108.92L75.7128 129.7C70.5428 132.69 64.1628 132.69 58.9928 129.7L22.9928 108.92C17.8228 105.93 14.6328 100.41 14.6328 94.4397V52.8697C14.6328 46.8997 17.8228 41.3697 22.9928 38.3897L58.9928 17.6097C64.1628 14.6197 70.5428 14.6197 75.7128 17.6097L111.713 38.3897C116.883 41.3797 120.073 46.8997 120.073 52.8697Z" fill="url(#paint1_linear_4977_91173)"/>
<path d="M114.585 55.0375V92.2775C114.585 97.6275 111.725 102.578 107.095 105.248L74.845 123.868C70.215 126.548 64.495 126.548 59.865 123.868L27.615 105.248C22.985 102.568 20.125 97.6275 20.125 92.2775V55.0375C20.125 49.6875 22.985 44.7375 27.615 42.0675L59.865 23.4475C64.495 20.7675 70.215 20.7675 74.845 23.4475L107.095 42.0675C111.725 44.7475 114.585 49.6875 114.585 55.0375Z" fill="#251F3A"/>
<path d="M89.3091 89.2569C88.6291 89.2569 87.9791 89.5569 87.5491 90.0869C82.7691 95.9569 75.4991 99.6969 67.3391 99.6969C55.8291 99.6969 46.0591 92.2269 42.6191 81.8669C42.1291 80.3869 43.2191 78.8569 44.7791 78.8569H71.0491H92.8591H101.369C102.549 78.8569 103.539 77.9569 103.639 76.7769C103.729 75.7469 103.769 74.7069 103.769 73.6569C103.769 53.7569 87.8191 37.5769 67.9991 37.2169C47.4191 36.8469 30.5091 53.7469 30.8891 74.3269C31.2491 94.1469 47.4291 110.097 67.3291 110.097C80.4591 110.097 91.9591 103.157 98.3791 92.7469C99.3191 91.2269 98.2291 89.2569 96.4391 89.2569H89.2891H89.3091ZM67.3491 47.6169C78.8591 47.6169 88.6291 55.0869 92.0691 65.4469C92.5591 66.9269 91.4691 68.4569 89.9091 68.4569H44.7891C43.2291 68.4569 42.1391 66.9269 42.6291 65.4469C46.0691 55.0869 55.8391 47.6169 67.3491 47.6169Z" fill="white"/>
<path d="M60.0338 181.438V178.842L69.7826 168.17C70.9266 166.92 71.8688 165.834 72.6091 164.911C73.3494 163.978 73.8974 163.103 74.2531 162.286C74.6185 161.459 74.8011 160.594 74.8011 159.69C74.8011 158.652 74.5512 157.753 74.0512 156.994C73.5609 156.234 72.8879 155.648 72.0323 155.234C71.1766 154.821 70.2152 154.614 69.148 154.614C68.0136 154.614 67.0233 154.85 66.1773 155.321C65.3408 155.782 64.6919 156.431 64.2304 157.268C63.7785 158.104 63.5526 159.085 63.5526 160.21H60.1492C60.1492 158.479 60.5482 156.96 61.3462 155.652C62.1441 154.345 63.2305 153.326 64.6054 152.595C65.9898 151.864 67.5425 151.499 69.2634 151.499C70.9939 151.499 72.5274 151.864 73.8637 152.595C75.2001 153.326 76.248 154.311 77.0076 155.552C77.7671 156.792 78.1468 158.171 78.1468 159.69C78.1468 160.777 77.9497 161.839 77.5556 162.877C77.171 163.906 76.498 165.055 75.5366 166.324C74.5848 167.584 73.2629 169.122 71.5708 170.939L64.937 178.034V178.265H78.666V181.438H60.0338Z" fill="white"/>
<defs>
<linearGradient id="paint0_linear_4977_91173" x1="67.3519" y1="143.248" x2="67.3519" y2="4.07781" gradientUnits="userSpaceOnUse">
<stop stop-color="#032135"/>
<stop offset="1" stop-color="#00AA7B"/>
</linearGradient>
<linearGradient id="paint1_linear_4977_91173" x1="67.3528" y1="15.3697" x2="67.3528" y2="131.96" gradientUnits="userSpaceOnUse">
<stop stop-color="#032135"/>
<stop offset="1" stop-color="#00AA7B"/>
</linearGradient>
</defs>
</svg>
