<svg width="114" height="116" viewBox="0 0 114 116" fill="none" xmlns="http://www.w3.org/2000/svg">
<path d="M56.5973 115.967C54.0024 115.967 51.4075 115.281 49.1585 113.908L36.6163 106.532H36.5298C34.8864 105.417 33.8483 103.444 33.7618 101.214L31.1669 99.9272H31.0804C28.9179 98.7263 27.6205 96.3247 27.6205 93.7514V68.1049L25.5445 66.904C24.5065 66.3036 23.5551 65.6174 22.6901 64.7597H19.1437C17.5867 64.7597 16.2028 63.8162 15.6838 62.4438L11.6183 51.4646C11.2723 50.5211 11.3589 49.4918 11.8778 48.6341C10.9264 48.291 10.1479 47.519 9.80187 46.5755L6.08241 36.4541C5.73642 35.5106 5.82296 34.4813 6.34195 33.6236C5.39047 33.2805 4.69846 32.5085 4.26597 31.565L0.200602 20.5859C-0.14539 19.5566 -0.0588919 18.4415 0.633093 17.5838C1.32508 16.6402 2.44953 16.0398 3.747 16.0398H25.0255C25.1985 15.9541 25.3715 15.7825 25.5445 15.6967L49.8505 1.80127C51.9265 0.600426 54.2619 0 56.5973 0C58.9328 0 61.3548 0.600426 63.3442 1.80127L87.6502 15.6967C87.8232 15.7825 87.9962 15.8683 88.1692 16.0398H109.448C110.659 16.0398 111.87 16.6402 112.562 17.5838C113.167 18.4415 113.34 19.5566 112.994 20.5859L108.929 31.565C108.583 32.5085 107.804 33.1947 106.853 33.6236C107.372 34.4813 107.458 35.5106 107.112 36.4541L103.393 46.5755C103.047 47.519 102.268 48.2052 101.317 48.6341C101.836 49.4918 101.922 50.5211 101.576 51.4646L97.511 62.4438C96.992 63.8162 95.608 64.7597 94.0511 64.7597H90.5047C89.6397 65.6174 88.6882 66.3036 87.6502 66.904L85.5742 68.1049V93.7514C85.5742 96.3247 84.2767 98.7263 82.1143 99.9272H82.0278L79.4329 101.214C79.3464 103.444 78.3084 105.503 76.665 106.532H76.5784L64.0362 113.908C61.8737 115.281 59.2788 115.967 56.5973 115.967Z" fill="white"/>
<path d="M103.654 34.2266H9.5444C8.59292 34.2266 7.90095 34.9985 8.16045 35.7705L11.8799 45.8919C12.0529 46.4065 12.5719 46.7496 13.2639 46.7496H99.8485C100.454 46.7496 100.973 46.4065 101.232 45.8919L104.952 35.7705C105.298 34.9985 104.606 34.2266 103.654 34.2266Z" fill="#F49D3D"/>
<path d="M106.766 30.8824L110.831 19.9033C111.091 19.1314 110.398 18.3594 109.447 18.3594H3.7463C2.79482 18.3594 2.10286 19.1314 2.36235 19.9033L6.42772 30.8824C6.60072 31.3971 7.11969 31.7402 7.81167 31.7402H105.468C106.074 31.7402 106.593 31.3971 106.766 30.8824Z" fill="#F49D3D"/>
<path d="M13.7773 50.6963L17.8427 61.6754C18.0157 62.1901 18.5347 62.5332 19.2267 62.5332H94.134C94.7395 62.5332 95.2585 62.1901 95.518 61.6754L99.5835 50.6963C99.843 49.9243 99.1509 49.1523 98.1994 49.1523H15.1612C14.1232 49.1523 13.4313 49.9243 13.7773 50.6963Z" fill="#F49D3D"/>
<path d="M79.0028 28.4766H34.1967C31.7748 28.4766 29.8718 30.6209 29.8718 33.1942V93.7509C29.8718 95.4664 30.7369 97.0961 32.2073 97.9538L48.3824 106.102C53.3993 108.59 59.7137 108.59 64.7306 106.102L80.9057 97.9538C82.3762 97.0961 83.2412 95.5521 83.2412 93.7509V33.1942C83.3277 30.5351 81.4248 28.4766 79.0028 28.4766Z" fill="#F49D3D"/>
<path d="M56.5933 112.103C54.6903 112.103 52.7874 111.589 51.1439 110.645L38.6882 103.354C38.0827 102.926 37.6501 101.982 37.6501 100.867V45.8856C37.6501 44.3416 38.5151 43.2266 39.3801 43.2266H73.8929C74.6714 43.2266 75.6228 44.3416 75.6228 45.8856V100.867C75.6228 101.896 75.1904 102.84 74.5849 103.354L62.1292 110.645C60.3992 111.589 58.4962 112.103 56.5933 112.103Z" fill="#FFF9EE"/>
<path d="M73.6362 44.8571C73.7227 45.0286 73.8956 45.3717 73.8956 45.8864V100.868C73.8956 101.468 73.6361 101.897 73.5496 101.983L61.1804 109.274C59.7964 110.131 58.1529 110.56 56.5095 110.56C54.866 110.56 53.2225 110.131 51.8386 109.274L39.4694 101.983C39.3829 101.897 39.1234 101.468 39.1234 100.868V45.8864C39.1234 45.286 39.2963 44.9428 39.3828 44.8571H73.6362ZM73.8956 41.5977H39.3828C37.5664 41.5977 36.0959 43.4847 36.0959 45.8864V100.868C36.0959 102.497 36.7879 103.956 37.9124 104.642L50.3681 112.018C52.2711 113.134 54.52 113.734 56.6824 113.734C58.8449 113.734 61.0074 113.134 62.9968 112.018L75.4526 104.642C76.5771 103.87 77.269 102.412 77.269 100.868V45.8864C77.1825 43.5705 75.712 41.5977 73.8956 41.5977Z" fill="#D3C8B8"/>
<path d="M103.654 34.2266H9.5444C8.59292 34.2266 7.90095 34.9985 8.16045 35.7705L11.8799 45.8919C12.0529 46.4065 12.5719 46.7496 13.2639 46.7496H99.8485C100.454 46.7496 100.973 46.4065 101.232 45.8919L104.952 35.7705C105.298 34.9985 104.606 34.2266 103.654 34.2266Z" fill="#FFC943"/>
<mask id="mask0_2181_30802" style="mask-type:luminance" maskUnits="userSpaceOnUse" x="8" y="34" width="98" height="13">
<path d="M103.656 34.2344H9.54562C8.59414 34.2344 7.90217 35.0064 8.16167 35.7783L11.8811 45.8997C12.0541 46.4143 12.5731 46.7574 13.2651 46.7574H99.8497C100.455 46.7574 100.974 46.4143 101.234 45.8997L104.953 35.7783C105.299 35.0064 104.607 34.2344 103.656 34.2344Z" fill="white"/>
</mask>
<g mask="url(#mask0_2181_30802)">
<path d="M103.655 39.9805H9.54537C8.59389 39.9805 7.90193 40.4093 8.16142 40.8382L11.8809 46.242C12.0539 46.4993 12.5729 46.6709 13.2648 46.6709H99.8494C100.455 46.6709 100.974 46.4993 101.233 46.242L104.953 40.8382C105.299 40.4093 104.607 39.9805 103.655 39.9805Z" fill="#EFAC35"/>
</g>
<path d="M106.766 30.8824L110.831 19.9033C111.091 19.1314 110.398 18.3594 109.447 18.3594H3.7463C2.79482 18.3594 2.10286 19.1314 2.36235 19.9033L6.42772 30.8824C6.60072 31.3971 7.11969 31.7402 7.81167 31.7402H105.468C106.074 31.7402 106.593 31.3971 106.766 30.8824Z" fill="#FFC943"/>
<mask id="mask1_2181_30802" style="mask-type:luminance" maskUnits="userSpaceOnUse" x="2" y="18" width="109" height="14">
<path d="M106.766 30.8903L110.831 19.9111C111.091 19.1392 110.399 18.3672 109.447 18.3672H3.74655C2.79507 18.3672 2.1031 19.1392 2.3626 19.9111L6.42797 30.8903C6.60096 31.4049 7.11993 31.748 7.81191 31.748H105.468C106.074 31.748 106.593 31.4049 106.766 30.8903Z" fill="white"/>
</mask>
<g mask="url(#mask1_2181_30802)">
<path d="M106.766 31.3162L110.831 25.8267C111.091 25.4836 110.399 25.0547 109.447 25.0547H3.74655C2.79507 25.0547 2.1031 25.4836 2.3626 25.8267L6.42797 31.3162C6.60096 31.5735 7.11993 31.7451 7.81191 31.7451H105.468C106.074 31.7451 106.593 31.5735 106.766 31.3162Z" fill="#EFAC35"/>
</g>
<path d="M13.7773 50.6963L17.8427 61.6754C18.0157 62.1901 18.5347 62.5332 19.2267 62.5332H94.134C94.7395 62.5332 95.2585 62.1901 95.518 61.6754L99.5835 50.6963C99.843 49.9243 99.1509 49.1523 98.1994 49.1523H15.1612C14.1232 49.1523 13.4313 49.9243 13.7773 50.6963Z" fill="#FFC943"/>
<mask id="mask2_2181_30802" style="mask-type:luminance" maskUnits="userSpaceOnUse" x="13" y="49" width="87" height="14">
<path d="M13.7777 50.6963L17.8432 61.6754C18.0162 62.1901 18.5352 62.5332 19.2272 62.5332H94.1345C94.74 62.5332 95.259 62.1901 95.5185 61.6754L99.584 50.6963C99.8435 49.9243 99.1514 49.1523 98.1999 49.1523H15.1617C14.1237 49.1523 13.4318 49.9243 13.7777 50.6963Z" fill="white"/>
</mask>
<g mask="url(#mask2_2181_30802)">
<path d="M13.7777 56.6157L17.8432 62.1053C18.0162 62.3626 18.5352 62.5341 19.2272 62.5341H94.1345C94.74 62.5341 95.259 62.3626 95.5185 62.1053L99.584 56.6157C99.8435 56.2726 99.1514 55.8438 98.1999 55.8438H15.1617C14.1237 55.8438 13.4318 56.1868 13.7777 56.6157Z" fill="#EFAC35"/>
</g>
<path d="M92.2344 55.2374V27.4465C92.2344 23.4151 90.0719 19.7268 86.612 17.754L62.306 3.85851C58.846 1.8857 54.5211 1.8857 50.9747 3.85851L26.6688 17.754C23.2088 19.7268 21.0464 23.4151 21.0464 27.4465V55.2374C21.0464 59.2688 23.2088 62.9571 26.6688 64.9299L50.9747 78.8253C54.4346 80.7981 58.7595 80.7981 62.306 78.8253L86.612 64.9299C90.0719 62.9571 92.2344 59.2688 92.2344 55.2374Z" fill="url(#paint0_linear_2181_30802)"/>
<path d="M86.4417 29.6786V53.0093C86.4417 56.3545 84.6253 59.4423 81.6843 61.1578L61.3573 72.8232C58.4163 74.5386 54.7834 74.5386 51.9289 72.8232L31.6019 61.1578C28.6609 59.4423 26.8445 56.3545 26.8445 53.0093V29.6786C26.8445 26.3334 28.6609 23.2456 31.6019 21.5301L51.9289 9.86474C54.8699 8.14925 58.5028 8.14925 61.3573 9.86474L81.6843 21.5301C84.6253 23.2456 86.4417 26.3334 86.4417 29.6786Z" fill="url(#paint1_linear_2181_30802)"/>
<path d="M83.3277 30.8781V51.7213C83.3277 54.7234 81.6842 57.4682 79.0893 59.0121L60.8382 69.4766C58.2433 71.0205 54.9563 71.0205 52.3613 69.4766L34.1103 59.0121C31.5153 57.4682 29.8718 54.7234 29.8718 51.7213V30.8781C29.8718 27.876 31.5153 25.1312 34.1103 23.5873L52.3613 13.1228C54.9563 11.5789 58.2433 11.5789 60.8382 13.1228L79.0893 23.5873C81.6842 25.1312 83.3277 27.876 83.3277 30.8781Z" fill="#251F3A"/>
<path d="M69.0526 50.0914C68.7066 50.0914 68.2742 50.2629 68.0147 50.5203C65.3332 53.7797 61.1813 55.9241 56.5968 55.9241C50.1095 55.9241 44.5737 51.7211 42.5842 45.9742C42.3247 45.1165 42.9302 44.2587 43.7952 44.2587H58.6728H71.0421H75.886C76.578 44.2587 77.097 43.7441 77.1834 43.0579C77.2699 42.4575 77.2699 41.8571 77.2699 41.3424C77.2699 30.1917 68.2741 21.0996 57.0293 20.9281C45.4386 20.7565 35.8374 30.1917 36.0104 41.7713C36.1834 52.922 45.3521 61.8425 56.5968 61.8425C64.0357 61.8425 70.5231 57.9826 74.156 52.15C74.675 51.2922 74.0695 50.1772 73.0315 50.1772L69.0526 50.0914ZM56.5968 26.7608C63.0842 26.7608 68.6202 30.9637 70.6096 36.7106C70.8691 37.5683 70.2636 38.4261 69.3986 38.4261H43.8817C43.0167 38.4261 42.4112 37.5683 42.6707 36.7106C44.5736 30.9637 50.1095 26.7608 56.5968 26.7608Z" fill="url(#paint2_linear_2181_30802)"/>
<defs>
<linearGradient id="paint0_linear_2181_30802" x1="56.6188" y1="2.34245" x2="56.6188" y2="80.3671" gradientUnits="userSpaceOnUse">
<stop stop-color="white"/>
<stop offset="0.0185" stop-color="#FFFDF7"/>
<stop offset="0.0477" stop-color="#FFF8E0"/>
<stop offset="0.0839" stop-color="#FFF0BB"/>
<stop offset="0.1257" stop-color="#FFE688"/>
<stop offset="0.1676" stop-color="#FFD94D"/>
<stop offset="0.5555" stop-color="#D6824A"/>
<stop offset="0.8573" stop-color="#B84448"/>
<stop offset="1" stop-color="#AD2C47"/>
</linearGradient>
<linearGradient id="paint1_linear_2181_30802" x1="56.6214" y1="74.0347" x2="56.6214" y2="8.66175" gradientUnits="userSpaceOnUse">
<stop stop-color="white"/>
<stop offset="0.0185" stop-color="#FFFDF7"/>
<stop offset="0.0477" stop-color="#FFF8E0"/>
<stop offset="0.0839" stop-color="#FFF0BB"/>
<stop offset="0.1257" stop-color="#FFE688"/>
<stop offset="0.1676" stop-color="#FFD94D"/>
<stop offset="0.5555" stop-color="#D6824A"/>
<stop offset="0.8573" stop-color="#B84448"/>
<stop offset="1" stop-color="#AD2C47"/>
</linearGradient>
<linearGradient id="paint2_linear_2181_30802" x1="66.9256" y1="59.0472" x2="46.5866" y2="23.5216" gradientUnits="userSpaceOnUse">
<stop stop-color="#FBC926"/>
<stop offset="0.0416" stop-color="#FCCF42"/>
<stop offset="0.1317" stop-color="#FDE08A"/>
<stop offset="0.2627" stop-color="#FFFAFD"/>
<stop offset="0.2654" stop-color="#FFFBFF"/>
<stop offset="0.3313" stop-color="#EFDABF"/>
<stop offset="0.4004" stop-color="#DFBA83"/>
<stop offset="0.4638" stop-color="#D3A253"/>
<stop offset="0.5195" stop-color="#CA9031"/>
<stop offset="0.5653" stop-color="#C5851C"/>
<stop offset="0.5955" stop-color="#C38114"/>
<stop offset="0.8667" stop-color="#FEDD58"/>
<stop offset="0.8708" stop-color="#FFDE59"/>
<stop offset="0.9046" stop-color="#FFE88C"/>
<stop offset="0.9496" stop-color="#FFF4CA"/>
<stop offset="0.9827" stop-color="#FFFCF0"/>
<stop offset="1" stop-color="white"/>
</linearGradient>
</defs>
</svg>
