<svg width="200" height="207" viewBox="0 0 200 207" fill="none" xmlns="http://www.w3.org/2000/svg">
<path d="M100.112 206.382C95.4915 206.382 90.9515 205.132 86.9815 202.782L64.9215 189.682L64.8315 189.622C61.9215 187.672 60.0715 184.072 59.9115 180.122L55.3915 177.842L55.3015 177.792C51.5315 175.642 49.1815 171.462 49.1815 166.892V121.502L45.4915 119.372C43.6715 118.322 42.0116 117.042 40.5316 115.552H34.2715C31.5015 115.552 29.0415 113.902 28.1415 111.442L21.0215 91.9819C20.4115 90.3219 20.5816 88.5419 21.4615 87.0319C19.8116 86.3719 18.4915 85.0719 17.8815 83.4119L11.3215 65.4919C10.7115 63.8319 10.8815 62.0519 11.7615 60.5419C10.1115 59.8819 8.79152 58.5819 8.18152 56.9219L1.06153 37.4619C0.401526 35.6519 0.661548 33.6919 1.77155 32.0919C2.97155 30.3719 5.00153 29.3519 7.19153 29.3519H44.5316C44.8516 29.1419 45.1715 28.9419 45.4815 28.7619L88.1815 4.11188C91.8015 2.02188 95.9215 0.921875 100.102 0.921875C104.282 0.921875 108.402 2.02188 112.022 4.11188L154.712 28.7619C155.022 28.9419 155.342 29.1419 155.672 29.3519H193.012C195.202 29.3519 197.232 30.3819 198.432 32.0919C199.552 33.6919 199.812 35.6419 199.142 37.4619L192.022 56.9219C191.412 58.5819 190.092 59.8719 188.442 60.5419C189.332 62.0519 189.492 63.8319 188.882 65.4919L182.322 83.4119C181.712 85.0719 180.392 86.3719 178.742 87.0319C179.632 88.5419 179.792 90.3219 179.182 91.9819L172.062 111.442C171.162 113.902 168.702 115.552 165.932 115.552H159.672C158.192 117.042 156.532 118.322 154.712 119.372L151.032 121.502V166.892C151.032 171.462 148.691 175.642 144.911 177.792L144.822 177.842L140.302 180.122C140.142 184.062 138.282 187.672 135.382 189.622L135.292 189.682L113.232 202.782C109.262 205.142 104.722 206.382 100.102 206.382H100.112Z" fill="white"/>
<path d="M182.762 61.3906H17.4518C15.7818 61.3906 14.5918 62.7606 15.0918 64.1206L21.6518 82.0406C21.9718 82.9206 22.9318 83.5206 24.0118 83.5206H176.202C177.282 83.5206 178.242 82.9206 178.562 82.0406L185.122 64.1206C185.622 62.7706 184.422 61.3906 182.762 61.3906Z" fill="#F49D3D"/>
<path d="M188.262 55.5494L195.382 36.0894C195.882 34.7394 194.682 33.3594 193.022 33.3594H7.20176C5.53176 33.3594 4.34178 34.7294 4.84178 36.0894L11.9618 55.5494C12.2818 56.4294 13.2418 57.0294 14.3218 57.0294H185.902C186.982 57.0294 187.942 56.4294 188.262 55.5494Z" fill="#F49D3D"/>
<path d="M24.7815 90.6128L31.9015 110.073C32.2215 110.953 33.1815 111.553 34.2615 111.553H165.931C167.011 111.553 167.971 110.953 168.291 110.073L175.411 90.6128C175.911 89.2628 174.711 87.8828 173.051 87.8828H27.1314C25.4614 87.8828 24.2715 89.2528 24.7715 90.6128H24.7815Z" fill="#F49D3D"/>
<path d="M139.44 51.2422H60.7697C56.5797 51.2422 53.1797 54.9822 53.1797 59.6022V166.892C53.1797 170.012 54.7597 172.882 57.2797 174.312L85.7497 188.672C94.5997 193.142 105.61 193.142 114.47 188.672L142.94 174.312C145.46 172.872 147.04 170.012 147.04 166.892V59.6022C147.04 54.9822 143.64 51.2422 139.45 51.2422H139.44Z" fill="#F49D3D"/>
<path d="M100.11 199.52C96.72 199.52 93.4 198.61 90.49 196.88L68.6 183.89C67.49 183.11 66.75 181.38 66.75 179.56V82.1697C66.75 79.3797 68.33 77.4297 69.75 77.4297H130.46C131.88 77.4297 133.46 79.3697 133.46 82.1697V179.56C133.46 181.38 132.72 183.11 131.62 183.89L109.73 196.88C106.82 198.61 103.49 199.52 100.11 199.52Z" fill="#FFF9EE"/>
<path d="M130.081 80.2803C130.281 80.5403 130.611 81.1603 130.611 82.1603V179.55C130.611 180.64 130.201 181.33 130.011 181.52L108.271 194.42C105.801 195.89 102.981 196.66 100.101 196.66C97.2206 196.66 94.4006 195.88 91.9306 194.42L70.2006 181.52C70.0106 181.33 69.6006 180.64 69.6006 179.55V82.1603C69.6006 81.1603 69.9306 80.5303 70.1306 80.2803H130.081ZM130.461 74.5703H69.7506C66.5206 74.5703 63.8906 77.9703 63.8906 82.1603V179.55C63.8906 182.38 65.1106 184.98 67.0506 186.29L89.0206 199.33C92.4306 201.36 96.2706 202.37 100.101 202.37C103.931 202.37 107.761 201.36 111.181 199.33L133.151 186.29C135.091 184.99 136.311 182.39 136.311 179.55V82.1603C136.311 77.9703 133.691 74.5703 130.451 74.5703H130.461Z" fill="#D3C8B8"/>
<path d="M182.762 61.3906H17.4518C15.7818 61.3906 14.5918 62.7606 15.0918 64.1206L21.6518 82.0406C21.9718 82.9206 22.9318 83.5206 24.0118 83.5206H176.202C177.282 83.5206 178.242 82.9206 178.562 82.0406L185.122 64.1206C185.622 62.7706 184.422 61.3906 182.762 61.3906Z" fill="#FFC943"/>
<mask id="mask0_4977_91264" style="mask-type:luminance" maskUnits="userSpaceOnUse" x="14" y="61" width="172" height="23">
<path d="M182.762 61.3906H17.4518C15.7818 61.3906 14.5918 62.7606 15.0918 64.1206L21.6518 82.0406C21.9718 82.9206 22.9318 83.5206 24.0118 83.5206H176.202C177.282 83.5206 178.242 82.9206 178.562 82.0406L185.122 64.1206C185.622 62.7706 184.422 61.3906 182.762 61.3906Z" fill="white"/>
</mask>
<g mask="url(#mask0_4977_91264)">
<path d="M182.762 71.7109H17.4518C15.7818 71.7109 14.5918 72.4409 15.0918 73.1609L21.6518 82.7209C21.9718 83.1909 22.9318 83.5109 24.0118 83.5109H176.202C177.282 83.5109 178.242 83.1909 178.562 82.7209L185.122 73.1609C185.622 72.4409 184.422 71.7109 182.762 71.7109Z" fill="#EFAC35"/>
</g>
<path d="M188.262 55.5494L195.382 36.0894C195.882 34.7394 194.682 33.3594 193.022 33.3594H7.20176C5.53176 33.3594 4.34178 34.7294 4.84178 36.0894L11.9618 55.5494C12.2818 56.4294 13.2418 57.0294 14.3218 57.0294H185.902C186.982 57.0294 187.942 56.4294 188.262 55.5494Z" fill="#FFC943"/>
<mask id="mask1_4977_91264" style="mask-type:luminance" maskUnits="userSpaceOnUse" x="4" y="33" width="192" height="25">
<path d="M188.262 55.5494L195.382 36.0894C195.882 34.7394 194.682 33.3594 193.022 33.3594H7.20176C5.53176 33.3594 4.34178 34.7294 4.84178 36.0894L11.9618 55.5494C12.2818 56.4294 13.2418 57.0294 14.3218 57.0294H185.902C186.982 57.0294 187.942 56.4294 188.262 55.5494Z" fill="white"/>
</mask>
<g mask="url(#mask1_4977_91264)">
<path d="M188.262 56.2931L195.382 46.5631C195.882 45.8831 194.682 45.2031 193.022 45.2031H7.20176C5.53176 45.2031 4.34178 45.8931 4.84178 46.5631L11.9618 56.2931C12.2818 56.7331 13.2418 57.0331 14.3218 57.0331H185.902C186.982 57.0331 187.942 56.7331 188.262 56.2931Z" fill="#EFAC35"/>
</g>
<path d="M24.7815 90.6128L31.9015 110.073C32.2215 110.953 33.1815 111.553 34.2615 111.553H165.931C167.011 111.553 167.971 110.953 168.291 110.073L175.411 90.6128C175.911 89.2628 174.711 87.8828 173.051 87.8828H27.1314C25.4614 87.8828 24.2715 89.2528 24.7715 90.6128H24.7815Z" fill="#FFC943"/>
<mask id="mask2_4977_91264" style="mask-type:luminance" maskUnits="userSpaceOnUse" x="24" y="87" width="152" height="25">
<path d="M24.7815 90.6128L31.9015 110.073C32.2215 110.953 33.1815 111.553 34.2615 111.553H165.931C167.011 111.553 167.971 110.953 168.291 110.073L175.411 90.6128C175.911 89.2628 174.711 87.8828 173.051 87.8828H27.1314C25.4614 87.8828 24.2715 89.2528 24.7715 90.6128H24.7815Z" fill="white"/>
</mask>
<g mask="url(#mask2_4977_91264)">
<path d="M24.7815 101.071L31.9015 110.801C32.2215 111.241 33.1815 111.541 34.2615 111.541H165.931C167.011 111.541 167.971 111.241 168.291 110.801L175.411 101.071C175.911 100.391 174.711 99.7109 173.051 99.7109H27.1314C25.4614 99.7109 24.2715 100.401 24.7715 101.071H24.7815Z" fill="#EFAC35"/>
</g>
<path d="M162.628 98.7224V49.4225C162.628 42.3325 158.848 35.7925 152.708 32.2425L110.018 7.5925C103.878 4.0525 96.3181 4.0525 90.1881 7.5925L47.4981 32.2425C41.3581 35.7825 37.5781 42.3325 37.5781 49.4225V98.7224C37.5781 105.812 41.3581 112.352 47.4981 115.902L90.1881 140.552C96.3281 144.092 103.888 144.092 110.018 140.552L152.708 115.902C158.848 112.362 162.628 105.812 162.628 98.7224Z" fill="url(#paint0_linear_4977_91264)"/>
<path d="M152.489 53.4237V94.7237C152.489 100.664 149.319 106.144 144.179 109.114L108.409 129.764C103.269 132.734 96.9388 132.734 91.7988 129.764L56.0288 109.114C50.8888 106.144 47.7188 100.664 47.7188 94.7237V53.4237C47.7188 47.4837 50.8888 42.0038 56.0288 39.0338L91.7988 18.3837C96.9388 15.4137 103.269 15.4137 108.409 18.3837L144.179 39.0338C149.319 42.0038 152.489 47.4837 152.489 53.4237Z" fill="url(#paint1_linear_4977_91264)"/>
<path d="M147.035 55.5725V92.5625C147.035 97.8825 144.195 102.793 139.595 105.453L107.555 123.953C102.955 126.613 97.2753 126.613 92.6753 123.953L60.6353 105.453C56.0353 102.793 53.1953 97.8825 53.1953 92.5625V55.5725C53.1953 50.2525 56.0353 45.3425 60.6353 42.6825L92.6753 24.1825C97.2753 21.5225 102.955 21.5225 107.555 24.1825L139.595 42.6825C144.195 45.3425 147.035 50.2525 147.035 55.5725Z" fill="#251F3A"/>
<path d="M121.932 89.5732C121.252 89.5732 120.612 89.8732 120.182 90.3932C115.442 96.2232 108.212 99.9432 100.112 99.9432C88.6723 99.9432 78.9723 92.5232 75.5523 82.2332C75.0623 80.7632 76.1523 79.2432 77.7023 79.2432H103.802H125.472H133.932C135.112 79.2432 136.092 78.3432 136.192 77.1732C136.282 76.1532 136.322 75.1232 136.322 74.0732C136.322 54.3032 120.472 38.2332 100.782 37.8732C80.3323 37.5032 63.5423 54.3032 63.9123 74.7432C64.2723 94.4332 80.3423 110.283 100.112 110.283C113.152 110.283 124.582 103.383 130.962 93.0432C131.892 91.5332 130.812 89.5732 129.032 89.5732H121.932ZM100.112 48.2032C111.552 48.2032 121.252 55.6232 124.672 65.9132C125.162 67.3832 124.072 68.9032 122.522 68.9032H77.6923C76.1423 68.9032 75.0523 67.3832 75.5423 65.9132C78.9623 55.6232 88.6623 48.2032 100.102 48.2032H100.112Z" fill="url(#paint2_linear_4977_91264)"/>
<path d="M92.7921 151.536V181.07H89.2156V155.285H89.0426L81.832 160.073V156.439L89.2156 151.536H92.7921ZM110.919 181.474C108.747 181.474 106.896 180.883 105.367 179.7C103.839 178.508 102.671 176.782 101.863 174.523C101.055 172.254 100.652 169.514 100.652 166.303C100.652 163.111 101.055 160.386 101.863 158.126C102.68 155.857 103.853 154.127 105.382 152.935C106.92 151.733 108.766 151.132 110.919 151.132C113.073 151.132 114.914 151.733 116.443 152.935C117.981 154.127 119.154 155.857 119.962 158.126C120.779 160.386 121.187 163.111 121.187 166.303C121.187 169.514 120.784 172.254 119.976 174.523C119.168 176.782 118 178.508 116.472 179.7C114.943 180.883 113.092 181.474 110.919 181.474ZM110.919 178.301C113.073 178.301 114.746 177.263 115.938 175.186C117.13 173.11 117.726 170.149 117.726 166.303C117.726 163.746 117.452 161.568 116.904 159.77C116.366 157.972 115.587 156.602 114.568 155.66C113.559 154.718 112.342 154.247 110.919 154.247C108.785 154.247 107.117 155.3 105.915 157.405C104.714 159.501 104.113 162.467 104.113 166.303C104.113 168.86 104.382 171.033 104.92 172.821C105.459 174.61 106.233 175.97 107.242 176.903C108.261 177.835 109.487 178.301 110.919 178.301Z" fill="#F49D3D"/>
<defs>
<linearGradient id="paint0_linear_4977_91264" x1="100.098" y1="4.9425" x2="100.098" y2="143.212" gradientUnits="userSpaceOnUse">
<stop stop-color="white"/>
<stop offset="0.02" stop-color="#FFFDF6"/>
<stop offset="0.05" stop-color="#FFF8E0"/>
<stop offset="0.08" stop-color="#FFF0BB"/>
<stop offset="0.13" stop-color="#FFE587"/>
<stop offset="0.17" stop-color="#FFD94D"/>
<stop offset="0.56" stop-color="#D58149"/>
<stop offset="0.86" stop-color="#B84347"/>
<stop offset="1" stop-color="#AD2C47"/>
</linearGradient>
<linearGradient id="paint1_linear_4977_91264" x1="100.109" y1="131.994" x2="100.109" y2="16.1637" gradientUnits="userSpaceOnUse">
<stop stop-color="white"/>
<stop offset="0.02" stop-color="#FFFDF6"/>
<stop offset="0.05" stop-color="#FFF8E0"/>
<stop offset="0.08" stop-color="#FFF0BB"/>
<stop offset="0.13" stop-color="#FFE587"/>
<stop offset="0.17" stop-color="#FFD94D"/>
<stop offset="0.56" stop-color="#D58149"/>
<stop offset="0.86" stop-color="#B84347"/>
<stop offset="1" stop-color="#AD2C47"/>
</linearGradient>
<linearGradient id="paint2_linear_4977_91264" x1="118.212" y1="105.433" x2="82.0123" y2="42.7432" gradientUnits="userSpaceOnUse">
<stop stop-color="#FBC926"/>
<stop offset="0.04" stop-color="#FBCF42"/>
<stop offset="0.13" stop-color="#FCE08A"/>
<stop offset="0.26" stop-color="#FEFAFC"/>
<stop offset="0.27" stop-color="#FFFBFF"/>
<stop offset="0.33" stop-color="#EED9BE"/>
<stop offset="0.4" stop-color="#DFBA82"/>
<stop offset="0.46" stop-color="#D3A152"/>
<stop offset="0.52" stop-color="#CA8F30"/>
<stop offset="0.57" stop-color="#C4841B"/>
<stop offset="0.6" stop-color="#C38114"/>
<stop offset="0.87" stop-color="#FFDE59"/>
<stop offset="0.9" stop-color="#FFE88B"/>
<stop offset="0.95" stop-color="#FFF4C9"/>
<stop offset="0.98" stop-color="#FFFCF0"/>
<stop offset="1" stop-color="white"/>
</linearGradient>
</defs>
</svg>
