<svg width="201" height="207" viewBox="0 0 201 207" fill="none" xmlns="http://www.w3.org/2000/svg">
<path d="M100.393 206.897C95.7425 206.897 91.1725 205.647 87.1825 203.267L64.9725 190.087L64.8825 190.027C61.9625 188.067 60.0925 184.437 59.9225 180.467L55.3725 178.177L55.2825 178.127C51.4825 175.957 49.1225 171.757 49.1225 167.157V121.467L45.4125 119.327C40.0625 116.237 36.1925 111.307 34.4425 105.497H23.9725C20.9825 105.497 18.3825 103.577 17.5025 100.727L11.0625 79.9772C10.4225 77.9272 10.8025 75.6772 12.0825 73.9472C12.1225 73.8872 12.1625 73.8372 12.2125 73.7772C10.1225 73.1272 8.43249 71.4972 7.75249 69.3072L0.742484 46.7372C0.102484 44.6872 0.482503 42.4372 1.7625 40.7072C3.0325 38.9772 5.07249 37.9472 7.22249 37.9472H36.0925C38.1925 33.8672 41.4325 30.4372 45.4225 28.1372L88.3925 3.32718C92.0325 1.22718 96.1825 0.117188 100.393 0.117188C104.603 0.117188 108.753 1.22718 112.393 3.32718L155.362 28.1372C159.352 30.4372 162.592 33.8672 164.692 37.9472H193.562C195.712 37.9472 197.753 38.9772 199.023 40.7072C200.293 42.4372 200.672 44.6872 200.042 46.7372L193.033 69.3072C192.353 71.4872 190.673 73.1272 188.572 73.7772C188.612 73.8372 188.663 73.8872 188.702 73.9472C189.973 75.6772 190.352 77.9272 189.722 79.9772L183.283 100.727C182.393 103.577 179.792 105.497 176.812 105.497H166.343C164.603 111.307 160.722 116.237 155.372 119.327L151.662 121.467V167.157C151.662 171.757 149.302 175.967 145.502 178.127L145.412 178.177L140.862 180.467C140.702 184.437 138.833 188.067 135.903 190.027L135.812 190.087L113.602 203.267C109.602 205.637 105.043 206.897 100.393 206.897Z" fill="white"/>
<path d="M183.243 75.2109H17.5428C15.6928 75.2109 14.3728 77.0009 14.9228 78.7709L21.3628 99.5209C21.7228 100.671 22.7828 101.451 23.9828 101.451H176.793C177.993 101.451 179.053 100.671 179.413 99.5209L185.853 78.7709C186.403 77.0009 185.083 75.2109 183.233 75.2109H183.243Z" fill="#102866"/>
<path d="M189.175 68.1144L196.185 45.5444C196.735 43.7744 195.415 41.9844 193.565 41.9844H7.21471C5.36471 41.9844 4.04471 43.7744 4.59471 45.5444L11.6047 68.1144C11.9647 69.2644 13.0247 70.0444 14.2247 70.0444H186.555C187.755 70.0444 188.815 69.2644 189.175 68.1144Z" fill="#102866"/>
<path d="M139.984 50.75H60.804C56.584 50.75 53.1641 54.52 53.1641 59.16V167.15C53.1641 170.29 54.7541 173.17 57.2841 174.62L85.9341 189.08C94.8441 193.58 105.924 193.58 114.834 189.08L143.484 174.62C146.014 173.17 147.604 170.29 147.604 167.15V59.16C147.604 54.51 144.184 50.75 139.964 50.75H139.984Z" fill="#102866"/>
<path d="M130.943 74.2266H69.8431C66.5831 74.2266 63.9531 77.6465 63.9531 81.8665V179.897C63.9531 182.747 65.1831 185.367 67.1331 186.677L89.2431 199.807C96.1131 203.887 104.673 203.887 111.543 199.807L133.653 186.677C135.613 185.367 136.833 182.747 136.833 179.897V81.8665C136.833 77.6465 134.193 74.2266 130.943 74.2266Z" fill="#4460EA"/>
<path d="M163.321 98.5381V48.9181C163.321 41.7881 159.521 35.1981 153.341 31.6281L110.371 6.81813C104.191 3.24813 96.5809 3.24813 90.4109 6.81813L47.4409 31.6281C41.2609 35.1981 37.4609 41.7881 37.4609 48.9181V98.5381C37.4609 105.668 41.2609 112.258 47.4409 115.828L90.4109 140.638C96.5909 144.208 104.201 144.208 110.371 140.638L153.341 115.828C159.521 112.258 163.321 105.668 163.321 98.5381Z" fill="url(#paint0_linear_4977_91189)"/>
<path d="M153.112 52.9478V94.5178C153.112 100.488 149.922 106.018 144.752 108.998L108.752 129.778C103.582 132.768 97.2019 132.768 92.0319 129.778L56.0319 108.998C50.8619 106.008 47.6719 100.488 47.6719 94.5178V52.9478C47.6719 46.9778 50.8619 41.4478 56.0319 38.4678L92.0319 17.6878C97.2019 14.6978 103.582 14.6978 108.752 17.6878L144.752 38.4678C149.922 41.4578 153.112 46.9778 153.112 52.9478Z" fill="url(#paint1_linear_4977_91189)"/>
<path d="M147.616 55.1078V92.3478C147.616 97.6978 144.756 102.648 140.126 105.318L107.876 123.938C103.246 126.618 97.5263 126.618 92.8963 123.938L60.6463 105.318C56.0163 102.638 53.1562 97.6978 53.1562 92.3478V55.1078C53.1562 49.7578 56.0163 44.8078 60.6463 42.1378L92.8963 23.5178C97.5263 20.8378 103.246 20.8378 107.876 23.5178L140.126 42.1378C144.756 44.8178 147.616 49.7578 147.616 55.1078Z" fill="#251F3A"/>
<path d="M122.356 89.3272C121.676 89.3272 121.026 89.6272 120.596 90.1572C115.816 96.0272 108.546 99.7672 100.386 99.7672C88.876 99.7672 79.106 92.2972 75.666 81.9372C75.176 80.4572 76.266 78.9272 77.826 78.9272H104.096H125.906H134.416C135.596 78.9272 136.586 78.0272 136.686 76.8472C136.776 75.8172 136.816 74.7772 136.816 73.7272C136.816 53.8272 120.866 37.6472 101.046 37.2872C80.466 36.9172 63.556 53.8172 63.936 74.3972C64.296 94.2172 80.476 110.167 100.376 110.167C113.506 110.167 125.006 103.227 131.426 92.8172C132.366 91.2972 131.276 89.3272 129.486 89.3272H122.336H122.356ZM100.396 47.6872C111.906 47.6872 121.676 55.1572 125.116 65.5172C125.606 66.9972 124.516 68.5272 122.956 68.5272H77.836C76.276 68.5272 75.186 66.9972 75.676 65.5172C79.116 55.1572 88.886 47.6872 100.396 47.6872Z" fill="white"/>
<path d="M92.3807 175.451V172.509L105.36 151.973H107.494V156.53H106.052L96.2456 172.048V172.278H113.724V175.451H92.3807ZM106.283 181.508V174.557V173.187V151.973H109.686V181.508H106.283Z" fill="white"/>
<defs>
<linearGradient id="paint0_linear_4977_91189" x1="100.391" y1="143.318" x2="100.391" y2="4.14812" gradientUnits="userSpaceOnUse">
<stop stop-color="#270073"/>
<stop offset="1" stop-color="#008BFF"/>
</linearGradient>
<linearGradient id="paint1_linear_4977_91189" x1="100.392" y1="15.4378" x2="100.392" y2="132.028" gradientUnits="userSpaceOnUse">
<stop stop-color="#270073"/>
<stop offset="1" stop-color="#008BFF"/>
</linearGradient>
</defs>
</svg>
