<svg width="201" height="207" viewBox="0 0 201 207" fill="none" xmlns="http://www.w3.org/2000/svg">
<path d="M100.35 206.979C95.6995 206.979 91.1296 205.729 87.1396 203.349L64.9296 190.169L64.8396 190.109C61.9196 188.149 60.0496 184.519 59.8796 180.549L55.3296 178.259L55.2396 178.209C51.4396 176.039 49.0796 171.839 49.0796 167.239V121.549L45.3696 119.409C43.5396 118.349 41.8696 117.069 40.3796 115.569H34.0796C31.2996 115.569 28.8195 113.909 27.9095 111.439L20.7396 91.8488C20.1296 90.1788 20.2996 88.3888 21.1896 86.8688C19.5296 86.1988 18.1996 84.8988 17.5896 83.2288L10.9896 65.1988C10.3796 63.5288 10.5496 61.7388 11.4396 60.2188C9.77957 59.5488 8.44959 58.2488 7.83959 56.5788L0.669548 36.9888C-0.000451535 35.1688 0.25958 33.1988 1.38958 31.5888C2.59958 29.8588 4.63959 28.8288 6.83959 28.8288H44.4195C44.7495 28.6188 45.0596 28.4188 45.3796 28.2388L88.3495 3.42877C91.9895 1.32877 96.1395 0.21875 100.35 0.21875C104.56 0.21875 108.71 1.32877 112.35 3.42877L155.32 28.2388C155.64 28.4188 155.95 28.6188 156.28 28.8288H193.86C196.07 28.8288 198.1 29.8588 199.31 31.5888C200.43 33.1988 200.69 35.1688 200.03 36.9888L192.86 56.5688C192.25 58.2388 190.92 59.5388 189.26 60.2088C190.15 61.7288 190.32 63.5188 189.71 65.1888L183.11 83.2288C182.5 84.8988 181.17 86.1988 179.51 86.8688C180.4 88.3888 180.57 90.1788 179.96 91.8488L172.79 111.429C171.88 113.899 169.41 115.569 166.62 115.569H160.32C158.83 117.069 157.15 118.359 155.33 119.409L151.62 121.549V167.239C151.62 171.839 149.26 176.049 145.46 178.209L145.37 178.259L140.82 180.549C140.66 184.519 138.79 188.149 135.86 190.109L135.77 190.169L113.56 203.349C109.56 205.719 105 206.979 100.35 206.979Z" fill="white"/>
<path d="M183.541 61.0547H17.1508C15.4708 61.0547 14.2708 62.4347 14.7708 63.7947L21.3707 81.8347C21.6907 82.7147 22.6607 83.3247 23.7507 83.3247H176.931C178.021 83.3247 178.991 82.7247 179.311 81.8347L185.911 63.7947C186.411 62.4347 185.211 61.0547 183.531 61.0547H183.541Z" fill="#7A2511"/>
<path d="M189.08 55.1716L196.25 35.5916C196.75 34.2316 195.55 32.8516 193.87 32.8516H6.83046C5.15046 32.8516 3.95046 34.2316 4.45046 35.5916L11.6204 55.1716C11.9404 56.0516 12.9104 56.6616 14.0004 56.6616H186.7C187.79 56.6616 188.76 56.0616 189.08 55.1716Z" fill="#7A2511"/>
<path d="M24.5286 90.4509L31.6986 110.031C32.0186 110.911 32.9886 111.521 34.0786 111.521H166.609C167.699 111.521 168.669 110.921 168.989 110.031L176.159 90.4509C176.659 89.0909 175.459 87.7109 173.779 87.7109H26.9085C25.2285 87.7109 24.0286 89.0909 24.5286 90.4509Z" fill="#7A2511"/>
<path d="M139.937 50.8203H60.7572C56.5372 50.8203 53.1172 54.5903 53.1172 59.2303V167.22C53.1172 170.36 54.7072 173.24 57.2372 174.69L85.8872 189.15C94.7972 193.65 105.877 193.65 114.787 189.15L143.437 174.69C145.967 173.24 147.557 170.36 147.557 167.22V59.2303C147.557 54.5803 144.137 50.8203 139.917 50.8203H139.937Z" fill="#7A2511"/>
<path d="M130.896 74.3125H69.7963C66.5363 74.3125 63.9062 77.7325 63.9062 81.9525V179.982C63.9062 182.832 65.1363 185.453 67.0863 186.763L89.1963 199.893C96.0663 203.973 104.626 203.973 111.496 199.893L133.606 186.763C135.566 185.453 136.786 182.832 136.786 179.982V81.9525C136.786 77.7325 134.146 74.3125 130.896 74.3125Z" fill="#D85123"/>
<path d="M163.282 98.6162V48.9962C163.282 41.8662 159.482 35.2762 153.302 31.7062L110.332 6.89625C104.152 3.32625 96.5419 3.32625 90.3719 6.89625L47.4019 31.7062C41.2219 35.2762 37.4219 41.8662 37.4219 48.9962V98.6162C37.4219 105.746 41.2219 112.336 47.4019 115.906L90.3719 140.716C96.5519 144.286 104.162 144.286 110.332 140.716L153.302 115.906C159.482 112.336 163.282 105.746 163.282 98.6162Z" fill="url(#paint0_linear_4977_91238)"/>
<path d="M153.073 53.0181V94.5881C153.073 100.558 149.883 106.088 144.713 109.068L108.713 129.848C103.543 132.838 97.1628 132.838 91.9928 129.848L55.9928 109.068C50.8228 106.078 47.6328 100.558 47.6328 94.5881V53.0181C47.6328 47.0481 50.8228 41.5181 55.9928 38.5381L91.9928 17.7581C97.1628 14.7681 103.543 14.7681 108.713 17.7581L144.713 38.5381C149.883 41.5281 153.073 47.0481 153.073 53.0181Z" fill="url(#paint1_linear_4977_91238)"/>
<path d="M147.577 55.186V92.426C147.577 97.776 144.717 102.726 140.087 105.396L107.837 124.016C103.207 126.696 97.4872 126.696 92.8572 124.016L60.6072 105.396C55.9772 102.716 53.1172 97.776 53.1172 92.426V55.186C53.1172 49.836 55.9772 44.8859 60.6072 42.2159L92.8572 23.5959C97.4872 20.9159 103.207 20.9159 107.837 23.5959L140.087 42.2159C144.717 44.8959 147.577 49.836 147.577 55.186Z" fill="#251F3A"/>
<path d="M122.309 89.4053C121.629 89.4053 120.979 89.7053 120.549 90.2353C115.769 96.1053 108.499 99.8453 100.339 99.8453C88.8291 99.8453 79.0591 92.3754 75.6191 82.0154C75.1291 80.5354 76.2191 79.0054 77.7791 79.0054H104.049H125.859H134.369C135.549 79.0054 136.539 78.1053 136.639 76.9253C136.729 75.8953 136.769 74.8553 136.769 73.8053C136.769 53.9053 120.819 37.7253 100.999 37.3653C80.4191 36.9953 63.5091 53.8953 63.8891 74.4753C64.2491 94.2953 80.4291 110.245 100.329 110.245C113.459 110.245 124.959 103.305 131.379 92.8954C132.319 91.3754 131.229 89.4053 129.439 89.4053H122.289H122.309ZM100.349 47.7554C111.859 47.7554 121.629 55.2254 125.069 65.5854C125.559 67.0654 124.469 68.5953 122.909 68.5953H77.7891C76.2291 68.5953 75.1391 67.0654 75.6291 65.5854C79.0691 55.2254 88.8391 47.7554 100.349 47.7554Z" fill="white"/>
<path d="M102.486 181.982C100.506 181.982 98.756 181.631 97.237 180.929C95.7276 180.218 94.5499 179.242 93.7038 178.002C92.8578 176.752 92.4396 175.329 92.4492 173.733C92.4396 172.483 92.6847 171.329 93.1847 170.272C93.6846 169.205 94.3672 168.315 95.2325 167.604C96.1074 166.883 97.0832 166.426 98.16 166.234V166.061C96.7467 165.696 95.6218 164.902 94.7854 163.681C93.949 162.451 93.5356 161.052 93.5452 159.485C93.5356 157.985 93.9153 156.644 94.6845 155.461C95.4536 154.279 96.5112 153.346 97.8571 152.664C99.2127 151.981 100.756 151.64 102.486 151.64C104.198 151.64 105.726 151.981 107.072 152.664C108.418 153.346 109.476 154.279 110.245 155.461C111.024 156.644 111.418 157.985 111.427 159.485C111.418 161.052 110.99 162.451 110.144 163.681C109.308 164.902 108.197 165.696 106.813 166.061V166.234C107.88 166.426 108.841 166.883 109.697 167.604C110.553 168.315 111.235 169.205 111.745 170.272C112.254 171.329 112.514 172.483 112.523 173.733C112.514 175.329 112.081 176.752 111.226 178.002C110.38 179.242 109.202 180.218 107.692 180.929C106.193 181.631 104.457 181.982 102.486 181.982ZM102.486 178.809C103.823 178.809 104.976 178.593 105.947 178.16C106.918 177.728 107.668 177.117 108.197 176.329C108.726 175.54 108.995 174.618 109.005 173.56C108.995 172.445 108.707 171.459 108.139 170.604C107.572 169.748 106.798 169.075 105.818 168.585C104.847 168.094 103.736 167.849 102.486 167.849C101.227 167.849 100.102 168.094 99.1118 168.585C98.1311 169.075 97.3572 169.748 96.79 170.604C96.2323 171.459 95.9583 172.445 95.968 173.56C95.9583 174.618 96.2131 175.54 96.7323 176.329C97.2611 177.117 98.0158 177.728 98.9964 178.16C99.977 178.593 101.14 178.809 102.486 178.809ZM102.486 164.792C103.544 164.792 104.481 164.58 105.298 164.157C106.125 163.734 106.774 163.143 107.245 162.384C107.716 161.624 107.957 160.735 107.966 159.716C107.957 158.716 107.721 157.846 107.26 157.105C106.798 156.356 106.159 155.779 105.342 155.375C104.525 154.961 103.573 154.755 102.486 154.755C101.381 154.755 100.414 154.961 99.5877 155.375C98.7609 155.779 98.1215 156.356 97.6697 157.105C97.2178 157.846 96.9967 158.716 97.0063 159.716C96.9967 160.735 97.2226 161.624 97.6841 162.384C98.1552 163.143 98.8041 163.734 99.6309 164.157C100.458 164.58 101.41 164.792 102.486 164.792Z" fill="white"/>
<defs>
<linearGradient id="paint0_linear_4977_91238" x1="100.352" y1="143.386" x2="100.352" y2="4.22625" gradientUnits="userSpaceOnUse">
<stop stop-color="#34001F"/>
<stop offset="1" stop-color="#FF7A2B"/>
</linearGradient>
<linearGradient id="paint1_linear_4977_91238" x1="100.353" y1="15.5081" x2="100.353" y2="132.098" gradientUnits="userSpaceOnUse">
<stop stop-color="#34001F"/>
<stop offset="1" stop-color="#FF7A2B"/>
</linearGradient>
</defs>
</svg>
