<svg width="135" height="207" viewBox="0 0 135 207" fill="none" xmlns="http://www.w3.org/2000/svg">
<path d="M122.471 28.0669L79.5012 3.25687C75.8612 1.15687 71.7112 0.046875 67.5012 0.046875C63.2912 0.046875 59.1412 1.15687 55.5012 3.25687L12.5312 28.0669C5.13125 32.3369 0.53125 40.3069 0.53125 48.8469V98.4669C0.53125 107.017 5.13125 114.977 12.5312 119.247L27.0212 127.617V179.827C27.0212 184.017 28.9212 187.897 31.9912 189.957L32.0812 190.017L54.2912 203.197C58.2912 205.567 62.8512 206.827 67.5012 206.827C72.1512 206.827 76.7212 205.577 80.7112 203.197L102.921 190.017L103.011 189.957C106.071 187.897 107.981 184.017 107.981 179.827V127.617L122.471 119.247C129.871 114.977 134.471 107.007 134.471 98.4669V48.8469C134.471 40.2969 129.871 32.3369 122.471 28.0669Z" fill="white"/>
<path d="M98.0525 74.1562H36.9525C33.6925 74.1562 31.0625 77.5762 31.0625 81.7962V179.826C31.0625 182.676 32.2925 185.296 34.2425 186.606L56.3525 199.736C63.2225 203.816 71.7825 203.816 78.6525 199.736L100.763 186.606C102.723 185.296 103.943 182.676 103.943 179.826V81.7962C103.943 77.5762 101.302 74.1562 98.0525 74.1562Z" fill="#458C38"/>
<path d="M130.438 98.4678V48.8478C130.438 41.7178 126.638 35.1278 120.458 31.5578L77.4881 6.74781C71.3081 3.17781 63.6981 3.17781 57.5281 6.74781L14.5581 31.5578C8.37811 35.1278 4.57812 41.7178 4.57812 48.8478V98.4678C4.57812 105.598 8.37811 112.188 14.5581 115.758L57.5281 140.568C63.7081 144.138 71.3181 144.138 77.4881 140.568L120.458 115.758C126.638 112.188 130.438 105.598 130.438 98.4678Z" fill="url(#paint0_linear_4977_91165)"/>
<path d="M120.229 52.8697V94.4397C120.229 100.41 117.039 105.94 111.869 108.92L75.8691 129.7C70.6991 132.69 64.3191 132.69 59.1491 129.7L23.1491 108.92C17.9791 105.93 14.7891 100.41 14.7891 94.4397V52.8697C14.7891 46.8997 17.9791 41.3697 23.1491 38.3897L59.1491 17.6097C64.3191 14.6197 70.6991 14.6197 75.8691 17.6097L111.869 38.3897C117.039 41.3797 120.229 46.8997 120.229 52.8697Z" fill="url(#paint1_linear_4977_91165)"/>
<path d="M114.733 55.0375V92.2775C114.733 97.6275 111.873 102.578 107.243 105.248L74.9934 123.868C70.3634 126.548 64.6434 126.548 60.0134 123.868L27.7634 105.248C23.1334 102.568 20.2734 97.6275 20.2734 92.2775V55.0375C20.2734 49.6875 23.1334 44.7375 27.7634 42.0675L60.0134 23.4475C64.6434 20.7675 70.3634 20.7675 74.9934 23.4475L107.243 42.0675C111.873 44.7475 114.733 49.6875 114.733 55.0375Z" fill="#251F3A"/>
<path d="M89.4731 89.2569C88.7931 89.2569 88.1432 89.5569 87.7132 90.0869C82.9332 95.9569 75.6632 99.6969 67.5032 99.6969C55.9932 99.6969 46.2232 92.2269 42.7832 81.8669C42.2932 80.3869 43.3832 78.8569 44.9432 78.8569H71.2132H93.0232H101.533C102.713 78.8569 103.703 77.9569 103.803 76.7769C103.893 75.7469 103.933 74.7069 103.933 73.6569C103.933 53.7569 87.9831 37.5769 68.1631 37.2169C47.5831 36.8469 30.6732 53.7469 31.0532 74.3269C31.4132 94.1469 47.5932 110.097 67.4932 110.097C80.6232 110.097 92.1231 103.157 98.5431 92.7469C99.4831 91.2269 98.3931 89.2569 96.6031 89.2569H89.4532H89.4731ZM67.5032 47.6169C79.0132 47.6169 88.7831 55.0869 92.2231 65.4469C92.7131 66.9269 91.6232 68.4569 90.0632 68.4569H44.9432C43.3832 68.4569 42.2932 66.9269 42.7832 65.4469C46.2232 55.0869 55.9932 47.6169 67.5032 47.6169Z" fill="white"/>
<path d="M70.5655 151.903V181.438H66.9891V155.652H66.816L59.6054 160.44V156.806L66.9891 151.903H70.5655Z" fill="white"/>
<defs>
<linearGradient id="paint0_linear_4977_91165" x1="67.4981" y1="143.248" x2="67.4981" y2="4.07781" gradientUnits="userSpaceOnUse">
<stop stop-color="#003232"/>
<stop offset="1" stop-color="#78D700"/>
</linearGradient>
<linearGradient id="paint1_linear_4977_91165" x1="67.4991" y1="15.3697" x2="67.4991" y2="131.96" gradientUnits="userSpaceOnUse">
<stop stop-color="#003232"/>
<stop offset="1" stop-color="#78D700"/>
</linearGradient>
</defs>
</svg>
