<svg width="27" height="25" viewBox="0 0 27 25" fill="none" xmlns="http://www.w3.org/2000/svg">
<g opacity="0.5">
<path d="M0.101562 7.2998C8.90156 7.2998 17.7016 7.2998 26.5016 7.2998C26.5016 7.3998 26.5016 7.5998 26.5016 7.6998C26.5016 12.4998 26.5016 17.1998 26.5016 21.9998C26.5016 23.5998 25.4016 24.7998 23.8016 24.7998C23.7016 24.7998 23.6016 24.7998 23.5016 24.7998C16.5016 24.7998 9.60156 24.7998 2.60156 24.7998C0.801563 24.7998 0.101562 23.5998 0.101562 22.2998C0.101562 18.2998 0.101562 14.2998 0.101562 10.2998C0.101562 9.2998 0.101562 8.2998 0.101562 7.2998ZM21.3016 11.9998C21.3016 11.6998 21.3016 11.3998 21.3016 10.9998C21.3016 10.4998 21.1016 10.2998 20.6016 10.2998C19.9016 10.2998 19.3016 10.2998 18.6016 10.2998C18.2016 10.2998 17.9016 10.4998 17.9016 10.9998C17.9016 11.6998 17.9016 12.3998 17.9016 12.9998C17.9016 13.3998 18.1016 13.5998 18.5016 13.5998C19.2016 13.5998 19.9016 13.5998 20.6016 13.5998C21.0016 13.5998 21.2016 13.3998 21.2016 12.9998C21.3016 12.6998 21.3016 12.3998 21.3016 11.9998ZM13.0016 21.0998C13.3016 21.0998 13.7016 21.0998 14.0016 21.0998C14.4016 21.0998 14.6016 20.8998 14.7016 20.4998C14.7016 19.7998 14.7016 19.0998 14.7016 18.3998C14.7016 17.9998 14.4016 17.7998 14.0016 17.7998C13.3016 17.7998 12.6016 17.7998 12.0016 17.7998C11.6016 17.7998 11.3016 18.0998 11.3016 18.4998C11.3016 19.1998 11.3016 19.8998 11.3016 20.4998C11.3016 20.8998 11.6016 21.1998 12.0016 21.1998C12.3016 21.0998 12.6016 21.0998 13.0016 21.0998ZM19.6016 21.0998C19.9016 21.0998 20.3016 21.0998 20.6016 21.0998C21.1016 21.0998 21.3016 20.8998 21.3016 20.3998C21.3016 19.6998 21.3016 18.9998 21.3016 18.3998C21.3016 17.9998 21.1016 17.6998 20.6016 17.6998C19.9016 17.6998 19.2016 17.6998 18.6016 17.6998C18.2016 17.6998 17.9016 17.8998 17.9016 18.2998C17.9016 18.9998 17.9016 19.6998 17.9016 20.3998C17.9016 20.7998 18.2016 20.9998 18.6016 20.9998C18.9016 21.0998 19.2016 21.0998 19.6016 21.0998ZM13.0016 10.2998C12.7016 10.2998 12.3016 10.2998 12.0016 10.2998C11.5016 10.2998 11.3016 10.4998 11.3016 10.9998C11.3016 11.6998 11.3016 12.2998 11.3016 12.9998C11.3016 13.3998 11.5016 13.6998 11.9016 13.6998C12.6016 13.6998 13.3016 13.6998 14.1016 13.6998C14.5016 13.6998 14.7016 13.4998 14.7016 13.0998C14.7016 12.3998 14.7016 11.6998 14.7016 10.9998C14.7016 10.5998 14.4016 10.3998 14.0016 10.3998C13.6016 10.2998 13.3016 10.2998 13.0016 10.2998ZM4.80156 19.3998C4.80156 19.6998 4.80156 20.0998 4.80156 20.3998C4.80156 20.7998 5.10156 21.0998 5.50156 21.0998C6.10156 21.0998 6.80156 21.0998 7.40156 21.0998C7.90156 21.0998 8.20156 20.7998 8.20156 20.3998C8.20156 19.6998 8.20156 19.0998 8.20156 18.3998C8.20156 17.9998 7.90156 17.7998 7.50156 17.7998C6.80156 17.7998 6.10156 17.7998 5.50156 17.7998C5.10156 17.7998 4.90156 18.0998 4.80156 18.4998C4.80156 18.7998 4.80156 19.0998 4.80156 19.3998ZM4.80156 11.9998C4.80156 12.2998 4.80156 12.6998 4.80156 12.9998C4.80156 13.3998 5.00156 13.6998 5.50156 13.6998C6.20156 13.6998 6.80156 13.6998 7.50156 13.6998C7.90156 13.6998 8.20156 13.3998 8.20156 12.9998C8.20156 12.2998 8.20156 11.5998 8.20156 10.9998C8.20156 10.5998 7.90156 10.3998 7.50156 10.3998C6.80156 10.3998 6.20156 10.3998 5.50156 10.3998C5.10156 10.3998 4.80156 10.6998 4.80156 11.0998C4.80156 11.2998 4.80156 11.6998 4.80156 11.9998Z" fill="#685AAD"/>
<path d="M21.2 0.0999756C22.2 0.0999756 23.2 -2.44156e-05 24.1 0.0999756C25.2 0.199976 26.2 1.19998 26.4 2.19998C26.4 2.29998 26.4 2.4 26.4 2.5C26.4 3.5 26.4 4.49999 26.4 5.39999C17.6 5.39999 8.8 5.39999 0 5.39999C0 4.29999 0 3.19998 0 2.19998C0 1.99998 0.1 1.79998 0.1 1.59998C0.4 0.599976 1.2 0 2.2 0C3 0 3.7 0 4.5 0C4.5 0.1 4.5 0.199988 4.5 0.299988C4.5 0.999988 4.5 1.69999 4.5 2.39999C4.5 2.89999 4.9 3.29999 5.3 3.29999C5.7 3.29999 6.1 2.89999 6.1 2.39999C6.1 1.59999 6.1 0.8 6.1 0C10.5 0 14.9 0 19.3 0C19.3 0.1 19.3 0.199988 19.3 0.299988C19.3 0.999988 19.3 1.69999 19.3 2.39999C19.3 2.79999 19.5 3.09998 19.9 3.19998C20.2 3.29998 20.6 3.19999 20.8 2.89999C20.9 2.69999 21 2.49999 21 2.29999C21 1.59999 21 0.899988 21 0.299988C21.2 0.299988 21.2 0.199976 21.2 0.0999756Z" fill="#685AAD"/>
</g>
</svg>
