<svg width="25" height="25" viewBox="0 0 25 25" fill="none" xmlns="http://www.w3.org/2000/svg">
<path d="M16.9232 1C16.3661 1 15.9144 1.45164 15.9144 2.00877C15.9144 2.5659 16.3661 3.01755 16.9232 3.01755H20.5556L12.19 11.3832C11.796 11.7771 11.796 12.4159 12.19 12.8098C12.5839 13.2037 13.2227 13.2037 13.6166 12.8098L21.9822 4.44418V8.07658C21.9822 8.63372 22.4339 9.08532 22.991 9.08532C23.5482 9.08532 23.9998 8.63372 23.9998 8.07659V2.00877C23.9998 1.45165 23.5482 1 22.991 1H16.9232Z" fill="#8276BC" stroke="#8276BC" stroke-width="0.6"/>
<path d="M3.42105 7.05345C3.42105 6.3849 3.96303 5.84293 4.63158 5.84293H12.2982C12.9668 5.84293 13.5087 5.30095 13.5087 4.6324C13.5087 3.96385 12.9668 3.42188 12.2982 3.42188H4.63158C2.62592 3.42188 1 5.04779 1 7.05345V20.3692C1 22.375 2.62592 24.0008 4.63158 24.0008H17.9474C19.9531 24.0008 21.5789 22.375 21.5789 20.3692V13.4231C21.5789 12.7545 21.037 12.2126 20.3684 12.2126C19.6998 12.2126 19.1579 12.7545 19.1579 13.4231V20.3692C19.1579 21.0378 18.6159 21.5798 17.9474 21.5798H4.63158C3.96303 21.5798 3.42105 21.0378 3.42105 20.3692V7.05345Z" fill="#8276BC" stroke="#8276BC" stroke-width="0.6"/>
</svg>
