<svg width="26" height="26" viewBox="0 0 26 26" fill="none" xmlns="http://www.w3.org/2000/svg">
<path d="M19.9898 0.0100098C20.5198 0.14001 21.0598 0.230034 21.5698 0.410034C24.1198 1.30003 25.7698 4.12999 25.3298 6.79999C25.1198 8.06999 24.5898 9.18003 23.6898 10.09C21.8298 11.96 19.9898 13.84 18.0898 15.67C15.9498 17.73 12.2498 17.83 9.94979 15.55C9.28979 14.89 9.23978 13.89 9.84978 13.2C10.4198 12.55 11.4598 12.47 12.1598 13.03C12.5398 13.33 12.8998 13.64 13.3798 13.76C14.2798 13.99 15.0898 13.83 15.7798 13.21C16.3498 12.69 16.8798 12.13 17.4198 11.59C18.6898 10.32 19.9598 9.06004 21.2198 7.79004C22.4398 6.56004 22.1898 4.57999 20.7098 3.73999C19.7298 3.17999 18.4798 3.36 17.6298 4.19C16.6298 5.18 15.6298 6.16998 14.6498 7.16998C14.3898 7.42998 14.1598 7.49999 13.8198 7.35999C12.9998 7.02999 12.1398 6.90002 11.2498 6.90002C11.0298 6.90002 10.8598 6.85 10.7698 6.63C10.6798 6.42 10.7698 6.25999 10.9098 6.12C12.4398 4.6 13.9498 3.06 15.4998 1.56C16.3998 0.679998 17.5198 0.209988 18.7698 0.0499878C18.8298 0.0399878 18.8998 0.02 18.9598 0C19.2898 0.01 19.6398 0.0100098 19.9898 0.0100098Z" fill="#685AAD"/>
<path d="M0 19.0018C0.1 18.5318 0.18 18.0618 0.32 17.6118C0.6 16.6918 1.12 15.9118 1.8 15.2418C3.55 13.4918 5.3 11.7319 7.06 9.98187C9.08 7.97187 12.01 7.60182 14.4 9.06182C14.92 9.37182 15.42 9.72183 15.74 10.2518C16.16 10.9418 16.02 11.8318 15.44 12.3318C14.81 12.8818 13.9 12.9118 13.25 12.4019C12.88 12.1019 12.52 11.7918 12.03 11.6718C11.13 11.4418 10.33 11.6018 9.63 12.2118C9.42 12.3918 9.23 12.6018 9.03 12.8018C7.41 14.4218 5.79 16.0319 4.17 17.6619C3.16 18.6719 3.12 20.2319 4.06 21.2319C5.05 22.2919 6.68 22.3118 7.74 21.2718C8.63 20.3918 9.5 19.5118 10.39 18.6218C10.55 18.4618 10.72 18.2918 10.88 18.1318C11.03 17.9818 11.2 17.9418 11.4 18.0118C12.3 18.3618 13.24 18.5318 14.21 18.5218C14.41 18.5218 14.56 18.6019 14.64 18.7919C14.72 18.9919 14.64 19.1519 14.5 19.2819C13.95 19.8419 13.39 20.3918 12.84 20.9518C11.84 21.9418 10.88 22.9719 9.84 23.9119C8.48 25.1519 6.84 25.6318 5.02 25.3218C2.67 24.9318 1.11 23.5618 0.309999 21.3218C0.149999 20.8818 0.1 20.4118 0 19.9518C0 19.6318 0 19.3118 0 19.0018Z" fill="#685AAD"/>
</svg>
