<svg width="26" height="26" viewBox="0 0 26 26" fill="none" xmlns="http://www.w3.org/2000/svg">
<path d="M0 7.49645C0 9.49645 0.6 11.2964 1.9 12.6964C2.9 13.7964 3.9 14.6964 4.9 15.6964C5.6 16.3964 6.5 16.2964 7.2 15.6964C7.5 15.3964 7.8 15.0964 8.1 14.7964C8.3 14.5964 8.4 14.3964 8.5 14.1964C8.7 13.4964 8.5 12.9965 8 12.4965C7.1 11.5965 6.1 10.6964 5.3 9.6964C4 8.2964 4.4 5.89645 6.1 4.99645C7.3 4.39645 8.7 4.59643 9.8 5.59643C10.6 6.39643 11.5 7.29643 12.3 8.09643C13.1 8.79643 14 8.79643 14.7 8.09643C15 7.89643 15.2 7.59644 15.5 7.29644C16.3 6.49644 16.3 5.59644 15.5 4.79644C14.7 3.99644 13.9 3.19641 13.1 2.39641C11.9 1.09642 10.4 0.296427 8.6 0.0964271C6.7 -0.203573 4.9 0.196439 3.3 1.29644C1.2 2.89644 0.1 4.99645 0 7.49645ZM17.9 15.2964C17.9 14.9964 17.7 14.5964 17.3 14.1964C15.3 12.1964 13.3 10.1964 11.2 8.09643C11.1 7.99643 11.1 7.99641 11 7.89641C10.4 7.39641 9.5 7.39641 8.9 7.89641C8.6 8.19641 8.3 8.3964 8.1 8.6964C7.9 8.8964 7.8 8.9964 7.6 9.1964C7.2 9.8964 7.3 10.5964 7.9 11.1964C9.9 13.1964 12 15.2964 14 17.2964C14.1 17.3964 14.2 17.4965 14.2 17.4965C14.8 17.9965 15.6 17.9965 16.2 17.4965C16.6 17.0965 17 16.6964 17.4 16.2964C17.8 16.1964 17.9 15.7964 17.9 15.2964Z" fill="#8653ff"/>
<path d="M17.3008 25.3969C16.8008 25.2969 16.3008 25.2969 15.8008 25.0969C14.4008 24.7969 13.2008 23.9969 12.2008 22.9969C11.4008 22.1969 10.5008 21.2969 9.70078 20.4969C9.00078 19.7969 9.00078 18.7969 9.70078 18.0969C10.0008 17.7969 10.2008 17.5969 10.5008 17.2969C11.2008 16.5969 12.2008 16.5969 12.9008 17.2969C13.7008 18.0969 14.6008 18.9969 15.4008 19.7969C16.5008 20.8969 18.2008 21.0969 19.4008 20.1969C20.9008 19.1969 21.1008 17.0969 19.9008 15.6969C19.0008 14.6969 18.1008 13.8969 17.2008 12.9969C16.9008 12.6969 16.6008 12.1969 16.6008 11.6969C16.6008 11.2969 16.8008 10.8969 17.1008 10.5969C17.4008 10.2969 17.7008 9.99687 18.0008 9.69687C18.7008 8.99687 19.6008 8.99687 20.3008 9.69687C21.3008 10.5969 22.2008 11.5969 23.1008 12.4969C24.3008 13.6969 25.0008 15.2969 25.2008 16.9969C25.2008 17.0969 25.2008 17.0969 25.2008 17.1969C25.2008 17.4969 25.2008 17.8969 25.2008 18.1969C25.2008 18.2969 25.2008 18.2969 25.2008 18.3969C25.1008 19.2969 24.9008 20.1969 24.4008 21.0969C23.4008 23.0969 21.7008 24.4969 19.5008 25.0969C19.1008 25.1969 18.6008 25.2969 18.2008 25.2969C18.0008 25.3969 17.7008 25.3969 17.3008 25.3969Z" fill="#8653ff"/>
<path d="M0 7.49609C0.1 4.99609 1.1 2.89605 3.3 1.39605C4.9 0.296049 6.7 -0.103963 8.6 0.196037C10.4 0.396037 11.8 1.19609 13.1 2.49609C13.9 3.29609 14.7 4.09605 15.5 4.89605C16.3 5.69605 16.3 6.59605 15.5 7.39605C15.2 7.69605 15 7.89604 14.7 8.19604C13.9 8.89604 13 8.89604 12.3 8.19604C11.5 7.39604 10.6 6.49604 9.8 5.69604C8.8 4.69604 7.3 4.49606 6.1 5.09606C4.4 5.99606 3.9 8.29607 5.2 9.79607C6.1 10.7961 7 11.5961 7.9 12.5961C8.4 13.0961 8.6 13.6961 8.4 14.2961C8.3 14.4961 8.2 14.796 8 14.896C7.7 15.196 7.4 15.4961 7.1 15.7961C6.4 16.4961 5.5 16.4961 4.8 15.7961C3.8 14.7961 2.8 13.7961 1.8 12.7961C0.599999 11.2961 0 9.59608 0 7.49609Z" fill="#8653ff"/>
<path d="M17.9009 15.2967C17.9009 15.7967 17.8009 16.1967 17.5009 16.4967C17.1009 16.8967 16.7009 17.2967 16.3009 17.6967C15.7009 18.1967 14.9009 18.1967 14.3009 17.6967C14.2009 17.5967 14.1009 17.5967 14.1009 17.4967C12.1009 15.4967 10.0009 13.3967 8.00094 11.3967C7.40094 10.7967 7.30094 9.99667 7.70094 9.39667C7.80094 9.19667 8.00094 8.99667 8.20094 8.89667C8.50094 8.59667 8.70094 8.29668 9.00094 8.09668C9.60094 7.59668 10.5009 7.59668 11.1009 8.09668C11.2009 8.19668 11.3009 8.19669 11.3009 8.29669C13.3009 10.2967 15.3009 12.2967 17.4009 14.3967C17.7009 14.5967 17.9009 14.8967 17.9009 15.2967Z" fill="#8653ff"/>
</svg>
