<svg width="26" height="25" viewBox="0 0 26 25" fill="none" xmlns="http://www.w3.org/2000/svg">
<path d="M19.6838 2.85113C15.9873 -0.950378 9.99203 -0.950378 6.2955 2.85113C2.59896 6.65265 2.59896 12.8181 6.2955 16.6196C9.99203 20.4211 15.9873 20.4211 19.6838 16.6196C23.3803 12.8181 23.3803 6.65265 19.6838 2.85113ZM8.05576 19.2711C6.27479 18.2914 4.80446 16.8113 3.82079 15.0011L0 22.1781L3.1581 21.6883C3.3859 21.6564 3.60335 21.7735 3.70689 21.9971L5.01155 24.9894L8.05576 19.2711ZM22.1689 14.9904C21.1852 16.8007 19.7045 18.2914 17.9339 19.2605L20.9885 25L22.2931 22.0078C22.3863 21.7842 22.6141 21.667 22.8419 21.699L26 22.1888L22.1689 14.9904ZM18.0064 4.57619C15.2417 1.72239 10.7479 1.72239 7.97292 4.57619C5.20828 7.41934 5.20828 12.0408 7.97292 14.8946C10.7479 17.7377 15.2314 17.7377 18.0064 14.8946C20.7814 12.0408 20.7814 7.41934 18.0064 4.57619ZM12.9948 1.37099C17.4783 1.37099 21.1231 5.10861 21.1231 9.73006C21.1231 14.3515 17.4886 18.0891 12.9948 18.0891C8.50099 18.0891 4.86659 14.3515 4.86659 9.73006C4.86659 5.11926 8.50099 1.37099 12.9948 1.37099ZM14.1027 7.80268L12.9948 4.93824L11.8973 7.77074C11.8351 7.97306 11.6591 8.12214 11.4313 8.14343L8.43887 8.33511L10.7272 10.2838C10.8929 10.4116 10.9654 10.6245 10.9136 10.8375L10.1681 13.8297L12.6945 12.1899C12.8602 12.0834 13.0777 12.0621 13.2537 12.1792L15.7802 13.8297L15.0346 10.8375C14.9829 10.6458 15.045 10.4329 15.2107 10.2944L17.5197 8.32446L14.5273 8.13279C14.3513 8.12214 14.1752 8.005 14.1027 7.80268ZM13.4711 3.30902L14.9311 7.09988L18.8969 7.3661C19.3628 7.39804 19.5492 8.005 19.1971 8.30316L16.1426 10.912L17.1262 14.8733C17.2401 15.3312 16.7431 15.7358 16.3186 15.4377L12.9948 13.2654L9.63998 15.4483C9.24651 15.7039 8.7495 15.3312 8.8634 14.8733L9.84707 10.912L6.79251 8.30316C6.43011 7.99436 6.61649 7.38739 7.1135 7.3661L11.0585 7.11053L12.5289 3.31967C12.6842 2.86178 13.3055 2.86178 13.4711 3.30902Z" fill="#8653ff"/>
</svg>
