<svg width="36" height="33" viewBox="0 0 36 33" fill="none" xmlns="http://www.w3.org/2000/svg">
<path d="M35.4 4.59913C35.4 10.6991 35.4 16.6991 35.4 22.7991C35.4 22.8991 35.3 22.8991 35.3 22.9991C35.1 24.0991 34.6 25.0991 33.8 25.8991C32.8 26.8991 31.5 27.2991 30.1 27.2991C25.4 27.2991 20.8 27.2991 16.1 27.2991C15.8 27.2991 15.6 27.3991 15.4 27.4991C13.3 29.0991 11.2 30.7991 9 32.3991C8.8 32.4991 8.60002 32.6991 8.40002 32.6991C7.70002 32.8991 7.09998 32.2991 7.09998 31.4991C7.09998 30.1991 7.09998 28.8991 7.09998 27.5991C7.09998 27.4991 7.09998 27.3991 7.09998 27.1991C6.89998 27.1991 6.79998 27.1991 6.59998 27.1991C5.79998 27.1991 5.10005 27.1991 4.30005 27.0991C1.70005 26.6991 0 24.5991 0 22.0991C0 16.4991 0 10.8991 0 5.19914C0 5.09914 0 4.99911 0 4.79911C0.1 2.29911 2.19995 0.199132 4.69995 0.0991319C6.49995 -0.000868056 8.29998 0.0991319 10.1 0.0991319C16.8 0.0991319 23.4 0.0991319 30 0.0991319C32.2 0.0991319 33.9 1.09913 34.8 3.09913C35.2001 3.59913 35.3 4.19913 35.4 4.59913Z" fill="#564589"/>
</svg>
