<svg width="29" height="29" viewBox="0 0 29 29" fill="none" xmlns="http://www.w3.org/2000/svg">
<path d="M14.5 1C7.04144 1 0.999998 7.04144 0.999998 14.5C0.999998 16.8122 1.59668 19.1243 2.71547 21.2127L2.26795 27.5525L9.27901 27.0304C10.9199 27.7017 12.7099 28 14.5 28C21.9586 28 28 21.9586 28 14.5C28 7.04144 21.9586 1 14.5 1ZM14.5 2.79006C20.9889 2.79006 26.2099 8.01105 26.2099 14.5C26.2099 20.989 20.9889 26.2845 14.5 26.2845C12.7099 26.2845 11.2182 25.9116 9.57735 25.1657L4.1326 25.6133L4.50552 20.7652C3.38674 18.826 2.71547 16.8122 2.71547 14.5C2.71547 8.01105 8.01105 2.79006 14.5 2.79006Z" fill="#A296CC" stroke="#A296CC"/>
<rect x="16.2148" y="6" width="11.4286" height="3.42857" rx="1.71429" transform="rotate(90 16.2148 6)" fill="#A296CC" stroke="#EDE8FA" stroke-width="1.14286"/>
<rect x="17" y="17.7812" width="4.99888" height="4.99888" rx="2.49944" transform="rotate(90 17 17.7812)" fill="#A296CC" stroke="#EDE8FA" stroke-width="1.66629"/>
</svg>
