<svg width="80" height="79" viewBox="0 0 80 79" fill="none" xmlns="http://www.w3.org/2000/svg">
<path d="M17.4861 0.164062C32.5254 0.164062 47.5647 0.164062 62.604 0.164062C62.6661 0.199574 62.7282 0.261716 62.7993 0.270594C66.3505 0.687859 70.0259 3.99043 69.9904 9.05088C69.9194 19.2783 69.9638 29.5146 69.9815 39.7421C69.9815 40.3103 69.8041 40.5855 69.3069 40.8341C62.098 44.4119 54.9067 48.0164 47.7156 51.612C47.4936 51.7185 47.2717 51.8162 46.9521 51.9582C46.9521 51.5676 46.9521 51.2924 46.9521 51.0171C46.9521 44.2876 46.9521 37.567 46.9521 30.8375C46.9521 28.982 46.082 28.0942 44.2531 28.0942C36.84 28.0942 29.4181 28.0942 22.005 28.0942C20.2205 28.0942 19.3327 28.9909 19.3327 30.7931C19.3327 35.241 19.3327 39.6888 19.3327 44.1456C19.3327 44.4119 19.3327 44.6783 19.3327 44.9801C19.164 44.9535 19.0841 44.9535 19.022 44.918C16.1899 43.5064 13.3489 42.1037 10.5346 40.6565C10.3304 40.55 10.144 40.1949 10.144 39.964C10.1262 29.4259 10.1085 18.8877 10.1529 8.35843C10.1617 5.70391 11.378 3.55541 13.4643 1.89523C14.6451 0.945282 16.0479 0.519182 17.4861 0.164062ZM40.1337 18.7279C39.6721 18.7279 39.2105 18.7279 38.7577 18.7279C33.0847 18.7279 27.4116 18.719 21.7386 18.7279C20.4601 18.7279 19.4925 19.5802 19.3504 20.7698C19.2084 21.9062 19.9896 23.0071 21.1526 23.2645C21.4722 23.3356 21.8097 23.3267 22.1381 23.3267C32.4366 23.3267 42.735 23.3267 53.0335 23.3267C54.8268 23.3267 56.6113 23.3356 58.4047 23.3267C59.4257 23.3178 60.1714 22.8473 60.5798 21.9151C61.2545 20.3615 60.1004 18.7368 58.3071 18.7368C52.2434 18.719 46.1885 18.7279 40.1337 18.7279ZM40.0361 9.52144C37.0176 9.52144 34.008 9.52144 30.9984 9.52144C29.8975 9.52144 29.0629 10.0719 28.7078 10.9863C28.0863 12.5577 29.2405 14.1202 31.0516 14.1202C36.9998 14.1291 42.9569 14.1202 48.9052 14.1202C50.5121 14.1202 51.5687 13.188 51.5509 11.7942C51.5332 10.427 50.4944 9.52144 48.923 9.52144C45.9577 9.52144 43.0013 9.52144 40.0361 9.52144ZM56.1497 32.5421C56.9398 32.5421 57.73 32.5687 58.5201 32.5332C59.7719 32.4799 60.7396 31.4856 60.7574 30.2693C60.7751 29.0175 59.7896 27.9788 58.4935 27.9522C56.9398 27.9166 55.3862 27.9255 53.8236 27.9522C52.5274 27.9788 51.542 29.0086 51.5509 30.2604C51.5598 31.5033 52.5541 32.5065 53.8503 32.5421C54.6227 32.5598 55.3862 32.5421 56.1497 32.5421ZM56.1585 41.7485C56.8954 41.7485 57.6412 41.7574 58.378 41.7485C59.7453 41.7219 60.7485 40.7542 60.7574 39.4669C60.7663 38.1796 59.763 37.1675 58.4136 37.1497C56.9132 37.132 55.4039 37.132 53.9035 37.1497C52.5629 37.1675 51.5508 38.1884 51.5597 39.4669C51.5686 40.7098 52.5719 41.7041 53.8681 41.7396C54.6316 41.7663 55.395 41.7485 56.1585 41.7485Z" fill="white"/>
<path d="M79.1814 41.0472C78.7641 41.2425 78.4888 41.3668 78.2225 41.5089C66.2283 47.5015 54.2253 53.4675 42.2666 59.5134C40.6863 60.3124 39.4168 60.3035 37.8365 59.5045C25.869 53.4586 13.8659 47.4837 1.87177 41.4911C1.58768 41.349 1.29475 41.2247 0.921875 41.0472C0.921875 41.4556 0.921875 41.7308 0.921875 42.0149C0.921875 51.7629 0.921875 61.5021 0.921875 71.2501C0.921875 75.8489 3.78948 78.7343 8.37052 78.7343C29.5001 78.7343 50.6209 78.7343 71.7505 78.7343C76.296 78.7343 79.1902 75.8489 79.1902 71.3211C79.1902 61.5553 79.1902 51.7806 79.1902 42.0149C79.1814 41.7308 79.1814 41.4556 79.1814 41.0472ZM23.9691 32.7285C23.9691 35.2587 23.9691 37.7179 23.9691 40.2748C24.2621 40.1416 24.484 40.0529 24.7059 39.9463C26.2329 39.1828 27.7866 38.4548 29.287 37.638C30.45 36.9988 31.4622 37.0698 32.563 37.8245C35.5283 39.8575 38.5468 41.8285 41.5476 43.826C41.7695 43.9769 42.0092 44.1101 42.3022 44.2965C42.3022 40.3991 42.3022 36.5816 42.3022 32.7374C36.1852 32.7285 30.1127 32.7285 23.9691 32.7285ZM42.3466 52.118C42.3466 51.5587 42.3998 50.9905 42.3288 50.4312C42.2933 50.1294 42.1069 49.7476 41.8671 49.5878C38.316 47.1819 34.7381 44.8203 31.178 42.4233C30.8051 42.1747 30.53 42.1569 30.1394 42.3611C28.275 43.3111 26.4194 44.2876 24.5195 45.1488C23.7471 45.5039 23.9868 46.0633 23.9335 46.6048C23.8803 47.102 23.9868 47.4216 24.5106 47.679C29.5178 50.1471 34.5073 52.6685 39.5233 55.1365C39.8074 55.2786 40.2336 55.2519 40.5621 55.1632C42.0181 54.7814 42.7016 53.8758 42.3554 52.3311C42.3376 52.2778 42.3466 52.1979 42.3466 52.118ZM77.1305 36.9012C76.2604 36.0134 75.4171 35.1611 74.6092 34.3354C74.6092 35.5073 74.6092 36.768 74.6092 38.1618C75.5325 37.7002 76.3847 37.2741 77.1305 36.9012ZM2.90165 36.8656C3.70067 37.2651 4.55298 37.6913 5.47629 38.153C5.47629 36.768 5.47629 35.5073 5.47629 34.2999C4.64176 35.1255 3.8072 35.9601 2.90165 36.8656Z" fill="white"/>
<path d="M79.1746 41.0479C79.1746 41.4563 79.1746 41.7316 79.1746 42.0068C79.1746 51.7726 79.1746 61.5472 79.1746 71.313C79.1746 75.8407 76.2804 78.7261 71.7349 78.7261C50.6052 78.7261 29.4845 78.7261 8.35489 78.7261C3.77385 78.7261 0.90625 75.8408 0.90625 71.242C0.90625 61.494 0.90625 51.7548 0.90625 42.0068C0.90625 41.7316 0.90625 41.4474 0.90625 41.0391C1.27913 41.2077 1.57205 41.3409 1.85615 41.483C13.8503 47.4756 25.8534 53.4505 37.8209 59.4964C39.3923 60.2954 40.6707 60.3043 42.251 59.5053C54.2185 53.4594 66.2216 47.4934 78.2068 41.5007C78.4821 41.3764 78.7573 41.2521 79.1746 41.0479Z" fill="white"/>
<path d="M23.9688 32.7285C30.1123 32.7285 36.1849 32.7285 42.3018 32.7285C42.3018 36.5727 42.3018 40.3902 42.3018 44.2876C42.0088 44.1012 41.7692 43.968 41.5472 43.8171C38.5464 41.8196 35.5368 39.8486 32.5627 37.8156C31.4618 37.061 30.4497 36.9988 29.2867 37.6291C27.7863 38.4459 26.2326 39.1739 24.7056 39.9374C24.4836 40.044 24.2528 40.1416 23.9688 40.2659C23.9687 37.7179 23.9688 35.2499 23.9688 32.7285Z" fill="white"/>
<path d="M42.3454 52.1174C42.3454 52.1973 42.3277 52.2773 42.3454 52.3483C42.6916 53.8931 42.008 54.7986 40.552 55.1804C40.2236 55.2691 39.7974 55.2958 39.5133 55.1538C34.5061 52.6768 29.5166 50.1643 24.5006 47.6962C23.9768 47.4388 23.8792 47.1191 23.9236 46.622C23.9769 46.0804 23.7371 45.5123 24.5095 45.166C26.4093 44.296 28.2649 43.3283 30.1293 42.3783C30.5199 42.1741 30.8039 42.1919 31.1679 42.4405C34.728 44.8375 38.3059 47.1991 41.8571 49.605C42.0968 49.7648 42.2744 50.1465 42.3187 50.4484C42.3986 50.9899 42.3454 51.5581 42.3454 52.1174Z" fill="white"/>
<path d="M77.1229 36.8997C76.3771 37.2726 75.5249 37.6987 74.6016 38.1604C74.6016 36.7666 74.6016 35.5059 74.6016 34.334C75.4095 35.1596 76.244 36.0119 77.1229 36.8997Z" fill="white"/>
<path d="M2.89844 36.8665C3.79511 35.9699 4.63854 35.1264 5.47308 34.3008C5.47308 35.5082 5.47308 36.7689 5.47308 38.1539C4.55864 37.6922 3.69746 37.266 2.89844 36.8665Z" fill="white"/>
</svg>
