<svg width="90" height="90" viewBox="0 0 90 90" fill="none" xmlns="http://www.w3.org/2000/svg">
<path d="M19.5609 0.707031C36.5009 0.707031 53.4409 0.707031 70.3809 0.707031C70.4509 0.747031 70.5208 0.817026 70.6008 0.827026C74.6008 1.29703 78.7408 5.01698 78.7008 10.717C78.6208 22.237 78.6708 33.767 78.6908 45.287C78.6908 45.927 78.4909 46.237 77.9309 46.517C69.8109 50.547 61.7109 54.607 53.6109 58.657C53.3609 58.777 53.1109 58.887 52.7509 59.047C52.7509 58.607 52.7509 58.297 52.7509 57.987C52.7509 50.407 52.7509 42.837 52.7509 35.257C52.7509 33.167 51.7708 32.167 49.7108 32.167C41.3608 32.167 33.0009 32.167 24.6509 32.167C22.6409 32.167 21.6409 33.177 21.6409 35.207C21.6409 40.217 21.6409 45.227 21.6409 50.247C21.6409 50.547 21.6409 50.847 21.6409 51.187C21.4509 51.157 21.3609 51.157 21.2909 51.117C18.1009 49.527 14.9008 47.947 11.7308 46.317C11.5008 46.197 11.2909 45.797 11.2909 45.537C11.2709 33.667 11.2509 21.797 11.3009 9.93701C11.3109 6.94701 12.6809 4.52698 15.0309 2.65698C16.3609 1.58698 17.9409 1.10703 19.5609 0.707031ZM45.0708 21.617C44.5508 21.617 44.0309 21.617 43.5209 21.617C37.1309 21.617 30.7408 21.607 24.3508 21.617C22.9108 21.617 21.8209 22.577 21.6609 23.917C21.5009 25.197 22.3808 26.437 23.6908 26.727C24.0508 26.807 24.4309 26.797 24.8009 26.797C36.4009 26.797 48.0008 26.797 59.6008 26.797C61.6208 26.797 63.6309 26.807 65.6509 26.797C66.8009 26.787 67.6408 26.257 68.1008 25.207C68.8608 23.457 67.5609 21.627 65.5409 21.627C58.7109 21.607 51.8908 21.617 45.0708 21.617ZM44.9608 11.247C41.5608 11.247 38.1709 11.247 34.7809 11.247C33.5409 11.247 32.6008 11.867 32.2008 12.897C31.5008 14.667 32.8008 16.427 34.8408 16.427C41.5408 16.437 48.2508 16.427 54.9508 16.427C56.7608 16.427 57.9509 15.377 57.9309 13.807C57.9109 12.267 56.7408 11.247 54.9708 11.247C51.6308 11.247 48.3008 11.247 44.9608 11.247ZM63.1109 37.177C64.0009 37.177 64.8909 37.207 65.7809 37.167C67.1909 37.107 68.2809 35.987 68.3009 34.617C68.3209 33.207 67.2109 32.037 65.7509 32.007C64.0009 31.967 62.2509 31.977 60.4909 32.007C59.0309 32.037 57.9209 33.197 57.9309 34.607C57.9409 36.007 59.0609 37.137 60.5209 37.177C61.3909 37.197 62.2509 37.177 63.1109 37.177ZM63.1209 47.547C63.9509 47.547 64.7909 47.557 65.6209 47.547C67.1609 47.517 68.2909 46.427 68.3009 44.977C68.3109 43.527 67.1809 42.387 65.6609 42.367C63.9709 42.347 62.2708 42.347 60.5808 42.367C59.0708 42.387 57.9308 43.537 57.9408 44.977C57.9508 46.377 59.0809 47.497 60.5409 47.537C61.4009 47.567 62.2609 47.547 63.1209 47.547Z" fill="#473171"/>
<path d="M89.0504 46.7567C88.5804 46.9767 88.2703 47.1167 87.9703 47.2767C74.4603 54.0267 60.9403 60.7467 47.4703 67.5567C45.6903 68.4567 44.2603 68.4467 42.4803 67.5467C29.0003 60.7367 15.4803 54.0067 1.97034 47.2567C1.65034 47.0967 1.32039 46.9567 0.900391 46.7567C0.900391 47.2167 0.900391 47.5267 0.900391 47.8467C0.900391 58.8267 0.900391 69.7967 0.900391 80.7767C0.900391 85.9567 4.13041 89.2067 9.29041 89.2067C33.0904 89.2067 56.8804 89.2067 80.6804 89.2067C85.8004 89.2067 89.0604 85.9567 89.0604 80.8567C89.0604 69.8567 89.0604 58.8467 89.0604 47.8467C89.0504 47.5267 89.0504 47.2167 89.0504 46.7567ZM26.8604 37.3867C26.8604 40.2367 26.8604 43.0067 26.8604 45.8867C27.1904 45.7367 27.4403 45.6367 27.6903 45.5167C29.4103 44.6567 31.1603 43.8367 32.8503 42.9167C34.1603 42.1967 35.3004 42.2767 36.5404 43.1267C39.8804 45.4167 43.2804 47.6367 46.6604 49.8867C46.9104 50.0567 47.1804 50.2067 47.5104 50.4167C47.5104 46.0267 47.5104 41.7267 47.5104 37.3967C40.6204 37.3867 33.7803 37.3867 26.8604 37.3867ZM47.5604 59.2267C47.5604 58.5967 47.6204 57.9567 47.5404 57.3267C47.5004 56.9867 47.2904 56.5567 47.0204 56.3767C43.0204 53.6667 38.9903 51.0067 34.9803 48.3067C34.5603 48.0267 34.2504 48.0067 33.8104 48.2367C31.7104 49.3067 29.6203 50.4067 27.4803 51.3767C26.6103 51.7767 26.8803 52.4067 26.8203 53.0167C26.7603 53.5767 26.8803 53.9367 27.4703 54.2267C33.1103 57.0067 38.7304 59.8467 44.3804 62.6267C44.7004 62.7867 45.1804 62.7567 45.5504 62.6567C47.1904 62.2267 47.9603 61.2067 47.5703 59.4667C47.5503 59.4067 47.5604 59.3167 47.5604 59.2267ZM86.7404 42.0867C85.7604 41.0867 84.8104 40.1267 83.9004 39.1967C83.9004 40.5167 83.9004 41.9367 83.9004 43.5067C84.9404 42.9867 85.9004 42.5067 86.7404 42.0867ZM3.13037 42.0467C4.03037 42.4967 4.9904 42.9767 6.0304 43.4967C6.0304 41.9367 6.0304 40.5167 6.0304 39.1567C5.0904 40.0867 4.15037 41.0267 3.13037 42.0467Z" fill="#473171"/>
<path d="M89.0507 46.7561C89.0507 47.2161 89.0507 47.5261 89.0507 47.8361C89.0507 58.8361 89.0507 69.8461 89.0507 80.8461C89.0507 85.9461 85.7907 89.1961 80.6707 89.1961C56.8707 89.1961 33.0806 89.1961 9.28064 89.1961C4.12064 89.1961 0.890625 85.9461 0.890625 80.7661C0.890625 69.7861 0.890625 58.8161 0.890625 47.8361C0.890625 47.5261 0.890625 47.2061 0.890625 46.7461C1.31062 46.9361 1.64057 47.0861 1.96057 47.2461C15.4706 53.9961 28.9906 60.7261 42.4706 67.5361C44.2406 68.4361 45.6806 68.4461 47.4606 67.5461C60.9406 60.7361 74.4606 54.0161 87.9606 47.2661C88.2706 47.1261 88.5807 46.9861 89.0507 46.7561Z" fill="#473171"/>
<path d="M26.8604 37.3867C33.7804 37.3867 40.6204 37.3867 47.5104 37.3867C47.5104 41.7167 47.5104 46.0167 47.5104 50.4067C47.1804 50.1967 46.9104 50.0467 46.6604 49.8767C43.2804 47.6267 39.8904 45.4067 36.5404 43.1167C35.3004 42.2667 34.1603 42.1967 32.8503 42.9067C31.1603 43.8267 29.4103 44.6467 27.6903 45.5067C27.4403 45.6267 27.1804 45.7367 26.8604 45.8767C26.8604 43.0067 26.8604 40.2267 26.8604 37.3867Z" fill="#473171"/>
<path d="M47.5605 59.2254C47.5605 59.3154 47.5405 59.4054 47.5605 59.4854C47.9505 61.2254 47.1805 62.2454 45.5405 62.6754C45.1705 62.7754 44.6905 62.8054 44.3705 62.6454C38.7305 59.8554 33.1104 57.0254 27.4604 54.2454C26.8704 53.9554 26.7605 53.5954 26.8105 53.0354C26.8705 52.4254 26.6004 51.7854 27.4704 51.3954C29.6104 50.4154 31.7005 49.3254 33.8005 48.2554C34.2405 48.0254 34.5604 48.0454 34.9704 48.3254C38.9804 51.0254 43.0105 53.6854 47.0105 56.3954C47.2805 56.5754 47.4805 57.0054 47.5305 57.3454C47.6205 57.9554 47.5605 58.5954 47.5605 59.2254Z" fill="#473171"/>
<path d="M86.7404 42.0853C85.9004 42.5053 84.9404 42.9853 83.9004 43.5053C83.9004 41.9353 83.9004 40.5153 83.9004 39.1953C84.8104 40.1253 85.7504 41.0853 86.7404 42.0853Z" fill="#473171"/>
<path d="M3.13086 42.0463C4.14086 41.0363 5.09088 40.0863 6.03088 39.1562C6.03088 40.5163 6.03088 41.9363 6.03088 43.4963C5.00088 42.9763 4.03086 42.4963 3.13086 42.0463Z" fill="#473171"/>
</svg>
