<svg width="1398" height="333" viewBox="0 0 1398 333" fill="none" xmlns="http://www.w3.org/2000/svg">
<rect width="1398" height="333" rx="30.9237" fill="#A296CC"/>
<g opacity="0.6">
<path d="M539.495 168.818V187H536.523L530.104 174.412V187H527.17V168.818H530.104L536.573 181.493V168.818H539.495ZM542.267 180.794V179.707C542.267 178.658 542.396 177.73 542.654 176.922C542.912 176.115 543.279 175.441 543.753 174.899C544.236 174.35 544.802 173.938 545.452 173.663C546.101 173.38 546.817 173.239 547.599 173.239C548.399 173.239 549.123 173.38 549.772 173.663C550.43 173.938 550.996 174.35 551.471 174.899C551.953 175.441 552.324 176.115 552.582 176.922C552.84 177.73 552.969 178.658 552.969 179.707V180.794C552.969 181.843 552.84 182.771 552.582 183.578C552.324 184.386 551.953 185.064 551.471 185.614C550.996 186.155 550.434 186.563 549.785 186.838C549.135 187.112 548.415 187.25 547.624 187.25C546.842 187.25 546.122 187.112 545.464 186.838C544.815 186.563 544.249 186.155 543.766 185.614C543.283 185.064 542.912 184.386 542.654 183.578C542.396 182.771 542.267 181.843 542.267 180.794ZM545.177 179.707V180.794C545.177 181.468 545.235 182.059 545.352 182.567C545.468 183.066 545.635 183.483 545.851 183.816C546.068 184.149 546.326 184.398 546.625 184.565C546.925 184.731 547.258 184.815 547.624 184.815C548.032 184.815 548.386 184.731 548.686 184.565C548.994 184.398 549.248 184.149 549.448 183.816C549.656 183.483 549.81 183.066 549.91 182.567C550.01 182.059 550.06 181.468 550.06 180.794V179.707C550.06 179.041 550.001 178.458 549.885 177.959C549.768 177.451 549.602 177.031 549.385 176.698C549.169 176.356 548.906 176.102 548.598 175.936C548.299 175.769 547.966 175.686 547.599 175.686C547.241 175.686 546.913 175.769 546.613 175.936C546.322 176.102 546.068 176.356 545.851 176.698C545.635 177.031 545.468 177.451 545.352 177.959C545.235 178.458 545.177 179.041 545.177 179.707ZM568.042 183.816V173.488H570.951V187H568.217L568.042 183.816ZM568.454 180.993L569.378 180.968C569.378 181.876 569.295 182.713 569.128 183.478C568.962 184.244 568.704 184.91 568.354 185.476C568.013 186.034 567.567 186.471 567.018 186.788C566.477 187.096 565.823 187.25 565.057 187.25C564.508 187.25 564.004 187.154 563.546 186.963C563.088 186.771 562.693 186.476 562.36 186.076C562.027 185.676 561.769 185.156 561.586 184.515C561.403 183.874 561.311 183.108 561.311 182.217V173.488H564.221V182.242C564.221 182.725 564.262 183.129 564.345 183.453C564.429 183.77 564.545 184.028 564.695 184.228C564.845 184.419 565.011 184.557 565.195 184.64C565.386 184.715 565.59 184.752 565.807 184.752C566.464 184.752 566.985 184.59 567.367 184.265C567.759 183.932 568.038 183.483 568.204 182.917C568.371 182.35 568.454 181.709 568.454 180.993ZM576.771 176.086V192.195H573.874V173.488H576.533L576.771 176.086ZM584.039 179.707V180.781C584.039 181.838 583.943 182.771 583.751 183.578C583.56 184.386 583.277 185.064 582.902 185.614C582.536 186.155 582.082 186.563 581.541 186.838C581 187.112 580.367 187.25 579.643 187.25C578.96 187.25 578.365 187.1 577.857 186.8C577.358 186.5 576.937 186.08 576.596 185.539C576.255 184.998 575.98 184.357 575.772 183.616C575.572 182.867 575.426 182.051 575.335 181.168V179.52C575.426 178.587 575.568 177.738 575.759 176.972C575.959 176.198 576.23 175.532 576.571 174.974C576.921 174.417 577.345 173.988 577.845 173.688C578.344 173.388 578.939 173.239 579.63 173.239C580.355 173.239 580.992 173.368 581.541 173.626C582.091 173.884 582.548 174.279 582.915 174.812C583.289 175.345 583.568 176.019 583.751 176.835C583.943 177.643 584.039 178.6 584.039 179.707ZM581.129 180.781V179.707C581.129 179.016 581.083 178.421 580.992 177.921C580.908 177.414 580.767 176.997 580.567 176.673C580.376 176.348 580.13 176.107 579.83 175.948C579.539 175.79 579.177 175.711 578.744 175.711C578.361 175.711 578.024 175.79 577.732 175.948C577.441 176.107 577.195 176.327 576.996 176.61C576.796 176.885 576.638 177.214 576.521 177.597C576.404 177.971 576.33 178.379 576.296 178.821V181.88C576.371 182.413 576.496 182.904 576.671 183.354C576.846 183.795 577.1 184.149 577.433 184.415C577.774 184.681 578.219 184.815 578.769 184.815C579.193 184.815 579.556 184.731 579.855 184.565C580.155 184.398 580.396 184.149 580.579 183.816C580.771 183.483 580.908 183.066 580.992 182.567C581.083 182.059 581.129 181.464 581.129 180.781ZM591.294 184.815C591.669 184.815 592.002 184.736 592.293 184.577C592.593 184.419 592.83 184.174 593.005 183.841C593.18 183.499 593.275 183.058 593.292 182.517H596.027C596.01 183.474 595.79 184.311 595.365 185.027C594.94 185.735 594.374 186.284 593.667 186.675C592.967 187.058 592.189 187.25 591.331 187.25C590.441 187.25 589.662 187.108 588.996 186.825C588.339 186.534 587.793 186.113 587.36 185.564C586.927 185.014 586.603 184.348 586.386 183.566C586.178 182.775 586.074 181.872 586.074 180.856V179.632C586.074 178.625 586.178 177.726 586.386 176.935C586.603 176.144 586.927 175.474 587.36 174.924C587.793 174.375 588.339 173.959 588.996 173.676C589.654 173.384 590.428 173.239 591.319 173.239C592.268 173.239 593.088 173.438 593.779 173.838C594.478 174.229 595.024 174.804 595.415 175.561C595.806 176.319 596.01 177.247 596.027 178.346H593.292C593.275 177.763 593.188 177.276 593.03 176.885C592.872 176.485 592.647 176.186 592.355 175.986C592.072 175.786 591.714 175.686 591.281 175.686C590.807 175.686 590.416 175.778 590.108 175.961C589.808 176.136 589.575 176.394 589.408 176.735C589.25 177.076 589.138 177.493 589.071 177.984C589.013 178.467 588.984 179.016 588.984 179.632V180.856C588.984 181.489 589.013 182.051 589.071 182.542C589.129 183.025 589.238 183.437 589.396 183.778C589.562 184.12 589.8 184.378 590.108 184.552C590.416 184.727 590.811 184.815 591.294 184.815ZM597.862 180.794V179.707C597.862 178.658 597.992 177.73 598.25 176.922C598.508 176.115 598.874 175.441 599.349 174.899C599.831 174.35 600.397 173.938 601.047 173.663C601.696 173.38 602.412 173.239 603.195 173.239C603.994 173.239 604.718 173.38 605.368 173.663C606.025 173.938 606.591 174.35 607.066 174.899C607.549 175.441 607.919 176.115 608.177 176.922C608.435 177.73 608.564 178.658 608.564 179.707V180.794C608.564 181.843 608.435 182.771 608.177 183.578C607.919 184.386 607.549 185.064 607.066 185.614C606.591 186.155 606.029 186.563 605.38 186.838C604.731 187.112 604.011 187.25 603.22 187.25C602.437 187.25 601.717 187.112 601.059 186.838C600.41 186.563 599.844 186.155 599.361 185.614C598.878 185.064 598.508 184.386 598.25 183.578C597.992 182.771 597.862 181.843 597.862 180.794ZM600.772 179.707V180.794C600.772 181.468 600.83 182.059 600.947 182.567C601.064 183.066 601.23 183.483 601.446 183.816C601.663 184.149 601.921 184.398 602.221 184.565C602.52 184.731 602.853 184.815 603.22 184.815C603.628 184.815 603.981 184.731 604.281 184.565C604.589 184.398 604.843 184.149 605.043 183.816C605.251 183.483 605.405 183.066 605.505 182.567C605.605 182.059 605.655 181.468 605.655 180.794V179.707C605.655 179.041 605.597 178.458 605.48 177.959C605.363 177.451 605.197 177.031 604.98 176.698C604.764 176.356 604.502 176.102 604.194 175.936C603.894 175.769 603.561 175.686 603.195 175.686C602.837 175.686 602.508 175.769 602.208 175.936C601.917 176.102 601.663 176.356 601.446 176.698C601.23 177.031 601.064 177.451 600.947 177.959C600.83 178.458 600.772 179.041 600.772 179.707ZM613.997 176.236V187H611.087V173.488H613.822L613.997 176.236ZM613.522 179.757H612.536C612.519 178.816 612.602 177.951 612.785 177.16C612.977 176.369 613.26 175.678 613.634 175.087C614.017 174.496 614.496 174.042 615.071 173.726C615.653 173.401 616.323 173.239 617.081 173.239C617.589 173.239 618.055 173.33 618.48 173.513C618.913 173.688 619.287 173.967 619.604 174.35C619.928 174.733 620.178 175.224 620.353 175.823C620.528 176.423 620.615 177.147 620.615 177.996V187H617.705V178.271C617.705 177.622 617.631 177.114 617.481 176.748C617.339 176.373 617.131 176.107 616.856 175.948C616.582 175.79 616.249 175.711 615.857 175.711C615.433 175.711 615.071 175.819 614.771 176.036C614.471 176.244 614.23 176.535 614.047 176.91C613.863 177.276 613.73 177.705 613.647 178.196C613.564 178.679 613.522 179.199 613.522 179.757ZM620.428 178.983L619.067 179.295C619.05 178.471 619.133 177.692 619.316 176.96C619.5 176.227 619.774 175.586 620.141 175.037C620.515 174.479 620.981 174.042 621.539 173.726C622.105 173.401 622.759 173.239 623.5 173.239C624.083 173.239 624.603 173.334 625.061 173.526C625.519 173.709 625.91 174 626.235 174.4C626.559 174.8 626.805 175.32 626.971 175.961C627.146 176.594 627.234 177.364 627.234 178.271V187H624.311V178.259C624.311 177.584 624.237 177.064 624.087 176.698C623.945 176.331 623.737 176.077 623.462 175.936C623.188 175.786 622.859 175.711 622.476 175.711C622.143 175.711 621.847 175.799 621.589 175.973C621.339 176.14 621.127 176.373 620.952 176.673C620.777 176.972 620.644 177.322 620.553 177.722C620.469 178.113 620.428 178.533 620.428 178.983ZM633.265 173.488V187H630.356V173.488H633.265ZM630.206 169.942C630.206 169.476 630.347 169.088 630.63 168.78C630.913 168.472 631.309 168.318 631.817 168.318C632.324 168.318 632.72 168.472 633.003 168.78C633.286 169.088 633.428 169.476 633.428 169.942C633.428 170.4 633.286 170.783 633.003 171.091C632.72 171.399 632.324 171.553 631.817 171.553C631.309 171.553 630.913 171.399 630.63 171.091C630.347 170.783 630.206 170.4 630.206 169.942ZM639.247 176.373V187H636.337V173.488H639.072L639.247 176.373ZM638.722 179.757H637.798C637.79 178.783 637.894 177.896 638.11 177.097C638.327 176.298 638.635 175.611 639.034 175.037C639.434 174.462 639.913 174.021 640.471 173.713C641.037 173.397 641.665 173.239 642.356 173.239C642.897 173.239 643.389 173.33 643.83 173.513C644.279 173.688 644.662 173.975 644.979 174.375C645.295 174.775 645.536 175.295 645.703 175.936C645.878 176.577 645.965 177.359 645.965 178.284V187H643.056V178.259C643.056 177.626 642.985 177.126 642.843 176.76C642.71 176.385 642.51 176.119 642.244 175.961C641.977 175.794 641.64 175.711 641.232 175.711C640.858 175.711 640.512 175.819 640.196 176.036C639.888 176.244 639.621 176.535 639.397 176.91C639.18 177.276 639.014 177.705 638.897 178.196C638.781 178.679 638.722 179.199 638.722 179.757ZM656.093 173.488H658.728V187.05C658.728 188.265 658.503 189.26 658.053 190.035C657.612 190.817 656.996 191.396 656.205 191.77C655.414 192.145 654.498 192.332 653.458 192.332C653.075 192.332 652.621 192.27 652.097 192.145C651.572 192.02 651.06 191.837 650.561 191.595C650.061 191.354 649.645 191.054 649.312 190.696L650.373 188.673C650.765 189.073 651.227 189.381 651.759 189.597C652.292 189.822 652.804 189.935 653.295 189.935C653.828 189.935 654.278 189.843 654.644 189.66C655.019 189.485 655.306 189.19 655.506 188.773C655.706 188.365 655.805 187.812 655.805 187.112V176.548L656.093 173.488ZM648.45 180.794V179.732C648.45 178.625 648.554 177.668 648.762 176.86C648.971 176.044 649.27 175.366 649.662 174.824C650.053 174.283 650.532 173.884 651.098 173.626C651.664 173.368 652.296 173.239 652.996 173.239C653.72 173.239 654.332 173.393 654.831 173.701C655.339 174 655.751 174.429 656.068 174.987C656.392 175.545 656.646 176.211 656.829 176.985C657.013 177.751 657.146 178.608 657.229 179.557V181.031C657.146 181.947 657.004 182.787 656.805 183.553C656.605 184.311 656.334 184.965 655.993 185.514C655.66 186.063 655.244 186.492 654.744 186.8C654.253 187.1 653.662 187.25 652.971 187.25C652.28 187.25 651.655 187.112 651.098 186.838C650.54 186.563 650.061 186.155 649.662 185.614C649.27 185.073 648.971 184.403 648.762 183.603C648.554 182.796 648.45 181.859 648.45 180.794ZM651.36 179.732V180.794C651.36 181.485 651.406 182.08 651.497 182.579C651.597 183.079 651.743 183.491 651.934 183.816C652.126 184.132 652.376 184.369 652.684 184.527C652.992 184.677 653.358 184.752 653.782 184.752C654.34 184.752 654.79 184.619 655.131 184.353C655.481 184.086 655.747 183.728 655.93 183.279C656.122 182.821 656.255 182.313 656.33 181.755V178.846C656.288 178.404 656.205 177.996 656.08 177.622C655.964 177.239 655.801 176.906 655.593 176.623C655.393 176.34 655.144 176.119 654.844 175.961C654.553 175.794 654.207 175.711 653.807 175.711C653.391 175.711 653.025 175.794 652.709 175.961C652.401 176.119 652.147 176.365 651.947 176.698C651.747 177.022 651.597 177.439 651.497 177.946C651.406 178.446 651.36 179.041 651.36 179.732ZM673.8 183.441C673.8 183.158 673.717 182.908 673.551 182.692C673.392 182.467 673.134 182.246 672.776 182.03C672.418 181.813 671.94 181.58 671.34 181.331C670.716 181.072 670.162 180.814 669.679 180.556C669.196 180.298 668.789 180.015 668.456 179.707C668.123 179.391 667.869 179.029 667.694 178.621C667.519 178.213 667.432 177.738 667.432 177.197C667.432 176.639 667.536 176.123 667.744 175.649C667.952 175.174 668.252 174.758 668.643 174.4C669.034 174.034 669.505 173.751 670.054 173.551C670.603 173.343 671.224 173.239 671.915 173.239C672.889 173.239 673.721 173.418 674.412 173.776C675.111 174.125 675.644 174.616 676.011 175.249C676.385 175.873 676.573 176.594 676.573 177.409H673.663C673.663 177.068 673.6 176.76 673.476 176.485C673.351 176.202 673.159 175.978 672.901 175.811C672.643 175.636 672.314 175.549 671.915 175.549C671.548 175.549 671.24 175.62 670.991 175.761C670.749 175.894 670.566 176.077 670.441 176.311C670.325 176.535 670.266 176.789 670.266 177.072C670.266 177.28 670.304 177.464 670.379 177.622C670.454 177.78 670.578 177.934 670.753 178.084C670.928 178.225 671.161 178.371 671.453 178.521C671.752 178.671 672.131 178.841 672.589 179.033C673.496 179.382 674.25 179.745 674.849 180.119C675.449 180.494 675.898 180.931 676.198 181.43C676.498 181.93 676.647 182.55 676.647 183.291C676.647 183.891 676.535 184.432 676.31 184.915C676.094 185.397 675.777 185.814 675.361 186.163C674.953 186.513 674.458 186.784 673.875 186.975C673.301 187.158 672.66 187.25 671.952 187.25C670.895 187.25 670 187.042 669.267 186.625C668.543 186.201 667.993 185.655 667.619 184.989C667.244 184.323 667.057 183.62 667.057 182.879H669.867C669.892 183.412 670.004 183.828 670.204 184.128C670.412 184.428 670.674 184.636 670.991 184.752C671.307 184.86 671.636 184.915 671.977 184.915C672.385 184.915 672.722 184.86 672.989 184.752C673.255 184.636 673.455 184.465 673.588 184.24C673.73 184.015 673.8 183.749 673.8 183.441ZM684.352 187.25C683.478 187.25 682.7 187.121 682.017 186.863C681.335 186.596 680.756 186.205 680.281 185.689C679.807 185.164 679.445 184.523 679.195 183.766C678.945 183 678.82 182.113 678.82 181.106V179.807C678.82 178.667 678.949 177.684 679.207 176.86C679.474 176.027 679.84 175.345 680.306 174.812C680.773 174.279 681.322 173.884 681.955 173.626C682.596 173.368 683.291 173.239 684.04 173.239C684.889 173.239 685.626 173.376 686.251 173.651C686.875 173.925 687.387 174.337 687.787 174.887C688.194 175.436 688.494 176.115 688.686 176.922C688.885 177.73 688.985 178.658 688.985 179.707V181.168H680.219V178.97H686.113V178.658C686.097 178.042 686.022 177.514 685.888 177.072C685.755 176.623 685.539 176.281 685.239 176.048C684.948 175.807 684.544 175.686 684.028 175.686C683.653 175.686 683.32 175.757 683.029 175.898C682.737 176.04 682.496 176.269 682.304 176.585C682.121 176.902 681.98 177.326 681.88 177.859C681.78 178.383 681.73 179.033 681.73 179.807V181.106C681.73 181.78 681.788 182.35 681.905 182.817C682.03 183.283 682.213 183.666 682.454 183.965C682.696 184.257 682.987 184.473 683.328 184.615C683.678 184.748 684.082 184.815 684.54 184.815C685.214 184.815 685.793 184.69 686.276 184.44C686.767 184.182 687.191 183.849 687.549 183.441L688.835 185.227C688.594 185.551 688.269 185.872 687.861 186.188C687.454 186.496 686.958 186.75 686.375 186.95C685.801 187.15 685.127 187.25 684.352 187.25ZM697.577 183.441C697.577 183.158 697.494 182.908 697.327 182.692C697.169 182.467 696.911 182.246 696.553 182.03C696.195 181.813 695.716 181.58 695.117 181.331C694.492 181.072 693.939 180.814 693.456 180.556C692.973 180.298 692.565 180.015 692.232 179.707C691.899 179.391 691.645 179.029 691.47 178.621C691.296 178.213 691.208 177.738 691.208 177.197C691.208 176.639 691.312 176.123 691.52 175.649C691.728 175.174 692.028 174.758 692.419 174.4C692.811 174.034 693.281 173.751 693.831 173.551C694.38 173.343 695 173.239 695.691 173.239C696.665 173.239 697.498 173.418 698.189 173.776C698.888 174.125 699.421 174.616 699.787 175.249C700.162 175.873 700.349 176.594 700.349 177.409H697.44C697.44 177.068 697.377 176.76 697.252 176.485C697.127 176.202 696.936 175.978 696.678 175.811C696.42 175.636 696.091 175.549 695.691 175.549C695.325 175.549 695.017 175.62 694.767 175.761C694.526 175.894 694.343 176.077 694.218 176.311C694.101 176.535 694.043 176.789 694.043 177.072C694.043 177.28 694.08 177.464 694.155 177.622C694.23 177.78 694.355 177.934 694.53 178.084C694.705 178.225 694.938 178.371 695.229 178.521C695.529 178.671 695.908 178.841 696.366 179.033C697.273 179.382 698.026 179.745 698.626 180.119C699.225 180.494 699.675 180.931 699.975 181.43C700.274 181.93 700.424 182.55 700.424 183.291C700.424 183.891 700.312 184.432 700.087 184.915C699.87 185.397 699.554 185.814 699.138 186.163C698.73 186.513 698.235 186.784 697.652 186.975C697.077 187.158 696.436 187.25 695.729 187.25C694.671 187.25 693.776 187.042 693.044 186.625C692.32 186.201 691.77 185.655 691.395 184.989C691.021 184.323 690.834 183.62 690.834 182.879H693.643C693.668 183.412 693.781 183.828 693.98 184.128C694.189 184.428 694.451 184.636 694.767 184.752C695.084 184.86 695.412 184.915 695.754 184.915C696.162 184.915 696.499 184.86 696.765 184.752C697.032 184.636 697.231 184.465 697.365 184.24C697.506 184.015 697.577 183.749 697.577 183.441ZM709.215 183.441C709.215 183.158 709.132 182.908 708.966 182.692C708.808 182.467 708.549 182.246 708.191 182.03C707.833 181.813 707.355 181.58 706.755 181.331C706.131 181.072 705.577 180.814 705.094 180.556C704.612 180.298 704.204 180.015 703.871 179.707C703.538 179.391 703.284 179.029 703.109 178.621C702.934 178.213 702.847 177.738 702.847 177.197C702.847 176.639 702.951 176.123 703.159 175.649C703.367 175.174 703.667 174.758 704.058 174.4C704.449 174.034 704.92 173.751 705.469 173.551C706.019 173.343 706.639 173.239 707.33 173.239C708.304 173.239 709.136 173.418 709.827 173.776C710.527 174.125 711.059 174.616 711.426 175.249C711.8 175.873 711.988 176.594 711.988 177.409H709.078C709.078 177.068 709.016 176.76 708.891 176.485C708.766 176.202 708.574 175.978 708.316 175.811C708.058 175.636 707.729 175.549 707.33 175.549C706.963 175.549 706.655 175.62 706.406 175.761C706.164 175.894 705.981 176.077 705.856 176.311C705.74 176.535 705.681 176.789 705.681 177.072C705.681 177.28 705.719 177.464 705.794 177.622C705.869 177.78 705.994 177.934 706.168 178.084C706.343 178.225 706.576 178.371 706.868 178.521C707.167 178.671 707.546 178.841 708.004 179.033C708.912 179.382 709.665 179.745 710.264 180.119C710.864 180.494 711.313 180.931 711.613 181.43C711.913 181.93 712.063 182.55 712.063 183.291C712.063 183.891 711.95 184.432 711.725 184.915C711.509 185.397 711.193 185.814 710.776 186.163C710.368 186.513 709.873 186.784 709.29 186.975C708.716 187.158 708.075 187.25 707.367 187.25C706.31 187.25 705.415 187.042 704.682 186.625C703.958 186.201 703.409 185.655 703.034 184.989C702.659 184.323 702.472 183.62 702.472 182.879H705.282C705.307 183.412 705.419 183.828 705.619 184.128C705.827 184.428 706.089 184.636 706.406 184.752C706.722 184.86 707.051 184.915 707.392 184.915C707.8 184.915 708.137 184.86 708.404 184.752C708.67 184.636 708.87 184.465 709.003 184.24C709.145 184.015 709.215 183.749 709.215 183.441ZM717.682 173.488V187H714.772V173.488H717.682ZM714.623 169.942C714.623 169.476 714.764 169.088 715.047 168.78C715.33 168.472 715.726 168.318 716.234 168.318C716.741 168.318 717.137 168.472 717.42 168.78C717.703 169.088 717.844 169.476 717.844 169.942C717.844 170.4 717.703 170.783 717.42 171.091C717.137 171.399 716.741 171.553 716.234 171.553C715.726 171.553 715.33 171.399 715.047 171.091C714.764 170.783 714.623 170.4 714.623 169.942ZM720.367 180.794V179.707C720.367 178.658 720.496 177.73 720.754 176.922C721.012 176.115 721.378 175.441 721.853 174.899C722.336 174.35 722.902 173.938 723.551 173.663C724.201 173.38 724.917 173.239 725.699 173.239C726.498 173.239 727.223 173.38 727.872 173.663C728.53 173.938 729.096 174.35 729.57 174.899C730.053 175.441 730.424 176.115 730.682 176.922C730.94 177.73 731.069 178.658 731.069 179.707V180.794C731.069 181.843 730.94 182.771 730.682 183.578C730.424 184.386 730.053 185.064 729.57 185.614C729.096 186.155 728.534 186.563 727.885 186.838C727.235 187.112 726.515 187.25 725.724 187.25C724.942 187.25 724.221 187.112 723.564 186.838C722.914 186.563 722.348 186.155 721.865 185.614C721.383 185.064 721.012 184.386 720.754 183.578C720.496 182.771 720.367 181.843 720.367 180.794ZM723.277 179.707V180.794C723.277 181.468 723.335 182.059 723.451 182.567C723.568 183.066 723.734 183.483 723.951 183.816C724.167 184.149 724.425 184.398 724.725 184.565C725.025 184.731 725.358 184.815 725.724 184.815C726.132 184.815 726.486 184.731 726.786 184.565C727.094 184.398 727.348 184.149 727.547 183.816C727.756 183.483 727.91 183.066 728.009 182.567C728.109 182.059 728.159 181.468 728.159 180.794V179.707C728.159 179.041 728.101 178.458 727.984 177.959C727.868 177.451 727.701 177.031 727.485 176.698C727.268 176.356 727.006 176.102 726.698 175.936C726.399 175.769 726.066 175.686 725.699 175.686C725.341 175.686 725.012 175.769 724.713 175.936C724.421 176.102 724.167 176.356 723.951 176.698C723.734 177.031 723.568 177.451 723.451 177.959C723.335 178.458 723.277 179.041 723.277 179.707ZM736.451 176.373V187H733.542V173.488H736.276L736.451 176.373ZM735.927 179.757H735.003C734.994 178.783 735.098 177.896 735.315 177.097C735.531 176.298 735.839 175.611 736.239 175.037C736.638 174.462 737.117 174.021 737.675 173.713C738.241 173.397 738.87 173.239 739.561 173.239C740.102 173.239 740.593 173.33 741.034 173.513C741.484 173.688 741.867 173.975 742.183 174.375C742.499 174.775 742.741 175.295 742.907 175.936C743.082 176.577 743.17 177.359 743.17 178.284V187H740.26V178.259C740.26 177.626 740.189 177.126 740.048 176.76C739.914 176.385 739.715 176.119 739.448 175.961C739.182 175.794 738.845 175.711 738.437 175.711C738.062 175.711 737.717 175.819 737.4 176.036C737.092 176.244 736.826 176.535 736.601 176.91C736.385 177.276 736.218 177.705 736.101 178.196C735.985 178.679 735.927 179.199 735.927 179.757ZM752.348 183.441C752.348 183.158 752.265 182.908 752.098 182.692C751.94 182.467 751.682 182.246 751.324 182.03C750.966 181.813 750.487 181.58 749.888 181.331C749.264 181.072 748.71 180.814 748.227 180.556C747.744 180.298 747.336 180.015 747.003 179.707C746.67 179.391 746.416 179.029 746.241 178.621C746.067 178.213 745.979 177.738 745.979 177.197C745.979 176.639 746.083 176.123 746.291 175.649C746.5 175.174 746.799 174.758 747.191 174.4C747.582 174.034 748.052 173.751 748.602 173.551C749.151 173.343 749.771 173.239 750.462 173.239C751.436 173.239 752.269 173.418 752.96 173.776C753.659 174.125 754.192 174.616 754.558 175.249C754.933 175.873 755.12 176.594 755.12 177.409H752.211C752.211 177.068 752.148 176.76 752.023 176.485C751.898 176.202 751.707 175.978 751.449 175.811C751.191 175.636 750.862 175.549 750.462 175.549C750.096 175.549 749.788 175.62 749.538 175.761C749.297 175.894 749.114 176.077 748.989 176.311C748.872 176.535 748.814 176.789 748.814 177.072C748.814 177.28 748.851 177.464 748.926 177.622C749.001 177.78 749.126 177.934 749.301 178.084C749.476 178.225 749.709 178.371 750 178.521C750.3 178.671 750.679 178.841 751.137 179.033C752.044 179.382 752.798 179.745 753.397 180.119C753.996 180.494 754.446 180.931 754.746 181.43C755.045 181.93 755.195 182.55 755.195 183.291C755.195 183.891 755.083 184.432 754.858 184.915C754.642 185.397 754.325 185.814 753.909 186.163C753.501 186.513 753.006 186.784 752.423 186.975C751.848 187.158 751.207 187.25 750.5 187.25C749.443 187.25 748.548 187.042 747.815 186.625C747.091 186.201 746.541 185.655 746.167 184.989C745.792 184.323 745.605 183.62 745.605 182.879H748.414C748.439 183.412 748.552 183.828 748.752 184.128C748.96 184.428 749.222 184.636 749.538 184.752C749.855 184.86 750.183 184.915 750.525 184.915C750.933 184.915 751.27 184.86 751.536 184.752C751.803 184.636 752.002 184.465 752.136 184.24C752.277 184.015 752.348 183.749 752.348 183.441ZM769.881 183.441C769.881 183.158 769.798 182.908 769.631 182.692C769.473 182.467 769.215 182.246 768.857 182.03C768.499 181.813 768.02 181.58 767.421 181.331C766.796 181.072 766.243 180.814 765.76 180.556C765.277 180.298 764.869 180.015 764.536 179.707C764.203 179.391 763.949 179.029 763.774 178.621C763.599 178.213 763.512 177.738 763.512 177.197C763.512 176.639 763.616 176.123 763.824 175.649C764.032 175.174 764.332 174.758 764.723 174.4C765.115 174.034 765.585 173.751 766.134 173.551C766.684 173.343 767.304 173.239 767.995 173.239C768.969 173.239 769.802 173.418 770.493 173.776C771.192 174.125 771.725 174.616 772.091 175.249C772.466 175.873 772.653 176.594 772.653 177.409H769.743C769.743 177.068 769.681 176.76 769.556 176.485C769.431 176.202 769.24 175.978 768.982 175.811C768.724 175.636 768.395 175.549 767.995 175.549C767.629 175.549 767.321 175.62 767.071 175.761C766.83 175.894 766.646 176.077 766.522 176.311C766.405 176.535 766.347 176.789 766.347 177.072C766.347 177.28 766.384 177.464 766.459 177.622C766.534 177.78 766.659 177.934 766.834 178.084C767.009 178.225 767.242 178.371 767.533 178.521C767.833 178.671 768.212 178.841 768.669 179.033C769.577 179.382 770.33 179.745 770.93 180.119C771.529 180.494 771.979 180.931 772.278 181.43C772.578 181.93 772.728 182.55 772.728 183.291C772.728 183.891 772.616 184.432 772.391 184.915C772.174 185.397 771.858 185.814 771.442 186.163C771.034 186.513 770.538 186.784 769.956 186.975C769.381 187.158 768.74 187.25 768.033 187.25C766.975 187.25 766.08 187.042 765.348 186.625C764.623 186.201 764.074 185.655 763.699 184.989C763.325 184.323 763.137 183.62 763.137 182.879H765.947C765.972 183.412 766.084 183.828 766.284 184.128C766.492 184.428 766.755 184.636 767.071 184.752C767.387 184.86 767.716 184.915 768.058 184.915C768.465 184.915 768.803 184.86 769.069 184.752C769.335 184.636 769.535 184.465 769.668 184.24C769.81 184.015 769.881 183.749 769.881 183.441ZM780.058 184.815C780.433 184.815 780.766 184.736 781.057 184.577C781.357 184.419 781.594 184.174 781.769 183.841C781.944 183.499 782.04 183.058 782.056 182.517H784.791C784.774 183.474 784.554 184.311 784.129 185.027C783.705 185.735 783.139 186.284 782.431 186.675C781.732 187.058 780.953 187.25 780.096 187.25C779.205 187.25 778.427 187.108 777.761 186.825C777.103 186.534 776.558 186.113 776.125 185.564C775.692 185.014 775.367 184.348 775.151 183.566C774.942 182.775 774.838 181.872 774.838 180.856V179.632C774.838 178.625 774.942 177.726 775.151 176.935C775.367 176.144 775.692 175.474 776.125 174.924C776.558 174.375 777.103 173.959 777.761 173.676C778.418 173.384 779.192 173.239 780.083 173.239C781.032 173.239 781.852 173.438 782.543 173.838C783.243 174.229 783.788 174.804 784.179 175.561C784.57 176.319 784.774 177.247 784.791 178.346H782.056C782.04 177.763 781.952 177.276 781.794 176.885C781.636 176.485 781.411 176.186 781.12 175.986C780.837 175.786 780.479 175.686 780.046 175.686C779.571 175.686 779.18 175.778 778.872 175.961C778.572 176.136 778.339 176.394 778.173 176.735C778.014 177.076 777.902 177.493 777.835 177.984C777.777 178.467 777.748 179.016 777.748 179.632V180.856C777.748 181.489 777.777 182.051 777.835 182.542C777.894 183.025 778.002 183.437 778.16 183.778C778.327 184.12 778.564 184.378 778.872 184.552C779.18 184.727 779.575 184.815 780.058 184.815ZM789.911 167.819V187H787.014V167.819H789.911ZM789.399 179.757H788.475C788.467 178.816 788.567 177.951 788.775 177.16C788.983 176.369 789.283 175.678 789.674 175.087C790.065 174.496 790.535 174.042 791.085 173.726C791.643 173.401 792.259 173.239 792.933 173.239C793.491 173.239 793.995 173.334 794.444 173.526C794.902 173.709 795.293 174 795.618 174.4C795.951 174.8 796.205 175.324 796.38 175.973C796.555 176.614 796.642 177.397 796.642 178.321V187H793.732V178.296C793.732 177.655 793.662 177.147 793.52 176.773C793.387 176.398 793.187 176.127 792.921 175.961C792.654 175.794 792.317 175.711 791.909 175.711C791.509 175.711 791.151 175.819 790.835 176.036C790.527 176.244 790.265 176.535 790.048 176.91C789.832 177.276 789.67 177.705 789.561 178.196C789.453 178.679 789.399 179.199 789.399 179.757ZM804.709 187.25C803.835 187.25 803.056 187.121 802.374 186.863C801.691 186.596 801.113 186.205 800.638 185.689C800.163 185.164 799.801 184.523 799.552 183.766C799.302 183 799.177 182.113 799.177 181.106V179.807C799.177 178.667 799.306 177.684 799.564 176.86C799.83 176.027 800.197 175.345 800.663 174.812C801.129 174.279 801.679 173.884 802.311 173.626C802.952 173.368 803.648 173.239 804.397 173.239C805.246 173.239 805.983 173.376 806.607 173.651C807.231 173.925 807.743 174.337 808.143 174.887C808.551 175.436 808.851 176.115 809.042 176.922C809.242 177.73 809.342 178.658 809.342 179.707V181.168H800.576V178.97H806.47V178.658C806.453 178.042 806.378 177.514 806.245 177.072C806.112 176.623 805.895 176.281 805.596 176.048C805.304 175.807 804.9 175.686 804.384 175.686C804.01 175.686 803.677 175.757 803.385 175.898C803.094 176.04 802.852 176.269 802.661 176.585C802.478 176.902 802.336 177.326 802.236 177.859C802.137 178.383 802.087 179.033 802.087 179.807V181.106C802.087 181.78 802.145 182.35 802.261 182.817C802.386 183.283 802.569 183.666 802.811 183.965C803.052 184.257 803.344 184.473 803.685 184.615C804.035 184.748 804.438 184.815 804.896 184.815C805.571 184.815 806.149 184.69 806.632 184.44C807.123 184.182 807.548 183.849 807.906 183.441L809.192 185.227C808.951 185.551 808.626 185.872 808.218 186.188C807.81 186.496 807.315 186.75 806.732 186.95C806.158 187.15 805.483 187.25 804.709 187.25ZM818.47 184.178V167.819H821.38V187L818.745 187.012L818.47 184.178ZM811.215 180.794V179.732C811.215 178.625 811.315 177.668 811.515 176.86C811.715 176.044 812.006 175.366 812.389 174.824C812.78 174.283 813.251 173.884 813.8 173.626C814.349 173.368 814.97 173.239 815.661 173.239C816.335 173.239 816.918 173.393 817.409 173.701C817.9 174 818.316 174.429 818.658 174.987C818.999 175.545 819.27 176.211 819.469 176.985C819.678 177.751 819.819 178.608 819.894 179.557V181.031C819.802 181.947 819.657 182.787 819.457 183.553C819.257 184.311 818.987 184.965 818.645 185.514C818.304 186.063 817.884 186.492 817.384 186.8C816.893 187.1 816.314 187.25 815.648 187.25C814.957 187.25 814.337 187.112 813.788 186.838C813.246 186.563 812.78 186.155 812.389 185.614C812.006 185.073 811.715 184.403 811.515 183.603C811.315 182.796 811.215 181.859 811.215 180.794ZM814.125 179.732V180.794C814.125 181.485 814.166 182.08 814.25 182.579C814.333 183.079 814.466 183.491 814.649 183.816C814.832 184.132 815.074 184.369 815.373 184.527C815.673 184.677 816.035 184.752 816.46 184.752C816.993 184.752 817.426 184.619 817.759 184.353C818.1 184.086 818.362 183.728 818.545 183.279C818.737 182.821 818.87 182.313 818.945 181.755V178.846C818.903 178.404 818.82 177.996 818.695 177.622C818.57 177.239 818.408 176.906 818.208 176.623C818.008 176.34 817.763 176.119 817.471 175.961C817.188 175.794 816.855 175.711 816.472 175.711C816.048 175.711 815.686 175.794 815.386 175.961C815.086 176.119 814.845 176.365 814.662 176.698C814.479 177.022 814.341 177.439 814.25 177.946C814.166 178.446 814.125 179.041 814.125 179.732ZM831.033 183.816V173.488H833.943V187H831.208L831.033 183.816ZM831.445 180.993L832.369 180.968C832.369 181.876 832.286 182.713 832.119 183.478C831.953 184.244 831.695 184.91 831.345 185.476C831.004 186.034 830.559 186.471 830.009 186.788C829.468 187.096 828.814 187.25 828.049 187.25C827.499 187.25 826.995 187.154 826.537 186.963C826.08 186.771 825.684 186.476 825.351 186.076C825.018 185.676 824.76 185.156 824.577 184.515C824.394 183.874 824.302 183.108 824.302 182.217V173.488H827.212V182.242C827.212 182.725 827.253 183.129 827.337 183.453C827.42 183.77 827.537 184.028 827.686 184.228C827.836 184.419 828.003 184.557 828.186 184.64C828.377 184.715 828.581 184.752 828.798 184.752C829.455 184.752 829.976 184.59 830.359 184.265C830.75 183.932 831.029 183.483 831.195 182.917C831.362 182.35 831.445 181.709 831.445 180.993ZM839.937 167.819V187H837.027V167.819H839.937ZM848.216 187.25C847.342 187.25 846.564 187.121 845.881 186.863C845.198 186.596 844.62 186.205 844.145 185.689C843.671 185.164 843.309 184.523 843.059 183.766C842.809 183 842.684 182.113 842.684 181.106V179.807C842.684 178.667 842.813 177.684 843.071 176.86C843.338 176.027 843.704 175.345 844.17 174.812C844.636 174.279 845.186 173.884 845.819 173.626C846.46 173.368 847.155 173.239 847.904 173.239C848.753 173.239 849.49 173.376 850.114 173.651C850.739 173.925 851.251 174.337 851.65 174.887C852.058 175.436 852.358 176.115 852.549 176.922C852.749 177.73 852.849 178.658 852.849 179.707V181.168H844.083V178.97H849.977V178.658C849.96 178.042 849.885 177.514 849.752 177.072C849.619 176.623 849.403 176.281 849.103 176.048C848.811 175.807 848.408 175.686 847.892 175.686C847.517 175.686 847.184 175.757 846.892 175.898C846.601 176.04 846.36 176.269 846.168 176.585C845.985 176.902 845.844 177.326 845.744 177.859C845.644 178.383 845.594 179.033 845.594 179.807V181.106C845.594 181.78 845.652 182.35 845.769 182.817C845.893 183.283 846.077 183.666 846.318 183.965C846.559 184.257 846.851 184.473 847.192 184.615C847.542 184.748 847.946 184.815 848.403 184.815C849.078 184.815 849.656 184.69 850.139 184.44C850.63 184.182 851.055 183.849 851.413 183.441L852.699 185.227C852.458 185.551 852.133 185.872 851.725 186.188C851.317 186.496 850.822 186.75 850.239 186.95C849.665 187.15 848.99 187.25 848.216 187.25ZM861.978 184.178V167.819H864.887V187L862.252 187.012L861.978 184.178ZM854.722 180.794V179.732C854.722 178.625 854.822 177.668 855.022 176.86C855.222 176.044 855.513 175.366 855.896 174.824C856.287 174.283 856.758 173.884 857.307 173.626C857.857 173.368 858.477 173.239 859.168 173.239C859.842 173.239 860.425 173.393 860.916 173.701C861.407 174 861.824 174.429 862.165 174.987C862.506 175.545 862.777 176.211 862.977 176.985C863.185 177.751 863.326 178.608 863.401 179.557V181.031C863.31 181.947 863.164 182.787 862.964 183.553C862.764 184.311 862.494 184.965 862.152 185.514C861.811 186.063 861.391 186.492 860.891 186.8C860.4 187.1 859.821 187.25 859.155 187.25C858.464 187.25 857.844 187.112 857.295 186.838C856.754 186.563 856.287 186.155 855.896 185.614C855.513 185.073 855.222 184.403 855.022 183.603C854.822 182.796 854.722 181.859 854.722 180.794ZM857.632 179.732V180.794C857.632 181.485 857.674 182.08 857.757 182.579C857.84 183.079 857.973 183.491 858.156 183.816C858.34 184.132 858.581 184.369 858.881 184.527C859.18 184.677 859.543 184.752 859.967 184.752C860.5 184.752 860.933 184.619 861.266 184.353C861.607 184.086 861.869 183.728 862.053 183.279C862.244 182.821 862.377 182.313 862.452 181.755V178.846C862.411 178.404 862.327 177.996 862.202 177.622C862.078 177.239 861.915 176.906 861.715 176.623C861.516 176.34 861.27 176.119 860.979 175.961C860.696 175.794 860.363 175.711 859.98 175.711C859.555 175.711 859.193 175.794 858.893 175.961C858.593 176.119 858.352 176.365 858.169 176.698C857.986 177.022 857.848 177.439 857.757 177.946C857.674 178.446 857.632 179.041 857.632 179.732ZM868.097 185.476C868.097 184.994 868.251 184.59 868.559 184.265C868.875 183.941 869.308 183.778 869.857 183.778C870.407 183.778 870.836 183.941 871.144 184.265C871.46 184.59 871.618 184.994 871.618 185.476C871.618 185.943 871.46 186.338 871.144 186.663C870.836 186.988 870.407 187.15 869.857 187.15C869.308 187.15 868.875 186.988 868.559 186.663C868.251 186.338 868.097 185.943 868.097 185.476ZM557.577 208.808H553.868L553.856 206.485H557.14C557.648 206.485 558.081 206.385 558.439 206.186C558.797 205.986 559.067 205.694 559.25 205.312C559.442 204.929 559.538 204.466 559.538 203.925C559.538 203.326 559.45 202.839 559.275 202.464C559.109 202.081 558.851 201.802 558.501 201.628C558.152 201.453 557.702 201.365 557.153 201.365H554.767V217H551.733V198.818H557.153C558.002 198.818 558.759 198.914 559.425 199.105C560.091 199.297 560.657 199.596 561.124 200.004C561.598 200.412 561.956 200.924 562.198 201.54C562.447 202.156 562.572 202.889 562.572 203.738C562.572 204.479 562.414 205.162 562.098 205.786C561.781 206.402 561.311 206.91 560.687 207.31C560.071 207.701 559.305 207.934 558.389 208.009L557.577 208.808ZM557.465 217H552.869L554.268 214.465H557.465C558.006 214.465 558.451 214.348 558.801 214.115C559.151 213.882 559.413 213.558 559.588 213.141C559.762 212.725 559.85 212.238 559.85 211.68C559.85 211.097 559.775 210.59 559.625 210.157C559.475 209.724 559.234 209.391 558.901 209.158C558.568 208.925 558.127 208.808 557.577 208.808H554.518L554.543 206.485H558.451L559.151 207.372C560.025 207.389 560.737 207.605 561.286 208.021C561.835 208.429 562.239 208.958 562.497 209.607C562.755 210.257 562.884 210.952 562.884 211.693C562.884 212.85 562.668 213.824 562.235 214.615C561.81 215.397 561.194 215.993 560.387 216.401C559.579 216.8 558.605 217 557.465 217ZM565.257 210.794V209.707C565.257 208.658 565.386 207.73 565.644 206.922C565.902 206.115 566.269 205.441 566.743 204.899C567.226 204.35 567.792 203.938 568.441 203.663C569.091 203.38 569.807 203.239 570.589 203.239C571.389 203.239 572.113 203.38 572.762 203.663C573.42 203.938 573.986 204.35 574.461 204.899C574.943 205.441 575.314 206.115 575.572 206.922C575.83 207.73 575.959 208.658 575.959 209.707V210.794C575.959 211.843 575.83 212.771 575.572 213.578C575.314 214.386 574.943 215.064 574.461 215.614C573.986 216.155 573.424 216.563 572.775 216.838C572.125 217.112 571.405 217.25 570.614 217.25C569.832 217.25 569.112 217.112 568.454 216.838C567.805 216.563 567.238 216.155 566.756 215.614C566.273 215.064 565.902 214.386 565.644 213.578C565.386 212.771 565.257 211.843 565.257 210.794ZM568.167 209.707V210.794C568.167 211.468 568.225 212.059 568.342 212.567C568.458 213.066 568.625 213.483 568.841 213.816C569.058 214.149 569.316 214.398 569.615 214.565C569.915 214.731 570.248 214.815 570.614 214.815C571.022 214.815 571.376 214.731 571.676 214.565C571.984 214.398 572.238 214.149 572.438 213.816C572.646 213.483 572.8 213.066 572.9 212.567C572.999 212.059 573.049 211.468 573.049 210.794V209.707C573.049 209.041 572.991 208.458 572.875 207.959C572.758 207.451 572.592 207.031 572.375 206.698C572.159 206.356 571.896 206.102 571.588 205.936C571.289 205.769 570.956 205.686 570.589 205.686C570.231 205.686 569.903 205.769 569.603 205.936C569.311 206.102 569.058 206.356 568.841 206.698C568.625 207.031 568.458 207.451 568.342 207.959C568.225 208.458 568.167 209.041 568.167 209.707ZM578.045 210.794V209.707C578.045 208.658 578.174 207.73 578.432 206.922C578.69 206.115 579.056 205.441 579.531 204.899C580.013 204.35 580.58 203.938 581.229 203.663C581.878 203.38 582.594 203.239 583.377 203.239C584.176 203.239 584.9 203.38 585.55 203.663C586.207 203.938 586.773 204.35 587.248 204.899C587.731 205.441 588.101 206.115 588.359 206.922C588.617 207.73 588.746 208.658 588.746 209.707V210.794C588.746 211.843 588.617 212.771 588.359 213.578C588.101 214.386 587.731 215.064 587.248 215.614C586.773 216.155 586.211 216.563 585.562 216.838C584.913 217.112 584.193 217.25 583.402 217.25C582.619 217.25 581.899 217.112 581.241 216.838C580.592 216.563 580.026 216.155 579.543 215.614C579.06 215.064 578.69 214.386 578.432 213.578C578.174 212.771 578.045 211.843 578.045 210.794ZM580.954 209.707V210.794C580.954 211.468 581.012 212.059 581.129 212.567C581.246 213.066 581.412 213.483 581.628 213.816C581.845 214.149 582.103 214.398 582.403 214.565C582.702 214.731 583.035 214.815 583.402 214.815C583.81 214.815 584.163 214.731 584.463 214.565C584.771 214.398 585.025 214.149 585.225 213.816C585.433 213.483 585.587 213.066 585.687 212.567C585.787 212.059 585.837 211.468 585.837 210.794V209.707C585.837 209.041 585.779 208.458 585.662 207.959C585.545 207.451 585.379 207.031 585.162 206.698C584.946 206.356 584.684 206.102 584.376 205.936C584.076 205.769 583.743 205.686 583.377 205.686C583.019 205.686 582.69 205.769 582.39 205.936C582.099 206.102 581.845 206.356 581.628 206.698C581.412 207.031 581.246 207.451 581.129 207.959C581.012 208.458 580.954 209.041 580.954 209.707ZM594.179 197.819V217H591.269V197.819H594.179ZM601.172 203.488L596.376 210.019L593.467 213.329L592.73 210.756L594.865 207.722L597.688 203.488H601.172ZM598.262 217L594.928 210.681L596.751 208.546L601.609 217H598.262ZM615.333 214.253V207.522C615.333 207.056 615.266 206.681 615.133 206.398C615.008 206.115 614.821 205.911 614.571 205.786C614.33 205.653 614.026 205.586 613.659 205.586C613.277 205.586 612.952 205.665 612.685 205.823C612.427 205.982 612.232 206.198 612.098 206.473C611.965 206.739 611.899 207.047 611.899 207.397H608.989C608.989 206.856 609.097 206.335 609.314 205.836C609.539 205.336 609.859 204.891 610.275 204.5C610.692 204.109 611.195 203.8 611.786 203.576C612.377 203.351 613.035 203.239 613.759 203.239C614.625 203.239 615.395 203.384 616.07 203.676C616.744 203.959 617.273 204.421 617.656 205.062C618.047 205.694 618.242 206.527 618.242 207.559V213.866C618.242 214.49 618.28 215.048 618.355 215.539C618.438 216.022 618.55 216.442 618.692 216.8V217H615.732C615.599 216.675 615.499 216.259 615.433 215.751C615.366 215.243 615.333 214.744 615.333 214.253ZM615.72 208.771L615.732 210.656H614.334C613.918 210.656 613.543 210.715 613.21 210.831C612.877 210.939 612.594 211.097 612.361 211.306C612.136 211.505 611.961 211.751 611.836 212.042C611.72 212.334 611.661 212.654 611.661 213.004C611.661 213.429 611.72 213.774 611.836 214.04C611.961 214.307 612.14 214.507 612.373 214.64C612.615 214.765 612.906 214.827 613.247 214.827C613.714 214.827 614.117 214.727 614.459 214.527C614.808 214.319 615.075 214.07 615.258 213.778C615.449 213.487 615.524 213.22 615.483 212.979L616.145 214.19C616.078 214.507 615.953 214.84 615.77 215.189C615.595 215.539 615.366 215.872 615.083 216.188C614.8 216.505 614.459 216.763 614.059 216.963C613.659 217.154 613.197 217.25 612.673 217.25C611.915 217.25 611.241 217.092 610.65 216.775C610.059 216.459 609.593 216.005 609.251 215.414C608.918 214.815 608.752 214.099 608.752 213.266C608.752 212.592 608.864 211.98 609.089 211.43C609.314 210.881 609.647 210.411 610.088 210.019C610.529 209.62 611.083 209.312 611.749 209.095C612.423 208.879 613.21 208.771 614.109 208.771H615.72ZM633.378 213.441C633.378 213.158 633.294 212.908 633.128 212.692C632.97 212.467 632.712 212.246 632.354 212.03C631.996 211.813 631.517 211.58 630.917 211.331C630.293 211.072 629.739 210.814 629.257 210.556C628.774 210.298 628.366 210.015 628.033 209.707C627.7 209.391 627.446 209.029 627.271 208.621C627.096 208.213 627.009 207.738 627.009 207.197C627.009 206.639 627.113 206.123 627.321 205.649C627.529 205.174 627.829 204.758 628.22 204.4C628.611 204.034 629.082 203.751 629.631 203.551C630.181 203.343 630.801 203.239 631.492 203.239C632.466 203.239 633.298 203.418 633.989 203.776C634.689 204.125 635.222 204.616 635.588 205.249C635.963 205.873 636.15 206.594 636.15 207.409H633.24C633.24 207.068 633.178 206.76 633.053 206.485C632.928 206.202 632.737 205.978 632.478 205.811C632.22 205.636 631.892 205.549 631.492 205.549C631.126 205.549 630.818 205.62 630.568 205.761C630.326 205.894 630.143 206.077 630.018 206.311C629.902 206.535 629.844 206.789 629.844 207.072C629.844 207.28 629.881 207.464 629.956 207.622C630.031 207.78 630.156 207.934 630.331 208.084C630.505 208.225 630.738 208.371 631.03 208.521C631.33 208.671 631.708 208.841 632.166 209.033C633.074 209.382 633.827 209.745 634.427 210.119C635.026 210.494 635.475 210.931 635.775 211.43C636.075 211.93 636.225 212.55 636.225 213.291C636.225 213.891 636.112 214.432 635.888 214.915C635.671 215.397 635.355 215.814 634.939 216.163C634.531 216.513 634.035 216.784 633.452 216.975C632.878 217.158 632.237 217.25 631.529 217.25C630.472 217.25 629.577 217.042 628.845 216.625C628.12 216.201 627.571 215.655 627.196 214.989C626.822 214.323 626.634 213.62 626.634 212.879H629.444C629.469 213.412 629.581 213.828 629.781 214.128C629.989 214.428 630.251 214.636 630.568 214.752C630.884 214.86 631.213 214.915 631.554 214.915C631.962 214.915 632.299 214.86 632.566 214.752C632.832 214.636 633.032 214.465 633.165 214.24C633.307 214.015 633.378 213.749 633.378 213.441ZM643.93 217.25C643.056 217.25 642.277 217.121 641.594 216.863C640.912 216.596 640.333 216.205 639.859 215.689C639.384 215.164 639.022 214.523 638.772 213.766C638.522 213 638.398 212.113 638.398 211.106V209.807C638.398 208.667 638.527 207.684 638.785 206.86C639.051 206.027 639.417 205.345 639.884 204.812C640.35 204.279 640.899 203.884 641.532 203.626C642.173 203.368 642.868 203.239 643.617 203.239C644.467 203.239 645.203 203.376 645.828 203.651C646.452 203.925 646.964 204.337 647.364 204.887C647.772 205.436 648.071 206.115 648.263 206.922C648.463 207.73 648.563 208.658 648.563 209.707V211.168H639.796V208.97H645.69V208.658C645.674 208.042 645.599 207.514 645.466 207.072C645.332 206.623 645.116 206.281 644.816 206.048C644.525 205.807 644.121 205.686 643.605 205.686C643.23 205.686 642.897 205.757 642.606 205.898C642.315 206.04 642.073 206.269 641.882 206.585C641.699 206.902 641.557 207.326 641.457 207.859C641.357 208.383 641.307 209.033 641.307 209.807V211.106C641.307 211.78 641.366 212.35 641.482 212.817C641.607 213.283 641.79 213.666 642.032 213.965C642.273 214.257 642.564 214.473 642.906 214.615C643.255 214.748 643.659 214.815 644.117 214.815C644.791 214.815 645.37 214.69 645.853 214.44C646.344 214.182 646.769 213.849 647.127 213.441L648.413 215.227C648.171 215.551 647.847 215.872 647.439 216.188C647.031 216.496 646.535 216.75 645.953 216.95C645.378 217.15 644.704 217.25 643.93 217.25ZM657.154 213.441C657.154 213.158 657.071 212.908 656.904 212.692C656.746 212.467 656.488 212.246 656.13 212.03C655.772 211.813 655.293 211.58 654.694 211.331C654.07 211.072 653.516 210.814 653.033 210.556C652.55 210.298 652.142 210.015 651.809 209.707C651.476 209.391 651.223 209.029 651.048 208.621C650.873 208.213 650.785 207.738 650.785 207.197C650.785 206.639 650.889 206.123 651.098 205.649C651.306 205.174 651.605 204.758 651.997 204.4C652.388 204.034 652.858 203.751 653.408 203.551C653.957 203.343 654.578 203.239 655.269 203.239C656.243 203.239 657.075 203.418 657.766 203.776C658.465 204.125 658.998 204.616 659.364 205.249C659.739 205.873 659.926 206.594 659.926 207.409H657.017C657.017 207.068 656.954 206.76 656.829 206.485C656.705 206.202 656.513 205.978 656.255 205.811C655.997 205.636 655.668 205.549 655.269 205.549C654.902 205.549 654.594 205.62 654.344 205.761C654.103 205.894 653.92 206.077 653.795 206.311C653.678 206.535 653.62 206.789 653.62 207.072C653.62 207.28 653.658 207.464 653.733 207.622C653.807 207.78 653.932 207.934 654.107 208.084C654.282 208.225 654.515 208.371 654.806 208.521C655.106 208.671 655.485 208.841 655.943 209.033C656.85 209.382 657.604 209.745 658.203 210.119C658.803 210.494 659.252 210.931 659.552 211.43C659.852 211.93 660.001 212.55 660.001 213.291C660.001 213.891 659.889 214.432 659.664 214.915C659.448 215.397 659.131 215.814 658.715 216.163C658.307 216.513 657.812 216.784 657.229 216.975C656.655 217.158 656.014 217.25 655.306 217.25C654.249 217.25 653.354 217.042 652.621 216.625C651.897 216.201 651.347 215.655 650.973 214.989C650.598 214.323 650.411 213.62 650.411 212.879H653.221C653.246 213.412 653.358 213.828 653.558 214.128C653.766 214.428 654.028 214.636 654.344 214.752C654.661 214.86 654.99 214.915 655.331 214.915C655.739 214.915 656.076 214.86 656.342 214.752C656.609 214.636 656.809 214.465 656.942 214.24C657.083 214.015 657.154 213.749 657.154 213.441ZM668.793 213.441C668.793 213.158 668.709 212.908 668.543 212.692C668.385 212.467 668.127 212.246 667.769 212.03C667.411 211.813 666.932 211.58 666.333 211.331C665.708 211.072 665.155 210.814 664.672 210.556C664.189 210.298 663.781 210.015 663.448 209.707C663.115 209.391 662.861 209.029 662.686 208.621C662.511 208.213 662.424 207.738 662.424 207.197C662.424 206.639 662.528 206.123 662.736 205.649C662.944 205.174 663.244 204.758 663.635 204.4C664.027 204.034 664.497 203.751 665.046 203.551C665.596 203.343 666.216 203.239 666.907 203.239C667.881 203.239 668.714 203.418 669.405 203.776C670.104 204.125 670.637 204.616 671.003 205.249C671.378 205.873 671.565 206.594 671.565 207.409H668.655C668.655 207.068 668.593 206.76 668.468 206.485C668.343 206.202 668.152 205.978 667.894 205.811C667.636 205.636 667.307 205.549 666.907 205.549C666.541 205.549 666.233 205.62 665.983 205.761C665.742 205.894 665.558 206.077 665.434 206.311C665.317 206.535 665.259 206.789 665.259 207.072C665.259 207.28 665.296 207.464 665.371 207.622C665.446 207.78 665.571 207.934 665.746 208.084C665.921 208.225 666.154 208.371 666.445 208.521C666.745 208.671 667.124 208.841 667.581 209.033C668.489 209.382 669.242 209.745 669.842 210.119C670.441 210.494 670.891 210.931 671.19 211.43C671.49 211.93 671.64 212.55 671.64 213.291C671.64 213.891 671.528 214.432 671.303 214.915C671.086 215.397 670.77 215.814 670.354 216.163C669.946 216.513 669.45 216.784 668.868 216.975C668.293 217.158 667.652 217.25 666.945 217.25C665.887 217.25 664.992 217.042 664.26 216.625C663.535 216.201 662.986 215.655 662.611 214.989C662.237 214.323 662.049 213.62 662.049 212.879H664.859C664.884 213.412 664.996 213.828 665.196 214.128C665.404 214.428 665.667 214.636 665.983 214.752C666.299 214.86 666.628 214.915 666.97 214.915C667.377 214.915 667.715 214.86 667.981 214.752C668.247 214.636 668.447 214.465 668.58 214.24C668.722 214.015 668.793 213.749 668.793 213.441ZM677.259 203.488V217H674.35V203.488H677.259ZM674.2 199.942C674.2 199.476 674.341 199.088 674.624 198.78C674.908 198.472 675.303 198.318 675.811 198.318C676.319 198.318 676.714 198.472 676.997 198.78C677.28 199.088 677.422 199.476 677.422 199.942C677.422 200.4 677.28 200.783 676.997 201.091C676.714 201.399 676.319 201.553 675.811 201.553C675.303 201.553 674.908 201.399 674.624 201.091C674.341 200.783 674.2 200.4 674.2 199.942ZM679.944 210.794V209.707C679.944 208.658 680.073 207.73 680.331 206.922C680.589 206.115 680.956 205.441 681.43 204.899C681.913 204.35 682.479 203.938 683.129 203.663C683.778 203.38 684.494 203.239 685.276 203.239C686.076 203.239 686.8 203.38 687.449 203.663C688.107 203.938 688.673 204.35 689.148 204.899C689.631 205.441 690.001 206.115 690.259 206.922C690.517 207.73 690.646 208.658 690.646 209.707V210.794C690.646 211.843 690.517 212.771 690.259 213.578C690.001 214.386 689.631 215.064 689.148 215.614C688.673 216.155 688.111 216.563 687.462 216.838C686.812 217.112 686.092 217.25 685.301 217.25C684.519 217.25 683.799 217.112 683.141 216.838C682.492 216.563 681.926 216.155 681.443 215.614C680.96 215.064 680.589 214.386 680.331 213.578C680.073 212.771 679.944 211.843 679.944 210.794ZM682.854 209.707V210.794C682.854 211.468 682.912 212.059 683.029 212.567C683.145 213.066 683.312 213.483 683.528 213.816C683.745 214.149 684.003 214.398 684.302 214.565C684.602 214.731 684.935 214.815 685.301 214.815C685.709 214.815 686.063 214.731 686.363 214.565C686.671 214.398 686.925 214.149 687.125 213.816C687.333 213.483 687.487 213.066 687.587 212.567C687.687 212.059 687.737 211.468 687.737 210.794V209.707C687.737 209.041 687.678 208.458 687.562 207.959C687.445 207.451 687.279 207.031 687.062 206.698C686.846 206.356 686.584 206.102 686.276 205.936C685.976 205.769 685.643 205.686 685.276 205.686C684.919 205.686 684.59 205.769 684.29 205.936C683.999 206.102 683.745 206.356 683.528 206.698C683.312 207.031 683.145 207.451 683.029 207.959C682.912 208.458 682.854 209.041 682.854 209.707ZM696.028 206.373V217H693.119V203.488H695.854L696.028 206.373ZM695.504 209.757H694.58C694.572 208.783 694.676 207.896 694.892 207.097C695.108 206.298 695.417 205.611 695.816 205.037C696.216 204.462 696.694 204.021 697.252 203.713C697.818 203.397 698.447 203.239 699.138 203.239C699.679 203.239 700.17 203.33 700.611 203.513C701.061 203.688 701.444 203.975 701.76 204.375C702.077 204.775 702.318 205.295 702.485 205.936C702.659 206.577 702.747 207.359 702.747 208.284V217H699.837V208.259C699.837 207.626 699.766 207.126 699.625 206.76C699.492 206.385 699.292 206.119 699.025 205.961C698.759 205.794 698.422 205.711 698.014 205.711C697.639 205.711 697.294 205.819 696.977 206.036C696.669 206.244 696.403 206.535 696.178 206.91C695.962 207.276 695.795 207.705 695.679 208.196C695.562 208.679 695.504 209.199 695.504 209.757ZM717.02 203.488V205.736H710.389V203.488H717.02ZM712.2 200.179H715.097V213.229C715.097 213.645 715.143 213.961 715.235 214.178C715.326 214.394 715.455 214.54 715.622 214.615C715.788 214.69 715.984 214.727 716.209 214.727C716.375 214.727 716.537 214.715 716.696 214.69C716.862 214.656 716.983 214.627 717.058 214.602V216.95C716.841 217.033 716.592 217.104 716.308 217.162C716.025 217.221 715.684 217.25 715.284 217.25C714.693 217.25 714.165 217.129 713.699 216.888C713.232 216.638 712.866 216.234 712.6 215.676C712.333 215.11 712.2 214.361 712.2 213.429V200.179ZM718.531 210.794V209.707C718.531 208.658 718.66 207.73 718.918 206.922C719.176 206.115 719.543 205.441 720.017 204.899C720.5 204.35 721.066 203.938 721.716 203.663C722.365 203.38 723.081 203.239 723.864 203.239C724.663 203.239 725.387 203.38 726.036 203.663C726.694 203.938 727.26 204.35 727.735 204.899C728.218 205.441 728.588 206.115 728.846 206.922C729.104 207.73 729.233 208.658 729.233 209.707V210.794C729.233 211.843 729.104 212.771 728.846 213.578C728.588 214.386 728.218 215.064 727.735 215.614C727.26 216.155 726.698 216.563 726.049 216.838C725.4 217.112 724.679 217.25 723.889 217.25C723.106 217.25 722.386 217.112 721.728 216.838C721.079 216.563 720.513 216.155 720.03 215.614C719.547 215.064 719.176 214.386 718.918 213.578C718.66 212.771 718.531 211.843 718.531 210.794ZM721.441 209.707V210.794C721.441 211.468 721.499 212.059 721.616 212.567C721.732 213.066 721.899 213.483 722.115 213.816C722.332 214.149 722.59 214.398 722.889 214.565C723.189 214.731 723.522 214.815 723.889 214.815C724.296 214.815 724.65 214.731 724.95 214.565C725.258 214.398 725.512 214.149 725.712 213.816C725.92 213.483 726.074 213.066 726.174 212.567C726.274 212.059 726.324 211.468 726.324 210.794V209.707C726.324 209.041 726.265 208.458 726.149 207.959C726.032 207.451 725.866 207.031 725.649 206.698C725.433 206.356 725.171 206.102 724.863 205.936C724.563 205.769 724.23 205.686 723.864 205.686C723.506 205.686 723.177 205.769 722.877 205.936C722.586 206.102 722.332 206.356 722.115 206.698C721.899 207.031 721.732 207.451 721.616 207.959C721.499 208.458 721.441 209.041 721.441 209.707ZM743.894 213.441C743.894 213.158 743.811 212.908 743.644 212.692C743.486 212.467 743.228 212.246 742.87 212.03C742.512 211.813 742.033 211.58 741.434 211.331C740.809 211.072 740.256 210.814 739.773 210.556C739.29 210.298 738.882 210.015 738.549 209.707C738.216 209.391 737.962 209.029 737.787 208.621C737.613 208.213 737.525 207.738 737.525 207.197C737.525 206.639 737.629 206.123 737.837 205.649C738.045 205.174 738.345 204.758 738.736 204.4C739.128 204.034 739.598 203.751 740.148 203.551C740.697 203.343 741.317 203.239 742.008 203.239C742.982 203.239 743.815 203.418 744.506 203.776C745.205 204.125 745.738 204.616 746.104 205.249C746.479 205.873 746.666 206.594 746.666 207.409H743.756C743.756 207.068 743.694 206.76 743.569 206.485C743.444 206.202 743.253 205.978 742.995 205.811C742.737 205.636 742.408 205.549 742.008 205.549C741.642 205.549 741.334 205.62 741.084 205.761C740.843 205.894 740.66 206.077 740.535 206.311C740.418 206.535 740.36 206.789 740.36 207.072C740.36 207.28 740.397 207.464 740.472 207.622C740.547 207.78 740.672 207.934 740.847 208.084C741.022 208.225 741.255 208.371 741.546 208.521C741.846 208.671 742.225 208.841 742.683 209.033C743.59 209.382 744.343 209.745 744.943 210.119C745.542 210.494 745.992 210.931 746.291 211.43C746.591 211.93 746.741 212.55 746.741 213.291C746.741 213.891 746.629 214.432 746.404 214.915C746.187 215.397 745.871 215.814 745.455 216.163C745.047 216.513 744.552 216.784 743.969 216.975C743.394 217.158 742.753 217.25 742.046 217.25C740.988 217.25 740.093 217.042 739.361 216.625C738.637 216.201 738.087 215.655 737.712 214.989C737.338 214.323 737.15 213.62 737.15 212.879H739.96C739.985 213.412 740.098 213.828 740.297 214.128C740.505 214.428 740.768 214.636 741.084 214.752C741.4 214.86 741.729 214.915 742.071 214.915C742.479 214.915 742.816 214.86 743.082 214.752C743.349 214.636 743.548 214.465 743.682 214.24C743.823 214.015 743.894 213.749 743.894 213.441ZM754.446 217.25C753.572 217.25 752.793 217.121 752.111 216.863C751.428 216.596 750.849 216.205 750.375 215.689C749.9 215.164 749.538 214.523 749.289 213.766C749.039 213 748.914 212.113 748.914 211.106V209.807C748.914 208.667 749.043 207.684 749.301 206.86C749.567 206.027 749.934 205.345 750.4 204.812C750.866 204.279 751.416 203.884 752.048 203.626C752.689 203.368 753.384 203.239 754.134 203.239C754.983 203.239 755.72 203.376 756.344 203.651C756.968 203.925 757.48 204.337 757.88 204.887C758.288 205.436 758.588 206.115 758.779 206.922C758.979 207.73 759.079 208.658 759.079 209.707V211.168H750.313V208.97H756.207V208.658C756.19 208.042 756.115 207.514 755.982 207.072C755.849 206.623 755.632 206.281 755.333 206.048C755.041 205.807 754.637 205.686 754.121 205.686C753.747 205.686 753.414 205.757 753.122 205.898C752.831 206.04 752.589 206.269 752.398 206.585C752.215 206.902 752.073 207.326 751.973 207.859C751.873 208.383 751.824 209.033 751.824 209.807V211.106C751.824 211.78 751.882 212.35 751.998 212.817C752.123 213.283 752.306 213.666 752.548 213.965C752.789 214.257 753.081 214.473 753.422 214.615C753.772 214.748 754.175 214.815 754.633 214.815C755.308 214.815 755.886 214.69 756.369 214.44C756.86 214.182 757.285 213.849 757.643 213.441L758.929 215.227C758.688 215.551 758.363 215.872 757.955 216.188C757.547 216.496 757.052 216.75 756.469 216.95C755.895 217.15 755.22 217.25 754.446 217.25ZM766.584 217.25C765.71 217.25 764.931 217.121 764.249 216.863C763.566 216.596 762.988 216.205 762.513 215.689C762.038 215.164 761.676 214.523 761.427 213.766C761.177 213 761.052 212.113 761.052 211.106V209.807C761.052 208.667 761.181 207.684 761.439 206.86C761.705 206.027 762.072 205.345 762.538 204.812C763.004 204.279 763.554 203.884 764.186 203.626C764.827 203.368 765.523 203.239 766.272 203.239C767.121 203.239 767.858 203.376 768.482 203.651C769.107 203.925 769.619 204.337 770.018 204.887C770.426 205.436 770.726 206.115 770.917 206.922C771.117 207.73 771.217 208.658 771.217 209.707V211.168H762.451V208.97H768.345V208.658C768.328 208.042 768.253 207.514 768.12 207.072C767.987 206.623 767.77 206.281 767.471 206.048C767.179 205.807 766.775 205.686 766.259 205.686C765.885 205.686 765.552 205.757 765.26 205.898C764.969 206.04 764.727 206.269 764.536 206.585C764.353 206.902 764.211 207.326 764.111 207.859C764.012 208.383 763.962 209.033 763.962 209.807V211.106C763.962 211.78 764.02 212.35 764.136 212.817C764.261 213.283 764.444 213.666 764.686 213.965C764.927 214.257 765.219 214.473 765.56 214.615C765.91 214.748 766.313 214.815 766.771 214.815C767.446 214.815 768.024 214.69 768.507 214.44C768.998 214.182 769.423 213.849 769.781 213.441L771.067 215.227C770.826 215.551 770.501 215.872 770.093 216.188C769.685 216.496 769.19 216.75 768.607 216.95C768.033 217.15 767.358 217.25 766.584 217.25ZM782.531 203.488V217H779.621V203.488H782.531ZM779.471 199.942C779.471 199.476 779.613 199.088 779.896 198.78C780.179 198.472 780.574 198.318 781.082 198.318C781.59 198.318 781.986 198.472 782.269 198.78C782.552 199.088 782.693 199.476 782.693 199.942C782.693 200.4 782.552 200.783 782.269 201.091C781.986 201.399 781.59 201.553 781.082 201.553C780.574 201.553 780.179 201.399 779.896 201.091C779.613 200.783 779.471 200.4 779.471 199.942ZM791.097 203.488V205.736H784.466V203.488H791.097ZM786.277 200.179H789.174V213.229C789.174 213.645 789.22 213.961 789.312 214.178C789.403 214.394 789.532 214.54 789.699 214.615C789.865 214.69 790.061 214.727 790.286 214.727C790.452 214.727 790.615 214.715 790.773 214.69C790.939 214.656 791.06 214.627 791.135 214.602V216.95C790.918 217.033 790.669 217.104 790.386 217.162C790.103 217.221 789.761 217.25 789.362 217.25C788.771 217.25 788.242 217.129 787.776 216.888C787.309 216.638 786.943 216.234 786.677 215.676C786.41 215.11 786.277 214.361 786.277 213.429V200.179ZM802.112 197.819V217H799.214V197.819H802.112ZM801.6 209.757H800.675C800.667 208.816 800.767 207.951 800.975 207.16C801.183 206.369 801.483 205.678 801.874 205.087C802.266 204.496 802.736 204.042 803.285 203.726C803.843 203.401 804.459 203.239 805.134 203.239C805.691 203.239 806.195 203.334 806.645 203.526C807.102 203.709 807.494 204 807.818 204.4C808.151 204.8 808.405 205.324 808.58 205.973C808.755 206.614 808.842 207.397 808.842 208.321V217H805.933V208.296C805.933 207.655 805.862 207.147 805.72 206.773C805.587 206.398 805.387 206.127 805.121 205.961C804.855 205.794 804.517 205.711 804.11 205.711C803.71 205.711 803.352 205.819 803.036 206.036C802.728 206.244 802.465 206.535 802.249 206.91C802.032 207.276 801.87 207.705 801.762 208.196C801.654 208.679 801.6 209.199 801.6 209.757ZM816.909 217.25C816.035 217.25 815.257 217.121 814.574 216.863C813.892 216.596 813.313 216.205 812.838 215.689C812.364 215.164 812.002 214.523 811.752 213.766C811.502 213 811.377 212.113 811.377 211.106V209.807C811.377 208.667 811.506 207.684 811.765 206.86C812.031 206.027 812.397 205.345 812.863 204.812C813.33 204.279 813.879 203.884 814.512 203.626C815.153 203.368 815.848 203.239 816.597 203.239C817.446 203.239 818.183 203.376 818.808 203.651C819.432 203.925 819.944 204.337 820.344 204.887C820.752 205.436 821.051 206.115 821.243 206.922C821.443 207.73 821.542 208.658 821.542 209.707V211.168H812.776V208.97H818.67V208.658C818.654 208.042 818.579 207.514 818.445 207.072C818.312 206.623 818.096 206.281 817.796 206.048C817.505 205.807 817.101 205.686 816.585 205.686C816.21 205.686 815.877 205.757 815.586 205.898C815.294 206.04 815.053 206.269 814.861 206.585C814.678 206.902 814.537 207.326 814.437 207.859C814.337 208.383 814.287 209.033 814.287 209.807V211.106C814.287 211.78 814.345 212.35 814.462 212.817C814.587 213.283 814.77 213.666 815.011 213.965C815.253 214.257 815.544 214.473 815.885 214.615C816.235 214.748 816.639 214.815 817.097 214.815C817.771 214.815 818.35 214.69 818.833 214.44C819.324 214.182 819.748 213.849 820.106 213.441L821.393 215.227C821.151 215.551 820.826 215.872 820.419 216.188C820.011 216.496 819.515 216.75 818.932 216.95C818.358 217.15 817.684 217.25 816.909 217.25ZM826.787 206.098V217H823.878V203.488H826.65L826.787 206.098ZM830.047 203.401L830.034 206.273C829.868 206.231 829.689 206.206 829.497 206.198C829.314 206.181 829.131 206.173 828.948 206.173C828.548 206.173 828.203 206.244 827.911 206.385C827.62 206.527 827.374 206.731 827.174 206.997C826.975 207.264 826.816 207.584 826.7 207.959C826.592 208.334 826.525 208.758 826.5 209.233L825.876 209.258C825.876 208.408 825.942 207.622 826.075 206.897C826.209 206.165 826.408 205.528 826.675 204.987C826.95 204.437 827.291 204.009 827.699 203.701C828.107 203.393 828.581 203.239 829.122 203.239C829.272 203.239 829.443 203.255 829.634 203.288C829.826 203.322 829.963 203.359 830.047 203.401ZM836.965 217.25C836.091 217.25 835.312 217.121 834.63 216.863C833.947 216.596 833.368 216.205 832.894 215.689C832.419 215.164 832.057 214.523 831.807 213.766C831.558 213 831.433 212.113 831.433 211.106V209.807C831.433 208.667 831.562 207.684 831.82 206.86C832.086 206.027 832.453 205.345 832.919 204.812C833.385 204.279 833.934 203.884 834.567 203.626C835.208 203.368 835.903 203.239 836.653 203.239C837.502 203.239 838.239 203.376 838.863 203.651C839.487 203.925 839.999 204.337 840.399 204.887C840.807 205.436 841.107 206.115 841.298 206.922C841.498 207.73 841.598 208.658 841.598 209.707V211.168H832.831V208.97H838.726V208.658C838.709 208.042 838.634 207.514 838.501 207.072C838.368 206.623 838.151 206.281 837.851 206.048C837.56 205.807 837.156 205.686 836.64 205.686C836.265 205.686 835.932 205.757 835.641 205.898C835.35 206.04 835.108 206.269 834.917 206.585C834.734 206.902 834.592 207.326 834.492 207.859C834.392 208.383 834.342 209.033 834.342 209.807V211.106C834.342 211.78 834.401 212.35 834.517 212.817C834.642 213.283 834.825 213.666 835.067 213.965C835.308 214.257 835.599 214.473 835.941 214.615C836.29 214.748 836.694 214.815 837.152 214.815C837.826 214.815 838.405 214.69 838.888 214.44C839.379 214.182 839.804 213.849 840.162 213.441L841.448 215.227C841.206 215.551 840.882 215.872 840.474 216.188C840.066 216.496 839.571 216.75 838.988 216.95C838.413 217.15 837.739 217.25 836.965 217.25ZM847.317 198.818L847.017 211.618H844.532L844.233 198.818H847.317ZM844.183 215.539C844.183 215.081 844.324 214.694 844.607 214.378C844.899 214.053 845.294 213.891 845.794 213.891C846.301 213.891 846.697 214.053 846.98 214.378C847.263 214.694 847.405 215.081 847.405 215.539C847.405 215.997 847.263 216.388 846.98 216.713C846.697 217.029 846.301 217.187 845.794 217.187C845.294 217.187 844.899 217.029 844.607 216.713C844.324 216.388 844.183 215.997 844.183 215.539Z" fill="white"/>
<path d="M693.884 115.031V106.165M693.884 97.2989H693.906M716.048 106.165C716.048 118.406 706.125 128.33 693.884 128.33C681.642 128.33 671.719 118.406 671.719 106.165C671.719 93.9235 681.642 84 693.884 84C706.125 84 716.048 93.9235 716.048 106.165Z" stroke="white" stroke-width="5.96746" stroke-linecap="round" stroke-linejoin="round"/>
</g>
</svg>
