<svg width="270" height="39" viewBox="0 0 270 39" fill="none" xmlns="http://www.w3.org/2000/svg">
<path d="M37.2305 8.6703V4.57031H24.2305V8.6703H28.5305V33.8703H32.8305V8.6703H37.2305Z" fill="#534988"/>
<path d="M53.5781 33.8703V4.57031H49.2781V29.7703H44.3781V4.57031H40.0781V33.8703H53.5781Z" fill="#534988"/>
<path d="M69.4336 8.6703V4.57031H56.4336V8.6703H60.7336V33.8703H65.0336V8.6703H69.4336Z" fill="#534988"/>
<path d="M85.8789 33.8703V4.57031H72.3789V33.8703H85.8789ZM81.5789 29.7703H76.6789V8.6703H81.5789V29.7703Z" fill="#534988"/>
<path d="M104.434 33.8703L101.534 26.2703H103.734V4.57031H90.2344V33.8703H94.5344V26.2703H97.0344L99.7344 33.8703H104.434ZM99.4344 22.1703H94.5344V8.57031H99.4344C99.4344 8.67031 99.4344 22.1703 99.4344 22.1703Z" fill="#534988"/>
<path d="M117.087 28.8703V33.8703H121.787V28.8703H124.987V24.5703H121.787V16.6703H117.087V24.5703H111.787L121.687 4.57031H116.487L109.687 18.0703C106.687 23.9703 106.387 24.6703 106.387 26.0703C106.387 28.8703 109.187 28.8703 111.587 28.8703C111.487 28.8703 117.087 28.8703 117.087 28.8703Z" fill="#534988"/>
<path d="M145.313 33.8703V4.57031H141.013L136.713 15.2703L132.413 4.57031H128.113V33.8703H132.413V15.7703L136.713 26.2703L141.013 15.7703V33.9703C141.013 33.8703 145.313 33.8703 145.313 33.8703Z" fill="#534988"/>
<path d="M160.399 33.8688V29.7688H153.999V20.1687H160.299V16.0688H153.999V8.56876H160.399V4.46875H149.699V33.7688L160.399 33.8688Z" fill="#534988"/>
<path d="M22.1 17.3016C22.1 13.0016 21.3 10.2016 19.4 8.10156C17.4 5.80156 14.5 4.60156 11 4.60156C7.7 4.60156 5 5.70156 3 7.80156C0.9 10.0016 0 12.7016 0 16.8016V21.3016C0 25.8016 1 28.7016 3.3 30.8016C5.4 32.7016 8.1 33.7016 11.1 33.7016C14.4 33.7016 17 32.6016 19.4 30.4016L15.9 26.2016C14.8 27.2016 13.3 28.1016 11.2 28.1016C8.1 28.1016 6.3 26.2016 6.2 22.8016H22.1V17.3016ZM6.1 17.2016C6.1 14.2016 6.7 10.3016 11 10.3016C15.3 10.3016 15.9 14.3016 15.9 17.2016H6.1Z" fill="url(#paint0_linear_3196_80966)"/>
<path d="M176.5 0V38.4" stroke="#534988" stroke-width="2" stroke-miterlimit="10"/>
<path d="M198.95 22.6318H194.629V18.8525H198.95C199.507 18.8525 199.956 18.7256 200.298 18.4717C200.64 18.208 200.889 17.8516 201.045 17.4023C201.201 16.9434 201.279 16.4258 201.279 15.8496C201.279 15.2441 201.201 14.6826 201.045 14.165C200.889 13.6475 200.64 13.2324 200.298 12.9199C199.956 12.6074 199.507 12.4512 198.95 12.4512H196.24V30H191.582V8.67188H198.95C200.405 8.67188 201.655 8.97949 202.7 9.59473C203.755 10.21 204.565 11.0547 205.132 12.1289C205.698 13.2031 205.981 14.4336 205.981 15.8203C205.981 17.1973 205.698 18.3936 205.132 19.4092C204.565 20.4248 203.755 21.2158 202.7 21.7822C201.655 22.3486 200.405 22.6318 198.95 22.6318ZM215.21 26.1768V19.043C215.21 18.5742 215.166 18.2129 215.078 17.959C214.99 17.6953 214.854 17.5049 214.668 17.3877C214.482 17.2705 214.238 17.2119 213.936 17.2119C213.643 17.2119 213.398 17.2803 213.203 17.417C213.008 17.5439 212.866 17.7393 212.778 18.0029C212.7 18.2568 212.661 18.5791 212.661 18.9697H208.193C208.193 18.2568 208.33 17.5928 208.604 16.9775C208.877 16.3525 209.272 15.8057 209.79 15.3369C210.308 14.8682 210.928 14.5068 211.65 14.2529C212.383 13.9893 213.203 13.8574 214.111 13.8574C215.176 13.8574 216.128 14.0332 216.968 14.3848C217.808 14.7363 218.472 15.2979 218.96 16.0693C219.448 16.8311 219.692 17.8369 219.692 19.0869V26.0742C219.692 27.041 219.741 27.7979 219.839 28.3447C219.946 28.8818 220.093 29.3506 220.278 29.751V30H215.811C215.605 29.5312 215.454 28.9551 215.356 28.2715C215.259 27.5879 215.21 26.8896 215.21 26.1768ZM215.737 20.3174L215.752 22.8662H214.375C214.023 22.8662 213.721 22.9346 213.467 23.0713C213.223 23.208 213.018 23.3936 212.852 23.6279C212.686 23.8525 212.563 24.1113 212.485 24.4043C212.407 24.6973 212.368 25.0049 212.368 25.3271C212.368 25.7275 212.417 26.0449 212.515 26.2793C212.622 26.5039 212.764 26.665 212.939 26.7627C213.115 26.8604 213.32 26.9092 213.555 26.9092C213.965 26.9092 214.312 26.8262 214.595 26.6602C214.888 26.4844 215.103 26.2744 215.239 26.0303C215.376 25.7861 215.415 25.5713 215.356 25.3857L216.104 27.1436C215.957 27.5049 215.791 27.8711 215.605 28.2422C215.43 28.6035 215.205 28.9404 214.932 29.2529C214.668 29.5654 214.341 29.8145 213.95 30C213.56 30.1953 213.081 30.293 212.515 30.293C211.675 30.293 210.903 30.1123 210.2 29.751C209.507 29.3896 208.95 28.8574 208.53 28.1543C208.12 27.4512 207.915 26.5967 207.915 25.5908C207.915 24.8193 208.037 24.1113 208.281 23.4668C208.525 22.8223 208.901 22.2656 209.409 21.7969C209.917 21.3281 210.576 20.9668 211.387 20.7129C212.207 20.4492 213.188 20.3174 214.331 20.3174H215.737ZM226.929 17.8857V30H222.476V14.1504H226.65L226.929 17.8857ZM230.635 14.0332L230.591 18.3691C230.405 18.3398 230.171 18.3154 229.888 18.2959C229.604 18.2666 229.365 18.252 229.17 18.252C228.721 18.252 228.34 18.3203 228.027 18.457C227.715 18.5938 227.456 18.7988 227.251 19.0723C227.046 19.3359 226.895 19.668 226.797 20.0684C226.699 20.4688 226.65 20.9277 226.65 21.4453L225.859 21.0059C225.859 19.9512 225.938 18.9893 226.094 18.1201C226.26 17.251 226.499 16.499 226.812 15.8643C227.134 15.2295 227.52 14.7363 227.969 14.3848C228.418 14.0332 228.921 13.8574 229.478 13.8574C229.673 13.8574 229.878 13.8721 230.093 13.9014C230.317 13.9307 230.498 13.9746 230.635 14.0332ZM238.867 30.293C237.764 30.293 236.782 30.1318 235.923 29.8096C235.063 29.4873 234.341 29.0186 233.755 28.4033C233.169 27.7783 232.725 27.0215 232.422 26.1328C232.119 25.2344 231.968 24.2139 231.968 23.0713V21.5771C231.968 20.2979 232.104 19.1797 232.378 18.2227C232.661 17.2559 233.071 16.4502 233.608 15.8057C234.146 15.1611 234.819 14.6777 235.63 14.3555C236.44 14.0234 237.373 13.8574 238.428 13.8574C239.414 13.8574 240.288 14.0137 241.05 14.3262C241.812 14.6387 242.451 15.1123 242.969 15.7471C243.486 16.3721 243.877 17.1631 244.141 18.1201C244.414 19.0674 244.551 20.1758 244.551 21.4453V23.54H233.74V20.5371H240.186V20.0977C240.186 19.4531 240.122 18.9404 239.995 18.5596C239.868 18.1787 239.673 17.9053 239.409 17.7393C239.146 17.5635 238.809 17.4756 238.398 17.4756C237.988 17.4756 237.651 17.5537 237.388 17.71C237.134 17.8564 236.938 18.0908 236.802 18.4131C236.665 18.7354 236.567 19.1602 236.509 19.6875C236.46 20.2148 236.436 20.8447 236.436 21.5771V23.0713C236.436 23.7842 236.494 24.375 236.611 24.8438C236.729 25.3027 236.904 25.6689 237.139 25.9424C237.373 26.2061 237.656 26.3965 237.988 26.5137C238.33 26.6211 238.726 26.6748 239.175 26.6748C239.829 26.6748 240.439 26.5625 241.006 26.3379C241.582 26.1035 242.07 25.7617 242.471 25.3125L244.272 28.0518C243.989 28.4033 243.594 28.7549 243.086 29.1064C242.588 29.458 241.982 29.7461 241.27 29.9707C240.566 30.1855 239.766 30.293 238.867 30.293ZM251.113 17.5342V30H246.646V14.1504H250.835L251.113 17.5342ZM250.527 21.5332L249.443 21.5625C249.424 20.3613 249.531 19.2871 249.766 18.3398C250.01 17.3926 250.361 16.5869 250.82 15.9229C251.279 15.249 251.831 14.7363 252.476 14.3848C253.12 14.0332 253.838 13.8574 254.629 13.8574C255.234 13.8574 255.791 13.9648 256.299 14.1797C256.816 14.3945 257.261 14.7412 257.632 15.2197C258.003 15.6885 258.291 16.3135 258.496 17.0947C258.701 17.876 258.804 18.8379 258.804 19.9805V30H254.336V19.9512C254.336 19.2969 254.272 18.7939 254.146 18.4424C254.019 18.0811 253.828 17.832 253.574 17.6953C253.33 17.5488 253.013 17.4756 252.622 17.4756C252.261 17.4756 251.943 17.5781 251.67 17.7832C251.406 17.9883 251.187 18.2764 251.011 18.6475C250.835 19.0088 250.708 19.4385 250.63 19.9365C250.562 20.4248 250.527 20.957 250.527 21.5332ZM268.779 14.1504V17.417H260.532V14.1504H268.779ZM262.231 10.2246H266.685V24.9902C266.685 25.4199 266.719 25.752 266.787 25.9863C266.865 26.2207 266.997 26.3867 267.183 26.4844C267.368 26.5723 267.617 26.6162 267.93 26.6162C268.154 26.6162 268.345 26.6064 268.501 26.5869C268.667 26.5674 268.804 26.543 268.911 26.5137L268.882 29.8828C268.54 30.0098 268.174 30.1074 267.783 30.1758C267.402 30.2539 266.973 30.293 266.494 30.293C265.605 30.293 264.844 30.1318 264.209 29.8096C263.584 29.4873 263.096 28.9746 262.744 28.2715C262.402 27.5684 262.231 26.6504 262.231 25.5176V10.2246Z" fill="#00DAE5"/>
<defs>
<linearGradient id="paint0_linear_3196_80966" x1="11.02" y1="4.64146" x2="11.02" y2="33.8116" gradientUnits="userSpaceOnUse">
<stop offset="0.00283151" stop-color="#00D1E0"/>
<stop offset="1" stop-color="#8C55FF"/>
</linearGradient>
</defs>
</svg>
