<svg width="259" height="42" viewBox="0 0 259 42" fill="none" xmlns="http://www.w3.org/2000/svg">
<path d="M37.3813 10.7127V6.59473H24.3242V10.7127H28.6431V36.0235H32.962V10.7127H37.3813Z" fill="#534988"/>
<path d="M53.7976 36.0235V6.59473H49.4787V31.9055H44.5572V6.59473H40.2383V36.0235H53.7976Z" fill="#534988"/>
<path d="M69.729 10.7127V6.59473H56.6719V10.7127H60.9908V36.0235H65.3097V10.7127H69.729Z" fill="#534988"/>
<path d="M86.2664 36.0235V6.59473H72.707V36.0235H86.2664ZM81.9475 31.9055H77.0259V10.7127H81.9475V31.9055Z" fill="#534988"/>
<path d="M104.88 36.0235L101.967 28.3901H104.177V6.59473H90.6172V36.0235H94.9361V28.3901H97.4471L100.159 36.0235H104.88ZM99.8576 24.2721H94.9361V10.6123H99.8576C99.8576 10.7127 99.8576 24.2721 99.8576 24.2721Z" fill="#534988"/>
<path d="M117.591 31.0015V36.0235H122.311V31.0015H125.525V26.6826H122.311V18.7479H117.591V26.6826H112.267L122.211 6.59473H116.988L110.158 20.1541C107.145 26.08 106.844 26.7831 106.844 28.1892C106.844 31.0015 109.656 31.0015 112.067 31.0015C111.966 31.0015 117.591 31.0015 117.591 31.0015Z" fill="#534988"/>
<path d="M145.947 36.0235V6.59473H141.629L137.31 17.3417L132.991 6.59473H128.672V36.0235H132.991V17.8439L137.31 28.3901L141.629 17.8439V36.1239C141.629 36.0235 145.947 36.0235 145.947 36.0235Z" fill="#534988"/>
<path d="M161.083 36.0219V31.9039H154.655V22.2617H160.983V18.1437H154.655V10.6107H161.083V6.49268H150.336V35.9214L161.083 36.0219Z" fill="#534988"/>
<path d="M22.1971 19.3852C22.1971 15.0663 21.3936 12.254 19.4853 10.1448C17.4765 7.83467 14.5637 6.62939 11.0483 6.62939C7.73384 6.62939 5.02197 7.73423 3.01318 9.84345C0.903955 12.0531 0 14.765 0 18.883V23.4028C0 27.9226 1.0044 30.8353 3.31451 32.9445C5.42373 34.8529 8.1356 35.8573 11.1488 35.8573C14.4633 35.8573 17.0747 34.7524 19.4853 32.5428L15.9699 28.3243C14.865 29.3287 13.3584 30.2327 11.2492 30.2327C8.1356 30.2327 6.32769 28.3243 6.22725 24.9094H22.1971V19.3852ZM6.12681 19.2848C6.12681 16.2716 6.72944 12.3544 11.0483 12.3544C15.3672 12.3544 15.9699 16.372 15.9699 19.2848H6.12681Z" fill="url(#paint0_linear_3196_35487)"/>
<path d="M177.273 2.00879V40.5775" stroke="#534988" stroke-width="2.00879" stroke-miterlimit="10"/>
<path d="M198.487 17.7017H194.793V14.4711H198.487C198.962 14.4711 199.346 14.3626 199.639 14.1455C199.931 13.9202 200.144 13.6155 200.277 13.2315C200.411 12.8391 200.478 12.3967 200.478 11.9042C200.478 11.3866 200.411 10.9066 200.277 10.4642C200.144 10.0218 199.931 9.66701 199.639 9.39988C199.346 9.13275 198.962 8.99919 198.487 8.99919H196.17V24H192.188V5.76863H198.487C199.73 5.76863 200.799 6.03159 201.692 6.55749C202.594 7.08339 203.287 7.80547 203.771 8.72372C204.255 9.64196 204.497 10.6938 204.497 11.8791C204.497 13.0562 204.255 14.0788 203.771 14.9469C203.287 15.8151 202.594 16.4912 201.692 16.9754C200.799 17.4596 199.73 17.7017 198.487 17.7017ZM212.386 20.7319V14.6339C212.386 14.2332 212.348 13.9243 212.273 13.7073C212.198 13.4819 212.081 13.3191 211.922 13.219C211.764 13.1188 211.555 13.0687 211.296 13.0687C211.046 13.0687 210.837 13.1271 210.67 13.244C210.503 13.3525 210.382 13.5195 210.307 13.7449C210.24 13.9619 210.207 14.2374 210.207 14.5713H206.388C206.388 13.9619 206.505 13.3943 206.738 12.8683C206.972 12.3341 207.31 11.8666 207.753 11.4659C208.195 11.0652 208.725 10.7564 209.343 10.5393C209.969 10.314 210.67 10.2013 211.446 10.2013C212.356 10.2013 213.17 10.3515 213.888 10.652C214.606 10.9526 215.174 11.4325 215.591 12.092C216.008 12.7431 216.217 13.6029 216.217 14.6715V20.6442C216.217 21.4706 216.259 22.1176 216.342 22.5851C216.434 23.0442 216.559 23.4449 216.718 23.7871V24H212.899C212.724 23.5993 212.594 23.1068 212.511 22.5225C212.427 21.9381 212.386 21.3413 212.386 20.7319ZM212.836 15.7233L212.849 17.902H211.672C211.371 17.902 211.112 17.9604 210.895 18.0773C210.687 18.1942 210.511 18.3528 210.37 18.5531C210.228 18.7451 210.123 18.9663 210.057 19.2168C209.99 19.4672 209.956 19.7302 209.956 20.0056C209.956 20.3479 209.998 20.6192 210.082 20.8195C210.173 21.0115 210.294 21.1493 210.445 21.2327C210.595 21.3162 210.77 21.358 210.971 21.358C211.321 21.358 211.618 21.287 211.86 21.1451C212.11 20.9948 212.294 20.8154 212.411 20.6067C212.527 20.398 212.561 20.2143 212.511 20.0557L213.149 21.5583C213.024 21.8672 212.882 22.1802 212.724 22.4974C212.573 22.8063 212.381 23.0943 212.148 23.3614C211.922 23.6285 211.643 23.8414 211.309 24C210.975 24.167 210.566 24.2504 210.082 24.2504C209.364 24.2504 208.704 24.096 208.103 23.7871C207.51 23.4783 207.035 23.0233 206.676 22.4223C206.325 21.8213 206.15 21.0908 206.15 20.231C206.15 19.5715 206.254 18.9663 206.463 18.4154C206.672 17.8644 206.993 17.3886 207.427 16.9879C207.861 16.5872 208.425 16.2784 209.117 16.0613C209.819 15.836 210.658 15.7233 211.634 15.7233H212.836ZM222.403 13.6447V24H218.596V10.4517H222.165L222.403 13.6447ZM225.571 10.3515L225.533 14.0579C225.375 14.0329 225.174 14.012 224.932 13.9953C224.69 13.9702 224.485 13.9577 224.319 13.9577C223.935 13.9577 223.609 14.0162 223.342 14.133C223.075 14.2499 222.854 14.4252 222.678 14.6589C222.503 14.8843 222.374 15.1681 222.29 15.5104C222.207 15.8526 222.165 16.245 222.165 16.6874L221.489 16.3118C221.489 15.4102 221.555 14.588 221.689 13.845C221.831 13.1021 222.035 12.4593 222.303 11.9167C222.578 11.3741 222.908 10.9526 223.292 10.652C223.676 10.3515 224.106 10.2013 224.581 10.2013C224.748 10.2013 224.924 10.2138 225.107 10.2388C225.299 10.2639 225.454 10.3014 225.571 10.3515ZM232.608 24.2504C231.665 24.2504 230.826 24.1127 230.091 23.8372C229.356 23.5617 228.739 23.1611 228.238 22.6352C227.737 22.1009 227.357 21.454 227.098 20.6943C226.84 19.9263 226.71 19.054 226.71 18.0773V16.8001C226.71 15.7066 226.827 14.7508 227.061 13.9327C227.303 13.1063 227.653 12.4176 228.113 11.8666C228.572 11.3157 229.148 10.9025 229.841 10.627C230.533 10.3432 231.331 10.2013 232.232 10.2013C233.075 10.2013 233.822 10.3348 234.474 10.6019C235.125 10.8691 235.671 11.2739 236.114 11.8165C236.556 12.3508 236.89 13.027 237.116 13.845C237.349 14.6548 237.466 15.6022 237.466 16.6874V18.478H228.225V15.9111H233.735V15.5354C233.735 14.9845 233.68 14.5462 233.572 14.2207C233.463 13.8951 233.296 13.6614 233.071 13.5195C232.846 13.3692 232.558 13.2941 232.207 13.2941C231.857 13.2941 231.569 13.3609 231.343 13.4944C231.126 13.6196 230.959 13.82 230.842 14.0955C230.725 14.3709 230.642 14.7341 230.592 15.1848C230.55 15.6356 230.529 16.174 230.529 16.8001V18.0773C230.529 18.6867 230.579 19.1917 230.679 19.5924C230.78 19.9848 230.93 20.2978 231.13 20.5315C231.331 20.7569 231.573 20.9197 231.857 21.0199C232.149 21.1117 232.487 21.1576 232.871 21.1576C233.43 21.1576 233.952 21.0616 234.436 20.8696C234.928 20.6693 235.346 20.3771 235.688 19.9931L237.228 22.3346C236.986 22.6352 236.648 22.9357 236.214 23.2362C235.788 23.5367 235.271 23.783 234.661 23.975C234.06 24.1586 233.376 24.2504 232.608 24.2504ZM243.076 13.3442V24H239.257V10.4517H242.838L243.076 13.3442ZM242.575 16.7625L241.636 16.7876C241.627 15.7608 241.723 14.8426 241.924 14.0329C242.133 13.2231 242.433 12.5344 242.825 11.9668C243.218 11.3908 243.689 10.9526 244.24 10.652C244.791 10.3515 245.405 10.2013 246.081 10.2013C246.599 10.2013 247.074 10.2931 247.508 10.4767C247.951 10.6604 248.331 10.9567 248.648 11.3658C248.965 11.7665 249.211 12.3007 249.387 12.9685C249.562 13.6363 249.65 14.4586 249.65 15.4353V24H245.831V15.4102C245.831 14.8509 245.776 14.421 245.668 14.1205C245.559 13.8116 245.396 13.5988 245.179 13.4819C244.971 13.3567 244.699 13.2941 244.366 13.2941C244.057 13.2941 243.785 13.3817 243.552 13.557C243.326 13.7323 243.138 13.9786 242.988 14.2958C242.838 14.6047 242.729 14.972 242.663 15.3977C242.604 15.8151 242.575 16.27 242.575 16.7625ZM258.177 10.4517V13.244H251.127V10.4517H258.177ZM252.58 7.09592H256.386V19.7176C256.386 20.0849 256.415 20.3688 256.474 20.5691C256.541 20.7694 256.653 20.9114 256.812 20.9948C256.971 21.07 257.183 21.1075 257.451 21.1075C257.643 21.1075 257.805 21.0992 257.939 21.0825C258.081 21.0658 258.198 21.0449 258.289 21.0199L258.264 23.8998C257.972 24.0083 257.659 24.0918 257.325 24.1503C257 24.217 256.632 24.2504 256.223 24.2504C255.464 24.2504 254.813 24.1127 254.27 23.8372C253.736 23.5617 253.318 23.1235 253.018 22.5225C252.726 21.9214 252.58 21.1367 252.58 20.1684V7.09592Z" fill="#00DAE5"/>
<path d="M194.887 31.6561L193.059 39H190.936L193.772 29.8843H195.093L194.887 31.6561ZM196.327 39L194.492 31.6561L194.254 29.8843H195.6L198.449 39H196.327ZM196.396 35.6004V37.2094H192.357V35.6004H196.396ZM202.375 37.4786V29.3835H204.284V39L202.569 39.0063L202.375 37.4786ZM198.925 35.8947V35.3625C198.925 34.8074 198.971 34.3253 199.063 33.9163C199.159 33.5072 199.298 33.1691 199.482 32.902C199.67 32.6307 199.902 32.4304 200.177 32.301C200.457 32.1674 200.776 32.1006 201.135 32.1006C201.452 32.1006 201.726 32.1841 201.955 32.3511C202.189 32.5138 202.387 32.7434 202.55 33.0397C202.713 33.3361 202.844 33.6846 202.944 34.0853C203.049 34.486 203.124 34.9201 203.17 35.3875V35.9322C203.115 36.3705 203.038 36.7837 202.938 37.1719C202.838 37.5558 202.706 37.896 202.544 38.1924C202.381 38.4845 202.183 38.7141 201.949 38.881C201.715 39.0438 201.442 39.1252 201.129 39.1252C200.77 39.1252 200.452 39.0563 200.177 38.9186C199.902 38.7809 199.67 38.5764 199.482 38.3051C199.298 38.0338 199.159 37.6978 199.063 37.2971C198.971 36.8922 198.925 36.4247 198.925 35.8947ZM200.828 35.3625V35.8947C200.828 36.1993 200.841 36.4581 200.866 36.671C200.891 36.8839 200.935 37.0571 200.997 37.1906C201.06 37.3242 201.143 37.4223 201.248 37.4849C201.356 37.5433 201.492 37.5725 201.655 37.5725C201.867 37.5725 202.041 37.5141 202.174 37.3972C202.312 37.2762 202.412 37.1092 202.475 36.8964C202.537 36.6835 202.567 36.4331 202.562 36.1451V35.1684C202.567 34.9263 202.548 34.7114 202.506 34.5235C202.468 34.3316 202.412 34.1709 202.337 34.0415C202.262 33.9121 202.168 33.814 202.055 33.7472C201.943 33.6804 201.811 33.647 201.661 33.647C201.506 33.647 201.375 33.6783 201.266 33.741C201.158 33.8036 201.072 33.9037 201.01 34.0415C200.947 34.175 200.901 34.3503 200.872 34.5674C200.843 34.7844 200.828 35.0495 200.828 35.3625ZM207.421 33.647V39H205.517V32.2258H207.302L207.421 33.647ZM207.177 35.3813L206.701 35.3938C206.692 34.918 206.734 34.4797 206.826 34.079C206.918 33.6783 207.056 33.3298 207.239 33.0335C207.427 32.7371 207.661 32.5076 207.94 32.3448C208.224 32.182 208.552 32.1006 208.923 32.1006C209.165 32.1006 209.389 32.1465 209.593 32.2384C209.798 32.326 209.973 32.4658 210.119 32.6578C210.269 32.8457 210.384 33.0919 210.463 33.3966C210.547 33.6971 210.589 34.0582 210.589 34.4797V39H208.685V34.7239C208.685 34.4275 208.66 34.2042 208.61 34.054C208.564 33.8996 208.495 33.7931 208.404 33.7347C208.312 33.6763 208.195 33.647 208.053 33.647C207.915 33.647 207.79 33.6909 207.677 33.7785C207.565 33.8662 207.471 33.9893 207.396 34.1479C207.321 34.3023 207.264 34.486 207.227 34.6988C207.189 34.9075 207.172 35.135 207.177 35.3813ZM210.388 35.2936L209.8 35.3437C209.787 34.8804 209.823 34.4526 209.906 34.0603C209.994 33.6637 210.127 33.3194 210.307 33.0272C210.491 32.7351 210.718 32.5076 210.989 32.3448C211.265 32.182 211.588 32.1006 211.96 32.1006C212.227 32.1006 212.469 32.1465 212.686 32.2384C212.907 32.3302 213.097 32.4784 213.256 32.6829C213.414 32.8832 213.537 33.1504 213.625 33.4843C213.713 33.8182 213.757 34.2272 213.757 34.7114V39H211.847V34.7114C211.847 34.4192 211.822 34.198 211.772 34.0477C211.726 33.8933 211.657 33.789 211.565 33.7347C211.474 33.6763 211.361 33.647 211.227 33.647C211.081 33.647 210.956 33.6888 210.852 33.7723C210.751 33.8557 210.666 33.9726 210.595 34.1229C210.524 34.2731 210.472 34.4484 210.438 34.6488C210.405 34.8449 210.388 35.0599 210.388 35.2936ZM216.987 32.2258V39H215.078V32.2258H216.987ZM214.99 30.4728C214.99 30.189 215.084 29.9553 215.272 29.7716C215.464 29.5838 215.716 29.4899 216.029 29.4899C216.342 29.4899 216.593 29.5838 216.781 29.7716C216.968 29.9553 217.062 30.189 217.062 30.4728C217.062 30.7608 216.968 30.9966 216.781 31.1803C216.593 31.3639 216.342 31.4558 216.029 31.4558C215.716 31.4558 215.464 31.3639 215.272 31.1803C215.084 30.9966 214.99 30.7608 214.99 30.4728ZM220.149 33.6721V39H218.239V32.2258H220.03L220.149 33.6721ZM219.898 35.3813L219.429 35.3938C219.425 34.8804 219.473 34.4213 219.573 34.0164C219.677 33.6116 219.827 33.2672 220.024 32.9834C220.22 32.6954 220.456 32.4763 220.731 32.326C221.007 32.1758 221.313 32.1006 221.651 32.1006C221.91 32.1006 222.148 32.1465 222.365 32.2384C222.586 32.3302 222.776 32.4784 222.935 32.6829C223.094 32.8832 223.217 33.1504 223.304 33.4843C223.392 33.8182 223.436 34.2293 223.436 34.7176V39H221.526V34.7051C221.526 34.4255 221.499 34.2105 221.445 34.0603C221.391 33.9058 221.309 33.7994 221.201 33.741C221.096 33.6783 220.961 33.647 220.794 33.647C220.639 33.647 220.504 33.6909 220.387 33.7785C220.274 33.8662 220.18 33.9893 220.105 34.1479C220.03 34.3023 219.976 34.486 219.942 34.6988C219.913 34.9075 219.898 35.135 219.898 35.3813Z" fill="#534988"/>
<defs>
<linearGradient id="paint0_linear_3196_35487" x1="11.0684" y1="6.66947" x2="11.0684" y2="35.9678" gradientUnits="userSpaceOnUse">
<stop offset="0.00283151" stop-color="#00D1E0"/>
<stop offset="1" stop-color="#8C55FF"/>
</linearGradient>
</defs>
</svg>
