<svg width="258" height="42" viewBox="0 0 258 42" fill="none" xmlns="http://www.w3.org/2000/svg">
<path d="M37.2305 10.6659V6.56592H24.2305V10.6659H28.5305V35.8659H32.8305V10.6659H37.2305Z" fill="white"/>
<path d="M53.5781 35.8659V6.56592H49.2781V31.7659H44.3781V6.56592H40.0781V35.8659H53.5781Z" fill="white"/>
<path d="M69.4336 10.6659V6.56592H56.4336V10.6659H60.7336V35.8659H65.0336V10.6659H69.4336Z" fill="white"/>
<path d="M85.8789 35.8659V6.56592H72.3789V35.8659H85.8789ZM81.5789 31.7659H76.6789V10.6659H81.5789V31.7659Z" fill="white"/>
<path d="M104.434 35.8659L101.534 28.2659H103.734V6.56592H90.2344V35.8659H94.5344V28.2659H97.0344L99.7344 35.8659H104.434ZM99.4344 24.1659H94.5344V10.5659H99.4344C99.4344 10.6659 99.4344 24.1659 99.4344 24.1659Z" fill="white"/>
<path d="M117.087 30.8659V35.8659H121.787V30.8659H124.987V26.5659H121.787V18.6659H117.087V26.5659H111.787L121.687 6.56592H116.487L109.687 20.0659C106.687 25.9659 106.387 26.6659 106.387 28.0659C106.387 30.8659 109.187 30.8659 111.587 30.8659C111.487 30.8659 117.087 30.8659 117.087 30.8659Z" fill="white"/>
<path d="M145.313 35.8659V6.56592H141.013L136.713 17.2659L132.413 6.56592H128.113V35.8659H132.413V17.7659L136.713 28.2659L141.013 17.7659V35.9659C141.013 35.8659 145.313 35.8659 145.313 35.8659Z" fill="white"/>
<path d="M160.399 35.8658V31.7658H153.999V22.1658H160.299V18.0658H153.999V10.5658H160.399V6.46582H149.699V35.7658L160.399 35.8658Z" fill="white"/>
<path d="M22.1 19.3001C22.1 15.0001 21.3 12.2001 19.4 10.1001C17.4 7.8001 14.5 6.6001 11 6.6001C7.7 6.6001 5 7.70009 3 9.80009C0.9 12.0001 0 14.7001 0 18.8001V23.3001C0 27.8001 1 30.7001 3.3 32.8001C5.4 34.7001 8.1 35.7001 11.1 35.7001C14.4 35.7001 17 34.6001 19.4 32.4001L15.9 28.2001C14.8 29.2001 13.3 30.1001 11.2 30.1001C8.1 30.1001 6.3 28.2001 6.2 24.8001H22.1V19.3001ZM6.1 19.2001C6.1 16.2001 6.7 12.3001 11 12.3001C15.3 12.3001 15.9 16.3001 15.9 19.2001H6.1Z" fill="url(#paint0_linear_5001_34759)"/>
<path d="M176.5 2V40.4" stroke="white" stroke-width="2" stroke-miterlimit="10"/>
<path d="M197.617 17.7292H193.939V14.5128H197.617C198.091 14.5128 198.473 14.4048 198.764 14.1887C199.055 13.9643 199.267 13.6609 199.4 13.2786C199.533 12.888 199.599 12.4475 199.599 11.9571C199.599 11.4418 199.533 10.9639 199.4 10.5234C199.267 10.0829 199.055 9.72972 198.764 9.46376C198.473 9.19781 198.091 9.06483 197.617 9.06483H195.311V24H191.346V5.8484H197.617C198.856 5.8484 199.919 6.11021 200.809 6.63381C201.706 7.15741 202.396 7.87633 202.878 8.79056C203.36 9.70479 203.601 10.752 203.601 11.9322C203.601 13.1041 203.36 14.1222 202.878 14.9865C202.396 15.8509 201.706 16.5241 200.809 17.0062C199.919 17.4882 198.856 17.7292 197.617 17.7292ZM211.455 20.7462V14.6749C211.455 14.2759 211.418 13.9684 211.343 13.7523C211.268 13.5279 211.152 13.3659 210.994 13.2661C210.836 13.1664 210.628 13.1165 210.371 13.1165C210.121 13.1165 209.914 13.1747 209.747 13.2911C209.581 13.3991 209.461 13.5653 209.386 13.7897C209.319 14.0058 209.286 14.2801 209.286 14.6125H205.484C205.484 14.0058 205.6 13.4407 205.833 12.9171C206.065 12.3851 206.402 11.9197 206.843 11.5208C207.283 11.1218 207.811 10.8143 208.426 10.5982C209.049 10.3738 209.747 10.2616 210.52 10.2616C211.426 10.2616 212.237 10.4112 212.951 10.7104C213.666 11.0096 214.231 11.4875 214.647 12.1441C215.062 12.7924 215.27 13.6484 215.27 14.7123V20.6589C215.27 21.4817 215.312 22.1258 215.395 22.5913C215.486 23.0484 215.611 23.4473 215.769 23.7881V24H211.966C211.792 23.6011 211.663 23.1107 211.58 22.5289C211.497 21.9471 211.455 21.3529 211.455 20.7462ZM211.904 15.7595L211.917 17.9287H210.745C210.445 17.9287 210.188 17.9869 209.972 18.1032C209.764 18.2196 209.589 18.3775 209.448 18.577C209.307 18.7681 209.203 18.9884 209.136 19.2377C209.07 19.487 209.037 19.7488 209.037 20.0231C209.037 20.3639 209.078 20.634 209.161 20.8334C209.253 21.0246 209.373 21.1617 209.523 21.2448C209.673 21.328 209.847 21.3695 210.047 21.3695C210.396 21.3695 210.691 21.2989 210.932 21.1576C211.181 21.008 211.364 20.8293 211.48 20.6215C211.597 20.4137 211.63 20.2309 211.58 20.073L212.216 21.569C212.091 21.8765 211.95 22.1882 211.792 22.504C211.642 22.8115 211.451 23.0982 211.218 23.3642C210.994 23.6302 210.716 23.8421 210.383 24C210.051 24.1662 209.643 24.2493 209.161 24.2493C208.447 24.2493 207.79 24.0956 207.192 23.7881C206.602 23.4806 206.128 23.0276 205.77 22.4292C205.421 21.8308 205.247 21.1036 205.247 20.2475C205.247 19.5909 205.351 18.9884 205.559 18.4398C205.766 17.8913 206.086 17.4176 206.518 17.0186C206.951 16.6197 207.512 16.3122 208.201 16.0961C208.9 15.8717 209.735 15.7595 210.707 15.7595H211.904ZM221.429 13.69V24H217.639V10.511H221.192L221.429 13.69ZM224.583 10.4112L224.545 14.1014C224.387 14.0765 224.188 14.0557 223.947 14.0391C223.706 14.0141 223.502 14.0017 223.336 14.0017C222.954 14.0017 222.63 14.0598 222.364 14.1762C222.098 14.2926 221.877 14.4671 221.703 14.6998C221.528 14.9242 221.4 15.2068 221.316 15.5475C221.233 15.8883 221.192 16.2789 221.192 16.7194L220.519 16.3454C220.519 15.4478 220.585 14.6292 220.718 13.8895C220.859 13.1498 221.063 12.5098 221.329 11.9696C221.603 11.4294 221.932 11.0096 222.314 10.7104C222.696 10.4112 223.124 10.2616 223.598 10.2616C223.764 10.2616 223.939 10.2741 224.122 10.299C224.313 10.324 224.466 10.3614 224.583 10.4112ZM231.589 24.2493C230.65 24.2493 229.815 24.1122 229.083 23.8379C228.352 23.5637 227.737 23.1647 227.238 22.6411C226.74 22.1092 226.361 21.4651 226.104 20.7088C225.846 19.9441 225.717 19.0756 225.717 18.1032V16.8316C225.717 15.7429 225.834 14.7912 226.066 13.9767C226.307 13.1539 226.656 12.4683 227.114 11.9197C227.571 11.3712 228.144 10.9598 228.834 10.6855C229.524 10.4029 230.317 10.2616 231.215 10.2616C232.055 10.2616 232.798 10.3946 233.447 10.6606C234.095 10.9265 234.639 11.3296 235.08 11.8698C235.52 12.4018 235.853 13.075 236.077 13.8895C236.31 14.6956 236.426 15.639 236.426 16.7194V18.5022H227.226V15.9465H232.711V15.5725C232.711 15.0239 232.657 14.5876 232.549 14.2635C232.441 13.9393 232.275 13.7066 232.05 13.5653C231.826 13.4157 231.539 13.3409 231.19 13.3409C230.841 13.3409 230.554 13.4074 230.33 13.5404C230.114 13.6651 229.948 13.8645 229.831 14.1388C229.715 14.4131 229.632 14.7746 229.582 15.2234C229.54 15.6722 229.52 16.2083 229.52 16.8316V18.1032C229.52 18.7099 229.569 19.2128 229.669 19.6117C229.769 20.0023 229.919 20.314 230.118 20.5467C230.317 20.7711 230.559 20.9332 230.841 21.0329C231.132 21.1243 231.469 21.17 231.851 21.17C232.408 21.17 232.927 21.0745 233.409 20.8833C233.9 20.6838 234.315 20.393 234.656 20.0106L236.189 22.3419C235.948 22.6411 235.612 22.9403 235.18 23.2395C234.756 23.5387 234.24 23.7839 233.634 23.9751C233.035 24.1579 232.354 24.2493 231.589 24.2493ZM242.011 13.3908V24H238.209V10.511H241.774L242.011 13.3908ZM241.513 16.7942L240.59 16.8191C240.573 15.7969 240.665 14.8826 240.864 14.0765C241.072 13.2703 241.371 12.5846 241.762 12.0194C242.153 11.446 242.622 11.0096 243.171 10.7104C243.719 10.4112 244.33 10.2616 245.003 10.2616C245.519 10.2616 245.992 10.3531 246.425 10.5359C246.865 10.7187 247.243 11.0138 247.559 11.421C247.875 11.82 248.12 12.3519 248.295 13.0168C248.469 13.6817 248.556 14.5003 248.556 15.4727V24H244.754V15.4478C244.754 14.891 244.7 14.4629 244.592 14.1637C244.484 13.8562 244.322 13.6443 244.106 13.5279C243.898 13.4033 243.628 13.3409 243.295 13.3409C242.988 13.3409 242.718 13.4282 242.485 13.6027C242.261 13.7773 242.074 14.0224 241.924 14.3383C241.774 14.6458 241.666 15.0115 241.6 15.4353C241.542 15.8509 241.513 16.3039 241.513 16.7942ZM257.046 10.511V13.2911H250.027V10.511H257.046ZM251.474 7.16988H255.263V19.7364C255.263 20.1021 255.293 20.3846 255.351 20.5841C255.417 20.7836 255.529 20.9249 255.687 21.008C255.845 21.0828 256.057 21.1202 256.323 21.1202C256.514 21.1202 256.676 21.1119 256.809 21.0952C256.951 21.0786 257.067 21.0578 257.158 21.0329L257.133 23.9003C256.843 24.0083 256.531 24.0914 256.198 24.1496C255.874 24.2161 255.509 24.2493 255.101 24.2493C254.345 24.2493 253.697 24.1122 253.157 23.8379C252.625 23.5637 252.209 23.1273 251.91 22.5289C251.619 21.9305 251.474 21.1493 251.474 20.1852V7.16988Z" fill="#00DAE5"/>
<path d="M194.033 31.6882L192.213 39H190.1L192.923 29.9242H194.239L194.033 31.6882ZM195.467 39L193.64 31.6882L193.403 29.9242H194.744L197.58 39H195.467ZM195.535 35.6153V37.2173H191.515V35.6153H195.535ZM201.488 37.4853V29.4255H203.389V39L201.681 39.0062L201.488 37.4853ZM198.054 35.9082V35.3784C198.054 34.8257 198.099 34.3457 198.191 33.9385C198.286 33.5312 198.425 33.1946 198.608 32.9287C198.795 32.6586 199.026 32.4591 199.3 32.3303C199.579 32.1973 199.897 32.1308 200.254 32.1308C200.57 32.1308 200.842 32.2139 201.07 32.3802C201.303 32.5422 201.501 32.7708 201.663 33.0658C201.825 33.3609 201.956 33.7079 202.055 34.1068C202.159 34.5057 202.234 34.9379 202.28 35.4033V35.9456C202.226 36.382 202.149 36.7934 202.049 37.1799C201.949 37.5622 201.818 37.9008 201.656 38.1959C201.494 38.4868 201.297 38.7153 201.064 38.8816C200.832 39.0436 200.559 39.1247 200.248 39.1247C199.89 39.1247 199.574 39.0561 199.3 38.919C199.026 38.7818 198.795 38.5782 198.608 38.3081C198.425 38.038 198.286 37.7035 198.191 37.3045C198.099 36.9014 198.054 36.436 198.054 35.9082ZM199.948 35.3784V35.9082C199.948 36.2116 199.961 36.4692 199.986 36.6812C200.011 36.8931 200.054 37.0656 200.117 37.1986C200.179 37.3315 200.262 37.4292 200.366 37.4915C200.474 37.5497 200.609 37.5788 200.771 37.5788C200.983 37.5788 201.156 37.5206 201.289 37.4043C201.426 37.2837 201.526 37.1175 201.588 36.9056C201.65 36.6937 201.679 36.4443 201.675 36.1576V35.1852C201.679 34.9441 201.661 34.7301 201.619 34.5431C201.582 34.352 201.526 34.192 201.451 34.0632C201.376 33.9343 201.282 33.8367 201.17 33.7702C201.058 33.7037 200.927 33.6705 200.778 33.6705C200.624 33.6705 200.493 33.7016 200.385 33.764C200.277 33.8263 200.192 33.926 200.129 34.0632C200.067 34.1961 200.021 34.3707 199.992 34.5868C199.963 34.8029 199.948 35.0667 199.948 35.3784ZM206.512 33.6705V39H204.617V32.2555H206.394L206.512 33.6705ZM206.269 35.3971L205.795 35.4096C205.787 34.9358 205.829 34.4995 205.92 34.1006C206.011 33.7016 206.149 33.3546 206.331 33.0596C206.518 32.7645 206.751 32.536 207.03 32.3739C207.312 32.2119 207.638 32.1308 208.008 32.1308C208.249 32.1308 208.472 32.1765 208.675 32.268C208.879 32.3552 209.053 32.4944 209.199 32.6856C209.348 32.8726 209.463 33.1178 209.542 33.4211C209.625 33.7203 209.666 34.0798 209.666 34.4995V39H207.771V34.7426C207.771 34.4476 207.746 34.2252 207.697 34.0756C207.651 33.9219 207.582 33.8159 207.491 33.7577C207.399 33.6996 207.283 33.6705 207.142 33.6705C207.005 33.6705 206.88 33.7141 206.768 33.8014C206.656 33.8886 206.562 34.0112 206.487 34.1691C206.412 34.3229 206.356 34.5057 206.319 34.7177C206.282 34.9254 206.265 35.1519 206.269 35.3971ZM209.467 35.3098L208.881 35.3597C208.868 34.8984 208.904 34.4725 208.987 34.0819C209.074 33.6871 209.207 33.3442 209.386 33.0534C209.569 32.7625 209.795 32.536 210.065 32.3739C210.34 32.2119 210.662 32.1308 211.031 32.1308C211.297 32.1308 211.538 32.1765 211.754 32.268C211.975 32.3594 212.164 32.5069 212.322 32.7105C212.48 32.91 212.602 33.1759 212.689 33.5084C212.777 33.8408 212.82 34.2481 212.82 34.7301V39H210.919V34.7301C210.919 34.4392 210.894 34.219 210.844 34.0694C210.799 33.9156 210.73 33.8118 210.639 33.7577C210.547 33.6996 210.435 33.6705 210.302 33.6705C210.157 33.6705 210.032 33.712 209.928 33.7951C209.828 33.8782 209.743 33.9946 209.673 34.1442C209.602 34.2938 209.55 34.4683 209.517 34.6678C209.483 34.8631 209.467 35.0771 209.467 35.3098ZM216.037 32.2555V39H214.136V32.2555H216.037ZM214.048 30.5101C214.048 30.2276 214.142 29.9948 214.329 29.812C214.52 29.625 214.771 29.5315 215.083 29.5315C215.395 29.5315 215.644 29.625 215.831 29.812C216.018 29.9948 216.112 30.2276 216.112 30.5101C216.112 30.7969 216.018 31.0317 215.831 31.2145C215.644 31.3974 215.395 31.4888 215.083 31.4888C214.771 31.4888 214.52 31.3974 214.329 31.2145C214.142 31.0317 214.048 30.7969 214.048 30.5101ZM219.185 33.6954V39H217.283V32.2555H219.066L219.185 33.6954ZM218.935 35.3971L218.474 35.4096C218.466 34.8984 218.511 34.4413 218.611 34.0382C218.715 33.6351 218.865 33.2923 219.06 33.0097C219.255 32.723 219.49 32.5048 219.764 32.3552C220.039 32.2056 220.344 32.1308 220.681 32.1308C220.938 32.1308 221.175 32.1765 221.391 32.268C221.612 32.3594 221.801 32.5069 221.959 32.7105C222.116 32.91 222.239 33.1759 222.326 33.5084C222.414 33.8408 222.457 34.2502 222.457 34.7364V39H220.556V34.7239C220.556 34.4455 220.529 34.2315 220.475 34.0819C220.421 33.9281 220.34 33.8221 220.232 33.764C220.128 33.7016 219.993 33.6705 219.827 33.6705C219.673 33.6705 219.538 33.7141 219.422 33.8014C219.309 33.8886 219.216 34.0112 219.141 34.1691C219.066 34.3229 219.012 34.5057 218.979 34.7177C218.95 34.9254 218.935 35.1519 218.935 35.3971Z" fill="white"/>
<defs>
<linearGradient id="paint0_linear_5001_34759" x1="11.02" y1="6.64" x2="11.02" y2="35.8101" gradientUnits="userSpaceOnUse">
<stop offset="0.00283151" stop-color="#00D1E0"/>
<stop offset="1" stop-color="#8C55FF"/>
</linearGradient>
</defs>
</svg>
