<svg width="18" height="25" viewBox="0 0 18 25" fill="none" xmlns="http://www.w3.org/2000/svg">
<path d="M5.5 0.5C5.9 0.6 6.2 0.7 6.5 1C6.8 1.4 7 1.79999 7 2.29999C7 3.79999 7 5.20001 7 6.70001C7 12 7 17.3 7 22.6C7 23.2 6.8 23.7 6.3 24.1C6 24.4 5.6 24.5 5.2 24.5C4.1 24.5 3 24.5 1.8 24.5C0.799999 24.5 0.1 23.8 0 22.8C0 22.7 0 22.7 0 22.6C0 15.9 0 9.09999 0 2.39999C0 1.59999 0.3 1.00001 1 0.700012C1.2 0.600012 1.3 0.6 1.5 0.5C2.9 0.5 4.2 0.5 5.5 0.5Z" fill="#685AAD"/>
<path d="M15.8004 0.498444C16.4004 0.598444 16.8004 0.898438 17.1004 1.39844C17.2004 1.69844 17.3004 1.99843 17.3004 2.29843C17.3004 9.09843 17.3004 15.8985 17.3004 22.6985C17.3004 23.7985 16.6004 24.4984 15.5004 24.4984C14.4004 24.4984 13.3004 24.4984 12.2004 24.4984C11.2004 24.4984 10.5004 23.7984 10.4004 22.7984C10.4004 22.6984 10.4004 22.5984 10.4004 22.5984C10.4004 15.8984 10.4004 9.19844 10.4004 2.39844C10.4004 1.79844 10.6004 1.19843 11.1004 0.798431C11.3004 0.598431 11.6004 0.598438 11.9004 0.398438C13.2004 0.498438 14.5004 0.498444 15.8004 0.498444Z" fill="#685AAD"/>
</svg>
