<svg width="29" height="34" viewBox="0 0 29 34" fill="none" xmlns="http://www.w3.org/2000/svg">
<path d="M15.3938 0.601562C16.0938 0.701563 16.7938 0.801562 17.3938 1.10156C21.0938 2.30156 23.4938 6.00154 23.1938 9.80154C22.8938 13.8015 19.8937 17.1016 15.9937 17.7016C11.1937 18.5016 6.79384 15.2016 6.09384 10.4016C5.39384 5.90155 8.69382 1.40157 13.1938 0.701569C13.3938 0.701569 13.6937 0.601562 13.9937 0.601562C14.3937 0.601563 14.8938 0.601562 15.3938 0.601562Z" fill="#564589"/>
<path d="M14.6969 33.2031C10.2969 33.2031 5.89683 33.2031 1.49683 33.2031C0.696826 33.2031 0.296875 32.8031 0.296875 32.0031C0.396875 26.1031 4.59685 21.0031 10.3969 19.9031C11.0969 19.8031 11.6969 19.7031 12.3969 19.7031C13.7969 19.7031 15.1969 19.7031 16.5969 19.7031C22.1969 19.7031 26.9968 23.5031 28.4968 28.9031C28.7968 29.9031 28.8969 31.0031 28.8969 32.1031C28.8969 32.8031 28.4969 33.2031 27.7969 33.2031C23.4969 33.2031 19.0969 33.2031 14.6969 33.2031Z" fill="#564589"/>
</svg>
