<svg width="22" height="26" viewBox="0 0 22 26" fill="none" xmlns="http://www.w3.org/2000/svg">
<path d="M11.7891 0.652344C12.2834 0.734717 12.8599 0.817085 13.3542 0.981832C16.1549 1.88794 18.0495 4.68863 17.8024 7.5717C17.5553 10.6195 15.3312 13.1731 12.3657 13.585C8.74132 14.1616 5.364 11.6904 4.78739 8.06594C4.29315 4.60626 6.68198 1.22896 10.1417 0.734722C10.3064 0.734722 10.5535 0.652344 10.7183 0.652344C11.0478 0.652344 11.3773 0.652344 11.7891 0.652344Z" fill="#564589"/>
<path d="M11.2135 25.3631C7.91852 25.3631 4.54121 25.3631 1.1639 25.3631C0.587286 25.3631 0.257812 25.1159 0.257812 24.457C0.340186 20.0088 3.55274 16.1373 7.91852 15.2312C8.41276 15.1488 8.90702 15.0664 9.48364 15.0664C10.5545 15.0664 11.6253 15.0664 12.6138 15.0664C16.8149 15.0664 20.5217 17.9495 21.6749 22.0681C21.922 22.8919 22.0043 23.7156 22.0043 24.5393C22.0043 25.116 21.7572 25.3631 21.1806 25.3631C17.9681 25.3631 14.5908 25.3631 11.2135 25.3631Z" fill="#564589"/>
</svg>
