<svg width="23" height="30" viewBox="0 0 23 30" fill="none" xmlns="http://www.w3.org/2000/svg">
<path d="M2.08977 29.2135C1.13244 28.7372 0.773438 27.9037 0.773438 26.832C0.773438 23.7362 1.49144 20.9975 3.52578 18.6161C4.00444 18.0207 4.72245 17.5445 5.32078 16.9491C5.56011 16.711 5.91911 16.711 6.15844 16.83C7.95345 17.9017 9.98778 18.497 12.1418 18.378C13.9368 18.2589 15.6121 17.7826 17.2875 16.83C17.6465 16.5919 17.8858 16.5919 18.2448 16.9491C21.1168 19.0924 22.5528 21.9501 22.6725 25.6413C22.6725 25.9985 22.6725 26.4748 22.6725 26.832C22.7921 27.9037 22.3135 28.7372 21.3561 29.2135C14.8941 29.2135 8.43212 29.2135 2.08977 29.2135Z" fill="white"/>
<path d="M11.9872 14.9214C8.03817 14.9214 4.6875 11.5874 4.6875 7.77709C4.6875 3.84774 8.03817 0.632812 11.9872 0.632812C15.9362 0.632812 19.2869 3.96681 19.2869 7.77709C19.4065 11.5874 16.0558 14.9214 11.9872 14.9214Z" fill="white"/>
</svg>
