<svg width="39" height="30" viewBox="0 0 39 30" fill="none" xmlns="http://www.w3.org/2000/svg">
<path d="M0 26.8256C0 19.0966 0 11.4847 0 3.75571V3.63859C0.234213 1.99911 1.75661 0.710938 3.74742 0.710938C7.61192 0.710938 11.5935 0.710938 15.458 0.710938C15.8094 0.710938 16.1607 0.828037 16.3949 1.17936C17.2146 2.23331 18.1515 3.17017 18.9712 4.22413C19.2054 4.45834 19.3226 4.57543 19.6739 4.57543C24.5924 4.57543 29.5108 4.57543 34.4293 4.57543C36.5372 4.57543 38.0595 5.98071 38.0595 8.08862C38.0595 14.1781 38.0595 20.3848 38.0595 26.4743C38.0595 27.6454 37.5912 28.5822 36.6543 29.2849C35.9517 29.8704 35.1319 29.9875 34.3122 29.9875C26.9345 29.9875 19.5567 29.9875 12.2962 29.9875C9.48561 29.9875 6.67507 29.9875 3.74742 29.9875C2.81056 29.9875 1.8737 29.7533 1.17106 29.0506C0.468425 28.4651 0.234213 27.6454 0 26.8256Z" fill="#685AAD"/>
<path d="M28.8335 22.192C28.8379 22.1481 28.8379 22.0906 28.8422 22.0424C28.807 22.0115 28.7717 21.9763 28.7408 21.9497C28.4675 21.7073 28.0138 21.3061 28.0138 20.6625C28.0138 20.2749 28.177 19.975 28.3662 19.7457C28.0886 19.5559 27.7844 19.3976 27.4586 19.2696L27.3702 19.2344L27.2867 19.2783C26.075 19.9794 24.5806 19.9794 23.364 19.2783L23.2849 19.2344L23.1965 19.2696C21.4598 19.9441 20.3359 21.5743 20.3359 23.4303V24.0956C20.3359 24.435 20.6092 24.7082 20.9486 24.7082H29.6836V23.8841C29.5297 23.8266 29.3708 23.7345 29.2255 23.5886C28.7804 23.1435 28.8156 22.5487 28.8335 22.1914L28.8335 22.192Z" fill="#EDE8FA"/>
<path d="M25.325 18.7347C26.9065 18.7347 28.193 17.4488 28.193 15.8673C28.193 14.2865 26.9064 13 25.325 13C23.7436 13.0006 22.457 14.2872 22.457 15.868C22.457 17.4494 23.7442 18.7353 25.325 18.7353V18.7347Z" fill="#EDE8FA"/>
<path d="M33.5361 23.9922C33.5052 24.0231 33.47 24.0627 33.4434 24.0936C33.201 24.3625 32.7998 24.8163 32.1562 24.8163C31.5083 24.8163 31.1071 24.3625 30.8647 24.0936C30.8381 24.0627 30.8072 24.0231 30.7763 23.9922C30.7238 23.9922 30.6749 23.9965 30.6224 23.9965H30.6094V26.6235C30.6094 26.8528 30.8561 26.9851 31.0458 26.8658L32.1562 26.1517L33.2622 26.8658C33.4514 26.9845 33.703 26.8528 33.703 26.6235V23.9965H33.6851C33.6319 23.9965 33.5837 23.9922 33.5355 23.9922H33.5361Z" fill="#EDE8FA"/>
<path d="M34.5931 19.6518C34.4448 19.2939 34.6982 18.6571 34.4287 18.3875C34.1591 18.118 33.5223 18.3714 33.1644 18.2231C32.8194 18.0796 32.5511 17.4453 32.1542 17.4453C31.7573 17.4453 31.4896 18.0802 31.144 18.2231C30.786 18.3714 30.1493 18.118 29.8797 18.3875C29.6102 18.6571 29.8636 19.2939 29.7152 19.6518C29.5718 19.9968 28.9375 20.2651 28.9375 20.662C28.9375 21.0589 29.5724 21.3266 29.7152 21.6722C29.8636 22.0302 29.6095 22.667 29.8797 22.9365C30.1493 23.206 30.786 22.9526 31.144 23.101C31.489 23.2438 31.7573 23.8787 32.1542 23.8787C32.5511 23.8787 32.8188 23.2438 33.1644 23.101C33.5223 22.9526 34.1591 23.2061 34.4287 22.9365C34.6982 22.6669 34.4448 22.0302 34.5931 21.6722C34.736 21.3272 35.3709 21.0589 35.3709 20.662C35.3709 20.2651 34.736 19.9974 34.5931 19.6518ZM33.5836 20.437L33.0581 20.9396C33.0284 20.9674 33.0154 21.0082 33.0228 21.0484L33.1527 21.7637C33.1836 21.9337 33.0043 22.0642 32.8522 21.9819L32.2117 21.637C32.1758 21.6178 32.1326 21.6178 32.0967 21.637L31.4562 21.9819C31.3041 22.0635 31.1248 21.9337 31.1558 21.7637L31.2862 21.0484C31.2936 21.0082 31.28 20.9674 31.251 20.9396L30.7255 20.437C30.6006 20.3176 30.6692 20.1068 30.8405 20.0839L31.5613 19.9863C31.6015 19.9807 31.6361 19.9554 31.6541 19.9189L31.9694 19.2636C32.0442 19.1078 32.2661 19.1078 32.3409 19.2636L32.6562 19.9189C32.6735 19.9554 32.7088 19.9807 32.749 19.9863L33.4698 20.0839C33.6411 20.1068 33.7097 20.3176 33.5848 20.437H33.5836Z" fill="#EDE8FA"/>
</svg>
