<svg width="24" height="20" viewBox="0 0 24 20" fill="none" xmlns="http://www.w3.org/2000/svg">
<path d="M0.261719 10.69C0.400407 10.482 0.60844 10.3433 0.955162 10.4126C1.23254 10.4126 1.57926 10.4126 1.85664 10.4126C1.92598 10.4126 1.99533 10.3433 1.99533 10.274C2.20336 5.35052 4.49172 1.95264 9.20714 0.427059C12.813 -0.68245 16.3496 0.496404 18.5686 2.50739C18.638 2.57673 18.638 2.64609 18.5686 2.71544C17.9445 3.47822 17.3204 4.17165 16.6963 4.93444C16.627 5.00379 16.5576 5.00379 16.4883 4.93444C13.8532 2.85411 11.0794 2.5074 8.23632 4.3797C6.15599 5.69724 5.18517 7.77757 5.25451 10.274C5.25451 10.3433 5.32386 10.4126 5.3932 10.4126C5.73992 10.4126 6.08664 10.4126 6.36402 10.4126C6.50271 10.4126 6.6414 10.4126 6.71074 10.4126C6.98812 10.4126 7.12681 10.5513 7.2655 10.7594C7.40419 10.9674 7.33484 11.1754 7.12681 11.3835C6.6414 11.9382 6.15599 12.493 5.67058 13.0477C5.04648 13.7412 4.42238 14.4346 3.79828 15.1974C3.72894 15.2668 3.65959 15.2668 3.59025 15.1974C2.96615 14.504 2.34205 13.8105 1.78729 13.1171C1.30188 12.5623 0.816474 12.0076 0.400408 11.4528C0.331064 11.3835 0.331063 11.3141 0.261719 11.2448C0.261719 11.1061 0.261719 10.8981 0.261719 10.69Z" fill="white"/>
<path d="M5.80372 17.6257C6.42782 16.8629 7.05192 16.1695 7.67602 15.4067C7.74536 15.3373 7.81471 15.3373 7.81471 15.4067C10.1724 17.0016 12.5995 17.2096 15.0959 15.8228C17.1068 14.7132 18.2164 12.9103 18.4937 10.6219C18.4937 10.5526 18.4244 10.4832 18.355 10.4832C18.2164 10.4832 18.0777 10.4832 17.939 10.4832C17.6616 10.4832 17.3842 10.4832 17.0375 10.4832C16.7601 10.4832 16.5521 10.4139 16.4827 10.1365C16.3441 9.85914 16.4827 9.65111 16.6214 9.51242C17.6616 8.33356 18.7018 7.15471 19.7419 5.97585C19.8113 5.90651 19.8806 5.83717 19.95 5.76783C20.0193 5.69848 20.0887 5.69848 20.158 5.76783C20.5741 6.25324 20.9901 6.66931 21.3369 7.15472C22.0303 7.9175 22.6544 8.68028 23.3478 9.44307C23.5559 9.6511 23.6946 9.85914 23.5559 10.1365C23.4172 10.4139 23.2091 10.4832 22.8624 10.4832C22.5157 10.4832 22.2383 10.4832 21.9609 10.4832C21.8916 10.4832 21.8223 10.5526 21.8223 10.6219C21.1982 15.3373 18.7711 18.4578 14.125 19.706C10.8659 20.5382 7.67602 19.498 5.73438 17.9031C5.80372 17.7644 5.80372 17.6951 5.80372 17.6257Z" fill="white"/>
<path d="M14.0663 11.4527C13.997 11.4527 13.9276 11.4527 13.9276 11.5221C13.4422 12.0768 12.8181 12.4236 11.986 12.4236C10.8765 12.4236 9.975 11.7301 9.62828 10.7593C9.55894 10.6206 9.69763 10.4819 9.83631 10.4819H12.3327H14.413H15.2452C15.3839 10.4819 15.4532 10.4126 15.4532 10.2739C15.4532 10.2045 15.4532 10.0659 15.4532 9.99651C15.4532 8.12422 13.9276 6.59864 12.0553 6.5293C10.1137 6.5293 8.51877 8.05487 8.58812 9.99651C8.58812 11.8688 10.1137 13.3944 12.0553 13.3944C13.3035 13.3944 14.3437 12.7009 14.9678 11.7301C15.0371 11.5914 14.9678 11.3834 14.7598 11.3834L14.0663 11.4527ZM11.986 7.50011C13.0955 7.50011 13.997 8.19355 14.3437 9.16437C14.413 9.30306 14.2744 9.44175 14.1357 9.44175H9.90566C9.76697 9.44175 9.62828 9.30306 9.69763 9.16437C9.97501 8.19355 10.8765 7.50011 11.986 7.50011Z" fill="white" stroke="white" stroke-width="0.5554" stroke-miterlimit="10"/>
</svg>
