<svg width="26" height="26" viewBox="0 0 26 26" fill="none" xmlns="http://www.w3.org/2000/svg">
<path d="M16.6101 25.3726C16.4001 25.3726 16.1801 25.3726 15.9701 25.3726C15.9501 25.3626 15.9301 25.3426 15.9001 25.3426C14.8801 25.1326 14.2701 24.5126 13.9901 23.5226C13.1201 20.4526 12.2401 17.3826 11.3701 14.3126C11.3201 14.1426 11.2501 14.0626 11.0701 14.0126C7.97011 13.1326 4.87011 12.2426 1.77011 11.3526C0.700109 11.0426 0.0101088 10.1626 0.000108802 9.11263C-0.0098912 8.02263 0.670109 7.14259 1.76011 6.82259C9.24011 4.58259 16.7201 2.33261 24.1901 0.0926131C24.8201 -0.0973869 25.0501 -0.0173747 25.3701 0.542625C25.3701 0.672625 25.3701 0.802589 25.3701 0.942589C25.3401 1.01259 25.3001 1.0726 25.2801 1.1426C23.5901 6.7726 21.9001 12.4026 20.2101 18.0326C19.6501 19.9026 19.0901 21.7726 18.5301 23.6526C18.2901 24.4426 17.8001 24.9826 17.0201 25.2626C16.9001 25.3026 16.7501 25.3326 16.6101 25.3726Z" fill="#685AAD"/>
</svg>
