<svg width="23" height="23" viewBox="0 0 23 23" fill="none" xmlns="http://www.w3.org/2000/svg">
  <path d="M14.8 22.2966C14.6 22.2966 14.4 22.2966 14.2 22.2966C14.2 22.2966 14.2 22.2966 14.1 22.2966C13.2 22.0966 12.7 21.5966 12.4 20.6966C11.6 17.9966 10.9 15.2966 10.1 12.5966C10.1 12.3966 10 12.3966 9.8 12.2966C7.1 11.4966 4.3 10.6966 1.6 9.99659C0.7 9.69659 0.1 8.99659 0 7.99659C0 6.99659 0.6 6.29659 1.5 5.99659C8.1 3.99659 14.7 1.99657 21.2 0.0965687C21.7 -0.103431 22 -0.00340685 22.2 0.496593C22.2 0.596593 22.2 0.696581 22.2 0.796581C22.2 0.896581 22.1 0.896593 22.1 0.996593C20.6 5.99659 19.1 10.8966 17.6 15.8966C17.1 17.5966 16.6 19.1966 16.1 20.7966C15.9 21.4966 15.4 21.9966 14.8 22.1966C15.1 22.2966 14.9 22.2966 14.8 22.2966Z" fill="#8653ff"/>
</svg>
