<svg width="15" height="15" viewBox="0 0 15 15" fill="none" xmlns="http://www.w3.org/2000/svg">
<path opacity="0.7" d="M14.6874 13.7702C14.6291 14.0474 14.5269 14.3003 14.3081 14.49C13.7975 14.9374 13.1361 14.9034 12.6352 14.4073C11.5993 13.3714 10.5634 12.3356 9.53243 11.2997C9.49352 11.2608 9.46917 11.2073 9.43513 11.1635C7.92752 12.1605 6.32755 12.4717 4.61083 12.0341C3.19563 11.6742 2.0722 10.8717 1.24545 9.6705C-0.310785 7.39937 -0.111371 4.30635 1.93605 2.25406C3.96888 0.216365 7.05218 -0.00732012 9.35249 1.54892C11.7647 3.18296 12.7908 6.60179 11.0254 9.48569C11.0595 9.5246 11.0984 9.56353 11.1373 9.60244C12.1391 10.6043 13.1361 11.6109 14.1428 12.6079C14.4005 12.8608 14.6194 13.1283 14.6826 13.493C14.6874 13.5806 14.6874 13.6778 14.6874 13.7702ZM10.0187 6.38781C10.0042 4.18477 8.2534 2.44373 6.0698 2.434C3.9008 2.42427 2.13544 4.18478 2.11599 6.36837C2.09654 8.53737 3.87161 10.3173 6.0552 10.3319C8.22907 10.3416 10.0042 8.57627 10.0187 6.38781Z" fill="#685AAD"/>
</svg>
