<svg width="26" height="26" viewBox="0 0 26 26" fill="none" xmlns="http://www.w3.org/2000/svg">
<path d="M8.72015 25.3906C8.30015 25.2006 8.17016 24.8706 8.17016 24.4206C8.16016 23.1506 8.47016 22.0006 9.30016 21.0206C9.52016 20.7606 9.79016 20.5607 10.0302 20.3207C10.1502 20.2007 10.2602 20.2107 10.4002 20.2907C11.1602 20.7407 11.9902 20.9606 12.8802 20.9206C13.6302 20.8906 14.3402 20.6906 14.9902 20.3006C15.1502 20.2006 15.2602 20.2206 15.4002 20.3306C16.5802 21.2406 17.1902 22.4306 17.2102 23.9306C17.2102 24.1006 17.2002 24.2606 17.2102 24.4206C17.2502 24.8706 17.0802 25.2006 16.6602 25.3906C14.0102 25.3906 11.3702 25.3906 8.72015 25.3906Z" fill="#685AAD"/>
<path d="M0 24.4399C0.12 24.0299 0.210001 23.6098 0.360001 23.2098C0.570001 22.6598 0.939999 22.1998 1.38 21.7998C1.5 21.6998 1.57 21.6998 1.7 21.7798C3.04 22.6198 4.39 22.6198 5.73 21.7798C5.86 21.6998 5.96 21.6798 6.07 21.7998C6.13 21.8598 6.2 21.9098 6.26 21.9598C6.64 22.2898 6.87 22.6198 6.77 23.1998C6.65 23.9098 6.71 24.6498 6.7 25.3698C4.47 25.3698 2.24 25.3698 0.0100002 25.3698C2.29105e-07 25.0698 0 24.7599 0 24.4399Z" fill="#685AAD"/>
<path d="M18.6896 25.3882C18.6496 24.4982 18.5996 23.6082 18.5596 22.7182C18.5596 22.6482 18.5896 22.5682 18.6296 22.5182C18.8296 22.2882 19.0496 22.0782 19.2496 21.8482C19.3896 21.6982 19.5196 21.6982 19.6896 21.8082C20.3296 22.2382 21.0496 22.4382 21.8196 22.3982C22.4796 22.3682 23.0796 22.1682 23.6296 21.7982C23.7796 21.6982 23.8696 21.6982 24.0096 21.8282C24.8696 22.6182 25.3096 23.5982 25.3596 24.7582C25.3696 25.0582 25.2296 25.2582 24.9696 25.3782C22.8796 25.3882 20.7896 25.3882 18.6896 25.3882Z" fill="#685AAD"/>
<path d="M12.7004 10.51C9.84043 10.52 7.44043 8.11999 7.44043 5.25999C7.44043 2.39999 9.84043 0 12.7004 0C15.5604 0 17.9404 2.37999 17.9504 5.23999C17.9604 8.09999 15.5604 10.5 12.7004 10.51ZM13.4504 4.50999C13.4404 4.45999 13.4304 4.43999 13.4304 4.42999C13.4304 3.97999 13.4304 3.51999 13.4304 3.06999C13.4304 2.56999 13.1204 2.22999 12.6804 2.23999C12.2504 2.24999 11.9504 2.58 11.9504 3.06C11.9504 3.76 11.9504 4.46 11.9504 5.17C11.9504 5.71 12.2504 5.99999 12.8004 6.00999C13.4904 6.00999 14.1904 6.00999 14.8804 6.00999C15.3804 6.00999 15.7204 5.70999 15.7204 5.25999C15.7204 4.81999 15.3804 4.51999 14.8804 4.51999C14.4004 4.50999 13.9304 4.50999 13.4504 4.50999Z" fill="#685AAD"/>
<path d="M12.6702 19.4383C11.0202 19.4283 9.66016 18.0683 9.66016 16.4483C9.67016 14.8283 11.0502 13.4783 12.7002 13.4883C14.3502 13.4983 15.7102 14.8583 15.7102 16.4783C15.7002 18.0983 14.3202 19.4483 12.6702 19.4383Z" fill="#685AAD"/>
<path d="M3.73031 16.461C4.95031 16.471 5.95031 17.481 5.95031 18.691C5.95031 19.911 4.91031 20.941 3.70031 20.911C2.48031 20.891 1.48031 19.871 1.49031 18.661C1.50031 17.461 2.52031 16.451 3.73031 16.461Z" fill="#685AAD"/>
<path d="M23.8897 18.6809C23.8997 19.8909 22.8997 20.9009 21.6797 20.9209C20.4697 20.9409 19.4297 19.9109 19.4297 18.6909C19.4297 17.4809 20.4397 16.4709 21.6497 16.4609C22.8697 16.4609 23.8797 17.4609 23.8897 18.6809Z" fill="#685AAD"/>
</svg>
