<svg width="26" height="24" viewBox="0 0 26 24" fill="none" xmlns="http://www.w3.org/2000/svg">
<path d="M4.43939 18.7379C4.43939 17.0379 3.23939 15.6378 1.63939 15.3378C0.639388 15.2378 0.239388 14.7378 0.139388 13.8378C-0.0606117 12.4378 -0.0606132 11.0378 0.239387 9.63783C0.339387 8.93783 0.939388 8.43784 1.63939 8.33784C3.43939 8.13784 4.63939 6.63782 4.53939 4.93782C4.53939 4.63782 4.43939 4.23782 4.33939 3.93782C4.13939 3.13782 4.23939 2.53785 4.93939 2.03785C5.93939 1.23785 7.03939 0.637829 8.23939 0.137829C8.93939 -0.162171 9.53939 0.0378293 10.0394 0.637829C11.5394 2.33783 13.7394 2.33783 15.2394 0.637829C15.7394 0.0378293 16.3394 -0.0621707 17.0394 0.137829C18.3394 0.637829 19.5394 1.33783 20.5394 2.13783C21.1394 2.63783 21.3394 3.23785 21.0394 4.03785C20.3394 5.93785 21.4394 7.93782 23.4394 8.43782C23.6394 8.43782 23.7394 8.43785 23.8394 8.53785C24.4394 8.73785 24.8394 9.13787 24.9394 9.73787C25.2394 11.2379 25.2394 12.7378 24.9394 14.1378C24.8394 14.8378 24.2394 15.3378 23.6394 15.4378C21.4394 15.8378 20.2394 17.8378 21.0394 19.9378C21.3394 20.6378 21.1394 21.3379 20.5394 21.7379C19.5394 22.5379 18.5394 23.1378 17.3394 23.6378C16.5394 23.9378 15.8394 23.8378 15.3394 23.1378C14.0394 21.5378 11.6394 21.4378 10.3394 22.9378C10.2394 23.0378 10.1394 23.1378 10.0394 23.3378C9.53939 23.9378 8.93939 24.1378 8.23939 23.8378C6.93939 23.3378 5.63939 22.6379 4.53939 21.7379C4.03939 21.2379 3.83939 20.6378 4.13939 19.9378C4.23939 19.6378 4.33939 19.4378 4.43939 19.1378C4.43939 19.0378 4.43939 18.8379 4.43939 18.7379ZM8.43939 12.0379C8.43939 14.4379 10.3394 16.2379 12.6394 16.2379C14.9394 16.2379 16.8394 14.3379 16.8394 12.0379C16.8394 9.73785 14.9394 7.83784 12.6394 7.83784C10.3394 7.83784 8.43939 9.73785 8.43939 12.0379Z" fill="#8653ff"/>
</svg>
