<svg width="36" height="32" viewBox="0 0 36 32" fill="none" xmlns="http://www.w3.org/2000/svg">
<path d="M30.5 2V12.5M30.5 12.5C28.567 12.5 27 14.067 27 16C27 17.933 28.567 19.5 30.5 19.5M30.5 12.5C32.433 12.5 34 14.067 34 16C34 17.933 32.433 19.5 30.5 19.5M30.5 19.5V30M18.25 2V23M18.25 23C16.317 23 14.75 24.567 14.75 26.5C14.75 28.433 16.317 30 18.25 30C20.183 30 21.75 28.433 21.75 26.5C21.75 24.567 20.183 23 18.25 23ZM6 9V30M6 9C7.933 9 9.5 7.433 9.5 5.5C9.5 3.567 7.933 2 6 2C4.067 2 2.5 3.567 2.5 5.5C2.5 7.433 4.067 9 6 9Z" stroke="#685AAD" stroke-width="3.5" stroke-linecap="round" stroke-linejoin="round"/>
</svg>
