<svg width="26" height="25" viewBox="0 0 26 25" fill="none" xmlns="http://www.w3.org/2000/svg">
<path d="M4.53198 18.681C4.54198 16.951 3.32198 15.551 1.69198 15.321C0.741976 15.191 0.291975 14.761 0.141975 13.811C-0.0780253 12.421 -0.0380252 11.041 0.231975 9.661C0.381975 8.921 0.891975 8.46101 1.67198 8.36101C3.43198 8.13101 4.66198 6.70102 4.59198 4.93102C4.58197 4.58102 4.48197 4.22103 4.37197 3.88103C4.12197 3.12103 4.30198 2.471 4.93198 1.981C5.94198 1.191 7.06198 0.571019 8.26198 0.121019C8.96198 -0.138981 9.61198 0.0209899 10.102 0.59099C11.572 2.29099 13.842 2.29099 15.312 0.59099C15.802 0.0309899 16.452 -0.138971 17.152 0.131029C18.452 0.621029 19.632 1.30102 20.702 2.18102C21.332 2.70102 21.512 3.31099 21.242 4.09099C20.582 6.01099 21.672 7.99098 23.632 8.45098C23.782 8.48098 23.932 8.501 24.072 8.541C24.672 8.721 25.062 9.12101 25.182 9.731C25.472 11.211 25.462 12.691 25.182 14.171C25.052 14.851 24.532 15.341 23.842 15.451C21.612 15.811 20.412 17.861 21.202 19.991C21.462 20.701 21.282 21.351 20.692 21.841C19.722 22.631 18.662 23.271 17.512 23.761C16.702 24.101 16.042 23.931 15.492 23.251C14.172 21.621 11.822 21.531 10.442 23.051C10.332 23.171 10.242 23.301 10.142 23.421C9.69198 23.991 9.01198 24.191 8.32198 23.941C6.98198 23.441 5.76197 22.741 4.66197 21.821C4.12197 21.371 3.97197 20.691 4.23197 20.031C4.33197 19.771 4.42197 19.501 4.49197 19.231C4.52198 19.001 4.52198 18.791 4.53198 18.681ZM8.46198 11.971C8.46198 14.331 10.352 16.221 12.702 16.221C15.032 16.221 16.922 14.311 16.922 11.971C16.922 9.67099 15.022 7.76097 12.712 7.76097C10.372 7.76097 8.46198 9.651 8.46198 11.971Z" fill="#685AAD"/>
</svg>
