<svg width="270" height="42" viewBox="0 0 270 42" fill="none" xmlns="http://www.w3.org/2000/svg">
<path d="M37.2266 10.6659V6.56592H24.2266V10.6659H28.5266V35.8659H32.8266V10.6659H37.2266Z" fill="white"/>
<path d="M53.5703 35.8659V6.56592H49.2703V31.7659H44.3703V6.56592H40.0703V35.8659H53.5703Z" fill="white"/>
<path d="M69.4297 10.6659V6.56592H56.4297V10.6659H60.7297V35.8659H65.0297V10.6659H69.4297Z" fill="white"/>
<path d="M85.875 35.8659V6.56592H72.375V35.8659H85.875ZM81.575 31.7659H76.675V10.6659H81.575V31.7659Z" fill="white"/>
<path d="M104.427 35.8659L101.527 28.2659H103.727V6.56592H90.2266V35.8659H94.5266V28.2659H97.0266L99.7266 35.8659H104.427ZM99.4266 24.1659H94.5266V10.5659H99.4266C99.4266 10.6659 99.4266 24.1659 99.4266 24.1659Z" fill="white"/>
<path d="M117.083 30.8659V35.8659H121.783V30.8659H124.983V26.5659H121.783V18.6659H117.083V26.5659H111.783L121.683 6.56592H116.483L109.683 20.0659C106.683 25.9659 106.383 26.6659 106.383 28.0659C106.383 30.8659 109.183 30.8659 111.583 30.8659C111.483 30.8659 117.083 30.8659 117.083 30.8659Z" fill="white"/>
<path d="M145.309 35.8659V6.56592H141.009L136.709 17.2659L132.409 6.56592H128.109V35.8659H132.409V17.7659L136.709 28.2659L141.009 17.7659V35.9659C141.009 35.8659 145.309 35.8659 145.309 35.8659Z" fill="white"/>
<path d="M160.395 35.8658V31.7658H153.995V22.1658H160.295V18.0658H153.995V10.5658H160.395V6.46582H149.695V35.7658L160.395 35.8658Z" fill="white"/>
<path d="M22.1 19.3001C22.1 15.0001 21.3 12.2001 19.4 10.1001C17.4 7.8001 14.5 6.6001 11 6.6001C7.7 6.6001 5 7.70009 3 9.80009C0.9 12.0001 0 14.7001 0 18.8001V23.3001C0 27.8001 1 30.7001 3.3 32.8001C5.4 34.7001 8.1 35.7001 11.1 35.7001C14.4 35.7001 17 34.6001 19.4 32.4001L15.9 28.2001C14.8 29.2001 13.3 30.1001 11.2 30.1001C8.1 30.1001 6.3 28.2001 6.2 24.8001H22.1V19.3001ZM6.1 19.2001C6.1 16.2001 6.7 12.3001 11 12.3001C15.3 12.3001 15.9 16.3001 15.9 19.2001H6.1Z" fill="url(#paint0_linear_3070_49577)"/>
<path d="M176.5 2V40.4" stroke="white" stroke-width="2" stroke-miterlimit="10"/>
<path d="M199.001 19.2003C199.001 18.8928 198.972 18.6185 198.914 18.3775C198.856 18.1282 198.743 17.8996 198.577 17.6918C198.411 17.4757 198.162 17.2596 197.829 17.0436C197.497 16.8275 197.06 16.6031 196.52 16.3703C195.855 16.0961 195.207 15.7969 194.575 15.4727C193.952 15.1403 193.391 14.758 192.892 14.3258C192.394 13.8853 191.995 13.37 191.695 12.7799C191.396 12.1815 191.247 11.4834 191.247 10.6855C191.247 9.91257 191.392 9.21443 191.683 8.59109C191.974 7.95944 192.381 7.42337 192.905 6.98288C193.428 6.53408 194.048 6.19332 194.762 5.9606C195.477 5.71958 196.262 5.59907 197.119 5.59907C198.274 5.59907 199.284 5.83594 200.148 6.30967C201.012 6.7751 201.686 7.43168 202.168 8.27942C202.65 9.11885 202.891 10.0996 202.891 11.2216H198.951C198.951 10.7312 198.885 10.3032 198.752 9.9375C198.619 9.5635 198.411 9.27261 198.128 9.06483C197.854 8.84874 197.493 8.74069 197.044 8.74069C196.628 8.74069 196.283 8.82796 196.009 9.00249C195.735 9.17703 195.531 9.4139 195.398 9.7131C195.265 10.0123 195.199 10.3447 195.199 10.7104C195.199 11.0013 195.265 11.259 195.398 11.4834C195.539 11.7078 195.726 11.9156 195.959 12.1067C196.2 12.2979 196.483 12.4807 196.807 12.6553C197.139 12.8298 197.497 12.996 197.879 13.1539C198.693 13.4781 199.417 13.8313 200.048 14.2136C200.688 14.5959 201.22 15.0281 201.644 15.5101C202.076 15.9839 202.4 16.5241 202.616 17.1308C202.841 17.7292 202.953 18.4107 202.953 19.1754C202.953 19.9566 202.82 20.6631 202.554 21.2947C202.288 21.9181 201.906 22.45 201.407 22.8905C200.917 23.331 200.318 23.6676 199.612 23.9003C198.905 24.133 198.116 24.2493 197.243 24.2493C196.42 24.2493 195.627 24.133 194.862 23.9003C194.097 23.6592 193.416 23.2936 192.817 22.8032C192.227 22.3128 191.758 21.6853 191.409 20.9207C191.06 20.1561 190.885 19.246 190.885 18.1905H194.85C194.85 18.7307 194.895 19.192 194.987 19.5743C195.086 19.9483 195.236 20.2475 195.436 20.4719C195.643 20.6963 195.897 20.8625 196.196 20.9706C196.503 21.0703 196.869 21.1202 197.293 21.1202C197.725 21.1202 198.066 21.0329 198.315 20.8584C198.565 20.6838 198.739 20.4553 198.839 20.1727C198.947 19.8818 199.001 19.5577 199.001 19.2003ZM211.243 10.511V13.2911H204.225V10.511H211.243ZM205.671 7.16988H209.461V19.7364C209.461 20.1021 209.49 20.3846 209.548 20.5841C209.614 20.7836 209.727 20.9249 209.884 21.008C210.042 21.0828 210.254 21.1202 210.52 21.1202C210.711 21.1202 210.874 21.1119 211.006 21.0952C211.148 21.0786 211.264 21.0578 211.356 21.0329L211.331 23.9003C211.04 24.0083 210.728 24.0914 210.396 24.1496C210.071 24.2161 209.706 24.2493 209.299 24.2493C208.542 24.2493 207.894 24.1122 207.354 23.8379C206.822 23.5637 206.406 23.1273 206.107 22.5289C205.816 21.9305 205.671 21.1493 205.671 20.1852V7.16988ZM219.484 20.7462V10.511H223.286V24H219.733L219.484 20.7462ZM219.883 17.9786L220.868 17.9536C220.868 18.8595 220.776 19.699 220.593 20.4719C220.419 21.2365 220.157 21.9014 219.808 22.4666C219.459 23.0317 219.027 23.4722 218.511 23.7881C217.996 24.0956 217.398 24.2493 216.716 24.2493C216.159 24.2493 215.648 24.1579 215.183 23.9751C214.726 23.7839 214.327 23.4889 213.986 23.0899C213.654 22.6827 213.396 22.1632 213.213 21.5316C213.03 20.8916 212.939 20.127 212.939 19.2377V10.511H216.729V19.2626C216.729 19.5951 216.754 19.8818 216.804 20.1228C216.862 20.3556 216.941 20.5509 217.04 20.7088C217.148 20.8667 217.277 20.983 217.427 21.0578C217.576 21.1243 217.747 21.1576 217.938 21.1576C218.437 21.1576 218.827 21.0204 219.11 20.7462C219.392 20.4636 219.592 20.0854 219.708 19.6117C219.825 19.1297 219.883 18.5853 219.883 17.9786ZM232.05 20.9706V4.85106H235.853V24L232.437 24.0125L232.05 20.9706ZM225.181 17.8165V16.7568C225.181 15.6514 225.273 14.6915 225.455 13.877C225.647 13.0625 225.925 12.3893 226.291 11.8574C226.665 11.3172 227.126 10.9182 227.675 10.6606C228.231 10.3946 228.867 10.2616 229.582 10.2616C230.214 10.2616 230.758 10.4279 231.215 10.7603C231.681 11.0844 232.075 11.5416 232.399 12.1316C232.724 12.7217 232.985 13.4157 233.185 14.2136C233.393 15.0115 233.542 15.8758 233.634 16.8067V17.8913C233.526 18.764 233.372 19.5868 233.172 20.3597C232.973 21.1243 232.711 21.8017 232.387 22.3918C232.063 22.9736 231.668 23.4307 231.203 23.7631C230.737 24.0873 230.193 24.2493 229.569 24.2493C228.855 24.2493 228.223 24.1122 227.675 23.8379C227.126 23.5637 226.665 23.1564 226.291 22.6162C225.925 22.076 225.647 21.4069 225.455 20.609C225.273 19.8029 225.181 18.872 225.181 17.8165ZM228.971 16.7568V17.8165C228.971 18.4232 228.996 18.9385 229.046 19.3624C229.096 19.7862 229.183 20.1312 229.308 20.3971C229.432 20.6631 229.599 20.8584 229.806 20.983C230.022 21.0994 230.293 21.1576 230.617 21.1576C231.041 21.1576 231.385 21.0412 231.651 20.8085C231.926 20.5675 232.125 20.235 232.25 19.8112C232.375 19.3873 232.433 18.8886 232.424 18.3152V16.3703C232.433 15.8883 232.395 15.4603 232.312 15.0863C232.237 14.704 232.125 14.384 231.976 14.1263C231.826 13.8687 231.639 13.6734 231.415 13.5404C231.19 13.4074 230.928 13.3409 230.629 13.3409C230.322 13.3409 230.06 13.4033 229.844 13.5279C229.628 13.6526 229.457 13.8521 229.333 14.1263C229.208 14.3923 229.117 14.7414 229.058 15.1735C229 15.6057 228.971 16.1335 228.971 16.7568ZM243.856 24.2493C242.917 24.2493 242.082 24.1122 241.351 23.8379C240.619 23.5637 240.004 23.1647 239.505 22.6411C239.007 22.1092 238.629 21.4651 238.371 20.7088C238.113 19.9441 237.985 19.0756 237.985 18.1032V16.8316C237.985 15.7429 238.101 14.7912 238.334 13.9767C238.575 13.1539 238.924 12.4683 239.381 11.9197C239.838 11.3712 240.411 10.9598 241.101 10.6855C241.791 10.4029 242.585 10.2616 243.482 10.2616C244.322 10.2616 245.066 10.3946 245.714 10.6606C246.362 10.9265 246.907 11.3296 247.347 11.8698C247.788 12.4018 248.12 13.075 248.344 13.8895C248.577 14.6956 248.693 15.639 248.693 16.7194V18.5022H239.493V15.9465H244.978V15.5725C244.978 15.0239 244.924 14.5876 244.816 14.2635C244.708 13.9393 244.542 13.7066 244.318 13.5653C244.093 13.4157 243.807 13.3409 243.457 13.3409C243.108 13.3409 242.822 13.4074 242.597 13.5404C242.381 13.6651 242.215 13.8645 242.099 14.1388C241.982 14.4131 241.899 14.7746 241.849 15.2234C241.808 15.6722 241.787 16.2083 241.787 16.8316V18.1032C241.787 18.7099 241.837 19.2128 241.937 19.6117C242.036 20.0023 242.186 20.314 242.385 20.5467C242.585 20.7711 242.826 20.9332 243.108 21.0329C243.399 21.1243 243.736 21.17 244.118 21.17C244.675 21.17 245.194 21.0745 245.677 20.8833C246.167 20.6838 246.582 20.393 246.923 20.0106L248.457 22.3419C248.216 22.6411 247.879 22.9403 247.447 23.2395C247.023 23.5387 246.508 23.7839 245.901 23.9751C245.303 24.1579 244.621 24.2493 243.856 24.2493ZM254.279 13.3908V24H250.476V10.511H254.042L254.279 13.3908ZM253.78 16.7942L252.845 16.8191C252.837 15.7969 252.932 14.8826 253.132 14.0765C253.339 13.2703 253.639 12.5846 254.029 12.0194C254.42 11.446 254.889 11.0096 255.438 10.7104C255.987 10.4112 256.597 10.2616 257.271 10.2616C257.786 10.2616 258.26 10.3531 258.692 10.5359C259.132 10.7187 259.51 11.0138 259.826 11.421C260.142 11.82 260.387 12.3519 260.562 13.0168C260.736 13.6817 260.824 14.5003 260.824 15.4727V24H257.021V15.4478C257.021 14.891 256.967 14.4629 256.859 14.1637C256.751 13.8562 256.589 13.6443 256.373 13.5279C256.165 13.4033 255.895 13.3409 255.563 13.3409C255.255 13.3409 254.985 13.4282 254.752 13.6027C254.528 13.7773 254.341 14.0224 254.191 14.3383C254.042 14.6458 253.934 15.0115 253.867 15.4353C253.809 15.8509 253.78 16.3039 253.78 16.7942ZM269.313 10.511V13.2911H262.295V10.511H269.313ZM263.741 7.16988H267.531V19.7364C267.531 20.1021 267.56 20.3846 267.618 20.5841C267.685 20.7836 267.797 20.9249 267.955 21.008C268.113 21.0828 268.324 21.1202 268.59 21.1202C268.782 21.1202 268.944 21.1119 269.077 21.0952C269.218 21.0786 269.334 21.0578 269.426 21.0329L269.401 23.9003C269.11 24.0083 268.798 24.0914 268.466 24.1496C268.142 24.2161 267.776 24.2493 267.369 24.2493C266.612 24.2493 265.964 24.1122 265.424 23.8379C264.892 23.5637 264.476 23.1273 264.177 22.5289C263.886 21.9305 263.741 21.1493 263.741 20.1852V7.16988Z" fill="#00DAE5"/>
<path d="M194.033 31.6882L192.213 39H190.1L192.923 29.9242H194.239L194.033 31.6882ZM195.467 39L193.64 31.6882L193.403 29.9242H194.744L197.58 39H195.467ZM195.535 35.6153V37.2173H191.515V35.6153H195.535ZM201.488 37.4853V29.4255H203.389V39L201.681 39.0062L201.488 37.4853ZM198.054 35.9082V35.3784C198.054 34.8257 198.099 34.3457 198.191 33.9385C198.286 33.5312 198.425 33.1946 198.608 32.9287C198.795 32.6586 199.026 32.4591 199.3 32.3303C199.579 32.1973 199.897 32.1308 200.254 32.1308C200.57 32.1308 200.842 32.2139 201.07 32.3802C201.303 32.5422 201.501 32.7708 201.663 33.0658C201.825 33.3609 201.956 33.7079 202.055 34.1068C202.159 34.5057 202.234 34.9379 202.28 35.4033V35.9456C202.226 36.382 202.149 36.7934 202.049 37.1799C201.949 37.5622 201.818 37.9008 201.656 38.1959C201.494 38.4868 201.297 38.7153 201.064 38.8816C200.832 39.0436 200.559 39.1247 200.248 39.1247C199.89 39.1247 199.574 39.0561 199.3 38.919C199.026 38.7818 198.795 38.5782 198.608 38.3081C198.425 38.038 198.286 37.7035 198.191 37.3045C198.099 36.9014 198.054 36.436 198.054 35.9082ZM199.948 35.3784V35.9082C199.948 36.2116 199.961 36.4692 199.986 36.6812C200.011 36.8931 200.054 37.0656 200.117 37.1986C200.179 37.3315 200.262 37.4292 200.366 37.4915C200.474 37.5497 200.609 37.5788 200.771 37.5788C200.983 37.5788 201.156 37.5206 201.289 37.4043C201.426 37.2837 201.526 37.1175 201.588 36.9056C201.65 36.6937 201.679 36.4443 201.675 36.1576V35.1852C201.679 34.9441 201.661 34.7301 201.619 34.5431C201.582 34.352 201.526 34.192 201.451 34.0632C201.376 33.9343 201.282 33.8367 201.17 33.7702C201.058 33.7037 200.927 33.6705 200.778 33.6705C200.624 33.6705 200.493 33.7016 200.385 33.764C200.277 33.8263 200.192 33.926 200.129 34.0632C200.067 34.1961 200.021 34.3707 199.992 34.5868C199.963 34.8029 199.948 35.0667 199.948 35.3784ZM206.512 33.6705V39H204.617V32.2555H206.394L206.512 33.6705ZM206.269 35.3971L205.795 35.4096C205.787 34.9358 205.829 34.4995 205.92 34.1006C206.011 33.7016 206.149 33.3546 206.331 33.0596C206.518 32.7645 206.751 32.536 207.03 32.3739C207.312 32.2119 207.638 32.1308 208.008 32.1308C208.249 32.1308 208.472 32.1765 208.675 32.268C208.879 32.3552 209.053 32.4944 209.199 32.6856C209.348 32.8726 209.463 33.1178 209.542 33.4211C209.625 33.7203 209.666 34.0798 209.666 34.4995V39H207.771V34.7426C207.771 34.4476 207.746 34.2252 207.697 34.0756C207.651 33.9219 207.582 33.8159 207.491 33.7577C207.399 33.6996 207.283 33.6705 207.142 33.6705C207.005 33.6705 206.88 33.7141 206.768 33.8014C206.656 33.8886 206.562 34.0112 206.487 34.1691C206.412 34.3229 206.356 34.5057 206.319 34.7177C206.282 34.9254 206.265 35.1519 206.269 35.3971ZM209.467 35.3098L208.881 35.3597C208.868 34.8984 208.904 34.4725 208.987 34.0819C209.074 33.6871 209.207 33.3442 209.386 33.0534C209.569 32.7625 209.795 32.536 210.065 32.3739C210.34 32.2119 210.662 32.1308 211.031 32.1308C211.297 32.1308 211.538 32.1765 211.754 32.268C211.975 32.3594 212.164 32.5069 212.322 32.7105C212.48 32.91 212.602 33.1759 212.689 33.5084C212.777 33.8408 212.82 34.2481 212.82 34.7301V39H210.919V34.7301C210.919 34.4392 210.894 34.219 210.844 34.0694C210.799 33.9156 210.73 33.8118 210.639 33.7577C210.547 33.6996 210.435 33.6705 210.302 33.6705C210.157 33.6705 210.032 33.712 209.928 33.7951C209.828 33.8782 209.743 33.9946 209.673 34.1442C209.602 34.2938 209.55 34.4683 209.517 34.6678C209.483 34.8631 209.467 35.0771 209.467 35.3098ZM216.037 32.2555V39H214.136V32.2555H216.037ZM214.048 30.5101C214.048 30.2276 214.142 29.9948 214.329 29.812C214.52 29.625 214.771 29.5315 215.083 29.5315C215.395 29.5315 215.644 29.625 215.831 29.812C216.018 29.9948 216.112 30.2276 216.112 30.5101C216.112 30.7969 216.018 31.0317 215.831 31.2145C215.644 31.3974 215.395 31.4888 215.083 31.4888C214.771 31.4888 214.52 31.3974 214.329 31.2145C214.142 31.0317 214.048 30.7969 214.048 30.5101ZM219.185 33.6954V39H217.283V32.2555H219.066L219.185 33.6954ZM218.935 35.3971L218.468 35.4096C218.464 34.8984 218.511 34.4413 218.611 34.0382C218.715 33.6351 218.865 33.2923 219.06 33.0097C219.255 32.723 219.49 32.5048 219.764 32.3552C220.039 32.2056 220.344 32.1308 220.681 32.1308C220.938 32.1308 221.175 32.1765 221.391 32.268C221.612 32.3594 221.801 32.5069 221.959 32.7105C222.116 32.91 222.239 33.1759 222.326 33.5084C222.414 33.8408 222.457 34.2502 222.457 34.7364V39H220.556V34.7239C220.556 34.4455 220.529 34.2315 220.475 34.0819C220.421 33.9281 220.34 33.8221 220.232 33.764C220.128 33.7016 219.993 33.6705 219.827 33.6705C219.673 33.6705 219.538 33.7141 219.422 33.8014C219.309 33.8886 219.216 34.0112 219.141 34.1691C219.066 34.3229 219.012 34.5057 218.979 34.7177C218.95 34.9254 218.935 35.1519 218.935 35.3971Z" fill="white"/>
<defs>
<linearGradient id="paint0_linear_3070_49577" x1="11.02" y1="6.64" x2="11.02" y2="35.8101" gradientUnits="userSpaceOnUse">
<stop offset="0.00283151" stop-color="#00D1E0"/>
<stop offset="1" stop-color="#8C55FF"/>
</linearGradient>
</defs>
</svg>
