<svg width="272" height="42" viewBox="0 0 272 42" fill="none" xmlns="http://www.w3.org/2000/svg">
<path d="M37.3774 10.7127V6.59473H24.3203V10.7127H28.6392V36.0235H32.9581V10.7127H37.3774Z" fill="#534988"/>
<path d="M53.7937 36.0235V6.59473H49.4748V31.9055H44.5533V6.59473H40.2344V36.0235H53.7937Z" fill="#534988"/>
<path d="M69.729 10.7127V6.59473H56.6719V10.7127H60.9908V36.0235H65.3097V10.7127H69.729Z" fill="#534988"/>
<path d="M86.2625 36.0235V6.59473H72.7031V36.0235H86.2625ZM81.9436 31.9055H77.022V10.7127H81.9436V31.9055Z" fill="#534988"/>
<path d="M104.872 36.0235L101.959 28.3901H104.169V6.59473H90.6094V36.0235H94.9283V28.3901H97.4393L100.151 36.0235H104.872ZM99.8498 24.2721H94.9283V10.6123H99.8498C99.8498 10.7127 99.8498 24.2721 99.8498 24.2721Z" fill="#534988"/>
<path d="M117.591 31.0015V36.0235H122.311V31.0015H125.525V26.6826H122.311V18.7479H117.591V26.6826H112.267L122.211 6.59473H116.988L110.158 20.1541C107.145 26.08 106.844 26.7831 106.844 28.1892C106.844 31.0015 109.656 31.0015 112.067 31.0015C111.966 31.0015 117.591 31.0015 117.591 31.0015Z" fill="#534988"/>
<path d="M145.947 36.0235V6.59473H141.629L137.31 17.3417L132.991 6.59473H128.672V36.0235H132.991V17.8439L137.31 28.3901L141.629 17.8439V36.1239C141.629 36.0235 145.947 36.0235 145.947 36.0235Z" fill="#534988"/>
<path d="M161.075 36.0219V31.9039H154.647V22.2617H160.975V18.1437H154.647V10.6107H161.075V6.49268H150.328V35.9214L161.075 36.0219Z" fill="#534988"/>
<path d="M22.1971 19.3852C22.1971 15.0663 21.3936 12.254 19.4853 10.1448C17.4765 7.83467 14.5637 6.62939 11.0483 6.62939C7.73384 6.62939 5.02197 7.73423 3.01318 9.84345C0.903955 12.0531 0 14.765 0 18.883V23.4028C0 27.9226 1.0044 30.8353 3.31451 32.9445C5.42373 34.8529 8.1356 35.8573 11.1488 35.8573C14.4633 35.8573 17.0747 34.7524 19.4853 32.5428L15.9699 28.3243C14.865 29.3287 13.3584 30.2327 11.2492 30.2327C8.1356 30.2327 6.32769 28.3243 6.22725 24.9094H22.1971V19.3852ZM6.12681 19.2848C6.12681 16.2716 6.72944 12.3544 11.0483 12.3544C15.3672 12.3544 15.9699 16.372 15.9699 19.2848H6.12681Z" fill="url(#paint0_linear_3070_49997)"/>
<path d="M177.273 2.00879V40.5775" stroke="#534988" stroke-width="2.00879" stroke-miterlimit="10"/>
<path d="M199.876 19.1792C199.876 18.8703 199.847 18.5949 199.789 18.3528C199.73 18.1024 199.618 17.8728 199.451 17.6641C199.284 17.4471 199.033 17.23 198.699 17.013C198.366 16.7959 197.927 16.5706 197.385 16.3368C196.717 16.0613 196.066 15.7608 195.431 15.4353C194.805 15.1014 194.242 14.7174 193.741 14.2833C193.24 13.8409 192.839 13.3233 192.539 12.7306C192.238 12.1296 192.088 11.4284 192.088 10.627C192.088 9.85066 192.234 9.14945 192.526 8.52337C192.819 7.88895 193.228 7.35052 193.753 6.90809C194.279 6.45732 194.901 6.11506 195.619 5.88133C196.337 5.63924 197.126 5.5182 197.986 5.5182C199.146 5.5182 200.16 5.75611 201.028 6.23193C201.897 6.6994 202.573 7.35887 203.057 8.21033C203.541 9.05345 203.783 10.0385 203.783 11.1654H199.826C199.826 10.6729 199.76 10.243 199.626 9.8757C199.492 9.50005 199.284 9.20788 199 8.99919C198.725 8.78215 198.361 8.67363 197.911 8.67363C197.493 8.67363 197.147 8.76128 196.871 8.93658C196.596 9.11188 196.391 9.34979 196.258 9.65031C196.124 9.95083 196.057 10.2847 196.057 10.652C196.057 10.9442 196.124 11.203 196.258 11.4284C196.4 11.6538 196.587 11.8625 196.821 12.0544C197.063 12.2464 197.347 12.4301 197.673 12.6054C198.007 12.7807 198.366 12.9477 198.75 13.1063C199.568 13.4318 200.294 13.7866 200.928 14.1706C201.571 14.5546 202.105 14.9887 202.531 15.4728C202.965 15.9486 203.291 16.4912 203.508 17.1006C203.733 17.7017 203.846 18.3862 203.846 19.1542C203.846 19.9388 203.712 20.6484 203.445 21.2828C203.178 21.9089 202.794 22.4432 202.293 22.8856C201.801 23.328 201.2 23.6661 200.49 23.8998C199.78 24.1336 198.987 24.2504 198.111 24.2504C197.285 24.2504 196.487 24.1336 195.719 23.8998C194.951 23.6577 194.267 23.2904 193.666 22.7979C193.073 22.3054 192.601 21.6752 192.251 20.9072C191.9 20.1392 191.725 19.2251 191.725 18.165H195.707C195.707 18.7076 195.753 19.1709 195.845 19.5549C195.945 19.9305 196.095 20.231 196.295 20.4564C196.504 20.6818 196.759 20.8487 197.059 20.9573C197.368 21.0574 197.735 21.1075 198.161 21.1075C198.595 21.1075 198.937 21.0199 199.188 20.8446C199.438 20.6693 199.614 20.4397 199.714 20.1559C199.822 19.8637 199.876 19.5382 199.876 19.1792ZM212.173 10.4517V13.244H205.123V10.4517H212.173ZM206.576 7.09592H210.382V19.7176C210.382 20.0849 210.411 20.3688 210.47 20.5691C210.536 20.7694 210.649 20.9114 210.808 20.9948C210.966 21.07 211.179 21.1075 211.446 21.1075C211.638 21.1075 211.801 21.0992 211.935 21.0825C212.077 21.0658 212.194 21.0449 212.285 21.0199L212.26 23.8998C211.968 24.0083 211.655 24.0918 211.321 24.1503C210.996 24.217 210.628 24.2504 210.219 24.2504C209.46 24.2504 208.809 24.1127 208.266 23.8372C207.732 23.5617 207.314 23.1235 207.014 22.5225C206.722 21.9214 206.576 21.1367 206.576 20.1684V7.09592ZM220.449 20.7319V10.4517H224.268V24H220.7L220.449 20.7319ZM220.85 17.9521L221.839 17.9271C221.839 18.837 221.747 19.6801 221.564 20.4564C221.389 21.2244 221.126 21.8922 220.775 22.4599C220.424 23.0275 219.99 23.4699 219.473 23.7871C218.955 24.096 218.354 24.2504 217.67 24.2504C217.11 24.2504 216.597 24.1586 216.129 23.975C215.67 23.783 215.27 23.4866 214.927 23.0859C214.593 22.6769 214.335 22.1552 214.151 21.5207C213.967 20.878 213.876 20.11 213.876 19.2168V10.4517H217.682V19.2418C217.682 19.5757 217.707 19.8637 217.757 20.1058C217.816 20.3395 217.895 20.5357 217.995 20.6943C218.104 20.8529 218.233 20.9698 218.383 21.0449C218.534 21.1117 218.705 21.1451 218.897 21.1451C219.398 21.1451 219.79 21.0074 220.074 20.7319C220.358 20.4481 220.558 20.0682 220.675 19.5924C220.792 19.1083 220.85 18.5615 220.85 17.9521ZM233.071 20.9573V4.76691H236.89V24L233.459 24.0125L233.071 20.9573ZM226.172 17.7893V16.725C226.172 15.6147 226.264 14.6506 226.447 13.8325C226.639 13.0144 226.919 12.3383 227.286 11.804C227.662 11.2614 228.125 10.8607 228.676 10.6019C229.235 10.3348 229.874 10.2013 230.592 10.2013C231.226 10.2013 231.773 10.3682 232.232 10.7021C232.7 11.0277 233.096 11.4868 233.422 12.0795C233.747 12.6722 234.01 13.3692 234.211 14.1706C234.419 14.972 234.57 15.8401 234.661 16.7751V17.8644C234.553 18.741 234.398 19.5674 234.198 20.3437C233.998 21.1117 233.735 21.792 233.409 22.3847C233.084 22.9691 232.687 23.4282 232.22 23.7621C231.752 24.0877 231.205 24.2504 230.579 24.2504C229.861 24.2504 229.227 24.1127 228.676 23.8372C228.125 23.5617 227.662 23.1527 227.286 22.6101C226.919 22.0675 226.639 21.3955 226.447 20.5941C226.264 19.7844 226.172 18.8495 226.172 17.7893ZM229.978 16.725V17.7893C229.978 18.3987 230.003 18.9163 230.053 19.342C230.103 19.7677 230.191 20.1141 230.316 20.3813C230.442 20.6484 230.609 20.8446 230.817 20.9698C231.034 21.0867 231.306 21.1451 231.631 21.1451C232.057 21.1451 232.403 21.0282 232.67 20.7945C232.946 20.5524 233.146 20.2185 233.271 19.7928C233.397 19.367 233.455 18.8662 233.447 18.2902V16.3368C233.455 15.8526 233.418 15.4227 233.334 15.0471C233.259 14.6631 233.146 14.3417 232.996 14.0829C232.846 13.8242 232.658 13.628 232.433 13.4944C232.207 13.3609 231.944 13.2941 231.644 13.2941C231.335 13.2941 231.072 13.3567 230.855 13.4819C230.638 13.6071 230.467 13.8075 230.341 14.0829C230.216 14.3501 230.124 14.7007 230.066 15.1347C230.007 15.5688 229.978 16.0989 229.978 16.725ZM244.929 24.2504C243.986 24.2504 243.147 24.1127 242.412 23.8372C241.678 23.5617 241.06 23.1611 240.559 22.6352C240.058 22.1009 239.678 21.454 239.42 20.6943C239.161 19.9263 239.031 19.054 239.031 18.0773V16.8001C239.031 15.7066 239.148 14.7508 239.382 13.9327C239.624 13.1063 239.975 12.4176 240.434 11.8666C240.893 11.3157 241.469 10.9025 242.162 10.627C242.855 10.3432 243.652 10.2013 244.553 10.2013C245.396 10.2013 246.144 10.3348 246.795 10.6019C247.446 10.8691 247.993 11.2739 248.435 11.8165C248.877 12.3508 249.211 13.027 249.437 13.845C249.67 14.6548 249.787 15.6022 249.787 16.6874V18.478H240.546V15.9111H246.056V15.5354C246.056 14.9845 246.002 14.5462 245.893 14.2207C245.785 13.8951 245.618 13.6614 245.392 13.5195C245.167 13.3692 244.879 13.2941 244.528 13.2941C244.178 13.2941 243.89 13.3609 243.664 13.4944C243.447 13.6196 243.28 13.82 243.163 14.0955C243.047 14.3709 242.963 14.7341 242.913 15.1848C242.871 15.6356 242.85 16.174 242.85 16.8001V18.0773C242.85 18.6867 242.901 19.1917 243.001 19.5924C243.101 19.9848 243.251 20.2978 243.451 20.5315C243.652 20.7569 243.894 20.9197 244.178 21.0199C244.47 21.1117 244.808 21.1576 245.192 21.1576C245.751 21.1576 246.273 21.0616 246.757 20.8696C247.25 20.6693 247.667 20.3771 248.009 19.9931L249.549 22.3346C249.307 22.6352 248.969 22.9357 248.535 23.2362C248.109 23.5367 247.592 23.783 246.983 23.975C246.382 24.1586 245.697 24.2504 244.929 24.2504ZM255.397 13.3442V24H251.578V10.4517H255.159L255.397 13.3442ZM254.896 16.7625L253.957 16.7876C253.949 15.7608 254.045 14.8426 254.245 14.0329C254.454 13.2231 254.754 12.5344 255.147 11.9668C255.539 11.3908 256.011 10.9526 256.562 10.652C257.112 10.3515 257.726 10.2013 258.402 10.2013C258.92 10.2013 259.396 10.2931 259.83 10.4767C260.272 10.6604 260.652 10.9567 260.969 11.3658C261.286 11.7665 261.533 12.3007 261.708 12.9685C261.883 13.6363 261.971 14.4586 261.971 15.4353V24H258.152V15.4102C258.152 14.8509 258.097 14.421 257.989 14.1205C257.88 13.8116 257.718 13.5988 257.501 13.4819C257.292 13.3567 257.021 13.2941 256.687 13.2941C256.378 13.2941 256.107 13.3817 255.873 13.557C255.647 13.7323 255.46 13.9786 255.309 14.2958C255.159 14.6047 255.051 14.972 254.984 15.3977C254.925 15.8151 254.896 16.27 254.896 16.7625ZM270.498 10.4517V13.244H263.448V10.4517H270.498ZM264.901 7.09592H268.707V19.7176C268.707 20.0849 268.737 20.3688 268.795 20.5691C268.862 20.7694 268.975 20.9114 269.133 20.9948C269.292 21.07 269.505 21.1075 269.772 21.1075C269.964 21.1075 270.127 21.0992 270.26 21.0825C270.402 21.0658 270.519 21.0449 270.611 21.0199L270.586 23.8998C270.293 24.0083 269.98 24.0918 269.647 24.1503C269.321 24.217 268.954 24.2504 268.545 24.2504C267.785 24.2504 267.134 24.1127 266.591 23.8372C266.057 23.5617 265.64 23.1235 265.339 22.5225C265.047 21.9214 264.901 21.1367 264.901 20.1684V7.09592Z" fill="#00DAE5"/>
<path d="M194.887 31.6561L193.059 39H190.936L193.772 29.8843H195.093L194.887 31.6561ZM196.327 39L194.492 31.6561L194.254 29.8843H195.6L198.449 39H196.327ZM196.396 35.6004V37.2094H192.357V35.6004H196.396ZM202.375 37.4786V29.3835H204.284V39L202.569 39.0063L202.375 37.4786ZM198.925 35.8947V35.3625C198.925 34.8074 198.971 34.3253 199.063 33.9163C199.159 33.5072 199.298 33.1691 199.482 32.902C199.67 32.6307 199.902 32.4304 200.177 32.301C200.457 32.1674 200.776 32.1006 201.135 32.1006C201.452 32.1006 201.726 32.1841 201.955 32.3511C202.189 32.5138 202.387 32.7434 202.55 33.0397C202.713 33.3361 202.844 33.6846 202.944 34.0853C203.049 34.486 203.124 34.9201 203.17 35.3875V35.9322C203.115 36.3705 203.038 36.7837 202.938 37.1719C202.838 37.5558 202.706 37.896 202.544 38.1924C202.381 38.4845 202.183 38.7141 201.949 38.881C201.715 39.0438 201.442 39.1252 201.129 39.1252C200.77 39.1252 200.452 39.0563 200.177 38.9186C199.902 38.7809 199.67 38.5764 199.482 38.3051C199.298 38.0338 199.159 37.6978 199.063 37.2971C198.971 36.8922 198.925 36.4247 198.925 35.8947ZM200.828 35.3625V35.8947C200.828 36.1993 200.841 36.4581 200.866 36.671C200.891 36.8839 200.935 37.0571 200.997 37.1906C201.06 37.3242 201.143 37.4223 201.248 37.4849C201.356 37.5433 201.492 37.5725 201.655 37.5725C201.867 37.5725 202.041 37.5141 202.174 37.3972C202.312 37.2762 202.412 37.1092 202.475 36.8964C202.537 36.6835 202.567 36.4331 202.562 36.1451V35.1684C202.567 34.9263 202.548 34.7114 202.506 34.5235C202.468 34.3316 202.412 34.1709 202.337 34.0415C202.262 33.9121 202.168 33.814 202.055 33.7472C201.943 33.6804 201.811 33.647 201.661 33.647C201.506 33.647 201.375 33.6783 201.266 33.741C201.158 33.8036 201.072 33.9037 201.01 34.0415C200.947 34.175 200.901 34.3503 200.872 34.5674C200.843 34.7844 200.828 35.0495 200.828 35.3625ZM207.421 33.647V39H205.517V32.2258H207.302L207.421 33.647ZM207.177 35.3813L206.701 35.3938C206.692 34.918 206.734 34.4797 206.826 34.079C206.918 33.6783 207.056 33.3298 207.239 33.0335C207.427 32.7371 207.661 32.5076 207.94 32.3448C208.224 32.182 208.552 32.1006 208.923 32.1006C209.165 32.1006 209.389 32.1465 209.593 32.2384C209.798 32.326 209.973 32.4658 210.119 32.6578C210.269 32.8457 210.384 33.0919 210.463 33.3966C210.547 33.6971 210.589 34.0582 210.589 34.4797V39H208.685V34.7239C208.685 34.4275 208.66 34.2042 208.61 34.054C208.564 33.8996 208.495 33.7931 208.404 33.7347C208.312 33.6763 208.195 33.647 208.053 33.647C207.915 33.647 207.79 33.6909 207.677 33.7785C207.565 33.8662 207.471 33.9893 207.396 34.1479C207.321 34.3023 207.264 34.486 207.227 34.6988C207.189 34.9075 207.172 35.135 207.177 35.3813ZM210.388 35.2936L209.8 35.3437C209.787 34.8804 209.823 34.4526 209.906 34.0603C209.994 33.6637 210.127 33.3194 210.307 33.0272C210.491 32.7351 210.718 32.5076 210.989 32.3448C211.265 32.182 211.588 32.1006 211.96 32.1006C212.227 32.1006 212.469 32.1465 212.686 32.2384C212.907 32.3302 213.097 32.4784 213.256 32.6829C213.414 32.8832 213.537 33.1504 213.625 33.4843C213.713 33.8182 213.757 34.2272 213.757 34.7114V39H211.847V34.7114C211.847 34.4192 211.822 34.198 211.772 34.0477C211.726 33.8933 211.657 33.789 211.565 33.7347C211.474 33.6763 211.361 33.647 211.227 33.647C211.081 33.647 210.956 33.6888 210.852 33.7723C210.751 33.8557 210.666 33.9726 210.595 34.1229C210.524 34.2731 210.472 34.4484 210.438 34.6488C210.405 34.8449 210.388 35.0599 210.388 35.2936ZM216.987 32.2258V39H215.078V32.2258H216.987ZM214.99 30.4728C214.99 30.189 215.084 29.9553 215.272 29.7716C215.464 29.5838 215.716 29.4899 216.029 29.4899C216.342 29.4899 216.593 29.5838 216.781 29.7716C216.968 29.9553 217.062 30.189 217.062 30.4728C217.062 30.7608 216.968 30.9966 216.781 31.1803C216.593 31.3639 216.342 31.4558 216.029 31.4558C215.716 31.4558 215.464 31.3639 215.272 31.1803C215.084 30.9966 214.99 30.7608 214.99 30.4728ZM220.149 33.6721V39H218.239V32.2258H220.03L220.149 33.6721ZM219.898 35.3813L219.429 35.3938C219.425 34.8804 219.473 34.4213 219.573 34.0164C219.677 33.6116 219.827 33.2672 220.024 32.9834C220.22 32.6954 220.456 32.4763 220.731 32.326C221.007 32.1758 221.313 32.1006 221.651 32.1006C221.91 32.1006 222.148 32.1465 222.365 32.2384C222.586 32.3302 222.776 32.4784 222.935 32.6829C223.094 32.8832 223.217 33.1504 223.304 33.4843C223.392 33.8182 223.436 34.2293 223.436 34.7176V39H221.526V34.7051C221.526 34.4255 221.499 34.2105 221.445 34.0603C221.391 33.9058 221.309 33.7994 221.201 33.741C221.096 33.6783 220.961 33.647 220.794 33.647C220.639 33.647 220.504 33.6909 220.387 33.7785C220.274 33.8662 220.18 33.9893 220.105 34.1479C220.03 34.3023 219.976 34.486 219.942 34.6988C219.913 34.9075 219.898 35.135 219.898 35.3813Z" fill="#534988"/>
<defs>
<linearGradient id="paint0_linear_3070_49997" x1="11.0684" y1="6.66947" x2="11.0684" y2="35.9678" gradientUnits="userSpaceOnUse">
<stop offset="0.00283151" stop-color="#00D1E0"/>
<stop offset="1" stop-color="#8C55FF"/>
</linearGradient>
</defs>
</svg>
