<svg width="284" height="39" viewBox="0 0 284 39" fill="none" xmlns="http://www.w3.org/2000/svg">
<path d="M37.2266 8.6664V4.56641H24.2266V8.6664H28.5266V33.8664H32.8266V8.6664H37.2266Z" fill="#534988"/>
<path d="M53.5703 33.8664V4.56641H49.2703V29.7664H44.3703V4.56641H40.0703V33.8664H53.5703Z" fill="#534988"/>
<path d="M69.4297 8.6664V4.56641H56.4297V8.6664H60.7297V33.8664H65.0297V8.6664H69.4297Z" fill="#534988"/>
<path d="M85.875 33.8664V4.56641H72.375V33.8664H85.875ZM81.575 29.7664H76.675V8.6664H81.575V29.7664Z" fill="#534988"/>
<path d="M104.427 33.8664L101.527 26.2664H103.727V4.56641H90.2266V33.8664H94.5266V26.2664H97.0266L99.7266 33.8664H104.427ZM99.4266 22.1664H94.5266V8.56641H99.4266C99.4266 8.66641 99.4266 22.1664 99.4266 22.1664Z" fill="#534988"/>
<path d="M117.083 28.8664V33.8664H121.783V28.8664H124.983V24.5664H121.783V16.6664H117.083V24.5664H111.783L121.683 4.56641H116.483L109.683 18.0664C106.683 23.9664 106.383 24.6664 106.383 26.0664C106.383 28.8664 109.183 28.8664 111.583 28.8664C111.483 28.8664 117.083 28.8664 117.083 28.8664Z" fill="#534988"/>
<path d="M145.309 33.8664V4.56641H141.009L136.709 15.2664L132.409 4.56641H128.109V33.8664H132.409V15.7664L136.709 26.2664L141.009 15.7664V33.9664C141.009 33.8664 145.309 33.8664 145.309 33.8664Z" fill="#534988"/>
<path d="M160.395 33.8648V29.7648H153.995V20.1648H160.295V16.0648H153.995V8.56485H160.395V4.46484H149.695V33.7648L160.395 33.8648Z" fill="#534988"/>
<path d="M22.1 17.3016C22.1 13.0016 21.3 10.2016 19.4 8.10156C17.4 5.80156 14.5 4.60156 11 4.60156C7.7 4.60156 5 5.70156 3 7.80156C0.9 10.0016 0 12.7016 0 16.8016V21.3016C0 25.8016 1 28.7016 3.3 30.8016C5.4 32.7016 8.1 33.7016 11.1 33.7016C14.4 33.7016 17 32.6016 19.4 30.4016L15.9 26.2016C14.8 27.2016 13.3 28.1016 11.2 28.1016C8.1 28.1016 6.3 26.2016 6.2 22.8016H22.1V17.3016ZM6.1 17.2016C6.1 14.2016 6.7 10.3016 11 10.3016C15.3 10.3016 15.9 14.3016 15.9 17.2016H6.1Z" fill="url(#paint0_linear_2271_27823)"/>
<path d="M176.5 0V38.4" stroke="#534988" stroke-width="2" stroke-miterlimit="10"/>
<path d="M200.576 24.3604C200.576 23.999 200.542 23.6768 200.474 23.3936C200.405 23.1006 200.273 22.832 200.078 22.5879C199.883 22.334 199.59 22.0801 199.199 21.8262C198.809 21.5723 198.296 21.3086 197.661 21.0352C196.88 20.7129 196.118 20.3613 195.376 19.9805C194.644 19.5898 193.984 19.1406 193.398 18.6328C192.812 18.1152 192.344 17.5098 191.992 16.8164C191.641 16.1133 191.465 15.293 191.465 14.3555C191.465 13.4473 191.636 12.627 191.978 11.8945C192.319 11.1523 192.798 10.5225 193.413 10.0049C194.028 9.47754 194.756 9.07715 195.596 8.80371C196.436 8.52051 197.358 8.37891 198.364 8.37891C199.722 8.37891 200.908 8.65723 201.924 9.21387C202.939 9.76074 203.73 10.5322 204.297 11.5283C204.863 12.5146 205.146 13.667 205.146 14.9854H200.518C200.518 14.4092 200.439 13.9062 200.283 13.4766C200.127 13.0371 199.883 12.6953 199.551 12.4512C199.229 12.1973 198.804 12.0703 198.276 12.0703C197.788 12.0703 197.383 12.1729 197.061 12.3779C196.738 12.583 196.499 12.8613 196.343 13.2129C196.187 13.5645 196.108 13.9551 196.108 14.3848C196.108 14.7266 196.187 15.0293 196.343 15.293C196.509 15.5566 196.729 15.8008 197.002 16.0254C197.285 16.25 197.617 16.4648 197.998 16.6699C198.389 16.875 198.809 17.0703 199.258 17.2559C200.215 17.6367 201.064 18.0518 201.807 18.501C202.559 18.9502 203.184 19.458 203.682 20.0244C204.189 20.5811 204.57 21.2158 204.824 21.9287C205.088 22.6318 205.22 23.4326 205.22 24.3311C205.22 25.249 205.063 26.0791 204.751 26.8213C204.438 27.5537 203.989 28.1787 203.403 28.6963C202.827 29.2139 202.124 29.6094 201.294 29.8828C200.464 30.1562 199.536 30.293 198.511 30.293C197.544 30.293 196.611 30.1562 195.713 29.8828C194.814 29.5996 194.014 29.1699 193.311 28.5938C192.617 28.0176 192.065 27.2803 191.655 26.3818C191.245 25.4834 191.04 24.4141 191.04 23.1738H195.698C195.698 23.8086 195.752 24.3506 195.859 24.7998C195.977 25.2393 196.152 25.5908 196.387 25.8545C196.631 26.1182 196.929 26.3135 197.28 26.4404C197.642 26.5576 198.071 26.6162 198.569 26.6162C199.077 26.6162 199.478 26.5137 199.771 26.3086C200.063 26.1035 200.269 25.835 200.386 25.5029C200.513 25.1611 200.576 24.7803 200.576 24.3604ZM214.961 14.1504V17.417H206.714V14.1504H214.961ZM208.413 10.2246H212.866V24.9902C212.866 25.4199 212.9 25.752 212.969 25.9863C213.047 26.2207 213.179 26.3867 213.364 26.4844C213.55 26.5723 213.799 26.6162 214.111 26.6162C214.336 26.6162 214.526 26.6064 214.683 26.5869C214.849 26.5674 214.985 26.543 215.093 26.5137L215.063 29.8828C214.722 30.0098 214.355 30.1074 213.965 30.1758C213.584 30.2539 213.154 30.293 212.676 30.293C211.787 30.293 211.025 30.1318 210.391 29.8096C209.766 29.4873 209.277 28.9746 208.926 28.2715C208.584 27.5684 208.413 26.6504 208.413 25.5176V10.2246ZM224.644 26.1768V14.1504H229.111V30H224.937L224.644 26.1768ZM225.112 22.9248L226.27 22.8955C226.27 23.96 226.162 24.9463 225.947 25.8545C225.742 26.7529 225.435 27.5342 225.024 28.1982C224.614 28.8623 224.106 29.3799 223.501 29.751C222.896 30.1123 222.192 30.293 221.392 30.293C220.737 30.293 220.137 30.1855 219.59 29.9707C219.053 29.7461 218.584 29.3994 218.184 28.9307C217.793 28.4521 217.49 27.8418 217.275 27.0996C217.061 26.3477 216.953 25.4492 216.953 24.4043V14.1504H221.406V24.4336C221.406 24.8242 221.436 25.1611 221.494 25.4443C221.562 25.7178 221.655 25.9473 221.772 26.1328C221.899 26.3184 222.051 26.4551 222.227 26.543C222.402 26.6211 222.603 26.6602 222.827 26.6602C223.413 26.6602 223.872 26.499 224.204 26.1768C224.536 25.8447 224.771 25.4004 224.907 24.8438C225.044 24.2773 225.112 23.6377 225.112 22.9248ZM239.409 26.4404V7.5H243.877V30L239.863 30.0146L239.409 26.4404ZM231.338 22.7344V21.4893C231.338 20.1904 231.445 19.0625 231.66 18.1055C231.885 17.1484 232.212 16.3574 232.642 15.7324C233.081 15.0977 233.623 14.6289 234.268 14.3262C234.922 14.0137 235.669 13.8574 236.509 13.8574C237.251 13.8574 237.891 14.0527 238.428 14.4434C238.975 14.8242 239.438 15.3613 239.819 16.0547C240.2 16.748 240.508 17.5635 240.742 18.501C240.986 19.4385 241.162 20.4541 241.27 21.5479V22.8223C241.143 23.8477 240.962 24.8145 240.728 25.7227C240.493 26.6211 240.186 27.417 239.805 28.1104C239.424 28.7939 238.96 29.3311 238.413 29.7217C237.866 30.1025 237.227 30.293 236.494 30.293C235.654 30.293 234.912 30.1318 234.268 29.8096C233.623 29.4873 233.081 29.0088 232.642 28.374C232.212 27.7393 231.885 26.9531 231.66 26.0156C231.445 25.0684 231.338 23.9746 231.338 22.7344ZM235.791 21.4893V22.7344C235.791 23.4473 235.82 24.0527 235.879 24.5508C235.938 25.0488 236.04 25.4541 236.187 25.7666C236.333 26.0791 236.528 26.3086 236.772 26.4551C237.026 26.5918 237.344 26.6602 237.725 26.6602C238.223 26.6602 238.628 26.5234 238.94 26.25C239.263 25.9668 239.497 25.5762 239.644 25.0781C239.79 24.5801 239.858 23.9941 239.849 23.3203V21.0352C239.858 20.4688 239.814 19.9658 239.717 19.5264C239.629 19.0771 239.497 18.7012 239.321 18.3984C239.146 18.0957 238.926 17.8662 238.662 17.71C238.398 17.5537 238.091 17.4756 237.739 17.4756C237.378 17.4756 237.07 17.5488 236.816 17.6953C236.562 17.8418 236.362 18.0762 236.216 18.3984C236.069 18.7109 235.962 19.1211 235.894 19.6289C235.825 20.1367 235.791 20.7568 235.791 21.4893ZM253.281 30.293C252.178 30.293 251.196 30.1318 250.337 29.8096C249.478 29.4873 248.755 29.0186 248.169 28.4033C247.583 27.7783 247.139 27.0215 246.836 26.1328C246.533 25.2344 246.382 24.2139 246.382 23.0713V21.5771C246.382 20.2979 246.519 19.1797 246.792 18.2227C247.075 17.2559 247.485 16.4502 248.022 15.8057C248.56 15.1611 249.233 14.6777 250.044 14.3555C250.854 14.0234 251.787 13.8574 252.842 13.8574C253.828 13.8574 254.702 14.0137 255.464 14.3262C256.226 14.6387 256.865 15.1123 257.383 15.7471C257.9 16.3721 258.291 17.1631 258.555 18.1201C258.828 19.0674 258.965 20.1758 258.965 21.4453V23.54H248.154V20.5371H254.6V20.0977C254.6 19.4531 254.536 18.9404 254.409 18.5596C254.282 18.1787 254.087 17.9053 253.823 17.7393C253.56 17.5635 253.223 17.4756 252.812 17.4756C252.402 17.4756 252.065 17.5537 251.802 17.71C251.548 17.8564 251.353 18.0908 251.216 18.4131C251.079 18.7354 250.981 19.1602 250.923 19.6875C250.874 20.2148 250.85 20.8447 250.85 21.5771V23.0713C250.85 23.7842 250.908 24.375 251.025 24.8438C251.143 25.3027 251.318 25.6689 251.553 25.9424C251.787 26.2061 252.07 26.3965 252.402 26.5137C252.744 26.6211 253.14 26.6748 253.589 26.6748C254.243 26.6748 254.854 26.5625 255.42 26.3379C255.996 26.1035 256.484 25.7617 256.885 25.3125L258.687 28.0518C258.403 28.4033 258.008 28.7549 257.5 29.1064C257.002 29.458 256.396 29.7461 255.684 29.9707C254.98 30.1855 254.18 30.293 253.281 30.293ZM265.527 17.5342V30H261.06V14.1504H265.249L265.527 17.5342ZM264.941 21.5332L263.843 21.5625C263.833 20.3613 263.945 19.2871 264.18 18.3398C264.424 17.3926 264.775 16.5869 265.234 15.9229C265.693 15.249 266.245 14.7363 266.89 14.3848C267.534 14.0332 268.252 13.8574 269.043 13.8574C269.648 13.8574 270.205 13.9648 270.713 14.1797C271.23 14.3945 271.675 14.7412 272.046 15.2197C272.417 15.6885 272.705 16.3135 272.91 17.0947C273.115 17.876 273.218 18.8379 273.218 19.9805V30H268.75V19.9512C268.75 19.2969 268.687 18.7939 268.56 18.4424C268.433 18.0811 268.242 17.832 267.988 17.6953C267.744 17.5488 267.427 17.4756 267.036 17.4756C266.675 17.4756 266.357 17.5781 266.084 17.7832C265.82 17.9883 265.601 18.2764 265.425 18.6475C265.249 19.0088 265.122 19.4385 265.044 19.9365C264.976 20.4248 264.941 20.957 264.941 21.5332ZM283.193 14.1504V17.417H274.946V14.1504H283.193ZM276.646 10.2246H281.099V24.9902C281.099 25.4199 281.133 25.752 281.201 25.9863C281.279 26.2207 281.411 26.3867 281.597 26.4844C281.782 26.5723 282.031 26.6162 282.344 26.6162C282.568 26.6162 282.759 26.6064 282.915 26.5869C283.081 26.5674 283.218 26.543 283.325 26.5137L283.296 29.8828C282.954 30.0098 282.588 30.1074 282.197 30.1758C281.816 30.2539 281.387 30.293 280.908 30.293C280.02 30.293 279.258 30.1318 278.623 29.8096C277.998 29.4873 277.51 28.9746 277.158 28.2715C276.816 27.5684 276.646 26.6504 276.646 25.5176V10.2246Z" fill="#00DAE5"/>
<defs>
<linearGradient id="paint0_linear_2271_27823" x1="11.02" y1="4.64146" x2="11.02" y2="33.8116" gradientUnits="userSpaceOnUse">
<stop offset="0.00283151" stop-color="#00D1E0"/>
<stop offset="1" stop-color="#8C55FF"/>
</linearGradient>
</defs>
</svg>
