<svg width="26" height="26" viewBox="0 0 26 26" fill="none" xmlns="http://www.w3.org/2000/svg">
<path d="M9 0C9.45 0 9.89 0 10.34 0C10.4 0.01 10.47 0.0300391 10.53 0.0400391C11.01 0.120039 11.5 0.160029 11.97 0.280029C17.93 1.74003 21.03 8.28002 18.41 13.83C16.03 18.86 9.8 20.85 4.97 18.11C4.82 18.02 4.69 18.02 4.53 18.06C3.13 18.45 1.74 18.84 0.34 19.22C0.25 19.24 0.159999 19.26 0.039999 19.29C0.459999 17.77 0.870001 16.29 1.28 14.82C1.33 14.65 1.31 14.51 1.22 14.36C0.759999 13.55 0.43 12.7 0.24 11.79C0.14 11.31 0.08 10.82 0 10.33C0 9.88002 0 9.43999 0 8.98999C0.05 8.65999 0.0899996 8.31999 0.15 7.98999C0.76 4.23999 3.78 1.04004 7.51 0.230042C7.99 0.140042 8.5 0.08 9 0ZM10.41 11.91C10.41 11.58 10.4 11.27 10.42 10.97C10.43 10.85 10.49 10.72 10.57 10.64C10.97 10.26 11.39 9.90001 11.78 9.51001C12.89 8.39001 12.93 6.61999 11.87 5.42999C10.84 4.27999 9.06 4.12003 7.85 5.09003C7.11 5.68003 6.73 6.45003 6.71 7.41003C7.21 7.41003 7.69 7.41003 8.18 7.41003C8.19 7.33003 8.2 7.27001 8.21 7.20001C8.31 6.51001 8.9 5.97 9.6 5.94C10.21 5.91 10.78 6.26 11.03 6.81C11.28 7.37 11.17 8.03003 10.71 8.47003C10.18 8.98003 9.63 9.46002 9.09 9.96002C9.03 10.02 8.94 10.1 8.94 10.17C8.93 10.74 8.93 11.32 8.93 11.9C9.43 11.91 9.91 11.91 10.41 11.91ZM10.4 13.43C9.9 13.43 9.42 13.43 8.94 13.43C8.94 13.92 8.94 14.4 8.94 14.88C9.43 14.88 9.91 14.88 10.4 14.88C10.4 14.39 10.4 13.92 10.4 13.43Z" fill="#685AAD"/>
<path d="M25.3804 17.7617C25.3504 17.8217 25.3004 17.8817 25.2904 17.9417C25.1804 19.0917 24.8304 20.1617 24.2804 21.1717C24.2304 21.2717 24.2304 21.4217 24.2604 21.5417C24.5804 22.7417 24.9204 23.9417 25.2504 25.1317C25.2604 25.1717 25.2704 25.2117 25.2904 25.2917C24.8704 25.1717 24.4804 25.0717 24.0904 24.9617C23.2504 24.7317 22.4104 24.5017 21.5704 24.2617C21.3904 24.2117 21.2504 24.2317 21.0904 24.3217C17.1304 26.5017 12.1304 25.0417 9.97035 21.0717C9.93035 21.0017 9.90035 20.9317 9.86035 20.8317C12.8704 20.7317 15.4504 19.6617 17.5704 17.5417C19.6904 15.4217 20.7504 12.8417 20.8604 9.76172C21.4004 10.1417 21.9204 10.4517 22.3804 10.8317C24.0904 12.2617 25.0704 14.0917 25.3204 16.3117C25.3304 16.3817 25.3804 16.4517 25.4104 16.5217C25.3804 16.9417 25.3804 17.3517 25.3804 17.7617Z" fill="#685AAD"/>
</svg>
