<svg width="56" height="58" viewBox="0 0 56 58" fill="none" xmlns="http://www.w3.org/2000/svg">
<path d="M27.904 57.8C26.604 57.8 25.3041 57.4 24.2041 56.8L18.004 53.1C17.204 52.6 16.704 51.5 16.604 50.4L15.3041 49.8C14.2041 49.2 13.604 48 13.604 46.7V33.9L12.604 33.3C12.104 33 11.6041 32.7 11.2041 32.2H9.40404C8.60404 32.2 7.90405 31.7 7.70405 31.1L5.70405 25.6C5.50405 25.1 5.60406 24.6 5.80406 24.2C5.30406 24 5.00406 23.7 4.80406 23.2L3.00404 18.2C2.80404 17.7 2.90405 17.2 3.10405 16.8C2.60405 16.6 2.30405 16.3 2.10405 15.8L0.104048 10.3C-0.0959517 9.79999 0.00406054 9.19999 0.304061 8.79999C0.604061 8.29999 1.20406 8 1.80406 8H12.3041C12.4041 7.9 12.504 7.89999 12.604 7.79999L24.604 0.899994C25.604 0.299994 26.8041 0 28.0041 0C29.2041 0 30.3041 0.299994 31.3041 0.899994L43.3041 7.79999C43.4041 7.79999 43.5041 7.9 43.604 8H54.104C54.704 8 55.3041 8.29999 55.604 8.79999C55.904 9.29999 56.0041 9.79999 55.8041 10.3L53.8041 15.8C53.6041 16.3 53.3041 16.6 52.8041 16.8C53.0041 17.2 53.104 17.7 52.904 18.2L51.104 23.2C50.904 23.7 50.604 24 50.104 24.2C50.3041 24.6 50.404 25.1 50.204 25.6L48.204 31.1C48.004 31.8 47.2041 32.3 46.5041 32.3H44.704C44.304 32.7 43.8041 33.1 43.3041 33.4L42.3041 34V46.8C42.3041 48.1 41.604 49.3 40.604 49.9L39.3041 50.5C39.3041 51.6 38.704 52.6 37.904 53.2L31.704 56.9C30.504 57.5 29.204 57.8 27.904 57.8Z" fill="white"/>
<path d="M51.102 17H4.60198C4.10198 17 3.80197 17.4 3.90197 17.8L5.70199 22.8C5.80199 23 6.10197 23.2 6.40197 23.2H49.202C49.502 23.2 49.802 23 49.902 22.8L51.702 17.8C51.902 17.4 51.602 17 51.102 17Z" fill="#F49D3D"/>
<path d="M52.7051 15.4016L54.7051 9.90155C54.8051 9.50155 54.5051 9.10156 54.0051 9.10156H1.80511C1.30511 9.10156 1.0051 9.50155 1.1051 9.90155L3.1051 15.4016C3.2051 15.6016 3.50511 15.8015 3.80511 15.8015H52.0051C52.3051 15.8015 52.6051 15.6016 52.7051 15.4016Z" fill="#F49D3D"/>
<path d="M6.70666 25.3L8.70666 30.8C8.80666 31 9.10664 31.2 9.40664 31.2H46.4066C46.7066 31.2 47.0067 31 47.1067 30.8L49.1067 25.3C49.2067 24.9 48.9066 24.5 48.4066 24.5H7.40664C6.90664 24.5 6.60666 24.9 6.70666 25.3Z" fill="#F49D3D"/>
<path d="M39.0047 14.1992H16.9047C15.7047 14.1992 14.8047 15.1992 14.8047 16.5992V46.7992C14.8047 47.6992 15.2047 48.4992 15.9047 48.8992L23.9047 52.8992C26.4047 54.1992 29.5047 54.1992 32.0047 52.8992L40.0047 48.8992C40.7047 48.4992 41.2047 47.6992 41.2047 46.7992V16.5992C41.1047 15.1992 40.1047 14.1992 39.0047 14.1992Z" fill="#F49D3D"/>
<path d="M27.9 55.9016C26.9 55.9016 26 55.6016 25.2 55.2016L19 51.5016C18.7 51.3016 18.5 50.8015 18.5 50.3015V22.9016C18.5 22.1016 19 21.6016 19.3 21.6016H36.4C36.8 21.6016 37.2 22.1016 37.2 22.9016V50.3015C37.2 50.8015 37 51.3016 36.7 51.5016L30.6 55.1016C29.8 55.6016 28.9 55.9016 27.9 55.9016Z" fill="#FFF9EE"/>
<path d="M36.3031 22.4008C36.4031 22.5008 36.5031 22.6008 36.5031 22.9008V50.3008C36.5031 50.6008 36.4031 50.8008 36.3031 50.8008L30.2031 54.4008C29.5031 54.8008 28.7031 55.0008 27.9031 55.0008C27.1031 55.0008 26.3031 54.8008 25.6031 54.4008L19.5031 50.8008C19.5031 50.8008 19.3031 50.6008 19.3031 50.3008V22.9008C19.3031 22.6008 19.4031 22.4008 19.4031 22.4008H36.3031ZM36.4031 20.8008H19.3031C18.4031 20.8008 17.7031 21.8008 17.7031 22.9008V50.3008C17.7031 51.1008 18.0031 51.8008 18.6031 52.2008L24.8031 55.9008C25.8031 56.5008 26.8031 56.8008 27.9031 56.8008C29.0031 56.8008 30.1031 56.5008 31.0031 55.9008L37.2031 52.2008C37.7031 51.8008 38.1031 51.1008 38.1031 50.3008V22.9008C38.1031 21.7008 37.3031 20.8008 36.4031 20.8008Z" fill="#D3C8B8"/>
<path d="M51.102 17H4.60198C4.10198 17 3.80197 17.4 3.90197 17.8L5.70199 22.8C5.80199 23 6.10197 23.2 6.40197 23.2H49.202C49.502 23.2 49.802 23 49.902 22.8L51.702 17.8C51.902 17.4 51.602 17 51.102 17Z" fill="#FFC943"/>
<mask id="mask0_3196_59909" style="mask-type:luminance" maskUnits="userSpaceOnUse" x="3" y="17" width="49" height="7">
<path d="M51.102 17H4.60198C4.10198 17 3.80197 17.4 3.90197 17.8L5.70199 22.8C5.80199 23 6.10197 23.2 6.40197 23.2H49.202C49.502 23.2 49.802 23 49.902 22.8L51.702 17.8C51.902 17.4 51.602 17 51.102 17Z" fill="white"/>
</mask>
<g mask="url(#mask0_3196_59909)">
<path d="M51.102 19.8984H4.60198C4.10198 19.8984 3.80197 20.0984 3.90197 20.2984L5.70199 22.9984C5.80199 23.0984 6.10197 23.1985 6.40197 23.1985H49.202C49.502 23.1985 49.802 23.0984 49.902 22.9984L51.702 20.2984C51.902 20.0984 51.602 19.8984 51.102 19.8984Z" fill="#EFAC35"/>
</g>
<path d="M52.7051 15.4016L54.7051 9.90155C54.8051 9.50155 54.5051 9.10156 54.0051 9.10156H1.80511C1.30511 9.10156 1.0051 9.50155 1.1051 9.90155L3.1051 15.4016C3.2051 15.6016 3.50511 15.8015 3.80511 15.8015H52.0051C52.3051 15.8015 52.6051 15.6016 52.7051 15.4016Z" fill="#FFC943"/>
<mask id="mask1_3196_59909" style="mask-type:luminance" maskUnits="userSpaceOnUse" x="1" y="9" width="54" height="7">
<path d="M52.7051 15.4016L54.7051 9.90155C54.8051 9.50155 54.5051 9.10156 54.0051 9.10156H1.80511C1.30511 9.10156 1.0051 9.50155 1.1051 9.90155L3.1051 15.4016C3.2051 15.6016 3.50511 15.8015 3.80511 15.8015H52.0051C52.3051 15.8015 52.6051 15.6016 52.7051 15.4016Z" fill="white"/>
</mask>
<g mask="url(#mask1_3196_59909)">
<path d="M52.7051 15.6L54.7051 12.9C54.8051 12.7 54.5051 12.5 54.0051 12.5H1.80511C1.30511 12.5 1.0051 12.7 1.1051 12.9L3.1051 15.6C3.2051 15.7 3.50511 15.8 3.80511 15.8H52.0051C52.3051 15.8 52.6051 15.7 52.7051 15.6Z" fill="#EFAC35"/>
</g>
<path d="M6.70666 25.3L8.70666 30.8C8.80666 31 9.10664 31.2 9.40664 31.2H46.4066C46.7066 31.2 47.0067 31 47.1067 30.8L49.1067 25.3C49.2067 24.9 48.9066 24.5 48.4066 24.5H7.40664C6.90664 24.5 6.60666 24.9 6.70666 25.3Z" fill="#FFC943"/>
<mask id="mask2_3196_59909" style="mask-type:luminance" maskUnits="userSpaceOnUse" x="6" y="24" width="44" height="8">
<path d="M6.70666 25.3L8.70666 30.8C8.80666 31 9.10664 31.2 9.40664 31.2H46.4066C46.7066 31.2 47.0067 31 47.1067 30.8L49.1067 25.3C49.2067 24.9 48.9066 24.5 48.4066 24.5H7.40664C6.90664 24.5 6.60666 24.9 6.70666 25.3Z" fill="white"/>
</mask>
<g mask="url(#mask2_3196_59909)">
<path d="M6.70666 28.2008L8.70666 30.9008C8.80666 31.0008 9.10664 31.1008 9.40664 31.1008H46.4066C46.7066 31.1008 47.0067 31.0008 47.1067 30.9008L49.1067 28.2008C49.2067 28.0008 48.9066 27.8008 48.4066 27.8008H7.40664C6.90664 27.8008 6.60666 28.0008 6.70666 28.2008Z" fill="#EFAC35"/>
</g>
<path d="M45.5047 27.4984V13.5984C45.5047 11.5984 44.4047 9.79843 42.7047 8.79843L30.7047 1.89844C29.0047 0.898438 26.8047 0.898438 25.1047 1.89844L13.1047 8.79843C11.4047 9.79843 10.3047 11.5984 10.3047 13.5984V27.4984C10.3047 29.4984 11.4047 31.2984 13.1047 32.2984L25.1047 39.1985C26.8047 40.1985 29.0047 40.1985 30.7047 39.1985L42.7047 32.2984C44.4047 31.3984 45.5047 29.4984 45.5047 27.4984Z" fill="url(#paint0_linear_3196_59909)"/>
<path d="M42.6016 14.7984V26.3984C42.6016 28.0984 41.7016 29.5984 40.3016 30.3984L30.2015 36.1985C28.7015 36.9985 27.0016 36.9985 25.5016 36.1985L15.4016 30.3984C13.9016 29.5984 13.1016 27.9984 13.1016 26.3984V14.7984C13.1016 13.0984 14.0016 11.5984 15.4016 10.7984L25.5016 4.99844C27.0016 4.19844 28.7015 4.19844 30.2015 4.99844L40.3016 10.7984C41.8016 11.5984 42.6016 13.0984 42.6016 14.7984Z" fill="url(#paint1_linear_3196_59909)"/>
<path d="M41.1031 15.4V25.8C41.1031 27.3 40.3031 28.7 39.0031 29.4L30.0031 34.6C28.7031 35.4 27.1031 35.4 25.8031 34.6L16.8031 29.4C15.5031 28.6 14.7031 27.3 14.7031 25.8V15.4C14.7031 13.9 15.5031 12.5 16.8031 11.8L25.8031 6.6C27.1031 5.8 28.7031 5.8 30.0031 6.6L39.0031 11.8C40.3031 12.5 41.1031 13.9 41.1031 15.4Z" fill="#251F3A"/>
<path d="M34.1047 25C33.9047 25 33.7047 25.1 33.6047 25.2C32.3047 26.8 30.2047 27.9 28.0047 27.9C24.8047 27.9 22.1047 25.8 21.1047 22.9C21.0047 22.5 21.3047 22.1 21.7047 22.1H29.0047H35.1047H37.5047C37.8047 22.1 38.1047 21.9 38.1047 21.5C38.1047 21.2 38.1047 20.9 38.1047 20.6C38.1047 15 33.6047 10.5 28.1047 10.4C22.3047 10.3 17.6047 15 17.7047 20.8C17.8047 26.3 22.3047 30.8 27.9047 30.8C31.6047 30.8 34.8047 28.9 36.6047 25.9C36.9047 25.5 36.6047 24.9 36.1047 24.9L34.1047 25ZM27.9047 13.3C31.1047 13.3 33.8047 15.4 34.8047 18.3C34.9047 18.7 34.6047 19.1 34.2047 19.1H21.6047C21.2047 19.1 20.9047 18.7 21.0047 18.3C22.0047 15.4 24.7047 13.3 27.9047 13.3Z" fill="url(#paint2_linear_3196_59909)"/>
<defs>
<linearGradient id="paint0_linear_3196_59909" x1="27.9147" y1="1.16844" x2="27.9147" y2="40.0485" gradientUnits="userSpaceOnUse">
<stop stop-color="white"/>
<stop offset="0.0185" stop-color="#FFFDF7"/>
<stop offset="0.0477" stop-color="#FFF8E0"/>
<stop offset="0.0839" stop-color="#FFF0BB"/>
<stop offset="0.1257" stop-color="#FFE688"/>
<stop offset="0.1676" stop-color="#FFD94D"/>
<stop offset="0.5555" stop-color="#D6824A"/>
<stop offset="0.8573" stop-color="#B84448"/>
<stop offset="1" stop-color="#AD2C47"/>
</linearGradient>
<linearGradient id="paint1_linear_3196_59909" x1="27.9066" y1="36.891" x2="27.9066" y2="4.31594" gradientUnits="userSpaceOnUse">
<stop stop-color="white"/>
<stop offset="0.0185" stop-color="#FFFDF7"/>
<stop offset="0.0477" stop-color="#FFF8E0"/>
<stop offset="0.0839" stop-color="#FFF0BB"/>
<stop offset="0.1257" stop-color="#FFE688"/>
<stop offset="0.1676" stop-color="#FFD94D"/>
<stop offset="0.5555" stop-color="#D6824A"/>
<stop offset="0.8573" stop-color="#B84448"/>
<stop offset="1" stop-color="#AD2C47"/>
</linearGradient>
<linearGradient id="paint2_linear_3196_59909" x1="33.0139" y1="29.438" x2="22.8379" y2="11.8124" gradientUnits="userSpaceOnUse">
<stop stop-color="#FBC926"/>
<stop offset="0.0416" stop-color="#FCCF42"/>
<stop offset="0.1317" stop-color="#FDE08A"/>
<stop offset="0.2627" stop-color="#FFFAFD"/>
<stop offset="0.2654" stop-color="#FFFBFF"/>
<stop offset="0.3313" stop-color="#EFDABF"/>
<stop offset="0.4004" stop-color="#DFBA83"/>
<stop offset="0.4638" stop-color="#D3A253"/>
<stop offset="0.5195" stop-color="#CA9031"/>
<stop offset="0.5653" stop-color="#C5851C"/>
<stop offset="0.5955" stop-color="#C38114"/>
<stop offset="0.8667" stop-color="#FEDD58"/>
<stop offset="0.8708" stop-color="#FFDE59"/>
<stop offset="0.9046" stop-color="#FFE88C"/>
<stop offset="0.9496" stop-color="#FFF4CA"/>
<stop offset="0.9827" stop-color="#FFFCF0"/>
<stop offset="1" stop-color="white"/>
</linearGradient>
</defs>
</svg>
