<svg width="27" height="26" viewBox="0 0 27 26" fill="none" xmlns="http://www.w3.org/2000/svg">
<path d="M15.5397 7.73004C15.5397 9.41004 15.5397 11.1 15.5397 12.78C15.5397 13.79 15.1196 14.54 14.1996 14.95C13.8896 15.09 13.5197 15.14 13.1797 15.14C9.80969 15.16 6.44959 15.17 3.07959 15.17C1.61959 15.17 0.679688 14.2 0.679688 12.74C0.679688 9.40004 0.679688 6.06004 0.679688 2.72004C0.679688 1.25004 1.63962 0.290039 3.10962 0.290039C6.45962 0.290039 9.80966 0.290039 13.1497 0.290039C14.3197 0.290039 15.2196 0.960039 15.4696 2.03004C15.5296 2.27004 15.5297 2.54004 15.5297 2.79004C15.5397 4.44004 15.5397 6.08004 15.5397 7.73004ZM7.30969 9.34004C7.31969 9.33004 7.27963 9.37004 7.24963 9.39004C6.56963 9.88004 5.81965 10.23 5.01965 10.47C4.72965 10.56 4.58967 10.8 4.65967 11.05C4.73967 11.33 4.97966 11.46 5.27966 11.39C5.42966 11.35 5.56959 11.3 5.70959 11.26C6.58959 10.97 7.37964 10.52 8.12964 9.95004C8.21964 10.02 8.30965 10.08 8.38965 10.14C9.14965 10.7 9.97965 11.11 10.8896 11.37C11.2396 11.47 11.4996 11.35 11.5796 11.07C11.6596 10.78 11.5197 10.56 11.1697 10.44C10.7897 10.3 10.3997 10.18 10.0397 10C9.62967 9.80004 9.2496 9.54004 8.8396 9.30004C9.6196 8.47004 10.1897 7.58004 10.5597 6.58004C10.6397 6.37004 10.7396 6.28004 10.9696 6.30004C11.1696 6.32004 11.3696 6.31004 11.5696 6.30004C11.8796 6.29004 12.0996 6.10004 12.0996 5.83004C12.0996 5.56004 11.8896 5.35004 11.5796 5.35004C10.7096 5.35004 9.8396 5.34004 8.9696 5.36004C8.6896 5.37004 8.59964 5.27004 8.62964 5.01004C8.64964 4.84004 8.63963 4.67004 8.61963 4.50004C8.57963 4.22004 8.37963 4.05004 8.11963 4.06004C7.85963 4.07004 7.66966 4.25004 7.64966 4.53004C7.63966 4.69004 7.62966 4.85004 7.64966 5.01004C7.67966 5.28004 7.58969 5.37004 7.30969 5.36004C6.42969 5.34004 5.54968 5.35004 4.66968 5.36004C4.35968 5.36004 4.17969 5.55004 4.17969 5.83004C4.17969 6.11004 4.36967 6.30004 4.65967 6.31004C4.89967 6.32004 5.12963 6.32004 5.36963 6.31004C5.53963 6.30004 5.61969 6.36004 5.67969 6.52004C5.76969 6.77004 5.85962 7.02004 5.98962 7.25004C6.39962 7.94004 6.84969 8.62004 7.30969 9.34004Z" fill="#685AAD"/>
<path d="M18.6096 25.6803C16.9296 25.6803 15.2397 25.6803 13.5597 25.6803C12.7797 25.6803 12.1196 25.3903 11.6396 24.7603C11.2996 24.3203 11.1896 23.8003 11.1896 23.2703C11.1796 20.9803 11.1897 18.6903 11.1797 16.4003C11.1797 16.1903 11.2496 16.1203 11.4596 16.1303C12.0896 16.1403 12.7296 16.1403 13.3596 16.1303C15.0696 16.1203 16.4996 14.6903 16.5096 12.9803C16.5096 12.3703 16.5196 11.7503 16.5096 11.1403C16.5096 10.9103 16.5697 10.8203 16.8097 10.8203C19.1297 10.8303 21.4396 10.8503 23.7596 10.8303C24.8996 10.8203 26.0497 11.6503 26.0497 13.1603C26.0597 16.5503 26.0597 19.9303 26.0497 23.3203C26.0497 24.4603 25.3796 25.3303 24.3496 25.5903C24.0996 25.6503 23.8296 25.6803 23.5696 25.6803C21.9196 25.6803 20.2596 25.6703 18.6096 25.6803ZM22.0197 21.3903C22.0097 21.3503 21.9896 21.2503 21.9596 21.1703C21.0096 19.0703 20.0596 16.9803 19.0996 14.8803C19.0096 14.6803 18.8596 14.5403 18.6196 14.5403C18.3796 14.5403 18.2397 14.6703 18.1497 14.8803C17.1997 16.9703 16.2497 19.0503 15.2997 21.1403C15.1497 21.4703 15.2296 21.7503 15.4896 21.8703C15.7696 22.0003 16.0296 21.8903 16.1896 21.5403C16.4196 21.0503 16.6496 20.5703 16.8596 20.0703C16.9396 19.8703 17.0497 19.7903 17.2797 19.7903C18.1597 19.8103 19.0397 19.8103 19.9197 19.7903C20.1797 19.7903 20.3097 19.8603 20.4097 20.1003C20.6197 20.6103 20.8496 21.1003 21.0896 21.6003C21.2196 21.8703 21.4296 21.9703 21.6896 21.9003C21.9096 21.8403 22.0297 21.6903 22.0197 21.3903Z" fill="#685AAD"/>
<path d="M8.51897 20.3999C8.04897 20.4299 7.49896 20.3899 7.00896 20.0699C6.33896 19.6299 5.96891 19.0199 5.94891 18.2099C5.93891 17.8399 5.93891 17.4699 5.94891 17.0999C5.94891 16.8199 6.13895 16.6299 6.36895 16.6299C6.59895 16.6399 6.76897 16.8199 6.76897 17.0899C6.77897 17.4299 6.76897 17.7699 6.76897 18.1099C6.78897 18.9599 7.37893 19.5499 8.21893 19.5599C8.54893 19.5699 8.87892 19.5599 9.20892 19.5599C9.50892 19.5699 9.66899 19.7099 9.65899 19.9799C9.65899 20.2399 9.4889 20.3799 9.1889 20.3799C9.0089 20.4099 8.80897 20.3999 8.51897 20.3999Z" fill="#685AAD"/>
<path d="M18.129 5.50977C18.539 5.57977 18.959 5.58976 19.339 5.71976C20.199 6.00976 20.7691 6.84976 20.7791 7.75976C20.7791 8.11976 20.7791 8.47977 20.7791 8.83977C20.7791 9.12977 20.599 9.31977 20.359 9.30977C20.129 9.29977 19.969 9.12976 19.959 8.84976C19.949 8.42976 19.9791 7.99977 19.9091 7.57977C19.7991 6.83977 19.239 6.39976 18.479 6.38976C18.169 6.37976 17.8591 6.38976 17.5391 6.38976C17.1991 6.38976 17.0391 6.25977 17.0391 5.98977C17.0391 5.71977 17.1991 5.57977 17.5291 5.57977C17.7191 5.57977 17.909 5.57977 18.099 5.57977C18.129 5.54977 18.129 5.52977 18.129 5.50977Z" fill="#685AAD"/>
<path d="M6.62109 6.32031C7.63109 6.32031 8.59107 6.32031 9.60107 6.32031C9.27107 7.21031 8.77109 7.95031 8.12109 8.64031C7.46109 7.97031 6.98109 7.22031 6.62109 6.32031Z" fill="#685AAD"/>
<path d="M18.621 16.2197C19.031 17.1097 19.401 17.9297 19.791 18.7897C19.021 18.7897 18.2709 18.7897 17.4609 18.7897C17.8409 17.9397 18.221 17.1197 18.621 16.2197Z" fill="#685AAD"/>
</svg>
