<svg width="115" height="79" viewBox="0 0 115 79" fill="none" xmlns="http://www.w3.org/2000/svg">
<path d="M114.42 76.7105C113.683 78.3529 112.44 78.9566 110.629 78.9566C75.2861 78.9211 39.9428 78.93 4.59952 78.93C1.82959 78.93 0.808633 77.9001 0.808633 75.1302C0.808633 74.7573 0.799755 74.3933 0.808633 74.0204C0.861901 72.4046 1.92727 71.2417 3.53418 71.0641C3.93369 71.0197 4.34207 71.0286 4.75046 71.0286C39.9872 71.0286 75.215 71.0375 110.452 71.002C112.254 71.002 113.621 71.4814 114.42 73.1682C114.42 74.349 114.42 75.5297 114.42 76.7105Z" fill="white"/>
<path d="M107.549 67.4324C86.8724 67.4324 66.3199 67.4324 45.6164 67.4324C45.6164 66.5801 45.6342 65.7456 45.6164 64.9022C45.572 62.5939 44.1604 61.1556 41.861 61.1556C35.6109 61.1379 29.3608 61.1379 23.1107 61.1556C20.8291 61.1645 19.4619 62.5051 19.3642 64.7867C19.3287 65.6301 19.3553 66.4736 19.3553 67.4058C15.4224 67.4058 11.6048 67.4058 7.67188 67.4058C7.67188 66.9707 7.67188 66.5712 7.67188 66.1717C7.67188 45.6813 7.67188 25.1998 7.67188 4.70936C7.67188 1.67309 8.95033 0.376953 11.9688 0.376953C42.4026 0.376953 72.8363 0.376953 103.27 0.376953C106.235 0.376953 107.549 1.67311 107.549 4.6206C107.549 25.1465 107.549 45.6724 107.549 66.1894C107.549 66.5889 107.549 66.9885 107.549 67.4324ZM44.5954 23.0691C45.0571 23.0691 45.4477 23.0691 45.8472 23.0691C47.7294 23.0602 49.6204 23.0957 51.5025 23.0424C53.0384 22.998 54.1926 21.7906 54.2813 20.2636C54.308 19.8197 54.2991 19.3758 54.2902 18.9319C54.2636 16.9077 53.0739 15.6915 51.0497 15.6826C47.4985 15.6648 43.9473 15.6648 40.3961 15.6826C38.3631 15.6915 37.1557 16.8811 37.1468 18.923C37.138 28.023 37.138 37.114 37.1468 46.214C37.1468 48.2825 38.3098 49.4722 40.3518 49.4899C43.9385 49.5166 47.5252 49.5077 51.1119 49.4899C51.5824 49.4899 52.0885 49.4189 52.5057 49.2325C54.1038 48.5134 54.743 46.6668 54.2281 44.4206C53.9085 43.0268 52.6478 42.1124 50.9876 42.1035C48.8569 42.0946 46.7261 42.1035 44.6043 42.1035C44.6043 40.0882 44.6043 38.2327 44.6043 36.315C46.8327 36.315 48.9812 36.3328 51.1208 36.3061C52.6389 36.2884 53.8995 35.4006 54.1836 34.0689C54.3257 33.4297 54.2813 32.7461 54.2724 32.0802C54.2547 30.1803 53.1006 28.964 51.1829 28.9019C49.5583 28.8486 47.9336 28.8842 46.3 28.8842C45.723 28.8842 45.1548 28.8842 44.5688 28.8842C44.5954 26.8511 44.5954 25.0222 44.5954 23.0691ZM69.5426 29.1327C71.1673 29.1327 72.7919 29.1593 74.4166 29.1238C76.645 29.0883 77.7813 27.8366 77.7725 25.5016C77.7636 23.2644 76.6005 22.0659 74.3811 22.0481C71.1672 22.0303 67.9534 22.0303 64.7396 22.0481C62.5023 22.057 61.3748 23.22 61.3659 25.475C61.3571 27.8987 62.458 29.0884 64.7751 29.115C66.3643 29.1594 67.9534 29.1416 69.5426 29.1327ZM69.5692 43.16C71.1939 43.16 72.8185 43.1777 74.4432 43.1511C76.6361 43.1156 77.7814 41.8372 77.7636 39.4934C77.7459 37.3183 76.5651 36.0842 74.4521 36.0753C71.2027 36.0576 67.9534 36.0664 64.7041 36.0753C62.529 36.0842 61.3748 37.2561 61.3571 39.4223C61.3393 41.8904 62.4224 43.1156 64.6863 43.1511C66.3199 43.1777 67.9445 43.16 69.5692 43.16Z" fill="white"/>
</svg>
