<svg width="129" height="90" viewBox="0 0 129 90" fill="none" xmlns="http://www.w3.org/2000/svg">
<path d="M128.319 86.8206C127.489 88.6706 126.089 89.3506 124.049 89.3506C84.2392 89.3106 44.4292 89.3206 4.61916 89.3206C1.49916 89.3206 0.349171 88.1606 0.349171 85.0406C0.349171 84.6206 0.339171 84.2106 0.349171 83.7906C0.409171 81.9706 1.60918 80.6606 3.41918 80.4606C3.86918 80.4106 4.32917 80.4206 4.78917 80.4206C44.4792 80.4206 84.1591 80.4306 123.849 80.3906C125.879 80.3906 127.419 80.9306 128.319 82.8306C128.319 84.1606 128.319 85.4906 128.319 86.8206Z" fill="#473171"/>
<path d="M120.579 76.3698C97.2891 76.3698 74.1391 76.3698 50.8191 76.3698C50.8191 75.4098 50.8391 74.4698 50.8191 73.5198C50.7691 70.9198 49.1791 69.2998 46.5891 69.2998C39.5491 69.2798 32.5091 69.2798 25.4691 69.2998C22.8991 69.3098 21.3591 70.8198 21.2491 73.3898C21.2091 74.3398 21.2391 75.2898 21.2391 76.3398C16.8091 76.3398 12.5091 76.3398 8.0791 76.3398C8.0791 75.8498 8.0791 75.3998 8.0791 74.9498C8.0791 51.8698 8.0791 28.7998 8.0791 5.71979C8.0791 2.29979 9.51913 0.839844 12.9191 0.839844C47.1991 0.839844 81.4791 0.839844 115.759 0.839844C119.099 0.839844 120.579 2.29981 120.579 5.61981C120.579 28.7398 120.579 51.8598 120.579 74.9698C120.579 75.4198 120.579 75.8698 120.579 76.3698ZM49.6691 26.3998C50.1891 26.3998 50.6291 26.3998 51.0791 26.3998C53.1991 26.3898 55.3291 26.4298 57.4491 26.3698C59.1791 26.3198 60.4791 24.9598 60.5791 23.2398C60.6091 22.7398 60.5991 22.2398 60.5891 21.7398C60.5591 19.4598 59.2191 18.0898 56.9391 18.0798C52.9391 18.0598 48.9391 18.0598 44.9391 18.0798C42.6491 18.0898 41.2891 19.4298 41.2791 21.7298C41.2691 31.9798 41.2691 42.2198 41.2791 52.4698C41.2791 54.7998 42.5891 56.1398 44.8891 56.1598C48.9291 56.1898 52.9691 56.1798 57.0091 56.1598C57.5391 56.1598 58.1091 56.0798 58.5791 55.8698C60.3791 55.0598 61.0991 52.9798 60.5191 50.4498C60.1591 48.8798 58.7391 47.8498 56.8691 47.8398C54.4691 47.8298 52.0691 47.8398 49.6791 47.8398C49.6791 45.5698 49.6791 43.4798 49.6791 41.3198C52.1891 41.3198 54.6091 41.3398 57.0191 41.3098C58.7291 41.2898 60.1491 40.2898 60.4691 38.7898C60.6291 38.0698 60.5791 37.2998 60.5691 36.5498C60.5491 34.4098 59.2491 33.0398 57.0891 32.9698C55.2591 32.9098 53.4291 32.9498 51.5891 32.9498C50.9391 32.9498 50.2991 32.9498 49.6391 32.9498C49.6691 30.6598 49.6691 28.5998 49.6691 26.3998ZM77.7691 33.2298C79.5991 33.2298 81.4291 33.2598 83.2591 33.2198C85.7691 33.1798 87.0491 31.7698 87.0391 29.1398C87.0291 26.6198 85.7191 25.2698 83.2191 25.2498C79.5991 25.2298 75.9791 25.2298 72.3591 25.2498C69.8391 25.2598 68.5691 26.5698 68.5591 29.1098C68.5491 31.8398 69.7891 33.1798 72.3991 33.2098C74.1891 33.2598 75.9791 33.2398 77.7691 33.2298ZM77.7991 49.0298C79.6291 49.0298 81.4591 49.0498 83.2891 49.0198C85.7591 48.9798 87.0491 47.5398 87.0291 44.8998C87.0091 42.4498 85.6791 41.0598 83.2991 41.0498C79.6391 41.0298 75.9791 41.0398 72.3191 41.0498C69.8691 41.0598 68.5691 42.3798 68.5491 44.8198C68.5291 47.5998 69.7491 48.9798 72.2991 49.0198C74.1391 49.0498 75.9691 49.0298 77.7991 49.0298Z" fill="#473171"/>
</svg>
