<svg width="1398" height="333" viewBox="0 0 1398 333" fill="none" xmlns="http://www.w3.org/2000/svg">
<rect width="1398" height="333" rx="30.9237" fill="#A296CC"/>
<g opacity="0.6">
<path d="M401.792 185.818V204H398.77V185.818H401.792ZM406.425 185.818V188.365H394.187V185.818H406.425ZM411.445 184.819V204H408.548V184.819H411.445ZM410.933 196.757H410.009C410.001 195.816 410.101 194.951 410.309 194.16C410.517 193.369 410.817 192.678 411.208 192.087C411.599 191.496 412.07 191.042 412.619 190.726C413.177 190.401 413.793 190.239 414.467 190.239C415.025 190.239 415.529 190.334 415.978 190.526C416.436 190.709 416.828 191 417.152 191.4C417.485 191.8 417.739 192.324 417.914 192.973C418.089 193.614 418.176 194.397 418.176 195.321V204H415.267V195.296C415.267 194.655 415.196 194.147 415.054 193.773C414.921 193.398 414.721 193.127 414.455 192.961C414.189 192.794 413.851 192.711 413.443 192.711C413.044 192.711 412.686 192.819 412.37 193.036C412.061 193.244 411.799 193.535 411.583 193.91C411.366 194.276 411.204 194.705 411.096 195.196C410.988 195.679 410.933 196.199 410.933 196.757ZM426.243 204.25C425.369 204.25 424.591 204.121 423.908 203.863C423.226 203.596 422.647 203.205 422.172 202.689C421.698 202.164 421.336 201.523 421.086 200.766C420.836 200 420.711 199.113 420.711 198.106V196.807C420.711 195.667 420.84 194.684 421.098 193.86C421.365 193.027 421.731 192.345 422.197 191.812C422.664 191.279 423.213 190.884 423.846 190.626C424.487 190.368 425.182 190.239 425.931 190.239C426.78 190.239 427.517 190.376 428.142 190.651C428.766 190.925 429.278 191.337 429.677 191.887C430.085 192.436 430.385 193.115 430.577 193.922C430.776 194.73 430.876 195.658 430.876 196.707V198.168H422.11V195.97H428.004V195.658C427.987 195.042 427.913 194.514 427.779 194.072C427.646 193.623 427.43 193.281 427.13 193.048C426.839 192.807 426.435 192.686 425.919 192.686C425.544 192.686 425.211 192.757 424.92 192.898C424.628 193.04 424.387 193.269 424.195 193.585C424.012 193.902 423.871 194.326 423.771 194.859C423.671 195.383 423.621 196.033 423.621 196.807V198.106C423.621 198.78 423.679 199.35 423.796 199.817C423.921 200.283 424.104 200.666 424.345 200.965C424.587 201.257 424.878 201.473 425.219 201.615C425.569 201.748 425.973 201.815 426.431 201.815C427.105 201.815 427.684 201.69 428.166 201.44C428.658 201.182 429.082 200.849 429.44 200.441L430.726 202.227C430.485 202.551 430.16 202.872 429.752 203.188C429.344 203.496 428.849 203.75 428.266 203.95C427.692 204.15 427.018 204.25 426.243 204.25ZM436.121 193.098V204H433.212V190.488H435.984L436.121 193.098ZM439.38 190.401L439.368 193.273C439.201 193.231 439.022 193.206 438.831 193.198C438.648 193.181 438.465 193.173 438.282 193.173C437.882 193.173 437.536 193.244 437.245 193.385C436.954 193.527 436.708 193.731 436.508 193.997C436.308 194.264 436.15 194.584 436.034 194.959C435.926 195.334 435.859 195.758 435.834 196.233L435.21 196.258C435.21 195.408 435.276 194.622 435.409 193.897C435.543 193.165 435.742 192.528 436.009 191.987C436.283 191.437 436.625 191.009 437.033 190.701C437.441 190.393 437.915 190.239 438.456 190.239C438.606 190.239 438.777 190.255 438.968 190.288C439.16 190.322 439.297 190.359 439.38 190.401ZM446.299 204.25C445.424 204.25 444.646 204.121 443.963 203.863C443.281 203.596 442.702 203.205 442.228 202.689C441.753 202.164 441.391 201.523 441.141 200.766C440.891 200 440.767 199.113 440.767 198.106V196.807C440.767 195.667 440.896 194.684 441.154 193.86C441.42 193.027 441.786 192.345 442.253 191.812C442.719 191.279 443.268 190.884 443.901 190.626C444.542 190.368 445.237 190.239 445.986 190.239C446.836 190.239 447.572 190.376 448.197 190.651C448.821 190.925 449.333 191.337 449.733 191.887C450.141 192.436 450.44 193.115 450.632 193.922C450.832 194.73 450.932 195.658 450.932 196.707V198.168H442.165V195.97H448.059V195.658C448.043 195.042 447.968 194.514 447.835 194.072C447.701 193.623 447.485 193.281 447.185 193.048C446.894 192.807 446.49 192.686 445.974 192.686C445.599 192.686 445.266 192.757 444.975 192.898C444.684 193.04 444.442 193.269 444.251 193.585C444.068 193.902 443.926 194.326 443.826 194.859C443.726 195.383 443.676 196.033 443.676 196.807V198.106C443.676 198.78 443.734 199.35 443.851 199.817C443.976 200.283 444.159 200.666 444.401 200.965C444.642 201.257 444.933 201.473 445.275 201.615C445.624 201.748 446.028 201.815 446.486 201.815C447.16 201.815 447.739 201.69 448.222 201.44C448.713 201.182 449.138 200.849 449.495 200.441L450.782 202.227C450.54 202.551 450.216 202.872 449.808 203.188C449.4 203.496 448.904 203.75 448.322 203.95C447.747 204.15 447.073 204.25 446.299 204.25ZM465.43 201.253V194.522C465.43 194.056 465.363 193.681 465.23 193.398C465.105 193.115 464.918 192.911 464.668 192.786C464.427 192.653 464.123 192.586 463.756 192.586C463.374 192.586 463.049 192.665 462.782 192.823C462.524 192.982 462.329 193.198 462.195 193.473C462.062 193.739 461.996 194.047 461.996 194.397H459.086C459.086 193.856 459.194 193.335 459.411 192.836C459.636 192.336 459.956 191.891 460.372 191.5C460.789 191.109 461.292 190.8 461.883 190.576C462.474 190.351 463.132 190.239 463.856 190.239C464.722 190.239 465.492 190.384 466.167 190.676C466.841 190.959 467.37 191.421 467.753 192.062C468.144 192.694 468.339 193.527 468.339 194.559V200.866C468.339 201.49 468.377 202.048 468.452 202.539C468.535 203.022 468.647 203.442 468.789 203.8V204H465.829C465.696 203.675 465.596 203.259 465.53 202.751C465.463 202.243 465.43 201.744 465.43 201.253ZM465.817 195.771L465.829 197.656H464.431C464.015 197.656 463.64 197.715 463.307 197.831C462.974 197.939 462.691 198.097 462.458 198.306C462.233 198.505 462.058 198.751 461.933 199.042C461.817 199.334 461.758 199.654 461.758 200.004C461.758 200.429 461.817 200.774 461.933 201.04C462.058 201.307 462.237 201.507 462.47 201.64C462.712 201.765 463.003 201.827 463.344 201.827C463.811 201.827 464.214 201.727 464.556 201.527C464.905 201.319 465.172 201.07 465.355 200.778C465.546 200.487 465.621 200.22 465.58 199.979L466.242 201.19C466.175 201.507 466.05 201.84 465.867 202.189C465.692 202.539 465.463 202.872 465.18 203.188C464.897 203.505 464.556 203.763 464.156 203.963C463.756 204.154 463.294 204.25 462.77 204.25C462.012 204.25 461.338 204.092 460.747 203.775C460.156 203.459 459.69 203.005 459.348 202.414C459.015 201.815 458.849 201.099 458.849 200.266C458.849 199.592 458.961 198.98 459.186 198.43C459.411 197.881 459.744 197.411 460.185 197.019C460.626 196.62 461.18 196.312 461.846 196.095C462.52 195.879 463.307 195.771 464.206 195.771H465.817ZM474.234 193.098V204H471.324V190.488H474.096L474.234 193.098ZM477.493 190.401L477.48 193.273C477.314 193.231 477.135 193.206 476.943 193.198C476.76 193.181 476.577 193.173 476.394 193.173C475.994 193.173 475.649 193.244 475.358 193.385C475.066 193.527 474.821 193.731 474.621 193.997C474.421 194.264 474.263 194.584 474.146 194.959C474.038 195.334 473.971 195.758 473.946 196.233L473.322 196.258C473.322 195.408 473.389 194.622 473.522 193.897C473.655 193.165 473.855 192.528 474.121 191.987C474.396 191.437 474.737 191.009 475.145 190.701C475.553 190.393 476.028 190.239 476.569 190.239C476.719 190.239 476.889 190.255 477.081 190.288C477.272 190.322 477.41 190.359 477.493 190.401ZM484.411 204.25C483.537 204.25 482.759 204.121 482.076 203.863C481.393 203.596 480.815 203.205 480.34 202.689C479.866 202.164 479.503 201.523 479.254 200.766C479.004 200 478.879 199.113 478.879 198.106V196.807C478.879 195.667 479.008 194.684 479.266 193.86C479.533 193.027 479.899 192.345 480.365 191.812C480.831 191.279 481.381 190.884 482.014 190.626C482.655 190.368 483.35 190.239 484.099 190.239C484.948 190.239 485.685 190.376 486.309 190.651C486.934 190.925 487.446 191.337 487.845 191.887C488.253 192.436 488.553 193.115 488.744 193.922C488.944 194.73 489.044 195.658 489.044 196.707V198.168H480.278V195.97H486.172V195.658C486.155 195.042 486.08 194.514 485.947 194.072C485.814 193.623 485.597 193.281 485.298 193.048C485.006 192.807 484.603 192.686 484.086 192.686C483.712 192.686 483.379 192.757 483.087 192.898C482.796 193.04 482.555 193.269 482.363 193.585C482.18 193.902 482.038 194.326 481.939 194.859C481.839 195.383 481.789 196.033 481.789 196.807V198.106C481.789 198.78 481.847 199.35 481.964 199.817C482.088 200.283 482.272 200.666 482.513 200.965C482.754 201.257 483.046 201.473 483.387 201.615C483.737 201.748 484.141 201.815 484.598 201.815C485.273 201.815 485.851 201.69 486.334 201.44C486.825 201.182 487.25 200.849 487.608 200.441L488.894 202.227C488.653 202.551 488.328 202.872 487.92 203.188C487.512 203.496 487.017 203.75 486.434 203.95C485.86 204.15 485.185 204.25 484.411 204.25ZM500.146 193.373V204H497.236V190.488H499.971L500.146 193.373ZM499.621 196.757H498.697C498.689 195.783 498.793 194.896 499.009 194.097C499.226 193.298 499.534 192.611 499.933 192.037C500.333 191.462 500.812 191.021 501.369 190.713C501.936 190.397 502.564 190.239 503.255 190.239C503.796 190.239 504.287 190.33 504.729 190.513C505.178 190.688 505.561 190.975 505.878 191.375C506.194 191.775 506.435 192.295 506.602 192.936C506.777 193.577 506.864 194.359 506.864 195.284V204H503.954V195.259C503.954 194.626 503.884 194.126 503.742 193.76C503.609 193.385 503.409 193.119 503.143 192.961C502.876 192.794 502.539 192.711 502.131 192.711C501.757 192.711 501.411 192.819 501.095 193.036C500.787 193.244 500.52 193.535 500.296 193.91C500.079 194.276 499.913 194.705 499.796 195.196C499.679 195.679 499.621 196.199 499.621 196.757ZM509.362 197.794V196.707C509.362 195.658 509.491 194.73 509.749 193.922C510.007 193.115 510.373 192.441 510.848 191.899C511.33 191.35 511.897 190.938 512.546 190.663C513.195 190.38 513.911 190.239 514.694 190.239C515.493 190.239 516.217 190.38 516.867 190.663C517.524 190.938 518.091 191.35 518.565 191.899C519.048 192.441 519.418 193.115 519.676 193.922C519.935 194.73 520.064 195.658 520.064 196.707V197.794C520.064 198.843 519.935 199.771 519.676 200.578C519.418 201.386 519.048 202.064 518.565 202.614C518.091 203.155 517.529 203.563 516.879 203.838C516.23 204.112 515.51 204.25 514.719 204.25C513.936 204.25 513.216 204.112 512.558 203.838C511.909 203.563 511.343 203.155 510.86 202.614C510.377 202.064 510.007 201.386 509.749 200.578C509.491 199.771 509.362 198.843 509.362 197.794ZM512.271 196.707V197.794C512.271 198.468 512.33 199.059 512.446 199.567C512.563 200.066 512.729 200.483 512.946 200.816C513.162 201.149 513.42 201.398 513.72 201.565C514.02 201.731 514.353 201.815 514.719 201.815C515.127 201.815 515.481 201.731 515.78 201.565C516.088 201.398 516.342 201.149 516.542 200.816C516.75 200.483 516.904 200.066 517.004 199.567C517.104 199.059 517.154 198.468 517.154 197.794V196.707C517.154 196.041 517.096 195.458 516.979 194.959C516.863 194.451 516.696 194.031 516.48 193.698C516.263 193.356 516.001 193.102 515.693 192.936C515.393 192.769 515.06 192.686 514.694 192.686C514.336 192.686 514.007 192.769 513.707 192.936C513.416 193.102 513.162 193.356 512.946 193.698C512.729 194.031 512.563 194.451 512.446 194.959C512.33 195.458 512.271 196.041 512.271 196.707ZM534.724 200.441C534.724 200.158 534.641 199.908 534.474 199.692C534.316 199.467 534.058 199.246 533.7 199.03C533.342 198.813 532.863 198.58 532.264 198.331C531.64 198.072 531.086 197.814 530.603 197.556C530.12 197.298 529.712 197.015 529.379 196.707C529.046 196.391 528.792 196.029 528.618 195.621C528.443 195.213 528.355 194.738 528.355 194.197C528.355 193.639 528.459 193.123 528.668 192.649C528.876 192.174 529.175 191.758 529.567 191.4C529.958 191.034 530.428 190.751 530.978 190.551C531.527 190.343 532.148 190.239 532.838 190.239C533.813 190.239 534.645 190.418 535.336 190.776C536.035 191.125 536.568 191.616 536.934 192.249C537.309 192.873 537.496 193.594 537.496 194.409H534.587C534.587 194.068 534.524 193.76 534.399 193.485C534.275 193.202 534.083 192.978 533.825 192.811C533.567 192.636 533.238 192.549 532.838 192.549C532.472 192.549 532.164 192.62 531.914 192.761C531.673 192.894 531.49 193.077 531.365 193.311C531.248 193.535 531.19 193.789 531.19 194.072C531.19 194.28 531.228 194.464 531.303 194.622C531.377 194.78 531.502 194.934 531.677 195.084C531.852 195.225 532.085 195.371 532.376 195.521C532.676 195.671 533.055 195.841 533.513 196.033C534.42 196.382 535.174 196.745 535.773 197.119C536.373 197.494 536.822 197.931 537.122 198.43C537.421 198.93 537.571 199.55 537.571 200.291C537.571 200.891 537.459 201.432 537.234 201.915C537.018 202.397 536.701 202.814 536.285 203.163C535.877 203.513 535.382 203.784 534.799 203.975C534.225 204.158 533.584 204.25 532.876 204.25C531.819 204.25 530.924 204.042 530.191 203.625C529.467 203.201 528.917 202.655 528.543 201.989C528.168 201.323 527.981 200.62 527.981 199.879H530.791C530.815 200.412 530.928 200.828 531.128 201.128C531.336 201.428 531.598 201.636 531.914 201.752C532.231 201.86 532.56 201.915 532.901 201.915C533.309 201.915 533.646 201.86 533.912 201.752C534.179 201.636 534.379 201.465 534.512 201.24C534.653 201.015 534.724 200.749 534.724 200.441ZM545.276 204.25C544.402 204.25 543.624 204.121 542.941 203.863C542.258 203.596 541.68 203.205 541.205 202.689C540.731 202.164 540.369 201.523 540.119 200.766C539.869 200 539.744 199.113 539.744 198.106V196.807C539.744 195.667 539.873 194.684 540.131 193.86C540.398 193.027 540.764 192.345 541.23 191.812C541.696 191.279 542.246 190.884 542.879 190.626C543.52 190.368 544.215 190.239 544.964 190.239C545.813 190.239 546.55 190.376 547.174 190.651C547.799 190.925 548.311 191.337 548.71 191.887C549.118 192.436 549.418 193.115 549.609 193.922C549.809 194.73 549.909 195.658 549.909 196.707V198.168H541.143V195.97H547.037V195.658C547.02 195.042 546.945 194.514 546.812 194.072C546.679 193.623 546.463 193.281 546.163 193.048C545.872 192.807 545.468 192.686 544.952 192.686C544.577 192.686 544.244 192.757 543.953 192.898C543.661 193.04 543.42 193.269 543.228 193.585C543.045 193.902 542.904 194.326 542.804 194.859C542.704 195.383 542.654 196.033 542.654 196.807V198.106C542.654 198.78 542.712 199.35 542.829 199.817C542.954 200.283 543.137 200.666 543.378 200.965C543.62 201.257 543.911 201.473 544.252 201.615C544.602 201.748 545.006 201.815 545.464 201.815C546.138 201.815 546.717 201.69 547.199 201.44C547.691 201.182 548.115 200.849 548.473 200.441L549.759 202.227C549.518 202.551 549.193 202.872 548.785 203.188C548.377 203.496 547.882 203.75 547.299 203.95C546.725 204.15 546.05 204.25 545.276 204.25ZM558.501 200.441C558.501 200.158 558.417 199.908 558.251 199.692C558.093 199.467 557.835 199.246 557.477 199.03C557.119 198.813 556.64 198.58 556.041 198.331C555.416 198.072 554.863 197.814 554.38 197.556C553.897 197.298 553.489 197.015 553.156 196.707C552.823 196.391 552.569 196.029 552.394 195.621C552.219 195.213 552.132 194.738 552.132 194.197C552.132 193.639 552.236 193.123 552.444 192.649C552.652 192.174 552.952 191.758 553.343 191.4C553.735 191.034 554.205 190.751 554.754 190.551C555.304 190.343 555.924 190.239 556.615 190.239C557.589 190.239 558.422 190.418 559.113 190.776C559.812 191.125 560.345 191.616 560.711 192.249C561.086 192.873 561.273 193.594 561.273 194.409H558.363C558.363 194.068 558.301 193.76 558.176 193.485C558.051 193.202 557.86 192.978 557.602 192.811C557.344 192.636 557.015 192.549 556.615 192.549C556.249 192.549 555.941 192.62 555.691 192.761C555.45 192.894 555.266 193.077 555.142 193.311C555.025 193.535 554.967 193.789 554.967 194.072C554.967 194.28 555.004 194.464 555.079 194.622C555.154 194.78 555.279 194.934 555.454 195.084C555.629 195.225 555.862 195.371 556.153 195.521C556.453 195.671 556.832 195.841 557.289 196.033C558.197 196.382 558.95 196.745 559.55 197.119C560.149 197.494 560.599 197.931 560.898 198.43C561.198 198.93 561.348 199.55 561.348 200.291C561.348 200.891 561.236 201.432 561.011 201.915C560.794 202.397 560.478 202.814 560.062 203.163C559.654 203.513 559.158 203.784 558.576 203.975C558.001 204.158 557.36 204.25 556.653 204.25C555.595 204.25 554.7 204.042 553.968 203.625C553.243 203.201 552.694 202.655 552.319 201.989C551.945 201.323 551.757 200.62 551.757 199.879H554.567C554.592 200.412 554.704 200.828 554.904 201.128C555.112 201.428 555.375 201.636 555.691 201.752C556.007 201.86 556.336 201.915 556.678 201.915C557.085 201.915 557.423 201.86 557.689 201.752C557.955 201.636 558.155 201.465 558.288 201.24C558.43 201.015 558.501 200.749 558.501 200.441ZM570.139 200.441C570.139 200.158 570.056 199.908 569.89 199.692C569.731 199.467 569.473 199.246 569.115 199.03C568.757 198.813 568.279 198.58 567.679 198.331C567.055 198.072 566.501 197.814 566.018 197.556C565.535 197.298 565.128 197.015 564.795 196.707C564.462 196.391 564.208 196.029 564.033 195.621C563.858 195.213 563.771 194.738 563.771 194.197C563.771 193.639 563.875 193.123 564.083 192.649C564.291 192.174 564.591 191.758 564.982 191.4C565.373 191.034 565.844 190.751 566.393 190.551C566.942 190.343 567.563 190.239 568.254 190.239C569.228 190.239 570.06 190.418 570.751 190.776C571.451 191.125 571.983 191.616 572.35 192.249C572.724 192.873 572.912 193.594 572.912 194.409H570.002C570.002 194.068 569.939 193.76 569.815 193.485C569.69 193.202 569.498 192.978 569.24 192.811C568.982 192.636 568.653 192.549 568.254 192.549C567.887 192.549 567.579 192.62 567.33 192.761C567.088 192.894 566.905 193.077 566.78 193.311C566.664 193.535 566.605 193.789 566.605 194.072C566.605 194.28 566.643 194.464 566.718 194.622C566.793 194.78 566.917 194.934 567.092 195.084C567.267 195.225 567.5 195.371 567.792 195.521C568.091 195.671 568.47 195.841 568.928 196.033C569.835 196.382 570.589 196.745 571.188 197.119C571.788 197.494 572.237 197.931 572.537 198.43C572.837 198.93 572.986 199.55 572.986 200.291C572.986 200.891 572.874 201.432 572.649 201.915C572.433 202.397 572.117 202.814 571.7 203.163C571.292 203.513 570.797 203.784 570.214 203.975C569.64 204.158 568.999 204.25 568.291 204.25C567.234 204.25 566.339 204.042 565.606 203.625C564.882 203.201 564.333 202.655 563.958 201.989C563.583 201.323 563.396 200.62 563.396 199.879H566.206C566.231 200.412 566.343 200.828 566.543 201.128C566.751 201.428 567.013 201.636 567.33 201.752C567.646 201.86 567.975 201.915 568.316 201.915C568.724 201.915 569.061 201.86 569.328 201.752C569.594 201.636 569.794 201.465 569.927 201.24C570.069 201.015 570.139 200.749 570.139 200.441ZM578.606 190.488V204H575.696V190.488H578.606ZM575.546 186.942C575.546 186.476 575.688 186.088 575.971 185.78C576.254 185.472 576.65 185.318 577.157 185.318C577.665 185.318 578.061 185.472 578.344 185.78C578.627 186.088 578.768 186.476 578.768 186.942C578.768 187.4 578.627 187.783 578.344 188.091C578.061 188.399 577.665 188.553 577.157 188.553C576.65 188.553 576.254 188.399 575.971 188.091C575.688 187.783 575.546 187.4 575.546 186.942ZM581.291 197.794V196.707C581.291 195.658 581.42 194.73 581.678 193.922C581.936 193.115 582.302 192.441 582.777 191.899C583.26 191.35 583.826 190.938 584.475 190.663C585.125 190.38 585.841 190.239 586.623 190.239C587.422 190.239 588.147 190.38 588.796 190.663C589.454 190.938 590.02 191.35 590.494 191.899C590.977 192.441 591.348 193.115 591.606 193.922C591.864 194.73 591.993 195.658 591.993 196.707V197.794C591.993 198.843 591.864 199.771 591.606 200.578C591.348 201.386 590.977 202.064 590.494 202.614C590.02 203.155 589.458 203.563 588.808 203.838C588.159 204.112 587.439 204.25 586.648 204.25C585.865 204.25 585.145 204.112 584.488 203.838C583.838 203.563 583.272 203.155 582.789 202.614C582.306 202.064 581.936 201.386 581.678 200.578C581.42 199.771 581.291 198.843 581.291 197.794ZM584.2 196.707V197.794C584.2 198.468 584.259 199.059 584.375 199.567C584.492 200.066 584.658 200.483 584.875 200.816C585.091 201.149 585.349 201.398 585.649 201.565C585.949 201.731 586.282 201.815 586.648 201.815C587.056 201.815 587.41 201.731 587.709 201.565C588.018 201.398 588.271 201.149 588.471 200.816C588.679 200.483 588.833 200.066 588.933 199.567C589.033 199.059 589.083 198.468 589.083 197.794V196.707C589.083 196.041 589.025 195.458 588.908 194.959C588.792 194.451 588.625 194.031 588.409 193.698C588.192 193.356 587.93 193.102 587.622 192.936C587.322 192.769 586.989 192.686 586.623 192.686C586.265 192.686 585.936 192.769 585.637 192.936C585.345 193.102 585.091 193.356 584.875 193.698C584.658 194.031 584.492 194.451 584.375 194.959C584.259 195.458 584.2 196.041 584.2 196.707ZM597.375 193.373V204H594.465V190.488H597.2L597.375 193.373ZM596.851 196.757H595.926C595.918 195.783 596.022 194.896 596.239 194.097C596.455 193.298 596.763 192.611 597.163 192.037C597.562 191.462 598.041 191.021 598.599 190.713C599.165 190.397 599.793 190.239 600.484 190.239C601.026 190.239 601.517 190.33 601.958 190.513C602.408 190.688 602.791 190.975 603.107 191.375C603.423 191.775 603.665 192.295 603.831 192.936C604.006 193.577 604.093 194.359 604.093 195.284V204H601.184V195.259C601.184 194.626 601.113 194.126 600.971 193.76C600.838 193.385 600.638 193.119 600.372 192.961C600.106 192.794 599.768 192.711 599.361 192.711C598.986 192.711 598.64 192.819 598.324 193.036C598.016 193.244 597.75 193.535 597.525 193.91C597.308 194.276 597.142 194.705 597.025 195.196C596.909 195.679 596.851 196.199 596.851 196.757ZM613.272 200.441C613.272 200.158 613.189 199.908 613.022 199.692C612.864 199.467 612.606 199.246 612.248 199.03C611.89 198.813 611.411 198.58 610.812 198.331C610.187 198.072 609.634 197.814 609.151 197.556C608.668 197.298 608.26 197.015 607.927 196.707C607.594 196.391 607.34 196.029 607.165 195.621C606.991 195.213 606.903 194.738 606.903 194.197C606.903 193.639 607.007 193.123 607.215 192.649C607.423 192.174 607.723 191.758 608.114 191.4C608.506 191.034 608.976 190.751 609.526 190.551C610.075 190.343 610.695 190.239 611.386 190.239C612.36 190.239 613.193 190.418 613.884 190.776C614.583 191.125 615.116 191.616 615.482 192.249C615.857 192.873 616.044 193.594 616.044 194.409H613.134C613.134 194.068 613.072 193.76 612.947 193.485C612.822 193.202 612.631 192.978 612.373 192.811C612.115 192.636 611.786 192.549 611.386 192.549C611.02 192.549 610.712 192.62 610.462 192.761C610.221 192.894 610.038 193.077 609.913 193.311C609.796 193.535 609.738 193.789 609.738 194.072C609.738 194.28 609.775 194.464 609.85 194.622C609.925 194.78 610.05 194.934 610.225 195.084C610.4 195.225 610.633 195.371 610.924 195.521C611.224 195.671 611.603 195.841 612.061 196.033C612.968 196.382 613.721 196.745 614.321 197.119C614.92 197.494 615.37 197.931 615.669 198.43C615.969 198.93 616.119 199.55 616.119 200.291C616.119 200.891 616.007 201.432 615.782 201.915C615.565 202.397 615.249 202.814 614.833 203.163C614.425 203.513 613.93 203.784 613.347 203.975C612.772 204.158 612.131 204.25 611.424 204.25C610.366 204.25 609.471 204.042 608.739 203.625C608.015 203.201 607.465 202.655 607.09 201.989C606.716 201.323 606.528 200.62 606.528 199.879H609.338C609.363 200.412 609.476 200.828 609.675 201.128C609.884 201.428 610.146 201.636 610.462 201.752C610.778 201.86 611.107 201.915 611.449 201.915C611.857 201.915 612.194 201.86 612.46 201.752C612.727 201.636 612.926 201.465 613.06 201.24C613.201 201.015 613.272 200.749 613.272 200.441ZM630.817 201.253V194.522C630.817 194.056 630.75 193.681 630.617 193.398C630.492 193.115 630.305 192.911 630.055 192.786C629.814 192.653 629.51 192.586 629.144 192.586C628.761 192.586 628.436 192.665 628.17 192.823C627.912 192.982 627.716 193.198 627.583 193.473C627.45 193.739 627.383 194.047 627.383 194.397H624.473C624.473 193.856 624.582 193.335 624.798 192.836C625.023 192.336 625.343 191.891 625.76 191.5C626.176 191.109 626.679 190.8 627.271 190.576C627.862 190.351 628.519 190.239 629.244 190.239C630.109 190.239 630.88 190.384 631.554 190.676C632.228 190.959 632.757 191.421 633.14 192.062C633.531 192.694 633.727 193.527 633.727 194.559V200.866C633.727 201.49 633.764 202.048 633.839 202.539C633.922 203.022 634.035 203.442 634.176 203.8V204H631.217C631.083 203.675 630.984 203.259 630.917 202.751C630.85 202.243 630.817 201.744 630.817 201.253ZM631.204 195.771L631.217 197.656H629.818C629.402 197.656 629.027 197.715 628.694 197.831C628.361 197.939 628.078 198.097 627.845 198.306C627.62 198.505 627.445 198.751 627.321 199.042C627.204 199.334 627.146 199.654 627.146 200.004C627.146 200.429 627.204 200.774 627.321 201.04C627.445 201.307 627.624 201.507 627.857 201.64C628.099 201.765 628.39 201.827 628.732 201.827C629.198 201.827 629.602 201.727 629.943 201.527C630.293 201.319 630.559 201.07 630.742 200.778C630.934 200.487 631.009 200.22 630.967 199.979L631.629 201.19C631.562 201.507 631.437 201.84 631.254 202.189C631.079 202.539 630.85 202.872 630.567 203.188C630.284 203.505 629.943 203.763 629.543 203.963C629.144 204.154 628.682 204.25 628.157 204.25C627.4 204.25 626.725 204.092 626.134 203.775C625.543 203.459 625.077 203.005 624.736 202.414C624.403 201.815 624.236 201.099 624.236 200.266C624.236 199.592 624.348 198.98 624.573 198.43C624.798 197.881 625.131 197.411 625.572 197.019C626.013 196.62 626.567 196.312 627.233 196.095C627.907 195.879 628.694 195.771 629.593 195.771H631.204ZM639.708 200.978L642.356 190.488H644.191L643.829 193.698L641.194 204H639.571L639.708 200.978ZM638.597 190.488L640.62 201.015L640.632 204H638.809L635.775 190.488H638.597ZM646.327 200.891L648.262 190.488H651.097L648.063 204H646.239L646.327 200.891ZM644.504 190.488L647.114 200.841L647.301 204H645.677L642.993 193.698L642.643 190.488H644.504ZM659.364 201.253V194.522C659.364 194.056 659.297 193.681 659.164 193.398C659.039 193.115 658.852 192.911 658.602 192.786C658.361 192.653 658.057 192.586 657.691 192.586C657.308 192.586 656.983 192.665 656.717 192.823C656.459 192.982 656.263 193.198 656.13 193.473C655.996 193.739 655.93 194.047 655.93 194.397H653.02C653.02 193.856 653.128 193.335 653.345 192.836C653.57 192.336 653.89 191.891 654.306 191.5C654.723 191.109 655.226 190.8 655.817 190.576C656.409 190.351 657.066 190.239 657.791 190.239C658.656 190.239 659.426 190.384 660.101 190.676C660.775 190.959 661.304 191.421 661.687 192.062C662.078 192.694 662.274 193.527 662.274 194.559V200.866C662.274 201.49 662.311 202.048 662.386 202.539C662.469 203.022 662.582 203.442 662.723 203.8V204H659.764C659.63 203.675 659.53 203.259 659.464 202.751C659.397 202.243 659.364 201.744 659.364 201.253ZM659.751 195.771L659.764 197.656H658.365C657.949 197.656 657.574 197.715 657.241 197.831C656.908 197.939 656.625 198.097 656.392 198.306C656.167 198.505 655.992 198.751 655.867 199.042C655.751 199.334 655.693 199.654 655.693 200.004C655.693 200.429 655.751 200.774 655.867 201.04C655.992 201.307 656.171 201.507 656.404 201.64C656.646 201.765 656.937 201.827 657.279 201.827C657.745 201.827 658.149 201.727 658.49 201.527C658.84 201.319 659.106 201.07 659.289 200.778C659.481 200.487 659.555 200.22 659.514 199.979L660.176 201.19C660.109 201.507 659.984 201.84 659.801 202.189C659.626 202.539 659.397 202.872 659.114 203.188C658.831 203.505 658.49 203.763 658.09 203.963C657.691 204.154 657.229 204.25 656.704 204.25C655.947 204.25 655.272 204.092 654.681 203.775C654.09 203.459 653.624 203.005 653.282 202.414C652.949 201.815 652.783 201.099 652.783 200.266C652.783 199.592 652.895 198.98 653.12 198.43C653.345 197.881 653.678 197.411 654.119 197.019C654.56 196.62 655.114 196.312 655.78 196.095C656.454 195.879 657.241 195.771 658.14 195.771H659.751ZM668.343 190.488V204H665.433V190.488H668.343ZM665.283 186.942C665.283 186.476 665.425 186.088 665.708 185.78C665.991 185.472 666.386 185.318 666.894 185.318C667.402 185.318 667.797 185.472 668.08 185.78C668.363 186.088 668.505 186.476 668.505 186.942C668.505 187.4 668.363 187.783 668.08 188.091C667.797 188.399 667.402 188.553 666.894 188.553C666.386 188.553 665.991 188.399 665.708 188.091C665.425 187.783 665.283 187.4 665.283 186.942ZM676.909 190.488V192.736H670.278V190.488H676.909ZM672.089 187.179H674.986V200.229C674.986 200.645 675.032 200.961 675.124 201.178C675.215 201.394 675.344 201.54 675.511 201.615C675.677 201.69 675.873 201.727 676.098 201.727C676.264 201.727 676.426 201.715 676.585 201.69C676.751 201.656 676.872 201.627 676.947 201.602V203.95C676.73 204.033 676.481 204.104 676.197 204.162C675.914 204.221 675.573 204.25 675.173 204.25C674.582 204.25 674.054 204.129 673.588 203.888C673.121 203.638 672.755 203.234 672.489 202.676C672.222 202.11 672.089 201.361 672.089 200.429V187.179ZM682.254 190.488V204H679.344V190.488H682.254ZM679.195 186.942C679.195 186.476 679.336 186.088 679.619 185.78C679.902 185.472 680.298 185.318 680.805 185.318C681.313 185.318 681.709 185.472 681.992 185.78C682.275 186.088 682.416 186.476 682.416 186.942C682.416 187.4 682.275 187.783 681.992 188.091C681.709 188.399 681.313 188.553 680.805 188.553C680.298 188.553 679.902 188.399 679.619 188.091C679.336 187.783 679.195 187.4 679.195 186.942ZM688.236 193.373V204H685.326V190.488H688.061L688.236 193.373ZM687.711 196.757H686.787C686.779 195.783 686.883 194.896 687.099 194.097C687.316 193.298 687.624 192.611 688.023 192.037C688.423 191.462 688.902 191.021 689.459 190.713C690.026 190.397 690.654 190.239 691.345 190.239C691.886 190.239 692.377 190.33 692.819 190.513C693.268 190.688 693.651 190.975 693.967 191.375C694.284 191.775 694.525 192.295 694.692 192.936C694.867 193.577 694.954 194.359 694.954 195.284V204H692.044V195.259C692.044 194.626 691.974 194.126 691.832 193.76C691.699 193.385 691.499 193.119 691.233 192.961C690.966 192.794 690.629 192.711 690.221 192.711C689.847 192.711 689.501 192.819 689.185 193.036C688.877 193.244 688.61 193.535 688.385 193.91C688.169 194.276 688.003 194.705 687.886 195.196C687.769 195.679 687.711 196.199 687.711 196.757ZM705.082 190.488H707.716V204.05C707.716 205.265 707.492 206.26 707.042 207.035C706.601 207.817 705.985 208.396 705.194 208.77C704.403 209.145 703.487 209.332 702.447 209.332C702.064 209.332 701.61 209.27 701.085 209.145C700.561 209.02 700.049 208.837 699.549 208.595C699.05 208.354 698.634 208.054 698.301 207.696L699.362 205.673C699.753 206.073 700.215 206.381 700.748 206.597C701.281 206.822 701.793 206.935 702.284 206.935C702.817 206.935 703.267 206.843 703.633 206.66C704.008 206.485 704.295 206.19 704.495 205.773C704.694 205.365 704.794 204.812 704.794 204.112V193.548L705.082 190.488ZM697.439 197.794V196.732C697.439 195.625 697.543 194.668 697.751 193.86C697.959 193.044 698.259 192.366 698.65 191.824C699.042 191.283 699.52 190.884 700.086 190.626C700.653 190.368 701.285 190.239 701.985 190.239C702.709 190.239 703.321 190.393 703.82 190.701C704.328 191 704.74 191.429 705.057 191.987C705.381 192.545 705.635 193.211 705.818 193.985C706.001 194.751 706.135 195.608 706.218 196.557V198.031C706.135 198.947 705.993 199.787 705.793 200.553C705.594 201.311 705.323 201.965 704.982 202.514C704.649 203.063 704.232 203.492 703.733 203.8C703.242 204.1 702.651 204.25 701.96 204.25C701.269 204.25 700.644 204.112 700.086 203.838C699.529 203.563 699.05 203.155 698.65 202.614C698.259 202.073 697.959 201.403 697.751 200.603C697.543 199.796 697.439 198.859 697.439 197.794ZM700.349 196.732V197.794C700.349 198.485 700.394 199.08 700.486 199.579C700.586 200.079 700.732 200.491 700.923 200.816C701.115 201.132 701.364 201.369 701.672 201.527C701.98 201.677 702.347 201.752 702.771 201.752C703.329 201.752 703.779 201.619 704.12 201.353C704.47 201.086 704.736 200.728 704.919 200.279C705.111 199.821 705.244 199.313 705.319 198.755V195.846C705.277 195.404 705.194 194.996 705.069 194.622C704.952 194.239 704.79 193.906 704.582 193.623C704.382 193.34 704.132 193.119 703.833 192.961C703.541 192.794 703.196 192.711 702.796 192.711C702.38 192.711 702.014 192.794 701.697 192.961C701.389 193.119 701.135 193.365 700.936 193.698C700.736 194.022 700.586 194.439 700.486 194.946C700.394 195.446 700.349 196.041 700.349 196.732ZM721.328 201.815C721.703 201.815 722.036 201.736 722.327 201.577C722.627 201.419 722.864 201.174 723.039 200.841C723.214 200.499 723.309 200.058 723.326 199.517H726.061C726.044 200.474 725.824 201.311 725.399 202.027C724.974 202.735 724.408 203.284 723.701 203.675C723.001 204.058 722.223 204.25 721.365 204.25C720.475 204.25 719.696 204.108 719.03 203.825C718.373 203.534 717.827 203.113 717.394 202.564C716.961 202.014 716.637 201.348 716.42 200.566C716.212 199.775 716.108 198.872 716.108 197.856V196.632C716.108 195.625 716.212 194.726 716.42 193.935C716.637 193.144 716.961 192.474 717.394 191.924C717.827 191.375 718.373 190.959 719.03 190.676C719.688 190.384 720.462 190.239 721.353 190.239C722.302 190.239 723.122 190.438 723.813 190.838C724.512 191.229 725.058 191.804 725.449 192.561C725.84 193.319 726.044 194.247 726.061 195.346H723.326C723.309 194.763 723.222 194.276 723.064 193.885C722.906 193.485 722.681 193.186 722.389 192.986C722.106 192.786 721.748 192.686 721.316 192.686C720.841 192.686 720.45 192.778 720.142 192.961C719.842 193.136 719.609 193.394 719.442 193.735C719.284 194.076 719.172 194.493 719.105 194.984C719.047 195.467 719.018 196.016 719.018 196.632V197.856C719.018 198.489 719.047 199.051 719.105 199.542C719.163 200.025 719.272 200.437 719.43 200.778C719.596 201.12 719.834 201.378 720.142 201.552C720.45 201.727 720.845 201.815 721.328 201.815ZM727.897 197.794V196.707C727.897 195.658 728.026 194.73 728.284 193.922C728.542 193.115 728.908 192.441 729.383 191.899C729.865 191.35 730.432 190.938 731.081 190.663C731.73 190.38 732.446 190.239 733.229 190.239C734.028 190.239 734.752 190.38 735.402 190.663C736.059 190.938 736.625 191.35 737.1 191.899C737.583 192.441 737.953 193.115 738.211 193.922C738.47 194.73 738.599 195.658 738.599 196.707V197.794C738.599 198.843 738.47 199.771 738.211 200.578C737.953 201.386 737.583 202.064 737.1 202.614C736.625 203.155 736.064 203.563 735.414 203.838C734.765 204.112 734.045 204.25 733.254 204.25C732.471 204.25 731.751 204.112 731.093 203.838C730.444 203.563 729.878 203.155 729.395 202.614C728.912 202.064 728.542 201.386 728.284 200.578C728.026 199.771 727.897 198.843 727.897 197.794ZM730.806 196.707V197.794C730.806 198.468 730.865 199.059 730.981 199.567C731.098 200.066 731.264 200.483 731.481 200.816C731.697 201.149 731.955 201.398 732.255 201.565C732.555 201.731 732.888 201.815 733.254 201.815C733.662 201.815 734.016 201.731 734.315 201.565C734.623 201.398 734.877 201.149 735.077 200.816C735.285 200.483 735.439 200.066 735.539 199.567C735.639 199.059 735.689 198.468 735.689 197.794V196.707C735.689 196.041 735.631 195.458 735.514 194.959C735.398 194.451 735.231 194.031 735.015 193.698C734.798 193.356 734.536 193.102 734.228 192.936C733.928 192.769 733.595 192.686 733.229 192.686C732.871 192.686 732.542 192.769 732.242 192.936C731.951 193.102 731.697 193.356 731.481 193.698C731.264 194.031 731.098 194.451 730.981 194.959C730.865 195.458 730.806 196.041 730.806 196.707ZM743.981 193.373V204H741.071V190.488H743.806L743.981 193.373ZM743.456 196.757H742.532C742.524 195.783 742.628 194.896 742.844 194.097C743.061 193.298 743.369 192.611 743.768 192.037C744.168 191.462 744.647 191.021 745.205 190.713C745.771 190.397 746.399 190.239 747.09 190.239C747.631 190.239 748.123 190.33 748.564 190.513C749.013 190.688 749.396 190.975 749.713 191.375C750.029 191.775 750.27 192.295 750.437 192.936C750.612 193.577 750.699 194.359 750.699 195.284V204H747.79V195.259C747.79 194.626 747.719 194.126 747.577 193.76C747.444 193.385 747.244 193.119 746.978 192.961C746.711 192.794 746.374 192.711 745.966 192.711C745.592 192.711 745.246 192.819 744.93 193.036C744.622 193.244 744.355 193.535 744.131 193.91C743.914 194.276 743.748 194.705 743.631 195.196C743.515 195.679 743.456 196.199 743.456 196.757ZM757.205 204H754.296V189.639C754.296 188.54 754.487 187.616 754.87 186.867C755.253 186.109 755.807 185.535 756.531 185.144C757.255 184.752 758.117 184.557 759.116 184.557C759.699 184.557 760.252 184.627 760.777 184.769C761.31 184.91 761.859 185.089 762.425 185.306L761.976 187.816C761.643 187.666 761.251 187.529 760.802 187.404C760.36 187.279 759.865 187.217 759.316 187.217C758.566 187.217 758.025 187.42 757.692 187.828C757.368 188.228 757.205 188.832 757.205 189.639V204ZM759.341 190.488V192.736H752.597V190.488H759.341ZM763.774 190.488V204H760.864V190.488H763.774ZM769.843 193.098V204H766.933V190.488H769.705L769.843 193.098ZM773.102 190.401L773.09 193.273C772.923 193.231 772.744 193.206 772.553 193.198C772.369 193.181 772.186 193.173 772.003 193.173C771.604 193.173 771.258 193.244 770.967 193.385C770.675 193.527 770.43 193.731 770.23 193.997C770.03 194.264 769.872 194.584 769.755 194.959C769.647 195.334 769.581 195.758 769.556 196.233L768.931 196.258C768.931 195.408 768.998 194.622 769.131 193.897C769.264 193.165 769.464 192.528 769.73 191.987C770.005 191.437 770.346 191.009 770.754 190.701C771.162 190.393 771.637 190.239 772.178 190.239C772.328 190.239 772.499 190.255 772.69 190.288C772.881 190.322 773.019 190.359 773.102 190.401ZM778.022 193.236V204H775.113V190.488H777.847L778.022 193.236ZM777.548 196.757H776.561C776.545 195.816 776.628 194.951 776.811 194.16C777.002 193.369 777.285 192.678 777.66 192.087C778.043 191.496 778.522 191.042 779.096 190.726C779.679 190.401 780.349 190.239 781.107 190.239C781.615 190.239 782.081 190.33 782.505 190.513C782.938 190.688 783.313 190.967 783.629 191.35C783.954 191.733 784.204 192.224 784.379 192.823C784.553 193.423 784.641 194.147 784.641 194.996V204H781.731V195.271C781.731 194.622 781.656 194.114 781.506 193.748C781.365 193.373 781.157 193.107 780.882 192.948C780.607 192.79 780.274 192.711 779.883 192.711C779.458 192.711 779.096 192.819 778.796 193.036C778.497 193.244 778.255 193.535 778.072 193.91C777.889 194.276 777.756 194.705 777.673 195.196C777.589 195.679 777.548 196.199 777.548 196.757ZM784.453 195.983L783.092 196.295C783.076 195.471 783.159 194.692 783.342 193.96C783.525 193.227 783.8 192.586 784.166 192.037C784.541 191.479 785.007 191.042 785.565 190.726C786.131 190.401 786.784 190.239 787.525 190.239C788.108 190.239 788.628 190.334 789.086 190.526C789.544 190.709 789.936 191 790.26 191.4C790.585 191.8 790.83 192.32 790.997 192.961C791.172 193.594 791.259 194.364 791.259 195.271V204H788.337V195.259C788.337 194.584 788.262 194.064 788.112 193.698C787.971 193.331 787.763 193.077 787.488 192.936C787.213 192.786 786.884 192.711 786.501 192.711C786.168 192.711 785.873 192.799 785.615 192.973C785.365 193.14 785.153 193.373 784.978 193.673C784.803 193.972 784.67 194.322 784.578 194.722C784.495 195.113 784.453 195.533 784.453 195.983ZM800.475 201.253V194.522C800.475 194.056 800.409 193.681 800.275 193.398C800.15 193.115 799.963 192.911 799.713 192.786C799.472 192.653 799.168 192.586 798.802 192.586C798.419 192.586 798.094 192.665 797.828 192.823C797.57 192.982 797.374 193.198 797.241 193.473C797.108 193.739 797.041 194.047 797.041 194.397H794.131C794.131 193.856 794.24 193.335 794.456 192.836C794.681 192.336 795.001 191.891 795.418 191.5C795.834 191.109 796.338 190.8 796.929 190.576C797.52 190.351 798.177 190.239 798.902 190.239C799.768 190.239 800.538 190.384 801.212 190.676C801.886 190.959 802.415 191.421 802.798 192.062C803.189 192.694 803.385 193.527 803.385 194.559V200.866C803.385 201.49 803.422 202.048 803.497 202.539C803.58 203.022 803.693 203.442 803.834 203.8V204H800.875C800.742 203.675 800.642 203.259 800.575 202.751C800.508 202.243 800.475 201.744 800.475 201.253ZM800.862 195.771L800.875 197.656H799.476C799.06 197.656 798.685 197.715 798.352 197.831C798.019 197.939 797.736 198.097 797.503 198.306C797.278 198.505 797.103 198.751 796.979 199.042C796.862 199.334 796.804 199.654 796.804 200.004C796.804 200.429 796.862 200.774 796.979 201.04C797.103 201.307 797.282 201.507 797.516 201.64C797.757 201.765 798.048 201.827 798.39 201.827C798.856 201.827 799.26 201.727 799.601 201.527C799.951 201.319 800.217 201.07 800.4 200.778C800.592 200.487 800.667 200.22 800.625 199.979L801.287 201.19C801.22 201.507 801.095 201.84 800.912 202.189C800.737 202.539 800.508 202.872 800.225 203.188C799.942 203.505 799.601 203.763 799.201 203.963C798.802 204.154 798.34 204.25 797.815 204.25C797.058 204.25 796.383 204.092 795.792 203.775C795.201 203.459 794.735 203.005 794.394 202.414C794.061 201.815 793.894 201.099 793.894 200.266C793.894 199.592 794.007 198.98 794.231 198.43C794.456 197.881 794.789 197.411 795.23 197.019C795.672 196.62 796.225 196.312 796.891 196.095C797.566 195.879 798.352 195.771 799.251 195.771H800.862ZM811.826 190.488V192.736H805.196V190.488H811.826ZM807.006 187.179H809.903V200.229C809.903 200.645 809.949 200.961 810.041 201.178C810.132 201.394 810.261 201.54 810.428 201.615C810.594 201.69 810.79 201.727 811.015 201.727C811.181 201.727 811.344 201.715 811.502 201.69C811.668 201.656 811.789 201.627 811.864 201.602V203.95C811.647 204.033 811.398 204.104 811.115 204.162C810.832 204.221 810.49 204.25 810.091 204.25C809.5 204.25 808.971 204.129 808.505 203.888C808.039 203.638 807.672 203.234 807.406 202.676C807.139 202.11 807.006 201.361 807.006 200.429V187.179ZM817.171 190.488V204H814.262V190.488H817.171ZM814.112 186.942C814.112 186.476 814.253 186.088 814.536 185.78C814.819 185.472 815.215 185.318 815.723 185.318C816.23 185.318 816.626 185.472 816.909 185.78C817.192 186.088 817.334 186.476 817.334 186.942C817.334 187.4 817.192 187.783 816.909 188.091C816.626 188.399 816.23 188.553 815.723 188.553C815.215 188.553 814.819 188.399 814.536 188.091C814.253 187.783 814.112 187.4 814.112 186.942ZM819.856 197.794V196.707C819.856 195.658 819.985 194.73 820.243 193.922C820.501 193.115 820.868 192.441 821.342 191.899C821.825 191.35 822.391 190.938 823.04 190.663C823.69 190.38 824.406 190.239 825.188 190.239C825.988 190.239 826.712 190.38 827.361 190.663C828.019 190.938 828.585 191.35 829.06 191.899C829.542 192.441 829.913 193.115 830.171 193.922C830.429 194.73 830.558 195.658 830.558 196.707V197.794C830.558 198.843 830.429 199.771 830.171 200.578C829.913 201.386 829.542 202.064 829.06 202.614C828.585 203.155 828.023 203.563 827.374 203.838C826.724 204.112 826.004 204.25 825.213 204.25C824.431 204.25 823.711 204.112 823.053 203.838C822.404 203.563 821.837 203.155 821.355 202.614C820.872 202.064 820.501 201.386 820.243 200.578C819.985 199.771 819.856 198.843 819.856 197.794ZM822.766 196.707V197.794C822.766 198.468 822.824 199.059 822.941 199.567C823.057 200.066 823.224 200.483 823.44 200.816C823.657 201.149 823.915 201.398 824.214 201.565C824.514 201.731 824.847 201.815 825.213 201.815C825.621 201.815 825.975 201.731 826.275 201.565C826.583 201.398 826.837 201.149 827.037 200.816C827.245 200.483 827.399 200.066 827.499 199.567C827.598 199.059 827.648 198.468 827.648 197.794V196.707C827.648 196.041 827.59 195.458 827.474 194.959C827.357 194.451 827.191 194.031 826.974 193.698C826.758 193.356 826.495 193.102 826.187 192.936C825.888 192.769 825.555 192.686 825.188 192.686C824.83 192.686 824.502 192.769 824.202 192.936C823.91 193.102 823.657 193.356 823.44 193.698C823.224 194.031 823.057 194.451 822.941 194.959C822.824 195.458 822.766 196.041 822.766 196.707ZM835.94 193.373V204H833.031V190.488H835.765L835.94 193.373ZM835.416 196.757H834.492C834.483 195.783 834.587 194.896 834.804 194.097C835.02 193.298 835.328 192.611 835.728 192.037C836.128 191.462 836.606 191.021 837.164 190.713C837.73 190.397 838.359 190.239 839.05 190.239C839.591 190.239 840.082 190.33 840.523 190.513C840.973 190.688 841.356 190.975 841.672 191.375C841.988 191.775 842.23 192.295 842.396 192.936C842.571 193.577 842.659 194.359 842.659 195.284V204H839.749V195.259C839.749 194.626 839.678 194.126 839.537 193.76C839.404 193.385 839.204 193.119 838.937 192.961C838.671 192.794 838.334 192.711 837.926 192.711C837.551 192.711 837.206 192.819 836.889 193.036C836.581 193.244 836.315 193.535 836.09 193.91C835.874 194.276 835.707 194.705 835.591 195.196C835.474 195.679 835.416 196.199 835.416 196.757ZM857.744 201.253V194.522C857.744 194.056 857.677 193.681 857.544 193.398C857.419 193.115 857.232 192.911 856.982 192.786C856.741 192.653 856.437 192.586 856.07 192.586C855.688 192.586 855.363 192.665 855.096 192.823C854.838 192.982 854.643 193.198 854.509 193.473C854.376 193.739 854.31 194.047 854.31 194.397H851.4C851.4 193.856 851.508 193.335 851.725 192.836C851.95 192.336 852.27 191.891 852.686 191.5C853.103 191.109 853.606 190.8 854.197 190.576C854.788 190.351 855.446 190.239 856.17 190.239C857.036 190.239 857.806 190.384 858.481 190.676C859.155 190.959 859.684 191.421 860.067 192.062C860.458 192.694 860.653 193.527 860.653 194.559V200.866C860.653 201.49 860.691 202.048 860.766 202.539C860.849 203.022 860.961 203.442 861.103 203.8V204H858.143C858.01 203.675 857.91 203.259 857.844 202.751C857.777 202.243 857.744 201.744 857.744 201.253ZM858.131 195.771L858.143 197.656H856.745C856.329 197.656 855.954 197.715 855.621 197.831C855.288 197.939 855.005 198.097 854.772 198.306C854.547 198.505 854.372 198.751 854.247 199.042C854.131 199.334 854.072 199.654 854.072 200.004C854.072 200.429 854.131 200.774 854.247 201.04C854.372 201.307 854.551 201.507 854.784 201.64C855.026 201.765 855.317 201.827 855.658 201.827C856.125 201.827 856.528 201.727 856.87 201.527C857.219 201.319 857.486 201.07 857.669 200.778C857.86 200.487 857.935 200.22 857.894 199.979L858.556 201.19C858.489 201.507 858.364 201.84 858.181 202.189C858.006 202.539 857.777 202.872 857.494 203.188C857.211 203.505 856.87 203.763 856.47 203.963C856.07 204.154 855.608 204.25 855.084 204.25C854.326 204.25 853.652 204.092 853.061 203.775C852.47 203.459 852.004 203.005 851.662 202.414C851.329 201.815 851.163 201.099 851.163 200.266C851.163 199.592 851.275 198.98 851.5 198.43C851.725 197.881 852.058 197.411 852.499 197.019C852.94 196.62 853.494 196.312 854.16 196.095C854.834 195.879 855.621 195.771 856.52 195.771H858.131ZM869.095 190.488V192.736H862.464V190.488H869.095ZM864.275 187.179H867.172V200.229C867.172 200.645 867.218 200.961 867.309 201.178C867.401 201.394 867.53 201.54 867.697 201.615C867.863 201.69 868.059 201.727 868.283 201.727C868.45 201.727 868.612 201.715 868.77 201.69C868.937 201.656 869.058 201.627 869.133 201.602V203.95C868.916 204.033 868.666 204.104 868.383 204.162C868.1 204.221 867.759 204.25 867.359 204.25C866.768 204.25 866.24 204.129 865.773 203.888C865.307 203.638 864.941 203.234 864.674 202.676C864.408 202.11 864.275 201.361 864.275 200.429V187.179ZM882.707 190.488V192.736H876.076V190.488H882.707ZM877.887 187.179H880.784V200.229C880.784 200.645 880.829 200.961 880.921 201.178C881.013 201.394 881.142 201.54 881.308 201.615C881.475 201.69 881.67 201.727 881.895 201.727C882.062 201.727 882.224 201.715 882.382 201.69C882.549 201.656 882.669 201.627 882.744 201.602V203.95C882.528 204.033 882.278 204.104 881.995 204.162C881.712 204.221 881.371 204.25 880.971 204.25C880.38 204.25 879.851 204.129 879.385 203.888C878.919 203.638 878.553 203.234 878.286 202.676C878.02 202.11 877.887 201.361 877.887 200.429V187.179ZM887.827 184.819V204H884.93V184.819H887.827ZM887.315 196.757H886.391C886.382 195.816 886.482 194.951 886.69 194.16C886.898 193.369 887.198 192.678 887.589 192.087C887.981 191.496 888.451 191.042 889.001 190.726C889.558 190.401 890.174 190.239 890.849 190.239C891.407 190.239 891.91 190.334 892.36 190.526C892.818 190.709 893.209 191 893.534 191.4C893.867 191.8 894.121 192.324 894.295 192.973C894.47 193.614 894.558 194.397 894.558 195.321V204H891.648V195.296C891.648 194.655 891.577 194.147 891.436 193.773C891.302 193.398 891.103 193.127 890.836 192.961C890.57 192.794 890.233 192.711 889.825 192.711C889.425 192.711 889.067 192.819 888.751 193.036C888.443 193.244 888.181 193.535 887.964 193.91C887.748 194.276 887.585 194.705 887.477 195.196C887.369 195.679 887.315 196.199 887.315 196.757ZM902.625 204.25C901.751 204.25 900.972 204.121 900.289 203.863C899.607 203.596 899.028 203.205 898.554 202.689C898.079 202.164 897.717 201.523 897.467 200.766C897.217 200 897.093 199.113 897.093 198.106V196.807C897.093 195.667 897.222 194.684 897.48 193.86C897.746 193.027 898.112 192.345 898.579 191.812C899.045 191.279 899.594 190.884 900.227 190.626C900.868 190.368 901.563 190.239 902.312 190.239C903.162 190.239 903.898 190.376 904.523 190.651C905.147 190.925 905.659 191.337 906.059 191.887C906.467 192.436 906.766 193.115 906.958 193.922C907.158 194.73 907.258 195.658 907.258 196.707V198.168H898.491V195.97H904.385V195.658C904.369 195.042 904.294 194.514 904.161 194.072C904.027 193.623 903.811 193.281 903.511 193.048C903.22 192.807 902.816 192.686 902.3 192.686C901.925 192.686 901.592 192.757 901.301 192.898C901.01 193.04 900.768 193.269 900.577 193.585C900.394 193.902 900.252 194.326 900.152 194.859C900.052 195.383 900.002 196.033 900.002 196.807V198.106C900.002 198.78 900.061 199.35 900.177 199.817C900.302 200.283 900.485 200.666 900.727 200.965C900.968 201.257 901.259 201.473 901.601 201.615C901.95 201.748 902.354 201.815 902.812 201.815C903.486 201.815 904.065 201.69 904.548 201.44C905.039 201.182 905.464 200.849 905.822 200.441L907.108 202.227C906.866 202.551 906.542 202.872 906.134 203.188C905.726 203.496 905.23 203.75 904.648 203.95C904.073 204.15 903.399 204.25 902.625 204.25ZM918.409 193.236V204H915.499V190.488H918.234L918.409 193.236ZM917.935 196.757H916.948C916.931 195.816 917.015 194.951 917.198 194.16C917.389 193.369 917.672 192.678 918.047 192.087C918.43 191.496 918.909 191.042 919.483 190.726C920.066 190.401 920.736 190.239 921.494 190.239C922.001 190.239 922.468 190.33 922.892 190.513C923.325 190.688 923.7 190.967 924.016 191.35C924.341 191.733 924.591 192.224 924.765 192.823C924.94 193.423 925.028 194.147 925.028 194.996V204H922.118V195.271C922.118 194.622 922.043 194.114 921.893 193.748C921.752 193.373 921.544 193.107 921.269 192.948C920.994 192.79 920.661 192.711 920.27 192.711C919.845 192.711 919.483 192.819 919.183 193.036C918.884 193.244 918.642 193.535 918.459 193.91C918.276 194.276 918.143 194.705 918.059 195.196C917.976 195.679 917.935 196.199 917.935 196.757ZM924.84 195.983L923.479 196.295C923.462 195.471 923.546 194.692 923.729 193.96C923.912 193.227 924.187 192.586 924.553 192.037C924.928 191.479 925.394 191.042 925.952 190.726C926.518 190.401 927.171 190.239 927.912 190.239C928.495 190.239 929.015 190.334 929.473 190.526C929.931 190.709 930.322 191 930.647 191.4C930.972 191.8 931.217 192.32 931.384 192.961C931.559 193.594 931.646 194.364 931.646 195.271V204H928.724V195.259C928.724 194.584 928.649 194.064 928.499 193.698C928.358 193.331 928.15 193.077 927.875 192.936C927.6 192.786 927.271 192.711 926.888 192.711C926.555 192.711 926.26 192.799 926.002 192.973C925.752 193.14 925.54 193.373 925.365 193.673C925.19 193.972 925.057 194.322 924.965 194.722C924.882 195.113 924.84 195.533 924.84 195.983ZM934.169 197.794V196.707C934.169 195.658 934.298 194.73 934.556 193.922C934.814 193.115 935.18 192.441 935.655 191.899C936.138 191.35 936.704 190.938 937.353 190.663C938.002 190.38 938.718 190.239 939.501 190.239C940.3 190.239 941.024 190.38 941.674 190.663C942.331 190.938 942.898 191.35 943.372 191.899C943.855 192.441 944.225 193.115 944.483 193.922C944.742 194.73 944.871 195.658 944.871 196.707V197.794C944.871 198.843 944.742 199.771 944.483 200.578C944.225 201.386 943.855 202.064 943.372 202.614C942.898 203.155 942.336 203.563 941.686 203.838C941.037 204.112 940.317 204.25 939.526 204.25C938.743 204.25 938.023 204.112 937.365 203.838C936.716 203.563 936.15 203.155 935.667 202.614C935.184 202.064 934.814 201.386 934.556 200.578C934.298 199.771 934.169 198.843 934.169 197.794ZM937.078 196.707V197.794C937.078 198.468 937.137 199.059 937.253 199.567C937.37 200.066 937.536 200.483 937.753 200.816C937.969 201.149 938.227 201.398 938.527 201.565C938.827 201.731 939.16 201.815 939.526 201.815C939.934 201.815 940.288 201.731 940.587 201.565C940.895 201.398 941.149 201.149 941.349 200.816C941.557 200.483 941.711 200.066 941.811 199.567C941.911 199.059 941.961 198.468 941.961 197.794V196.707C941.961 196.041 941.903 195.458 941.786 194.959C941.67 194.451 941.503 194.031 941.287 193.698C941.07 193.356 940.808 193.102 940.5 192.936C940.2 192.769 939.867 192.686 939.501 192.686C939.143 192.686 938.814 192.769 938.514 192.936C938.223 193.102 937.969 193.356 937.753 193.698C937.536 194.031 937.37 194.451 937.253 194.959C937.137 195.458 937.078 196.041 937.078 196.707ZM950.303 193.236V204H947.393V190.488H950.128L950.303 193.236ZM949.828 196.757H948.842C948.825 195.816 948.908 194.951 949.091 194.16C949.283 193.369 949.566 192.678 949.941 192.087C950.324 191.496 950.802 191.042 951.377 190.726C951.959 190.401 952.63 190.239 953.387 190.239C953.895 190.239 954.361 190.33 954.786 190.513C955.219 190.688 955.593 190.967 955.91 191.35C956.234 191.733 956.484 192.224 956.659 192.823C956.834 193.423 956.921 194.147 956.921 194.996V204H954.012V195.271C954.012 194.622 953.937 194.114 953.787 193.748C953.645 193.373 953.437 193.107 953.162 192.948C952.888 192.79 952.555 192.711 952.163 192.711C951.739 192.711 951.377 192.819 951.077 193.036C950.777 193.244 950.536 193.535 950.353 193.91C950.17 194.276 950.036 194.705 949.953 195.196C949.87 195.679 949.828 196.199 949.828 196.757ZM956.734 195.983L955.373 196.295C955.356 195.471 955.439 194.692 955.623 193.96C955.806 193.227 956.08 192.586 956.447 192.037C956.821 191.479 957.288 191.042 957.845 190.726C958.411 190.401 959.065 190.239 959.806 190.239C960.389 190.239 960.909 190.334 961.367 190.526C961.825 190.709 962.216 191 962.541 191.4C962.865 191.8 963.111 192.32 963.277 192.961C963.452 193.594 963.54 194.364 963.54 195.271V204H960.618V195.259C960.618 194.584 960.543 194.064 960.393 193.698C960.251 193.331 960.043 193.077 959.768 192.936C959.494 192.786 959.165 192.711 958.782 192.711C958.449 192.711 958.153 192.799 957.895 192.973C957.646 193.14 957.433 193.373 957.258 193.673C957.084 193.972 956.95 194.322 956.859 194.722C956.776 195.113 956.734 195.533 956.734 195.983ZM971.657 204.25C970.783 204.25 970.004 204.121 969.322 203.863C968.639 203.596 968.06 203.205 967.586 202.689C967.111 202.164 966.749 201.523 966.499 200.766C966.25 200 966.125 199.113 966.125 198.106V196.807C966.125 195.667 966.254 194.684 966.512 193.86C966.778 193.027 967.145 192.345 967.611 191.812C968.077 191.279 968.626 190.884 969.259 190.626C969.9 190.368 970.595 190.239 971.345 190.239C972.194 190.239 972.93 190.376 973.555 190.651C974.179 190.925 974.691 191.337 975.091 191.887C975.499 192.436 975.798 193.115 975.99 193.922C976.19 194.73 976.29 195.658 976.29 196.707V198.168H967.523V195.97H973.418V195.658C973.401 195.042 973.326 194.514 973.193 194.072C973.06 193.623 972.843 193.281 972.543 193.048C972.252 192.807 971.848 192.686 971.332 192.686C970.957 192.686 970.624 192.757 970.333 192.898C970.042 193.04 969.8 193.269 969.609 193.585C969.426 193.902 969.284 194.326 969.184 194.859C969.084 195.383 969.034 196.033 969.034 196.807V198.106C969.034 198.78 969.093 199.35 969.209 199.817C969.334 200.283 969.517 200.666 969.759 200.965C970 201.257 970.291 201.473 970.633 201.615C970.982 201.748 971.386 201.815 971.844 201.815C972.518 201.815 973.097 201.69 973.58 201.44C974.071 201.182 974.496 200.849 974.854 200.441L976.14 202.227C975.898 202.551 975.574 202.872 975.166 203.188C974.758 203.496 974.263 203.75 973.68 203.95C973.105 204.15 972.431 204.25 971.657 204.25ZM981.497 193.373V204H978.587V190.488H981.322L981.497 193.373ZM980.973 196.757H980.048C980.04 195.783 980.144 194.896 980.361 194.097C980.577 193.298 980.885 192.611 981.285 192.037C981.684 191.462 982.163 191.021 982.721 190.713C983.287 190.397 983.916 190.239 984.606 190.239C985.148 190.239 985.639 190.33 986.08 190.513C986.53 190.688 986.913 190.975 987.229 191.375C987.545 191.775 987.787 192.295 987.953 192.936C988.128 193.577 988.215 194.359 988.215 195.284V204H985.306V195.259C985.306 194.626 985.235 194.126 985.094 193.76C984.96 193.385 984.761 193.119 984.494 192.961C984.228 192.794 983.891 192.711 983.483 192.711C983.108 192.711 982.762 192.819 982.446 193.036C982.138 193.244 981.872 193.535 981.647 193.91C981.43 194.276 981.264 194.705 981.147 195.196C981.031 195.679 980.973 196.199 980.973 196.757ZM996.595 190.488V192.736H989.964V190.488H996.595ZM991.774 187.179H994.672V200.229C994.672 200.645 994.717 200.961 994.809 201.178C994.901 201.394 995.03 201.54 995.196 201.615C995.363 201.69 995.558 201.727 995.783 201.727C995.95 201.727 996.112 201.715 996.27 201.69C996.437 201.656 996.557 201.627 996.632 201.602V203.95C996.416 204.033 996.166 204.104 995.883 204.162C995.6 204.221 995.259 204.25 994.859 204.25C994.268 204.25 993.739 204.129 993.273 203.888C992.807 203.638 992.44 203.234 992.174 202.676C991.908 202.11 991.774 201.361 991.774 200.429V187.179ZM999.08 202.476C999.08 201.994 999.234 201.59 999.542 201.265C999.858 200.941 1000.29 200.778 1000.84 200.778C1001.39 200.778 1001.82 200.941 1002.13 201.265C1002.44 201.59 1002.6 201.994 1002.6 202.476C1002.6 202.943 1002.44 203.338 1002.13 203.663C1001.82 203.988 1001.39 204.15 1000.84 204.15C1000.29 204.15 999.858 203.988 999.542 203.663C999.234 203.338 999.08 202.943 999.08 202.476ZM559.999 228.068H563.021C562.963 229.384 562.697 230.503 562.222 231.428C561.748 232.343 561.065 233.043 560.174 233.525C559.292 234.008 558.214 234.25 556.94 234.25C555.974 234.25 555.108 234.075 554.342 233.725C553.585 233.376 552.94 232.872 552.407 232.214C551.874 231.548 551.466 230.737 551.183 229.779C550.908 228.822 550.771 227.735 550.771 226.52V223.298C550.771 222.083 550.912 220.996 551.195 220.039C551.487 219.081 551.903 218.27 552.444 217.604C552.985 216.938 553.643 216.434 554.417 216.093C555.2 215.743 556.082 215.568 557.065 215.568C558.322 215.568 559.379 215.81 560.237 216.292C561.094 216.775 561.756 217.483 562.222 218.415C562.688 219.348 562.959 220.484 563.034 221.824H560.012C559.97 220.917 559.845 220.193 559.637 219.652C559.437 219.102 559.129 218.707 558.713 218.465C558.305 218.224 557.756 218.103 557.065 218.103C556.49 218.103 555.995 218.211 555.579 218.428C555.171 218.644 554.834 218.969 554.567 219.402C554.309 219.826 554.113 220.363 553.98 221.013C553.855 221.654 553.793 222.407 553.793 223.273V226.52C553.793 227.352 553.847 228.089 553.955 228.73C554.063 229.371 554.238 229.917 554.48 230.366C554.721 230.807 555.042 231.144 555.441 231.378C555.841 231.602 556.34 231.715 556.94 231.715C557.656 231.715 558.226 231.602 558.651 231.378C559.084 231.153 559.404 230.774 559.612 230.241C559.82 229.708 559.949 228.984 559.999 228.068ZM568.316 214.819V234H565.419V214.819H568.316ZM567.804 226.757H566.88C566.872 225.816 566.972 224.951 567.18 224.16C567.388 223.369 567.688 222.678 568.079 222.087C568.47 221.496 568.94 221.042 569.49 220.726C570.048 220.401 570.664 220.239 571.338 220.239C571.896 220.239 572.4 220.334 572.849 220.526C573.307 220.709 573.698 221 574.023 221.4C574.356 221.8 574.61 222.324 574.785 222.973C574.96 223.614 575.047 224.397 575.047 225.321V234H572.137V225.296C572.137 224.655 572.067 224.147 571.925 223.773C571.792 223.398 571.592 223.127 571.326 222.961C571.059 222.794 570.722 222.711 570.314 222.711C569.915 222.711 569.557 222.819 569.24 223.036C568.932 223.244 568.67 223.535 568.453 223.91C568.237 224.276 568.075 224.705 567.966 225.196C567.858 225.679 567.804 226.199 567.804 226.757ZM583.114 234.25C582.24 234.25 581.461 234.121 580.779 233.863C580.096 233.596 579.518 233.205 579.043 232.689C578.568 232.164 578.206 231.523 577.957 230.766C577.707 230 577.582 229.113 577.582 228.106V226.807C577.582 225.667 577.711 224.684 577.969 223.86C578.235 223.027 578.602 222.345 579.068 221.812C579.534 221.279 580.084 220.884 580.716 220.626C581.357 220.368 582.053 220.239 582.802 220.239C583.651 220.239 584.388 220.376 585.012 220.651C585.637 220.925 586.149 221.337 586.548 221.887C586.956 222.436 587.256 223.115 587.447 223.922C587.647 224.73 587.747 225.658 587.747 226.707V228.168H578.981V225.97H584.875V225.658C584.858 225.042 584.783 224.514 584.65 224.072C584.517 223.623 584.3 223.281 584.001 223.048C583.709 222.807 583.306 222.686 582.789 222.686C582.415 222.686 582.082 222.757 581.79 222.898C581.499 223.04 581.258 223.269 581.066 223.585C580.883 223.902 580.741 224.326 580.641 224.859C580.542 225.383 580.492 226.033 580.492 226.807V228.106C580.492 228.78 580.55 229.35 580.666 229.817C580.791 230.283 580.974 230.666 581.216 230.965C581.457 231.257 581.749 231.473 582.09 231.615C582.44 231.748 582.843 231.815 583.301 231.815C583.976 231.815 584.554 231.69 585.037 231.44C585.528 231.182 585.953 230.849 586.311 230.441L587.597 232.227C587.356 232.551 587.031 232.872 586.623 233.188C586.215 233.496 585.72 233.75 585.137 233.95C584.563 234.15 583.888 234.25 583.114 234.25ZM594.877 231.815C595.252 231.815 595.585 231.736 595.876 231.577C596.176 231.419 596.413 231.174 596.588 230.841C596.763 230.499 596.859 230.058 596.875 229.517H599.61C599.594 230.474 599.373 231.311 598.948 232.027C598.524 232.735 597.958 233.284 597.25 233.675C596.551 234.058 595.772 234.25 594.915 234.25C594.024 234.25 593.246 234.108 592.58 233.825C591.922 233.534 591.377 233.113 590.944 232.564C590.511 232.014 590.186 231.348 589.97 230.566C589.762 229.775 589.658 228.872 589.658 227.856V226.632C589.658 225.625 589.762 224.726 589.97 223.935C590.186 223.144 590.511 222.474 590.944 221.924C591.377 221.375 591.922 220.959 592.58 220.676C593.237 220.384 594.012 220.239 594.902 220.239C595.851 220.239 596.672 220.438 597.363 220.838C598.062 221.229 598.607 221.804 598.998 222.561C599.39 223.319 599.594 224.247 599.61 225.346H596.875C596.859 224.763 596.771 224.276 596.613 223.885C596.455 223.485 596.23 223.186 595.939 222.986C595.656 222.786 595.298 222.686 594.865 222.686C594.39 222.686 593.999 222.778 593.691 222.961C593.391 223.136 593.158 223.394 592.992 223.735C592.834 224.076 592.721 224.493 592.655 224.984C592.596 225.467 592.567 226.016 592.567 226.632V227.856C592.567 228.489 592.596 229.051 592.655 229.542C592.713 230.025 592.821 230.437 592.979 230.778C593.146 231.12 593.383 231.378 593.691 231.552C593.999 231.727 594.395 231.815 594.877 231.815ZM604.793 214.819V234H601.883V214.819H604.793ZM611.786 220.488L606.991 227.019L604.081 230.329L603.344 227.756L605.48 224.722L608.302 220.488H611.786ZM608.876 234L605.542 227.681L607.365 225.546L612.223 234H608.876ZM619.691 214.819H622.588V231.103L622.363 234H619.691V214.819ZM629.868 226.72V227.781C629.868 228.863 629.776 229.808 629.593 230.616C629.41 231.423 629.135 232.098 628.769 232.639C628.403 233.18 627.945 233.584 627.395 233.85C626.846 234.117 626.205 234.25 625.472 234.25C624.79 234.25 624.199 234.1 623.699 233.8C623.208 233.492 622.792 233.063 622.45 232.514C622.117 231.956 621.851 231.294 621.651 230.528C621.46 229.763 621.318 228.918 621.227 227.993V226.507C621.31 225.583 621.447 224.738 621.639 223.972C621.838 223.198 622.105 222.536 622.438 221.987C622.771 221.429 623.187 221 623.687 220.701C624.186 220.393 624.777 220.239 625.46 220.239C626.201 220.239 626.846 220.372 627.395 220.638C627.945 220.905 628.403 221.308 628.769 221.849C629.135 222.382 629.41 223.057 629.593 223.872C629.776 224.68 629.868 225.629 629.868 226.72ZM626.958 227.781V226.72C626.958 226.037 626.921 225.446 626.846 224.946C626.779 224.447 626.659 224.035 626.484 223.71C626.317 223.377 626.084 223.127 625.785 222.961C625.485 222.794 625.106 222.711 624.648 222.711C624.249 222.711 623.903 222.79 623.612 222.948C623.329 223.107 623.087 223.331 622.887 223.623C622.688 223.906 622.529 224.235 622.413 224.609C622.296 224.976 622.217 225.371 622.176 225.796V228.705C622.234 229.263 622.35 229.775 622.525 230.241C622.708 230.707 622.971 231.078 623.312 231.353C623.662 231.627 624.115 231.765 624.673 231.765C625.114 231.765 625.481 231.69 625.772 231.54C626.063 231.39 626.297 231.153 626.471 230.828C626.655 230.503 626.779 230.091 626.846 229.592C626.921 229.084 626.958 228.48 626.958 227.781ZM638.584 231.253V224.522C638.584 224.056 638.518 223.681 638.385 223.398C638.26 223.115 638.072 222.911 637.823 222.786C637.581 222.653 637.277 222.586 636.911 222.586C636.528 222.586 636.203 222.665 635.937 222.823C635.679 222.982 635.483 223.198 635.35 223.473C635.217 223.739 635.15 224.047 635.15 224.397H632.241C632.241 223.856 632.349 223.335 632.565 222.836C632.79 222.336 633.111 221.891 633.527 221.5C633.943 221.109 634.447 220.8 635.038 220.576C635.629 220.351 636.287 220.239 637.011 220.239C637.877 220.239 638.647 220.384 639.321 220.676C639.996 220.959 640.524 221.421 640.907 222.062C641.298 222.694 641.494 223.527 641.494 224.559V230.866C641.494 231.49 641.532 232.048 641.606 232.539C641.69 233.022 641.802 233.442 641.944 233.8V234H638.984C638.851 233.675 638.751 233.259 638.684 232.751C638.618 232.243 638.584 231.744 638.584 231.253ZM638.972 225.771L638.984 227.656H637.585C637.169 227.656 636.795 227.715 636.462 227.831C636.129 227.939 635.845 228.097 635.612 228.306C635.388 228.505 635.213 228.751 635.088 229.042C634.971 229.334 634.913 229.654 634.913 230.004C634.913 230.429 634.971 230.774 635.088 231.04C635.213 231.307 635.392 231.507 635.625 231.64C635.866 231.765 636.158 231.827 636.499 231.827C636.965 231.827 637.369 231.727 637.71 231.527C638.06 231.319 638.326 231.07 638.51 230.778C638.701 230.487 638.776 230.22 638.734 229.979L639.396 231.19C639.33 231.507 639.205 231.84 639.022 232.189C638.847 232.539 638.618 232.872 638.335 233.188C638.052 233.505 637.71 233.763 637.311 233.963C636.911 234.154 636.449 234.25 635.925 234.25C635.167 234.25 634.493 234.092 633.902 233.775C633.31 233.459 632.844 233.005 632.503 232.414C632.17 231.815 632.003 231.099 632.003 230.266C632.003 229.592 632.116 228.98 632.341 228.43C632.565 227.881 632.898 227.411 633.34 227.019C633.781 226.62 634.334 226.312 635 226.095C635.675 225.879 636.462 225.771 637.361 225.771H638.972ZM649.274 231.815C649.649 231.815 649.982 231.736 650.273 231.577C650.573 231.419 650.81 231.174 650.985 230.841C651.16 230.499 651.255 230.058 651.272 229.517H654.007C653.99 230.474 653.769 231.311 653.345 232.027C652.92 232.735 652.354 233.284 651.647 233.675C650.947 234.058 650.169 234.25 649.311 234.25C648.421 234.25 647.642 234.108 646.976 233.825C646.318 233.534 645.773 233.113 645.34 232.564C644.907 232.014 644.583 231.348 644.366 230.566C644.158 229.775 644.054 228.872 644.054 227.856V226.632C644.054 225.625 644.158 224.726 644.366 223.935C644.583 223.144 644.907 222.474 645.34 221.924C645.773 221.375 646.318 220.959 646.976 220.676C647.634 220.384 648.408 220.239 649.299 220.239C650.248 220.239 651.068 220.438 651.759 220.838C652.458 221.229 653.004 221.804 653.395 222.561C653.786 223.319 653.99 224.247 654.007 225.346H651.272C651.255 224.763 651.168 224.276 651.01 223.885C650.852 223.485 650.627 223.186 650.335 222.986C650.052 222.786 649.694 222.686 649.261 222.686C648.787 222.686 648.396 222.778 648.088 222.961C647.788 223.136 647.555 223.394 647.388 223.735C647.23 224.076 647.118 224.493 647.051 224.984C646.993 225.467 646.964 226.016 646.964 226.632V227.856C646.964 228.489 646.993 229.051 647.051 229.542C647.109 230.025 647.218 230.437 647.376 230.778C647.542 231.12 647.78 231.378 648.088 231.552C648.396 231.727 648.791 231.815 649.274 231.815ZM659.189 214.819V234H656.28V214.819H659.189ZM666.182 220.488L661.387 227.019L658.477 230.329L657.741 227.756L659.876 224.722L662.698 220.488H666.182ZM663.273 234L659.938 227.681L661.762 225.546L666.619 234H663.273ZM677.159 214.819V234H674.249V214.819H677.159ZM686.537 231.253V224.522C686.537 224.056 686.471 223.681 686.337 223.398C686.213 223.115 686.025 222.911 685.776 222.786C685.534 222.653 685.23 222.586 684.864 222.586C684.481 222.586 684.156 222.665 683.89 222.823C683.632 222.982 683.436 223.198 683.303 223.473C683.17 223.739 683.103 224.047 683.103 224.397H680.194C680.194 223.856 680.302 223.335 680.518 222.836C680.743 222.336 681.063 221.891 681.48 221.5C681.896 221.109 682.4 220.8 682.991 220.576C683.582 220.351 684.24 220.239 684.964 220.239C685.83 220.239 686.6 220.384 687.274 220.676C687.948 220.959 688.477 221.421 688.86 222.062C689.251 222.694 689.447 223.527 689.447 224.559V230.866C689.447 231.49 689.484 232.048 689.559 232.539C689.643 233.022 689.755 233.442 689.896 233.8V234H686.937C686.804 233.675 686.704 233.259 686.637 232.751C686.571 232.243 686.537 231.744 686.537 231.253ZM686.924 225.771L686.937 227.656H685.538C685.122 227.656 684.747 227.715 684.414 227.831C684.081 227.939 683.798 228.097 683.565 228.306C683.34 228.505 683.166 228.751 683.041 229.042C682.924 229.334 682.866 229.654 682.866 230.004C682.866 230.429 682.924 230.774 683.041 231.04C683.166 231.307 683.345 231.507 683.578 231.64C683.819 231.765 684.11 231.827 684.452 231.827C684.918 231.827 685.322 231.727 685.663 231.527C686.013 231.319 686.279 231.07 686.462 230.778C686.654 230.487 686.729 230.22 686.687 229.979L687.349 231.19C687.282 231.507 687.157 231.84 686.974 232.189C686.8 232.539 686.571 232.872 686.288 233.188C686.004 233.505 685.663 233.763 685.264 233.963C684.864 234.154 684.402 234.25 683.877 234.25C683.12 234.25 682.445 234.092 681.854 233.775C681.263 233.459 680.797 233.005 680.456 232.414C680.123 231.815 679.956 231.099 679.956 230.266C679.956 229.592 680.069 228.98 680.293 228.43C680.518 227.881 680.851 227.411 681.292 227.019C681.734 226.62 682.287 226.312 682.953 226.095C683.628 225.879 684.414 225.771 685.313 225.771H686.924ZM697.889 220.488V222.736H691.258V220.488H697.889ZM693.068 217.179H695.965V230.229C695.965 230.645 696.011 230.961 696.103 231.178C696.194 231.394 696.323 231.54 696.49 231.615C696.656 231.69 696.852 231.727 697.077 231.727C697.243 231.727 697.406 231.715 697.564 231.69C697.73 231.656 697.851 231.627 697.926 231.602V233.95C697.71 234.033 697.46 234.104 697.177 234.162C696.894 234.221 696.552 234.25 696.153 234.25C695.562 234.25 695.033 234.129 694.567 233.888C694.101 233.638 693.734 233.234 693.468 232.676C693.202 232.11 693.068 231.361 693.068 230.429V217.179ZM705.319 234.25C704.445 234.25 703.666 234.121 702.984 233.863C702.301 233.596 701.722 233.205 701.248 232.689C700.773 232.164 700.411 231.523 700.161 230.766C699.912 230 699.787 229.113 699.787 228.106V226.807C699.787 225.667 699.916 224.684 700.174 223.86C700.44 223.027 700.807 222.345 701.273 221.812C701.739 221.279 702.288 220.884 702.921 220.626C703.562 220.368 704.257 220.239 705.007 220.239C705.856 220.239 706.593 220.376 707.217 220.651C707.841 220.925 708.353 221.337 708.753 221.887C709.161 222.436 709.461 223.115 709.652 223.922C709.852 224.73 709.952 225.658 709.952 226.707V228.168H701.185V225.97H707.08V225.658C707.063 225.042 706.988 224.514 706.855 224.072C706.722 223.623 706.505 223.281 706.205 223.048C705.914 222.807 705.51 222.686 704.994 222.686C704.619 222.686 704.286 222.757 703.995 222.898C703.704 223.04 703.462 223.269 703.271 223.585C703.088 223.902 702.946 224.326 702.846 224.859C702.746 225.383 702.696 226.033 702.696 226.807V228.106C702.696 228.78 702.755 229.35 702.871 229.817C702.996 230.283 703.179 230.666 703.421 230.965C703.662 231.257 703.953 231.473 704.295 231.615C704.644 231.748 705.048 231.815 705.506 231.815C706.18 231.815 706.759 231.69 707.242 231.44C707.733 231.182 708.158 230.849 708.516 230.441L709.802 232.227C709.56 232.551 709.236 232.872 708.828 233.188C708.42 233.496 707.925 233.75 707.342 233.95C706.767 234.15 706.093 234.25 705.319 234.25ZM715.197 223.098V234H712.287V220.488H715.059L715.197 223.098ZM718.456 220.401L718.443 223.273C718.277 223.231 718.098 223.206 717.906 223.198C717.723 223.181 717.54 223.173 717.357 223.173C716.957 223.173 716.612 223.244 716.32 223.385C716.029 223.527 715.783 223.731 715.584 223.997C715.384 224.264 715.226 224.584 715.109 224.959C715.001 225.334 714.934 225.758 714.909 226.233L714.285 226.258C714.285 225.408 714.352 224.622 714.485 223.897C714.618 223.165 714.818 222.528 715.084 221.987C715.359 221.437 715.7 221.009 716.108 220.701C716.516 220.393 716.991 220.239 717.532 220.239C717.682 220.239 717.852 220.255 718.044 220.288C718.235 220.322 718.373 220.359 718.456 220.401ZM730.157 234H727.247V219.202C727.247 218.195 727.414 217.35 727.747 216.667C728.088 215.976 728.567 215.452 729.183 215.094C729.807 214.736 730.544 214.557 731.393 214.557C731.651 214.557 731.905 214.577 732.155 214.619C732.405 214.652 732.642 214.706 732.867 214.781L732.804 217.154C732.688 217.121 732.542 217.096 732.367 217.079C732.201 217.062 732.038 217.054 731.88 217.054C731.514 217.054 731.202 217.137 730.944 217.304C730.685 217.47 730.49 217.712 730.357 218.028C730.223 218.345 730.157 218.736 730.157 219.202V234ZM732.355 220.488V222.736H725.549V220.488H732.355ZM734.165 227.794V226.707C734.165 225.658 734.294 224.73 734.553 223.922C734.811 223.115 735.177 222.441 735.651 221.899C736.134 221.35 736.7 220.938 737.35 220.663C737.999 220.38 738.715 220.239 739.498 220.239C740.297 220.239 741.021 220.38 741.671 220.663C742.328 220.938 742.894 221.35 743.369 221.899C743.852 222.441 744.222 223.115 744.48 223.922C744.738 224.73 744.867 225.658 744.867 226.707V227.794C744.867 228.843 744.738 229.771 744.48 230.578C744.222 231.386 743.852 232.064 743.369 232.614C742.894 233.155 742.332 233.563 741.683 233.838C741.034 234.112 740.314 234.25 739.523 234.25C738.74 234.25 738.02 234.112 737.362 233.838C736.713 233.563 736.147 233.155 735.664 232.614C735.181 232.064 734.811 231.386 734.553 230.578C734.294 229.771 734.165 228.843 734.165 227.794ZM737.075 226.707V227.794C737.075 228.468 737.133 229.059 737.25 229.567C737.366 230.066 737.533 230.483 737.749 230.816C737.966 231.149 738.224 231.398 738.524 231.565C738.823 231.731 739.156 231.815 739.523 231.815C739.931 231.815 740.284 231.731 740.584 231.565C740.892 231.398 741.146 231.149 741.346 230.816C741.554 230.483 741.708 230.066 741.808 229.567C741.908 229.059 741.958 228.468 741.958 227.794V226.707C741.958 226.041 741.899 225.458 741.783 224.959C741.666 224.451 741.5 224.031 741.283 223.698C741.067 223.356 740.805 223.102 740.497 222.936C740.197 222.769 739.864 222.686 739.498 222.686C739.14 222.686 738.811 222.769 738.511 222.936C738.22 223.102 737.966 223.356 737.749 223.698C737.533 224.031 737.366 224.451 737.25 224.959C737.133 225.458 737.075 226.041 737.075 226.707ZM750.287 223.098V234H747.377V220.488H750.15L750.287 223.098ZM753.546 220.401L753.534 223.273C753.367 223.231 753.188 223.206 752.997 223.198C752.814 223.181 752.631 223.173 752.447 223.173C752.048 223.173 751.702 223.244 751.411 223.385C751.12 223.527 750.874 223.731 750.674 223.997C750.474 224.264 750.316 224.584 750.2 224.959C750.091 225.334 750.025 225.758 750 226.233L749.375 226.258C749.375 225.408 749.442 224.622 749.575 223.897C749.708 223.165 749.908 222.528 750.175 221.987C750.449 221.437 750.791 221.009 751.199 220.701C751.607 220.393 752.081 220.239 752.622 220.239C752.772 220.239 752.943 220.255 753.134 220.288C753.326 220.322 753.463 220.359 753.546 220.401ZM768.107 230.816V220.488H771.017V234H768.282L768.107 230.816ZM768.519 227.993L769.443 227.968C769.443 228.876 769.36 229.713 769.193 230.478C769.027 231.244 768.769 231.91 768.419 232.476C768.078 233.034 767.632 233.471 767.083 233.788C766.542 234.096 765.888 234.25 765.122 234.25C764.573 234.25 764.069 234.154 763.611 233.963C763.154 233.771 762.758 233.476 762.425 233.076C762.092 232.676 761.834 232.156 761.651 231.515C761.468 230.874 761.376 230.108 761.376 229.217V220.488H764.286V229.242C764.286 229.725 764.327 230.129 764.411 230.453C764.494 230.77 764.61 231.028 764.76 231.228C764.91 231.419 765.077 231.557 765.26 231.64C765.451 231.715 765.655 231.752 765.872 231.752C766.529 231.752 767.05 231.59 767.433 231.265C767.824 230.932 768.103 230.483 768.269 229.917C768.436 229.35 768.519 228.709 768.519 227.993ZM776.836 223.086V239.195H773.939V220.488H776.599L776.836 223.086ZM784.104 226.707V227.781C784.104 228.838 784.008 229.771 783.817 230.578C783.625 231.386 783.342 232.064 782.967 232.614C782.601 233.155 782.147 233.563 781.606 233.838C781.065 234.112 780.432 234.25 779.708 234.25C779.025 234.25 778.43 234.1 777.922 233.8C777.423 233.5 777.002 233.08 776.661 232.539C776.32 231.998 776.045 231.357 775.837 230.616C775.637 229.867 775.491 229.051 775.4 228.168V226.52C775.491 225.587 775.633 224.738 775.824 223.972C776.024 223.198 776.295 222.532 776.636 221.974C776.986 221.417 777.41 220.988 777.91 220.688C778.409 220.388 779.005 220.239 779.696 220.239C780.42 220.239 781.057 220.368 781.606 220.626C782.156 220.884 782.614 221.279 782.98 221.812C783.354 222.345 783.633 223.019 783.817 223.835C784.008 224.643 784.104 225.6 784.104 226.707ZM781.194 227.781V226.707C781.194 226.016 781.148 225.421 781.057 224.921C780.974 224.414 780.832 223.997 780.632 223.673C780.441 223.348 780.195 223.107 779.895 222.948C779.604 222.79 779.242 222.711 778.809 222.711C778.426 222.711 778.089 222.79 777.797 222.948C777.506 223.107 777.26 223.327 777.061 223.61C776.861 223.885 776.703 224.214 776.586 224.597C776.47 224.971 776.395 225.379 776.361 225.821V228.88C776.436 229.413 776.561 229.904 776.736 230.354C776.911 230.795 777.165 231.149 777.498 231.415C777.839 231.681 778.284 231.815 778.834 231.815C779.259 231.815 779.621 231.731 779.92 231.565C780.22 231.398 780.462 231.149 780.645 230.816C780.836 230.483 780.974 230.066 781.057 229.567C781.148 229.059 781.194 228.464 781.194 227.781ZM793.357 231.178V214.819H796.267V234L793.632 234.012L793.357 231.178ZM786.102 227.794V226.732C786.102 225.625 786.202 224.668 786.402 223.86C786.601 223.044 786.893 222.366 787.276 221.824C787.667 221.283 788.137 220.884 788.687 220.626C789.236 220.368 789.856 220.239 790.547 220.239C791.222 220.239 791.805 220.393 792.296 220.701C792.787 221 793.203 221.429 793.544 221.987C793.886 222.545 794.156 223.211 794.356 223.985C794.564 224.751 794.706 225.608 794.781 226.557V228.031C794.689 228.947 794.543 229.787 794.344 230.553C794.144 231.311 793.873 231.965 793.532 232.514C793.191 233.063 792.77 233.492 792.271 233.8C791.78 234.1 791.201 234.25 790.535 234.25C789.844 234.25 789.224 234.112 788.674 233.838C788.133 233.563 787.667 233.155 787.276 232.614C786.893 232.073 786.601 231.403 786.402 230.603C786.202 229.796 786.102 228.859 786.102 227.794ZM789.011 226.732V227.794C789.011 228.485 789.053 229.08 789.136 229.579C789.22 230.079 789.353 230.491 789.536 230.816C789.719 231.132 789.961 231.369 790.26 231.527C790.56 231.677 790.922 231.752 791.347 231.752C791.879 231.752 792.312 231.619 792.645 231.353C792.987 231.086 793.249 230.728 793.432 230.279C793.624 229.821 793.757 229.313 793.832 228.755V225.846C793.79 225.404 793.707 224.996 793.582 224.622C793.457 224.239 793.295 223.906 793.095 223.623C792.895 223.34 792.65 223.119 792.358 222.961C792.075 222.794 791.742 222.711 791.359 222.711C790.935 222.711 790.572 222.794 790.273 222.961C789.973 223.119 789.732 223.365 789.548 223.698C789.365 224.022 789.228 224.439 789.136 224.946C789.053 225.446 789.011 226.041 789.011 226.732ZM805.52 231.253V224.522C805.52 224.056 805.454 223.681 805.32 223.398C805.195 223.115 805.008 222.911 804.758 222.786C804.517 222.653 804.213 222.586 803.847 222.586C803.464 222.586 803.139 222.665 802.873 222.823C802.615 222.982 802.419 223.198 802.286 223.473C802.153 223.739 802.086 224.047 802.086 224.397H799.176C799.176 223.856 799.285 223.335 799.501 222.836C799.726 222.336 800.046 221.891 800.463 221.5C800.879 221.109 801.383 220.8 801.974 220.576C802.565 220.351 803.222 220.239 803.947 220.239C804.813 220.239 805.583 220.384 806.257 220.676C806.931 220.959 807.46 221.421 807.843 222.062C808.234 222.694 808.43 223.527 808.43 224.559V230.866C808.43 231.49 808.467 232.048 808.542 232.539C808.625 233.022 808.738 233.442 808.879 233.8V234H805.92C805.787 233.675 805.687 233.259 805.62 232.751C805.553 232.243 805.52 231.744 805.52 231.253ZM805.907 225.771L805.92 227.656H804.521C804.105 227.656 803.73 227.715 803.397 227.831C803.064 227.939 802.781 228.097 802.548 228.306C802.323 228.505 802.148 228.751 802.024 229.042C801.907 229.334 801.849 229.654 801.849 230.004C801.849 230.429 801.907 230.774 802.024 231.04C802.148 231.307 802.327 231.507 802.561 231.64C802.802 231.765 803.093 231.827 803.435 231.827C803.901 231.827 804.305 231.727 804.646 231.527C804.996 231.319 805.262 231.07 805.445 230.778C805.637 230.487 805.712 230.22 805.67 229.979L806.332 231.19C806.265 231.507 806.14 231.84 805.957 232.189C805.782 232.539 805.553 232.872 805.27 233.188C804.987 233.505 804.646 233.763 804.246 233.963C803.847 234.154 803.385 234.25 802.86 234.25C802.103 234.25 801.428 234.092 800.837 233.775C800.246 233.459 799.78 233.005 799.439 232.414C799.106 231.815 798.939 231.099 798.939 230.266C798.939 229.592 799.052 228.98 799.276 228.43C799.501 227.881 799.834 227.411 800.275 227.019C800.717 226.62 801.27 226.312 801.936 226.095C802.611 225.879 803.397 225.771 804.296 225.771H805.907ZM816.872 220.488V222.736H810.241V220.488H816.872ZM812.051 217.179H814.948V230.229C814.948 230.645 814.994 230.961 815.086 231.178C815.177 231.394 815.306 231.54 815.473 231.615C815.639 231.69 815.835 231.727 816.06 231.727C816.226 231.727 816.389 231.715 816.547 231.69C816.713 231.656 816.834 231.627 816.909 231.602V233.95C816.693 234.033 816.443 234.104 816.16 234.162C815.877 234.221 815.535 234.25 815.136 234.25C814.545 234.25 814.016 234.129 813.55 233.888C813.084 233.638 812.717 233.234 812.451 232.676C812.184 232.11 812.051 231.361 812.051 230.429V217.179ZM824.302 234.25C823.428 234.25 822.649 234.121 821.967 233.863C821.284 233.596 820.705 233.205 820.231 232.689C819.756 232.164 819.394 231.523 819.144 230.766C818.895 230 818.77 229.113 818.77 228.106V226.807C818.77 225.667 818.899 224.684 819.157 223.86C819.423 223.027 819.789 222.345 820.256 221.812C820.722 221.279 821.271 220.884 821.904 220.626C822.545 220.368 823.24 220.239 823.99 220.239C824.839 220.239 825.575 220.376 826.2 220.651C826.824 220.925 827.336 221.337 827.736 221.887C828.144 222.436 828.443 223.115 828.635 223.922C828.835 224.73 828.935 225.658 828.935 226.707V228.168H820.168V225.97H826.062V225.658C826.046 225.042 825.971 224.514 825.838 224.072C825.705 223.623 825.488 223.281 825.188 223.048C824.897 222.807 824.493 222.686 823.977 222.686C823.602 222.686 823.269 222.757 822.978 222.898C822.687 223.04 822.445 223.269 822.254 223.585C822.071 223.902 821.929 224.326 821.829 224.859C821.729 225.383 821.679 226.033 821.679 226.807V228.106C821.679 228.78 821.738 229.35 821.854 229.817C821.979 230.283 822.162 230.666 822.404 230.965C822.645 231.257 822.936 231.473 823.278 231.615C823.627 231.748 824.031 231.815 824.489 231.815C825.163 231.815 825.742 231.69 826.225 231.44C826.716 231.182 827.141 230.849 827.499 230.441L828.785 232.227C828.543 232.551 828.219 232.872 827.811 233.188C827.403 233.496 826.907 233.75 826.325 233.95C825.75 234.15 825.076 234.25 824.302 234.25ZM837.526 230.441C837.526 230.158 837.443 229.908 837.276 229.692C837.118 229.467 836.86 229.246 836.502 229.03C836.144 228.813 835.666 228.58 835.066 228.331C834.442 228.072 833.888 227.814 833.405 227.556C832.922 227.298 832.514 227.015 832.181 226.707C831.848 226.391 831.595 226.029 831.42 225.621C831.245 225.213 831.157 224.738 831.157 224.197C831.157 223.639 831.262 223.123 831.47 222.649C831.678 222.174 831.978 221.758 832.369 221.4C832.76 221.034 833.23 220.751 833.78 220.551C834.329 220.343 834.95 220.239 835.641 220.239C836.615 220.239 837.447 220.418 838.138 220.776C838.837 221.125 839.37 221.616 839.737 222.249C840.111 222.873 840.298 223.594 840.298 224.409H837.389C837.389 224.068 837.326 223.76 837.202 223.485C837.077 223.202 836.885 222.978 836.627 222.811C836.369 222.636 836.04 222.549 835.641 222.549C835.274 222.549 834.966 222.62 834.716 222.761C834.475 222.894 834.292 223.077 834.167 223.311C834.05 223.535 833.992 223.789 833.992 224.072C833.992 224.28 834.03 224.464 834.105 224.622C834.18 224.78 834.304 224.934 834.479 225.084C834.654 225.225 834.887 225.371 835.179 225.521C835.478 225.671 835.857 225.841 836.315 226.033C837.222 226.382 837.976 226.745 838.575 227.119C839.175 227.494 839.624 227.931 839.924 228.43C840.224 228.93 840.373 229.55 840.373 230.291C840.373 230.891 840.261 231.432 840.036 231.915C839.82 232.397 839.503 232.814 839.087 233.163C838.679 233.513 838.184 233.784 837.601 233.975C837.027 234.158 836.386 234.25 835.678 234.25C834.621 234.25 833.726 234.042 832.993 233.625C832.269 233.201 831.719 232.655 831.345 231.989C830.97 231.323 830.783 230.62 830.783 229.879H833.593C833.618 230.412 833.73 230.828 833.93 231.128C834.138 231.428 834.4 231.636 834.716 231.752C835.033 231.86 835.362 231.915 835.703 231.915C836.111 231.915 836.448 231.86 836.715 231.752C836.981 231.636 837.181 231.465 837.314 231.24C837.455 231.015 837.526 230.749 837.526 230.441ZM843.133 232.476C843.133 231.994 843.287 231.59 843.595 231.265C843.912 230.941 844.345 230.778 844.894 230.778C845.443 230.778 845.872 230.941 846.18 231.265C846.497 231.59 846.655 231.994 846.655 232.476C846.655 232.943 846.497 233.338 846.18 233.663C845.872 233.988 845.443 234.15 844.894 234.15C844.345 234.15 843.912 233.988 843.595 233.663C843.287 233.338 843.133 232.943 843.133 232.476Z" fill="white"/>
<path d="M693.884 132.031V123.165M693.884 114.299H693.906M716.048 123.165C716.048 135.406 706.125 145.33 693.884 145.33C681.642 145.33 671.719 135.406 671.719 123.165C671.719 110.924 681.642 101 693.884 101C706.125 101 716.048 110.924 716.048 123.165Z" stroke="white" stroke-width="5.96746" stroke-linecap="round" stroke-linejoin="round"/>
</g>
</svg>
