<svg width="33" height="31" viewBox="0 0 33 31" fill="none" xmlns="http://www.w3.org/2000/svg">
<path opacity="0.8" d="M15.1989 1.39784C15.7548 0.280771 17.3485 0.280768 17.9045 1.39784L21.6796 8.98305C21.9006 9.42726 22.3257 9.73464 22.8168 9.8054L31.2371 11.0187C32.4805 11.1979 32.975 12.7278 32.0718 13.6008L25.9951 19.4747C25.6353 19.8224 25.471 20.3257 25.5563 20.8187L26.993 29.1255C27.2062 30.3582 25.9148 31.3013 24.8055 30.7229L17.2502 26.7841C16.8125 26.5559 16.2909 26.5559 15.8531 26.7841L8.29787 30.7229C7.18856 31.3013 5.89714 30.3582 6.11035 29.1255L7.54708 20.8187C7.63235 20.3257 7.46806 19.8224 7.10831 19.4747L1.03156 13.6008C0.128344 12.7278 0.622896 11.1979 1.86625 11.0187L10.2865 9.8054C10.7777 9.73464 11.2027 9.42727 11.4238 8.98305L15.1989 1.39784Z" fill="#B4A5D7"/>
</svg>
