<svg width="32" height="31" viewBox="0 0 32 31" fill="none" xmlns="http://www.w3.org/2000/svg">
<path d="M32 4.45076C32 10.1878 32 15.9248 32 21.6619C32 21.7643 32 21.7643 31.9016 21.8668C31.7046 22.8912 31.3108 23.8132 30.5231 24.5304C29.5385 25.4524 28.4554 25.8622 27.1754 25.8622C22.9416 25.8622 18.7077 25.8622 14.4739 25.8622C14.2769 25.8622 14.08 25.9646 13.8831 26.0671C11.9139 27.6038 10.0431 29.1405 8.07386 30.6772C7.87694 30.7796 7.68001 30.8821 7.58155 30.9845C6.89232 31.087 6.4 30.6772 6.4 29.8576C6.4 28.6283 6.4 27.3989 6.4 26.1695C6.4 26.0671 6.4 25.9646 6.4 25.7597C6.20308 25.7597 6.10465 25.7597 6.00619 25.7597C5.31696 25.7597 4.62769 25.7597 3.93846 25.6573C1.67385 25.2475 0.0984615 23.301 0 20.8423C0 15.515 0 10.1878 0 4.86054C0 4.75809 0 4.65565 0 4.45076C0.0984615 2.09448 1.96928 0.045532 4.23389 0.045532C5.90774 -0.056915 7.48312 0.045532 9.15697 0.045532C15.1631 0.045532 21.2677 0.045532 27.2739 0.045532C29.2431 0.045532 30.8185 0.967558 31.7046 2.91405C31.8031 3.42629 31.9015 3.93852 32 4.45076Z" fill="white"/>
</svg>
