<svg width="49" height="38" viewBox="0 0 49 38" fill="none" xmlns="http://www.w3.org/2000/svg">
<path opacity="0.8" d="M0 33.0475C0 23.2666 0 13.634 0 3.85308V3.70488C0.301538 1.63015 2.26156 0 4.82463 0C9.80002 0 14.9262 0 19.9016 0C20.3539 0 20.8062 0.148186 21.1077 0.592771C22.1631 1.92653 23.3692 3.1121 24.4246 4.44585C24.7262 4.74224 24.877 4.89042 25.3293 4.89042C31.6616 4.89042 37.9939 4.89042 44.3262 4.89042C47.04 4.89042 49 6.66876 49 9.33627C49 17.0424 49 24.8968 49 32.6029C49 34.0849 48.397 35.2704 47.1908 36.1596C46.2862 36.9006 45.2308 37.0488 44.1755 37.0488C34.677 37.0488 25.1785 37.0488 15.8308 37.0488C12.2123 37.0488 8.59386 37.0488 4.82463 37.0488C3.61848 37.0488 2.41231 36.7524 1.50769 35.8632C0.603077 35.1222 0.301538 34.0849 0 33.0475Z" fill="#685AAD"/>
<path d="M34.8509 33.0544C34.6017 33.09 34.3525 33.0971 34.1033 33.1184C31.3623 33.1113 29.077 31.1179 28.7281 28.4196C28.365 25.6003 30.2588 22.9946 33.0497 22.4962C34.2528 22.2755 35.4418 22.3111 36.5524 22.8949C38.1899 23.7563 39.1439 25.1304 39.4501 26.9388C39.9484 29.8435 37.7485 32.6557 34.8509 33.0544Z" fill="#EDE8FA"/>
<path d="M41.2734 15.536C42.3698 15.5716 43.6513 15.7069 44.8545 16.2266C45.1606 16.3619 45.4668 16.5327 45.7302 16.7392C46.378 17.2518 46.3709 17.8997 45.7302 18.4265C45.303 18.7754 44.8046 18.989 44.2849 19.1527C42.918 19.5728 41.5226 19.6795 40.0987 19.6083C39.1375 19.5585 38.1835 19.4304 37.2722 19.11C36.8807 18.9747 36.5105 18.7611 36.1402 18.576C36.0263 18.5191 35.9338 18.4265 35.8412 18.3411C35.3286 17.8498 35.3215 17.3088 35.8412 16.8175C36.247 16.4331 36.7525 16.2124 37.2722 16.0415C38.39 15.6855 39.643 15.5218 41.2734 15.536Z" fill="#EDE8FA"/>
<path d="M35.4053 19.6549C35.6901 19.8044 35.9464 19.961 36.224 20.0821C37.0997 20.4807 38.0252 20.673 38.965 20.7869C40.2465 20.9435 41.528 20.9435 42.8024 20.7655C43.9985 20.6018 45.1518 20.3241 46.1984 19.6406C46.2055 19.6976 46.2126 19.7403 46.2126 19.7901C46.2198 20.1817 46.234 20.5733 46.2126 20.9577C46.2055 21.1072 46.1343 21.271 46.0418 21.3849C45.8139 21.6839 45.4793 21.8477 45.1518 22.0043C44.269 22.403 43.3364 22.6237 42.3895 22.7732C41.5992 22.9014 40.809 22.9583 40.0116 22.9227C39.6627 22.9014 39.3139 22.8515 38.965 22.8017C38.787 22.7803 38.6446 22.702 38.5022 22.5739C37.6906 21.8548 36.7793 21.3066 35.6901 21.1072C35.4053 21.0574 35.4053 21.0503 35.4053 20.7513C35.4053 20.3882 35.4053 20.0251 35.4053 19.6549Z" fill="#EDE8FA"/>
<path d="M38.3896 32.8861C38.589 32.6867 38.7812 32.5229 38.9378 32.3307C39.2297 31.989 39.5145 31.6401 39.7708 31.2699C39.8847 31.1062 39.9915 31.0564 40.1766 31.0635C41.4368 31.1276 42.6756 31.0208 43.9001 30.7004C44.6121 30.5081 45.2955 30.2447 45.9434 29.8887C46.0004 29.8603 46.0573 29.8318 46.1428 29.7891C46.1499 29.8674 46.157 29.9243 46.157 29.9742C46.1641 30.3657 46.1712 30.7573 46.1712 31.1418C46.1712 31.3625 46.0787 31.5618 45.9007 31.6757C45.5732 31.9036 45.2386 32.1314 44.8755 32.2951C43.836 32.7508 42.7325 32.9501 41.6076 33.0712C40.7533 33.1637 39.899 33.1779 39.0446 33.0355C38.8311 32.9928 38.6246 32.9359 38.3896 32.8861Z" fill="#EDE8FA"/>
<path d="M39.8633 24.2652C42.0917 24.4147 44.2204 24.0872 46.2067 22.9766C46.2067 23.4607 46.2281 23.9163 46.1925 24.3649C46.1783 24.5357 46.043 24.7137 45.9219 24.8419C45.5233 25.2619 45.0035 25.4969 44.4696 25.6962C43.2877 26.1376 42.0561 26.3085 40.8031 26.3014C40.7176 26.3014 40.6535 26.2942 40.6251 26.1875C40.4613 25.5325 40.1908 24.9202 39.8846 24.3293C39.8846 24.3221 39.8775 24.3079 39.8633 24.2652Z" fill="#EDE8FA"/>
<path d="M46.1499 26.3867C46.1499 26.878 46.1713 27.3336 46.1357 27.7822C46.1215 27.9388 46.0075 28.1096 45.8936 28.2378C45.5448 28.6151 45.0891 28.843 44.6192 29.0281C43.3235 29.5549 41.9637 29.7542 40.5683 29.7186C40.554 29.7186 40.5327 29.7115 40.4971 29.7044C40.7107 29.0494 40.8317 28.3873 40.7747 27.6753C42.6899 27.7679 44.4626 27.3265 46.1499 26.3867Z" fill="#EDE8FA"/>
</svg>
